<?xml version="1.0" encoding="utf-8"?>
<!-- Generator: Adobe Illustrator 23.0.1, SVG Export Plug-In . SVG Version: 6.00 Build 0)  -->
<svg version="1.1" id="Layer_1" xmlns="http://www.w3.org/2000/svg" xmlns:xlink="http://www.w3.org/1999/xlink" x="0px" y="0px"
	 viewBox="0 0 288 306" style="enable-background:new 0 0 288 306;" xml:space="preserve">
<rect x="-42" y="-8" style="fill:#FFFFFF;" width="420" height="315"/>
<rect x="-42" y="-8" style="fill:#FFFFFF;" width="420" height="315"/>
<polyline style="fill:#FFFFFF;" points="99.5,272.5 284.1,266.8 284.1,47.3 251.5,15.3 66.9,20.9 66.9,240.4 "/>
<line style="fill:none;stroke:#FF0000;stroke-width:4.2577;stroke-linejoin:round;stroke-miterlimit:10;" x1="186.4" y1="193.3" x2="205.4" y2="188.6"/>
<line style="fill:none;stroke:#FF0000;stroke-width:0.9998;stroke-linejoin:round;stroke-miterlimit:10;" x1="205.4" y1="236.2" x2="205.4" y2="236.2"/>
<text transform="matrix(1 0 0 1 54.1655 237.9121)" style="fill:#262626; font-family:'ArialMT'; font-size:9.9998px;">0</text>
<line style="fill:none;stroke:#000000;stroke-width:0.5002;stroke-linejoin:round;stroke-miterlimit:10;" x1="66.9" y1="240.4" x2="251.5" y2="234.8"/>
<line style="fill:none;stroke:#000000;stroke-width:0.5002;stroke-linejoin:round;stroke-miterlimit:10;" x1="284.1" y1="266.8" x2="251.5" y2="234.8"/>
<line style="fill:none;stroke:#000000;stroke-width:0.5002;stroke-linejoin:round;stroke-miterlimit:10;" x1="251.5" y1="234.8" x2="251.5" y2="15.3"/>
<line style="fill:none;stroke:#000000;stroke-width:0.5002;stroke-linejoin:round;stroke-miterlimit:10;" x1="251.5" y1="234.8" x2="251.5" y2="15.3"/>
<line style="fill:none;stroke:#FF0000;stroke-width:0.9998;stroke-linejoin:round;stroke-miterlimit:10;" x1="186.4" y1="193.3" x2="182.3" y2="178.7"/>
<text transform="matrix(1 0 0 1 54.1655 196.5869)" style="fill:#262626; font-family:'ArialMT'; font-size:9.9998px;">2</text>
<line style="fill:none;stroke:#FF0000;stroke-width:4.1355;stroke-linejoin:round;stroke-miterlimit:10;" x1="186.4" y1="193.3" x2="159.2" y2="190"/>
<line style="fill:none;stroke:#FF0000;stroke-width:0.9998;stroke-linejoin:round;stroke-miterlimit:10;" x1="94.1" y1="134" x2="113.1" y2="160.4"/>
<line style="fill:none;stroke:#FF0000;stroke-width:3.996;stroke-linejoin:round;stroke-miterlimit:10;" x1="94.1" y1="196.2" x2="113.1" y2="191.5"/>
<line style="fill:none;stroke:#FF0000;stroke-width:0.9998;stroke-linejoin:round;stroke-miterlimit:10;" x1="186.4" y1="131.1" x2="159.2" y2="159"/>
<text transform="matrix(1 0 0 1 54.1655 155.2617)" style="fill:#262626; font-family:'ArialMT'; font-size:9.9998px;">4</text>
<line style="fill:none;stroke:#262626;stroke-width:0.5002;stroke-linejoin:round;stroke-miterlimit:10;" x1="66.9" y1="240.4" x2="63" y2="236.6"/>
<line style="fill:none;stroke:#FF0000;stroke-width:2.7915;stroke-linejoin:round;stroke-miterlimit:10;" x1="186.4" y1="69" x2="205.4" y2="64.2"/>
<line style="fill:none;stroke:#FF0000;stroke-width:3.8902;stroke-linejoin:round;stroke-miterlimit:10;" x1="66.9" y1="192.9" x2="66.9" y2="192.9"/>
<text transform="matrix(1 0 0 1 54.1655 113.937)" style="fill:#262626; font-family:'ArialMT'; font-size:9.9998px;">6</text>
<line style="fill:none;stroke:#FF0000;stroke-width:1.6935;stroke-linejoin:round;stroke-miterlimit:10;" x1="94.1" y1="196.2" x2="90" y2="181.5"/>
<line style="fill:none;stroke:#262626;stroke-width:0.5002;stroke-linecap:round;stroke-linejoin:round;stroke-miterlimit:10;" x1="66.9" y1="199.1" x2="63" y2="195.3"/>
<text transform="matrix(1 0 0 1 54.1655 72.6128)" style="fill:#262626; font-family:'ArialMT'; font-size:9.9998px;">8</text>
<line style="fill:none;stroke:#FF0000;stroke-width:0.9998;stroke-linejoin:round;stroke-miterlimit:10;" x1="66.9" y1="130.7" x2="66.9" y2="130.7"/>
<line style="fill:none;stroke:#262626;stroke-width:0.5002;stroke-linecap:round;stroke-linejoin:round;stroke-miterlimit:10;" x1="66.9" y1="157.8" x2="63" y2="153.9"/>
<line style="fill:none;stroke:#FF0000;stroke-width:0.9998;stroke-linejoin:round;stroke-miterlimit:10;" x1="213.5" y1="244.2" x2="186.4" y2="193.3"/>
<line style="fill:none;stroke:#FF0000;stroke-width:0.9998;stroke-linejoin:round;stroke-miterlimit:10;" x1="194.5" y1="249" x2="202.6" y2="209.4"/>
<line style="fill:none;stroke:#FF0000;stroke-width:0.9998;stroke-linejoin:round;stroke-miterlimit:10;" x1="213.5" y1="244.2" x2="240.7" y2="199.9"/>
<line style="fill:none;stroke:#FF0000;stroke-width:2.946;stroke-linejoin:round;stroke-miterlimit:10;" x1="186.4" y1="240.9" x2="186.4" y2="193.3"/>
<line style="fill:none;stroke:#FF0000;stroke-width:1.6935;stroke-linejoin:round;stroke-miterlimit:10;" x1="259.7" y1="242.8" x2="259.7" y2="242.8"/>
<line style="fill:none;stroke:#FF0000;stroke-width:3.8902;stroke-linejoin:round;stroke-miterlimit:10;" x1="240.7" y1="199.9" x2="259.7" y2="195.2"/>
<line style="fill:none;stroke:#FF0000;stroke-width:3.639;stroke-linejoin:round;stroke-miterlimit:10;" x1="186.4" y1="69" x2="159.2" y2="65.6"/>
<line style="fill:none;stroke:#FF0000;stroke-width:3.8333;stroke-linejoin:round;stroke-miterlimit:10;" x1="94.1" y1="71.8" x2="113.1" y2="67.1"/>
<text transform="matrix(1 0 0 1 189.7725 68.1001)" style="font-family:'ArialMT'; font-size:9.9998px;">4f</text>
<line style="fill:none;stroke:#FF0000;stroke-width:1.6935;stroke-linejoin:round;stroke-miterlimit:10;" x1="186.4" y1="69" x2="205.4" y2="16.6"/>
<text transform="matrix(1 0 0 1 48.9155 31.2881)" style="fill:#262626; font-family:'ArialMT'; font-size:9.9998px;">10</text>
<line style="fill:none;stroke:#FF0000;stroke-width:2.3865;stroke-linejoin:round;stroke-miterlimit:10;" x1="94.1" y1="243.8" x2="94.1" y2="196.2"/>
<line style="fill:none;stroke:#262626;stroke-width:0.5002;stroke-linejoin:round;stroke-miterlimit:10;" x1="99.5" y1="272.5" x2="66.9" y2="240.4"/>
<line style="fill:none;stroke:#262626;stroke-width:0.5002;stroke-linejoin:round;stroke-miterlimit:10;" x1="66.9" y1="240.4" x2="66.9" y2="20.9"/>
<line style="fill:none;stroke:#000000;stroke-width:0.5002;stroke-linejoin:round;stroke-miterlimit:10;" x1="66.9" y1="240.4" x2="66.9" y2="20.9"/>
<line style="fill:none;stroke:#000000;stroke-width:0.5002;stroke-linejoin:round;stroke-miterlimit:10;" x1="99.5" y1="272.5" x2="66.9" y2="240.4"/>
<line style="fill:none;stroke:#262626;stroke-width:0.5002;stroke-linecap:round;stroke-linejoin:round;stroke-miterlimit:10;" x1="66.9" y1="116.5" x2="63" y2="112.6"/>
<line style="fill:none;stroke:#FF0000;stroke-width:3.5647;stroke-linejoin:round;stroke-miterlimit:10;" x1="66.9" y1="68.5" x2="66.9" y2="68.5"/>
<text transform="matrix(1 0 0 1 244.0586 199.0928)" style="font-family:'ArialMT'; font-size:9.9998px;">4f</text>
<line style="fill:none;stroke:#FF0000;stroke-width:0.9998;stroke-linejoin:round;stroke-miterlimit:10;" x1="240.7" y1="199.9" x2="259.7" y2="164.1"/>
<line style="fill:none;stroke:#000000;stroke-width:0.5002;stroke-linejoin:round;stroke-miterlimit:10;" x1="284.1" y1="47.3" x2="251.5" y2="15.3"/>
<line style="fill:none;stroke:#000000;stroke-width:0.5002;stroke-linejoin:round;stroke-miterlimit:10;" x1="66.9" y1="20.9" x2="251.5" y2="15.3"/>
<line style="fill:none;stroke:#000000;stroke-width:0.5002;stroke-linejoin:round;stroke-miterlimit:10;" x1="284.1" y1="47.3" x2="251.5" y2="15.3"/>
<line style="fill:none;stroke:#000000;stroke-width:0.5002;stroke-linejoin:round;stroke-miterlimit:10;" x1="66.9" y1="20.9" x2="251.5" y2="15.3"/>
<text transform="matrix(1 0 0 1 189.7725 192.4932)" style="font-family:'ArialMT'; font-size:9.9998px;">4f</text>
<line style="fill:none;stroke:#262626;stroke-width:0.5002;stroke-linecap:round;stroke-linejoin:round;stroke-miterlimit:10;" x1="66.9" y1="75.1" x2="63" y2="71.3"/>
<line style="fill:none;stroke:#FF0000;stroke-width:1.6935;stroke-linejoin:round;stroke-miterlimit:10;" x1="186.4" y1="193.3" x2="186.4" y2="131.1"/>
<line style="fill:none;stroke:#FF0000;stroke-width:3.8902;stroke-linejoin:round;stroke-miterlimit:10;" x1="240.7" y1="199.9" x2="186.4" y2="193.3"/>
<line style="fill:none;stroke:#FF0000;stroke-width:0.9998;stroke-linejoin:round;stroke-miterlimit:10;" x1="148.4" y1="140.6" x2="186.4" y2="193.3"/>
<line style="fill:none;stroke:#FF0000;stroke-width:3.8333;stroke-linejoin:round;stroke-miterlimit:10;" x1="148.4" y1="202.8" x2="186.4" y2="193.3"/>
<path style="fill:#0000FF;" d="M192.5,193.3c0-3.4-2.8-6.2-6.2-6.2c-3.4,0-6.2,2.8-6.2,6.2c0,3.4,2.8,6.2,6.2,6.2
	C189.8,199.5,192.5,196.7,192.5,193.3"/>
<text transform="matrix(1 0 0 1 97.4736 195.3193)" style="font-family:'ArialMT'; font-size:9.9998px;">4f</text>
<line style="fill:none;stroke:#FF0000;stroke-width:3.7725;stroke-linejoin:round;stroke-miterlimit:10;" x1="94.1" y1="196.2" x2="186.4" y2="193.3"/>
<line style="fill:none;stroke:#FF0000;stroke-width:2.0985;stroke-linejoin:round;stroke-miterlimit:10;" x1="202.6" y1="209.4" x2="186.4" y2="193.3"/>
<line style="fill:none;stroke:#FF0000;stroke-width:0.9998;stroke-linejoin:round;stroke-miterlimit:10;" x1="186.4" y1="69" x2="159.2" y2="18.1"/>
<line style="fill:none;stroke:#262626;stroke-width:0.5002;stroke-linejoin:round;stroke-miterlimit:10;" x1="66.9" y1="33.8" x2="63" y2="30"/>
<text transform="matrix(1 0 0 1 235.9219 87.9609)" style="font-family:'ArialMT'; font-size:9.9998px;">2c</text>
<line style="fill:none;stroke:#FF0000;stroke-width:0.9998;stroke-linejoin:round;stroke-miterlimit:10;" x1="232.5" y1="88.8" x2="255.6" y2="77.5"/>
<line style="fill:none;stroke:#FF0000;stroke-width:4.332;stroke-linejoin:round;stroke-miterlimit:10;" x1="240.7" y1="75.6" x2="259.7" y2="70.8"/>
<text transform="matrix(1 0 0 1 189.7725 130.2959)" style="font-family:'ArialMT'; font-size:9.9998px;">2b</text>
<text transform="matrix(0 -1 1 0 40.1877 162.9233)" style="fill:#262626; font-family:'ArialMT'; font-size:11.0002px;">Z (Angstrom)</text>
<line style="fill:none;stroke:#FF0000;stroke-width:0.9998;stroke-linejoin:round;stroke-miterlimit:10;" x1="66.9" y1="21" x2="66.9" y2="20.9"/>
<path style="fill:#0000FF;" d="M238.7,88.8c0-3.4-2.8-6.2-6.2-6.2s-6.2,2.8-6.2,6.2c0,3.4,2.8,6.2,6.2,6.2S238.7,92.2,238.7,88.8"/>
<text transform="matrix(1 0 0 1 151.7607 201.9199)" style="font-family:'ArialMT'; font-size:9.9998px;">4f</text>
<line style="fill:none;stroke:#FF0000;stroke-width:0.9998;stroke-linejoin:round;stroke-miterlimit:10;" x1="148.4" y1="202.8" x2="186.4" y2="131.1"/>
<text transform="matrix(1 0 0 1 143.623 90.7861)" style="font-family:'ArialMT'; font-size:9.9998px;">2c</text>
<line style="fill:none;stroke:#FF0000;stroke-width:0.9998;stroke-linejoin:round;stroke-miterlimit:10;" x1="148.4" y1="78.4" x2="186.4" y2="131.1"/>
<line style="fill:none;stroke:#FF0000;stroke-width:0.9998;stroke-linejoin:round;stroke-miterlimit:10;" x1="186.4" y1="69" x2="186.4" y2="131.1"/>
<path style="fill:#0000FF;" d="M192.5,131.1c0-3.4-2.8-6.2-6.2-6.2c-3.4,0-6.2,2.8-6.2,6.2c0,3.4,2.8,6.2,6.2,6.2
	C189.8,137.3,192.5,134.6,192.5,131.1"/>
<line style="fill:none;stroke:#FF0000;stroke-width:0.9998;stroke-linejoin:round;stroke-miterlimit:10;" x1="240.7" y1="75.6" x2="186.4" y2="131.1"/>
<line style="fill:none;stroke:#FF0000;stroke-width:0.9998;stroke-linejoin:round;stroke-miterlimit:10;" x1="240.7" y1="199.9" x2="186.4" y2="131.1"/>
<line style="fill:none;stroke:#FF0000;stroke-width:0.9998;stroke-linejoin:round;stroke-miterlimit:10;" x1="75.1" y1="248.5" x2="94.1" y2="196.2"/>
<path style="fill:#0000FF;" d="M100.2,196.2c0-3.4-2.8-6.2-6.2-6.2c-3.4,0-6.2,2.8-6.2,6.2c0,3.4,2.8,6.2,6.2,6.2
	C97.5,202.3,100.2,199.6,100.2,196.2"/>
<line style="fill:none;stroke:#FF0000;stroke-width:3.8902;stroke-linejoin:round;stroke-miterlimit:10;" x1="75" y1="200.9" x2="94.1" y2="196.2"/>
<line style="fill:none;stroke:#FF0000;stroke-width:0.9998;stroke-linejoin:round;stroke-miterlimit:10;" x1="94.1" y1="196.2" x2="94.1" y2="134"/>
<line style="fill:none;stroke:#FF0000;stroke-width:0.9998;stroke-linejoin:round;stroke-miterlimit:10;" x1="94.1" y1="196.2" x2="148.4" y2="140.6"/>
<line style="fill:none;stroke:#FF0000;stroke-width:1.6935;stroke-linejoin:round;stroke-miterlimit:10;" x1="121.2" y1="247.1" x2="94.1" y2="196.2"/>
<line style="fill:none;stroke:#FF0000;stroke-width:4.0447;stroke-linejoin:round;stroke-miterlimit:10;" x1="148.4" y1="202.8" x2="94.1" y2="196.2"/>
<line style="fill:none;stroke:#FF0000;stroke-width:0.9998;stroke-linejoin:round;stroke-miterlimit:10;" x1="102.2" y1="251.8" x2="94.1" y2="196.2"/>
<line style="fill:none;stroke:#FF0000;stroke-width:2.6093;stroke-linejoin:round;stroke-miterlimit:10;" x1="110.3" y1="212.2" x2="94.1" y2="196.2"/>
<line style="fill:none;stroke:#FF0000;stroke-width:0.9998;stroke-linejoin:round;stroke-miterlimit:10;" x1="248.8" y1="255.6" x2="256.9" y2="216"/>
<line style="fill:none;stroke:#FF0000;stroke-width:2.0985;stroke-linejoin:round;stroke-miterlimit:10;" x1="240.7" y1="247.5" x2="240.7" y2="199.9"/>
<line style="fill:none;stroke:#FF0000;stroke-width:0.9998;stroke-linejoin:round;stroke-miterlimit:10;" x1="221.7" y1="252.3" x2="202.6" y2="209.4"/>
<text transform="matrix(1 0 0 1 97.4736 70.9258)" style="font-family:'ArialMT'; font-size:9.9998px;">4f</text>
<line style="fill:none;stroke:#FF0000;stroke-width:3.0795;stroke-linejoin:round;stroke-miterlimit:10;" x1="94.1" y1="71.8" x2="186.4" y2="69"/>
<line style="fill:none;stroke:#FF0000;stroke-width:2.946;stroke-linejoin:round;stroke-miterlimit:10;" x1="202.6" y1="85" x2="186.4" y2="69"/>
<line style="fill:none;stroke:#FF0000;stroke-width:2.946;stroke-linejoin:round;stroke-miterlimit:10;" x1="186.4" y1="69" x2="186.4" y2="21.4"/>
<line style="fill:none;stroke:#FF0000;stroke-width:0.9998;stroke-linejoin:round;stroke-miterlimit:10;" x1="186.4" y1="69" x2="213.5" y2="24.7"/>
<line style="fill:none;stroke:#FF0000;stroke-width:3.5647;stroke-linejoin:round;stroke-miterlimit:10;" x1="186.4" y1="69" x2="240.7" y2="75.6"/>
<line style="fill:none;stroke:#FF0000;stroke-width:4.3672;stroke-linejoin:round;stroke-miterlimit:10;" x1="148.4" y1="78.4" x2="186.4" y2="69"/>
<line style="fill:none;stroke:#FF0000;stroke-width:0.9998;stroke-linejoin:round;stroke-miterlimit:10;" x1="240.7" y1="75.6" x2="213.5" y2="24.7"/>
<text transform="matrix(1 0 0 1 120 10.187)" style="font-family:'ArialMT'; font-size:11.0002px;">Jumps between sites</text>
<line style="fill:none;stroke:#FF0000;stroke-width:0.9998;stroke-linejoin:round;stroke-miterlimit:10;" x1="186.4" y1="69" x2="194.5" y2="29.4"/>
<path style="fill:#0000FF;" d="M192.5,69c0-3.4-2.8-6.2-6.2-6.2c-3.4,0-6.2,2.8-6.2,6.2s2.8,6.2,6.2,6.2
	C189.8,75.1,192.5,72.4,192.5,69"/>
<text transform="matrix(1 0 0 1 244.0586 74.7002)" style="font-family:'ArialMT'; font-size:9.9998px;">4f</text>
<line style="fill:none;stroke:#FF0000;stroke-width:0.9998;stroke-linejoin:round;stroke-miterlimit:10;" x1="240.7" y1="75.6" x2="259.7" y2="23.2"/>
<text transform="matrix(1 0 0 1 97.4736 133.1221)" style="font-family:'ArialMT'; font-size:9.9998px;">2b</text>
<path style="fill:#0000FF;" d="M146.4,91.6c0-3.4-2.8-6.2-6.2-6.2s-6.2,2.8-6.2,6.2c0,3.4,2.8,6.2,6.2,6.2S146.4,95,146.4,91.6"/>
<line style="fill:none;stroke:#FF0000;stroke-width:0.9998;stroke-linejoin:round;stroke-miterlimit:10;" x1="75" y1="169.8" x2="94.1" y2="134"/>
<path style="fill:#0000FF;" d="M100.2,134c0-3.4-2.8-6.2-6.2-6.2c-3.4,0-6.2,2.8-6.2,6.2c0,3.4,2.8,6.2,6.2,6.2
	C97.5,140.1,100.2,137.4,100.2,134"/>
<line style="fill:none;stroke:#FF0000;stroke-width:0.9998;stroke-linejoin:round;stroke-miterlimit:10;" x1="110.3" y1="87.8" x2="94.1" y2="134"/>
<line style="fill:none;stroke:#FF0000;stroke-width:0.9998;stroke-linejoin:round;stroke-miterlimit:10;" x1="148.4" y1="78.4" x2="94.1" y2="134"/>
<line style="fill:none;stroke:#FF0000;stroke-width:2.3865;stroke-linejoin:round;stroke-miterlimit:10;" x1="94.1" y1="71.8" x2="94.1" y2="24.2"/>
<line style="fill:none;stroke:#000000;stroke-width:0.5002;stroke-linejoin:round;stroke-miterlimit:10;" x1="99.5" y1="53" x2="66.9" y2="20.9"/>
<line style="fill:none;stroke:#FF0000;stroke-width:0.9998;stroke-linejoin:round;stroke-miterlimit:10;" x1="240.7" y1="199.9" x2="263.8" y2="188.6"/>
<line style="fill:none;stroke:#FF0000;stroke-width:0.9998;stroke-linejoin:round;stroke-miterlimit:10;" x1="175.5" y1="253.7" x2="202.6" y2="209.4"/>
<line style="fill:none;stroke:#FF0000;stroke-width:1.6935;stroke-linejoin:round;stroke-miterlimit:10;" x1="129.4" y1="255.1" x2="110.3" y2="212.2"/>
<line style="fill:none;stroke:#FF0000;stroke-width:2.0985;stroke-linejoin:round;stroke-miterlimit:10;" x1="148.4" y1="250.4" x2="148.4" y2="202.8"/>
<line style="fill:none;stroke:#FF0000;stroke-width:3.8902;stroke-linejoin:round;stroke-miterlimit:10;" x1="202.6" y1="209.4" x2="240.7" y2="199.9"/>
<line style="fill:none;stroke:#FF0000;stroke-width:0.9998;stroke-linejoin:round;stroke-miterlimit:10;" x1="240.7" y1="199.9" x2="194.5" y2="180.1"/>
<line style="fill:none;stroke:#FF0000;stroke-width:3.0795;stroke-linejoin:round;stroke-miterlimit:10;" x1="256.9" y1="216" x2="240.7" y2="199.9"/>
<line style="fill:none;stroke:#FF0000;stroke-width:1.6935;stroke-linejoin:round;stroke-miterlimit:10;" x1="221.6" y1="252.3" x2="240.7" y2="199.9"/>
<line style="fill:none;stroke:#FF0000;stroke-width:3.0795;stroke-linejoin:round;stroke-miterlimit:10;" x1="148.4" y1="202.8" x2="240.7" y2="199.9"/>
<line style="fill:none;stroke:#FF0000;stroke-width:3.3022;stroke-linejoin:round;stroke-miterlimit:10;" x1="240.7" y1="199.9" x2="267.8" y2="203.2"/>
<line style="fill:none;stroke:#FF0000;stroke-width:0.9998;stroke-linejoin:round;stroke-miterlimit:10;" x1="240.7" y1="199.9" x2="267.8" y2="172.1"/>
<path style="fill:#0000FF;" d="M246.8,199.9c0-3.4-2.8-6.2-6.2-6.2c-3.4,0-6.2,2.8-6.2,6.2c0,3.4,2.8,6.2,6.2,6.2
	C244.1,206.1,246.8,203.3,246.8,199.9"/>
<line style="fill:none;stroke:#FF0000;stroke-width:0.9998;stroke-linejoin:round;stroke-miterlimit:10;" x1="71" y1="83.1" x2="94.1" y2="71.8"/>
<line style="fill:none;stroke:#FF0000;stroke-width:3.4852;stroke-linejoin:round;stroke-miterlimit:10;" x1="110.3" y1="87.8" x2="94.1" y2="71.8"/>
<line style="fill:none;stroke:#FF0000;stroke-width:4.332;stroke-linejoin:round;stroke-miterlimit:10;" x1="75" y1="76.5" x2="94.1" y2="71.8"/>
<line style="fill:none;stroke:#FF0000;stroke-width:3.8902;stroke-linejoin:round;stroke-miterlimit:10;" x1="94.1" y1="71.8" x2="148.4" y2="78.4"/>
<path style="fill:#0000FF;" d="M100.2,71.8c0-3.4-2.8-6.2-6.2-6.2c-3.4,0-6.2,2.8-6.2,6.2c0,3.4,2.8,6.2,6.2,6.2
	C97.5,77.9,100.2,75.2,100.2,71.8"/>
<text transform="matrix(1 0 0 1 244.0586 136.897)" style="font-family:'ArialMT'; font-size:9.9998px;">2b</text>
<text transform="matrix(1 0 0 1 197.9092 179.2324)" style="font-family:'ArialMT'; font-size:9.9998px;">2c</text>
<path style="fill:#0000FF;" d="M246.8,137.7c0-3.4-2.8-6.2-6.2-6.2c-3.4,0-6.2,2.8-6.2,6.2c0,3.4,2.8,6.2,6.2,6.2
	C244.1,143.9,246.8,141.2,246.8,137.7"/>
<path style="fill:#0000FF;" d="M200.7,180.1c0-3.4-2.8-6.2-6.2-6.2s-6.2,2.8-6.2,6.2c0,3.4,2.8,6.2,6.2,6.2S200.7,183.5,200.7,180.1
	"/>
<line style="fill:none;stroke:#FF0000;stroke-width:0.9998;stroke-linejoin:round;stroke-miterlimit:10;" x1="202.6" y1="209.4" x2="194.5" y2="180.1"/>
<line style="fill:none;stroke:#FF0000;stroke-width:2.0985;stroke-linejoin:round;stroke-miterlimit:10;" x1="148.4" y1="202.8" x2="102.2" y2="182.9"/>
<line style="fill:none;stroke:#FF0000;stroke-width:0.9998;stroke-linejoin:round;stroke-miterlimit:10;" x1="175.5" y1="253.7" x2="148.4" y2="202.8"/>
<line style="fill:none;stroke:#FF0000;stroke-width:2.6093;stroke-linejoin:round;stroke-miterlimit:10;" x1="164.6" y1="218.8" x2="148.4" y2="202.8"/>
<line style="fill:none;stroke:#FF0000;stroke-width:3.8333;stroke-linejoin:round;stroke-miterlimit:10;" x1="110.3" y1="212.2" x2="148.4" y2="202.8"/>
<line style="fill:none;stroke:#FF0000;stroke-width:3.0795;stroke-linejoin:round;stroke-miterlimit:10;" x1="148.4" y1="202.8" x2="202.6" y2="209.4"/>
<path style="fill:#0000FF;" d="M154.5,202.8c0-3.4-2.8-6.2-6.2-6.2c-3.4,0-6.2,2.8-6.2,6.2c0,3.4,2.8,6.2,6.2,6.2
	C151.8,208.9,154.5,206.2,154.5,202.8"/>
<line style="fill:none;stroke:#FF0000;stroke-width:0.9998;stroke-linejoin:round;stroke-miterlimit:10;" x1="129.3" y1="255.1" x2="148.4" y2="202.8"/>
<line style="fill:none;stroke:#FF0000;stroke-width:0.9998;stroke-linejoin:round;stroke-miterlimit:10;" x1="148.4" y1="202.8" x2="202.6" y2="147.2"/>
<line style="fill:none;stroke:#FF0000;stroke-width:0.9998;stroke-linejoin:round;stroke-miterlimit:10;" x1="110.3" y1="87.8" x2="102.2" y2="32.2"/>
<line style="fill:none;stroke:#FF0000;stroke-width:1.6935;stroke-linejoin:round;stroke-miterlimit:10;" x1="75" y1="29" x2="75.1" y2="28.9"/>
<line style="fill:none;stroke:#FF0000;stroke-width:1.6935;stroke-linejoin:round;stroke-miterlimit:10;" x1="148.4" y1="78.4" x2="121.2" y2="27.5"/>
<line style="fill:none;stroke:#FF0000;stroke-width:0.9998;stroke-linejoin:round;stroke-miterlimit:10;" x1="240.7" y1="75.6" x2="267.8" y2="110"/>
<line style="fill:none;stroke:#FF0000;stroke-width:3.996;stroke-linejoin:round;stroke-miterlimit:10;" x1="202.6" y1="85" x2="240.7" y2="75.6"/>
<line style="fill:none;stroke:#FF0000;stroke-width:3.3982;stroke-linejoin:round;stroke-miterlimit:10;" x1="256.9" y1="91.6" x2="240.7" y2="75.6"/>
<path style="fill:#0000FF;" d="M246.8,75.6c0-3.4-2.8-6.2-6.2-6.2c-3.4,0-6.2,2.8-6.2,6.2s2.8,6.2,6.2,6.2
	C244.1,81.7,246.8,79,246.8,75.6"/>
<text transform="matrix(1 0 0 1 206.0469 146.3242)" style="font-family:'ArialMT'; font-size:9.9998px;">2b</text>
<line style="fill:none;stroke:#FF0000;stroke-width:0.9998;stroke-linejoin:round;stroke-miterlimit:10;" x1="202.6" y1="147.2" x2="240.7" y2="75.6"/>
<line style="fill:none;stroke:#FF0000;stroke-width:4.1355;stroke-linejoin:round;stroke-miterlimit:10;" x1="240.7" y1="75.6" x2="267.8" y2="78.9"/>
<line style="fill:none;stroke:#FF0000;stroke-width:2.0985;stroke-linejoin:round;stroke-miterlimit:10;" x1="240.7" y1="75.6" x2="240.7" y2="28"/>
<text transform="matrix(1 0 0 1 151.7607 139.7231)" style="font-family:'ArialMT'; font-size:9.9998px;">2b</text>
<line style="fill:none;stroke:#FF0000;stroke-width:0.9998;stroke-linejoin:round;stroke-miterlimit:10;" x1="148.4" y1="140.6" x2="240.7" y2="75.6"/>
<text transform="matrix(1 0 0 1 151.7607 77.5269)" style="font-family:'ArialMT'; font-size:9.9998px;">4f</text>
<line style="fill:none;stroke:#FF0000;stroke-width:3.4852;stroke-linejoin:round;stroke-miterlimit:10;" x1="148.4" y1="78.4" x2="240.7" y2="75.6"/>
<line style="fill:none;stroke:#FF0000;stroke-width:0.9998;stroke-linejoin:round;stroke-miterlimit:10;" x1="240.7" y1="75.6" x2="248.8" y2="36"/>
<line style="fill:none;stroke:#FF0000;stroke-width:0.9998;stroke-linejoin:round;stroke-miterlimit:10;" x1="240.7" y1="75.6" x2="221.6" y2="32.7"/>
<text transform="matrix(1 0 0 1 105.6108 182.0586)" style="font-family:'ArialMT'; font-size:9.9998px;">2c</text>
<text transform="matrix(1 0 0 1 113.7485 211.3467)" style="font-family:'ArialMT'; font-size:9.9998px;">4f</text>
<line style="fill:none;stroke:#FF0000;stroke-width:3.8333;stroke-linejoin:round;stroke-miterlimit:10;" x1="110.3" y1="212.2" x2="202.6" y2="209.4"/>
<line style="fill:none;stroke:#FF0000;stroke-width:0.9998;stroke-linejoin:round;stroke-miterlimit:10;" x1="164.6" y1="218.8" x2="148.4" y2="140.6"/>
<line style="fill:none;stroke:#FF0000;stroke-width:1.6935;stroke-linejoin:round;stroke-miterlimit:10;" x1="148.4" y1="78.4" x2="148.4" y2="140.6"/>
<path style="fill:#0000FF;" d="M154.5,140.6c0-3.4-2.8-6.2-6.2-6.2c-3.4,0-6.2,2.8-6.2,6.2c0,3.4,2.8,6.2,6.2,6.2
	C151.8,146.7,154.5,144,154.5,140.6"/>
<path style="fill:#0000FF;" d="M108.4,182.9c0-3.4-2.8-6.2-6.2-6.2c-3.4,0-6.2,2.8-6.2,6.2c0,3.4,2.8,6.2,6.2,6.2
	C105.6,189.1,108.4,186.3,108.4,182.9"/>
<line style="fill:none;stroke:#FF0000;stroke-width:0.9998;stroke-linejoin:round;stroke-miterlimit:10;" x1="79.1" y1="194.3" x2="102.2" y2="182.9"/>
<line style="fill:none;stroke:#262626;stroke-width:0.5002;stroke-linejoin:round;stroke-miterlimit:10;" x1="81.3" y1="254.6" x2="75.8" y2="254.7"/>
<line style="fill:none;stroke:#FF0000;stroke-width:0.9998;stroke-linejoin:round;stroke-miterlimit:10;" x1="83.2" y1="177.8" x2="110.3" y2="150"/>
<line style="fill:none;stroke:#FF0000;stroke-width:3.3022;stroke-linejoin:round;stroke-miterlimit:10;" x1="83.2" y1="208.9" x2="110.3" y2="212.2"/>
<text transform="matrix(1 0 0 1 65.7749 265.3506)" style="fill:#262626; font-family:'ArialMT'; font-size:9.9998px;">5</text>
<line style="fill:none;stroke:#FF0000;stroke-width:0.9998;stroke-linejoin:round;stroke-miterlimit:10;" x1="156.5" y1="258.4" x2="110.3" y2="212.2"/>
<line style="fill:none;stroke:#FF0000;stroke-width:2.0985;stroke-linejoin:round;stroke-miterlimit:10;" x1="202.6" y1="257" x2="202.6" y2="209.4"/>
<line style="fill:none;stroke:#FF0000;stroke-width:0.9998;stroke-linejoin:round;stroke-miterlimit:10;" x1="183.6" y1="261.7" x2="164.6" y2="218.8"/>
<line style="fill:none;stroke:#FF0000;stroke-width:3.3982;stroke-linejoin:round;stroke-miterlimit:10;" x1="256.9" y1="216" x2="276" y2="211.3"/>
<line style="fill:none;stroke:#FF0000;stroke-width:0.9998;stroke-linejoin:round;stroke-miterlimit:10;" x1="275.9" y1="258.9" x2="276" y2="258.8"/>
<line style="fill:none;stroke:#FF0000;stroke-width:0.9998;stroke-linejoin:round;stroke-miterlimit:10;" x1="148.4" y1="78.4" x2="202.6" y2="147.2"/>
<line style="fill:none;stroke:#FF0000;stroke-width:1.6935;stroke-linejoin:round;stroke-miterlimit:10;" x1="148.4" y1="78.4" x2="129.3" y2="35.5"/>
<path style="fill:#0000FF;" d="M154.5,78.4c0-3.4-2.8-6.2-6.2-6.2c-3.4,0-6.2,2.8-6.2,6.2s2.8,6.2,6.2,6.2
	C151.8,84.5,154.5,81.8,154.5,78.4"/>
<line style="fill:none;stroke:#FF0000;stroke-width:3.3982;stroke-linejoin:round;stroke-miterlimit:10;" x1="110.3" y1="87.8" x2="148.4" y2="78.4"/>
<line style="fill:none;stroke:#FF0000;stroke-width:2.0985;stroke-linejoin:round;stroke-miterlimit:10;" x1="164.6" y1="94.4" x2="148.4" y2="78.4"/>
<line style="fill:none;stroke:#FF0000;stroke-width:0.9998;stroke-linejoin:round;stroke-miterlimit:10;" x1="156.5" y1="107.7" x2="148.4" y2="78.4"/>
<line style="fill:none;stroke:#FF0000;stroke-width:2.0985;stroke-linejoin:round;stroke-miterlimit:10;" x1="148.4" y1="78.4" x2="148.4" y2="30.8"/>
<line style="fill:none;stroke:#FF0000;stroke-width:0.9998;stroke-linejoin:round;stroke-miterlimit:10;" x1="148.4" y1="78.4" x2="175.5" y2="34.1"/>
<line style="fill:none;stroke:#FF0000;stroke-width:3.996;stroke-linejoin:round;stroke-miterlimit:10;" x1="148.4" y1="78.4" x2="202.6" y2="85"/>
<text transform="matrix(1 0 0 1 206.0469 84.127)" style="font-family:'ArialMT'; font-size:9.9998px;">4f</text>
<line style="fill:none;stroke:#FF0000;stroke-width:1.6935;stroke-linejoin:round;stroke-miterlimit:10;" x1="202.6" y1="85" x2="221.7" y2="32.7"/>
<text transform="matrix(1 0 0 1 2.6001 293.9746)" style="fill:#262626; font-family:'ArialMT'; font-size:11.0002px;">Y (Angstrom)</text>
<text transform="matrix(1 0 0 1 206.0469 208.5205)" style="font-family:'ArialMT'; font-size:9.9998px;">4f</text>
<line style="fill:none;stroke:#FF0000;stroke-width:0.9998;stroke-linejoin:round;stroke-miterlimit:10;" x1="110.3" y1="259.8" x2="110.3" y2="212.2"/>
<line style="fill:none;stroke:#FF0000;stroke-width:0.9998;stroke-linejoin:round;stroke-miterlimit:10;" x1="202.6" y1="209.4" x2="256.9" y2="153.8"/>
<path style="fill:#0000FF;" d="M208.8,209.4c0-3.4-2.8-6.2-6.2-6.2c-3.4,0-6.2,2.8-6.2,6.2c0,3.4,2.8,6.2,6.2,6.2
	C206,215.5,208.8,212.8,208.8,209.4"/>
<line style="fill:none;stroke:#FF0000;stroke-width:3.639;stroke-linejoin:round;stroke-miterlimit:10;" x1="256.9" y1="216" x2="202.6" y2="209.4"/>
<line style="fill:none;stroke:#FF0000;stroke-width:1.6935;stroke-linejoin:round;stroke-miterlimit:10;" x1="202.6" y1="209.4" x2="202.6" y2="147.2"/>
<line style="fill:none;stroke:#FF0000;stroke-width:2.7915;stroke-linejoin:round;stroke-miterlimit:10;" x1="164.6" y1="218.8" x2="202.6" y2="209.4"/>
<line style="fill:none;stroke:#FF0000;stroke-width:0.9998;stroke-linejoin:round;stroke-miterlimit:10;" x1="83.2" y1="115.6" x2="110.3" y2="150"/>
<line style="fill:none;stroke:#FF0000;stroke-width:4.1355;stroke-linejoin:round;stroke-miterlimit:10;" x1="83.2" y1="84.5" x2="110.3" y2="87.8"/>
<line style="fill:none;stroke:#FF0000;stroke-width:0.9998;stroke-linejoin:round;stroke-miterlimit:10;" x1="202.6" y1="85" x2="175.5" y2="34.1"/>
<text transform="matrix(1 0 0 1 113.748 86.9541)" style="font-family:'ArialMT'; font-size:9.9998px;">4f</text>
<line style="fill:none;stroke:#FF0000;stroke-width:0.9998;stroke-linejoin:round;stroke-miterlimit:10;" x1="110.3" y1="87.8" x2="129.4" y2="35.5"/>
<line style="fill:none;stroke:#FF0000;stroke-width:4.2577;stroke-linejoin:round;stroke-miterlimit:10;" x1="256.9" y1="91.6" x2="276" y2="86.9"/>
<text transform="matrix(1 0 0 1 252.1963 103.9878)" style="font-family:'ArialMT'; font-size:9.9998px;">2c</text>
<path style="fill:#0000FF;" d="M255,104.8c0-3.4-2.8-6.2-6.2-6.2c-3.4,0-6.2,2.8-6.2,6.2c0,3.4,2.8,6.2,6.2,6.2
	C252.2,111,255,108.2,255,104.8"/>
<text transform="matrix(1 0 0 1 159.8984 106.814)" style="font-family:'ArialMT'; font-size:9.9998px;">2c</text>
<line style="fill:none;stroke:#FF0000;stroke-width:0.9998;stroke-linejoin:round;stroke-miterlimit:10;" x1="156.5" y1="107.7" x2="202.6" y2="85"/>
<line style="fill:none;stroke:#FF0000;stroke-width:0.9998;stroke-linejoin:round;stroke-miterlimit:10;" x1="164.6" y1="94.4" x2="202.6" y2="147.2"/>
<path style="fill:#0000FF;" d="M208.8,147.2c0-3.4-2.8-6.2-6.2-6.2c-3.4,0-6.2,2.8-6.2,6.2c0,3.4,2.8,6.2,6.2,6.2
	C206,153.3,208.8,150.6,208.8,147.2"/>
<path style="fill:#0000FF;" d="M116.5,212.2c0-3.4-2.8-6.2-6.2-6.2c-3.4,0-6.2,2.8-6.2,6.2c0,3.4,2.8,6.2,6.2,6.2
	C113.7,218.4,116.5,215.6,116.5,212.2"/>
<line style="fill:none;stroke:#FF0000;stroke-width:0.9998;stroke-linejoin:round;stroke-miterlimit:10;" x1="110.3" y1="212.2" x2="110.3" y2="150"/>
<line style="fill:none;stroke:#FF0000;stroke-width:4.0447;stroke-linejoin:round;stroke-miterlimit:10;" x1="164.6" y1="218.8" x2="110.3" y2="212.2"/>
<line style="fill:none;stroke:#FF0000;stroke-width:0.9998;stroke-linejoin:round;stroke-miterlimit:10;" x1="137.5" y1="263.1" x2="110.3" y2="212.2"/>
<line style="fill:none;stroke:#FF0000;stroke-width:3.3982;stroke-linejoin:round;stroke-miterlimit:10;" x1="91.3" y1="216.9" x2="110.3" y2="212.2"/>
<line style="fill:none;stroke:#FF0000;stroke-width:2.6093;stroke-linejoin:round;stroke-miterlimit:10;" x1="256.9" y1="263.6" x2="256.9" y2="216"/>
<line style="fill:none;stroke:#FF0000;stroke-width:4.434;stroke-linejoin:round;stroke-miterlimit:10;" x1="164.6" y1="94.4" x2="202.6" y2="85"/>
<line style="fill:none;stroke:#FF0000;stroke-width:2.6093;stroke-linejoin:round;stroke-miterlimit:10;" x1="110.3" y1="87.8" x2="202.6" y2="85"/>
<line style="fill:none;stroke:#FF0000;stroke-width:0.9998;stroke-linejoin:round;stroke-miterlimit:10;" x1="202.6" y1="85" x2="183.6" y2="42.1"/>
<line style="fill:none;stroke:#FF0000;stroke-width:3.708;stroke-linejoin:round;stroke-miterlimit:10;" x1="202.6" y1="85" x2="256.9" y2="91.6"/>
<path style="fill:#0000FF;" d="M208.8,85c0-3.4-2.8-6.2-6.2-6.2c-3.4,0-6.2,2.8-6.2,6.2s2.8,6.2,6.2,6.2
	C206,91.1,208.8,88.4,208.8,85"/>
<line style="fill:none;stroke:#FF0000;stroke-width:0.9998;stroke-linejoin:round;stroke-miterlimit:10;" x1="202.6" y1="85" x2="156.5" y2="38.8"/>
<line style="fill:none;stroke:#FF0000;stroke-width:2.0985;stroke-linejoin:round;stroke-miterlimit:10;" x1="202.6" y1="85" x2="202.6" y2="37.4"/>
<text transform="matrix(1 0 0 1 113.748 149.1499)" style="font-family:'ArialMT'; font-size:9.9998px;">2b</text>
<path style="fill:#0000FF;" d="M162.7,107.7c0-3.4-2.8-6.2-6.2-6.2c-3.4,0-6.2,2.8-6.2,6.2c0,3.4,2.8,6.2,6.2,6.2
	C159.9,113.8,162.7,111.1,162.7,107.7"/>
<line style="fill:none;stroke:#FF0000;stroke-width:0.9998;stroke-linejoin:round;stroke-miterlimit:10;" x1="164.6" y1="156.6" x2="110.3" y2="150"/>
<path style="fill:#0000FF;" d="M116.5,150c0-3.4-2.8-6.2-6.2-6.2c-3.4,0-6.2,2.8-6.2,6.2c0,3.4,2.8,6.2,6.2,6.2
	C113.7,156.2,116.5,153.4,116.5,150"/>
<line style="fill:none;stroke:#FF0000;stroke-width:3.8902;stroke-linejoin:round;stroke-miterlimit:10;" x1="284.1" y1="219.3" x2="284.1" y2="219.3"/>
<line style="fill:none;stroke:#FF0000;stroke-width:0.9998;stroke-linejoin:round;stroke-miterlimit:10;" x1="284.1" y1="266.9" x2="284.1" y2="266.8"/>
<text transform="matrix(1 0 0 1 260.334 215.1211)" style="font-family:'ArialMT'; font-size:9.9998px;">4f</text>
<line style="fill:none;stroke:#FF0000;stroke-width:1.6935;stroke-linejoin:round;stroke-miterlimit:10;" x1="256.9" y1="216" x2="280" y2="204.6"/>
<line style="fill:none;stroke:#FF0000;stroke-width:1.6935;stroke-linejoin:round;stroke-miterlimit:10;" x1="164.6" y1="266.4" x2="164.6" y2="218.8"/>
<line style="fill:none;stroke:#FF0000;stroke-width:2.6093;stroke-linejoin:round;stroke-miterlimit:10;" x1="256.9" y1="216" x2="210.8" y2="196.1"/>
<path style="fill:#0000FF;" d="M263.1,216c0-3.4-2.8-6.2-6.2-6.2c-3.4,0-6.2,2.8-6.2,6.2c0,3.4,2.8,6.2,6.2,6.2
	C260.3,222.1,263.1,219.4,263.1,216"/>
<text transform="matrix(1 0 0 1 169.1143 300.5752)" style="fill:#262626; font-family:'ArialMT'; font-size:11.0002px;">X (Angstrom)</text>
<line style="fill:none;stroke:#FF0000;stroke-width:1.6935;stroke-linejoin:round;stroke-miterlimit:10;" x1="237.9" y1="268.3" x2="256.9" y2="216"/>
<line style="fill:none;stroke:#FF0000;stroke-width:4.2577;stroke-linejoin:round;stroke-miterlimit:10;" x1="237.9" y1="220.7" x2="256.9" y2="216"/>
<line style="fill:none;stroke:#FF0000;stroke-width:4.2577;stroke-linejoin:round;stroke-miterlimit:10;" x1="91.3" y1="92.5" x2="110.3" y2="87.8"/>
<line style="fill:none;stroke:#FF0000;stroke-width:0.9998;stroke-linejoin:round;stroke-miterlimit:10;" x1="110.3" y1="87.8" x2="110.3" y2="40.2"/>
<path style="fill:#0000FF;" d="M116.5,87.8c0-3.4-2.8-6.2-6.2-6.2c-3.4,0-6.2,2.8-6.2,6.2s2.8,6.2,6.2,6.2
	C113.7,94,116.5,91.2,116.5,87.8"/>
<line style="fill:none;stroke:#FF0000;stroke-width:3.9443;stroke-linejoin:round;stroke-miterlimit:10;" x1="110.3" y1="87.8" x2="164.6" y2="94.4"/>
<line style="fill:none;stroke:#FF0000;stroke-width:0.9998;stroke-linejoin:round;stroke-miterlimit:10;" x1="284.1" y1="157.1" x2="284.1" y2="157.1"/>
<text transform="matrix(1 0 0 1 260.334 152.9248)" style="font-family:'ArialMT'; font-size:9.9998px;">2b</text>
<text transform="matrix(1 0 0 1 214.1846 195.2607)" style="font-family:'ArialMT'; font-size:9.9998px;">2c</text>
<line style="fill:none;stroke:#000000;stroke-width:0.5002;stroke-linejoin:round;stroke-miterlimit:10;" x1="99.5" y1="272.5" x2="284.1" y2="266.8"/>
<line style="fill:none;stroke:#000000;stroke-width:0.5002;stroke-linejoin:round;stroke-miterlimit:10;" x1="284.1" y1="266.8" x2="284.1" y2="47.3"/>
<line style="fill:none;stroke:#262626;stroke-width:0.5002;stroke-linejoin:round;stroke-miterlimit:10;" x1="99.5" y1="272.5" x2="284.1" y2="266.8"/>
<path style="fill:#0000FF;" d="M263.1,153.8c0-3.4-2.8-6.2-6.2-6.2c-3.4,0-6.2,2.8-6.2,6.2c0,3.4,2.8,6.2,6.2,6.2
	C260.3,159.9,263.1,157.2,263.1,153.8"/>
<path style="fill:#0000FF;" d="M216.9,196.1c0-3.4-2.8-6.2-6.2-6.2s-6.2,2.8-6.2,6.2c0,3.4,2.8,6.2,6.2,6.2S216.9,199.5,216.9,196.1
	"/>
<line style="fill:none;stroke:#FF0000;stroke-width:0.9998;stroke-linejoin:round;stroke-miterlimit:10;" x1="214.9" y1="210.8" x2="210.8" y2="196.1"/>
<text transform="matrix(1 0 0 1 168.0352 217.9473)" style="font-family:'ArialMT'; font-size:9.9998px;">4f</text>
<line style="fill:none;stroke:#262626;stroke-width:0.5002;stroke-linejoin:round;stroke-miterlimit:10;" x1="264.8" y1="267.4" x2="268.7" y2="271.3"/>
<line style="fill:none;stroke:#FF0000;stroke-width:3.5647;stroke-linejoin:round;stroke-miterlimit:10;" x1="284.1" y1="94.9" x2="284.1" y2="94.9"/>
<line style="fill:none;stroke:#FF0000;stroke-width:1.6935;stroke-linejoin:round;stroke-miterlimit:10;" x1="164.6" y1="218.8" x2="118.5" y2="198.9"/>
<line style="fill:none;stroke:#FF0000;stroke-width:0.9998;stroke-linejoin:round;stroke-miterlimit:10;" x1="191.8" y1="191" x2="164.6" y2="218.8"/>
<line style="fill:none;stroke:#FF0000;stroke-width:4.1355;stroke-linejoin:round;stroke-miterlimit:10;" x1="191.8" y1="222.1" x2="164.6" y2="218.8"/>
<path style="fill:#0000FF;" d="M170.8,218.8c0-3.4-2.8-6.2-6.2-6.2c-3.4,0-6.2,2.8-6.2,6.2c0,3.4,2.8,6.2,6.2,6.2
	C168,225,170.8,222.2,170.8,218.8"/>
<line style="fill:none;stroke:#FF0000;stroke-width:0.9998;stroke-linejoin:round;stroke-miterlimit:10;" x1="145.6" y1="192.4" x2="164.6" y2="218.8"/>
<line style="fill:none;stroke:#FF0000;stroke-width:3.996;stroke-linejoin:round;stroke-miterlimit:10;" x1="145.6" y1="223.5" x2="164.6" y2="218.8"/>
<line style="fill:none;stroke:#FF0000;stroke-width:0.9998;stroke-linejoin:round;stroke-miterlimit:10;" x1="191.8" y1="269.7" x2="164.6" y2="218.8"/>
<line style="fill:none;stroke:#FF0000;stroke-width:0.9998;stroke-linejoin:round;stroke-miterlimit:10;" x1="91.3" y1="45" x2="91.3" y2="44.9"/>
<line style="fill:none;stroke:#FF0000;stroke-width:0.9998;stroke-linejoin:round;stroke-miterlimit:10;" x1="164.6" y1="94.4" x2="137.5" y2="43.5"/>
<text transform="matrix(1 0 0 1 260.334 90.728)" style="font-family:'ArialMT'; font-size:9.9998px;">4f</text>
<line style="fill:none;stroke:#262626;stroke-width:0.5002;stroke-linecap:round;stroke-linejoin:round;stroke-miterlimit:10;" x1="223.4" y1="268.7" x2="227.4" y2="272.6"/>
<path style="fill:#0000FF;" d="M263.1,91.6c0-3.4-2.8-6.2-6.2-6.2c-3.4,0-6.2,2.8-6.2,6.2c0,3.4,2.8,6.2,6.2,6.2
	C260.3,97.7,263.1,95,263.1,91.6"/>
<line style="fill:none;stroke:#FF0000;stroke-width:2.6093;stroke-linejoin:round;stroke-miterlimit:10;" x1="256.9" y1="91.6" x2="256.9" y2="44"/>
<text transform="matrix(1 0 0 1 168.0352 93.5542)" style="font-family:'ArialMT'; font-size:9.9998px;">4f</text>
<line style="fill:none;stroke:#FF0000;stroke-width:3.3982;stroke-linejoin:round;stroke-miterlimit:10;" x1="164.6" y1="94.4" x2="256.9" y2="91.6"/>
<line style="fill:none;stroke:#FF0000;stroke-width:2.7915;stroke-linejoin:round;stroke-miterlimit:10;" x1="237.9" y1="96.3" x2="256.9" y2="91.6"/>
<text transform="matrix(1 0 0 1 168.0352 155.75)" style="font-family:'ArialMT'; font-size:9.9998px;">2b</text>
<text transform="matrix(1 0 0 1 121.8857 198.0859)" style="font-family:'ArialMT'; font-size:9.9998px;">2c</text>
<path style="fill:#0000FF;" d="M170.8,156.6c0-3.4-2.8-6.2-6.2-6.2c-3.4,0-6.2,2.8-6.2,6.2c0,3.4,2.8,6.2,6.2,6.2
	C168,162.8,170.8,160,170.8,156.6"/>
<line style="fill:none;stroke:#FF0000;stroke-width:0.9998;stroke-linejoin:round;stroke-miterlimit:10;" x1="164.6" y1="94.4" x2="164.6" y2="156.6"/>
<path style="fill:#0000FF;" d="M124.6,198.9c0-3.4-2.8-6.2-6.2-6.2c-3.4,0-6.2,2.8-6.2,6.2s2.8,6.2,6.2,6.2
	C121.9,205.1,124.6,202.3,124.6,198.9"/>
<line style="fill:none;stroke:#FF0000;stroke-width:1.6935;stroke-linejoin:round;stroke-miterlimit:10;" x1="122.6" y1="213.6" x2="118.5" y2="198.9"/>
<line style="fill:none;stroke:#FF0000;stroke-width:1.6935;stroke-linejoin:round;stroke-miterlimit:10;" x1="95.4" y1="210.3" x2="118.5" y2="198.9"/>
<line style="fill:none;stroke:#262626;stroke-width:0.5002;stroke-linecap:round;stroke-linejoin:round;stroke-miterlimit:10;" x1="182.1" y1="270" x2="186" y2="273.8"/>
<line style="fill:none;stroke:#262626;stroke-width:0.5002;stroke-linecap:round;stroke-linejoin:round;stroke-miterlimit:10;" x1="140.8" y1="271.2" x2="144.7" y2="275.1"/>
<line style="fill:none;stroke:#FF0000;stroke-width:3.639;stroke-linejoin:round;stroke-miterlimit:10;" x1="191.8" y1="97.7" x2="164.6" y2="94.4"/>
<path style="fill:#0000FF;" d="M170.8,94.4c0-3.4-2.8-6.2-6.2-6.2c-3.4,0-6.2,2.8-6.2,6.2s2.8,6.2,6.2,6.2
	C168,100.6,170.8,97.8,170.8,94.4"/>
<line style="fill:none;stroke:#FF0000;stroke-width:1.6935;stroke-linejoin:round;stroke-miterlimit:10;" x1="164.6" y1="94.4" x2="164.6" y2="46.8"/>
<line style="fill:none;stroke:#FF0000;stroke-width:3.8333;stroke-linejoin:round;stroke-miterlimit:10;" x1="145.6" y1="99.1" x2="164.6" y2="94.4"/>
<line style="fill:none;stroke:#FF0000;stroke-width:0.9998;stroke-linejoin:round;stroke-miterlimit:10;" x1="237.9" y1="48.8" x2="237.9" y2="48.7"/>
<line style="fill:none;stroke:#000000;stroke-width:0.5002;stroke-linejoin:round;stroke-miterlimit:10;" x1="99.5" y1="272.5" x2="99.5" y2="53"/>
<line style="fill:none;stroke:#262626;stroke-width:0.5002;stroke-linejoin:round;stroke-miterlimit:10;" x1="99.5" y1="272.5" x2="103.4" y2="276.4"/>
<line style="fill:none;stroke:#262626;stroke-width:0.5002;stroke-linejoin:round;stroke-miterlimit:10;" x1="99.5" y1="272.5" x2="94" y2="272.7"/>
<text transform="matrix(1 0 0 1 83.9917 283.29)" style="fill:#262626; font-family:'ArialMT'; font-size:9.9998px;">0</text>
<line style="fill:none;stroke:#000000;stroke-width:0.5002;stroke-linejoin:round;stroke-miterlimit:10;" x1="99.5" y1="53" x2="284.1" y2="47.3"/>
<text transform="matrix(1 0 0 1 268.5361 284.5967)" style="fill:#262626; font-family:'ArialMT'; font-size:9.9998px;">8</text>
<text transform="matrix(1 0 0 1 227.2109 285.8613)" style="fill:#262626; font-family:'ArialMT'; font-size:9.9998px;">6</text>
<text transform="matrix(1 0 0 1 185.8867 287.127)" style="fill:#262626; font-family:'ArialMT'; font-size:9.9998px;">4</text>
<text transform="matrix(1 0 0 1 144.5615 288.3926)" style="fill:#262626; font-family:'ArialMT'; font-size:9.9998px;">2</text>
<text transform="matrix(1 0 0 1 103.2363 289.6582)" style="fill:#262626; font-family:'ArialMT'; font-size:9.9998px;">0</text>
<rect x="2.6" y="105.5" style="fill:none;" width="20.7" height="14.9"/>
<text transform="matrix(1 0 0 1 2.6 114.047)" style="font-family:'Arial-BoldMT'; font-size:12px;">Ba</text>
<rect x="2.6" y="163" style="fill:none;" width="20.7" height="14.9"/>
<text transform="matrix(1 0 0 1 2.6 171.6083)" style="font-family:'Arial-BoldMT'; font-size:12px;">Ba</text>
<rect x="2.6" y="229" style="fill:none;" width="20.7" height="14.9"/>
<text transform="matrix(1 0 0 1 2.6 237.6338)" style="font-family:'Arial-BoldMT'; font-size:12px;">Sn</text>
<rect x="2.6" y="35.5" style="fill:none;" width="20.7" height="14.9"/>
<text transform="matrix(1 0 0 1 2.6 44.1325)" style="font-family:'Arial-BoldMT'; font-size:12px;">Sn</text>
<rect x="2.6" y="69.2" style="fill:none;" width="20.7" height="14.9"/>
<text transform="matrix(1 0 0 1 2.6 77.7495)" style="font-family:'Arial-BoldMT'; font-size:12px;">F</text>
<rect x="2.6" y="193.7" style="fill:none;" width="20.7" height="14.9"/>
<text transform="matrix(1 0 0 1 2.6 202.2935)" style="font-family:'Arial-BoldMT'; font-size:12px;">F</text>
<rect x="2.6" y="132.3" style="fill:none;" width="20.7" height="14.9"/>
<text transform="matrix(1 0 0 1 2.6 140.9231)" style="font-family:'Arial-BoldMT'; font-size:12px;">F</text>
</svg>
