<?xml version="1.0" encoding="utf-8"?>
<!-- Generator: Adobe Illustrator 23.0.1, SVG Export Plug-In . SVG Version: 6.00 Build 0)  -->
<svg version="1.1" id="Layer_1" xmlns="http://www.w3.org/2000/svg" xmlns:xlink="http://www.w3.org/1999/xlink" x="0px" y="0px"
	 viewBox="0 0 600 300" style="enable-background:new 0 0 600 300;" xml:space="preserve">
<g>
	<defs>
		<rect id="SVGID_1_" width="600" height="300"/>
	</defs>
	<clipPath id="SVGID_2_">
		<use xlink:href="#SVGID_1_"  style="overflow:visible;"/>
	</clipPath>
	<rect style="clip-path:url(#SVGID_2_);fill:#FFFFFF;" width="600" height="300"/>
</g>
<rect style="fill:#FFFFFF;" width="600" height="300"/>
<rect x="60" y="22.5" style="fill:#FFFFFF;" width="359.3" height="244.5"/>
<line style="opacity:0.149;fill:none;stroke:#262626;stroke-width:0.5;stroke-linejoin:round;stroke-miterlimit:10;" x1="60" y1="267" x2="60" y2="22.5"/>
<line style="opacity:0.149;fill:none;stroke:#262626;stroke-width:0.5;stroke-linejoin:round;stroke-miterlimit:10;" x1="95.9" y1="267" x2="95.9" y2="22.5"/>
<line style="opacity:0.149;fill:none;stroke:#262626;stroke-width:0.5;stroke-linejoin:round;stroke-miterlimit:10;" x1="131.8" y1="267" x2="131.8" y2="22.5"/>
<line style="opacity:0.149;fill:none;stroke:#262626;stroke-width:0.5;stroke-linejoin:round;stroke-miterlimit:10;" x1="167.8" y1="267" x2="167.8" y2="22.5"/>
<line style="opacity:0.149;fill:none;stroke:#262626;stroke-width:0.5;stroke-linejoin:round;stroke-miterlimit:10;" x1="203.7" y1="267" x2="203.7" y2="22.5"/>
<line style="opacity:0.149;fill:none;stroke:#262626;stroke-width:0.5;stroke-linejoin:round;stroke-miterlimit:10;" x1="239.6" y1="267" x2="239.6" y2="22.5"/>
<line style="opacity:0.149;fill:none;stroke:#262626;stroke-width:0.5;stroke-linejoin:round;stroke-miterlimit:10;" x1="275.6" y1="267" x2="275.6" y2="22.5"/>
<line style="opacity:0.149;fill:none;stroke:#262626;stroke-width:0.5;stroke-linejoin:round;stroke-miterlimit:10;" x1="311.5" y1="267" x2="311.5" y2="22.5"/>
<line style="opacity:0.149;fill:none;stroke:#262626;stroke-width:0.5;stroke-linejoin:round;stroke-miterlimit:10;" x1="347.4" y1="267" x2="347.4" y2="22.5"/>
<line style="opacity:0.149;fill:none;stroke:#262626;stroke-width:0.5;stroke-linejoin:round;stroke-miterlimit:10;" x1="383.3" y1="267" x2="383.3" y2="22.5"/>
<line style="opacity:0.149;fill:none;stroke:#262626;stroke-width:0.5;stroke-linejoin:round;stroke-miterlimit:10;" x1="419.3" y1="267" x2="419.3" y2="22.5"/>
<line style="opacity:0.149;fill:none;stroke:#262626;stroke-width:0.5;stroke-linejoin:round;stroke-miterlimit:10;" x1="419.3" y1="267" x2="60" y2="267"/>
<line style="opacity:0.149;fill:none;stroke:#262626;stroke-width:0.5;stroke-linejoin:round;stroke-miterlimit:10;" x1="419.3" y1="232.1" x2="60" y2="232.1"/>
<line style="opacity:0.149;fill:none;stroke:#262626;stroke-width:0.5;stroke-linejoin:round;stroke-miterlimit:10;" x1="419.3" y1="197.1" x2="60" y2="197.1"/>
<line style="opacity:0.149;fill:none;stroke:#262626;stroke-width:0.5;stroke-linejoin:round;stroke-miterlimit:10;" x1="419.3" y1="162.2" x2="60" y2="162.2"/>
<line style="opacity:0.149;fill:none;stroke:#262626;stroke-width:0.5;stroke-linejoin:round;stroke-miterlimit:10;" x1="419.3" y1="127.3" x2="60" y2="127.3"/>
<line style="opacity:0.149;fill:none;stroke:#262626;stroke-width:0.5;stroke-linejoin:round;stroke-miterlimit:10;" x1="419.3" y1="92.4" x2="60" y2="92.4"/>
<line style="opacity:0.149;fill:none;stroke:#262626;stroke-width:0.5;stroke-linejoin:round;stroke-miterlimit:10;" x1="419.3" y1="57.4" x2="60" y2="57.4"/>
<line style="opacity:0.149;fill:none;stroke:#262626;stroke-width:0.5;stroke-linejoin:round;stroke-miterlimit:10;" x1="419.3" y1="22.5" x2="60" y2="22.5"/>
<line style="fill:none;stroke:#262626;stroke-width:0.5;stroke-linecap:square;stroke-linejoin:round;stroke-miterlimit:10;" x1="60" y1="267" x2="419.3" y2="267"/>
<line style="fill:none;stroke:#262626;stroke-width:0.5;stroke-linecap:square;stroke-linejoin:round;stroke-miterlimit:10;" x1="60" y1="22.5" x2="419.3" y2="22.5"/>
<line style="fill:none;stroke:#262626;stroke-width:0.5;stroke-linecap:square;stroke-linejoin:round;stroke-miterlimit:10;" x1="60" y1="267" x2="60" y2="263.4"/>
<line style="fill:none;stroke:#262626;stroke-width:0.5;stroke-linecap:square;stroke-linejoin:round;stroke-miterlimit:10;" x1="95.9" y1="267" x2="95.9" y2="263.4"/>
<line style="fill:none;stroke:#262626;stroke-width:0.5;stroke-linecap:square;stroke-linejoin:round;stroke-miterlimit:10;" x1="131.8" y1="267" x2="131.8" y2="263.4"/>
<line style="fill:none;stroke:#262626;stroke-width:0.5;stroke-linecap:square;stroke-linejoin:round;stroke-miterlimit:10;" x1="167.8" y1="267" x2="167.8" y2="263.4"/>
<line style="fill:none;stroke:#262626;stroke-width:0.5;stroke-linecap:square;stroke-linejoin:round;stroke-miterlimit:10;" x1="203.7" y1="267" x2="203.7" y2="263.4"/>
<line style="fill:none;stroke:#262626;stroke-width:0.5;stroke-linecap:square;stroke-linejoin:round;stroke-miterlimit:10;" x1="239.6" y1="267" x2="239.6" y2="263.4"/>
<line style="fill:none;stroke:#262626;stroke-width:0.5;stroke-linecap:square;stroke-linejoin:round;stroke-miterlimit:10;" x1="275.6" y1="267" x2="275.6" y2="263.4"/>
<line style="fill:none;stroke:#262626;stroke-width:0.5;stroke-linecap:square;stroke-linejoin:round;stroke-miterlimit:10;" x1="311.5" y1="267" x2="311.5" y2="263.4"/>
<line style="fill:none;stroke:#262626;stroke-width:0.5;stroke-linecap:square;stroke-linejoin:round;stroke-miterlimit:10;" x1="347.4" y1="267" x2="347.4" y2="263.4"/>
<line style="fill:none;stroke:#262626;stroke-width:0.5;stroke-linecap:square;stroke-linejoin:round;stroke-miterlimit:10;" x1="383.3" y1="267" x2="383.3" y2="263.4"/>
<line style="fill:none;stroke:#262626;stroke-width:0.5;stroke-linecap:square;stroke-linejoin:round;stroke-miterlimit:10;" x1="419.3" y1="267" x2="419.3" y2="263.4"/>
<line style="fill:none;stroke:#262626;stroke-width:0.5;stroke-linecap:square;stroke-linejoin:round;stroke-miterlimit:10;" x1="60" y1="22.5" x2="60" y2="26.1"/>
<line style="fill:none;stroke:#262626;stroke-width:0.5;stroke-linecap:square;stroke-linejoin:round;stroke-miterlimit:10;" x1="95.9" y1="22.5" x2="95.9" y2="26.1"/>
<line style="fill:none;stroke:#262626;stroke-width:0.5;stroke-linecap:square;stroke-linejoin:round;stroke-miterlimit:10;" x1="131.8" y1="22.5" x2="131.8" y2="26.1"/>
<line style="fill:none;stroke:#262626;stroke-width:0.5;stroke-linecap:square;stroke-linejoin:round;stroke-miterlimit:10;" x1="167.8" y1="22.5" x2="167.8" y2="26.1"/>
<line style="fill:none;stroke:#262626;stroke-width:0.5;stroke-linecap:square;stroke-linejoin:round;stroke-miterlimit:10;" x1="203.7" y1="22.5" x2="203.7" y2="26.1"/>
<line style="fill:none;stroke:#262626;stroke-width:0.5;stroke-linecap:square;stroke-linejoin:round;stroke-miterlimit:10;" x1="239.6" y1="22.5" x2="239.6" y2="26.1"/>
<line style="fill:none;stroke:#262626;stroke-width:0.5;stroke-linecap:square;stroke-linejoin:round;stroke-miterlimit:10;" x1="275.6" y1="22.5" x2="275.6" y2="26.1"/>
<line style="fill:none;stroke:#262626;stroke-width:0.5;stroke-linecap:square;stroke-linejoin:round;stroke-miterlimit:10;" x1="311.5" y1="22.5" x2="311.5" y2="26.1"/>
<line style="fill:none;stroke:#262626;stroke-width:0.5;stroke-linecap:square;stroke-linejoin:round;stroke-miterlimit:10;" x1="347.4" y1="22.5" x2="347.4" y2="26.1"/>
<line style="fill:none;stroke:#262626;stroke-width:0.5;stroke-linecap:square;stroke-linejoin:round;stroke-miterlimit:10;" x1="383.3" y1="22.5" x2="383.3" y2="26.1"/>
<line style="fill:none;stroke:#262626;stroke-width:0.5;stroke-linecap:square;stroke-linejoin:round;stroke-miterlimit:10;" x1="419.3" y1="22.5" x2="419.3" y2="26.1"/>
<text transform="matrix(1 0 0 1 52.875 281.5)" style="fill:#262626; font-family:'ArialMT'; font-size:9.9998px;">0.5</text>
<text transform="matrix(1 0 0 1 88.7998 281.5)" style="fill:#262626; font-family:'ArialMT'; font-size:9.9998px;">0.6</text>
<text transform="matrix(1 0 0 1 124.7251 281.5)" style="fill:#262626; font-family:'ArialMT'; font-size:9.9998px;">0.7</text>
<text transform="matrix(1 0 0 1 160.6499 281.5)" style="fill:#262626; font-family:'ArialMT'; font-size:9.9998px;">0.8</text>
<text transform="matrix(1 0 0 1 196.5752 281.5)" style="fill:#262626; font-family:'ArialMT'; font-size:9.9998px;">0.9</text>
<text transform="matrix(1 0 0 1 236.625 281.5)" style="fill:#262626; font-family:'ArialMT'; font-size:9.9998px;">1</text>
<text transform="matrix(1 0 0 1 268.4248 281.5)" style="fill:#262626; font-family:'ArialMT'; font-size:9.9998px;">1.1</text>
<text transform="matrix(1 0 0 1 304.3496 281.5)" style="fill:#262626; font-family:'ArialMT'; font-size:9.9998px;">1.2</text>
<text transform="matrix(1 0 0 1 340.2754 281.5)" style="fill:#262626; font-family:'ArialMT'; font-size:9.9998px;">1.3</text>
<text transform="matrix(1 0 0 1 376.2002 281.5)" style="fill:#262626; font-family:'ArialMT'; font-size:9.9998px;">1.4</text>
<text transform="matrix(1 0 0 1 412.125 281.5)" style="fill:#262626; font-family:'ArialMT'; font-size:9.9998px;">1.5</text>
<text transform="matrix(1 0 0 1 180.75 296)" style="fill:#262626; font-family:'ArialMT'; font-size:11.0002px;">1/Temperature (1000/K)</text>
<line style="fill:none;stroke:#262626;stroke-width:0.5;stroke-linecap:square;stroke-linejoin:round;stroke-miterlimit:10;" x1="60" y1="267" x2="60" y2="22.5"/>
<line style="fill:none;stroke:#262626;stroke-width:0.5;stroke-linecap:square;stroke-linejoin:round;stroke-miterlimit:10;" x1="419.3" y1="267" x2="419.3" y2="22.5"/>
<line style="fill:none;stroke:#262626;stroke-width:0.5;stroke-linecap:square;stroke-linejoin:round;stroke-miterlimit:10;" x1="60" y1="267" x2="63.6" y2="267"/>
<line style="fill:none;stroke:#262626;stroke-width:0.5;stroke-linecap:square;stroke-linejoin:round;stroke-miterlimit:10;" x1="60" y1="232.1" x2="63.6" y2="232.1"/>
<line style="fill:none;stroke:#262626;stroke-width:0.5;stroke-linecap:square;stroke-linejoin:round;stroke-miterlimit:10;" x1="60" y1="197.1" x2="63.6" y2="197.1"/>
<line style="fill:none;stroke:#262626;stroke-width:0.5;stroke-linecap:square;stroke-linejoin:round;stroke-miterlimit:10;" x1="60" y1="162.2" x2="63.6" y2="162.2"/>
<line style="fill:none;stroke:#262626;stroke-width:0.5;stroke-linecap:square;stroke-linejoin:round;stroke-miterlimit:10;" x1="60" y1="127.3" x2="63.6" y2="127.3"/>
<line style="fill:none;stroke:#262626;stroke-width:0.5;stroke-linecap:square;stroke-linejoin:round;stroke-miterlimit:10;" x1="60" y1="92.4" x2="63.6" y2="92.4"/>
<line style="fill:none;stroke:#262626;stroke-width:0.5;stroke-linecap:square;stroke-linejoin:round;stroke-miterlimit:10;" x1="60" y1="57.4" x2="63.6" y2="57.4"/>
<line style="fill:none;stroke:#262626;stroke-width:0.5;stroke-linecap:square;stroke-linejoin:round;stroke-miterlimit:10;" x1="60" y1="22.5" x2="63.6" y2="22.5"/>
<line style="fill:none;stroke:#262626;stroke-width:0.5;stroke-linecap:square;stroke-linejoin:round;stroke-miterlimit:10;" x1="419.3" y1="267" x2="415.7" y2="267"/>
<line style="fill:none;stroke:#262626;stroke-width:0.5;stroke-linecap:square;stroke-linejoin:round;stroke-miterlimit:10;" x1="419.3" y1="232.1" x2="415.7" y2="232.1"/>
<line style="fill:none;stroke:#262626;stroke-width:0.5;stroke-linecap:square;stroke-linejoin:round;stroke-miterlimit:10;" x1="419.3" y1="197.1" x2="415.7" y2="197.1"/>
<line style="fill:none;stroke:#262626;stroke-width:0.5;stroke-linecap:square;stroke-linejoin:round;stroke-miterlimit:10;" x1="419.3" y1="162.2" x2="415.7" y2="162.2"/>
<line style="fill:none;stroke:#262626;stroke-width:0.5;stroke-linecap:square;stroke-linejoin:round;stroke-miterlimit:10;" x1="419.3" y1="127.3" x2="415.7" y2="127.3"/>
<line style="fill:none;stroke:#262626;stroke-width:0.5;stroke-linecap:square;stroke-linejoin:round;stroke-miterlimit:10;" x1="419.3" y1="92.4" x2="415.7" y2="92.4"/>
<line style="fill:none;stroke:#262626;stroke-width:0.5;stroke-linecap:square;stroke-linejoin:round;stroke-miterlimit:10;" x1="419.3" y1="57.4" x2="415.7" y2="57.4"/>
<line style="fill:none;stroke:#262626;stroke-width:0.5;stroke-linecap:square;stroke-linejoin:round;stroke-miterlimit:10;" x1="419.3" y1="22.5" x2="415.7" y2="22.5"/>
<text transform="matrix(1 0 0 1 47 271.125)" style="fill:#262626; font-family:'ArialMT'; font-size:9.9998px;">-3</text>
<text transform="matrix(1 0 0 1 47 236.1963)" style="fill:#262626; font-family:'ArialMT'; font-size:9.9998px;">-2</text>
<text transform="matrix(1 0 0 1 47 201.2676)" style="fill:#262626; font-family:'ArialMT'; font-size:9.9998px;">-1</text>
<text transform="matrix(1 0 0 1 50 166.3398)" style="fill:#262626; font-family:'ArialMT'; font-size:9.9998px;">0</text>
<text transform="matrix(1 0 0 1 50 131.4106)" style="fill:#262626; font-family:'ArialMT'; font-size:9.9998px;">1</text>
<text transform="matrix(1 0 0 1 50 96.4824)" style="fill:#262626; font-family:'ArialMT'; font-size:9.9998px;">2</text>
<text transform="matrix(1 0 0 1 50 61.5537)" style="fill:#262626; font-family:'ArialMT'; font-size:9.9998px;">3</text>
<text transform="matrix(1 0 0 1 50 26.625)" style="fill:#262626; font-family:'ArialMT'; font-size:9.9998px;">4</text>
<text transform="matrix(-4.333333e-08 -1 1 -4.333333e-08 41.2499 174.7496)" style="fill:#262626; font-family:'ArialMT'; font-size:11.0002px;">ln(</text>
<path style="fill:#262626;" d="M41.1,159.9c0-0.4-0.2-0.8-0.5-1.1s-0.7-0.6-1.2-0.7s-0.9-0.3-1.3-0.3c-0.3,0-0.6,0.1-0.8,0.3
	s-0.3,0.4-0.3,0.7c0,0.4,0.1,0.8,0.4,1.1s0.7,0.5,1.1,0.7s0.9,0.2,1.3,0.2c0.3,0,0.6-0.1,0.8-0.3S41.1,160.2,41.1,159.9z
	 M41.4,159.9c0,0.3-0.1,0.6-0.2,0.9c-0.2,0.3-0.4,0.5-0.6,0.6s-0.6,0.2-0.9,0.2c-0.4,0-0.7-0.1-1.1-0.2s-0.7-0.4-1.1-0.6
	s-0.6-0.6-0.8-0.9s-0.3-0.7-0.3-1.1v-2.8c0-0.1,0-0.1,0.1-0.2s0.1-0.1,0.2-0.1c0.1,0,0.2,0,0.3,0.1s0.1,0.2,0.1,0.3v1.4
	c0.3-0.2,0.7-0.3,1.2-0.3c0.4,0,0.8,0.1,1.1,0.2s0.7,0.3,1,0.6s0.5,0.6,0.7,0.9C41.3,159.1,41.4,159.5,41.4,159.9z"/>
<text transform="matrix(-4.333333e-08 -1 1 -4.333333e-08 41.2499 155.2496)" style="fill:#262626; font-family:'ArialMT'; font-size:11.0002px;">) (S/cm)</text>
<line style="fill:none;stroke:#0072BD;stroke-width:1;stroke-linejoin:round;stroke-miterlimit:10;" x1="393.6" y1="188.7" x2="393.6" y2="224.5"/>
<line style="fill:none;stroke:#0072BD;stroke-width:1;stroke-linejoin:round;stroke-miterlimit:10;" x1="239.6" y1="166.5" x2="239.6" y2="208.1"/>
<line style="fill:none;stroke:#0072BD;stroke-width:1;stroke-linejoin:round;stroke-miterlimit:10;" x1="137" y1="146.9" x2="137" y2="196.1"/>
<line style="fill:none;stroke:#0072BD;stroke-width:1;stroke-linejoin:round;stroke-miterlimit:10;" x1="119.9" y1="140.5" x2="119.9" y2="191.5"/>
<line style="fill:none;stroke:#0072BD;stroke-width:1;stroke-linejoin:round;stroke-miterlimit:10;" x1="91.7" y1="121.8" x2="91.7" y2="174.3"/>
<line style="fill:none;stroke:#0072BD;stroke-width:1;stroke-linejoin:round;stroke-miterlimit:10;" x1="69.5" y1="115.9" x2="69.5" y2="173.3"/>
<line style="fill:none;stroke:#0072BD;stroke-width:1;stroke-linejoin:round;stroke-miterlimit:10;" x1="60" y1="112.7" x2="60" y2="169.8"/>
<line style="fill:none;stroke:#0072BD;stroke-width:1;stroke-linejoin:round;stroke-miterlimit:10;" x1="393.6" y1="188.7" x2="393.6" y2="152.8"/>
<line style="fill:none;stroke:#0072BD;stroke-width:1;stroke-linejoin:round;stroke-miterlimit:10;" x1="239.6" y1="166.5" x2="239.6" y2="124.9"/>
<line style="fill:none;stroke:#0072BD;stroke-width:1;stroke-linejoin:round;stroke-miterlimit:10;" x1="137" y1="146.9" x2="137" y2="97.7"/>
<line style="fill:none;stroke:#0072BD;stroke-width:1;stroke-linejoin:round;stroke-miterlimit:10;" x1="119.9" y1="140.5" x2="119.9" y2="89.4"/>
<line style="fill:none;stroke:#0072BD;stroke-width:1;stroke-linejoin:round;stroke-miterlimit:10;" x1="91.7" y1="121.8" x2="91.7" y2="69.3"/>
<line style="fill:none;stroke:#0072BD;stroke-width:1;stroke-linejoin:round;stroke-miterlimit:10;" x1="69.5" y1="115.9" x2="69.5" y2="58.4"/>
<line style="fill:none;stroke:#0072BD;stroke-width:1;stroke-linejoin:round;stroke-miterlimit:10;" x1="60" y1="112.7" x2="60" y2="55.7"/>
<path style="fill:#0072BD;" d="M393.6,183.2c-3,0-5.5,2.5-5.5,5.5c0,3,2.5,5.5,5.5,5.5c3,0,5.5-2.5,5.5-5.5
	C399.1,185.6,396.6,183.2,393.6,183.2z M393.6,184.2c2.5,0,4.5,2,4.5,4.5s-2,4.5-4.5,4.5c-2.5,0-4.5-2-4.5-4.5
	S391.1,184.2,393.6,184.2z"/>
<path style="fill:#0072BD;" d="M239.6,161c-3,0-5.5,2.5-5.5,5.5c0,3,2.5,5.5,5.5,5.5c3,0,5.5-2.5,5.5-5.5
	C245.1,163.5,242.7,161,239.6,161z M239.6,162c2.5,0,4.5,2,4.5,4.5c0,2.5-2,4.5-4.5,4.5c-2.5,0-4.5-2-4.5-4.5
	C235.1,164,237.1,162,239.6,162z"/>
<path style="fill:#0072BD;" d="M137,141.4c-3,0-5.5,2.5-5.5,5.5c0,3,2.5,5.5,5.5,5.5c3,0,5.5-2.5,5.5-5.5
	C142.5,143.8,140,141.4,137,141.4z M137,142.4c2.5,0,4.5,2,4.5,4.5c0,2.5-2,4.5-4.5,4.5c-2.5,0-4.5-2-4.5-4.5
	C132.5,144.4,134.5,142.4,137,142.4z"/>
<path style="fill:#0072BD;" d="M119.9,135c-3,0-5.5,2.5-5.5,5.5c0,3,2.5,5.5,5.5,5.5c3,0,5.5-2.5,5.5-5.5
	C125.4,137.4,122.9,135,119.9,135z M119.9,136c2.5,0,4.5,2,4.5,4.5c0,2.5-2,4.5-4.5,4.5c-2.5,0-4.5-2-4.5-4.5
	C115.4,138,117.4,136,119.9,136z"/>
<path style="fill:#0072BD;" d="M91.7,116.3c-3,0-5.5,2.5-5.5,5.5c0,3,2.5,5.5,5.5,5.5c3,0,5.5-2.5,5.5-5.5
	C97.2,118.8,94.7,116.3,91.7,116.3z M91.7,117.3c2.5,0,4.5,2,4.5,4.5c0,2.5-2,4.5-4.5,4.5c-2.5,0-4.5-2-4.5-4.5
	C87.2,119.3,89.2,117.3,91.7,117.3z"/>
<path style="fill:#0072BD;" d="M69.5,110.4c-3,0-5.5,2.5-5.5,5.5c0,3,2.5,5.5,5.5,5.5c3,0,5.5-2.5,5.5-5.5
	C75,112.8,72.5,110.4,69.5,110.4z M69.5,111.4c2.5,0,4.5,2,4.5,4.5c0,2.5-2,4.5-4.5,4.5c-2.5,0-4.5-2-4.5-4.5
	C65,113.4,67,111.4,69.5,111.4z"/>
<path style="fill:#0072BD;" d="M60,107.2c-3,0-5.5,2.5-5.5,5.5c0,3,2.5,5.5,5.5,5.5c3,0,5.5-2.5,5.5-5.5
	C65.5,109.7,63,107.2,60,107.2z M60,108.2c2.5,0,4.5,2,4.5,4.5c0,2.5-2,4.5-4.5,4.5c-2.5,0-4.5-2-4.5-4.5
	C55.5,110.3,57.5,108.2,60,108.2z"/>
<line style="fill:#0072BD;" x1="390.6" y1="224.5" x2="396.6" y2="224.5"/>
<line style="fill:none;stroke:#0072BD;stroke-width:1;stroke-miterlimit:10;" x1="390.6" y1="224.5" x2="396.6" y2="224.5"/>
<line style="fill:#0072BD;" x1="236.6" y1="208.1" x2="242.6" y2="208.1"/>
<line style="fill:none;stroke:#0072BD;stroke-width:1;stroke-miterlimit:10;" x1="236.6" y1="208.1" x2="242.6" y2="208.1"/>
<line style="fill:#0072BD;" x1="134" y1="196.1" x2="140" y2="196.1"/>
<line style="fill:none;stroke:#0072BD;stroke-width:1;stroke-miterlimit:10;" x1="134" y1="196.1" x2="140" y2="196.1"/>
<line style="fill:#0072BD;" x1="116.9" y1="191.5" x2="122.9" y2="191.5"/>
<line style="fill:none;stroke:#0072BD;stroke-width:1;stroke-miterlimit:10;" x1="116.9" y1="191.5" x2="122.9" y2="191.5"/>
<line style="fill:#0072BD;" x1="88.7" y1="174.3" x2="94.7" y2="174.3"/>
<line style="fill:none;stroke:#0072BD;stroke-width:1;stroke-miterlimit:10;" x1="88.7" y1="174.3" x2="94.7" y2="174.3"/>
<line style="fill:#0072BD;" x1="66.5" y1="173.3" x2="72.5" y2="173.3"/>
<line style="fill:none;stroke:#0072BD;stroke-width:1;stroke-miterlimit:10;" x1="66.5" y1="173.3" x2="72.5" y2="173.3"/>
<line style="fill:#0072BD;" x1="57" y1="169.8" x2="63" y2="169.8"/>
<line style="fill:none;stroke:#0072BD;stroke-width:1;stroke-miterlimit:10;" x1="57" y1="169.8" x2="63" y2="169.8"/>
<line style="fill:#0072BD;" x1="390.6" y1="152.8" x2="396.6" y2="152.8"/>
<line style="fill:none;stroke:#0072BD;stroke-width:1;stroke-miterlimit:10;" x1="390.6" y1="152.8" x2="396.6" y2="152.8"/>
<line style="fill:#0072BD;" x1="236.6" y1="124.9" x2="242.6" y2="124.9"/>
<line style="fill:none;stroke:#0072BD;stroke-width:1;stroke-miterlimit:10;" x1="236.6" y1="124.9" x2="242.6" y2="124.9"/>
<line style="fill:#0072BD;" x1="134" y1="97.7" x2="140" y2="97.7"/>
<line style="fill:none;stroke:#0072BD;stroke-width:1;stroke-miterlimit:10;" x1="134" y1="97.7" x2="140" y2="97.7"/>
<line style="fill:#0072BD;" x1="116.9" y1="89.4" x2="122.9" y2="89.4"/>
<line style="fill:none;stroke:#0072BD;stroke-width:1;stroke-miterlimit:10;" x1="116.9" y1="89.4" x2="122.9" y2="89.4"/>
<line style="fill:#0072BD;" x1="88.7" y1="69.3" x2="94.7" y2="69.3"/>
<line style="fill:none;stroke:#0072BD;stroke-width:1;stroke-miterlimit:10;" x1="88.7" y1="69.3" x2="94.7" y2="69.3"/>
<line style="fill:#0072BD;" x1="66.5" y1="58.4" x2="72.5" y2="58.4"/>
<line style="fill:none;stroke:#0072BD;stroke-width:1;stroke-miterlimit:10;" x1="66.5" y1="58.4" x2="72.5" y2="58.4"/>
<line style="fill:#0072BD;" x1="57" y1="55.7" x2="63" y2="55.7"/>
<line style="fill:none;stroke:#0072BD;stroke-width:1;stroke-miterlimit:10;" x1="57" y1="55.7" x2="63" y2="55.7"/>
<line style="fill:none;stroke:#D95319;stroke-width:1;stroke-linejoin:round;stroke-miterlimit:10;" x1="393.6" y1="225.8" x2="393.6" y2="261.3"/>
<line style="fill:none;stroke:#D95319;stroke-width:1;stroke-linejoin:round;stroke-miterlimit:10;" x1="179.7" y1="150.6" x2="179.7" y2="195"/>
<line style="fill:none;stroke:#D95319;stroke-width:1;stroke-linejoin:round;stroke-miterlimit:10;" x1="119.9" y1="149.7" x2="119.9" y2="197.2"/>
<line style="fill:none;stroke:#D95319;stroke-width:1;stroke-linejoin:round;stroke-miterlimit:10;" x1="91.7" y1="141.5" x2="91.7" y2="198.8"/>
<line style="fill:none;stroke:#D95319;stroke-width:1;stroke-linejoin:round;stroke-miterlimit:10;" x1="393.6" y1="225.8" x2="393.6" y2="190.3"/>
<line style="fill:none;stroke:#D95319;stroke-width:1;stroke-linejoin:round;stroke-miterlimit:10;" x1="179.7" y1="150.6" x2="179.7" y2="106.2"/>
<line style="fill:none;stroke:#D95319;stroke-width:1;stroke-linejoin:round;stroke-miterlimit:10;" x1="119.9" y1="149.7" x2="119.9" y2="102.1"/>
<line style="fill:none;stroke:#D95319;stroke-width:1;stroke-linejoin:round;stroke-miterlimit:10;" x1="91.7" y1="141.5" x2="91.7" y2="84.2"/>
<polygon style="fill:none;stroke:#D95319;stroke-width:1;stroke-miterlimit:10;" points="393.6,219.1 387.8,229.1 399.4,229.1 "/>
<polygon style="fill:none;stroke:#D95319;stroke-width:1;stroke-miterlimit:10;" points="179.7,143.9 174,153.9 185.5,153.9 "/>
<polygon style="fill:none;stroke:#D95319;stroke-width:1;stroke-miterlimit:10;" points="119.9,143 114.1,153 125.6,153 "/>
<polygon style="fill:none;stroke:#D95319;stroke-width:1;stroke-miterlimit:10;" points="91.7,134.9 85.9,144.9 97.5,144.9 "/>
<line style="fill:#D95319;" x1="390.6" y1="261.3" x2="396.6" y2="261.3"/>
<line style="fill:none;stroke:#D95319;stroke-width:1;stroke-miterlimit:10;" x1="390.6" y1="261.3" x2="396.6" y2="261.3"/>
<line style="fill:#D95319;" x1="176.7" y1="195" x2="182.7" y2="195"/>
<line style="fill:none;stroke:#D95319;stroke-width:1;stroke-miterlimit:10;" x1="176.7" y1="195" x2="182.7" y2="195"/>
<line style="fill:#D95319;" x1="116.9" y1="197.2" x2="122.9" y2="197.2"/>
<line style="fill:none;stroke:#D95319;stroke-width:1;stroke-miterlimit:10;" x1="116.9" y1="197.2" x2="122.9" y2="197.2"/>
<line style="fill:#D95319;" x1="88.7" y1="198.8" x2="94.7" y2="198.8"/>
<line style="fill:none;stroke:#D95319;stroke-width:1;stroke-miterlimit:10;" x1="88.7" y1="198.8" x2="94.7" y2="198.8"/>
<line style="fill:#D95319;" x1="390.6" y1="190.3" x2="396.6" y2="190.3"/>
<line style="fill:none;stroke:#D95319;stroke-width:1;stroke-miterlimit:10;" x1="390.6" y1="190.3" x2="396.6" y2="190.3"/>
<line style="fill:#D95319;" x1="176.7" y1="106.2" x2="182.7" y2="106.2"/>
<line style="fill:none;stroke:#D95319;stroke-width:1;stroke-miterlimit:10;" x1="176.7" y1="106.2" x2="182.7" y2="106.2"/>
<line style="fill:#D95319;" x1="116.9" y1="102.1" x2="122.9" y2="102.1"/>
<line style="fill:none;stroke:#D95319;stroke-width:1;stroke-miterlimit:10;" x1="116.9" y1="102.1" x2="122.9" y2="102.1"/>
<line style="fill:#D95319;" x1="88.7" y1="84.2" x2="94.7" y2="84.2"/>
<line style="fill:none;stroke:#D95319;stroke-width:1;stroke-miterlimit:10;" x1="88.7" y1="84.2" x2="94.7" y2="84.2"/>
<line style="fill:none;stroke:#EDB120;stroke-width:1;stroke-linejoin:round;stroke-miterlimit:10;" x1="393.6" y1="178.8" x2="393.6" y2="206.8"/>
<line style="fill:none;stroke:#EDB120;stroke-width:1;stroke-linejoin:round;stroke-miterlimit:10;" x1="179.7" y1="163.7" x2="179.7" y2="201.9"/>
<line style="fill:none;stroke:#EDB120;stroke-width:1;stroke-linejoin:round;stroke-miterlimit:10;" x1="119.9" y1="145.5" x2="119.9" y2="189"/>
<line style="fill:none;stroke:#EDB120;stroke-width:1;stroke-linejoin:round;stroke-miterlimit:10;" x1="91.7" y1="130.2" x2="91.7" y2="172.7"/>
<line style="fill:none;stroke:#EDB120;stroke-width:1;stroke-linejoin:round;stroke-miterlimit:10;" x1="69.5" y1="115.5" x2="69.5" y2="171"/>
<line style="fill:none;stroke:#EDB120;stroke-width:1;stroke-linejoin:round;stroke-miterlimit:10;" x1="393.6" y1="178.8" x2="393.6" y2="150.9"/>
<line style="fill:none;stroke:#EDB120;stroke-width:1;stroke-linejoin:round;stroke-miterlimit:10;" x1="179.7" y1="163.7" x2="179.7" y2="125.4"/>
<line style="fill:none;stroke:#EDB120;stroke-width:1;stroke-linejoin:round;stroke-miterlimit:10;" x1="119.9" y1="145.5" x2="119.9" y2="101.9"/>
<line style="fill:none;stroke:#EDB120;stroke-width:1;stroke-linejoin:round;stroke-miterlimit:10;" x1="91.7" y1="130.2" x2="91.7" y2="87.8"/>
<line style="fill:none;stroke:#EDB120;stroke-width:1;stroke-linejoin:round;stroke-miterlimit:10;" x1="69.5" y1="115.5" x2="69.5" y2="60"/>
<path style="fill:none;stroke:#EDB120;stroke-width:1;stroke-miterlimit:10;" d="M390.1,182.4l7.1-7.1 M390.1,175.3l7.1,7.1
	 M388.3,178.8h10.5 M393.6,173.6v10.5"/>
<path style="fill:none;stroke:#EDB120;stroke-width:1;stroke-miterlimit:10;" d="M176.2,167.2l7.1-7.1 M176.2,160.1l7.1,7.1
	 M174.5,163.7H185 M179.7,158.4v10.5"/>
<path style="fill:none;stroke:#EDB120;stroke-width:1;stroke-miterlimit:10;" d="M116.3,149l7.1-7.1 M116.3,141.9l7.1,7.1
	 M114.6,145.5h10.5 M119.9,140.2v10.5"/>
<path style="fill:none;stroke:#EDB120;stroke-width:1;stroke-miterlimit:10;" d="M88.2,133.8l7.1-7.1 M88.2,126.7l7.1,7.1
	 M86.4,130.2h10.5 M91.7,125v10.5"/>
<path style="fill:none;stroke:#EDB120;stroke-width:1;stroke-miterlimit:10;" d="M65.9,119.1L73,112 M65.9,112l7.1,7.1 M64.2,115.5
	h10.5 M69.5,110.3v10.5"/>
<line style="fill:#EDB120;" x1="390.6" y1="206.8" x2="396.6" y2="206.8"/>
<line style="fill:none;stroke:#EDB120;stroke-width:1;stroke-miterlimit:10;" x1="390.6" y1="206.8" x2="396.6" y2="206.8"/>
<line style="fill:#EDB120;" x1="176.7" y1="201.9" x2="182.7" y2="201.9"/>
<line style="fill:none;stroke:#EDB120;stroke-width:1;stroke-miterlimit:10;" x1="176.7" y1="201.9" x2="182.7" y2="201.9"/>
<line style="fill:#EDB120;" x1="116.9" y1="189" x2="122.9" y2="189"/>
<line style="fill:none;stroke:#EDB120;stroke-width:1;stroke-miterlimit:10;" x1="116.9" y1="189" x2="122.9" y2="189"/>
<line style="fill:#EDB120;" x1="88.7" y1="172.7" x2="94.7" y2="172.7"/>
<line style="fill:none;stroke:#EDB120;stroke-width:1;stroke-miterlimit:10;" x1="88.7" y1="172.7" x2="94.7" y2="172.7"/>
<line style="fill:#EDB120;" x1="66.5" y1="171" x2="72.5" y2="171"/>
<line style="fill:none;stroke:#EDB120;stroke-width:1;stroke-miterlimit:10;" x1="66.5" y1="171" x2="72.5" y2="171"/>
<line style="fill:#EDB120;" x1="390.6" y1="150.9" x2="396.6" y2="150.9"/>
<line style="fill:none;stroke:#EDB120;stroke-width:1;stroke-miterlimit:10;" x1="390.6" y1="150.9" x2="396.6" y2="150.9"/>
<line style="fill:#EDB120;" x1="176.7" y1="125.4" x2="182.7" y2="125.4"/>
<line style="fill:none;stroke:#EDB120;stroke-width:1;stroke-miterlimit:10;" x1="176.7" y1="125.4" x2="182.7" y2="125.4"/>
<line style="fill:#EDB120;" x1="116.9" y1="101.9" x2="122.9" y2="101.9"/>
<line style="fill:none;stroke:#EDB120;stroke-width:1;stroke-miterlimit:10;" x1="116.9" y1="101.9" x2="122.9" y2="101.9"/>
<line style="fill:#EDB120;" x1="88.7" y1="87.8" x2="94.7" y2="87.8"/>
<line style="fill:none;stroke:#EDB120;stroke-width:1;stroke-miterlimit:10;" x1="88.7" y1="87.8" x2="94.7" y2="87.8"/>
<line style="fill:#EDB120;" x1="66.5" y1="60" x2="72.5" y2="60"/>
<line style="fill:none;stroke:#EDB120;stroke-width:1;stroke-miterlimit:10;" x1="66.5" y1="60" x2="72.5" y2="60"/>
<polyline style="fill:none;stroke:#0072BD;stroke-width:2;stroke-linejoin:round;stroke-miterlimit:10;" points="393.6,195.1 
	239.6,160.2 137,136.9 119.9,133 91.7,126.7 69.5,121.6 60,119.5 "/>
<polyline style="fill:none;stroke:#D95319;stroke-width:2;stroke-linejoin:round;stroke-miterlimit:10;" points="393.6,222.8 
	179.7,162.2 119.9,145.3 91.7,137.3 "/>
<polyline style="fill:none;stroke:#EDB120;stroke-width:2;stroke-linejoin:round;stroke-miterlimit:10;" points="393.6,185.1 
	179.7,148.3 119.9,138 91.7,133.1 69.5,129.3 "/>
<rect x="434.3" y="118.5" style="fill:#FFFFFF;" width="121.5" height="52.5"/>
<text transform="matrix(1 0 0 1 469.5 129.75)" style="font-family:'ArialMT'; font-size:9px;">BaSnF</text>
<text transform="matrix(1 0 0 1 497.25 134.25)" style="font-family:'ArialMT'; font-size:7.2px;">4</text>
<line style="fill:none;stroke:#0072BD;stroke-width:2;stroke-linejoin:round;stroke-miterlimit:10;" x1="437.3" y1="128.1" x2="467.3" y2="128.1"/>
<text transform="matrix(1 0 0 1 469.5 146.25)" style="font-family:'ArialMT'; font-size:9px;">BaSnF</text>
<text transform="matrix(1 0 0 1 497.25 150.75)" style="font-family:'ArialMT'; font-size:7.2px;">4</text>
<text transform="matrix(1 0 0 1 501.75 146.25)" style="font-family:'ArialMT'; font-size:9px;"> </text>
<text transform="matrix(1 0 0 1 504.75 146.25)" style="font-family:'ArialMT'; font-size:9px;">1</text>
<text transform="matrix(1 0 0 1 510 146.25)" style="font-family:'ArialMT'; font-size:9px;"> vacancy</text>
<line style="fill:none;stroke:#D95319;stroke-width:2;stroke-linejoin:round;stroke-miterlimit:10;" x1="437.3" y1="144.8" x2="467.3" y2="144.8"/>
<text transform="matrix(1 0 0 1 469.5 162.75)" style="font-family:'ArialMT'; font-size:9px;">BaSnF</text>
<text transform="matrix(1 0 0 1 497.25 167.25)" style="font-family:'ArialMT'; font-size:7.2px;">4</text>
<text transform="matrix(1 0 0 1 501.75 162.75)" style="font-family:'ArialMT'; font-size:9px;"> </text>
<text transform="matrix(1 0 0 1 504.75 162.75)" style="font-family:'ArialMT'; font-size:9px;">2</text>
<text transform="matrix(1 0 0 1 510 162.75)" style="font-family:'ArialMT'; font-size:9px;"> vacancies</text>
<line style="fill:none;stroke:#EDB120;stroke-width:2;stroke-linejoin:round;stroke-miterlimit:10;" x1="437.3" y1="161.4" x2="467.3" y2="161.4"/>
<rect x="434.3" y="118.5" style="fill:none;stroke:#262626;stroke-width:0.5;stroke-miterlimit:10;" width="121.5" height="52.5"/>
</svg>
