<?xml version="1.0" encoding="utf-8"?>
<!-- Generator: Adobe Illustrator 23.0.1, SVG Export Plug-In . SVG Version: 6.00 Build 0)  -->
<svg version="1.1" id="Layer_1" xmlns="http://www.w3.org/2000/svg" xmlns:xlink="http://www.w3.org/1999/xlink" x="0px" y="0px"
	 viewBox="0 0 600 263" style="enable-background:new 0 0 600 263;" xml:space="preserve">
<g>
	<defs>
		<rect id="SVGID_1_" width="600" height="262.5"/>
	</defs>
	<clipPath id="SVGID_2_">
		<use xlink:href="#SVGID_1_"  style="overflow:visible;"/>
	</clipPath>
	<rect style="clip-path:url(#SVGID_2_);fill:#FFFFFF;" width="600" height="262.5"/>
</g>
<rect style="fill:#FFFFFF;" width="600" height="262.5"/>
<rect x="56.3" y="19.5" style="fill:#FFFFFF;" width="334.5" height="202.5"/>
<line style="opacity:0.149;fill:none;stroke:#262626;stroke-width:0.5;stroke-linejoin:round;stroke-miterlimit:10;" x1="56.3" y1="222" x2="56.3" y2="19.5"/>
<line style="opacity:0.149;fill:none;stroke:#262626;stroke-width:0.5;stroke-linejoin:round;stroke-miterlimit:10;" x1="98.1" y1="222" x2="98.1" y2="19.5"/>
<line style="opacity:0.149;fill:none;stroke:#262626;stroke-width:0.5;stroke-linejoin:round;stroke-miterlimit:10;" x1="139.9" y1="222" x2="139.9" y2="19.5"/>
<line style="opacity:0.149;fill:none;stroke:#262626;stroke-width:0.5;stroke-linejoin:round;stroke-miterlimit:10;" x1="181.7" y1="222" x2="181.7" y2="19.5"/>
<line style="opacity:0.149;fill:none;stroke:#262626;stroke-width:0.5;stroke-linejoin:round;stroke-miterlimit:10;" x1="223.5" y1="222" x2="223.5" y2="19.5"/>
<line style="opacity:0.149;fill:none;stroke:#262626;stroke-width:0.5;stroke-linejoin:round;stroke-miterlimit:10;" x1="265.3" y1="222" x2="265.3" y2="19.5"/>
<line style="opacity:0.149;fill:none;stroke:#262626;stroke-width:0.5;stroke-linejoin:round;stroke-miterlimit:10;" x1="307.1" y1="222" x2="307.1" y2="19.5"/>
<line style="opacity:0.149;fill:none;stroke:#262626;stroke-width:0.5;stroke-linejoin:round;stroke-miterlimit:10;" x1="348.9" y1="222" x2="348.9" y2="19.5"/>
<line style="opacity:0.149;fill:none;stroke:#262626;stroke-width:0.5;stroke-linejoin:round;stroke-miterlimit:10;" x1="390.8" y1="222" x2="390.8" y2="19.5"/>
<line style="opacity:0.149;fill:none;stroke:#262626;stroke-width:0.5;stroke-linejoin:round;stroke-miterlimit:10;" x1="390.8" y1="222" x2="56.3" y2="222"/>
<line style="opacity:0.149;fill:none;stroke:#262626;stroke-width:0.5;stroke-linejoin:round;stroke-miterlimit:10;" x1="390.8" y1="193.1" x2="56.3" y2="193.1"/>
<line style="opacity:0.149;fill:none;stroke:#262626;stroke-width:0.5;stroke-linejoin:round;stroke-miterlimit:10;" x1="390.8" y1="164.1" x2="56.3" y2="164.1"/>
<line style="opacity:0.149;fill:none;stroke:#262626;stroke-width:0.5;stroke-linejoin:round;stroke-miterlimit:10;" x1="390.8" y1="135.2" x2="56.3" y2="135.2"/>
<line style="opacity:0.149;fill:none;stroke:#262626;stroke-width:0.5;stroke-linejoin:round;stroke-miterlimit:10;" x1="390.8" y1="106.3" x2="56.3" y2="106.3"/>
<line style="opacity:0.149;fill:none;stroke:#262626;stroke-width:0.5;stroke-linejoin:round;stroke-miterlimit:10;" x1="390.8" y1="77.4" x2="56.3" y2="77.4"/>
<line style="opacity:0.149;fill:none;stroke:#262626;stroke-width:0.5;stroke-linejoin:round;stroke-miterlimit:10;" x1="390.8" y1="48.4" x2="56.3" y2="48.4"/>
<line style="opacity:0.149;fill:none;stroke:#262626;stroke-width:0.5;stroke-linejoin:round;stroke-miterlimit:10;" x1="390.8" y1="19.5" x2="56.3" y2="19.5"/>
<line style="fill:none;stroke:#262626;stroke-width:0.5;stroke-linecap:square;stroke-linejoin:round;stroke-miterlimit:10;" x1="56.3" y1="222" x2="390.8" y2="222"/>
<line style="fill:none;stroke:#262626;stroke-width:0.5;stroke-linecap:square;stroke-linejoin:round;stroke-miterlimit:10;" x1="56.3" y1="19.5" x2="390.8" y2="19.5"/>
<line style="fill:none;stroke:#262626;stroke-width:0.5;stroke-linecap:square;stroke-linejoin:round;stroke-miterlimit:10;" x1="56.3" y1="222" x2="56.3" y2="218.7"/>
<line style="fill:none;stroke:#262626;stroke-width:0.5;stroke-linecap:square;stroke-linejoin:round;stroke-miterlimit:10;" x1="98.1" y1="222" x2="98.1" y2="218.7"/>
<line style="fill:none;stroke:#262626;stroke-width:0.5;stroke-linecap:square;stroke-linejoin:round;stroke-miterlimit:10;" x1="139.9" y1="222" x2="139.9" y2="218.7"/>
<line style="fill:none;stroke:#262626;stroke-width:0.5;stroke-linecap:square;stroke-linejoin:round;stroke-miterlimit:10;" x1="181.7" y1="222" x2="181.7" y2="218.7"/>
<line style="fill:none;stroke:#262626;stroke-width:0.5;stroke-linecap:square;stroke-linejoin:round;stroke-miterlimit:10;" x1="223.5" y1="222" x2="223.5" y2="218.7"/>
<line style="fill:none;stroke:#262626;stroke-width:0.5;stroke-linecap:square;stroke-linejoin:round;stroke-miterlimit:10;" x1="265.3" y1="222" x2="265.3" y2="218.7"/>
<line style="fill:none;stroke:#262626;stroke-width:0.5;stroke-linecap:square;stroke-linejoin:round;stroke-miterlimit:10;" x1="307.1" y1="222" x2="307.1" y2="218.7"/>
<line style="fill:none;stroke:#262626;stroke-width:0.5;stroke-linecap:square;stroke-linejoin:round;stroke-miterlimit:10;" x1="348.9" y1="222" x2="348.9" y2="218.7"/>
<line style="fill:none;stroke:#262626;stroke-width:0.5;stroke-linecap:square;stroke-linejoin:round;stroke-miterlimit:10;" x1="390.8" y1="222" x2="390.8" y2="218.7"/>
<line style="fill:none;stroke:#262626;stroke-width:0.5;stroke-linecap:square;stroke-linejoin:round;stroke-miterlimit:10;" x1="56.3" y1="19.5" x2="56.3" y2="22.8"/>
<line style="fill:none;stroke:#262626;stroke-width:0.5;stroke-linecap:square;stroke-linejoin:round;stroke-miterlimit:10;" x1="98.1" y1="19.5" x2="98.1" y2="22.8"/>
<line style="fill:none;stroke:#262626;stroke-width:0.5;stroke-linecap:square;stroke-linejoin:round;stroke-miterlimit:10;" x1="139.9" y1="19.5" x2="139.9" y2="22.8"/>
<line style="fill:none;stroke:#262626;stroke-width:0.5;stroke-linecap:square;stroke-linejoin:round;stroke-miterlimit:10;" x1="181.7" y1="19.5" x2="181.7" y2="22.8"/>
<line style="fill:none;stroke:#262626;stroke-width:0.5;stroke-linecap:square;stroke-linejoin:round;stroke-miterlimit:10;" x1="223.5" y1="19.5" x2="223.5" y2="22.8"/>
<line style="fill:none;stroke:#262626;stroke-width:0.5;stroke-linecap:square;stroke-linejoin:round;stroke-miterlimit:10;" x1="265.3" y1="19.5" x2="265.3" y2="22.8"/>
<line style="fill:none;stroke:#262626;stroke-width:0.5;stroke-linecap:square;stroke-linejoin:round;stroke-miterlimit:10;" x1="307.1" y1="19.5" x2="307.1" y2="22.8"/>
<line style="fill:none;stroke:#262626;stroke-width:0.5;stroke-linecap:square;stroke-linejoin:round;stroke-miterlimit:10;" x1="348.9" y1="19.5" x2="348.9" y2="22.8"/>
<line style="fill:none;stroke:#262626;stroke-width:0.5;stroke-linecap:square;stroke-linejoin:round;stroke-miterlimit:10;" x1="390.8" y1="19.5" x2="390.8" y2="22.8"/>
<text transform="matrix(-4.333333e-08 -1 1 -4.333333e-08 60.3749 262.7497)" style="fill:#262626; font-family:'ArialMT'; font-size:9.9998px;">2b to 2b</text>
<text transform="matrix(-4.333333e-08 -1 1 -4.333333e-08 102.1874 261.9997)" style="fill:#262626; font-family:'ArialMT'; font-size:9.9998px;">2b to 2c</text>
<text transform="matrix(-4.333333e-08 -1 1 -4.333333e-08 143.9999 259.7497)" style="fill:#262626; font-family:'ArialMT'; font-size:9.9998px;">2b to 4f</text>
<text transform="matrix(-4.333333e-08 -1 1 -4.333333e-08 185.8124 261.9997)" style="fill:#262626; font-family:'ArialMT'; font-size:9.9998px;">2c to 2b</text>
<text transform="matrix(-4.333333e-08 -1 1 -4.333333e-08 227.6249 261.2496)" style="fill:#262626; font-family:'ArialMT'; font-size:9.9998px;">2c to 2c</text>
<text transform="matrix(-4.333333e-08 -1 1 -4.333333e-08 269.4374 258.9996)" style="fill:#262626; font-family:'ArialMT'; font-size:9.9998px;">2c to 4f</text>
<text transform="matrix(-4.333333e-08 -1 1 -4.333333e-08 311.2504 259.7496)" style="fill:#262626; font-family:'ArialMT'; font-size:9.9998px;">4f to 2b</text>
<text transform="matrix(-4.333333e-08 -1 1 -4.333333e-08 353.0629 258.9996)" style="fill:#262626; font-family:'ArialMT'; font-size:9.9998px;">4f to 2c</text>
<text transform="matrix(-4.333333e-08 -1 1 -4.333333e-08 394.8754 256.7496)" style="fill:#262626; font-family:'ArialMT'; font-size:9.9998px;">4f to 4f</text>
<line style="fill:none;stroke:#262626;stroke-width:0.5;stroke-linecap:square;stroke-linejoin:round;stroke-miterlimit:10;" x1="56.3" y1="222" x2="56.3" y2="19.5"/>
<line style="fill:none;stroke:#262626;stroke-width:0.5;stroke-linecap:square;stroke-linejoin:round;stroke-miterlimit:10;" x1="390.8" y1="222" x2="390.8" y2="19.5"/>
<line style="fill:none;stroke:#262626;stroke-width:0.5;stroke-linecap:square;stroke-linejoin:round;stroke-miterlimit:10;" x1="56.3" y1="222" x2="59.6" y2="222"/>
<line style="fill:none;stroke:#262626;stroke-width:0.5;stroke-linecap:square;stroke-linejoin:round;stroke-miterlimit:10;" x1="56.3" y1="193.1" x2="59.6" y2="193.1"/>
<line style="fill:none;stroke:#262626;stroke-width:0.5;stroke-linecap:square;stroke-linejoin:round;stroke-miterlimit:10;" x1="56.3" y1="164.1" x2="59.6" y2="164.1"/>
<line style="fill:none;stroke:#262626;stroke-width:0.5;stroke-linecap:square;stroke-linejoin:round;stroke-miterlimit:10;" x1="56.3" y1="135.2" x2="59.6" y2="135.2"/>
<line style="fill:none;stroke:#262626;stroke-width:0.5;stroke-linecap:square;stroke-linejoin:round;stroke-miterlimit:10;" x1="56.3" y1="106.3" x2="59.6" y2="106.3"/>
<line style="fill:none;stroke:#262626;stroke-width:0.5;stroke-linecap:square;stroke-linejoin:round;stroke-miterlimit:10;" x1="56.3" y1="77.4" x2="59.6" y2="77.4"/>
<line style="fill:none;stroke:#262626;stroke-width:0.5;stroke-linecap:square;stroke-linejoin:round;stroke-miterlimit:10;" x1="56.3" y1="48.4" x2="59.6" y2="48.4"/>
<line style="fill:none;stroke:#262626;stroke-width:0.5;stroke-linecap:square;stroke-linejoin:round;stroke-miterlimit:10;" x1="56.3" y1="19.5" x2="59.6" y2="19.5"/>
<line style="fill:none;stroke:#262626;stroke-width:0.5;stroke-linecap:square;stroke-linejoin:round;stroke-miterlimit:10;" x1="390.8" y1="222" x2="387.4" y2="222"/>
<line style="fill:none;stroke:#262626;stroke-width:0.5;stroke-linecap:square;stroke-linejoin:round;stroke-miterlimit:10;" x1="390.8" y1="193.1" x2="387.4" y2="193.1"/>
<line style="fill:none;stroke:#262626;stroke-width:0.5;stroke-linecap:square;stroke-linejoin:round;stroke-miterlimit:10;" x1="390.8" y1="164.1" x2="387.4" y2="164.1"/>
<line style="fill:none;stroke:#262626;stroke-width:0.5;stroke-linecap:square;stroke-linejoin:round;stroke-miterlimit:10;" x1="390.8" y1="135.2" x2="387.4" y2="135.2"/>
<line style="fill:none;stroke:#262626;stroke-width:0.5;stroke-linecap:square;stroke-linejoin:round;stroke-miterlimit:10;" x1="390.8" y1="106.3" x2="387.4" y2="106.3"/>
<line style="fill:none;stroke:#262626;stroke-width:0.5;stroke-linecap:square;stroke-linejoin:round;stroke-miterlimit:10;" x1="390.8" y1="77.4" x2="387.4" y2="77.4"/>
<line style="fill:none;stroke:#262626;stroke-width:0.5;stroke-linecap:square;stroke-linejoin:round;stroke-miterlimit:10;" x1="390.8" y1="48.4" x2="387.4" y2="48.4"/>
<line style="fill:none;stroke:#262626;stroke-width:0.5;stroke-linecap:square;stroke-linejoin:round;stroke-miterlimit:10;" x1="390.8" y1="19.5" x2="387.4" y2="19.5"/>
<text transform="matrix(1 0 0 1 46.25 226.125)" style="fill:#262626; font-family:'ArialMT'; font-size:9.9998px;">0</text>
<text transform="matrix(1 0 0 1 38 197.1963)" style="fill:#262626; font-family:'ArialMT'; font-size:9.9998px;">0.5</text>
<text transform="matrix(1 0 0 1 46.25 168.2676)" style="fill:#262626; font-family:'ArialMT'; font-size:9.9998px;">1</text>
<text transform="matrix(1 0 0 1 38 139.3389)" style="fill:#262626; font-family:'ArialMT'; font-size:9.9998px;">1.5</text>
<text transform="matrix(1 0 0 1 46.25 110.4106)" style="fill:#262626; font-family:'ArialMT'; font-size:9.9998px;">2</text>
<text transform="matrix(1 0 0 1 38 81.4824)" style="fill:#262626; font-family:'ArialMT'; font-size:9.9998px;">2.5</text>
<text transform="matrix(1 0 0 1 46.25 52.5537)" style="fill:#262626; font-family:'ArialMT'; font-size:9.9998px;">3</text>
<text transform="matrix(1 0 0 1 38 23.625)" style="fill:#262626; font-family:'ArialMT'; font-size:9.9998px;">3.5</text>
<text transform="matrix(-4.333333e-08 -1 1 -4.333333e-08 31.9999 157.1246)" style="fill:#262626; font-family:'ArialMT'; font-size:11.0002px;">Jump rate (Hz)</text>
<path style="fill:#262626;" d="M57.7,17c0,0,0-0.1,0-0.1l2-2l-2-2c0,0,0-0.1,0-0.1c0,0,0-0.1,0.1-0.1c0,0,0.1-0.1,0.1-0.1
	c0,0,0.1,0,0.2,0.1l2,2l2-2c0.1,0,0.1-0.1,0.1-0.1c0.1,0,0.1,0,0.1,0.1c0,0,0.1,0.1,0.1,0.1c0,0.1,0,0.1,0,0.1l-2,2l2,2
	c0,0,0,0.1,0,0.1c0,0.1,0,0.1-0.1,0.1c0,0-0.1,0.1-0.1,0.1c0,0-0.1,0-0.1-0.1l-2-2l-2,2c-0.1,0-0.1,0.1-0.2,0.1
	c-0.1,0-0.1,0-0.1-0.1C57.7,17.1,57.7,17,57.7,17z"/>
<text transform="matrix(1 0 0 1 64.5 17.25)" style="fill:#262626; font-family:'ArialMT'; font-size:9.9998px;">10</text>
<text transform="matrix(1 0 0 1 75.75 12.75)" style="fill:#262626; font-family:'ArialMT'; font-size:8.0002px;">11</text>
<path style="fill:none;stroke:#0072BD;stroke-width:2;stroke-miterlimit:10;" d="M94.5,225.3l7.1-7.1 M94.5,218.3l7.1,7.1
	 M92.8,221.8h10.5 M98.1,216.6v10.5"/>
<path style="fill:none;stroke:#0072BD;stroke-width:2;stroke-miterlimit:10;" d="M136.3,223.6l7.1-7.1 M136.3,216.6l7.1,7.1
	 M134.6,220.1h10.5 M139.9,214.8v10.5"/>
<path style="fill:none;stroke:#0072BD;stroke-width:2;stroke-miterlimit:10;" d="M178.2,225.3l7.1-7.1 M178.2,218.3l7.1,7.1
	 M176.4,221.8h10.5 M181.7,216.6v10.5"/>
<path style="fill:none;stroke:#0072BD;stroke-width:2;stroke-miterlimit:10;" d="M261.8,221.9l7.1-7.1 M261.8,214.8l7.1,7.1
	 M260.1,218.4h10.5 M265.3,213.1v10.5"/>
<path style="fill:none;stroke:#0072BD;stroke-width:2;stroke-miterlimit:10;" d="M303.6,223.6l7.1-7.1 M303.6,216.6l7.1,7.1
	 M301.9,220.1h10.5 M307.1,214.8v10.5"/>
<path style="fill:none;stroke:#0072BD;stroke-width:2;stroke-miterlimit:10;" d="M345.4,221.9l7.1-7.1 M345.4,214.8l7.1,7.1
	 M343.7,218.4h10.5 M348.9,213.1v10.5"/>
<path style="fill:none;stroke:#0072BD;stroke-width:2;stroke-miterlimit:10;" d="M387.2,60.2l7.1-7.1 M387.2,53.1l7.1,7.1
	 M385.5,56.6H396 M390.8,51.4v10.5"/>
<path style="fill:none;stroke:#D95319;stroke-width:2;stroke-miterlimit:10;" d="M51,221.6h10.5 M56.3,216.4v10.5"/>
<path style="fill:none;stroke:#D95319;stroke-width:2;stroke-miterlimit:10;" d="M134.6,219h10.5 M139.9,213.8v10.5"/>
<path style="fill:none;stroke:#D95319;stroke-width:2;stroke-miterlimit:10;" d="M260.1,219.8h10.5 M265.3,214.6v10.5"/>
<path style="fill:none;stroke:#D95319;stroke-width:2;stroke-miterlimit:10;" d="M301.9,219h10.5 M307.1,213.8v10.5"/>
<path style="fill:none;stroke:#D95319;stroke-width:2;stroke-miterlimit:10;" d="M343.7,220h10.5 M348.9,214.8v10.5"/>
<path style="fill:none;stroke:#D95319;stroke-width:2;stroke-miterlimit:10;" d="M385.5,72.7H396 M390.8,67.4v10.5"/>
<path style="fill:none;stroke:#EDB120;stroke-width:2;stroke-miterlimit:10;" d="M92.8,217.3h10.5 M98.1,212v10.5"/>
<path style="fill:none;stroke:#EDB120;stroke-width:2;stroke-miterlimit:10;" d="M134.6,221.2h10.5 M139.9,216v10.5"/>
<path style="fill:none;stroke:#EDB120;stroke-width:2;stroke-miterlimit:10;" d="M176.4,217.3h10.5 M181.7,212v10.5"/>
<path style="fill:none;stroke:#EDB120;stroke-width:2;stroke-miterlimit:10;" d="M218.3,221.2h10.5 M223.5,216v10.5"/>
<path style="fill:none;stroke:#EDB120;stroke-width:2;stroke-miterlimit:10;" d="M260.1,41.7h10.5 M265.3,36.4v10.5"/>
<path style="fill:none;stroke:#EDB120;stroke-width:2;stroke-miterlimit:10;" d="M301.9,221.2h10.5 M307.1,216v10.5"/>
<path style="fill:none;stroke:#EDB120;stroke-width:2;stroke-miterlimit:10;" d="M343.7,42.5h10.5 M348.9,37.2v10.5"/>
<path style="fill:none;stroke:#EDB120;stroke-width:2;stroke-miterlimit:10;" d="M385.5,115.7H396 M390.8,110.4v10.5"/>
<rect x="405" y="94.5" style="fill:#FFFFFF;" width="153.8" height="52.5"/>
<text transform="matrix(1 0 0 1 440.25 105.75)" style="font-family:'ArialMT'; font-size:9px;">BaSnF</text>
<text transform="matrix(1 0 0 1 468 110.25)" style="font-family:'ArialMT'; font-size:7.2px;">4</text>
<text transform="matrix(1 0 0 1 472.5 105.75)" style="font-family:'ArialMT'; font-size:9px;"> </text>
<text transform="matrix(1 0 0 1 475.5 105.75)" style="font-family:'ArialMT'; font-size:9px;">1</text>
<text transform="matrix(1 0 0 1 480.75 105.75)" style="font-family:'ArialMT'; font-size:9px;"> vacancy  </text>
<text transform="matrix(1 0 0 1 522 105.75)" style="font-family:'ArialMT'; font-size:9px;">1500</text>
<text transform="matrix(1 0 0 1 542.25 105.75)" style="font-family:'ArialMT'; font-size:9px;">K</text>
<path style="fill:none;stroke:#0072BD;stroke-width:2;stroke-miterlimit:10;" d="M419.8,107.3l6.4-6.4 M419.8,100.9l6.4,6.4
	 M418.5,104.1h9 M423,99.6v9"/>
<text transform="matrix(1 0 0 1 440.25 122.25)" style="font-family:'ArialMT'; font-size:9px;">BaSnF</text>
<text transform="matrix(1 0 0 1 468 126.75)" style="font-family:'ArialMT'; font-size:7.2px;">4</text>
<text transform="matrix(1 0 0 1 472.5 122.25)" style="font-family:'ArialMT'; font-size:9px;"> </text>
<text transform="matrix(1 0 0 1 475.5 122.25)" style="font-family:'ArialMT'; font-size:9px;">2</text>
<text transform="matrix(1 0 0 1 480.75 122.25)" style="font-family:'ArialMT'; font-size:9px;"> vacancies  </text>
<text transform="matrix(1 0 0 1 528.75 122.25)" style="font-family:'ArialMT'; font-size:9px;">1500</text>
<text transform="matrix(1 0 0 1 549 122.25)" style="font-family:'ArialMT'; font-size:9px;">K</text>
<path style="fill:none;stroke:#D95319;stroke-width:2;stroke-miterlimit:10;" d="M418.5,120.8h9 M423,116.3v9"/>
<text transform="matrix(1 0 0 1 440.25 138.75)" style="font-family:'ArialMT'; font-size:9px;">BaSnF</text>
<text transform="matrix(1 0 0 1 468 143.25)" style="font-family:'ArialMT'; font-size:7.2px;">4</text>
<text transform="matrix(1 0 0 1 472.5 138.75)" style="font-family:'ArialMT'; font-size:9px;">  </text>
<text transform="matrix(1 0 0 1 477.75 138.75)" style="font-family:'ArialMT'; font-size:9px;">1500</text>
<text transform="matrix(1 0 0 1 498 138.75)" style="font-family:'ArialMT'; font-size:9px;">K</text>
<path style="fill:none;stroke:#EDB120;stroke-width:2;stroke-miterlimit:10;" d="M418.5,137.4h9 M423,132.9v9"/>
<rect x="405" y="94.5" style="fill:none;stroke:#262626;stroke-width:0.5;stroke-miterlimit:10;" width="153.8" height="52.5"/>
</svg>
