<?xml version="1.0" encoding="utf-8"?>
<!-- Generator: Adobe Illustrator 23.0.1, SVG Export Plug-In . SVG Version: 6.00 Build 0)  -->
<svg version="1.1" id="Layer_1" xmlns="http://www.w3.org/2000/svg" xmlns:xlink="http://www.w3.org/1999/xlink" x="0px" y="0px"
	 viewBox="0 0 600 263" style="enable-background:new 0 0 600 263;" xml:space="preserve">
<g>
	<defs>
		<rect id="SVGID_1_" width="600" height="262.5"/>
	</defs>
	<clipPath id="SVGID_2_">
		<use xlink:href="#SVGID_1_"  style="overflow:visible;"/>
	</clipPath>
	<rect style="clip-path:url(#SVGID_2_);fill:#FFFFFF;" width="600" height="262.5"/>
</g>
<rect style="fill:#FFFFFF;" width="600" height="262.5"/>
<rect x="56.3" y="19.5" style="fill:#FFFFFF;" width="334.5" height="202.5"/>
<line style="opacity:0.149;fill:none;stroke:#262626;stroke-width:0.5;stroke-linejoin:round;stroke-miterlimit:10;" x1="56.3" y1="222" x2="56.3" y2="19.5"/>
<line style="opacity:0.149;fill:none;stroke:#262626;stroke-width:0.5;stroke-linejoin:round;stroke-miterlimit:10;" x1="98.1" y1="222" x2="98.1" y2="19.5"/>
<line style="opacity:0.149;fill:none;stroke:#262626;stroke-width:0.5;stroke-linejoin:round;stroke-miterlimit:10;" x1="139.9" y1="222" x2="139.9" y2="19.5"/>
<line style="opacity:0.149;fill:none;stroke:#262626;stroke-width:0.5;stroke-linejoin:round;stroke-miterlimit:10;" x1="181.7" y1="222" x2="181.7" y2="19.5"/>
<line style="opacity:0.149;fill:none;stroke:#262626;stroke-width:0.5;stroke-linejoin:round;stroke-miterlimit:10;" x1="223.5" y1="222" x2="223.5" y2="19.5"/>
<line style="opacity:0.149;fill:none;stroke:#262626;stroke-width:0.5;stroke-linejoin:round;stroke-miterlimit:10;" x1="265.3" y1="222" x2="265.3" y2="19.5"/>
<line style="opacity:0.149;fill:none;stroke:#262626;stroke-width:0.5;stroke-linejoin:round;stroke-miterlimit:10;" x1="307.1" y1="222" x2="307.1" y2="19.5"/>
<line style="opacity:0.149;fill:none;stroke:#262626;stroke-width:0.5;stroke-linejoin:round;stroke-miterlimit:10;" x1="348.9" y1="222" x2="348.9" y2="19.5"/>
<line style="opacity:0.149;fill:none;stroke:#262626;stroke-width:0.5;stroke-linejoin:round;stroke-miterlimit:10;" x1="390.8" y1="222" x2="390.8" y2="19.5"/>
<line style="opacity:0.149;fill:none;stroke:#262626;stroke-width:0.5;stroke-linejoin:round;stroke-miterlimit:10;" x1="390.8" y1="222" x2="56.3" y2="222"/>
<line style="opacity:0.149;fill:none;stroke:#262626;stroke-width:0.5;stroke-linejoin:round;stroke-miterlimit:10;" x1="390.8" y1="196.7" x2="56.3" y2="196.7"/>
<line style="opacity:0.149;fill:none;stroke:#262626;stroke-width:0.5;stroke-linejoin:round;stroke-miterlimit:10;" x1="390.8" y1="171.4" x2="56.3" y2="171.4"/>
<line style="opacity:0.149;fill:none;stroke:#262626;stroke-width:0.5;stroke-linejoin:round;stroke-miterlimit:10;" x1="390.8" y1="146.1" x2="56.3" y2="146.1"/>
<line style="opacity:0.149;fill:none;stroke:#262626;stroke-width:0.5;stroke-linejoin:round;stroke-miterlimit:10;" x1="390.8" y1="120.8" x2="56.3" y2="120.8"/>
<line style="opacity:0.149;fill:none;stroke:#262626;stroke-width:0.5;stroke-linejoin:round;stroke-miterlimit:10;" x1="390.8" y1="95.4" x2="56.3" y2="95.4"/>
<line style="opacity:0.149;fill:none;stroke:#262626;stroke-width:0.5;stroke-linejoin:round;stroke-miterlimit:10;" x1="390.8" y1="70.1" x2="56.3" y2="70.1"/>
<line style="opacity:0.149;fill:none;stroke:#262626;stroke-width:0.5;stroke-linejoin:round;stroke-miterlimit:10;" x1="390.8" y1="44.8" x2="56.3" y2="44.8"/>
<line style="opacity:0.149;fill:none;stroke:#262626;stroke-width:0.5;stroke-linejoin:round;stroke-miterlimit:10;" x1="390.8" y1="19.5" x2="56.3" y2="19.5"/>
<line style="fill:none;stroke:#262626;stroke-width:0.5;stroke-linecap:square;stroke-linejoin:round;stroke-miterlimit:10;" x1="56.3" y1="222" x2="390.8" y2="222"/>
<line style="fill:none;stroke:#262626;stroke-width:0.5;stroke-linecap:square;stroke-linejoin:round;stroke-miterlimit:10;" x1="56.3" y1="19.5" x2="390.8" y2="19.5"/>
<line style="fill:none;stroke:#262626;stroke-width:0.5;stroke-linecap:square;stroke-linejoin:round;stroke-miterlimit:10;" x1="56.3" y1="222" x2="56.3" y2="218.7"/>
<line style="fill:none;stroke:#262626;stroke-width:0.5;stroke-linecap:square;stroke-linejoin:round;stroke-miterlimit:10;" x1="98.1" y1="222" x2="98.1" y2="218.7"/>
<line style="fill:none;stroke:#262626;stroke-width:0.5;stroke-linecap:square;stroke-linejoin:round;stroke-miterlimit:10;" x1="139.9" y1="222" x2="139.9" y2="218.7"/>
<line style="fill:none;stroke:#262626;stroke-width:0.5;stroke-linecap:square;stroke-linejoin:round;stroke-miterlimit:10;" x1="181.7" y1="222" x2="181.7" y2="218.7"/>
<line style="fill:none;stroke:#262626;stroke-width:0.5;stroke-linecap:square;stroke-linejoin:round;stroke-miterlimit:10;" x1="223.5" y1="222" x2="223.5" y2="218.7"/>
<line style="fill:none;stroke:#262626;stroke-width:0.5;stroke-linecap:square;stroke-linejoin:round;stroke-miterlimit:10;" x1="265.3" y1="222" x2="265.3" y2="218.7"/>
<line style="fill:none;stroke:#262626;stroke-width:0.5;stroke-linecap:square;stroke-linejoin:round;stroke-miterlimit:10;" x1="307.1" y1="222" x2="307.1" y2="218.7"/>
<line style="fill:none;stroke:#262626;stroke-width:0.5;stroke-linecap:square;stroke-linejoin:round;stroke-miterlimit:10;" x1="348.9" y1="222" x2="348.9" y2="218.7"/>
<line style="fill:none;stroke:#262626;stroke-width:0.5;stroke-linecap:square;stroke-linejoin:round;stroke-miterlimit:10;" x1="390.8" y1="222" x2="390.8" y2="218.7"/>
<line style="fill:none;stroke:#262626;stroke-width:0.5;stroke-linecap:square;stroke-linejoin:round;stroke-miterlimit:10;" x1="56.3" y1="19.5" x2="56.3" y2="22.8"/>
<line style="fill:none;stroke:#262626;stroke-width:0.5;stroke-linecap:square;stroke-linejoin:round;stroke-miterlimit:10;" x1="98.1" y1="19.5" x2="98.1" y2="22.8"/>
<line style="fill:none;stroke:#262626;stroke-width:0.5;stroke-linecap:square;stroke-linejoin:round;stroke-miterlimit:10;" x1="139.9" y1="19.5" x2="139.9" y2="22.8"/>
<line style="fill:none;stroke:#262626;stroke-width:0.5;stroke-linecap:square;stroke-linejoin:round;stroke-miterlimit:10;" x1="181.7" y1="19.5" x2="181.7" y2="22.8"/>
<line style="fill:none;stroke:#262626;stroke-width:0.5;stroke-linecap:square;stroke-linejoin:round;stroke-miterlimit:10;" x1="223.5" y1="19.5" x2="223.5" y2="22.8"/>
<line style="fill:none;stroke:#262626;stroke-width:0.5;stroke-linecap:square;stroke-linejoin:round;stroke-miterlimit:10;" x1="265.3" y1="19.5" x2="265.3" y2="22.8"/>
<line style="fill:none;stroke:#262626;stroke-width:0.5;stroke-linecap:square;stroke-linejoin:round;stroke-miterlimit:10;" x1="307.1" y1="19.5" x2="307.1" y2="22.8"/>
<line style="fill:none;stroke:#262626;stroke-width:0.5;stroke-linecap:square;stroke-linejoin:round;stroke-miterlimit:10;" x1="348.9" y1="19.5" x2="348.9" y2="22.8"/>
<line style="fill:none;stroke:#262626;stroke-width:0.5;stroke-linecap:square;stroke-linejoin:round;stroke-miterlimit:10;" x1="390.8" y1="19.5" x2="390.8" y2="22.8"/>
<text transform="matrix(-4.333333e-08 -1 1 -4.333333e-08 60.3749 262.7497)" style="fill:#262626; font-family:'ArialMT'; font-size:9.9998px;">2b to 2b</text>
<text transform="matrix(-4.333333e-08 -1 1 -4.333333e-08 102.1874 261.9997)" style="fill:#262626; font-family:'ArialMT'; font-size:9.9998px;">2b to 2c</text>
<text transform="matrix(-4.333333e-08 -1 1 -4.333333e-08 143.9999 259.7497)" style="fill:#262626; font-family:'ArialMT'; font-size:9.9998px;">2b to 4f</text>
<text transform="matrix(-4.333333e-08 -1 1 -4.333333e-08 185.8124 261.9997)" style="fill:#262626; font-family:'ArialMT'; font-size:9.9998px;">2c to 2b</text>
<text transform="matrix(-4.333333e-08 -1 1 -4.333333e-08 227.6249 261.2496)" style="fill:#262626; font-family:'ArialMT'; font-size:9.9998px;">2c to 2c</text>
<text transform="matrix(-4.333333e-08 -1 1 -4.333333e-08 269.4374 258.9996)" style="fill:#262626; font-family:'ArialMT'; font-size:9.9998px;">2c to 4f</text>
<text transform="matrix(-4.333333e-08 -1 1 -4.333333e-08 311.2504 259.7496)" style="fill:#262626; font-family:'ArialMT'; font-size:9.9998px;">4f to 2b</text>
<text transform="matrix(-4.333333e-08 -1 1 -4.333333e-08 353.0629 258.9996)" style="fill:#262626; font-family:'ArialMT'; font-size:9.9998px;">4f to 2c</text>
<text transform="matrix(-4.333333e-08 -1 1 -4.333333e-08 394.8754 256.7496)" style="fill:#262626; font-family:'ArialMT'; font-size:9.9998px;">4f to 4f</text>
<line style="fill:none;stroke:#262626;stroke-width:0.5;stroke-linecap:square;stroke-linejoin:round;stroke-miterlimit:10;" x1="56.3" y1="222" x2="56.3" y2="19.5"/>
<line style="fill:none;stroke:#262626;stroke-width:0.5;stroke-linecap:square;stroke-linejoin:round;stroke-miterlimit:10;" x1="390.8" y1="222" x2="390.8" y2="19.5"/>
<line style="fill:none;stroke:#262626;stroke-width:0.5;stroke-linecap:square;stroke-linejoin:round;stroke-miterlimit:10;" x1="56.3" y1="222" x2="59.6" y2="222"/>
<line style="fill:none;stroke:#262626;stroke-width:0.5;stroke-linecap:square;stroke-linejoin:round;stroke-miterlimit:10;" x1="56.3" y1="196.7" x2="59.6" y2="196.7"/>
<line style="fill:none;stroke:#262626;stroke-width:0.5;stroke-linecap:square;stroke-linejoin:round;stroke-miterlimit:10;" x1="56.3" y1="171.4" x2="59.6" y2="171.4"/>
<line style="fill:none;stroke:#262626;stroke-width:0.5;stroke-linecap:square;stroke-linejoin:round;stroke-miterlimit:10;" x1="56.3" y1="146.1" x2="59.6" y2="146.1"/>
<line style="fill:none;stroke:#262626;stroke-width:0.5;stroke-linecap:square;stroke-linejoin:round;stroke-miterlimit:10;" x1="56.3" y1="120.8" x2="59.6" y2="120.8"/>
<line style="fill:none;stroke:#262626;stroke-width:0.5;stroke-linecap:square;stroke-linejoin:round;stroke-miterlimit:10;" x1="56.3" y1="95.4" x2="59.6" y2="95.4"/>
<line style="fill:none;stroke:#262626;stroke-width:0.5;stroke-linecap:square;stroke-linejoin:round;stroke-miterlimit:10;" x1="56.3" y1="70.1" x2="59.6" y2="70.1"/>
<line style="fill:none;stroke:#262626;stroke-width:0.5;stroke-linecap:square;stroke-linejoin:round;stroke-miterlimit:10;" x1="56.3" y1="44.8" x2="59.6" y2="44.8"/>
<line style="fill:none;stroke:#262626;stroke-width:0.5;stroke-linecap:square;stroke-linejoin:round;stroke-miterlimit:10;" x1="56.3" y1="19.5" x2="59.6" y2="19.5"/>
<line style="fill:none;stroke:#262626;stroke-width:0.5;stroke-linecap:square;stroke-linejoin:round;stroke-miterlimit:10;" x1="390.8" y1="222" x2="387.4" y2="222"/>
<line style="fill:none;stroke:#262626;stroke-width:0.5;stroke-linecap:square;stroke-linejoin:round;stroke-miterlimit:10;" x1="390.8" y1="196.7" x2="387.4" y2="196.7"/>
<line style="fill:none;stroke:#262626;stroke-width:0.5;stroke-linecap:square;stroke-linejoin:round;stroke-miterlimit:10;" x1="390.8" y1="171.4" x2="387.4" y2="171.4"/>
<line style="fill:none;stroke:#262626;stroke-width:0.5;stroke-linecap:square;stroke-linejoin:round;stroke-miterlimit:10;" x1="390.8" y1="146.1" x2="387.4" y2="146.1"/>
<line style="fill:none;stroke:#262626;stroke-width:0.5;stroke-linecap:square;stroke-linejoin:round;stroke-miterlimit:10;" x1="390.8" y1="120.8" x2="387.4" y2="120.8"/>
<line style="fill:none;stroke:#262626;stroke-width:0.5;stroke-linecap:square;stroke-linejoin:round;stroke-miterlimit:10;" x1="390.8" y1="95.4" x2="387.4" y2="95.4"/>
<line style="fill:none;stroke:#262626;stroke-width:0.5;stroke-linecap:square;stroke-linejoin:round;stroke-miterlimit:10;" x1="390.8" y1="70.1" x2="387.4" y2="70.1"/>
<line style="fill:none;stroke:#262626;stroke-width:0.5;stroke-linecap:square;stroke-linejoin:round;stroke-miterlimit:10;" x1="390.8" y1="44.8" x2="387.4" y2="44.8"/>
<line style="fill:none;stroke:#262626;stroke-width:0.5;stroke-linecap:square;stroke-linejoin:round;stroke-miterlimit:10;" x1="390.8" y1="19.5" x2="387.4" y2="19.5"/>
<text transform="matrix(1 0 0 1 35 226.125)" style="fill:#262626; font-family:'ArialMT'; font-size:9.9998px;">-0.4</text>
<text transform="matrix(1 0 0 1 35 200.8125)" style="fill:#262626; font-family:'ArialMT'; font-size:9.9998px;">-0.2</text>
<text transform="matrix(1 0 0 1 46.25 175.5)" style="fill:#262626; font-family:'ArialMT'; font-size:9.9998px;">0</text>
<text transform="matrix(1 0 0 1 38 150.1875)" style="fill:#262626; font-family:'ArialMT'; font-size:9.9998px;">0.2</text>
<text transform="matrix(1 0 0 1 38 124.875)" style="fill:#262626; font-family:'ArialMT'; font-size:9.9998px;">0.4</text>
<text transform="matrix(1 0 0 1 38 99.5625)" style="fill:#262626; font-family:'ArialMT'; font-size:9.9998px;">0.6</text>
<text transform="matrix(1 0 0 1 38 74.25)" style="fill:#262626; font-family:'ArialMT'; font-size:9.9998px;">0.8</text>
<text transform="matrix(1 0 0 1 46.25 48.9375)" style="fill:#262626; font-family:'ArialMT'; font-size:9.9998px;">1</text>
<text transform="matrix(1 0 0 1 38 23.625)" style="fill:#262626; font-family:'ArialMT'; font-size:9.9998px;">1.2</text>
<text transform="matrix(-4.333333e-08 -1 1 -4.333333e-08 28.9999 175.1247)" style="fill:#262626; font-family:'ArialMT'; font-size:11.0002px;">Activation energy (eV)</text>
<path style="fill:none;stroke:#0072BD;stroke-width:2;stroke-miterlimit:10;" d="M94.5,36l7.1-7.1 M94.5,28.9l7.1,7.1 M92.8,32.5
	h10.5 M98.1,27.2v10.5"/>
<path style="fill:none;stroke:#0072BD;stroke-width:2;stroke-miterlimit:10;" d="M136.3,73.7l7.1-7.1 M136.3,66.6l7.1,7.1
	 M134.6,70.1h10.5 M139.9,64.9v10.5"/>
<path style="fill:none;stroke:#0072BD;stroke-width:2;stroke-miterlimit:10;" d="M178.2,154.1l7.1-7.1 M178.2,147l7.1,7.1
	 M176.4,150.6h10.5 M181.7,145.3v10.5"/>
<path style="fill:none;stroke:#0072BD;stroke-width:2;stroke-miterlimit:10;" d="M261.8,202.3l7.1-7.1 M261.8,195.2l7.1,7.1
	 M260.1,198.7h10.5 M265.3,193.5V204"/>
<path style="fill:none;stroke:#0072BD;stroke-width:2;stroke-miterlimit:10;" d="M303.6,71.5l7.1-7.1 M303.6,64.4l7.1,7.1 M301.9,68
	h10.5 M307.1,62.7v10.5"/>
<path style="fill:none;stroke:#0072BD;stroke-width:2;stroke-miterlimit:10;" d="M345.4,82l7.1-7.1 M345.4,74.9l7.1,7.1 M343.7,78.5
	h10.5 M348.9,73.2v10.5"/>
<path style="fill:none;stroke:#0072BD;stroke-width:2;stroke-miterlimit:10;" d="M387.2,133.1l7.1-7.1 M387.2,126.1l7.1,7.1
	 M385.5,129.6H396 M390.8,124.3v10.5"/>
<path style="fill:none;stroke:#D95319;stroke-width:2;stroke-miterlimit:10;" d="M51,32.2h10.5 M56.3,27v10.5"/>
<path style="fill:none;stroke:#D95319;stroke-width:2;stroke-miterlimit:10;" d="M134.6,76.5h10.5 M139.9,71.3v10.5"/>
<path style="fill:none;stroke:#D95319;stroke-width:2;stroke-miterlimit:10;" d="M260.1,200.9h10.5 M265.3,195.6v10.5"/>
<path style="fill:none;stroke:#D95319;stroke-width:2;stroke-miterlimit:10;" d="M301.9,73.7h10.5 M307.1,68.5V79"/>
<path style="fill:none;stroke:#D95319;stroke-width:2;stroke-miterlimit:10;" d="M343.7,67.1h10.5 M348.9,61.9v10.5"/>
<path style="fill:none;stroke:#D95319;stroke-width:2;stroke-miterlimit:10;" d="M385.5,126.5H396 M390.8,121.3v10.5"/>
<path style="fill:none;stroke:#EDB120;stroke-width:2;stroke-miterlimit:10;" d="M92.8,85.1h10.5 M98.1,79.9v10.5"/>
<path style="fill:none;stroke:#EDB120;stroke-width:2;stroke-miterlimit:10;" d="M134.6,55.8h10.5 M139.9,50.5V61"/>
<path style="fill:none;stroke:#EDB120;stroke-width:2;stroke-miterlimit:10;" d="M176.4,90.9h10.5 M181.7,85.6v10.5"/>
<path style="fill:none;stroke:#EDB120;stroke-width:2;stroke-miterlimit:10;" d="M218.3,50.2h10.5 M223.5,45v10.5"/>
<path style="fill:none;stroke:#EDB120;stroke-width:2;stroke-miterlimit:10;" d="M260.1,150.5h10.5 M265.3,145.2v10.5"/>
<path style="fill:none;stroke:#EDB120;stroke-width:2;stroke-miterlimit:10;" d="M301.9,52.4h10.5 M307.1,47.2v10.5"/>
<path style="fill:none;stroke:#EDB120;stroke-width:2;stroke-miterlimit:10;" d="M343.7,141.2h10.5 M348.9,136v10.5"/>
<path style="fill:none;stroke:#EDB120;stroke-width:2;stroke-miterlimit:10;" d="M385.5,121.3H396 M390.8,116.1v10.5"/>
<rect x="405" y="93.8" style="fill:#FFFFFF;" width="153.8" height="53.3"/>
<text transform="matrix(1 0 0 1 440.25 105)" style="font-family:'ArialMT'; font-size:9px;">BaSnF</text>
<text transform="matrix(1 0 0 1 468 109.5)" style="font-family:'ArialMT'; font-size:7.2px;">4</text>
<text transform="matrix(1 0 0 1 472.5 105)" style="font-family:'ArialMT'; font-size:9px;"> </text>
<text transform="matrix(1 0 0 1 475.5 105)" style="font-family:'ArialMT'; font-size:9px;">1</text>
<text transform="matrix(1 0 0 1 480.75 105)" style="font-family:'ArialMT'; font-size:9px;"> vacancy  </text>
<text transform="matrix(1 0 0 1 522 105)" style="font-family:'ArialMT'; font-size:9px;">1500</text>
<text transform="matrix(1 0 0 1 542.25 105)" style="font-family:'ArialMT'; font-size:9px;">K</text>
<path style="fill:none;stroke:#0072BD;stroke-width:2;stroke-miterlimit:10;" d="M419.8,106.7l6.4-6.4 M419.8,100.3l6.4,6.4
	 M418.5,103.5h9 M423,99v9"/>
<text transform="matrix(1 0 0 1 440.25 122.25)" style="font-family:'ArialMT'; font-size:9px;">BaSnF</text>
<text transform="matrix(1 0 0 1 468 126.75)" style="font-family:'ArialMT'; font-size:7.2px;">4</text>
<text transform="matrix(1 0 0 1 472.5 122.25)" style="font-family:'ArialMT'; font-size:9px;"> </text>
<text transform="matrix(1 0 0 1 475.5 122.25)" style="font-family:'ArialMT'; font-size:9px;">2</text>
<text transform="matrix(1 0 0 1 480.75 122.25)" style="font-family:'ArialMT'; font-size:9px;"> vacancies  </text>
<text transform="matrix(1 0 0 1 528.75 122.25)" style="font-family:'ArialMT'; font-size:9px;">1500</text>
<text transform="matrix(1 0 0 1 549 122.25)" style="font-family:'ArialMT'; font-size:9px;">K</text>
<path style="fill:none;stroke:#D95319;stroke-width:2;stroke-miterlimit:10;" d="M418.5,120.4h9 M423,115.9v9"/>
<text transform="matrix(1 0 0 1 440.25 138.75)" style="font-family:'ArialMT'; font-size:9px;">BaSnF</text>
<text transform="matrix(1 0 0 1 468 143.25)" style="font-family:'ArialMT'; font-size:7.2px;">4</text>
<text transform="matrix(1 0 0 1 472.5 138.75)" style="font-family:'ArialMT'; font-size:9px;">  </text>
<text transform="matrix(1 0 0 1 477.75 138.75)" style="font-family:'ArialMT'; font-size:9px;">1500</text>
<text transform="matrix(1 0 0 1 498 138.75)" style="font-family:'ArialMT'; font-size:9px;">K</text>
<path style="fill:none;stroke:#EDB120;stroke-width:2;stroke-miterlimit:10;" d="M418.5,137.3h9 M423,132.8v9"/>
<rect x="405" y="93.8" style="fill:none;stroke:#262626;stroke-width:0.5;stroke-miterlimit:10;" width="153.8" height="53.3"/>
</svg>
