<?xml version="1.0" encoding="utf-8"?>
<!-- Generator: Adobe Illustrator 23.0.1, SVG Export Plug-In . SVG Version: 6.00 Build 0)  -->
<svg version="1.1" id="Layer_1" xmlns="http://www.w3.org/2000/svg" xmlns:xlink="http://www.w3.org/1999/xlink" x="0px" y="0px"
	 viewBox="0 0 270 307" style="enable-background:new 0 0 270 307;" xml:space="preserve">
<rect x="-50" y="-8" style="fill:#FFFFFF;" width="420" height="315"/>
<rect x="-50" y="-8" style="fill:#FFFFFF;" width="420" height="315"/>
<polyline style="fill:#FFFFFF;" points="98.1,272.5 266.6,267.3 266.6,44.5 236.9,15.3 68.4,20.4 68.4,243.3 "/>
<text transform="matrix(1 0 0 1 55.624 240.6641)" style="fill:#262626; font-family:'ArialMT'; font-size:9.9998px;">0</text>
<line style="fill:none;stroke:#FF0000;stroke-width:2.7915;stroke-linejoin:round;stroke-miterlimit:10;" x1="177.4" y1="195.4" x2="194.8" y2="191.1"/>
<text transform="matrix(1 0 0 1 55.624 202.7363)" style="fill:#262626; font-family:'ArialMT'; font-size:9.9998px;">2</text>
<line style="fill:none;stroke:#000000;stroke-width:0.5002;stroke-linejoin:round;stroke-miterlimit:10;" x1="236.9" y1="238.1" x2="236.9" y2="15.3"/>
<line style="fill:none;stroke:#000000;stroke-width:0.5002;stroke-linejoin:round;stroke-miterlimit:10;" x1="68.4" y1="243.3" x2="236.9" y2="238.1"/>
<line style="fill:none;stroke:#000000;stroke-width:0.5002;stroke-linejoin:round;stroke-miterlimit:10;" x1="236.9" y1="238.1" x2="236.9" y2="15.3"/>
<line style="fill:none;stroke:#000000;stroke-width:0.5002;stroke-linejoin:round;stroke-miterlimit:10;" x1="266.6" y1="267.3" x2="236.9" y2="238.1"/>
<line style="fill:none;stroke:#FF0000;stroke-width:3.4852;stroke-linejoin:round;stroke-miterlimit:10;" x1="177.4" y1="195.4" x2="173.7" y2="180.9"/>
<text transform="matrix(1 0 0 1 55.624 164.8086)" style="fill:#262626; font-family:'ArialMT'; font-size:9.9998px;">4</text>
<line style="fill:none;stroke:#FF0000;stroke-width:2.3865;stroke-linejoin:round;stroke-miterlimit:10;" x1="93.2" y1="198" x2="110.6" y2="193.7"/>
<line style="fill:none;stroke:#FF0000;stroke-width:2.3865;stroke-linejoin:round;stroke-miterlimit:10;" x1="177.4" y1="195.4" x2="152.6" y2="192.4"/>
<line style="fill:none;stroke:#262626;stroke-width:0.5002;stroke-linejoin:round;stroke-miterlimit:10;" x1="68.4" y1="243.3" x2="64.5" y2="239.3"/>
<text transform="matrix(1 0 0 1 55.624 126.8809)" style="fill:#262626; font-family:'ArialMT'; font-size:9.9998px;">6</text>
<line style="fill:none;stroke:#FF0000;stroke-width:2.3865;stroke-linejoin:round;stroke-miterlimit:10;" x1="68.4" y1="195" x2="68.5" y2="195"/>
<line style="fill:none;stroke:#FF0000;stroke-width:3.3982;stroke-linejoin:round;stroke-miterlimit:10;" x1="219.5" y1="89.4" x2="215.8" y2="75"/>
<line style="fill:none;stroke:#FF0000;stroke-width:2.3865;stroke-linejoin:round;stroke-miterlimit:10;" x1="177.4" y1="69.1" x2="194.8" y2="64.8"/>
<line style="fill:none;stroke:#262626;stroke-width:0.5002;stroke-linecap:round;stroke-linejoin:round;stroke-miterlimit:10;" x1="68.4" y1="205.3" x2="64.5" y2="201.4"/>
<line style="fill:none;stroke:#FF0000;stroke-width:3.708;stroke-linejoin:round;stroke-miterlimit:10;" x1="93.2" y1="198" x2="89.5" y2="183.5"/>
<text transform="matrix(1 0 0 1 55.624 88.9531)" style="fill:#262626; font-family:'ArialMT'; font-size:9.9998px;">8</text>
<line style="fill:none;stroke:#262626;stroke-width:0.5002;stroke-linecap:round;stroke-linejoin:round;stroke-miterlimit:10;" x1="68.4" y1="167.4" x2="64.5" y2="163.5"/>
<text transform="matrix(1 0 0 1 50.374 51.0249)" style="fill:#262626; font-family:'ArialMT'; font-size:9.9998px;">10</text>
<line style="fill:none;stroke:#FF0000;stroke-width:2.6093;stroke-linejoin:round;stroke-miterlimit:10;" x1="226.9" y1="201.4" x2="244.3" y2="197.1"/>
<line style="fill:none;stroke:#262626;stroke-width:0.5002;stroke-linecap:round;stroke-linejoin:round;stroke-miterlimit:10;" x1="68.4" y1="129.5" x2="64.5" y2="125.6"/>
<line style="fill:none;stroke:#FF0000;stroke-width:2.7915;stroke-linejoin:round;stroke-miterlimit:10;" x1="93.2" y1="71.7" x2="110.6" y2="67.4"/>
<line style="fill:none;stroke:#FF0000;stroke-width:4.401;stroke-linejoin:round;stroke-miterlimit:10;" x1="135.3" y1="92" x2="131.6" y2="77.5"/>
<line style="fill:none;stroke:#FF0000;stroke-width:2.946;stroke-linejoin:round;stroke-miterlimit:10;" x1="177.4" y1="69.1" x2="152.6" y2="66.1"/>
<line style="fill:none;stroke:#FF0000;stroke-width:1.6935;stroke-linejoin:round;stroke-miterlimit:10;" x1="93.2" y1="246.3" x2="93.2" y2="198"/>
<line style="fill:none;stroke:#262626;stroke-width:0.5002;stroke-linejoin:round;stroke-miterlimit:10;" x1="98.1" y1="272.5" x2="68.4" y2="243.3"/>
<line style="fill:none;stroke:#000000;stroke-width:0.5002;stroke-linejoin:round;stroke-miterlimit:10;" x1="68.4" y1="243.3" x2="68.4" y2="20.4"/>
<line style="fill:none;stroke:#262626;stroke-width:0.5002;stroke-linejoin:round;stroke-miterlimit:10;" x1="68.4" y1="243.3" x2="68.4" y2="20.4"/>
<line style="fill:none;stroke:#000000;stroke-width:0.5002;stroke-linejoin:round;stroke-miterlimit:10;" x1="98.1" y1="272.5" x2="68.4" y2="243.3"/>
<text transform="matrix(1 0 0 1 180.54 68.688)" style="font-family:'ArialMT'; font-size:9.9998px;">4f</text>
<line style="fill:none;stroke:#FF0000;stroke-width:0.9998;stroke-linejoin:round;stroke-miterlimit:10;" x1="177.4" y1="69.1" x2="194.8" y2="16.5"/>
<line style="fill:none;stroke:#262626;stroke-width:0.5002;stroke-linecap:round;stroke-linejoin:round;stroke-miterlimit:10;" x1="68.4" y1="91.5" x2="64.5" y2="87.6"/>
<line style="fill:none;stroke:#FF0000;stroke-width:2.3865;stroke-linejoin:round;stroke-miterlimit:10;" x1="68.4" y1="68.7" x2="68.5" y2="68.7"/>
<text transform="matrix(1 0 0 1 180.54 194.9541)" style="font-family:'ArialMT'; font-size:9.9998px;">4f</text>
<line style="fill:none;stroke:#000000;stroke-width:0.5002;stroke-linejoin:round;stroke-miterlimit:10;" x1="266.6" y1="44.5" x2="236.9" y2="15.3"/>
<line style="fill:none;stroke:#000000;stroke-width:0.5002;stroke-linejoin:round;stroke-miterlimit:10;" x1="68.4" y1="20.4" x2="236.9" y2="15.3"/>
<line style="fill:none;stroke:#000000;stroke-width:0.5002;stroke-linejoin:round;stroke-miterlimit:10;" x1="266.6" y1="44.5" x2="236.9" y2="15.3"/>
<line style="fill:none;stroke:#000000;stroke-width:0.5002;stroke-linejoin:round;stroke-miterlimit:10;" x1="68.4" y1="20.4" x2="236.9" y2="15.3"/>
<line style="fill:none;stroke:#FF0000;stroke-width:3.0795;stroke-linejoin:round;stroke-miterlimit:10;" x1="177.4" y1="195.4" x2="184.8" y2="181.1"/>
<line style="fill:none;stroke:#FF0000;stroke-width:2.7915;stroke-linejoin:round;stroke-miterlimit:10;" x1="226.9" y1="201.4" x2="177.4" y2="195.4"/>
<path style="fill:#0000FF;" d="M183.5,195.4c0-3.4-2.7-6.1-6.1-6.1c-3.4,0-6.1,2.7-6.1,6.1c0,3.4,2.7,6.1,6.1,6.1
	C180.8,201.5,183.5,198.8,183.5,195.4"/>
<line style="fill:none;stroke:#FF0000;stroke-width:2.0985;stroke-linejoin:round;stroke-miterlimit:10;" x1="142.7" y1="204" x2="177.4" y2="195.4"/>
<text transform="matrix(1 0 0 1 96.3315 197.5322)" style="font-family:'ArialMT'; font-size:9.9998px;">4f</text>
<line style="fill:none;stroke:#FF0000;stroke-width:0.9998;stroke-linejoin:round;stroke-miterlimit:10;" x1="93.2" y1="198" x2="177.4" y2="195.4"/>
<line style="fill:none;stroke:#262626;stroke-width:0.5002;stroke-linejoin:round;stroke-miterlimit:10;" x1="68.4" y1="53.6" x2="64.5" y2="49.7"/>
<text transform="matrix(1 0 0 1 180.54 131.8208)" style="font-family:'ArialMT'; font-size:9.9998px;">2b</text>
<text transform="matrix(1 0 0 1 222.6445 88.9927)" style="font-family:'ArialMT'; font-size:9.9998px;">2c</text>
<line style="fill:none;stroke:#FF0000;stroke-width:3.9443;stroke-linejoin:round;stroke-miterlimit:10;" x1="219.5" y1="89.4" x2="240.6" y2="78"/>
<line style="fill:none;stroke:#FF0000;stroke-width:2.3865;stroke-linejoin:round;stroke-miterlimit:10;" x1="226.9" y1="75.2" x2="244.3" y2="70.8"/>
<text transform="matrix(0 -1 1 0 41.6224 164.0801)" style="fill:#262626; font-family:'ArialMT'; font-size:11.0002px;">Z (Angstrom)</text>
<path style="fill:#0000FF;" d="M183.5,132.3c0-3.4-2.7-6.1-6.1-6.1c-3.4,0-6.1,2.7-6.1,6.1c0,3.4,2.7,6.1,6.1,6.1
	C180.8,138.4,183.5,135.6,183.5,132.3"/>
<line style="fill:none;stroke:#FF0000;stroke-width:2.7915;stroke-linejoin:round;stroke-miterlimit:10;" x1="226.9" y1="75.2" x2="219.5" y2="89.4"/>
<line style="fill:none;stroke:#FF0000;stroke-width:4.1782;stroke-linejoin:round;stroke-miterlimit:10;" x1="177.4" y1="69.1" x2="219.5" y2="89.4"/>
<path style="fill:#0000FF;" d="M225.6,89.4c0-3.4-2.7-6.1-6.1-6.1c-3.4,0-6.1,2.7-6.1,6.1c0,3.4,2.7,6.1,6.1,6.1
	C222.9,95.5,225.6,92.8,225.6,89.4"/>
<line style="fill:none;stroke:#FF0000;stroke-width:3.7725;stroke-linejoin:round;stroke-miterlimit:10;" x1="93.2" y1="198" x2="100.6" y2="183.7"/>
<line style="fill:none;stroke:#FF0000;stroke-width:2.6093;stroke-linejoin:round;stroke-miterlimit:10;" x1="75.9" y1="202.3" x2="93.2" y2="198"/>
<path style="fill:#0000FF;" d="M99.3,198c0-3.4-2.7-6.1-6.1-6.1c-3.4,0-6.1,2.7-6.1,6.1c0,3.4,2.7,6.1,6.1,6.1
	C96.6,204.1,99.3,201.3,99.3,198"/>
<line style="fill:none;stroke:#FF0000;stroke-width:3.5647;stroke-linejoin:round;stroke-miterlimit:10;" x1="142.7" y1="204" x2="93.2" y2="198"/>
<line style="fill:none;stroke:#FF0000;stroke-width:1.6935;stroke-linejoin:round;stroke-miterlimit:10;" x1="226.9" y1="249.7" x2="226.9" y2="201.4"/>
<text transform="matrix(1 0 0 1 96.3315 134.3989)" style="font-family:'ArialMT'; font-size:9.9998px;">2b</text>
<text transform="matrix(1 0 0 1 138.4355 91.5708)" style="font-family:'ArialMT'; font-size:9.9998px;">2c</text>
<path style="fill:#0000FF;" d="M183.5,69.1c0-3.4-2.7-6.1-6.1-6.1c-3.4,0-6.1,2.7-6.1,6.1c0,3.4,2.7,6.1,6.1,6.1
	C180.8,75.2,183.5,72.5,183.5,69.1"/>
<line style="fill:none;stroke:#FF0000;stroke-width:2.6093;stroke-linejoin:round;stroke-miterlimit:10;" x1="142.7" y1="77.7" x2="177.4" y2="69.1"/>
<line style="fill:none;stroke:#FF0000;stroke-width:2.3865;stroke-linejoin:round;stroke-miterlimit:10;" x1="177.4" y1="69.1" x2="226.9" y2="75.2"/>
<line style="fill:none;stroke:#FF0000;stroke-width:0.9998;stroke-linejoin:round;stroke-miterlimit:10;" x1="192.3" y1="83.8" x2="177.4" y2="69.1"/>
<path style="fill:#0000FF;" d="M99.3,134.8c0-3.4-2.7-6.1-6.1-6.1c-3.4,0-6.1,2.7-6.1,6.1c0,3.4,2.7,6.1,6.1,6.1
	C96.6,140.9,99.3,138.2,99.3,134.8"/>
<line style="fill:none;stroke:#FF0000;stroke-width:3.8902;stroke-linejoin:round;stroke-miterlimit:10;" x1="142.7" y1="77.7" x2="135.3" y2="92"/>
<text transform="matrix(1 0 0 1 96.3315 71.2661)" style="font-family:'ArialMT'; font-size:9.9998px;">4f</text>
<line style="fill:none;stroke:#FF0000;stroke-width:3.0795;stroke-linejoin:round;stroke-miterlimit:10;" x1="93.2" y1="71.7" x2="135.3" y2="92"/>
<path style="fill:#0000FF;" d="M141.4,92c0-3.4-2.7-6.1-6.1-6.1c-3.4,0-6.1,2.7-6.1,6.1c0,3.4,2.7,6.1,6.1,6.1
	C138.7,98.1,141.4,95.4,141.4,92"/>
<line style="fill:none;stroke:#FF0000;stroke-width:1.6935;stroke-linejoin:round;stroke-miterlimit:10;" x1="93.2" y1="71.7" x2="93.2" y2="23.4"/>
<line style="fill:none;stroke:#000000;stroke-width:0.5002;stroke-linejoin:round;stroke-miterlimit:10;" x1="98.1" y1="49.7" x2="68.4" y2="20.4"/>
<text transform="matrix(1 0 0 1 230.0684 200.9756)" style="font-family:'ArialMT'; font-size:9.9998px;">4f</text>
<line style="fill:none;stroke:#FF0000;stroke-width:4.1782;stroke-linejoin:round;stroke-miterlimit:10;" x1="226.9" y1="201.4" x2="248" y2="190"/>
<line style="fill:none;stroke:#FF0000;stroke-width:0.9998;stroke-linejoin:round;stroke-miterlimit:10;" x1="142.7" y1="252.3" x2="142.7" y2="204"/>
<line style="fill:none;stroke:#FF0000;stroke-width:2.946;stroke-linejoin:round;stroke-miterlimit:10;" x1="192.3" y1="210" x2="226.9" y2="201.4"/>
<line style="fill:none;stroke:#FF0000;stroke-width:2.3865;stroke-linejoin:round;stroke-miterlimit:10;" x1="241.8" y1="216" x2="226.9" y2="201.4"/>
<path style="fill:#0000FF;" d="M233,201.4c0-3.4-2.7-6.1-6.1-6.1c-3.4,0-6.1,2.7-6.1,6.1c0,3.4,2.7,6.1,6.1,6.1
	C230.3,207.5,233,204.8,233,201.4"/>
<text transform="matrix(1 0 0 1 187.9639 180.6709)" style="font-family:'ArialMT'; font-size:9.9998px;">2c</text>
<line style="fill:none;stroke:#FF0000;stroke-width:3.639;stroke-linejoin:round;stroke-miterlimit:10;" x1="226.9" y1="201.4" x2="184.8" y2="181.1"/>
<line style="fill:none;stroke:#FF0000;stroke-width:2.3865;stroke-linejoin:round;stroke-miterlimit:10;" x1="226.9" y1="201.4" x2="251.7" y2="204.4"/>
<line style="fill:none;stroke:#FF0000;stroke-width:3.9443;stroke-linejoin:round;stroke-miterlimit:10;" x1="72.1" y1="83.2" x2="93.2" y2="71.7"/>
<path style="fill:#0000FF;" d="M99.3,71.7c0-3.4-2.7-6.1-6.1-6.1c-3.4,0-6.1,2.7-6.1,6.1c0,3.4,2.7,6.1,6.1,6.1
	C96.6,77.8,99.3,75.1,99.3,71.7"/>
<line style="fill:none;stroke:#FF0000;stroke-width:0.9998;stroke-linejoin:round;stroke-miterlimit:10;" x1="108.1" y1="86.3" x2="93.2" y2="71.7"/>
<line style="fill:none;stroke:#FF0000;stroke-width:2.3865;stroke-linejoin:round;stroke-miterlimit:10;" x1="75.9" y1="76" x2="93.2" y2="71.7"/>
<line style="fill:none;stroke:#FF0000;stroke-width:2.3865;stroke-linejoin:round;stroke-miterlimit:10;" x1="93.2" y1="71.7" x2="142.7" y2="77.7"/>
<text transform="matrix(1 0 0 1 230.0684 137.8428)" style="font-family:'ArialMT'; font-size:9.9998px;">2b</text>
<text transform="matrix(1 0 0 1 145.8594 203.5547)" style="font-family:'ArialMT'; font-size:9.9998px;">4f</text>
<line style="fill:none;stroke:#FF0000;stroke-width:4.434;stroke-linejoin:round;stroke-miterlimit:10;" x1="142.7" y1="204" x2="184.8" y2="181.1"/>
<path style="fill:#0000FF;" d="M190.9,181.1c0-3.4-2.7-6.1-6.1-6.1c-3.4,0-6.1,2.7-6.1,6.1c0,3.4,2.7,6.1,6.1,6.1
	C188.2,187.2,190.9,184.5,190.9,181.1"/>
<line style="fill:none;stroke:#FF0000;stroke-width:3.1972;stroke-linejoin:round;stroke-miterlimit:10;" x1="192.3" y1="210" x2="184.8" y2="181.1"/>
<path style="fill:#0000FF;" d="M233,138.3c0-3.4-2.7-6.1-6.1-6.1c-3.4,0-6.1,2.7-6.1,6.1c0,3.4,2.7,6.1,6.1,6.1
	C230.3,144.4,233,141.7,233,138.3"/>
<path style="fill:#0000FF;" d="M148.8,204c0-3.4-2.7-6.1-6.1-6.1c-3.4,0-6.1,2.7-6.1,6.1c0,3.4,2.7,6.1,6.1,6.1
	C146.1,210.1,148.8,207.4,148.8,204"/>
<line style="fill:none;stroke:#FF0000;stroke-width:0.9998;stroke-linejoin:round;stroke-miterlimit:10;" x1="157.6" y1="218.6" x2="142.7" y2="204"/>
<line style="fill:none;stroke:#FF0000;stroke-width:2.7915;stroke-linejoin:round;stroke-miterlimit:10;" x1="108.1" y1="212.6" x2="142.7" y2="204"/>
<line style="fill:none;stroke:#FF0000;stroke-width:0.9998;stroke-linejoin:round;stroke-miterlimit:10;" x1="150.2" y1="259.6" x2="142.7" y2="204"/>
<line style="fill:none;stroke:#FF0000;stroke-width:2.0985;stroke-linejoin:round;stroke-miterlimit:10;" x1="142.7" y1="204" x2="192.3" y2="210"/>
<text transform="matrix(1 0 0 1 103.7549 183.25)" style="font-family:'ArialMT'; font-size:9.9998px;">2c</text>
<line style="fill:none;stroke:#FF0000;stroke-width:3.639;stroke-linejoin:round;stroke-miterlimit:10;" x1="142.7" y1="204" x2="100.6" y2="183.7"/>
<line style="fill:none;stroke:#FF0000;stroke-width:0.9998;stroke-linejoin:round;stroke-miterlimit:10;" x1="192.3" y1="258.3" x2="142.7" y2="204"/>
<text transform="matrix(1 0 0 1 230.0684 74.71)" style="font-family:'ArialMT'; font-size:9.9998px;">4f</text>
<text transform="matrix(1 0 0 1 145.8594 140.4214)" style="font-family:'ArialMT'; font-size:9.9998px;">2b</text>
<text transform="matrix(1 0 0 1 145.8594 77.2886)" style="font-family:'ArialMT'; font-size:9.9998px;">4f</text>
<line style="fill:none;stroke:#FF0000;stroke-width:2.0985;stroke-linejoin:round;stroke-miterlimit:10;" x1="142.7" y1="77.7" x2="226.9" y2="75.2"/>
<line style="fill:none;stroke:#FF0000;stroke-width:1.6935;stroke-linejoin:round;stroke-miterlimit:10;" x1="192.3" y1="83.8" x2="226.9" y2="75.2"/>
<line style="fill:none;stroke:#FF0000;stroke-width:2.6093;stroke-linejoin:round;stroke-miterlimit:10;" x1="226.9" y1="75.2" x2="251.7" y2="78.2"/>
<path style="fill:#0000FF;" d="M233,75.2c0-3.4-2.7-6.1-6.1-6.1c-3.4,0-6.1,2.7-6.1,6.1c0,3.4,2.7,6.1,6.1,6.1
	C230.3,81.3,233,78.5,233,75.2"/>
<line style="fill:none;stroke:#FF0000;stroke-width:4.1782;stroke-linejoin:round;stroke-miterlimit:10;" x1="234.4" y1="104.1" x2="226.9" y2="75.2"/>
<line style="fill:none;stroke:#FF0000;stroke-width:1.6935;stroke-linejoin:round;stroke-miterlimit:10;" x1="226.9" y1="75.2" x2="226.9" y2="26.8"/>
<path style="fill:#0000FF;" d="M106.7,183.7c0-3.4-2.7-6.1-6.1-6.1c-3.4,0-6.1,2.7-6.1,6.1c0,3.4,2.7,6.1,6.1,6.1
	C104,189.8,106.7,187.1,106.7,183.7"/>
<line style="fill:none;stroke:#FF0000;stroke-width:3.0795;stroke-linejoin:round;stroke-miterlimit:10;" x1="108.1" y1="212.6" x2="100.6" y2="183.7"/>
<line style="fill:none;stroke:#FF0000;stroke-width:4.1782;stroke-linejoin:round;stroke-miterlimit:10;" x1="79.6" y1="195.1" x2="100.6" y2="183.7"/>
<path style="fill:#0000FF;" d="M148.8,140.9c0-3.4-2.7-6.1-6.1-6.1c-3.4,0-6.1,2.7-6.1,6.1c0,3.4,2.7,6.1,6.1,6.1
	C146.1,147,148.8,144.2,148.8,140.9"/>
<line style="fill:none;stroke:#262626;stroke-width:0.5002;stroke-linejoin:round;stroke-miterlimit:10;" x1="81.4" y1="256" x2="75.9" y2="256.2"/>
<text transform="matrix(1 0 0 1 65.854 266.8281)" style="fill:#262626; font-family:'ArialMT'; font-size:9.9998px;">5</text>
<line style="fill:none;stroke:#FF0000;stroke-width:2.3865;stroke-linejoin:round;stroke-miterlimit:10;" x1="83.3" y1="209.6" x2="108.1" y2="212.6"/>
<line style="fill:none;stroke:#FF0000;stroke-width:0.9998;stroke-linejoin:round;stroke-miterlimit:10;" x1="174.9" y1="262.6" x2="157.6" y2="218.6"/>
<line style="fill:none;stroke:#FF0000;stroke-width:1.6935;stroke-linejoin:round;stroke-miterlimit:10;" x1="241.8" y1="216" x2="259.1" y2="211.7"/>
<text transform="matrix(1 0 0 1 112 10.187)" style="font-family:'ArialMT'; font-size:11.0002px;">Jumps between sites</text>
<line style="fill:none;stroke:#FF0000;stroke-width:0.9998;stroke-linejoin:round;stroke-miterlimit:10;" x1="142.7" y1="77.7" x2="142.7" y2="29.4"/>
<line style="fill:none;stroke:#FF0000;stroke-width:2.7915;stroke-linejoin:round;stroke-miterlimit:10;" x1="142.7" y1="77.7" x2="192.3" y2="83.8"/>
<line style="fill:none;stroke:#FF0000;stroke-width:2.6093;stroke-linejoin:round;stroke-miterlimit:10;" x1="108.1" y1="86.3" x2="142.7" y2="77.7"/>
<path style="fill:#0000FF;" d="M148.8,77.7c0-3.4-2.7-6.1-6.1-6.1c-3.4,0-6.1,2.7-6.1,6.1c0,3.4,2.7,6.1,6.1,6.1
	C146.1,83.8,148.8,81.1,148.8,77.7"/>
<line style="fill:none;stroke:#FF0000;stroke-width:2.3865;stroke-linejoin:round;stroke-miterlimit:10;" x1="150.2" y1="106.6" x2="142.7" y2="77.7"/>
<text transform="matrix(1 0 0 1 1.8945 294.7598)" style="fill:#262626; font-family:'ArialMT'; font-size:11.0002px;">Y (Angstrom)</text>
<text transform="matrix(1 0 0 1 195.3877 209.5762)" style="font-family:'ArialMT'; font-size:9.9998px;">4f</text>
<line style="fill:none;stroke:#FF0000;stroke-width:1.6935;stroke-linejoin:round;stroke-miterlimit:10;" x1="108.1" y1="260.9" x2="108.1" y2="212.6"/>
<text transform="matrix(1 0 0 1 111.1802 212.1543)" style="font-family:'ArialMT'; font-size:9.9998px;">4f</text>
<line style="fill:none;stroke:#FF0000;stroke-width:1.6935;stroke-linejoin:round;stroke-miterlimit:10;" x1="108.1" y1="212.6" x2="192.3" y2="210"/>
<line style="fill:none;stroke:#FF0000;stroke-width:3.1972;stroke-linejoin:round;stroke-miterlimit:10;" x1="192.3" y1="210" x2="199.7" y2="195.7"/>
<line style="fill:none;stroke:#FF0000;stroke-width:0.9998;stroke-linejoin:round;stroke-miterlimit:10;" x1="174.9" y1="262.6" x2="192.3" y2="210"/>
<path style="fill:#0000FF;" d="M198.4,210c0-3.4-2.7-6.1-6.1-6.1c-3.4,0-6.1,2.7-6.1,6.1c0,3.4,2.7,6.1,6.1,6.1
	C195.6,216.1,198.4,213.4,198.4,210"/>
<line style="fill:none;stroke:#FF0000;stroke-width:2.946;stroke-linejoin:round;stroke-miterlimit:10;" x1="157.6" y1="218.6" x2="192.3" y2="210"/>
<line style="fill:none;stroke:#FF0000;stroke-width:2.7915;stroke-linejoin:round;stroke-miterlimit:10;" x1="241.8" y1="216" x2="192.3" y2="210"/>
<line style="fill:none;stroke:#FF0000;stroke-width:2.6093;stroke-linejoin:round;stroke-miterlimit:10;" x1="83.3" y1="83.3" x2="108.1" y2="86.3"/>
<line style="fill:none;stroke:#FF0000;stroke-width:0.9998;stroke-linejoin:round;stroke-miterlimit:10;" x1="241.8" y1="89.8" x2="192.2" y2="35.4"/>
<line style="fill:none;stroke:#FF0000;stroke-width:0.9998;stroke-linejoin:round;stroke-miterlimit:10;" x1="157.6" y1="92.4" x2="150.2" y2="36.7"/>
<text transform="matrix(1 0 0 1 195.3877 146.4429)" style="font-family:'ArialMT'; font-size:9.9998px;">2b</text>
<text transform="matrix(1 0 0 1 237.4922 103.6152)" style="font-family:'ArialMT'; font-size:9.9998px;">2c</text>
<line style="fill:none;stroke:#FF0000;stroke-width:2.3865;stroke-linejoin:round;stroke-miterlimit:10;" x1="241.8" y1="89.8" x2="259.1" y2="85.5"/>
<line style="fill:none;stroke:#FF0000;stroke-width:2.946;stroke-linejoin:round;stroke-miterlimit:10;" x1="234.4" y1="104.1" x2="255.4" y2="92.6"/>
<path style="fill:#0000FF;" d="M198.4,146.9c0-3.4-2.7-6.1-6.1-6.1c-3.4,0-6.1,2.7-6.1,6.1c0,3.4,2.7,6.1,6.1,6.1
	C195.6,153,198.4,150.3,198.4,146.9"/>
<path style="fill:#0000FF;" d="M240.5,104.1c0-3.4-2.7-6.1-6.1-6.1c-3.4,0-6.1,2.7-6.1,6.1c0,3.4,2.7,6.1,6.1,6.1
	C237.7,110.2,240.5,107.4,240.5,104.1"/>
<line style="fill:none;stroke:#FF0000;stroke-width:3.5647;stroke-linejoin:round;stroke-miterlimit:10;" x1="241.8" y1="89.8" x2="234.4" y2="104.1"/>
<text transform="matrix(1 0 0 1 195.3877 83.311)" style="font-family:'ArialMT'; font-size:9.9998px;">4f</text>
<line style="fill:none;stroke:#FF0000;stroke-width:3.4852;stroke-linejoin:round;stroke-miterlimit:10;" x1="192.3" y1="83.8" x2="234.4" y2="104.1"/>
<line style="fill:none;stroke:#FF0000;stroke-width:1.6935;stroke-linejoin:round;stroke-miterlimit:10;" x1="90.7" y1="216.9" x2="108.1" y2="212.6"/>
<path style="fill:#0000FF;" d="M114.2,212.6c0-3.4-2.7-6.1-6.1-6.1c-3.4,0-6.1,2.7-6.1,6.1c0,3.4,2.7,6.1,6.1,6.1
	C111.4,218.7,114.2,216,114.2,212.6"/>
<line style="fill:none;stroke:#FF0000;stroke-width:2.0985;stroke-linejoin:round;stroke-miterlimit:10;" x1="157.6" y1="218.6" x2="108.1" y2="212.6"/>
<line style="fill:none;stroke:#FF0000;stroke-width:3.5647;stroke-linejoin:round;stroke-miterlimit:10;" x1="108.1" y1="212.6" x2="115.5" y2="198.3"/>
<line style="fill:none;stroke:#FF0000;stroke-width:0.9998;stroke-linejoin:round;stroke-miterlimit:10;" x1="241.8" y1="264.4" x2="241.8" y2="216"/>
<text transform="matrix(1 0 0 1 111.1802 149.022)" style="font-family:'ArialMT'; font-size:9.9998px;">2b</text>
<text transform="matrix(1 0 0 1 153.2842 106.1938)" style="font-family:'ArialMT'; font-size:9.9998px;">2c</text>
<path style="fill:#0000FF;" d="M198.4,83.8c0-3.4-2.7-6.1-6.1-6.1c-3.4,0-6.1,2.7-6.1,6.1c0,3.4,2.7,6.1,6.1,6.1
	C195.6,89.9,198.4,87.1,198.4,83.8"/>
<line style="fill:none;stroke:#FF0000;stroke-width:1.6935;stroke-linejoin:round;stroke-miterlimit:10;" x1="157.6" y1="92.4" x2="192.3" y2="83.8"/>
<line style="fill:none;stroke:#FF0000;stroke-width:2.6093;stroke-linejoin:round;stroke-miterlimit:10;" x1="150.2" y1="106.6" x2="192.3" y2="83.8"/>
<line style="fill:none;stroke:#FF0000;stroke-width:2.0985;stroke-linejoin:round;stroke-miterlimit:10;" x1="192.3" y1="83.8" x2="241.8" y2="89.8"/>
<line style="fill:none;stroke:#FF0000;stroke-width:0.9998;stroke-linejoin:round;stroke-miterlimit:10;" x1="192.3" y1="83.8" x2="174.9" y2="39.7"/>
<path style="fill:#0000FF;" d="M114.2,149.5c0-3.4-2.7-6.1-6.1-6.1c-3.4,0-6.1,2.7-6.1,6.1c0,3.4,2.7,6.1,6.1,6.1
	C111.4,155.6,114.2,152.8,114.2,149.5"/>
<line style="fill:none;stroke:#FF0000;stroke-width:3.708;stroke-linejoin:round;stroke-miterlimit:10;" x1="157.6" y1="92.4" x2="150.2" y2="106.6"/>
<path style="fill:#0000FF;" d="M156.3,106.6c0-3.4-2.7-6.1-6.1-6.1c-3.4,0-6.1,2.7-6.1,6.1c0,3.4,2.7,6.1,6.1,6.1
	C153.5,112.7,156.3,110,156.3,106.6"/>
<text transform="matrix(1 0 0 1 111.1802 85.8892)" style="font-family:'ArialMT'; font-size:9.9998px;">4f</text>
<line style="fill:none;stroke:#FF0000;stroke-width:4.401;stroke-linejoin:round;stroke-miterlimit:10;" x1="108.1" y1="86.3" x2="150.2" y2="106.6"/>
<line style="fill:none;stroke:#FF0000;stroke-width:2.3865;stroke-linejoin:round;stroke-miterlimit:10;" x1="266.5" y1="219.1" x2="266.6" y2="219"/>
<text transform="matrix(1 0 0 1 244.916 215.5986)" style="font-family:'ArialMT'; font-size:9.9998px;">4f</text>
<line style="fill:none;stroke:#FF0000;stroke-width:4.4963;stroke-linejoin:round;stroke-miterlimit:10;" x1="241.8" y1="216" x2="262.9" y2="204.6"/>
<line style="fill:none;stroke:#FF0000;stroke-width:2.0985;stroke-linejoin:round;stroke-miterlimit:10;" x1="157.6" y1="266.9" x2="157.6" y2="218.6"/>
<text transform="matrix(1 0 0 1 202.8115 195.2939)" style="font-family:'ArialMT'; font-size:9.9998px;">2c</text>
<line style="fill:none;stroke:#FF0000;stroke-width:3.3982;stroke-linejoin:round;stroke-miterlimit:10;" x1="241.8" y1="216" x2="199.7" y2="195.7"/>
<line style="fill:none;stroke:#FF0000;stroke-width:2.7915;stroke-linejoin:round;stroke-miterlimit:10;" x1="224.4" y1="220.3" x2="241.8" y2="216"/>
<text transform="matrix(1 0 0 1 163.8154 300.7822)" style="fill:#262626; font-family:'ArialMT'; font-size:11.0002px;">X (Angstrom)</text>
<line style="fill:none;stroke:#FF0000;stroke-width:0.9998;stroke-linejoin:round;stroke-miterlimit:10;" x1="224.4" y1="268.7" x2="241.8" y2="216"/>
<path style="fill:#0000FF;" d="M247.9,216c0-3.4-2.7-6.1-6.1-6.1c-3.4,0-6.1,2.7-6.1,6.1c0,3.4,2.7,6.1,6.1,6.1
	C245.2,222.1,247.9,219.4,247.9,216"/>
<line style="fill:none;stroke:#FF0000;stroke-width:2.3865;stroke-linejoin:round;stroke-miterlimit:10;" x1="90.7" y1="90.6" x2="108.1" y2="86.3"/>
<line style="fill:none;stroke:#FF0000;stroke-width:1.6935;stroke-linejoin:round;stroke-miterlimit:10;" x1="108.1" y1="86.3" x2="157.6" y2="92.4"/>
<path style="fill:#0000FF;" d="M114.2,86.3c0-3.4-2.7-6.1-6.1-6.1c-3.4,0-6.1,2.7-6.1,6.1c0,3.4,2.7,6.1,6.1,6.1
	C111.4,92.4,114.2,89.7,114.2,86.3"/>
<line style="fill:none;stroke:#FF0000;stroke-width:1.6935;stroke-linejoin:round;stroke-miterlimit:10;" x1="108.1" y1="86.3" x2="108.1" y2="38"/>
<line style="fill:none;stroke:#FF0000;stroke-width:2.946;stroke-linejoin:round;stroke-miterlimit:10;" x1="87" y1="97.8" x2="108.1" y2="86.3"/>
<text transform="matrix(1 0 0 1 160.708 91.9111)" style="font-family:'ArialMT'; font-size:9.9998px;">4f</text>
<line style="fill:none;stroke:#FF0000;stroke-width:0.9998;stroke-linejoin:round;stroke-miterlimit:10;" x1="157.6" y1="92.4" x2="174.9" y2="39.7"/>
<text transform="matrix(1 0 0 1 244.916 152.4658)" style="font-family:'ArialMT'; font-size:9.9998px;">2b</text>
<line style="fill:none;stroke:#000000;stroke-width:0.5002;stroke-linejoin:round;stroke-miterlimit:10;" x1="98.1" y1="272.5" x2="266.6" y2="267.3"/>
<line style="fill:none;stroke:#262626;stroke-width:0.5002;stroke-linejoin:round;stroke-miterlimit:10;" x1="98.1" y1="272.5" x2="266.6" y2="267.3"/>
<line style="fill:none;stroke:#000000;stroke-width:0.5002;stroke-linejoin:round;stroke-miterlimit:10;" x1="266.6" y1="267.3" x2="266.6" y2="44.5"/>
<text transform="matrix(1 0 0 1 160.708 218.1768)" style="font-family:'ArialMT'; font-size:9.9998px;">4f</text>
<path style="fill:#0000FF;" d="M205.8,195.7c0-3.4-2.7-6.1-6.1-6.1c-3.4,0-6.1,2.7-6.1,6.1c0,3.4,2.7,6.1,6.1,6.1
	C203.1,201.8,205.8,199.1,205.8,195.7"/>
<line style="fill:none;stroke:#FF0000;stroke-width:4.401;stroke-linejoin:round;stroke-miterlimit:10;" x1="157.6" y1="218.6" x2="199.7" y2="195.7"/>
<line style="fill:none;stroke:#FF0000;stroke-width:3.4852;stroke-linejoin:round;stroke-miterlimit:10;" x1="203.4" y1="210.2" x2="199.7" y2="195.7"/>
<path style="fill:#0000FF;" d="M247.9,152.9c0-3.4-2.7-6.1-6.1-6.1c-3.4,0-6.1,2.7-6.1,6.1c0,3.4,2.7,6.1,6.1,6.1
	C245.2,159,247.9,156.3,247.9,152.9"/>
<line style="fill:none;stroke:#262626;stroke-width:0.5002;stroke-linejoin:round;stroke-miterlimit:10;" x1="249.9" y1="267.9" x2="253.8" y2="271.8"/>
<path style="fill:#0000FF;" d="M163.7,218.6c0-3.4-2.7-6.1-6.1-6.1c-3.4,0-6.1,2.7-6.1,6.1c0,3.4,2.7,6.1,6.1,6.1
	C161,224.7,163.7,222,163.7,218.6"/>
<line style="fill:none;stroke:#FF0000;stroke-width:2.3865;stroke-linejoin:round;stroke-miterlimit:10;" x1="182.4" y1="221.6" x2="157.6" y2="218.6"/>
<line style="fill:none;stroke:#FF0000;stroke-width:2.3865;stroke-linejoin:round;stroke-miterlimit:10;" x1="140.2" y1="222.9" x2="157.6" y2="218.6"/>
<text transform="matrix(1 0 0 1 118.604 197.8721)" style="font-family:'ArialMT'; font-size:9.9998px;">2c</text>
<line style="fill:none;stroke:#FF0000;stroke-width:3.4852;stroke-linejoin:round;stroke-miterlimit:10;" x1="157.6" y1="218.6" x2="115.5" y2="198.3"/>
<line style="fill:none;stroke:#FF0000;stroke-width:2.3865;stroke-linejoin:round;stroke-miterlimit:10;" x1="266.5" y1="92.8" x2="266.6" y2="92.8"/>
<line style="fill:none;stroke:#262626;stroke-width:0.5002;stroke-linecap:round;stroke-linejoin:round;stroke-miterlimit:10;" x1="211.9" y1="269" x2="215.9" y2="272.9"/>
<text transform="matrix(1 0 0 1 244.916 89.333)" style="font-family:'ArialMT'; font-size:9.9998px;">4f</text>
<text transform="matrix(1 0 0 1 160.708 155.0439)" style="font-family:'ArialMT'; font-size:9.9998px;">2b</text>
<path style="fill:#0000FF;" d="M247.9,89.8c0-3.4-2.7-6.1-6.1-6.1c-3.4,0-6.1,2.7-6.1,6.1c0,3.4,2.7,6.1,6.1,6.1
	C245.2,95.9,247.9,93.1,247.9,89.8"/>
<line style="fill:none;stroke:#FF0000;stroke-width:3.3982;stroke-linejoin:round;stroke-miterlimit:10;" x1="245.5" y1="104.2" x2="241.8" y2="89.8"/>
<line style="fill:none;stroke:#FF0000;stroke-width:0.9998;stroke-linejoin:round;stroke-miterlimit:10;" x1="241.8" y1="89.8" x2="241.8" y2="41.5"/>
<line style="fill:none;stroke:#FF0000;stroke-width:2.3865;stroke-linejoin:round;stroke-miterlimit:10;" x1="224.4" y1="94.1" x2="241.8" y2="89.8"/>
<line style="fill:none;stroke:#FF0000;stroke-width:0.9998;stroke-linejoin:round;stroke-miterlimit:10;" x1="157.6" y1="92.4" x2="241.8" y2="89.8"/>
<line style="fill:none;stroke:#262626;stroke-width:0.5002;stroke-linecap:round;stroke-linejoin:round;stroke-miterlimit:10;" x1="174" y1="270.2" x2="178" y2="274.1"/>
<path style="fill:#0000FF;" d="M121.6,198.3c0-3.4-2.7-6.1-6.1-6.1c-3.4,0-6.1,2.7-6.1,6.1c0,3.4,2.7,6.1,6.1,6.1
	C118.8,204.4,121.6,201.7,121.6,198.3"/>
<line style="fill:none;stroke:#FF0000;stroke-width:4.4963;stroke-linejoin:round;stroke-miterlimit:10;" x1="94.4" y1="209.8" x2="115.5" y2="198.3"/>
<line style="fill:none;stroke:#FF0000;stroke-width:3.708;stroke-linejoin:round;stroke-miterlimit:10;" x1="119.2" y1="212.8" x2="115.5" y2="198.3"/>
<path style="fill:#0000FF;" d="M163.7,155.5c0-3.4-2.7-6.1-6.1-6.1c-3.4,0-6.1,2.7-6.1,6.1c0,3.4,2.7,6.1,6.1,6.1
	C161,161.6,163.7,158.9,163.7,155.5"/>
<line style="fill:none;stroke:#262626;stroke-width:0.5002;stroke-linecap:round;stroke-linejoin:round;stroke-miterlimit:10;" x1="136.1" y1="271.3" x2="140" y2="275.2"/>
<line style="fill:none;stroke:#FF0000;stroke-width:2.946;stroke-linejoin:round;stroke-miterlimit:10;" x1="182.4" y1="95.4" x2="157.6" y2="92.4"/>
<path style="fill:#0000FF;" d="M163.7,92.4c0-3.4-2.7-6.1-6.1-6.1c-3.4,0-6.1,2.7-6.1,6.1c0,3.4,2.7,6.1,6.1,6.1
	C161,98.5,163.7,95.7,163.7,92.4"/>
<line style="fill:none;stroke:#FF0000;stroke-width:4.401;stroke-linejoin:round;stroke-miterlimit:10;" x1="161.3" y1="106.8" x2="157.6" y2="92.4"/>
<line style="fill:none;stroke:#FF0000;stroke-width:2.7915;stroke-linejoin:round;stroke-miterlimit:10;" x1="140.2" y1="96.7" x2="157.6" y2="92.4"/>
<line style="fill:none;stroke:#FF0000;stroke-width:2.0985;stroke-linejoin:round;stroke-miterlimit:10;" x1="157.6" y1="92.4" x2="157.6" y2="44"/>
<line style="fill:none;stroke:#262626;stroke-width:0.5002;stroke-linejoin:round;stroke-miterlimit:10;" x1="98.1" y1="272.5" x2="102.1" y2="276.4"/>
<line style="fill:none;stroke:#262626;stroke-width:0.5002;stroke-linejoin:round;stroke-miterlimit:10;" x1="98.1" y1="272.5" x2="92.6" y2="272.7"/>
<line style="fill:none;stroke:#000000;stroke-width:0.5002;stroke-linejoin:round;stroke-miterlimit:10;" x1="98.1" y1="272.5" x2="98.1" y2="49.7"/>
<text transform="matrix(1 0 0 1 82.5732 283.293)" style="fill:#262626; font-family:'ArialMT'; font-size:9.9998px;">0</text>
<line style="fill:none;stroke:#000000;stroke-width:0.5002;stroke-linejoin:round;stroke-miterlimit:10;" x1="98.1" y1="49.7" x2="266.6" y2="44.5"/>
<text transform="matrix(1 0 0 1 253.6699 285.0703)" style="fill:#262626; font-family:'ArialMT'; font-size:9.9998px;">8</text>
<text transform="matrix(1 0 0 1 215.7422 286.2324)" style="fill:#262626; font-family:'ArialMT'; font-size:9.9998px;">6</text>
<text transform="matrix(1 0 0 1 177.8145 287.3936)" style="fill:#262626; font-family:'ArialMT'; font-size:9.9998px;">4</text>
<text transform="matrix(1 0 0 1 139.8877 288.5547)" style="fill:#262626; font-family:'ArialMT'; font-size:9.9998px;">2</text>
<text transform="matrix(1 0 0 1 101.9595 289.7158)" style="fill:#262626; font-family:'ArialMT'; font-size:9.9998px;">0</text>
<rect x="1.9" y="105.3" style="fill:none;" width="20.7" height="14.9"/>
<text transform="matrix(1 0 0 1 1.8944 113.899)" style="font-family:'Arial-BoldMT'; font-size:12px;">Ba</text>
<rect x="1.9" y="162.9" style="fill:none;" width="20.7" height="14.9"/>
<text transform="matrix(1 0 0 1 1.8944 171.4603)" style="font-family:'Arial-BoldMT'; font-size:12px;">Ba</text>
<rect x="1.9" y="228.9" style="fill:none;" width="20.7" height="14.9"/>
<text transform="matrix(1 0 0 1 1.8944 237.4858)" style="font-family:'Arial-BoldMT'; font-size:12px;">Sn</text>
<rect x="1.9" y="35.4" style="fill:none;" width="20.7" height="14.9"/>
<text transform="matrix(1 0 0 1 1.8944 43.9845)" style="font-family:'Arial-BoldMT'; font-size:12px;">Sn</text>
<rect x="1.9" y="69" style="fill:none;" width="20.7" height="14.9"/>
<text transform="matrix(1 0 0 1 1.8944 77.6015)" style="font-family:'Arial-BoldMT'; font-size:12px;">F</text>
<rect x="1.9" y="193.6" style="fill:none;" width="20.7" height="14.9"/>
<text transform="matrix(1 0 0 1 1.8944 202.1455)" style="font-family:'Arial-BoldMT'; font-size:12px;">F</text>
<rect x="1.9" y="132.2" style="fill:none;" width="20.7" height="14.9"/>
<text transform="matrix(1 0 0 1 1.8944 140.7751)" style="font-family:'Arial-BoldMT'; font-size:12px;">F</text>
</svg>
