<?xml version="1.0" encoding="utf-8"?>
<!-- Generator: Adobe Illustrator 23.0.1, SVG Export Plug-In . SVG Version: 6.00 Build 0)  -->
<svg version="1.1" id="Layer_1" xmlns="http://www.w3.org/2000/svg" xmlns:xlink="http://www.w3.org/1999/xlink" x="0px" y="0px"
	 viewBox="0 0 600 263" style="enable-background:new 0 0 600 263;" xml:space="preserve">
<g>
	<defs>
		<rect id="SVGID_1_" width="600" height="262.5"/>
	</defs>
	<clipPath id="SVGID_2_">
		<use xlink:href="#SVGID_1_"  style="overflow:visible;"/>
	</clipPath>
	<rect style="clip-path:url(#SVGID_2_);fill:#FFFFFF;" width="600" height="262.5"/>
</g>
<rect style="fill:#FFFFFF;" width="600" height="262.5"/>
<rect x="61.5" y="19.5" style="fill:#FFFFFF;" width="366" height="202.5"/>
<line style="opacity:0.149;fill:none;stroke:#262626;stroke-width:0.5;stroke-linejoin:round;stroke-miterlimit:10;" x1="61.5" y1="222" x2="61.5" y2="19.5"/>
<line style="opacity:0.149;fill:none;stroke:#262626;stroke-width:0.5;stroke-linejoin:round;stroke-miterlimit:10;" x1="183.5" y1="222" x2="183.5" y2="19.5"/>
<line style="opacity:0.149;fill:none;stroke:#262626;stroke-width:0.5;stroke-linejoin:round;stroke-miterlimit:10;" x1="305.5" y1="222" x2="305.5" y2="19.5"/>
<line style="opacity:0.149;fill:none;stroke:#262626;stroke-width:0.5;stroke-linejoin:round;stroke-miterlimit:10;" x1="427.5" y1="222" x2="427.5" y2="19.5"/>
<line style="opacity:0.149;fill:none;stroke:#262626;stroke-width:0.5;stroke-linejoin:round;stroke-miterlimit:10;" x1="427.5" y1="222" x2="61.5" y2="222"/>
<line style="opacity:0.149;fill:none;stroke:#262626;stroke-width:0.5;stroke-linejoin:round;stroke-miterlimit:10;" x1="427.5" y1="199.5" x2="61.5" y2="199.5"/>
<line style="opacity:0.149;fill:none;stroke:#262626;stroke-width:0.5;stroke-linejoin:round;stroke-miterlimit:10;" x1="427.5" y1="177" x2="61.5" y2="177"/>
<line style="opacity:0.149;fill:none;stroke:#262626;stroke-width:0.5;stroke-linejoin:round;stroke-miterlimit:10;" x1="427.5" y1="154.5" x2="61.5" y2="154.5"/>
<line style="opacity:0.149;fill:none;stroke:#262626;stroke-width:0.5;stroke-linejoin:round;stroke-miterlimit:10;" x1="427.5" y1="132" x2="61.5" y2="132"/>
<line style="opacity:0.149;fill:none;stroke:#262626;stroke-width:0.5;stroke-linejoin:round;stroke-miterlimit:10;" x1="427.5" y1="109.5" x2="61.5" y2="109.5"/>
<line style="opacity:0.149;fill:none;stroke:#262626;stroke-width:0.5;stroke-linejoin:round;stroke-miterlimit:10;" x1="427.5" y1="87" x2="61.5" y2="87"/>
<line style="opacity:0.149;fill:none;stroke:#262626;stroke-width:0.5;stroke-linejoin:round;stroke-miterlimit:10;" x1="427.5" y1="64.5" x2="61.5" y2="64.5"/>
<line style="opacity:0.149;fill:none;stroke:#262626;stroke-width:0.5;stroke-linejoin:round;stroke-miterlimit:10;" x1="427.5" y1="42" x2="61.5" y2="42"/>
<line style="fill:none;stroke:#262626;stroke-width:0.5;stroke-linecap:square;stroke-linejoin:round;stroke-miterlimit:10;" x1="61.5" y1="222" x2="427.5" y2="222"/>
<line style="fill:none;stroke:#262626;stroke-width:0.5;stroke-linecap:square;stroke-linejoin:round;stroke-miterlimit:10;" x1="61.5" y1="19.5" x2="427.5" y2="19.5"/>
<line style="fill:none;stroke:#262626;stroke-width:0.5;stroke-linecap:square;stroke-linejoin:round;stroke-miterlimit:10;" x1="61.5" y1="222" x2="61.5" y2="218.3"/>
<line style="fill:none;stroke:#262626;stroke-width:0.5;stroke-linecap:square;stroke-linejoin:round;stroke-miterlimit:10;" x1="183.5" y1="222" x2="183.5" y2="218.3"/>
<line style="fill:none;stroke:#262626;stroke-width:0.5;stroke-linecap:square;stroke-linejoin:round;stroke-miterlimit:10;" x1="305.5" y1="222" x2="305.5" y2="218.3"/>
<line style="fill:none;stroke:#262626;stroke-width:0.5;stroke-linecap:square;stroke-linejoin:round;stroke-miterlimit:10;" x1="427.5" y1="222" x2="427.5" y2="218.3"/>
<line style="fill:none;stroke:#262626;stroke-width:0.5;stroke-linecap:square;stroke-linejoin:round;stroke-miterlimit:10;" x1="61.5" y1="19.5" x2="61.5" y2="23.2"/>
<line style="fill:none;stroke:#262626;stroke-width:0.5;stroke-linecap:square;stroke-linejoin:round;stroke-miterlimit:10;" x1="183.5" y1="19.5" x2="183.5" y2="23.2"/>
<line style="fill:none;stroke:#262626;stroke-width:0.5;stroke-linecap:square;stroke-linejoin:round;stroke-miterlimit:10;" x1="305.5" y1="19.5" x2="305.5" y2="23.2"/>
<line style="fill:none;stroke:#262626;stroke-width:0.5;stroke-linecap:square;stroke-linejoin:round;stroke-miterlimit:10;" x1="427.5" y1="19.5" x2="427.5" y2="23.2"/>
<text transform="matrix(-4.333333e-08 -1 1 -4.333333e-08 65.6249 261.2497)" style="fill:#262626; font-family:'ArialMT'; font-size:9.9998px;">4c to 4c</text>
<text transform="matrix(-4.333333e-08 -1 1 -4.333333e-08 187.6249 261.9997)" style="fill:#262626; font-family:'ArialMT'; font-size:9.9998px;">4c to 8d</text>
<text transform="matrix(-4.333333e-08 -1 1 -4.333333e-08 309.6254 261.9996)" style="fill:#262626; font-family:'ArialMT'; font-size:9.9998px;">8d to 4c</text>
<text transform="matrix(-4.333333e-08 -1 1 -4.333333e-08 431.6254 262.7496)" style="fill:#262626; font-family:'ArialMT'; font-size:9.9998px;">8d to 8d</text>
<line style="fill:none;stroke:#262626;stroke-width:0.5;stroke-linecap:square;stroke-linejoin:round;stroke-miterlimit:10;" x1="61.5" y1="222" x2="61.5" y2="19.5"/>
<line style="fill:none;stroke:#262626;stroke-width:0.5;stroke-linecap:square;stroke-linejoin:round;stroke-miterlimit:10;" x1="427.5" y1="222" x2="427.5" y2="19.5"/>
<line style="fill:none;stroke:#262626;stroke-width:0.5;stroke-linecap:square;stroke-linejoin:round;stroke-miterlimit:10;" x1="61.5" y1="222" x2="65.2" y2="222"/>
<line style="fill:none;stroke:#262626;stroke-width:0.5;stroke-linecap:square;stroke-linejoin:round;stroke-miterlimit:10;" x1="61.5" y1="199.5" x2="65.2" y2="199.5"/>
<line style="fill:none;stroke:#262626;stroke-width:0.5;stroke-linecap:square;stroke-linejoin:round;stroke-miterlimit:10;" x1="61.5" y1="177" x2="65.2" y2="177"/>
<line style="fill:none;stroke:#262626;stroke-width:0.5;stroke-linecap:square;stroke-linejoin:round;stroke-miterlimit:10;" x1="61.5" y1="154.5" x2="65.2" y2="154.5"/>
<line style="fill:none;stroke:#262626;stroke-width:0.5;stroke-linecap:square;stroke-linejoin:round;stroke-miterlimit:10;" x1="61.5" y1="132" x2="65.2" y2="132"/>
<line style="fill:none;stroke:#262626;stroke-width:0.5;stroke-linecap:square;stroke-linejoin:round;stroke-miterlimit:10;" x1="61.5" y1="109.5" x2="65.2" y2="109.5"/>
<line style="fill:none;stroke:#262626;stroke-width:0.5;stroke-linecap:square;stroke-linejoin:round;stroke-miterlimit:10;" x1="61.5" y1="87" x2="65.2" y2="87"/>
<line style="fill:none;stroke:#262626;stroke-width:0.5;stroke-linecap:square;stroke-linejoin:round;stroke-miterlimit:10;" x1="61.5" y1="64.5" x2="65.2" y2="64.5"/>
<line style="fill:none;stroke:#262626;stroke-width:0.5;stroke-linecap:square;stroke-linejoin:round;stroke-miterlimit:10;" x1="61.5" y1="42" x2="65.2" y2="42"/>
<line style="fill:none;stroke:#262626;stroke-width:0.5;stroke-linecap:square;stroke-linejoin:round;stroke-miterlimit:10;" x1="427.5" y1="222" x2="423.8" y2="222"/>
<line style="fill:none;stroke:#262626;stroke-width:0.5;stroke-linecap:square;stroke-linejoin:round;stroke-miterlimit:10;" x1="427.5" y1="199.5" x2="423.8" y2="199.5"/>
<line style="fill:none;stroke:#262626;stroke-width:0.5;stroke-linecap:square;stroke-linejoin:round;stroke-miterlimit:10;" x1="427.5" y1="177" x2="423.8" y2="177"/>
<line style="fill:none;stroke:#262626;stroke-width:0.5;stroke-linecap:square;stroke-linejoin:round;stroke-miterlimit:10;" x1="427.5" y1="154.5" x2="423.8" y2="154.5"/>
<line style="fill:none;stroke:#262626;stroke-width:0.5;stroke-linecap:square;stroke-linejoin:round;stroke-miterlimit:10;" x1="427.5" y1="132" x2="423.8" y2="132"/>
<line style="fill:none;stroke:#262626;stroke-width:0.5;stroke-linecap:square;stroke-linejoin:round;stroke-miterlimit:10;" x1="427.5" y1="109.5" x2="423.8" y2="109.5"/>
<line style="fill:none;stroke:#262626;stroke-width:0.5;stroke-linecap:square;stroke-linejoin:round;stroke-miterlimit:10;" x1="427.5" y1="87" x2="423.8" y2="87"/>
<line style="fill:none;stroke:#262626;stroke-width:0.5;stroke-linecap:square;stroke-linejoin:round;stroke-miterlimit:10;" x1="427.5" y1="64.5" x2="423.8" y2="64.5"/>
<line style="fill:none;stroke:#262626;stroke-width:0.5;stroke-linecap:square;stroke-linejoin:round;stroke-miterlimit:10;" x1="427.5" y1="42" x2="423.8" y2="42"/>
<text transform="matrix(1 0 0 1 43.25 226.125)" style="fill:#262626; font-family:'ArialMT'; font-size:9.9998px;">0.1</text>
<text transform="matrix(1 0 0 1 43.25 203.625)" style="fill:#262626; font-family:'ArialMT'; font-size:9.9998px;">0.2</text>
<text transform="matrix(1 0 0 1 43.25 181.125)" style="fill:#262626; font-family:'ArialMT'; font-size:9.9998px;">0.3</text>
<text transform="matrix(1 0 0 1 43.25 158.625)" style="fill:#262626; font-family:'ArialMT'; font-size:9.9998px;">0.4</text>
<text transform="matrix(1 0 0 1 43.25 136.125)" style="fill:#262626; font-family:'ArialMT'; font-size:9.9998px;">0.5</text>
<text transform="matrix(1 0 0 1 43.25 113.625)" style="fill:#262626; font-family:'ArialMT'; font-size:9.9998px;">0.6</text>
<text transform="matrix(1 0 0 1 43.25 91.125)" style="fill:#262626; font-family:'ArialMT'; font-size:9.9998px;">0.7</text>
<text transform="matrix(1 0 0 1 43.25 68.625)" style="fill:#262626; font-family:'ArialMT'; font-size:9.9998px;">0.8</text>
<text transform="matrix(1 0 0 1 43.25 46.125)" style="fill:#262626; font-family:'ArialMT'; font-size:9.9998px;">0.9</text>
<text transform="matrix(-4.333333e-08 -1 1 -4.333333e-08 37.2499 175.1246)" style="fill:#262626; font-family:'ArialMT'; font-size:11.0002px;">Activation energy (eV)</text>
<path style="fill:none;stroke:#0072BD;stroke-width:2;stroke-miterlimit:10;" d="M58,140.6l7.1-7.1 M58,133.6l7.1,7.1 M56.3,137.1
	h10.5 M61.5,131.8v10.5"/>
<path style="fill:none;stroke:#0072BD;stroke-width:2;stroke-miterlimit:10;" d="M180,219.6l7.1-7.1 M180,212.5l7.1,7.1 M178.3,216
	h10.5 M183.5,210.8v10.5"/>
<path style="fill:none;stroke:#0072BD;stroke-width:2;stroke-miterlimit:10;" d="M302,196.9l7.1-7.1 M302,189.8l7.1,7.1
	 M300.3,193.4h10.5 M305.5,188.1v10.5"/>
<path style="fill:none;stroke:#0072BD;stroke-width:2;stroke-miterlimit:10;" d="M424,182.4l7.1-7.1 M424,175.3l7.1,7.1
	 M422.3,178.9h10.5 M427.5,173.6v10.5"/>
<path style="fill:none;stroke:#D95319;stroke-width:2;stroke-miterlimit:10;" d="M56.3,87.1h10.5 M61.5,81.8v10.5"/>
<path style="fill:none;stroke:#D95319;stroke-width:2;stroke-miterlimit:10;" d="M178.3,185.6h10.5 M183.5,180.3v10.5"/>
<path style="fill:none;stroke:#D95319;stroke-width:2;stroke-miterlimit:10;" d="M300.3,154.7h10.5 M305.5,149.4v10.5"/>
<path style="fill:none;stroke:#D95319;stroke-width:2;stroke-miterlimit:10;" d="M422.3,155.7h10.5 M427.5,150.4v10.5"/>
<path style="fill:#EDB120;" d="M61.5,81.8c-3.3,0-6,2.7-6,6c0,3.3,2.7,6,6,6c3.3,0,6-2.7,6-6C67.5,84.5,64.8,81.8,61.5,81.8z
	 M61.5,83.8c2.2,0,4,1.8,4,4c0,2.2-1.8,4-4,4c-2.2,0-4-1.8-4-4C57.5,85.6,59.3,83.8,61.5,83.8z"/>
<path style="fill:#EDB120;" d="M183.5,187c-3.3,0-6,2.7-6,6s2.7,6,6,6c3.3,0,6-2.7,6-6S186.8,187,183.5,187z M183.5,189
	c2.2,0,4,1.8,4,4c0,2.2-1.8,4-4,4c-2.2,0-4-1.8-4-4C179.5,190.8,181.3,189,183.5,189z"/>
<path style="fill:#EDB120;" d="M305.5,163.9c-3.3,0-6,2.7-6,6s2.7,6,6,6c3.3,0,6-2.7,6-6S308.8,163.9,305.5,163.9z M305.5,165.9
	c2.2,0,4,1.8,4,4c0,2.2-1.8,4-4,4c-2.2,0-4-1.8-4-4C301.5,167.7,303.3,165.9,305.5,165.9z"/>
<path style="fill:#EDB120;" d="M427.5,156.6c-3.3,0-6,2.7-6,6s2.7,6,6,6c3.3,0,6-2.7,6-6S430.8,156.6,427.5,156.6z M427.5,158.6
	c2.2,0,4,1.8,4,4c0,2.2-1.8,4-4,4c-2.2,0-4-1.8-4-4C423.5,160.4,425.3,158.6,427.5,158.6z"/>
<path style="fill:none;stroke:#7E2F8E;stroke-width:2;stroke-miterlimit:10;" d="M180,60.6l7.1-7.1 M180,53.5l7.1,7.1 M178.3,57
	h10.5 M183.5,51.8v10.5"/>
<path style="fill:none;stroke:#7E2F8E;stroke-width:2;stroke-miterlimit:10;" d="M302,38.7l7.1-7.1 M302,31.7l7.1,7.1 M300.3,35.2
	h10.5 M305.5,29.9v10.5"/>
<path style="fill:none;stroke:#7E2F8E;stroke-width:2;stroke-miterlimit:10;" d="M424,52.6l7.1-7.1 M424,45.5l7.1,7.1 M422.3,49.1
	h10.5 M427.5,43.8v10.5"/>
<path style="fill:none;stroke:#77AC30;stroke-width:2;stroke-miterlimit:10;" d="M56.3,118.2h10.5 M61.5,112.9v10.5"/>
<path style="fill:none;stroke:#77AC30;stroke-width:2;stroke-miterlimit:10;" d="M178.3,203.8h10.5 M183.5,198.6v10.5"/>
<path style="fill:none;stroke:#77AC30;stroke-width:2;stroke-miterlimit:10;" d="M300.3,186.8h10.5 M305.5,181.5V192"/>
<path style="fill:none;stroke:#77AC30;stroke-width:2;stroke-miterlimit:10;" d="M422.3,175.6h10.5 M427.5,170.4v10.5"/>
<path style="fill:#4DBEEE;" d="M61.5,97.7c-3.3,0-6,2.7-6,6c0,3.3,2.7,6,6,6c3.3,0,6-2.7,6-6C67.5,100.4,64.8,97.7,61.5,97.7z
	 M61.5,99.7c2.2,0,4,1.8,4,4c0,2.2-1.8,4-4,4c-2.2,0-4-1.8-4-4C57.5,101.5,59.3,99.7,61.5,99.7z"/>
<path style="fill:#4DBEEE;" d="M183.5,206.6c-3.3,0-6,2.7-6,6s2.7,6,6,6c3.3,0,6-2.7,6-6S186.8,206.6,183.5,206.6z M183.5,208.6
	c2.2,0,4,1.8,4,4s-1.8,4-4,4c-2.2,0-4-1.8-4-4S181.3,208.6,183.5,208.6z"/>
<path style="fill:#4DBEEE;" d="M305.5,174.7c-3.3,0-6,2.7-6,6c0,3.3,2.7,6,6,6c3.3,0,6-2.7,6-6C311.5,177.4,308.8,174.7,305.5,174.7
	z M305.5,176.7c2.2,0,4,1.8,4,4s-1.8,4-4,4c-2.2,0-4-1.8-4-4S303.3,176.7,305.5,176.7z"/>
<path style="fill:#4DBEEE;" d="M427.5,159.5c-3.3,0-6,2.7-6,6c0,3.3,2.7,6,6,6c3.3,0,6-2.7,6-6C433.5,162.2,430.8,159.5,427.5,159.5
	z M427.5,161.5c2.2,0,4,1.8,4,4s-1.8,4-4,4c-2.2,0-4-1.8-4-4S425.3,161.5,427.5,161.5z"/>
<path style="fill:none;stroke:#A2142F;stroke-width:2;stroke-miterlimit:10;" d="M180,85.9l7.1-7.1 M180,78.8l7.1,7.1 M178.3,82.3
	h10.5 M183.5,77.1v10.5"/>
<path style="fill:none;stroke:#A2142F;stroke-width:2;stroke-miterlimit:10;" d="M302,64.2l7.1-7.1 M302,57.1l7.1,7.1 M300.3,60.7
	h10.5 M305.5,55.4v10.5"/>
<path style="fill:none;stroke:#A2142F;stroke-width:2;stroke-miterlimit:10;" d="M424,51.3l7.1-7.1 M424,44.3l7.1,7.1 M422.3,47.8
	h10.5 M427.5,42.6v10.5"/>
<rect x="441.8" y="60.8" style="fill:#FFFFFF;" width="113.3" height="120"/>
<text transform="matrix(1 0 0 1 477 72)" style="font-family:'ArialMT'; font-size:9px;">Bi</text>
<text transform="matrix(1 0 0 1 485.25 76.5)" style="font-family:'ArialMT'; font-size:7.2px;">6</text>
<text transform="matrix(1 0 0 1 489.75 72)" style="font-family:'ArialMT'; font-size:9px;">Sn</text>
<text transform="matrix(1 0 0 1 501 76.5)" style="font-family:'ArialMT'; font-size:7.2px;">2</text>
<text transform="matrix(1 0 0 1 505.5 72)" style="font-family:'ArialMT'; font-size:9px;">F</text>
<text transform="matrix(1 0 0 1 511.5 76.5)" style="font-family:'ArialMT'; font-size:7.2px;">22</text>
<text transform="matrix(1 0 0 1 519.75 72)" style="font-family:'ArialMT'; font-size:9px;">  </text>
<text transform="matrix(1 0 0 1 525 72)" style="font-family:'ArialMT'; font-size:9px;">1500</text>
<text transform="matrix(1 0 0 1 545.25 72)" style="font-family:'ArialMT'; font-size:9px;">K</text>
<path style="fill:none;stroke:#0072BD;stroke-width:2;stroke-miterlimit:10;" d="M456.6,73.6l6.4-6.4 M456.6,67.3l6.4,6.4
	 M455.3,70.4h9 M459.8,65.9v9"/>
<text transform="matrix(1 0 0 1 477 88.5)" style="font-family:'ArialMT'; font-size:9px;">Bi</text>
<text transform="matrix(1 0 0 1 485.25 93)" style="font-family:'ArialMT'; font-size:7.2px;">6</text>
<text transform="matrix(1 0 0 1 489.75 88.5)" style="font-family:'ArialMT'; font-size:9px;">Sn</text>
<text transform="matrix(1 0 0 1 501 93)" style="font-family:'ArialMT'; font-size:7.2px;">2</text>
<text transform="matrix(1 0 0 1 505.5 88.5)" style="font-family:'ArialMT'; font-size:9px;">F</text>
<text transform="matrix(1 0 0 1 511.5 93)" style="font-family:'ArialMT'; font-size:7.2px;">24</text>
<text transform="matrix(1 0 0 1 519.75 88.5)" style="font-family:'ArialMT'; font-size:9px;">  </text>
<text transform="matrix(1 0 0 1 525 88.5)" style="font-family:'ArialMT'; font-size:9px;">1500</text>
<text transform="matrix(1 0 0 1 545.25 88.5)" style="font-family:'ArialMT'; font-size:9px;">K</text>
<path style="fill:none;stroke:#D95319;stroke-width:2;stroke-miterlimit:10;" d="M455.3,87.2h9 M459.8,82.7v9"/>
<text transform="matrix(1 0 0 1 477 105.75)" style="font-family:'ArialMT'; font-size:9px;">Bi</text>
<text transform="matrix(1 0 0 1 485.25 110.25)" style="font-family:'ArialMT'; font-size:7.2px;">7</text>
<text transform="matrix(1 0 0 1 489.75 105.75)" style="font-family:'ArialMT'; font-size:9px;">SnF</text>
<text transform="matrix(1 0 0 1 507 110.25)" style="font-family:'ArialMT'; font-size:7.2px;">23</text>
<text transform="matrix(1 0 0 1 515.25 105.75)" style="font-family:'ArialMT'; font-size:9px;">  </text>
<text transform="matrix(1 0 0 1 520.5 105.75)" style="font-family:'ArialMT'; font-size:9px;">1500</text>
<text transform="matrix(1 0 0 1 540.75 105.75)" style="font-family:'ArialMT'; font-size:9px;">K</text>
<path style="fill:#EDB120;" d="M459.8,98.5c-3,0-5.5,2.5-5.5,5.5c0,3,2.5,5.5,5.5,5.5c3,0,5.5-2.5,5.5-5.5
	C465.3,100.9,462.8,98.5,459.8,98.5z M459.8,100.5c1.9,0,3.5,1.6,3.5,3.5c0,1.9-1.6,3.5-3.5,3.5c-1.9,0-3.5-1.6-3.5-3.5
	C456.3,102,457.8,100.5,459.8,100.5z"/>
<text transform="matrix(1 0 0 1 477 122.25)" style="font-family:'ArialMT'; font-size:9px;">Bi</text>
<text transform="matrix(1 0 0 1 485.25 126.75)" style="font-family:'ArialMT'; font-size:7.2px;">7</text>
<text transform="matrix(1 0 0 1 489.75 122.25)" style="font-family:'ArialMT'; font-size:9px;">SnF</text>
<text transform="matrix(1 0 0 1 507 126.75)" style="font-family:'ArialMT'; font-size:7.2px;">24</text>
<text transform="matrix(1 0 0 1 515.25 122.25)" style="font-family:'ArialMT'; font-size:9px;">  </text>
<text transform="matrix(1 0 0 1 520.5 122.25)" style="font-family:'ArialMT'; font-size:9px;">1500</text>
<text transform="matrix(1 0 0 1 540.75 122.25)" style="font-family:'ArialMT'; font-size:9px;">K</text>
<path style="fill:none;stroke:#7E2F8E;stroke-width:2;stroke-miterlimit:10;" d="M456.6,123.9l6.4-6.4 M456.6,117.6l6.4,6.4
	 M455.3,120.8h9 M459.8,116.3v9"/>
<text transform="matrix(1 0 0 1 477 138.75)" style="font-family:'ArialMT'; font-size:9px;">Bi</text>
<text transform="matrix(1 0 0 1 485.25 143.25)" style="font-family:'ArialMT'; font-size:7.2px;">8</text>
<text transform="matrix(1 0 0 1 489.75 138.75)" style="font-family:'ArialMT'; font-size:9px;">F</text>
<text transform="matrix(1 0 0 1 495.75 143.25)" style="font-family:'ArialMT'; font-size:7.2px;">22</text>
<text transform="matrix(1 0 0 1 504 138.75)" style="font-family:'ArialMT'; font-size:9px;">  </text>
<text transform="matrix(1 0 0 1 509.25 138.75)" style="font-family:'ArialMT'; font-size:9px;">1500</text>
<text transform="matrix(1 0 0 1 529.5 138.75)" style="font-family:'ArialMT'; font-size:9px;">K</text>
<path style="fill:none;stroke:#77AC30;stroke-width:2;stroke-miterlimit:10;" d="M455.3,137.5h9 M459.8,133v9"/>
<text transform="matrix(1 0 0 1 477 156)" style="font-family:'ArialMT'; font-size:9px;">Bi</text>
<text transform="matrix(1 0 0 1 485.25 160.5)" style="font-family:'ArialMT'; font-size:7.2px;">8</text>
<text transform="matrix(1 0 0 1 489.75 156)" style="font-family:'ArialMT'; font-size:9px;">F</text>
<text transform="matrix(1 0 0 1 495.75 160.5)" style="font-family:'ArialMT'; font-size:7.2px;">23</text>
<text transform="matrix(1 0 0 1 504 156)" style="font-family:'ArialMT'; font-size:9px;">  </text>
<text transform="matrix(1 0 0 1 509.25 156)" style="font-family:'ArialMT'; font-size:9px;">1500</text>
<text transform="matrix(1 0 0 1 529.5 156)" style="font-family:'ArialMT'; font-size:9px;">K</text>
<path style="fill:#4DBEEE;" d="M459.8,148.8c-3,0-5.5,2.5-5.5,5.5c0,3,2.5,5.5,5.5,5.5c3,0,5.5-2.5,5.5-5.5
	C465.3,151.3,462.8,148.8,459.8,148.8z M459.8,150.8c1.9,0,3.5,1.6,3.5,3.5s-1.6,3.5-3.5,3.5c-1.9,0-3.5-1.6-3.5-3.5
	S457.8,150.8,459.8,150.8z"/>
<text transform="matrix(1 0 0 1 477 172.5)" style="font-family:'ArialMT'; font-size:9px;">Bi</text>
<text transform="matrix(1 0 0 1 485.25 177)" style="font-family:'ArialMT'; font-size:7.2px;">8</text>
<text transform="matrix(1 0 0 1 489.75 172.5)" style="font-family:'ArialMT'; font-size:9px;">F</text>
<text transform="matrix(1 0 0 1 495.75 177)" style="font-family:'ArialMT'; font-size:7.2px;">24</text>
<text transform="matrix(1 0 0 1 504 172.5)" style="font-family:'ArialMT'; font-size:9px;">  </text>
<text transform="matrix(1 0 0 1 509.25 172.5)" style="font-family:'ArialMT'; font-size:9px;">1500</text>
<text transform="matrix(1 0 0 1 529.5 172.5)" style="font-family:'ArialMT'; font-size:9px;">K</text>
<path style="fill:none;stroke:#A2142F;stroke-width:2;stroke-miterlimit:10;" d="M456.6,174.2l6.4-6.4 M456.6,167.9l6.4,6.4
	 M455.3,171.1h9 M459.8,166.6v9"/>
<rect x="441.8" y="60.8" style="fill:none;stroke:#262626;stroke-width:0.5;stroke-miterlimit:10;" width="113.3" height="120"/>
</svg>
