<?xml version="1.0" encoding="utf-8"?>
<!-- Generator: Adobe Illustrator 23.0.1, SVG Export Plug-In . SVG Version: 6.00 Build 0)  -->
<svg version="1.1" id="Layer_1" xmlns="http://www.w3.org/2000/svg" xmlns:xlink="http://www.w3.org/1999/xlink" x="0px" y="0px"
	 viewBox="0 0 369 299" style="enable-background:new 0 0 369 299;" xml:space="preserve">
<rect x="-20" y="-18" style="fill:#FFFFFF;" width="420" height="315"/>
<rect x="-20" y="-18" style="fill:#FFFFFF;" width="420" height="315"/>
<rect x="34.8" y="5.3" style="fill:#FFFFFF;" width="325.5" height="250.5"/>
<line style="fill:none;stroke:#DFDFDF;stroke-width:0.5002;stroke-linejoin:round;stroke-miterlimit:10;" x1="34.8" y1="255.8" x2="34.8" y2="5.3"/>
<line style="fill:none;stroke:#DFDFDF;stroke-width:0.5002;stroke-linejoin:round;stroke-miterlimit:10;" x1="143.3" y1="255.8" x2="143.3" y2="5.3"/>
<line style="fill:none;stroke:#DFDFDF;stroke-width:0.5002;stroke-linejoin:round;stroke-miterlimit:10;" x1="251.8" y1="255.8" x2="251.8" y2="5.3"/>
<line style="fill:none;stroke:#DFDFDF;stroke-width:0.5002;stroke-linejoin:round;stroke-miterlimit:10;" x1="360.3" y1="255.8" x2="360.3" y2="5.3"/>
<line style="fill:none;stroke:#DFDFDF;stroke-width:0.5002;stroke-linejoin:round;stroke-miterlimit:10;" x1="360.3" y1="255.8" x2="34.8" y2="255.8"/>
<line style="fill:none;stroke:#DFDFDF;stroke-width:0.5002;stroke-linejoin:round;stroke-miterlimit:10;" x1="360.3" y1="230.7" x2="34.8" y2="230.7"/>
<line style="fill:none;stroke:#DFDFDF;stroke-width:0.5002;stroke-linejoin:round;stroke-miterlimit:10;" x1="360.3" y1="205.6" x2="34.8" y2="205.6"/>
<line style="fill:none;stroke:#DFDFDF;stroke-width:0.5002;stroke-linejoin:round;stroke-miterlimit:10;" x1="360.3" y1="180.6" x2="34.8" y2="180.6"/>
<line style="fill:none;stroke:#DFDFDF;stroke-width:0.5002;stroke-linejoin:round;stroke-miterlimit:10;" x1="360.3" y1="155.6" x2="34.8" y2="155.6"/>
<line style="fill:none;stroke:#DFDFDF;stroke-width:0.5002;stroke-linejoin:round;stroke-miterlimit:10;" x1="360.3" y1="130.5" x2="34.8" y2="130.5"/>
<line style="fill:none;stroke:#DFDFDF;stroke-width:0.5002;stroke-linejoin:round;stroke-miterlimit:10;" x1="360.3" y1="105.5" x2="34.8" y2="105.5"/>
<line style="fill:none;stroke:#DFDFDF;stroke-width:0.5002;stroke-linejoin:round;stroke-miterlimit:10;" x1="360.3" y1="80.4" x2="34.8" y2="80.4"/>
<line style="fill:none;stroke:#DFDFDF;stroke-width:0.5002;stroke-linejoin:round;stroke-miterlimit:10;" x1="360.3" y1="55.4" x2="34.8" y2="55.4"/>
<line style="fill:none;stroke:#DFDFDF;stroke-width:0.5002;stroke-linejoin:round;stroke-miterlimit:10;" x1="360.3" y1="30.3" x2="34.8" y2="30.3"/>
<line style="fill:none;stroke:#DFDFDF;stroke-width:0.5002;stroke-linejoin:round;stroke-miterlimit:10;" x1="360.3" y1="5.3" x2="34.8" y2="5.3"/>
<line style="fill:none;stroke:#262626;stroke-width:0.5002;stroke-linecap:square;stroke-linejoin:round;stroke-miterlimit:10;" x1="34.8" y1="255.8" x2="360.3" y2="255.8"/>
<line style="fill:none;stroke:#262626;stroke-width:0.5002;stroke-linecap:square;stroke-linejoin:round;stroke-miterlimit:10;" x1="34.8" y1="255.8" x2="34.8" y2="252.5"/>
<line style="fill:none;stroke:#262626;stroke-width:0.5002;stroke-linecap:square;stroke-linejoin:round;stroke-miterlimit:10;" x1="143.3" y1="255.8" x2="143.3" y2="252.5"/>
<line style="fill:none;stroke:#262626;stroke-width:0.5002;stroke-linecap:square;stroke-linejoin:round;stroke-miterlimit:10;" x1="251.8" y1="255.8" x2="251.8" y2="252.5"/>
<line style="fill:none;stroke:#262626;stroke-width:0.5002;stroke-linecap:square;stroke-linejoin:round;stroke-miterlimit:10;" x1="360.3" y1="255.8" x2="360.3" y2="252.5"/>
<text transform="matrix(-6.123234e-17 -1 1 -6.123234e-17 38.875 295)" style="fill:#262626; font-family:'ArialMT'; font-size:9.9998px;">4c to 4c</text>
<text transform="matrix(-6.123234e-17 -1 1 -6.123234e-17 147.375 295.75)" style="fill:#262626; font-family:'ArialMT'; font-size:9.9998px;">4c to 8d</text>
<text transform="matrix(-6.123234e-17 -1 1 -6.123234e-17 255.875 295.75)" style="fill:#262626; font-family:'ArialMT'; font-size:9.9998px;">8d to 4c</text>
<text transform="matrix(-6.123234e-17 -1 1 -6.123234e-17 364.375 296.5)" style="fill:#262626; font-family:'ArialMT'; font-size:9.9998px;">8d to 8d</text>
<line style="fill:none;stroke:#262626;stroke-width:0.5002;stroke-linecap:square;stroke-linejoin:round;stroke-miterlimit:10;" x1="34.8" y1="255.8" x2="34.8" y2="5.3"/>
<line style="fill:none;stroke:#262626;stroke-width:0.5002;stroke-linecap:square;stroke-linejoin:round;stroke-miterlimit:10;" x1="34.8" y1="255.8" x2="38" y2="255.8"/>
<line style="fill:none;stroke:#262626;stroke-width:0.5002;stroke-linecap:square;stroke-linejoin:round;stroke-miterlimit:10;" x1="34.8" y1="230.7" x2="38" y2="230.7"/>
<line style="fill:none;stroke:#262626;stroke-width:0.5002;stroke-linecap:square;stroke-linejoin:round;stroke-miterlimit:10;" x1="34.8" y1="205.6" x2="38" y2="205.6"/>
<line style="fill:none;stroke:#262626;stroke-width:0.5002;stroke-linecap:square;stroke-linejoin:round;stroke-miterlimit:10;" x1="34.8" y1="180.6" x2="38" y2="180.6"/>
<line style="fill:none;stroke:#262626;stroke-width:0.5002;stroke-linecap:square;stroke-linejoin:round;stroke-miterlimit:10;" x1="34.8" y1="155.6" x2="38" y2="155.6"/>
<line style="fill:none;stroke:#262626;stroke-width:0.5002;stroke-linecap:square;stroke-linejoin:round;stroke-miterlimit:10;" x1="34.8" y1="130.5" x2="38" y2="130.5"/>
<line style="fill:none;stroke:#262626;stroke-width:0.5002;stroke-linecap:square;stroke-linejoin:round;stroke-miterlimit:10;" x1="34.8" y1="105.5" x2="38" y2="105.5"/>
<line style="fill:none;stroke:#262626;stroke-width:0.5002;stroke-linecap:square;stroke-linejoin:round;stroke-miterlimit:10;" x1="34.8" y1="80.4" x2="38" y2="80.4"/>
<line style="fill:none;stroke:#262626;stroke-width:0.5002;stroke-linecap:square;stroke-linejoin:round;stroke-miterlimit:10;" x1="34.8" y1="55.4" x2="38" y2="55.4"/>
<line style="fill:none;stroke:#262626;stroke-width:0.5002;stroke-linecap:square;stroke-linejoin:round;stroke-miterlimit:10;" x1="34.8" y1="30.3" x2="38" y2="30.3"/>
<line style="fill:none;stroke:#262626;stroke-width:0.5002;stroke-linecap:square;stroke-linejoin:round;stroke-miterlimit:10;" x1="34.8" y1="5.3" x2="38" y2="5.3"/>
<text transform="matrix(1 0 0 1 24.75 259.875)" style="fill:#262626; font-family:'ArialMT'; font-size:9.9998px;">0</text>
<text transform="matrix(1 0 0 1 16.5 234.8252)" style="fill:#262626; font-family:'ArialMT'; font-size:9.9998px;">0.1</text>
<text transform="matrix(1 0 0 1 16.5 209.7754)" style="fill:#262626; font-family:'ArialMT'; font-size:9.9998px;">0.2</text>
<text transform="matrix(1 0 0 1 16.5 184.7246)" style="fill:#262626; font-family:'ArialMT'; font-size:9.9998px;">0.3</text>
<text transform="matrix(1 0 0 1 16.5 159.6748)" style="fill:#262626; font-family:'ArialMT'; font-size:9.9998px;">0.4</text>
<text transform="matrix(1 0 0 1 16.5 134.625)" style="fill:#262626; font-family:'ArialMT'; font-size:9.9998px;">0.5</text>
<text transform="matrix(1 0 0 1 16.5 109.5752)" style="fill:#262626; font-family:'ArialMT'; font-size:9.9998px;">0.6</text>
<text transform="matrix(1 0 0 1 16.5 84.5249)" style="fill:#262626; font-family:'ArialMT'; font-size:9.9998px;">0.7</text>
<text transform="matrix(1 0 0 1 16.5 59.4751)" style="fill:#262626; font-family:'ArialMT'; font-size:9.9998px;">0.8</text>
<text transform="matrix(1 0 0 1 16.5 34.4248)" style="fill:#262626; font-family:'ArialMT'; font-size:9.9998px;">0.9</text>
<text transform="matrix(1 0 0 1 24.75 9.375)" style="fill:#262626; font-family:'ArialMT'; font-size:9.9998px;">1</text>
<text transform="matrix(-6.123234e-17 -1 1 -6.123234e-17 10.5 184.875)" style="fill:#262626; font-family:'ArialMT'; font-size:11.0002px;">Activation energy (eV)</text>
<path style="fill:none;stroke:#0072BD;stroke-width:2.0002;stroke-linejoin:round;stroke-miterlimit:10;" d="M29.5,127.3H40
	 M34.8,122v10.5"/>
<path style="fill:none;stroke:#0072BD;stroke-width:2.0002;stroke-linejoin:round;stroke-miterlimit:10;" d="M138,202.6h10.5
	 M143.3,197.3v10.5"/>
<path style="fill:none;stroke:#0072BD;stroke-width:2.0002;stroke-linejoin:round;stroke-miterlimit:10;" d="M246.5,184.1H257
	 M251.8,178.9v10.5"/>
<path style="fill:none;stroke:#0072BD;stroke-width:2.0002;stroke-linejoin:round;stroke-miterlimit:10;" d="M355,179.4h10.5
	 M360.3,174.1v10.5"/>
<path style="fill:#D95319;" d="M34.8,140c-3.3,0-6,2.7-6,6c0,3.3,2.7,6,6,6s6-2.7,6-6C40.8,142.7,38.1,140,34.8,140 M34.8,142
	c2.2,0,4,1.8,4,4c0,2.2-1.8,4-4,4c-2.2,0-4-1.8-4-4C30.8,143.8,32.5,142,34.8,142z"/>
<path style="fill:#D95319;" d="M143.3,219.7c-3.3,0-6,2.7-6,6c0,3.3,2.7,6,6,6c3.3,0,6-2.7,6-6C149.3,222.4,146.6,219.7,143.3,219.7
	 M143.3,221.7c2.2,0,4,1.8,4,4c0,2.2-1.8,4-4,4c-2.2,0-4-1.8-4-4C139.3,223.5,141,221.7,143.3,221.7z"/>
<path style="fill:#D95319;" d="M251.8,187.6c-3.3,0-6,2.7-6,6c0,3.3,2.7,6,6,6c3.3,0,6-2.7,6-6C257.8,190.3,255.1,187.6,251.8,187.6
	 M251.8,189.6c2.2,0,4,1.8,4,4c0,2.2-1.8,4-4,4c-2.2,0-4-1.8-4-4C247.8,191.4,249.5,189.6,251.8,189.6z"/>
<path style="fill:#D95319;" d="M360.3,178.9c-3.3,0-6,2.7-6,6c0,3.3,2.7,6,6,6c3.3,0,6-2.7,6-6C366.3,181.6,363.6,178.9,360.3,178.9
	 M360.3,180.9c2.2,0,4,1.8,4,4c0,2.2-1.8,4-4,4c-2.2,0-4-1.8-4-4C356.3,182.7,358,180.9,360.3,180.9z"/>
<path style="fill:none;stroke:#EDB120;stroke-width:2.0002;stroke-linejoin:round;stroke-miterlimit:10;" d="M31.2,139.7l7.1-7.1
	 M31.2,132.6l7.1,7.1 M29.5,136.2H40 M34.8,130.9v10.5"/>
<path style="fill:none;stroke:#EDB120;stroke-width:2.0002;stroke-linejoin:round;stroke-miterlimit:10;" d="M139.7,227.6l7.1-7.1
	 M139.7,220.5l7.1,7.1 M138,224.1h10.5 M143.3,218.8v10.5"/>
<path style="fill:none;stroke:#EDB120;stroke-width:2.0002;stroke-linejoin:round;stroke-miterlimit:10;" d="M248.2,202.4l7.1-7.1
	 M248.2,195.3l7.1,7.1 M246.5,198.8H257 M251.8,193.6v10.5"/>
<path style="fill:none;stroke:#EDB120;stroke-width:2.0002;stroke-linejoin:round;stroke-miterlimit:10;" d="M356.7,186.2l7.1-7.1
	 M356.7,179.1l7.1,7.1 M355,182.7h10.5 M360.3,177.4v10.5"/>
<path style="fill:none;stroke:#7E2F8E;stroke-width:2.0002;stroke-linejoin:round;stroke-miterlimit:10;" d="M29.5,109.6H40
	 M34.8,104.3v10.5"/>
<path style="fill:none;stroke:#7E2F8E;stroke-width:2.0002;stroke-linejoin:round;stroke-miterlimit:10;" d="M138,227h10.5
	 M143.3,221.7v10.5"/>
<path style="fill:none;stroke:#7E2F8E;stroke-width:2.0002;stroke-linejoin:round;stroke-miterlimit:10;" d="M246.5,195.8H257
	 M251.8,190.6v10.5"/>
<path style="fill:none;stroke:#7E2F8E;stroke-width:2.0002;stroke-linejoin:round;stroke-miterlimit:10;" d="M355,179.8h10.5
	 M360.3,174.6v10.5"/>
<path style="fill:#77AC30;" d="M34.8,249.8c-3.3,0-6,2.7-6,6s2.7,6,6,6s6-2.7,6-6S38.1,249.8,34.8,249.8 M34.8,251.8
	c2.2,0,4,1.8,4,4c0,2.2-1.8,4-4,4c-2.2,0-4-1.8-4-4C30.8,253.5,32.5,251.8,34.8,251.8z"/>
<path style="fill:#77AC30;" d="M143.3,110.8c-3.3,0-6,2.7-6,6c0,3.3,2.7,6,6,6c3.3,0,6-2.7,6-6C149.3,113.5,146.6,110.8,143.3,110.8
	 M143.3,112.8c2.2,0,4,1.8,4,4c0,2.2-1.8,4-4,4c-2.2,0-4-1.8-4-4C139.3,114.6,141,112.8,143.3,112.8z"/>
<path style="fill:#77AC30;" d="M251.8,92.8c-3.3,0-6,2.7-6,6c0,3.3,2.7,6,6,6c3.3,0,6-2.7,6-6C257.8,95.5,255.1,92.8,251.8,92.8
	 M251.8,94.8c2.2,0,4,1.8,4,4c0,2.2-1.8,4-4,4c-2.2,0-4-1.8-4-4C247.8,96.6,249.5,94.8,251.8,94.8z"/>
<path style="fill:#77AC30;" d="M360.3,120.2c-3.3,0-6,2.7-6,6c0,3.3,2.7,6,6,6c3.3,0,6-2.7,6-6C366.3,122.9,363.6,120.2,360.3,120.2
	 M360.3,122.2c2.2,0,4,1.8,4,4c0,2.2-1.8,4-4,4c-2.2,0-4-1.8-4-4C356.3,124,358,122.2,360.3,122.2z"/>
<path style="fill:none;stroke:#4DBEEE;stroke-width:2.0002;stroke-linejoin:round;stroke-miterlimit:10;" d="M31.2,259.3l7.1-7.1
	 M31.2,252.2l7.1,7.1 M29.5,255.8H40 M34.8,250.5V261"/>
<path style="fill:none;stroke:#4DBEEE;stroke-width:2.0002;stroke-linejoin:round;stroke-miterlimit:10;" d="M139.7,177.8l7.1-7.1
	 M139.7,170.8l7.1,7.1 M138,174.3h10.5 M143.3,169.1v10.5"/>
<path style="fill:none;stroke:#4DBEEE;stroke-width:2.0002;stroke-linejoin:round;stroke-miterlimit:10;" d="M248.2,165.4l7.1-7.1
	 M248.2,158.3l7.1,7.1 M246.5,161.9H257 M251.8,156.6v10.5"/>
<path style="fill:none;stroke:#4DBEEE;stroke-width:2.0002;stroke-linejoin:round;stroke-miterlimit:10;" d="M356.7,162.8l7.1-7.1
	 M356.7,155.8l7.1,7.1 M355,159.3h10.5 M360.3,154.1v10.5"/>
<path style="fill:none;stroke:#A2142F;stroke-width:2.0002;stroke-linejoin:round;stroke-miterlimit:10;" d="M29.5,81.3H40 M34.8,76
	v10.5"/>
<path style="fill:none;stroke:#A2142F;stroke-width:2.0002;stroke-linejoin:round;stroke-miterlimit:10;" d="M138,198.4h10.5
	 M143.3,193.1v10.5"/>
<path style="fill:none;stroke:#A2142F;stroke-width:2.0002;stroke-linejoin:round;stroke-miterlimit:10;" d="M246.5,172.7H257
	 M251.8,167.5V178"/>
<path style="fill:none;stroke:#A2142F;stroke-width:2.0002;stroke-linejoin:round;stroke-miterlimit:10;" d="M355,164.5h10.5
	 M360.3,159.3v10.5"/>
<path style="fill:#0072BD;" d="M34.8,72.9c-3.3,0-6,2.7-6,6c0,3.3,2.7,6,6,6s6-2.7,6-6C40.8,75.6,38.1,72.9,34.8,72.9 M34.8,74.9
	c2.2,0,4,1.8,4,4c0,2.2-1.8,4-4,4c-2.2,0-4-1.8-4-4C30.8,76.7,32.5,74.9,34.8,74.9z"/>
<path style="fill:#0072BD;" d="M143.3,199.6c-3.3,0-6,2.7-6,6c0,3.3,2.7,6,6,6c3.3,0,6-2.7,6-6C149.3,202.3,146.6,199.6,143.3,199.6
	 M143.3,201.6c2.2,0,4,1.8,4,4c0,2.2-1.8,4-4,4c-2.2,0-4-1.8-4-4C139.3,203.4,141,201.6,143.3,201.6z"/>
<path style="fill:#0072BD;" d="M251.8,171.1c-3.3,0-6,2.7-6,6c0,3.3,2.7,6,6,6c3.3,0,6-2.7,6-6C257.8,173.7,255.1,171.1,251.8,171.1
	 M251.8,173.1c2.2,0,4,1.8,4,4c0,2.2-1.8,4-4,4c-2.2,0-4-1.8-4-4C247.8,174.8,249.5,173.1,251.8,173.1z"/>
<path style="fill:#0072BD;" d="M360.3,171.9c-3.3,0-6,2.7-6,6c0,3.3,2.7,6,6,6c3.3,0,6-2.7,6-6C366.3,174.6,363.6,171.9,360.3,171.9
	 M360.3,173.9c2.2,0,4,1.8,4,4c0,2.2-1.8,4-4,4c-2.2,0-4-1.8-4-4C356.3,175.7,358,173.9,360.3,173.9z"/>
<path style="fill:none;stroke:#D95319;stroke-width:2.0002;stroke-linejoin:round;stroke-miterlimit:10;" d="M31.2,259.3l7.1-7.1
	 M31.2,252.2l7.1,7.1 M29.5,255.8H40 M34.8,250.5V261"/>
<path style="fill:none;stroke:#D95319;stroke-width:2.0002;stroke-linejoin:round;stroke-miterlimit:10;" d="M139.7,259.3l7.1-7.1
	 M139.7,252.2l7.1,7.1 M138,255.8h10.5 M143.3,250.5V261"/>
<path style="fill:none;stroke:#D95319;stroke-width:2.0002;stroke-linejoin:round;stroke-miterlimit:10;" d="M248.2,259.3l7.1-7.1
	 M248.2,252.2l7.1,7.1 M246.5,255.8H257 M251.8,250.5V261"/>
<path style="fill:none;stroke:#D95319;stroke-width:2.0002;stroke-linejoin:round;stroke-miterlimit:10;" d="M356.7,259.3l7.1-7.1
	 M356.7,252.2l7.1,7.1 M355,255.8h10.5 M360.3,250.5V261"/>
<path style="fill:none;stroke:#EDB120;stroke-width:2.0002;stroke-linejoin:round;stroke-miterlimit:10;" d="M29.5,255.8H40
	 M34.8,250.5V261"/>
<path style="fill:none;stroke:#EDB120;stroke-width:2.0002;stroke-linejoin:round;stroke-miterlimit:10;" d="M138,255.8h10.5
	 M143.3,250.5V261"/>
<path style="fill:none;stroke:#EDB120;stroke-width:2.0002;stroke-linejoin:round;stroke-miterlimit:10;" d="M246.5,255.8H257
	 M251.8,250.5V261"/>
<path style="fill:none;stroke:#EDB120;stroke-width:2.0002;stroke-linejoin:round;stroke-miterlimit:10;" d="M355,255.8h10.5
	 M360.3,250.5V261"/>
<path style="fill:#7E2F8E;" d="M34.8,249.8c-3.3,0-6,2.7-6,6s2.7,6,6,6s6-2.7,6-6S38.1,249.8,34.8,249.8 M34.8,251.8
	c2.2,0,4,1.8,4,4c0,2.2-1.8,4-4,4c-2.2,0-4-1.8-4-4C30.8,253.5,32.5,251.8,34.8,251.8z"/>
<path style="fill:#7E2F8E;" d="M143.3,41c-3.3,0-6,2.7-6,6c0,3.3,2.7,6,6,6c3.3,0,6-2.7,6-6C149.3,43.7,146.6,41,143.3,41 M143.3,43
	c2.2,0,4,1.8,4,4c0,2.2-1.8,4-4,4c-2.2,0-4-1.8-4-4C139.3,44.8,141,43,143.3,43z"/>
<path style="fill:#7E2F8E;" d="M251.8,16.7c-3.3,0-6,2.7-6,6c0,3.3,2.7,6,6,6c3.3,0,6-2.7,6-6C257.8,19.4,255.1,16.7,251.8,16.7
	 M251.8,18.7c2.2,0,4,1.8,4,4c0,2.2-1.8,4-4,4c-2.2,0-4-1.8-4-4C247.8,20.5,249.5,18.7,251.8,18.7z"/>
<path style="fill:#7E2F8E;" d="M360.3,32.2c-3.3,0-6,2.7-6,6c0,3.3,2.7,6,6,6c3.3,0,6-2.7,6-6C366.3,34.9,363.6,32.2,360.3,32.2
	 M360.3,34.2c2.2,0,4,1.8,4,4c0,2.2-1.8,4-4,4c-2.2,0-4-1.8-4-4C356.3,36,358,34.2,360.3,34.2z"/>
<path style="fill:none;stroke:#77AC30;stroke-width:2.0002;stroke-linejoin:round;stroke-miterlimit:10;" d="M31.2,93.1l7.1-7.1
	 M31.2,86l7.1,7.1 M29.5,89.5H40 M34.8,84.3v10.5"/>
<path style="fill:none;stroke:#77AC30;stroke-width:2.0002;stroke-linejoin:round;stroke-miterlimit:10;" d="M139.7,199.8l7.1-7.1
	 M139.7,192.7l7.1,7.1 M138,196.3h10.5 M143.3,191v10.5"/>
<path style="fill:none;stroke:#77AC30;stroke-width:2.0002;stroke-linejoin:round;stroke-miterlimit:10;" d="M248.2,168.6l7.1-7.1
	 M248.2,161.5l7.1,7.1 M246.5,165.1H257 M251.8,159.8v10.5"/>
<path style="fill:none;stroke:#77AC30;stroke-width:2.0002;stroke-linejoin:round;stroke-miterlimit:10;" d="M356.7,137.3l7.1-7.1
	 M356.7,130.2l7.1,7.1 M355,133.7h10.5 M360.3,128.5V139"/>
<path style="fill:none;stroke:#4DBEEE;stroke-width:2.0002;stroke-linejoin:round;stroke-miterlimit:10;" d="M29.5,255.8H40
	 M34.8,250.5V261"/>
<path style="fill:none;stroke:#4DBEEE;stroke-width:2.0002;stroke-linejoin:round;stroke-miterlimit:10;" d="M138,120.9h10.5
	 M143.3,115.6v10.5"/>
<path style="fill:none;stroke:#4DBEEE;stroke-width:2.0002;stroke-linejoin:round;stroke-miterlimit:10;" d="M246.5,112.4H257
	 M251.8,107.1v10.5"/>
<path style="fill:none;stroke:#4DBEEE;stroke-width:2.0002;stroke-linejoin:round;stroke-miterlimit:10;" d="M355,126.7h10.5
	 M360.3,121.5V132"/>
<path style="fill:#A2142F;" d="M34.8,74.9c-3.3,0-6,2.7-6,6c0,3.3,2.7,6,6,6s6-2.7,6-6C40.8,77.6,38.1,74.9,34.8,74.9 M34.8,76.9
	c2.2,0,4,1.8,4,4c0,2.2-1.8,4-4,4c-2.2,0-4-1.8-4-4C30.8,78.7,32.5,76.9,34.8,76.9z"/>
<path style="fill:#A2142F;" d="M143.3,173c-3.3,0-6,2.7-6,6c0,3.3,2.7,6,6,6c3.3,0,6-2.7,6-6C149.3,175.6,146.6,173,143.3,173
	 M143.3,175c2.2,0,4,1.8,4,4c0,2.2-1.8,4-4,4c-2.2,0-4-1.8-4-4C139.3,176.8,141,175,143.3,175z"/>
<path style="fill:#A2142F;" d="M251.8,150.2c-3.3,0-6,2.7-6,6c0,3.3,2.7,6,6,6c3.3,0,6-2.7,6-6C257.8,152.9,255.1,150.2,251.8,150.2
	 M251.8,152.2c2.2,0,4,1.8,4,4c0,2.2-1.8,4-4,4c-2.2,0-4-1.8-4-4C247.8,154,249.5,152.2,251.8,152.2z"/>
<path style="fill:#A2142F;" d="M360.3,148.1c-3.3,0-6,2.7-6,6c0,3.3,2.7,6,6,6c3.3,0,6-2.7,6-6C366.3,150.8,363.6,148.1,360.3,148.1
	 M360.3,150.1c2.2,0,4,1.8,4,4c0,2.2-1.8,4-4,4c-2.2,0-4-1.8-4-4C356.3,151.9,358,150.1,360.3,150.1z"/>
<path style="fill:none;stroke:#0072BD;stroke-width:2.0002;stroke-linejoin:round;stroke-miterlimit:10;" d="M31.2,118.7l7.1-7.1
	 M31.2,111.6l7.1,7.1 M29.5,115.1H40 M34.8,109.9v10.5"/>
<path style="fill:none;stroke:#0072BD;stroke-width:2.0002;stroke-linejoin:round;stroke-miterlimit:10;" d="M139.7,214l7.1-7.1
	 M139.7,206.9l7.1,7.1 M138,210.5h10.5 M143.3,205.2v10.5"/>
<path style="fill:none;stroke:#0072BD;stroke-width:2.0002;stroke-linejoin:round;stroke-miterlimit:10;" d="M248.2,195l7.1-7.1
	 M248.2,187.9l7.1,7.1 M246.5,191.5H257 M251.8,186.2v10.5"/>
<path style="fill:none;stroke:#0072BD;stroke-width:2.0002;stroke-linejoin:round;stroke-miterlimit:10;" d="M356.7,182.6l7.1-7.1
	 M356.7,175.5l7.1,7.1 M355,179h10.5 M360.3,173.8v10.5"/>
<path style="fill:none;stroke:#D95319;stroke-width:2.0002;stroke-linejoin:round;stroke-miterlimit:10;" d="M29.5,107.9H40
	 M34.8,102.6v10.5"/>
<path style="fill:none;stroke:#D95319;stroke-width:2.0002;stroke-linejoin:round;stroke-miterlimit:10;" d="M138,218h10.5
	 M143.3,212.8v10.5"/>
<path style="fill:none;stroke:#D95319;stroke-width:2.0002;stroke-linejoin:round;stroke-miterlimit:10;" d="M246.5,195H257
	 M251.8,189.7v10.5"/>
<path style="fill:none;stroke:#D95319;stroke-width:2.0002;stroke-linejoin:round;stroke-miterlimit:10;" d="M355,172.2h10.5
	 M360.3,167v10.5"/>
<path style="fill:#EDB120;" d="M34.8,249.8c-3.3,0-6,2.7-6,6s2.7,6,6,6s6-2.7,6-6S38.1,249.8,34.8,249.8 M34.8,251.8
	c2.2,0,4,1.8,4,4c0,2.2-1.8,4-4,4c-2.2,0-4-1.8-4-4C30.8,253.5,32.5,251.8,34.8,251.8z"/>
<path style="fill:#EDB120;" d="M143.3,100.4c-3.3,0-6,2.7-6,6c0,3.3,2.7,6,6,6c3.3,0,6-2.7,6-6C149.3,103.1,146.6,100.4,143.3,100.4
	 M143.3,102.4c2.2,0,4,1.8,4,4c0,2.2-1.8,4-4,4c-2.2,0-4-1.8-4-4C139.3,104.2,141,102.4,143.3,102.4z"/>
<path style="fill:#EDB120;" d="M251.8,85.1c-3.3,0-6,2.7-6,6c0,3.3,2.7,6,6,6c3.3,0,6-2.7,6-6C257.8,87.8,255.1,85.1,251.8,85.1
	 M251.8,87.1c2.2,0,4,1.8,4,4c0,2.2-1.8,4-4,4c-2.2,0-4-1.8-4-4C247.8,88.9,249.5,87.1,251.8,87.1z"/>
<path style="fill:#EDB120;" d="M360.3,100c-3.3,0-6,2.7-6,6s2.7,6,6,6c3.3,0,6-2.7,6-6S363.6,100,360.3,100 M360.3,102
	c2.2,0,4,1.8,4,4s-1.8,4-4,4c-2.2,0-4-1.8-4-4S358,102,360.3,102z"/>
<path style="fill:none;stroke:#7E2F8E;stroke-width:2.0002;stroke-linejoin:round;stroke-miterlimit:10;" d="M31.2,259.3l7.1-7.1
	 M31.2,252.2l7.1,7.1 M29.5,255.8H40 M34.8,250.5V261"/>
<path style="fill:none;stroke:#7E2F8E;stroke-width:2.0002;stroke-linejoin:round;stroke-miterlimit:10;" d="M139.7,115.4l7.1-7.1
	 M139.7,108.3l7.1,7.1 M138,111.9h10.5 M143.3,106.6v10.5"/>
<path style="fill:none;stroke:#7E2F8E;stroke-width:2.0002;stroke-linejoin:round;stroke-miterlimit:10;" d="M248.2,92.6l7.1-7.1
	 M248.2,85.6l7.1,7.1 M246.5,89.1H257 M251.8,83.8v10.5"/>
<path style="fill:none;stroke:#7E2F8E;stroke-width:2.0002;stroke-linejoin:round;stroke-miterlimit:10;" d="M356.7,101.7l7.1-7.1
	 M356.7,94.6l7.1,7.1 M355,98.1h10.5 M360.3,92.9v10.5"/>
<path style="fill:none;stroke:#77AC30;stroke-width:2.0002;stroke-linejoin:round;stroke-miterlimit:10;" d="M29.5,99H40 M34.8,93.7
	v10.5"/>
<path style="fill:none;stroke:#77AC30;stroke-width:2.0002;stroke-linejoin:round;stroke-miterlimit:10;" d="M138,220.2h10.5
	 M143.3,215v10.5"/>
<path style="fill:none;stroke:#77AC30;stroke-width:2.0002;stroke-linejoin:round;stroke-miterlimit:10;" d="M246.5,184.7H257
	 M251.8,179.5V190"/>
<path style="fill:none;stroke:#77AC30;stroke-width:2.0002;stroke-linejoin:round;stroke-miterlimit:10;" d="M355,167.8h10.5
	 M360.3,162.5V173"/>
<path style="fill:#4DBEEE;" d="M34.8,87.9c-3.3,0-6,2.7-6,6c0,3.3,2.7,6,6,6s6-2.7,6-6C40.8,90.6,38.1,87.9,34.8,87.9 M34.8,89.9
	c2.2,0,4,1.8,4,4c0,2.2-1.8,4-4,4c-2.2,0-4-1.8-4-4C30.8,91.7,32.5,89.9,34.8,89.9z"/>
<path style="fill:#4DBEEE;" d="M143.3,211.9c-3.3,0-6,2.7-6,6c0,3.3,2.7,6,6,6c3.3,0,6-2.7,6-6C149.3,214.6,146.6,211.9,143.3,211.9
	 M143.3,213.9c2.2,0,4,1.8,4,4c0,2.2-1.8,4-4,4c-2.2,0-4-1.8-4-4C139.3,215.7,141,213.9,143.3,213.9z"/>
<path style="fill:#4DBEEE;" d="M251.8,186.6c-3.3,0-6,2.7-6,6c0,3.3,2.7,6,6,6c3.3,0,6-2.7,6-6C257.8,189.3,255.1,186.6,251.8,186.6
	 M251.8,188.6c2.2,0,4,1.8,4,4c0,2.2-1.8,4-4,4c-2.2,0-4-1.8-4-4C247.8,190.4,249.5,188.6,251.8,188.6z"/>
<path style="fill:#4DBEEE;" d="M360.3,168.9c-3.3,0-6,2.7-6,6c0,3.3,2.7,6,6,6c3.3,0,6-2.7,6-6C366.3,171.5,363.6,168.9,360.3,168.9
	 M360.3,170.9c2.2,0,4,1.8,4,4c0,2.2-1.8,4-4,4c-2.2,0-4-1.8-4-4C356.3,172.7,358,170.9,360.3,170.9z"/>
<path style="fill:none;stroke:#A2142F;stroke-width:2.0002;stroke-linejoin:round;stroke-miterlimit:10;" d="M31.2,259.3l7.1-7.1
	 M31.2,252.2l7.1,7.1 M29.5,255.8H40 M34.8,250.5V261"/>
<path style="fill:none;stroke:#A2142F;stroke-width:2.0002;stroke-linejoin:round;stroke-miterlimit:10;" d="M139.7,259.3l7.1-7.1
	 M139.7,252.2l7.1,7.1 M138,255.8h10.5 M143.3,250.5V261"/>
<path style="fill:none;stroke:#A2142F;stroke-width:2.0002;stroke-linejoin:round;stroke-miterlimit:10;" d="M248.2,259.3l7.1-7.1
	 M248.2,252.2l7.1,7.1 M246.5,255.8H257 M251.8,250.5V261"/>
<path style="fill:none;stroke:#A2142F;stroke-width:2.0002;stroke-linejoin:round;stroke-miterlimit:10;" d="M356.7,259.3l7.1-7.1
	 M356.7,252.2l7.1,7.1 M355,255.8h10.5 M360.3,250.5V261"/>
<path style="fill:none;stroke:#0072BD;stroke-width:2.0002;stroke-linejoin:round;stroke-miterlimit:10;" d="M29.5,255.8H40
	 M34.8,250.5V261"/>
<path style="fill:none;stroke:#0072BD;stroke-width:2.0002;stroke-linejoin:round;stroke-miterlimit:10;" d="M138,255.8h10.5
	 M143.3,250.5V261"/>
<path style="fill:none;stroke:#0072BD;stroke-width:2.0002;stroke-linejoin:round;stroke-miterlimit:10;" d="M246.5,255.8H257
	 M251.8,250.5V261"/>
<path style="fill:none;stroke:#0072BD;stroke-width:2.0002;stroke-linejoin:round;stroke-miterlimit:10;" d="M355,255.8h10.5
	 M360.3,250.5V261"/>
<path style="fill:#D95319;" d="M34.8,249.8c-3.3,0-6,2.7-6,6s2.7,6,6,6s6-2.7,6-6S38.1,249.8,34.8,249.8 M34.8,251.8
	c2.2,0,4,1.8,4,4c0,2.2-1.8,4-4,4c-2.2,0-4-1.8-4-4C30.8,253.5,32.5,251.8,34.8,251.8z"/>
<path style="fill:#D95319;" d="M143.3,69.2c-3.3,0-6,2.7-6,6c0,3.3,2.7,6,6,6c3.3,0,6-2.7,6-6C149.3,71.9,146.6,69.2,143.3,69.2
	 M143.3,71.2c2.2,0,4,1.8,4,4c0,2.2-1.8,4-4,4c-2.2,0-4-1.8-4-4C139.3,73,141,71.2,143.3,71.2z"/>
<path style="fill:#D95319;" d="M251.8,45.1c-3.3,0-6,2.7-6,6c0,3.3,2.7,6,6,6c3.3,0,6-2.7,6-6C257.8,47.8,255.1,45.1,251.8,45.1
	 M251.8,47.1c2.2,0,4,1.8,4,4c0,2.2-1.8,4-4,4c-2.2,0-4-1.8-4-4C247.8,48.9,249.5,47.1,251.8,47.1z"/>
<path style="fill:#D95319;" d="M360.3,30.8c-3.3,0-6,2.7-6,6c0,3.3,2.7,6,6,6c3.3,0,6-2.7,6-6C366.3,33.5,363.6,30.8,360.3,30.8
	 M360.3,32.8c2.2,0,4,1.8,4,4c0,2.2-1.8,4-4,4c-2.2,0-4-1.8-4-4C356.3,34.6,358,32.8,360.3,32.8z"/>
<path style="fill:none;stroke:#EDB120;stroke-width:2.0002;stroke-linejoin:round;stroke-miterlimit:10;" d="M31.2,77.3l7.1-7.1
	 M31.2,70.2l7.1,7.1 M29.5,73.8H40 M34.8,68.5V79"/>
<path style="fill:none;stroke:#EDB120;stroke-width:2.0002;stroke-linejoin:round;stroke-miterlimit:10;" d="M139.7,202.7l7.1-7.1
	 M139.7,195.6l7.1,7.1 M138,199.2h10.5 M143.3,193.9v10.5"/>
<path style="fill:none;stroke:#EDB120;stroke-width:2.0002;stroke-linejoin:round;stroke-miterlimit:10;" d="M248.2,177.4l7.1-7.1
	 M248.2,170.3l7.1,7.1 M246.5,173.9H257 M251.8,168.6v10.5"/>
<path style="fill:none;stroke:#EDB120;stroke-width:2.0002;stroke-linejoin:round;stroke-miterlimit:10;" d="M356.7,161.6l7.1-7.1
	 M356.7,154.5l7.1,7.1 M355,158.1h10.5 M360.3,152.8v10.5"/>
</svg>
