<?xml version="1.0" encoding="utf-8"?>
<!-- Generator: Adobe Illustrator 23.0.1, SVG Export Plug-In . SVG Version: 6.00 Build 0)  -->
<svg version="1.1" id="Layer_1" xmlns="http://www.w3.org/2000/svg" xmlns:xlink="http://www.w3.org/1999/xlink" x="0px" y="0px"
	 viewBox="0 0 396 290" style="enable-background:new 0 0 396 290;" xml:space="preserve">
<rect x="2" y="-17" style="fill:#FFFFFF;" width="420" height="315"/>
<rect x="2" y="-17" style="fill:#FFFFFF;" width="420" height="315"/>
<polyline style="fill:#FFFFFF;" points="99.7,254.7 382.3,246 382.3,47 349.8,15.1 67.3,23.7 67.3,222.7 "/>
<line style="fill:none;stroke:#000000;stroke-width:0.5002;stroke-linejoin:round;stroke-miterlimit:10;" x1="382.3" y1="246" x2="349.8" y2="214.1"/>
<line style="fill:none;stroke:#000000;stroke-width:0.5002;stroke-linejoin:round;stroke-miterlimit:10;" x1="349.8" y1="214.1" x2="349.8" y2="15.1"/>
<line style="fill:none;stroke:#000000;stroke-width:0.5002;stroke-linejoin:round;stroke-miterlimit:10;" x1="67.3" y1="222.7" x2="349.8" y2="214.1"/>
<line style="fill:none;stroke:#000000;stroke-width:0.5002;stroke-linejoin:round;stroke-miterlimit:10;" x1="349.8" y1="214.1" x2="349.8" y2="15.1"/>
<line style="fill:none;stroke:#FF0000;stroke-width:0.9998;stroke-linejoin:round;stroke-miterlimit:10;" x1="229.2" y1="69.8" x2="234" y2="80.8"/>
<line style="fill:none;stroke:#FF0000;stroke-width:1.6935;stroke-linejoin:round;stroke-miterlimit:10;" x1="305.4" y1="109.2" x2="324.4" y2="152.7"/>
<text transform="matrix(1 0 0 1 53.3643 219.1074)" style="fill:#262626; font-family:'ArialMT'; font-size:9.9998px;">0</text>
<text transform="matrix(1 0 0 1 53.3643 191.041)" style="fill:#262626; font-family:'ArialMT'; font-size:9.9998px;">1</text>
<text transform="matrix(1 0 0 1 53.3643 162.9756)" style="fill:#262626; font-family:'ArialMT'; font-size:9.9998px;">2</text>
<text transform="matrix(1 0 0 1 53.3643 134.9092)" style="fill:#262626; font-family:'ArialMT'; font-size:9.9998px;">3</text>
<line style="fill:none;stroke:#262626;stroke-width:0.5002;stroke-linejoin:round;stroke-miterlimit:10;" x1="67.3" y1="222.7" x2="62.2" y2="217.8"/>
<line style="fill:none;stroke:#FF0000;stroke-width:0.9998;stroke-linejoin:round;stroke-miterlimit:10;" x1="229.2" y1="69.8" x2="234" y2="55.9"/>
<text transform="matrix(1 0 0 1 53.3643 106.8428)" style="fill:#262626; font-family:'ArialMT'; font-size:9.9998px;">4</text>
<line style="fill:none;stroke:#262626;stroke-width:0.5002;stroke-linecap:round;stroke-linejoin:round;stroke-miterlimit:10;" x1="67.3" y1="194.7" x2="62.2" y2="189.7"/>
<line style="fill:none;stroke:#FF0000;stroke-width:0.9998;stroke-linejoin:round;stroke-miterlimit:10;" x1="87.9" y1="74.2" x2="92.7" y2="85.2"/>
<text transform="matrix(1 0 0 1 53.3643 78.7759)" style="fill:#262626; font-family:'ArialMT'; font-size:9.9998px;">5</text>
<text transform="matrix(1 0 0 1 309.9834 106.5859)" style="font-family:'ArialMT'; font-size:9.9998px;">8d</text>
<line style="fill:none;stroke:#FF0000;stroke-width:0.9998;stroke-linejoin:round;stroke-miterlimit:10;" x1="305.4" y1="109.2" x2="352.2" y2="77.8"/>
<line style="fill:none;stroke:#FF0000;stroke-width:1.6935;stroke-linejoin:round;stroke-miterlimit:10;" x1="305.4" y1="33.7" x2="352.2" y2="56.6"/>
<line style="fill:none;stroke:#262626;stroke-width:0.5002;stroke-linecap:round;stroke-linejoin:round;stroke-miterlimit:10;" x1="67.3" y1="166.6" x2="62.2" y2="161.7"/>
<text transform="matrix(1 0 0 1 53.3643 50.71)" style="fill:#262626; font-family:'ArialMT'; font-size:9.9998px;">6</text>
<line style="fill:none;stroke:#000000;stroke-width:0.5002;stroke-linejoin:round;stroke-miterlimit:10;" x1="382.3" y1="47" x2="349.8" y2="15.1"/>
<line style="fill:none;stroke:#000000;stroke-width:0.5002;stroke-linejoin:round;stroke-miterlimit:10;" x1="382.3" y1="47" x2="349.8" y2="15.1"/>
<line style="fill:none;stroke:#FF0000;stroke-width:0.9998;stroke-linejoin:round;stroke-miterlimit:10;" x1="87.9" y1="74.2" x2="92.7" y2="60.2"/>
<line style="fill:none;stroke:#000000;stroke-width:0.5002;stroke-linejoin:round;stroke-miterlimit:10;" x1="67.3" y1="23.7" x2="349.8" y2="15.1"/>
<line style="fill:none;stroke:#000000;stroke-width:0.5002;stroke-linejoin:round;stroke-miterlimit:10;" x1="67.3" y1="23.7" x2="349.8" y2="15.1"/>
<line style="fill:none;stroke:#FF0000;stroke-width:0.9998;stroke-linejoin:round;stroke-miterlimit:10;" x1="273" y1="224.7" x2="240.5" y2="216.6"/>
<line style="fill:none;stroke:#262626;stroke-width:0.5002;stroke-linecap:round;stroke-linejoin:round;stroke-miterlimit:10;" x1="67.3" y1="138.5" x2="62.2" y2="133.6"/>
<text transform="matrix(1 0 0 1 53.3643 22.6431)" style="fill:#262626; font-family:'ArialMT'; font-size:9.9998px;">7</text>
<line style="fill:none;stroke:#FF0000;stroke-width:0.9998;stroke-linejoin:round;stroke-miterlimit:10;" x1="305.4" y1="33.7" x2="310" y2="20.3"/>
<line style="fill:none;stroke:#262626;stroke-width:0.5002;stroke-linejoin:round;stroke-miterlimit:10;" x1="67.3" y1="222.7" x2="67.3" y2="23.7"/>
<line style="fill:none;stroke:#000000;stroke-width:0.5002;stroke-linejoin:round;stroke-miterlimit:10;" x1="67.3" y1="222.7" x2="67.3" y2="23.7"/>
<line style="fill:none;stroke:#FF0000;stroke-width:0.9998;stroke-linejoin:round;stroke-miterlimit:10;" x1="72.3" y1="196.1" x2="83.9" y2="206.2"/>
<line style="fill:none;stroke:#262626;stroke-width:0.5002;stroke-linecap:round;stroke-linejoin:round;stroke-miterlimit:10;" x1="67.3" y1="110.5" x2="62.2" y2="105.5"/>
<line style="fill:none;stroke:#FF0000;stroke-width:0.9998;stroke-linejoin:round;stroke-miterlimit:10;" x1="97" y1="231.1" x2="99.2" y2="220.9"/>
<line style="fill:none;stroke:#262626;stroke-width:0.5002;stroke-linecap:round;stroke-linejoin:round;stroke-miterlimit:10;" x1="67.3" y1="82.4" x2="62.2" y2="77.5"/>
<line style="fill:none;stroke:#262626;stroke-width:0.5002;stroke-linecap:square;stroke-linejoin:round;stroke-miterlimit:10;" x1="99.7" y1="254.7" x2="67.3" y2="222.7"/>
<line style="fill:none;stroke:#000000;stroke-width:0.5002;stroke-linecap:square;stroke-linejoin:round;stroke-miterlimit:10;" x1="99.7" y1="254.7" x2="67.3" y2="222.7"/>
<text transform="matrix(1 0 0 1 233.8271 67.2109)" style="font-family:'ArialMT'; font-size:9.9998px;">4c</text>
<line style="fill:none;stroke:#262626;stroke-width:0.5002;stroke-linecap:round;stroke-linejoin:round;stroke-miterlimit:10;" x1="67.3" y1="54.4" x2="62.2" y2="49.4"/>
<line style="fill:none;stroke:#FF0000;stroke-width:0.9998;stroke-linejoin:round;stroke-miterlimit:10;" x1="164.1" y1="38.1" x2="229.2" y2="69.8"/>
<line style="fill:none;stroke:#FF0000;stroke-width:1.6935;stroke-linejoin:round;stroke-miterlimit:10;" x1="305.4" y1="33.7" x2="229.2" y2="69.8"/>
<path style="fill:#0000FF;" d="M235.5,69.8c0-3.5-2.8-6.3-6.3-6.3c-3.5,0-6.3,2.8-6.3,6.3c0,3.5,2.8,6.3,6.3,6.3
	C232.7,76.2,235.5,73.4,235.5,69.8"/>
<text transform="matrix(1 0 0 1 168.7012 110.9121)" style="font-family:'ArialMT'; font-size:9.9998px;">8d</text>
<line style="fill:none;stroke:#FF0000;stroke-width:0.9998;stroke-linejoin:round;stroke-miterlimit:10;" x1="164.1" y1="113.5" x2="229.2" y2="69.8"/>
<line style="fill:none;stroke:#FF0000;stroke-width:2.3865;stroke-linejoin:round;stroke-miterlimit:10;" x1="305.4" y1="109.2" x2="229.2" y2="69.8"/>
<line style="fill:none;stroke:#262626;stroke-width:0.5002;stroke-linejoin:round;stroke-miterlimit:10;" x1="67.3" y1="26.3" x2="62.2" y2="21.3"/>
<line style="fill:none;stroke:#FF0000;stroke-width:0.9998;stroke-linejoin:round;stroke-miterlimit:10;" x1="305.4" y1="109.2" x2="359.1" y2="181.7"/>
<line style="fill:none;stroke:#FF0000;stroke-width:3.0795;stroke-linejoin:round;stroke-miterlimit:10;" x1="305.4" y1="109.2" x2="305.4" y2="33.7"/>
<path style="fill:#0000FF;" d="M311.7,109.2c0-3.5-2.8-6.3-6.3-6.3c-3.5,0-6.3,2.8-6.3,6.3s2.8,6.3,6.3,6.3
	C308.9,115.6,311.7,112.7,311.7,109.2"/>
<line style="fill:none;stroke:#FF0000;stroke-width:0.9998;stroke-linejoin:round;stroke-miterlimit:10;" x1="313.4" y1="180.6" x2="362" y2="203.1"/>
<line style="fill:none;stroke:#FF0000;stroke-width:0.9998;stroke-linejoin:round;stroke-miterlimit:10;" x1="131.7" y1="229" x2="99.2" y2="220.9"/>
<text transform="matrix(1 0 0 1 309.9834 31.0889)" style="font-family:'ArialMT'; font-size:9.9998px;">8d</text>
<text transform="matrix(-6.123234e-17 -1 1 -6.123234e-17 44.1819 155.4785)" style="fill:#262626; font-family:'ArialMT'; font-size:11.0002px;">Z (Angstrom)</text>
<path style="fill:#0000FF;" d="M311.7,33.7c0-3.5-2.8-6.3-6.3-6.3c-3.5,0-6.3,2.8-6.3,6.3c0,3.5,2.8,6.3,6.3,6.3
	C308.9,40.1,311.7,37.2,311.7,33.7"/>
<line style="fill:none;stroke:#FF0000;stroke-width:0.9998;stroke-linejoin:round;stroke-miterlimit:10;" x1="305.4" y1="33.7" x2="272.9" y2="25.6"/>
<text transform="matrix(1 0 0 1 318.0566 177.9492)" style="font-family:'ArialMT'; font-size:9.9998px;">4c</text>
<line style="fill:none;stroke:#FF0000;stroke-width:0.9998;stroke-linejoin:round;stroke-miterlimit:10;" x1="313.4" y1="180.6" x2="362" y2="149.5"/>
<text transform="matrix(1 0 0 1 92.5454 71.5371)" style="font-family:'ArialMT'; font-size:9.9998px;">4c</text>
<text transform="matrix(1 0 0 1 245.1328 213.9717)" style="font-family:'ArialMT'; font-size:9.9998px;">8d</text>
<line style="fill:none;stroke:#FF0000;stroke-width:1.6935;stroke-linejoin:round;stroke-miterlimit:10;" x1="164.1" y1="38.1" x2="87.9" y2="74.2"/>
<line style="fill:none;stroke:#FF0000;stroke-width:1.6935;stroke-linejoin:round;stroke-miterlimit:10;" x1="164.1" y1="113.5" x2="87.9" y2="74.2"/>
<line style="fill:none;stroke:#FF0000;stroke-width:0.9998;stroke-linejoin:round;stroke-miterlimit:10;" x1="87.9" y1="74.2" x2="97" y2="32"/>
<line style="fill:none;stroke:#FF0000;stroke-width:0.9998;stroke-linejoin:round;stroke-miterlimit:10;" x1="69.6" y1="86.4" x2="87.9" y2="74.2"/>
<path style="fill:#0000FF;" d="M94.3,74.2c0-3.5-2.8-6.3-6.3-6.3c-3.5,0-6.3,2.8-6.3,6.3c0,3.5,2.8,6.3,6.3,6.3
	C91.4,80.5,94.3,77.7,94.3,74.2"/>
<line style="fill:none;stroke:#FF0000;stroke-width:1.6935;stroke-linejoin:round;stroke-miterlimit:10;" x1="69.6" y1="65.2" x2="87.9" y2="74.2"/>
<line style="fill:none;stroke:#FF0000;stroke-width:1.6935;stroke-linejoin:round;stroke-miterlimit:10;" x1="164.1" y1="113.5" x2="240.5" y2="141.1"/>
<path style="fill:#0000FF;" d="M170.4,113.5c0-3.5-2.8-6.3-6.3-6.3s-6.3,2.8-6.3,6.3c0,3.5,2.8,6.3,6.3,6.3S170.4,117.1,170.4,113.5
	"/>
<text transform="matrix(1 0 0 1 103.8511 142.8008)" style="font-family:'ArialMT'; font-size:9.9998px;">8d</text>
<line style="fill:none;stroke:#FF0000;stroke-width:1.6935;stroke-linejoin:round;stroke-miterlimit:10;" x1="164.1" y1="113.5" x2="99.2" y2="145.4"/>
<line style="fill:none;stroke:#FF0000;stroke-width:0.9998;stroke-linejoin:round;stroke-miterlimit:10;" x1="164.1" y1="113.5" x2="209" y2="128.6"/>
<line style="fill:none;stroke:#000000;stroke-width:0.5002;stroke-linejoin:round;stroke-miterlimit:10;" x1="99.7" y1="55.7" x2="67.3" y2="23.7"/>
<path style="fill:#0000FF;" d="M246.9,216.6c0-3.5-2.8-6.3-6.3-6.3c-3.5,0-6.3,2.8-6.3,6.3c0,3.5,2.8,6.3,6.3,6.3
	C244,223,246.9,220.1,246.9,216.6"/>
<line style="fill:none;stroke:#FF0000;stroke-width:0.9998;stroke-linejoin:round;stroke-miterlimit:10;" x1="240.5" y1="141.1" x2="240.5" y2="216.6"/>
<line style="fill:none;stroke:#FF0000;stroke-width:1.6935;stroke-linejoin:round;stroke-miterlimit:10;" x1="240.5" y1="216.6" x2="313.4" y2="180.6"/>
<text transform="matrix(1 0 0 1 168.7012 35.415)" style="font-family:'ArialMT'; font-size:9.9998px;">8d</text>
<line style="fill:none;stroke:#262626;stroke-width:0.5002;stroke-linejoin:round;stroke-miterlimit:10;" x1="74.9" y1="230.3" x2="67.9" y2="230.5"/>
<text transform="matrix(1 0 0 1 245.1338 138.4751)" style="font-family:'ArialMT'; font-size:9.9998px;">8d</text>
<text transform="matrix(1 0 0 1 57.8789 241.1621)" style="fill:#262626; font-family:'ArialMT'; font-size:9.9998px;">5</text>
<line style="fill:none;stroke:#FF0000;stroke-width:0.9998;stroke-linejoin:round;stroke-miterlimit:10;" x1="164.1" y1="38.1" x2="209" y2="128.6"/>
<line style="fill:none;stroke:#FF0000;stroke-width:0.9998;stroke-linejoin:round;stroke-miterlimit:10;" x1="164.1" y1="38.1" x2="131.6" y2="30"/>
<line style="fill:none;stroke:#FF0000;stroke-width:0.9998;stroke-linejoin:round;stroke-miterlimit:10;" x1="209" y1="53.1" x2="164.1" y2="38.1"/>
<path style="fill:#0000FF;" d="M170.4,38.1c0-3.5-2.8-6.3-6.3-6.3s-6.3,2.8-6.3,6.3s2.8,6.3,6.3,6.3S170.4,41.6,170.4,38.1"/>
<text transform="matrix(1 0 0 1 176.7739 182.2754)" style="font-family:'ArialMT'; font-size:9.9998px;">4c</text>
<line style="fill:none;stroke:#FF0000;stroke-width:0.9998;stroke-linejoin:round;stroke-miterlimit:10;" x1="172.2" y1="184.9" x2="240.5" y2="141.1"/>
<path style="fill:#0000FF;" d="M246.9,141.1c0-3.5-2.8-6.3-6.3-6.3c-3.5,0-6.3,2.8-6.3,6.3c0,3.5,2.8,6.3,6.3,6.3
	C244,147.5,246.9,144.6,246.9,141.1"/>
<line style="fill:none;stroke:#FF0000;stroke-width:0.9998;stroke-linejoin:round;stroke-miterlimit:10;" x1="240.5" y1="141.1" x2="296.7" y2="84.2"/>
<line style="fill:none;stroke:#FF0000;stroke-width:0.9998;stroke-linejoin:round;stroke-miterlimit:10;" x1="240.5" y1="141.1" x2="313.4" y2="180.6"/>
<path style="fill:#0000FF;" d="M319.8,180.6c0-3.5-2.8-6.3-6.3-6.3c-3.5,0-6.3,2.8-6.3,6.3c0,3.5,2.8,6.3,6.3,6.3
	C316.9,186.9,319.8,184.1,319.8,180.6"/>
<line style="fill:none;stroke:#FF0000;stroke-width:0.9998;stroke-linejoin:round;stroke-miterlimit:10;" x1="285.4" y1="156.2" x2="313.4" y2="180.6"/>
<line style="fill:none;stroke:#FF0000;stroke-width:0.9998;stroke-linejoin:round;stroke-miterlimit:10;" x1="287.6" y1="241.7" x2="285.4" y2="231.7"/>
<text transform="matrix(1 0 0 1 103.8511 218.2979)" style="font-family:'ArialMT'; font-size:9.9998px;">8d</text>
<line style="fill:none;stroke:#FF0000;stroke-width:0.9998;stroke-linejoin:round;stroke-miterlimit:10;" x1="76.5" y1="190.3" x2="99.2" y2="220.9"/>
<line style="fill:none;stroke:#FF0000;stroke-width:0.9998;stroke-linejoin:round;stroke-miterlimit:10;" x1="99.2" y1="145.4" x2="99.2" y2="220.9"/>
<line style="fill:none;stroke:#FF0000;stroke-width:0.9998;stroke-linejoin:round;stroke-miterlimit:10;" x1="79.4" y1="211.7" x2="99.2" y2="220.9"/>
<path style="fill:#0000FF;" d="M105.6,220.9c0-3.5-2.8-6.3-6.3-6.3c-3.5,0-6.3,2.8-6.3,6.3c0,3.5,2.8,6.3,6.3,6.3
	C102.7,227.3,105.6,224.4,105.6,220.9"/>
<line style="fill:none;stroke:#FF0000;stroke-width:0.9998;stroke-linejoin:round;stroke-miterlimit:10;" x1="317.9" y1="239.8" x2="285.4" y2="231.7"/>
<path style="fill:#0000FF;" d="M105.6,145.4c0-3.5-2.8-6.3-6.3-6.3c-3.5,0-6.3,2.8-6.3,6.3s2.8,6.3,6.3,6.3
	C102.7,151.8,105.6,148.9,105.6,145.4"/>
<line style="fill:none;stroke:#FF0000;stroke-width:0.9998;stroke-linejoin:round;stroke-miterlimit:10;" x1="79.4" y1="158.2" x2="99.2" y2="145.4"/>
<line style="fill:none;stroke:#FF0000;stroke-width:0.9998;stroke-linejoin:round;stroke-miterlimit:10;" x1="201.8" y1="239.1" x2="172.2" y2="184.9"/>
<path style="fill:#0000FF;" d="M178.5,184.9c0-3.5-2.8-6.3-6.3-6.3c-3.5,0-6.3,2.8-6.3,6.3s2.8,6.3,6.3,6.3
	C175.7,191.3,178.5,188.4,178.5,184.9"/>
<text transform="matrix(1 0 0 1 301.3301 81.6118)" style="font-family:'ArialMT'; font-size:9.9998px;">4c</text>
<text transform="matrix(1 0 0 1 169.251 9.9956)" style="font-family:'ArialMT'; font-size:11.0002px;">Jumps between sites</text>
<path style="fill:#0000FF;" d="M303,84.2c0-3.5-2.8-6.3-6.3-6.3s-6.3,2.8-6.3,6.3c0,3.5,2.8,6.3,6.3,6.3S303,87.8,303,84.2"/>
<line style="fill:none;stroke:#FF0000;stroke-width:0.9998;stroke-linejoin:round;stroke-miterlimit:10;" x1="296.7" y1="84.2" x2="287.6" y2="42.7"/>
<line style="fill:none;stroke:#FF0000;stroke-width:1.6935;stroke-linejoin:round;stroke-miterlimit:10;" x1="350.3" y1="124.3" x2="296.7" y2="84.2"/>
<text transform="matrix(1 0 0 1 354.8965 121.6792)" style="font-family:'ArialMT'; font-size:9.9998px;">8d</text>
<text transform="matrix(1 0 0 1 1.2588 277.7734)" style="fill:#262626; font-family:'ArialMT'; font-size:11.0002px;">Y (Angstrom)</text>
<line style="fill:none;stroke:#FF0000;stroke-width:0.9998;stroke-linejoin:round;stroke-miterlimit:10;" x1="350.3" y1="124.3" x2="361.6" y2="195.6"/>
<path style="fill:#0000FF;" d="M356.6,124.3c0-3.5-2.8-6.3-6.3-6.3c-3.5,0-6.3,2.8-6.3,6.3c0,3.5,2.8,6.3,6.3,6.3
	C353.8,130.7,356.6,127.8,356.6,124.3"/>
<line style="fill:none;stroke:#FF0000;stroke-width:0.9998;stroke-linejoin:round;stroke-miterlimit:10;" x1="350.3" y1="48.8" x2="350.3" y2="124.3"/>
<text transform="matrix(1 0 0 1 354.8965 46.1821)" style="font-family:'ArialMT'; font-size:9.9998px;">8d</text>
<text transform="matrix(1 0 0 1 160.0479 85.9385)" style="font-family:'ArialMT'; font-size:9.9998px;">4c</text>
<line style="fill:none;stroke:#FF0000;stroke-width:0.9998;stroke-linejoin:round;stroke-miterlimit:10;" x1="350.3" y1="48.8" x2="317.8" y2="40.7"/>
<path style="fill:#0000FF;" d="M356.6,48.8c0-3.5-2.8-6.3-6.3-6.3c-3.5,0-6.3,2.8-6.3,6.3c0,3.5,2.8,6.3,6.3,6.3
	C353.8,55.2,356.6,52.3,356.6,48.8"/>
<line style="fill:none;stroke:#FF0000;stroke-width:0.9998;stroke-linejoin:round;stroke-miterlimit:10;" x1="209" y1="53.1" x2="201.8" y2="40"/>
<line style="fill:none;stroke:#FF0000;stroke-width:1.6935;stroke-linejoin:round;stroke-miterlimit:10;" x1="209" y1="128.6" x2="155.4" y2="88.6"/>
<path style="fill:#0000FF;" d="M161.8,88.6c0-3.5-2.8-6.3-6.3-6.3c-3.5,0-6.3,2.8-6.3,6.3c0,3.5,2.8,6.3,6.3,6.3
	C158.9,94.9,161.8,92.1,161.8,88.6"/>
<text transform="matrix(1 0 0 1 213.6133 126.0049)" style="font-family:'ArialMT'; font-size:9.9998px;">8d</text>
<text transform="matrix(1 0 0 1 290.0459 229.0654)" style="font-family:'ArialMT'; font-size:9.9998px;">8d</text>
<path style="fill:#0000FF;" d="M215.3,128.6c0-3.5-2.8-6.3-6.3-6.3c-3.5,0-6.3,2.8-6.3,6.3c0,3.5,2.8,6.3,6.3,6.3
	C212.5,135,215.3,132.1,215.3,128.6"/>
<line style="fill:none;stroke:#FF0000;stroke-width:1.6935;stroke-linejoin:round;stroke-miterlimit:10;" x1="209" y1="128.6" x2="285.4" y2="156.2"/>
<line style="fill:none;stroke:#FF0000;stroke-width:0.9998;stroke-linejoin:round;stroke-miterlimit:10;" x1="280.8" y1="245.2" x2="285.4" y2="231.7"/>
<line style="fill:none;stroke:#FF0000;stroke-width:1.6935;stroke-linejoin:round;stroke-miterlimit:10;" x1="285.4" y1="231.7" x2="285.4" y2="156.2"/>
<path style="fill:#0000FF;" d="M291.8,231.7c0-3.5-2.8-6.3-6.3-6.3c-3.5,0-6.3,2.8-6.3,6.3c0,3.5,2.8,6.3,6.3,6.3
	C288.9,238,291.8,235.2,291.8,231.7"/>
<line style="fill:none;stroke:#FF0000;stroke-width:0.9998;stroke-linejoin:round;stroke-miterlimit:10;" x1="285.4" y1="231.7" x2="361.6" y2="195.6"/>
<line style="fill:none;stroke:#000000;stroke-width:0.5002;stroke-linejoin:round;stroke-miterlimit:10;" x1="382.3" y1="246" x2="382.3" y2="47"/>
<text transform="matrix(1 0 0 1 213.6133 50.5078)" style="font-family:'ArialMT'; font-size:9.9998px;">8d</text>
<text transform="matrix(1 0 0 1 290.0459 153.5684)" style="font-family:'ArialMT'; font-size:9.9998px;">8d</text>
<text transform="matrix(1 0 0 1 366.2021 192.9434)" style="font-family:'ArialMT'; font-size:9.9998px;">4c</text>
<path style="fill:#0000FF;" d="M215.3,53.1c0-3.5-2.8-6.3-6.3-6.3c-3.5,0-6.3,2.8-6.3,6.3c0,3.5,2.8,6.3,6.3,6.3
	C212.5,59.5,215.3,56.6,215.3,53.1"/>
<line style="fill:none;stroke:#FF0000;stroke-width:0.9998;stroke-linejoin:round;stroke-miterlimit:10;" x1="139.5" y1="249.5" x2="144.1" y2="236"/>
<line style="fill:none;stroke:#262626;stroke-width:0.5002;stroke-linejoin:round;stroke-miterlimit:10;" x1="99.7" y1="254.7" x2="382.3" y2="246"/>
<line style="fill:none;stroke:#000000;stroke-width:0.5002;stroke-linejoin:round;stroke-miterlimit:10;" x1="99.7" y1="254.7" x2="382.3" y2="246"/>
<line style="fill:none;stroke:#262626;stroke-width:0.5002;stroke-linejoin:round;stroke-miterlimit:10;" x1="380.3" y1="246.1" x2="385.4" y2="251.1"/>
<path style="fill:#0000FF;" d="M291.8,156.2c0-3.5-2.8-6.3-6.3-6.3c-3.5,0-6.3,2.8-6.3,6.3s2.8,6.3,6.3,6.3
	C288.9,162.5,291.8,159.7,291.8,156.2"/>
<line style="fill:none;stroke:#FF0000;stroke-width:1.6935;stroke-linejoin:round;stroke-miterlimit:10;" x1="285.4" y1="156.2" x2="361.6" y2="195.6"/>
<line style="fill:none;stroke:#FF0000;stroke-width:0.9998;stroke-linejoin:round;stroke-miterlimit:10;" x1="266.4" y1="112.7" x2="285.4" y2="156.2"/>
<line style="fill:none;stroke:#FF0000;stroke-width:1.6935;stroke-linejoin:round;stroke-miterlimit:10;" x1="356.8" y1="184.6" x2="361.6" y2="195.6"/>
<path style="fill:#0000FF;" d="M367.9,195.6c0-3.5-2.8-6.3-6.3-6.3c-3.5,0-6.3,2.8-6.3,6.3s2.8,6.3,6.3,6.3
	C365.1,201.9,367.9,199.1,367.9,195.6"/>
<line style="fill:none;stroke:#FF0000;stroke-width:0.9998;stroke-linejoin:round;stroke-miterlimit:10;" x1="356.8" y1="209.5" x2="361.6" y2="195.6"/>
<text transform="matrix(1 0 0 1 148.7642 233.3906)" style="font-family:'ArialMT'; font-size:9.9998px;">8d</text>
<line style="fill:none;stroke:#262626;stroke-width:0.5002;stroke-linecap:round;stroke-linejoin:round;stroke-miterlimit:10;" x1="324.2" y1="247.8" x2="329.3" y2="252.8"/>
<path style="fill:#0000FF;" d="M150.5,236c0-3.5-2.8-6.3-6.3-6.3s-6.3,2.8-6.3,6.3c0,3.5,2.8,6.3,6.3,6.3S150.5,239.5,150.5,236"/>
<line style="fill:none;stroke:#FF0000;stroke-width:0.9998;stroke-linejoin:round;stroke-miterlimit:10;" x1="144.1" y1="236" x2="144.1" y2="160.5"/>
<line style="fill:none;stroke:#262626;stroke-width:0.5002;stroke-linecap:round;stroke-linejoin:round;stroke-miterlimit:10;" x1="268.1" y1="249.5" x2="273.1" y2="254.5"/>
<text transform="matrix(1 0 0 1 148.7642 157.8936)" style="font-family:'ArialMT'; font-size:9.9998px;">8d</text>
<text transform="matrix(1 0 0 1 224.9199 197.2686)" style="font-family:'ArialMT'; font-size:9.9998px;">4c</text>
<text transform="matrix(1 0 0 1 200.6436 283.5957)" style="fill:#262626; font-family:'ArialMT'; font-size:11.0002px;">X (Angstrom)</text>
<line style="fill:none;stroke:#FF0000;stroke-width:0.9998;stroke-linejoin:round;stroke-miterlimit:10;" x1="125.1" y1="117" x2="144.1" y2="160.5"/>
<path style="fill:#0000FF;" d="M150.5,160.5c0-3.5-2.8-6.3-6.3-6.3s-6.3,2.8-6.3,6.3c0,3.5,2.8,6.3,6.3,6.3S150.5,164,150.5,160.5"
	/>
<path style="fill:#0000FF;" d="M226.6,199.9c0-3.5-2.8-6.3-6.3-6.3c-3.5,0-6.3,2.8-6.3,6.3s2.8,6.3,6.3,6.3
	C223.8,206.2,226.6,203.4,226.6,199.9"/>
<line style="fill:none;stroke:#262626;stroke-width:0.5002;stroke-linecap:round;stroke-linejoin:round;stroke-miterlimit:10;" x1="211.9" y1="251.3" x2="217" y2="256.2"/>
<line style="fill:none;stroke:#000000;stroke-width:0.5002;stroke-linejoin:round;stroke-miterlimit:10;" x1="99.7" y1="55.7" x2="382.3" y2="47"/>
<line style="fill:none;stroke:#262626;stroke-width:0.5002;stroke-linecap:round;stroke-linejoin:round;stroke-miterlimit:10;" x1="155.8" y1="253" x2="160.9" y2="257.9"/>
<text transform="matrix(1 0 0 1 382.6094 264.3633)" style="fill:#262626; font-family:'ArialMT'; font-size:9.9998px;">10</text>
<line style="fill:none;stroke:#262626;stroke-width:0.5002;stroke-linecap:square;stroke-linejoin:round;stroke-miterlimit:10;" x1="99.7" y1="254.7" x2="104.7" y2="259.7"/>
<line style="fill:none;stroke:#262626;stroke-width:0.5002;stroke-linecap:square;stroke-linejoin:round;stroke-miterlimit:10;" x1="99.7" y1="254.7" x2="92.6" y2="254.9"/>
<line style="fill:none;stroke:#000000;stroke-width:0.5002;stroke-linecap:square;stroke-linejoin:round;stroke-miterlimit:10;" x1="99.7" y1="254.7" x2="99.7" y2="55.7"/>
<text transform="matrix(1 0 0 1 82.623 265.5303)" style="fill:#262626; font-family:'ArialMT'; font-size:9.9998px;">0</text>
<text transform="matrix(1 0 0 1 329.1016 266.082)" style="fill:#262626; font-family:'ArialMT'; font-size:9.9998px;">8</text>
<text transform="matrix(1 0 0 1 272.9688 267.8008)" style="fill:#262626; font-family:'ArialMT'; font-size:9.9998px;">6</text>
<text transform="matrix(1 0 0 1 216.8359 269.5195)" style="fill:#262626; font-family:'ArialMT'; font-size:9.9998px;">4</text>
<text transform="matrix(1 0 0 1 160.7036 271.2383)" style="fill:#262626; font-family:'ArialMT'; font-size:9.9998px;">2</text>
<text transform="matrix(1 0 0 1 104.5713 272.957)" style="fill:#262626; font-family:'ArialMT'; font-size:9.9998px;">0</text>
</svg>
