<?xml version="1.0" encoding="utf-8"?>
<!-- Generator: Adobe Illustrator 23.0.1, SVG Export Plug-In . SVG Version: 6.00 Build 0)  -->
<svg version="1.1" id="Layer_1" xmlns="http://www.w3.org/2000/svg" xmlns:xlink="http://www.w3.org/1999/xlink" x="0px" y="0px"
	 viewBox="0 0 600 300" style="enable-background:new 0 0 600 300;" xml:space="preserve">
<g>
	<defs>
		<rect id="SVGID_1_" width="600" height="300"/>
	</defs>
	<clipPath id="SVGID_2_">
		<use xlink:href="#SVGID_1_"  style="overflow:visible;"/>
	</clipPath>
	<rect style="clip-path:url(#SVGID_2_);fill:#FFFFFF;" width="600" height="300"/>
</g>
<rect style="fill:#FFFFFF;" width="600" height="300"/>
<rect x="65.3" y="22.5" style="fill:#FFFFFF;" width="388.5" height="244.5"/>
<line style="opacity:0.149;fill:none;stroke:#262626;stroke-width:0.5;stroke-linejoin:round;stroke-miterlimit:10;" x1="65.3" y1="267" x2="65.3" y2="22.5"/>
<line style="opacity:0.149;fill:none;stroke:#262626;stroke-width:0.5;stroke-linejoin:round;stroke-miterlimit:10;" x1="108.4" y1="267" x2="108.4" y2="22.5"/>
<line style="opacity:0.149;fill:none;stroke:#262626;stroke-width:0.5;stroke-linejoin:round;stroke-miterlimit:10;" x1="151.6" y1="267" x2="151.6" y2="22.5"/>
<line style="opacity:0.149;fill:none;stroke:#262626;stroke-width:0.5;stroke-linejoin:round;stroke-miterlimit:10;" x1="194.7" y1="267" x2="194.7" y2="22.5"/>
<line style="opacity:0.149;fill:none;stroke:#262626;stroke-width:0.5;stroke-linejoin:round;stroke-miterlimit:10;" x1="237.9" y1="267" x2="237.9" y2="22.5"/>
<line style="opacity:0.149;fill:none;stroke:#262626;stroke-width:0.5;stroke-linejoin:round;stroke-miterlimit:10;" x1="281.1" y1="267" x2="281.1" y2="22.5"/>
<line style="opacity:0.149;fill:none;stroke:#262626;stroke-width:0.5;stroke-linejoin:round;stroke-miterlimit:10;" x1="324.3" y1="267" x2="324.3" y2="22.5"/>
<line style="opacity:0.149;fill:none;stroke:#262626;stroke-width:0.5;stroke-linejoin:round;stroke-miterlimit:10;" x1="367.4" y1="267" x2="367.4" y2="22.5"/>
<line style="opacity:0.149;fill:none;stroke:#262626;stroke-width:0.5;stroke-linejoin:round;stroke-miterlimit:10;" x1="410.6" y1="267" x2="410.6" y2="22.5"/>
<line style="opacity:0.149;fill:none;stroke:#262626;stroke-width:0.5;stroke-linejoin:round;stroke-miterlimit:10;" x1="453.8" y1="267" x2="453.8" y2="22.5"/>
<line style="opacity:0.149;fill:none;stroke:#262626;stroke-width:0.5;stroke-linejoin:round;stroke-miterlimit:10;" x1="453.8" y1="267" x2="65.3" y2="267"/>
<line style="opacity:0.149;fill:none;stroke:#262626;stroke-width:0.5;stroke-linejoin:round;stroke-miterlimit:10;" x1="453.8" y1="226.3" x2="65.3" y2="226.3"/>
<line style="opacity:0.149;fill:none;stroke:#262626;stroke-width:0.5;stroke-linejoin:round;stroke-miterlimit:10;" x1="453.8" y1="185.5" x2="65.3" y2="185.5"/>
<line style="opacity:0.149;fill:none;stroke:#262626;stroke-width:0.5;stroke-linejoin:round;stroke-miterlimit:10;" x1="453.8" y1="144.8" x2="65.3" y2="144.8"/>
<line style="opacity:0.149;fill:none;stroke:#262626;stroke-width:0.5;stroke-linejoin:round;stroke-miterlimit:10;" x1="453.8" y1="104" x2="65.3" y2="104"/>
<line style="opacity:0.149;fill:none;stroke:#262626;stroke-width:0.5;stroke-linejoin:round;stroke-miterlimit:10;" x1="453.8" y1="63.3" x2="65.3" y2="63.3"/>
<line style="opacity:0.149;fill:none;stroke:#262626;stroke-width:0.5;stroke-linejoin:round;stroke-miterlimit:10;" x1="453.8" y1="22.5" x2="65.3" y2="22.5"/>
<line style="fill:none;stroke:#262626;stroke-width:0.5;stroke-linecap:square;stroke-linejoin:round;stroke-miterlimit:10;" x1="65.3" y1="267" x2="453.8" y2="267"/>
<line style="fill:none;stroke:#262626;stroke-width:0.5;stroke-linecap:square;stroke-linejoin:round;stroke-miterlimit:10;" x1="65.3" y1="22.5" x2="453.8" y2="22.5"/>
<line style="fill:none;stroke:#262626;stroke-width:0.5;stroke-linecap:square;stroke-linejoin:round;stroke-miterlimit:10;" x1="65.3" y1="267" x2="65.3" y2="263.1"/>
<line style="fill:none;stroke:#262626;stroke-width:0.5;stroke-linecap:square;stroke-linejoin:round;stroke-miterlimit:10;" x1="108.4" y1="267" x2="108.4" y2="263.1"/>
<line style="fill:none;stroke:#262626;stroke-width:0.5;stroke-linecap:square;stroke-linejoin:round;stroke-miterlimit:10;" x1="151.6" y1="267" x2="151.6" y2="263.1"/>
<line style="fill:none;stroke:#262626;stroke-width:0.5;stroke-linecap:square;stroke-linejoin:round;stroke-miterlimit:10;" x1="194.7" y1="267" x2="194.7" y2="263.1"/>
<line style="fill:none;stroke:#262626;stroke-width:0.5;stroke-linecap:square;stroke-linejoin:round;stroke-miterlimit:10;" x1="237.9" y1="267" x2="237.9" y2="263.1"/>
<line style="fill:none;stroke:#262626;stroke-width:0.5;stroke-linecap:square;stroke-linejoin:round;stroke-miterlimit:10;" x1="281.1" y1="267" x2="281.1" y2="263.1"/>
<line style="fill:none;stroke:#262626;stroke-width:0.5;stroke-linecap:square;stroke-linejoin:round;stroke-miterlimit:10;" x1="324.3" y1="267" x2="324.3" y2="263.1"/>
<line style="fill:none;stroke:#262626;stroke-width:0.5;stroke-linecap:square;stroke-linejoin:round;stroke-miterlimit:10;" x1="367.4" y1="267" x2="367.4" y2="263.1"/>
<line style="fill:none;stroke:#262626;stroke-width:0.5;stroke-linecap:square;stroke-linejoin:round;stroke-miterlimit:10;" x1="410.6" y1="267" x2="410.6" y2="263.1"/>
<line style="fill:none;stroke:#262626;stroke-width:0.5;stroke-linecap:square;stroke-linejoin:round;stroke-miterlimit:10;" x1="453.8" y1="267" x2="453.8" y2="263.1"/>
<line style="fill:none;stroke:#262626;stroke-width:0.5;stroke-linecap:square;stroke-linejoin:round;stroke-miterlimit:10;" x1="65.3" y1="22.5" x2="65.3" y2="26.4"/>
<line style="fill:none;stroke:#262626;stroke-width:0.5;stroke-linecap:square;stroke-linejoin:round;stroke-miterlimit:10;" x1="108.4" y1="22.5" x2="108.4" y2="26.4"/>
<line style="fill:none;stroke:#262626;stroke-width:0.5;stroke-linecap:square;stroke-linejoin:round;stroke-miterlimit:10;" x1="151.6" y1="22.5" x2="151.6" y2="26.4"/>
<line style="fill:none;stroke:#262626;stroke-width:0.5;stroke-linecap:square;stroke-linejoin:round;stroke-miterlimit:10;" x1="194.7" y1="22.5" x2="194.7" y2="26.4"/>
<line style="fill:none;stroke:#262626;stroke-width:0.5;stroke-linecap:square;stroke-linejoin:round;stroke-miterlimit:10;" x1="237.9" y1="22.5" x2="237.9" y2="26.4"/>
<line style="fill:none;stroke:#262626;stroke-width:0.5;stroke-linecap:square;stroke-linejoin:round;stroke-miterlimit:10;" x1="281.1" y1="22.5" x2="281.1" y2="26.4"/>
<line style="fill:none;stroke:#262626;stroke-width:0.5;stroke-linecap:square;stroke-linejoin:round;stroke-miterlimit:10;" x1="324.3" y1="22.5" x2="324.3" y2="26.4"/>
<line style="fill:none;stroke:#262626;stroke-width:0.5;stroke-linecap:square;stroke-linejoin:round;stroke-miterlimit:10;" x1="367.4" y1="22.5" x2="367.4" y2="26.4"/>
<line style="fill:none;stroke:#262626;stroke-width:0.5;stroke-linecap:square;stroke-linejoin:round;stroke-miterlimit:10;" x1="410.6" y1="22.5" x2="410.6" y2="26.4"/>
<line style="fill:none;stroke:#262626;stroke-width:0.5;stroke-linecap:square;stroke-linejoin:round;stroke-miterlimit:10;" x1="453.8" y1="22.5" x2="453.8" y2="26.4"/>
<text transform="matrix(1 0 0 1 55.5 281.5)" style="fill:#262626; font-family:'ArialMT'; font-size:9.9998px;">0.55</text>
<text transform="matrix(1 0 0 1 101.292 281.5)" style="fill:#262626; font-family:'ArialMT'; font-size:9.9998px;">0.6</text>
<text transform="matrix(1 0 0 1 141.833 281.5)" style="fill:#262626; font-family:'ArialMT'; font-size:9.9998px;">0.65</text>
<text transform="matrix(1 0 0 1 187.625 281.5)" style="fill:#262626; font-family:'ArialMT'; font-size:9.9998px;">0.7</text>
<text transform="matrix(1 0 0 1 228.167 281.5)" style="fill:#262626; font-family:'ArialMT'; font-size:9.9998px;">0.75</text>
<text transform="matrix(1 0 0 1 273.958 281.5)" style="fill:#262626; font-family:'ArialMT'; font-size:9.9998px;">0.8</text>
<text transform="matrix(1 0 0 1 314.5 281.5)" style="fill:#262626; font-family:'ArialMT'; font-size:9.9998px;">0.85</text>
<text transform="matrix(1 0 0 1 360.291 281.5)" style="fill:#262626; font-family:'ArialMT'; font-size:9.9998px;">0.9</text>
<text transform="matrix(1 0 0 1 400.833 281.5)" style="fill:#262626; font-family:'ArialMT'; font-size:9.9998px;">0.95</text>
<text transform="matrix(1 0 0 1 450.75 281.5)" style="fill:#262626; font-family:'ArialMT'; font-size:9.9998px;">1</text>
<text transform="matrix(1 0 0 1 200.625 296)" style="fill:#262626; font-family:'ArialMT'; font-size:11.0002px;">1/Temperature (1000/K)</text>
<line style="fill:none;stroke:#262626;stroke-width:0.5;stroke-linecap:square;stroke-linejoin:round;stroke-miterlimit:10;" x1="65.3" y1="267" x2="65.3" y2="22.5"/>
<line style="fill:none;stroke:#262626;stroke-width:0.5;stroke-linecap:square;stroke-linejoin:round;stroke-miterlimit:10;" x1="453.8" y1="267" x2="453.8" y2="22.5"/>
<line style="fill:none;stroke:#262626;stroke-width:0.5;stroke-linecap:square;stroke-linejoin:round;stroke-miterlimit:10;" x1="65.3" y1="267" x2="69.1" y2="267"/>
<line style="fill:none;stroke:#262626;stroke-width:0.5;stroke-linecap:square;stroke-linejoin:round;stroke-miterlimit:10;" x1="65.3" y1="226.3" x2="69.1" y2="226.3"/>
<line style="fill:none;stroke:#262626;stroke-width:0.5;stroke-linecap:square;stroke-linejoin:round;stroke-miterlimit:10;" x1="65.3" y1="185.5" x2="69.1" y2="185.5"/>
<line style="fill:none;stroke:#262626;stroke-width:0.5;stroke-linecap:square;stroke-linejoin:round;stroke-miterlimit:10;" x1="65.3" y1="144.8" x2="69.1" y2="144.8"/>
<line style="fill:none;stroke:#262626;stroke-width:0.5;stroke-linecap:square;stroke-linejoin:round;stroke-miterlimit:10;" x1="65.3" y1="104" x2="69.1" y2="104"/>
<line style="fill:none;stroke:#262626;stroke-width:0.5;stroke-linecap:square;stroke-linejoin:round;stroke-miterlimit:10;" x1="65.3" y1="63.3" x2="69.1" y2="63.3"/>
<line style="fill:none;stroke:#262626;stroke-width:0.5;stroke-linecap:square;stroke-linejoin:round;stroke-miterlimit:10;" x1="65.3" y1="22.5" x2="69.1" y2="22.5"/>
<line style="fill:none;stroke:#262626;stroke-width:0.5;stroke-linecap:square;stroke-linejoin:round;stroke-miterlimit:10;" x1="453.8" y1="267" x2="449.9" y2="267"/>
<line style="fill:none;stroke:#262626;stroke-width:0.5;stroke-linecap:square;stroke-linejoin:round;stroke-miterlimit:10;" x1="453.8" y1="226.3" x2="449.9" y2="226.3"/>
<line style="fill:none;stroke:#262626;stroke-width:0.5;stroke-linecap:square;stroke-linejoin:round;stroke-miterlimit:10;" x1="453.8" y1="185.5" x2="449.9" y2="185.5"/>
<line style="fill:none;stroke:#262626;stroke-width:0.5;stroke-linecap:square;stroke-linejoin:round;stroke-miterlimit:10;" x1="453.8" y1="144.8" x2="449.9" y2="144.8"/>
<line style="fill:none;stroke:#262626;stroke-width:0.5;stroke-linecap:square;stroke-linejoin:round;stroke-miterlimit:10;" x1="453.8" y1="104" x2="449.9" y2="104"/>
<line style="fill:none;stroke:#262626;stroke-width:0.5;stroke-linecap:square;stroke-linejoin:round;stroke-miterlimit:10;" x1="453.8" y1="63.3" x2="449.9" y2="63.3"/>
<line style="fill:none;stroke:#262626;stroke-width:0.5;stroke-linecap:square;stroke-linejoin:round;stroke-miterlimit:10;" x1="453.8" y1="22.5" x2="449.9" y2="22.5"/>
<text transform="matrix(1 0 0 1 52.25 271.125)" style="fill:#262626; font-family:'ArialMT'; font-size:9.9998px;">-8</text>
<text transform="matrix(1 0 0 1 52.25 230.375)" style="fill:#262626; font-family:'ArialMT'; font-size:9.9998px;">-6</text>
<text transform="matrix(1 0 0 1 52.25 189.625)" style="fill:#262626; font-family:'ArialMT'; font-size:9.9998px;">-4</text>
<text transform="matrix(1 0 0 1 52.25 148.875)" style="fill:#262626; font-family:'ArialMT'; font-size:9.9998px;">-2</text>
<text transform="matrix(1 0 0 1 55.25 108.125)" style="fill:#262626; font-family:'ArialMT'; font-size:9.9998px;">0</text>
<text transform="matrix(1 0 0 1 55.25 67.375)" style="fill:#262626; font-family:'ArialMT'; font-size:9.9998px;">2</text>
<text transform="matrix(1 0 0 1 55.25 26.625)" style="fill:#262626; font-family:'ArialMT'; font-size:9.9998px;">4</text>
<text transform="matrix(-4.333333e-08 -1 1 -4.333333e-08 46.4999 174.7496)" style="fill:#262626; font-family:'ArialMT'; font-size:11.0002px;">ln(</text>
<path style="fill:#262626;" d="M46.3,159.9c0-0.4-0.2-0.8-0.5-1.1s-0.7-0.6-1.2-0.7s-0.9-0.3-1.3-0.3c-0.3,0-0.6,0.1-0.8,0.3
	s-0.3,0.4-0.3,0.7c0,0.4,0.1,0.8,0.4,1.1s0.7,0.5,1.1,0.7s0.9,0.2,1.3,0.2c0.3,0,0.6-0.1,0.8-0.3S46.3,160.2,46.3,159.9z
	 M46.6,159.9c0,0.3-0.1,0.6-0.2,0.9c-0.2,0.3-0.4,0.5-0.6,0.6s-0.6,0.2-0.9,0.2c-0.4,0-0.7-0.1-1.1-0.2s-0.7-0.4-1.1-0.6
	s-0.6-0.6-0.8-0.9s-0.3-0.7-0.3-1.1v-2.8c0-0.1,0-0.1,0.1-0.2s0.1-0.1,0.2-0.1c0.1,0,0.2,0,0.3,0.1s0.1,0.2,0.1,0.3v1.4
	c0.3-0.2,0.7-0.3,1.2-0.3c0.4,0,0.8,0.1,1.1,0.2s0.7,0.3,1,0.6s0.5,0.6,0.7,0.9C46.5,159.1,46.6,159.5,46.6,159.9z"/>
<text transform="matrix(-4.333333e-08 -1 1 -4.333333e-08 46.4999 155.2496)" style="fill:#262626; font-family:'ArialMT'; font-size:11.0002px;">) (S/cm)</text>
<line style="fill:none;stroke:#0072BD;stroke-width:1;stroke-linejoin:round;stroke-miterlimit:10;" x1="453.8" y1="103.7" x2="453.8" y2="125"/>
<line style="fill:none;stroke:#0072BD;stroke-width:1;stroke-linejoin:round;stroke-miterlimit:10;" x1="309.9" y1="88.4" x2="309.9" y2="122.9"/>
<line style="fill:none;stroke:#0072BD;stroke-width:1;stroke-linejoin:round;stroke-miterlimit:10;" x1="166" y1="81" x2="166" y2="115.6"/>
<line style="fill:none;stroke:#0072BD;stroke-width:1;stroke-linejoin:round;stroke-miterlimit:10;" x1="70" y1="79.6" x2="70" y2="117.3"/>
<line style="fill:none;stroke:#0072BD;stroke-width:1;stroke-linejoin:round;stroke-miterlimit:10;" x1="453.8" y1="103.7" x2="453.8" y2="82.5"/>
<line style="fill:none;stroke:#0072BD;stroke-width:1;stroke-linejoin:round;stroke-miterlimit:10;" x1="309.9" y1="88.4" x2="309.9" y2="53.8"/>
<line style="fill:none;stroke:#0072BD;stroke-width:1;stroke-linejoin:round;stroke-miterlimit:10;" x1="166" y1="81" x2="166" y2="46.5"/>
<line style="fill:none;stroke:#0072BD;stroke-width:1;stroke-linejoin:round;stroke-miterlimit:10;" x1="70" y1="79.6" x2="70" y2="41.9"/>
<path style="fill:#0072BD;" d="M453.8,98.2c-3,0-5.5,2.5-5.5,5.5c0,3,2.5,5.5,5.5,5.5c3,0,5.5-2.5,5.5-5.5
	C459.3,100.7,456.8,98.2,453.8,98.2z M453.8,99.2c2.5,0,4.5,2,4.5,4.5c0,2.5-2,4.5-4.5,4.5c-2.5,0-4.5-2-4.5-4.5
	C449.2,101.2,451.3,99.2,453.8,99.2z"/>
<path style="fill:#0072BD;" d="M309.9,82.9c-3,0-5.5,2.5-5.5,5.5c0,3,2.5,5.5,5.5,5.5c3,0,5.5-2.5,5.5-5.5
	C315.4,85.3,312.9,82.9,309.9,82.9z M309.9,83.9c2.5,0,4.5,2,4.5,4.5c0,2.5-2,4.5-4.5,4.5c-2.5,0-4.5-2-4.5-4.5
	C305.4,85.9,307.4,83.9,309.9,83.9z"/>
<path style="fill:#0072BD;" d="M166,75.5c-3,0-5.5,2.5-5.5,5.5c0,3,2.5,5.5,5.5,5.5c3,0,5.5-2.5,5.5-5.5C171.5,78,169,75.5,166,75.5
	z M166,76.5c2.5,0,4.5,2,4.5,4.5c0,2.5-2,4.5-4.5,4.5c-2.5,0-4.5-2-4.5-4.5C161.5,78.5,163.5,76.5,166,76.5z"/>
<path style="fill:#0072BD;" d="M70,74.1c-3,0-5.5,2.5-5.5,5.5c0,3,2.5,5.5,5.5,5.5c3,0,5.5-2.5,5.5-5.5C75.5,76.6,73.1,74.1,70,74.1
	z M70,75.1c2.5,0,4.5,2,4.5,4.5c0,2.5-2,4.5-4.5,4.5c-2.5,0-4.5-2-4.5-4.5C65.5,77.1,67.6,75.1,70,75.1z"/>
<line style="fill:#0072BD;" x1="450.8" y1="125" x2="456.8" y2="125"/>
<line style="fill:none;stroke:#0072BD;stroke-width:1;stroke-miterlimit:10;" x1="450.8" y1="125" x2="456.8" y2="125"/>
<line style="fill:#0072BD;" x1="306.9" y1="122.9" x2="312.9" y2="122.9"/>
<line style="fill:none;stroke:#0072BD;stroke-width:1;stroke-miterlimit:10;" x1="306.9" y1="122.9" x2="312.9" y2="122.9"/>
<line style="fill:#0072BD;" x1="163" y1="115.6" x2="169" y2="115.6"/>
<line style="fill:none;stroke:#0072BD;stroke-width:1;stroke-miterlimit:10;" x1="163" y1="115.6" x2="169" y2="115.6"/>
<line style="fill:#0072BD;" x1="67" y1="117.3" x2="73" y2="117.3"/>
<line style="fill:none;stroke:#0072BD;stroke-width:1;stroke-miterlimit:10;" x1="67" y1="117.3" x2="73" y2="117.3"/>
<line style="fill:#0072BD;" x1="450.8" y1="82.5" x2="456.8" y2="82.5"/>
<line style="fill:none;stroke:#0072BD;stroke-width:1;stroke-miterlimit:10;" x1="450.8" y1="82.5" x2="456.8" y2="82.5"/>
<line style="fill:#0072BD;" x1="306.9" y1="53.8" x2="312.9" y2="53.8"/>
<line style="fill:none;stroke:#0072BD;stroke-width:1;stroke-miterlimit:10;" x1="306.9" y1="53.8" x2="312.9" y2="53.8"/>
<line style="fill:#0072BD;" x1="163" y1="46.5" x2="169" y2="46.5"/>
<line style="fill:none;stroke:#0072BD;stroke-width:1;stroke-miterlimit:10;" x1="163" y1="46.5" x2="169" y2="46.5"/>
<line style="fill:#0072BD;" x1="67" y1="41.9" x2="73" y2="41.9"/>
<line style="fill:none;stroke:#0072BD;stroke-width:1;stroke-miterlimit:10;" x1="67" y1="41.9" x2="73" y2="41.9"/>
<line style="fill:none;stroke:#D95319;stroke-width:1;stroke-linejoin:round;stroke-miterlimit:10;" x1="453.8" y1="184.7" x2="453.8" y2="187.4"/>
<line style="fill:none;stroke:#D95319;stroke-width:1;stroke-linejoin:round;stroke-miterlimit:10;" x1="309.9" y1="176.2" x2="309.9" y2="179.8"/>
<line style="fill:none;stroke:#D95319;stroke-width:1;stroke-linejoin:round;stroke-miterlimit:10;" x1="166" y1="97.6" x2="166" y2="122.8"/>
<line style="fill:none;stroke:#D95319;stroke-width:1;stroke-linejoin:round;stroke-miterlimit:10;" x1="70" y1="84.3" x2="70" y2="110.2"/>
<line style="fill:none;stroke:#D95319;stroke-width:1;stroke-linejoin:round;stroke-miterlimit:10;" x1="453.8" y1="184.7" x2="453.8" y2="182"/>
<line style="fill:none;stroke:#D95319;stroke-width:1;stroke-linejoin:round;stroke-miterlimit:10;" x1="309.9" y1="176.2" x2="309.9" y2="172.6"/>
<line style="fill:none;stroke:#D95319;stroke-width:1;stroke-linejoin:round;stroke-miterlimit:10;" x1="166" y1="97.6" x2="166" y2="72.3"/>
<line style="fill:none;stroke:#D95319;stroke-width:1;stroke-linejoin:round;stroke-miterlimit:10;" x1="70" y1="84.3" x2="70" y2="58.3"/>
<polygon style="fill:none;stroke:#D95319;stroke-width:1;stroke-miterlimit:10;" points="453.8,178 448,188 459.5,188 "/>
<polygon style="fill:none;stroke:#D95319;stroke-width:1;stroke-miterlimit:10;" points="309.9,169.6 304.1,179.6 315.6,179.6 "/>
<polygon style="fill:none;stroke:#D95319;stroke-width:1;stroke-miterlimit:10;" points="166,90.9 160.2,100.9 171.7,100.9 "/>
<polygon style="fill:none;stroke:#D95319;stroke-width:1;stroke-miterlimit:10;" points="70,77.6 64.3,87.6 75.8,87.6 "/>
<line style="fill:#D95319;" x1="450.8" y1="187.4" x2="456.8" y2="187.4"/>
<line style="fill:none;stroke:#D95319;stroke-width:1;stroke-miterlimit:10;" x1="450.8" y1="187.4" x2="456.8" y2="187.4"/>
<line style="fill:#D95319;" x1="306.9" y1="179.8" x2="312.9" y2="179.8"/>
<line style="fill:none;stroke:#D95319;stroke-width:1;stroke-miterlimit:10;" x1="306.9" y1="179.8" x2="312.9" y2="179.8"/>
<line style="fill:#D95319;" x1="163" y1="122.8" x2="169" y2="122.8"/>
<line style="fill:none;stroke:#D95319;stroke-width:1;stroke-miterlimit:10;" x1="163" y1="122.8" x2="169" y2="122.8"/>
<line style="fill:#D95319;" x1="67" y1="110.2" x2="73" y2="110.2"/>
<line style="fill:none;stroke:#D95319;stroke-width:1;stroke-miterlimit:10;" x1="67" y1="110.2" x2="73" y2="110.2"/>
<line style="fill:#D95319;" x1="450.8" y1="182" x2="456.8" y2="182"/>
<line style="fill:none;stroke:#D95319;stroke-width:1;stroke-miterlimit:10;" x1="450.8" y1="182" x2="456.8" y2="182"/>
<line style="fill:#D95319;" x1="306.9" y1="172.6" x2="312.9" y2="172.6"/>
<line style="fill:none;stroke:#D95319;stroke-width:1;stroke-miterlimit:10;" x1="306.9" y1="172.6" x2="312.9" y2="172.6"/>
<line style="fill:#D95319;" x1="163" y1="72.3" x2="169" y2="72.3"/>
<line style="fill:none;stroke:#D95319;stroke-width:1;stroke-miterlimit:10;" x1="163" y1="72.3" x2="169" y2="72.3"/>
<line style="fill:#D95319;" x1="67" y1="58.3" x2="73" y2="58.3"/>
<line style="fill:none;stroke:#D95319;stroke-width:1;stroke-miterlimit:10;" x1="67" y1="58.3" x2="73" y2="58.3"/>
<line style="fill:none;stroke:#EDB120;stroke-width:1;stroke-linejoin:round;stroke-miterlimit:10;" x1="453.8" y1="144.8" x2="453.8" y2="155.2"/>
<line style="fill:none;stroke:#EDB120;stroke-width:1;stroke-linejoin:round;stroke-miterlimit:10;" x1="309.9" y1="122.3" x2="309.9" y2="139.8"/>
<line style="fill:none;stroke:#EDB120;stroke-width:1;stroke-linejoin:round;stroke-miterlimit:10;" x1="166" y1="88.7" x2="166" y2="115"/>
<line style="fill:none;stroke:#EDB120;stroke-width:1;stroke-linejoin:round;stroke-miterlimit:10;" x1="166" y1="95.2" x2="166" y2="122.4"/>
<line style="fill:none;stroke:#EDB120;stroke-width:1;stroke-linejoin:round;stroke-miterlimit:10;" x1="453.8" y1="144.8" x2="453.8" y2="134.4"/>
<line style="fill:none;stroke:#EDB120;stroke-width:1;stroke-linejoin:round;stroke-miterlimit:10;" x1="309.9" y1="122.3" x2="309.9" y2="104.7"/>
<line style="fill:none;stroke:#EDB120;stroke-width:1;stroke-linejoin:round;stroke-miterlimit:10;" x1="166" y1="88.7" x2="166" y2="62.4"/>
<line style="fill:none;stroke:#EDB120;stroke-width:1;stroke-linejoin:round;stroke-miterlimit:10;" x1="166" y1="95.2" x2="166" y2="68"/>
<path style="fill:none;stroke:#EDB120;stroke-width:1;stroke-miterlimit:10;" d="M450.2,148.3l7.1-7.1 M450.2,141.3l7.1,7.1
	 M448.5,144.8H459 M453.8,139.6v10.5"/>
<path style="fill:none;stroke:#EDB120;stroke-width:1;stroke-miterlimit:10;" d="M306.3,125.8l7.1-7.1 M306.3,118.8l7.1,7.1
	 M304.6,122.3h10.5 M309.9,117v10.5"/>
<path style="fill:none;stroke:#EDB120;stroke-width:1;stroke-miterlimit:10;" d="M162.4,92.2l7.1-7.1 M162.4,85.1l7.1,7.1
	 M160.7,88.7h10.5 M166,83.4v10.5"/>
<path style="fill:none;stroke:#EDB120;stroke-width:1;stroke-miterlimit:10;" d="M162.4,98.8l7.1-7.1 M162.4,91.7l7.1,7.1
	 M160.7,95.2h10.5 M166,90v10.5"/>
<line style="fill:#EDB120;" x1="450.8" y1="155.2" x2="456.8" y2="155.2"/>
<line style="fill:none;stroke:#EDB120;stroke-width:1;stroke-miterlimit:10;" x1="450.8" y1="155.2" x2="456.8" y2="155.2"/>
<line style="fill:#EDB120;" x1="306.9" y1="139.8" x2="312.9" y2="139.8"/>
<line style="fill:none;stroke:#EDB120;stroke-width:1;stroke-miterlimit:10;" x1="306.9" y1="139.8" x2="312.9" y2="139.8"/>
<line style="fill:#EDB120;" x1="163" y1="115" x2="169" y2="115"/>
<line style="fill:none;stroke:#EDB120;stroke-width:1;stroke-miterlimit:10;" x1="163" y1="115" x2="169" y2="115"/>
<line style="fill:#EDB120;" x1="163" y1="122.4" x2="169" y2="122.4"/>
<line style="fill:none;stroke:#EDB120;stroke-width:1;stroke-miterlimit:10;" x1="163" y1="122.4" x2="169" y2="122.4"/>
<line style="fill:#EDB120;" x1="450.8" y1="134.4" x2="456.8" y2="134.4"/>
<line style="fill:none;stroke:#EDB120;stroke-width:1;stroke-miterlimit:10;" x1="450.8" y1="134.4" x2="456.8" y2="134.4"/>
<line style="fill:#EDB120;" x1="306.9" y1="104.7" x2="312.9" y2="104.7"/>
<line style="fill:none;stroke:#EDB120;stroke-width:1;stroke-miterlimit:10;" x1="306.9" y1="104.7" x2="312.9" y2="104.7"/>
<line style="fill:#EDB120;" x1="163" y1="62.4" x2="169" y2="62.4"/>
<line style="fill:none;stroke:#EDB120;stroke-width:1;stroke-miterlimit:10;" x1="163" y1="62.4" x2="169" y2="62.4"/>
<line style="fill:#EDB120;" x1="163" y1="68" x2="169" y2="68"/>
<line style="fill:none;stroke:#EDB120;stroke-width:1;stroke-miterlimit:10;" x1="163" y1="68" x2="169" y2="68"/>
<line style="fill:none;stroke:#7E2F8E;stroke-width:1;stroke-linejoin:round;stroke-miterlimit:10;" x1="453.8" y1="217.2" x2="453.8" y2="218.2"/>
<line style="fill:none;stroke:#7E2F8E;stroke-width:1;stroke-linejoin:round;stroke-miterlimit:10;" x1="309.9" y1="207.9" x2="309.9" y2="208"/>
<line style="fill:none;stroke:#7E2F8E;stroke-width:1;stroke-linejoin:round;stroke-miterlimit:10;" x1="166" y1="147.9" x2="166" y2="165"/>
<line style="fill:none;stroke:#7E2F8E;stroke-width:1;stroke-linejoin:round;stroke-miterlimit:10;" x1="70" y1="91.3" x2="70" y2="119.1"/>
<line style="fill:none;stroke:#7E2F8E;stroke-width:1;stroke-linejoin:round;stroke-miterlimit:10;" x1="453.8" y1="217.2" x2="453.8" y2="216.2"/>
<line style="fill:none;stroke:#7E2F8E;stroke-width:1;stroke-linejoin:round;stroke-miterlimit:10;" x1="309.9" y1="207.9" x2="309.9" y2="207.7"/>
<line style="fill:none;stroke:#7E2F8E;stroke-width:1;stroke-linejoin:round;stroke-miterlimit:10;" x1="166" y1="147.9" x2="166" y2="130.9"/>
<line style="fill:none;stroke:#7E2F8E;stroke-width:1;stroke-linejoin:round;stroke-miterlimit:10;" x1="70" y1="91.3" x2="70" y2="63.5"/>
<polygon style="fill:none;stroke:#7E2F8E;stroke-width:1;stroke-miterlimit:10;" points="449,215.6 452.6,215.6 453.8,212.2 
	454.9,215.6 458.5,215.6 455.7,217.8 456.7,221.2 453.8,219.2 450.8,221.2 451.8,217.8 "/>
<polygon style="fill:none;stroke:#7E2F8E;stroke-width:1;stroke-miterlimit:10;" points="305.1,206.3 308.7,206.3 309.9,202.9 
	311,206.3 314.6,206.3 311.8,208.5 312.8,211.9 309.9,209.9 306.9,211.9 308,208.5 "/>
<polygon style="fill:none;stroke:#7E2F8E;stroke-width:1;stroke-miterlimit:10;" points="161.2,146.4 164.8,146.4 166,142.9 
	167.1,146.4 170.7,146.4 167.9,148.6 168.9,152 166,149.9 163,152 164.1,148.6 "/>
<polygon style="fill:none;stroke:#7E2F8E;stroke-width:1;stroke-miterlimit:10;" points="65.3,89.7 68.9,89.7 70,86.3 71.2,89.7 
	74.8,89.7 71.9,91.9 73,95.3 70,93.3 67.1,95.3 68.1,91.9 "/>
<line style="fill:#7E2F8E;" x1="450.8" y1="218.2" x2="456.8" y2="218.2"/>
<line style="fill:none;stroke:#7E2F8E;stroke-width:1;stroke-miterlimit:10;" x1="450.8" y1="218.2" x2="456.8" y2="218.2"/>
<line style="fill:#7E2F8E;" x1="306.9" y1="208" x2="312.9" y2="208"/>
<line style="fill:none;stroke:#7E2F8E;stroke-width:1;stroke-miterlimit:10;" x1="306.9" y1="208" x2="312.9" y2="208"/>
<line style="fill:#7E2F8E;" x1="163" y1="165" x2="169" y2="165"/>
<line style="fill:none;stroke:#7E2F8E;stroke-width:1;stroke-miterlimit:10;" x1="163" y1="165" x2="169" y2="165"/>
<line style="fill:#7E2F8E;" x1="67" y1="119.1" x2="73" y2="119.1"/>
<line style="fill:none;stroke:#7E2F8E;stroke-width:1;stroke-miterlimit:10;" x1="67" y1="119.1" x2="73" y2="119.1"/>
<line style="fill:#7E2F8E;" x1="450.8" y1="216.2" x2="456.8" y2="216.2"/>
<line style="fill:none;stroke:#7E2F8E;stroke-width:1;stroke-miterlimit:10;" x1="450.8" y1="216.2" x2="456.8" y2="216.2"/>
<line style="fill:#7E2F8E;" x1="306.9" y1="207.7" x2="312.9" y2="207.7"/>
<line style="fill:none;stroke:#7E2F8E;stroke-width:1;stroke-miterlimit:10;" x1="306.9" y1="207.7" x2="312.9" y2="207.7"/>
<line style="fill:#7E2F8E;" x1="163" y1="130.9" x2="169" y2="130.9"/>
<line style="fill:none;stroke:#7E2F8E;stroke-width:1;stroke-miterlimit:10;" x1="163" y1="130.9" x2="169" y2="130.9"/>
<line style="fill:#7E2F8E;" x1="67" y1="63.5" x2="73" y2="63.5"/>
<line style="fill:none;stroke:#7E2F8E;stroke-width:1;stroke-miterlimit:10;" x1="67" y1="63.5" x2="73" y2="63.5"/>
<line style="fill:none;stroke:#77AC30;stroke-width:1;stroke-linejoin:round;stroke-miterlimit:10;" x1="453.8" y1="156.9" x2="453.8" y2="175.5"/>
<line style="fill:none;stroke:#77AC30;stroke-width:1;stroke-linejoin:round;stroke-miterlimit:10;" x1="309.9" y1="116.5" x2="309.9" y2="138.7"/>
<line style="fill:none;stroke:#77AC30;stroke-width:1;stroke-linejoin:round;stroke-miterlimit:10;" x1="166" y1="92.4" x2="166" y2="124.1"/>
<line style="fill:none;stroke:#77AC30;stroke-width:1;stroke-linejoin:round;stroke-miterlimit:10;" x1="70" y1="79.6" x2="70" y2="112.7"/>
<line style="fill:none;stroke:#77AC30;stroke-width:1;stroke-linejoin:round;stroke-miterlimit:10;" x1="453.8" y1="156.9" x2="453.8" y2="138.3"/>
<line style="fill:none;stroke:#77AC30;stroke-width:1;stroke-linejoin:round;stroke-miterlimit:10;" x1="309.9" y1="116.5" x2="309.9" y2="94.3"/>
<line style="fill:none;stroke:#77AC30;stroke-width:1;stroke-linejoin:round;stroke-miterlimit:10;" x1="166" y1="92.4" x2="166" y2="60.6"/>
<line style="fill:none;stroke:#77AC30;stroke-width:1;stroke-linejoin:round;stroke-miterlimit:10;" x1="70" y1="79.6" x2="70" y2="46.5"/>
<path style="fill:none;stroke:#77AC30;stroke-width:1;stroke-miterlimit:10;" d="M448.5,156.9H459 M453.8,151.6v10.5"/>
<path style="fill:none;stroke:#77AC30;stroke-width:1;stroke-miterlimit:10;" d="M304.6,116.5h10.5 M309.9,111.2v10.5"/>
<path style="fill:none;stroke:#77AC30;stroke-width:1;stroke-miterlimit:10;" d="M160.7,92.4h10.5 M166,87.1v10.5"/>
<path style="fill:none;stroke:#77AC30;stroke-width:1;stroke-miterlimit:10;" d="M64.8,79.6h10.5 M70,74.3v10.5"/>
<line style="fill:#77AC30;" x1="450.8" y1="175.5" x2="456.8" y2="175.5"/>
<line style="fill:none;stroke:#77AC30;stroke-width:1;stroke-miterlimit:10;" x1="450.8" y1="175.5" x2="456.8" y2="175.5"/>
<line style="fill:#77AC30;" x1="306.9" y1="138.7" x2="312.9" y2="138.7"/>
<line style="fill:none;stroke:#77AC30;stroke-width:1;stroke-miterlimit:10;" x1="306.9" y1="138.7" x2="312.9" y2="138.7"/>
<line style="fill:#77AC30;" x1="163" y1="124.1" x2="169" y2="124.1"/>
<line style="fill:none;stroke:#77AC30;stroke-width:1;stroke-miterlimit:10;" x1="163" y1="124.1" x2="169" y2="124.1"/>
<line style="fill:#77AC30;" x1="67" y1="112.7" x2="73" y2="112.7"/>
<line style="fill:none;stroke:#77AC30;stroke-width:1;stroke-miterlimit:10;" x1="67" y1="112.7" x2="73" y2="112.7"/>
<line style="fill:#77AC30;" x1="450.8" y1="138.3" x2="456.8" y2="138.3"/>
<line style="fill:none;stroke:#77AC30;stroke-width:1;stroke-miterlimit:10;" x1="450.8" y1="138.3" x2="456.8" y2="138.3"/>
<line style="fill:#77AC30;" x1="306.9" y1="94.3" x2="312.9" y2="94.3"/>
<line style="fill:none;stroke:#77AC30;stroke-width:1;stroke-miterlimit:10;" x1="306.9" y1="94.3" x2="312.9" y2="94.3"/>
<line style="fill:#77AC30;" x1="163" y1="60.6" x2="169" y2="60.6"/>
<line style="fill:none;stroke:#77AC30;stroke-width:1;stroke-miterlimit:10;" x1="163" y1="60.6" x2="169" y2="60.6"/>
<line style="fill:#77AC30;" x1="67" y1="46.5" x2="73" y2="46.5"/>
<line style="fill:none;stroke:#77AC30;stroke-width:1;stroke-miterlimit:10;" x1="67" y1="46.5" x2="73" y2="46.5"/>
<line style="fill:none;stroke:#4DBEEE;stroke-width:1;stroke-linejoin:round;stroke-miterlimit:10;" x1="453.8" y1="142.8" x2="453.8" y2="150.8"/>
<line style="fill:none;stroke:#4DBEEE;stroke-width:1;stroke-linejoin:round;stroke-miterlimit:10;" x1="309.9" y1="136.6" x2="309.9" y2="153.2"/>
<line style="fill:none;stroke:#4DBEEE;stroke-width:1;stroke-linejoin:round;stroke-miterlimit:10;" x1="166" y1="91.9" x2="166" y2="120.7"/>
<line style="fill:none;stroke:#4DBEEE;stroke-width:1;stroke-linejoin:round;stroke-miterlimit:10;" x1="70" y1="78.9" x2="70" y2="114.4"/>
<line style="fill:none;stroke:#4DBEEE;stroke-width:1;stroke-linejoin:round;stroke-miterlimit:10;" x1="453.8" y1="142.8" x2="453.8" y2="134.7"/>
<line style="fill:none;stroke:#4DBEEE;stroke-width:1;stroke-linejoin:round;stroke-miterlimit:10;" x1="309.9" y1="136.6" x2="309.9" y2="119.9"/>
<line style="fill:none;stroke:#4DBEEE;stroke-width:1;stroke-linejoin:round;stroke-miterlimit:10;" x1="166" y1="91.9" x2="166" y2="63.1"/>
<line style="fill:none;stroke:#4DBEEE;stroke-width:1;stroke-linejoin:round;stroke-miterlimit:10;" x1="70" y1="78.9" x2="70" y2="43.4"/>
<polygon style="fill:none;stroke:#4DBEEE;stroke-width:1;stroke-miterlimit:10;" points="448.7,142.8 453.8,149.4 458.8,142.8 
	453.8,136.1 "/>
<polygon style="fill:none;stroke:#4DBEEE;stroke-width:1;stroke-miterlimit:10;" points="304.9,136.6 309.9,143.2 314.9,136.6 
	309.9,129.9 "/>
<polygon style="fill:none;stroke:#4DBEEE;stroke-width:1;stroke-miterlimit:10;" points="161,91.9 166,98.6 171,91.9 166,85.3 "/>
<polygon style="fill:none;stroke:#4DBEEE;stroke-width:1;stroke-miterlimit:10;" points="65,78.9 70,85.5 75,78.9 70,72.2 "/>
<line style="fill:#4DBEEE;" x1="450.8" y1="150.8" x2="456.8" y2="150.8"/>
<line style="fill:none;stroke:#4DBEEE;stroke-width:1;stroke-miterlimit:10;" x1="450.8" y1="150.8" x2="456.8" y2="150.8"/>
<line style="fill:#4DBEEE;" x1="306.9" y1="153.2" x2="312.9" y2="153.2"/>
<line style="fill:none;stroke:#4DBEEE;stroke-width:1;stroke-miterlimit:10;" x1="306.9" y1="153.2" x2="312.9" y2="153.2"/>
<line style="fill:#4DBEEE;" x1="163" y1="120.7" x2="169" y2="120.7"/>
<line style="fill:none;stroke:#4DBEEE;stroke-width:1;stroke-miterlimit:10;" x1="163" y1="120.7" x2="169" y2="120.7"/>
<line style="fill:#4DBEEE;" x1="67" y1="114.4" x2="73" y2="114.4"/>
<line style="fill:none;stroke:#4DBEEE;stroke-width:1;stroke-miterlimit:10;" x1="67" y1="114.4" x2="73" y2="114.4"/>
<line style="fill:#4DBEEE;" x1="450.8" y1="134.7" x2="456.8" y2="134.7"/>
<line style="fill:none;stroke:#4DBEEE;stroke-width:1;stroke-miterlimit:10;" x1="450.8" y1="134.7" x2="456.8" y2="134.7"/>
<line style="fill:#4DBEEE;" x1="306.9" y1="119.9" x2="312.9" y2="119.9"/>
<line style="fill:none;stroke:#4DBEEE;stroke-width:1;stroke-miterlimit:10;" x1="306.9" y1="119.9" x2="312.9" y2="119.9"/>
<line style="fill:#4DBEEE;" x1="163" y1="63.1" x2="169" y2="63.1"/>
<line style="fill:none;stroke:#4DBEEE;stroke-width:1;stroke-miterlimit:10;" x1="163" y1="63.1" x2="169" y2="63.1"/>
<line style="fill:#4DBEEE;" x1="67" y1="43.4" x2="73" y2="43.4"/>
<line style="fill:none;stroke:#4DBEEE;stroke-width:1;stroke-miterlimit:10;" x1="67" y1="43.4" x2="73" y2="43.4"/>
<line style="fill:none;stroke:#A2142F;stroke-width:1;stroke-linejoin:round;stroke-miterlimit:10;" x1="453.8" y1="219.2" x2="453.8" y2="221.4"/>
<line style="fill:none;stroke:#A2142F;stroke-width:1;stroke-linejoin:round;stroke-miterlimit:10;" x1="309.9" y1="213.6" x2="309.9" y2="215.7"/>
<line style="fill:none;stroke:#A2142F;stroke-width:1;stroke-linejoin:round;stroke-miterlimit:10;" x1="166" y1="139.8" x2="166" y2="158.7"/>
<line style="fill:none;stroke:#A2142F;stroke-width:1;stroke-linejoin:round;stroke-miterlimit:10;" x1="70" y1="83.3" x2="70" y2="119"/>
<line style="fill:none;stroke:#A2142F;stroke-width:1;stroke-linejoin:round;stroke-miterlimit:10;" x1="453.8" y1="219.2" x2="453.8" y2="217.1"/>
<line style="fill:none;stroke:#A2142F;stroke-width:1;stroke-linejoin:round;stroke-miterlimit:10;" x1="309.9" y1="213.6" x2="309.9" y2="211.4"/>
<line style="fill:none;stroke:#A2142F;stroke-width:1;stroke-linejoin:round;stroke-miterlimit:10;" x1="166" y1="139.8" x2="166" y2="120.9"/>
<line style="fill:none;stroke:#A2142F;stroke-width:1;stroke-linejoin:round;stroke-miterlimit:10;" x1="70" y1="83.3" x2="70" y2="47.6"/>
<polygon style="fill:none;stroke:#A2142F;stroke-width:1;stroke-miterlimit:10;" points="453.8,225.9 448,215.9 459.5,215.9 "/>
<polygon style="fill:none;stroke:#A2142F;stroke-width:1;stroke-miterlimit:10;" points="309.9,220.2 304.1,210.2 315.6,210.2 "/>
<polygon style="fill:none;stroke:#A2142F;stroke-width:1;stroke-miterlimit:10;" points="166,146.5 160.2,136.5 171.7,136.5 "/>
<polygon style="fill:none;stroke:#A2142F;stroke-width:1;stroke-miterlimit:10;" points="70,90 64.3,80 75.8,80 "/>
<line style="fill:#A2142F;" x1="450.8" y1="221.4" x2="456.8" y2="221.4"/>
<line style="fill:none;stroke:#A2142F;stroke-width:1;stroke-miterlimit:10;" x1="450.8" y1="221.4" x2="456.8" y2="221.4"/>
<line style="fill:#A2142F;" x1="306.9" y1="215.7" x2="312.9" y2="215.7"/>
<line style="fill:none;stroke:#A2142F;stroke-width:1;stroke-miterlimit:10;" x1="306.9" y1="215.7" x2="312.9" y2="215.7"/>
<line style="fill:#A2142F;" x1="163" y1="158.7" x2="169" y2="158.7"/>
<line style="fill:none;stroke:#A2142F;stroke-width:1;stroke-miterlimit:10;" x1="163" y1="158.7" x2="169" y2="158.7"/>
<line style="fill:#A2142F;" x1="67" y1="119" x2="73" y2="119"/>
<line style="fill:none;stroke:#A2142F;stroke-width:1;stroke-miterlimit:10;" x1="67" y1="119" x2="73" y2="119"/>
<line style="fill:#A2142F;" x1="450.8" y1="217.1" x2="456.8" y2="217.1"/>
<line style="fill:none;stroke:#A2142F;stroke-width:1;stroke-miterlimit:10;" x1="450.8" y1="217.1" x2="456.8" y2="217.1"/>
<line style="fill:#A2142F;" x1="306.9" y1="211.4" x2="312.9" y2="211.4"/>
<line style="fill:none;stroke:#A2142F;stroke-width:1;stroke-miterlimit:10;" x1="306.9" y1="211.4" x2="312.9" y2="211.4"/>
<line style="fill:#A2142F;" x1="163" y1="120.9" x2="169" y2="120.9"/>
<line style="fill:none;stroke:#A2142F;stroke-width:1;stroke-miterlimit:10;" x1="163" y1="120.9" x2="169" y2="120.9"/>
<line style="fill:#A2142F;" x1="67" y1="47.6" x2="73" y2="47.6"/>
<line style="fill:none;stroke:#A2142F;stroke-width:1;stroke-miterlimit:10;" x1="67" y1="47.6" x2="73" y2="47.6"/>
<polyline style="fill:none;stroke:#0072BD;stroke-width:2;stroke-linejoin:round;stroke-miterlimit:10;" points="453.8,101 
	309.9,92 166,82.9 70,76.9 "/>
<polyline style="fill:none;stroke:#D95319;stroke-width:2;stroke-linejoin:round;stroke-miterlimit:10;" points="453.8,195.6 
	309.9,153.3 166,111 70,82.8 "/>
<polyline style="fill:none;stroke:#EDB120;stroke-width:2;stroke-linejoin:round;stroke-miterlimit:10;" points="453.8,146.2 
	309.9,119.4 166,92.7 "/>
<polyline style="fill:none;stroke:#7E2F8E;stroke-width:2;stroke-linejoin:round;stroke-miterlimit:10;" points="453.8,233.3 
	309.9,185.9 166,138.4 70,106.7 "/>
<polyline style="fill:none;stroke:#77AC30;stroke-width:2;stroke-linejoin:round;stroke-miterlimit:10;" points="453.8,152.1 
	309.9,123.3 166,94.5 70,75.4 "/>
<polyline style="fill:none;stroke:#4DBEEE;stroke-width:2;stroke-linejoin:round;stroke-miterlimit:10;" points="453.8,149.6 
	309.9,123.4 166,97.2 70,79.8 "/>
<polyline style="fill:none;stroke:#A2142F;stroke-width:2;stroke-linejoin:round;stroke-miterlimit:10;" points="453.8,238.2 
	309.9,185.8 166,133.4 70,98.5 "/>
<rect x="471.8" y="84.8" style="fill:#FFFFFF;" width="81" height="120"/>
<text transform="matrix(1 0 0 1 507 96)" style="font-family:'ArialMT'; font-size:9px;">Bi</text>
<text transform="matrix(1 0 0 1 515.25 100.5)" style="font-family:'ArialMT'; font-size:7.2px;">6</text>
<text transform="matrix(1 0 0 1 519.75 96)" style="font-family:'ArialMT'; font-size:9px;">Sn</text>
<text transform="matrix(1 0 0 1 531 100.5)" style="font-family:'ArialMT'; font-size:7.2px;">2</text>
<text transform="matrix(1 0 0 1 535.5 96)" style="font-family:'ArialMT'; font-size:9px;">F</text>
<text transform="matrix(1 0 0 1 541.5 100.5)" style="font-family:'ArialMT'; font-size:7.2px;">22</text>
<line style="fill:none;stroke:#0072BD;stroke-width:2;stroke-linejoin:round;stroke-miterlimit:10;" x1="474.8" y1="94.4" x2="504.8" y2="94.4"/>
<text transform="matrix(1 0 0 1 507 112.5)" style="font-family:'ArialMT'; font-size:9px;">Bi</text>
<text transform="matrix(1 0 0 1 515.25 117)" style="font-family:'ArialMT'; font-size:7.2px;">6</text>
<text transform="matrix(1 0 0 1 519.75 112.5)" style="font-family:'ArialMT'; font-size:9px;">Sn</text>
<text transform="matrix(1 0 0 1 531 117)" style="font-family:'ArialMT'; font-size:7.2px;">2</text>
<text transform="matrix(1 0 0 1 535.5 112.5)" style="font-family:'ArialMT'; font-size:9px;">F</text>
<text transform="matrix(1 0 0 1 541.5 117)" style="font-family:'ArialMT'; font-size:7.2px;">24</text>
<line style="fill:none;stroke:#D95319;stroke-width:2;stroke-linejoin:round;stroke-miterlimit:10;" x1="474.8" y1="111.2" x2="504.8" y2="111.2"/>
<text transform="matrix(1 0 0 1 507 129.75)" style="font-family:'ArialMT'; font-size:9px;">Bi</text>
<text transform="matrix(1 0 0 1 515.25 134.25)" style="font-family:'ArialMT'; font-size:7.2px;">7</text>
<text transform="matrix(1 0 0 1 519.75 129.75)" style="font-family:'ArialMT'; font-size:9px;">SnF</text>
<text transform="matrix(1 0 0 1 537 134.25)" style="font-family:'ArialMT'; font-size:7.2px;">23</text>
<line style="fill:none;stroke:#EDB120;stroke-width:2;stroke-linejoin:round;stroke-miterlimit:10;" x1="474.8" y1="128" x2="504.8" y2="128"/>
<text transform="matrix(1 0 0 1 507 146.25)" style="font-family:'ArialMT'; font-size:9px;">Bi</text>
<text transform="matrix(1 0 0 1 515.25 150.75)" style="font-family:'ArialMT'; font-size:7.2px;">7</text>
<text transform="matrix(1 0 0 1 519.75 146.25)" style="font-family:'ArialMT'; font-size:9px;">SnF</text>
<text transform="matrix(1 0 0 1 537 150.75)" style="font-family:'ArialMT'; font-size:7.2px;">24</text>
<line style="fill:none;stroke:#7E2F8E;stroke-width:2;stroke-linejoin:round;stroke-miterlimit:10;" x1="474.8" y1="144.8" x2="504.8" y2="144.8"/>
<text transform="matrix(1 0 0 1 507 162.75)" style="font-family:'ArialMT'; font-size:9px;">Bi</text>
<text transform="matrix(1 0 0 1 515.25 167.25)" style="font-family:'ArialMT'; font-size:7.2px;">8</text>
<text transform="matrix(1 0 0 1 519.75 162.75)" style="font-family:'ArialMT'; font-size:9px;">F</text>
<text transform="matrix(1 0 0 1 525.75 167.25)" style="font-family:'ArialMT'; font-size:7.2px;">22</text>
<line style="fill:none;stroke:#77AC30;stroke-width:2;stroke-linejoin:round;stroke-miterlimit:10;" x1="474.8" y1="161.5" x2="504.8" y2="161.5"/>
<text transform="matrix(1 0 0 1 507 180)" style="font-family:'ArialMT'; font-size:9px;">Bi</text>
<text transform="matrix(1 0 0 1 515.25 184.5)" style="font-family:'ArialMT'; font-size:7.2px;">8</text>
<text transform="matrix(1 0 0 1 519.75 180)" style="font-family:'ArialMT'; font-size:9px;">F</text>
<text transform="matrix(1 0 0 1 525.75 184.5)" style="font-family:'ArialMT'; font-size:7.2px;">23</text>
<line style="fill:none;stroke:#4DBEEE;stroke-width:2;stroke-linejoin:round;stroke-miterlimit:10;" x1="474.8" y1="178.3" x2="504.8" y2="178.3"/>
<text transform="matrix(1 0 0 1 507 196.5)" style="font-family:'ArialMT'; font-size:9px;">Bi</text>
<text transform="matrix(1 0 0 1 515.25 201)" style="font-family:'ArialMT'; font-size:7.2px;">8</text>
<text transform="matrix(1 0 0 1 519.75 196.5)" style="font-family:'ArialMT'; font-size:9px;">F</text>
<text transform="matrix(1 0 0 1 525.75 201)" style="font-family:'ArialMT'; font-size:7.2px;">24</text>
<line style="fill:none;stroke:#A2142F;stroke-width:2;stroke-linejoin:round;stroke-miterlimit:10;" x1="474.8" y1="195.1" x2="504.8" y2="195.1"/>
<rect x="471.8" y="84.8" style="fill:none;stroke:#262626;stroke-width:0.5;stroke-miterlimit:10;" width="81" height="120"/>
</svg>
