<?xml version="1.0" encoding="utf-8"?>
<!-- Generator: Adobe Illustrator 23.0.1, SVG Export Plug-In . SVG Version: 6.00 Build 0)  -->
<svg version="1.1" id="Layer_1" xmlns="http://www.w3.org/2000/svg" xmlns:xlink="http://www.w3.org/1999/xlink" x="0px" y="0px"
	 viewBox="0 0 369 308" style="enable-background:new 0 0 369 308;" xml:space="preserve">
<rect x="-20" y="-9" style="fill:#FFFFFF;" width="420" height="315"/>
<rect x="-20" y="-9" style="fill:#FFFFFF;" width="420" height="315"/>
<rect x="34.8" y="14.3" style="fill:#FFFFFF;" width="325.5" height="250.5"/>
<line style="fill:none;stroke:#DFDFDF;stroke-width:0.5002;stroke-linejoin:round;stroke-miterlimit:10;" x1="34.8" y1="264.8" x2="34.8" y2="14.3"/>
<line style="fill:none;stroke:#DFDFDF;stroke-width:0.5002;stroke-linejoin:round;stroke-miterlimit:10;" x1="143.3" y1="264.8" x2="143.3" y2="14.3"/>
<line style="fill:none;stroke:#DFDFDF;stroke-width:0.5002;stroke-linejoin:round;stroke-miterlimit:10;" x1="251.8" y1="264.8" x2="251.8" y2="14.3"/>
<line style="fill:none;stroke:#DFDFDF;stroke-width:0.5002;stroke-linejoin:round;stroke-miterlimit:10;" x1="360.3" y1="264.8" x2="360.3" y2="14.3"/>
<line style="fill:none;stroke:#DFDFDF;stroke-width:0.5002;stroke-linejoin:round;stroke-miterlimit:10;" x1="360.3" y1="264.8" x2="34.8" y2="264.8"/>
<line style="fill:none;stroke:#DFDFDF;stroke-width:0.5002;stroke-linejoin:round;stroke-miterlimit:10;" x1="360.3" y1="239.7" x2="34.8" y2="239.7"/>
<line style="fill:none;stroke:#DFDFDF;stroke-width:0.5002;stroke-linejoin:round;stroke-miterlimit:10;" x1="360.3" y1="214.6" x2="34.8" y2="214.6"/>
<line style="fill:none;stroke:#DFDFDF;stroke-width:0.5002;stroke-linejoin:round;stroke-miterlimit:10;" x1="360.3" y1="189.6" x2="34.8" y2="189.6"/>
<line style="fill:none;stroke:#DFDFDF;stroke-width:0.5002;stroke-linejoin:round;stroke-miterlimit:10;" x1="360.3" y1="164.6" x2="34.8" y2="164.6"/>
<line style="fill:none;stroke:#DFDFDF;stroke-width:0.5002;stroke-linejoin:round;stroke-miterlimit:10;" x1="360.3" y1="139.5" x2="34.8" y2="139.5"/>
<line style="fill:none;stroke:#DFDFDF;stroke-width:0.5002;stroke-linejoin:round;stroke-miterlimit:10;" x1="360.3" y1="114.5" x2="34.8" y2="114.5"/>
<line style="fill:none;stroke:#DFDFDF;stroke-width:0.5002;stroke-linejoin:round;stroke-miterlimit:10;" x1="360.3" y1="89.4" x2="34.8" y2="89.4"/>
<line style="fill:none;stroke:#DFDFDF;stroke-width:0.5002;stroke-linejoin:round;stroke-miterlimit:10;" x1="360.3" y1="64.4" x2="34.8" y2="64.4"/>
<line style="fill:none;stroke:#DFDFDF;stroke-width:0.5002;stroke-linejoin:round;stroke-miterlimit:10;" x1="360.3" y1="39.3" x2="34.8" y2="39.3"/>
<line style="fill:none;stroke:#DFDFDF;stroke-width:0.5002;stroke-linejoin:round;stroke-miterlimit:10;" x1="360.3" y1="14.3" x2="34.8" y2="14.3"/>
<line style="fill:none;stroke:#262626;stroke-width:0.5002;stroke-linecap:square;stroke-linejoin:round;stroke-miterlimit:10;" x1="34.8" y1="264.8" x2="360.3" y2="264.8"/>
<line style="fill:none;stroke:#262626;stroke-width:0.5002;stroke-linecap:square;stroke-linejoin:round;stroke-miterlimit:10;" x1="34.8" y1="264.8" x2="34.8" y2="261.5"/>
<line style="fill:none;stroke:#262626;stroke-width:0.5002;stroke-linecap:square;stroke-linejoin:round;stroke-miterlimit:10;" x1="143.3" y1="264.8" x2="143.3" y2="261.5"/>
<line style="fill:none;stroke:#262626;stroke-width:0.5002;stroke-linecap:square;stroke-linejoin:round;stroke-miterlimit:10;" x1="251.8" y1="264.8" x2="251.8" y2="261.5"/>
<line style="fill:none;stroke:#262626;stroke-width:0.5002;stroke-linecap:square;stroke-linejoin:round;stroke-miterlimit:10;" x1="360.3" y1="264.8" x2="360.3" y2="261.5"/>
<text transform="matrix(-6.123234e-17 -1 1 -6.123234e-17 38.875 304)" style="fill:#262626; font-family:'ArialMT'; font-size:9.9998px;">4c to 4c</text>
<text transform="matrix(-6.123234e-17 -1 1 -6.123234e-17 147.375 304.75)" style="fill:#262626; font-family:'ArialMT'; font-size:9.9998px;">4c to 8d</text>
<text transform="matrix(-6.123234e-17 -1 1 -6.123234e-17 255.875 304.75)" style="fill:#262626; font-family:'ArialMT'; font-size:9.9998px;">8d to 4c</text>
<text transform="matrix(-6.123234e-17 -1 1 -6.123234e-17 364.375 305.5)" style="fill:#262626; font-family:'ArialMT'; font-size:9.9998px;">8d to 8d</text>
<line style="fill:none;stroke:#262626;stroke-width:0.5002;stroke-linecap:square;stroke-linejoin:round;stroke-miterlimit:10;" x1="34.8" y1="264.8" x2="34.8" y2="14.3"/>
<line style="fill:none;stroke:#262626;stroke-width:0.5002;stroke-linecap:square;stroke-linejoin:round;stroke-miterlimit:10;" x1="34.8" y1="264.8" x2="38" y2="264.8"/>
<line style="fill:none;stroke:#262626;stroke-width:0.5002;stroke-linecap:square;stroke-linejoin:round;stroke-miterlimit:10;" x1="34.8" y1="239.7" x2="38" y2="239.7"/>
<line style="fill:none;stroke:#262626;stroke-width:0.5002;stroke-linecap:square;stroke-linejoin:round;stroke-miterlimit:10;" x1="34.8" y1="214.6" x2="38" y2="214.6"/>
<line style="fill:none;stroke:#262626;stroke-width:0.5002;stroke-linecap:square;stroke-linejoin:round;stroke-miterlimit:10;" x1="34.8" y1="189.6" x2="38" y2="189.6"/>
<line style="fill:none;stroke:#262626;stroke-width:0.5002;stroke-linecap:square;stroke-linejoin:round;stroke-miterlimit:10;" x1="34.8" y1="164.6" x2="38" y2="164.6"/>
<line style="fill:none;stroke:#262626;stroke-width:0.5002;stroke-linecap:square;stroke-linejoin:round;stroke-miterlimit:10;" x1="34.8" y1="139.5" x2="38" y2="139.5"/>
<line style="fill:none;stroke:#262626;stroke-width:0.5002;stroke-linecap:square;stroke-linejoin:round;stroke-miterlimit:10;" x1="34.8" y1="114.5" x2="38" y2="114.5"/>
<line style="fill:none;stroke:#262626;stroke-width:0.5002;stroke-linecap:square;stroke-linejoin:round;stroke-miterlimit:10;" x1="34.8" y1="89.4" x2="38" y2="89.4"/>
<line style="fill:none;stroke:#262626;stroke-width:0.5002;stroke-linecap:square;stroke-linejoin:round;stroke-miterlimit:10;" x1="34.8" y1="64.4" x2="38" y2="64.4"/>
<line style="fill:none;stroke:#262626;stroke-width:0.5002;stroke-linecap:square;stroke-linejoin:round;stroke-miterlimit:10;" x1="34.8" y1="39.3" x2="38" y2="39.3"/>
<line style="fill:none;stroke:#262626;stroke-width:0.5002;stroke-linecap:square;stroke-linejoin:round;stroke-miterlimit:10;" x1="34.8" y1="14.3" x2="38" y2="14.3"/>
<text transform="matrix(1 0 0 1 24.75 268.875)" style="fill:#262626; font-family:'ArialMT'; font-size:9.9998px;">0</text>
<text transform="matrix(1 0 0 1 16.5 243.8252)" style="fill:#262626; font-family:'ArialMT'; font-size:9.9998px;">0.5</text>
<text transform="matrix(1 0 0 1 24.75 218.7754)" style="fill:#262626; font-family:'ArialMT'; font-size:9.9998px;">1</text>
<text transform="matrix(1 0 0 1 16.5 193.7246)" style="fill:#262626; font-family:'ArialMT'; font-size:9.9998px;">1.5</text>
<text transform="matrix(1 0 0 1 24.75 168.6748)" style="fill:#262626; font-family:'ArialMT'; font-size:9.9998px;">2</text>
<text transform="matrix(1 0 0 1 16.5 143.625)" style="fill:#262626; font-family:'ArialMT'; font-size:9.9998px;">2.5</text>
<text transform="matrix(1 0 0 1 24.75 118.5752)" style="fill:#262626; font-family:'ArialMT'; font-size:9.9998px;">3</text>
<text transform="matrix(1 0 0 1 16.5 93.5249)" style="fill:#262626; font-family:'ArialMT'; font-size:9.9998px;">3.5</text>
<text transform="matrix(1 0 0 1 24.75 68.4751)" style="fill:#262626; font-family:'ArialMT'; font-size:9.9998px;">4</text>
<text transform="matrix(1 0 0 1 16.5 43.4248)" style="fill:#262626; font-family:'ArialMT'; font-size:9.9998px;">4.5</text>
<text transform="matrix(1 0 0 1 24.75 18.375)" style="fill:#262626; font-family:'ArialMT'; font-size:9.9998px;">5</text>
<text transform="matrix(-6.123234e-17 -1 1 -6.123234e-17 10.5 175.875)" style="fill:#262626; font-family:'ArialMT'; font-size:11.0002px;">Jump rate (Hz)</text>
<path style="fill:#262626;" d="M36.2,11.7c0,0,0-0.1,0-0.1l2-2l-2-2c0,0,0-0.1,0-0.1c0,0,0-0.1,0.1-0.1c0,0,0.1-0.1,0.1-0.1
	c0,0,0.1,0,0.2,0.1l2,2l2-2c0.1,0,0.1-0.1,0.1-0.1c0.1,0,0.1,0,0.1,0.1c0,0,0.1,0.1,0.1,0.1c0,0.1,0,0.1,0,0.1l-2,2l2,2
	c0,0,0,0.1,0,0.1c0,0.1,0,0.1-0.1,0.1c0,0-0.1,0.1-0.1,0.1c0,0-0.1,0-0.1-0.1l-2-2l-2,2c-0.1,0-0.1,0.1-0.2,0.1
	c-0.1,0-0.1,0-0.1-0.1C36.2,11.8,36.2,11.8,36.2,11.7"/>
<text transform="matrix(1 0 0 1 43 12)" style="fill:#262626; font-family:'ArialMT'; font-size:9.9998px;">10</text>
<text transform="matrix(1 0 0 1 54.25 7.5)" style="fill:#262626; font-family:'ArialMT'; font-size:8.0002px;">11</text>
<path style="fill:none;stroke:#0072BD;stroke-width:2.0002;stroke-linejoin:round;stroke-miterlimit:10;" d="M29.5,263.3H40
	 M34.8,258.1v10.5"/>
<path style="fill:none;stroke:#0072BD;stroke-width:2.0002;stroke-linejoin:round;stroke-miterlimit:10;" d="M138,241.9h10.5
	 M143.3,236.6v10.5"/>
<path style="fill:none;stroke:#0072BD;stroke-width:2.0002;stroke-linejoin:round;stroke-miterlimit:10;" d="M246.5,242.1H257
	 M251.8,236.8v10.5"/>
<path style="fill:none;stroke:#0072BD;stroke-width:2.0002;stroke-linejoin:round;stroke-miterlimit:10;" d="M355,228.3h10.5
	 M360.3,223.1v10.5"/>
<path style="fill:#D95319;" d="M34.8,254.8c-3.3,0-6,2.7-6,6c0,3.3,2.7,6,6,6s6-2.7,6-6C40.8,257.5,38.1,254.8,34.8,254.8
	 M34.8,256.8c2.2,0,4,1.8,4,4c0,2.2-1.8,4-4,4c-2.2,0-4-1.8-4-4C30.8,258.6,32.5,256.8,34.8,256.8z"/>
<path style="fill:#D95319;" d="M143.3,215.8c-3.3,0-6,2.7-6,6c0,3.3,2.7,6,6,6c3.3,0,6-2.7,6-6C149.3,218.5,146.6,215.8,143.3,215.8
	 M143.3,217.8c2.2,0,4,1.8,4,4c0,2.2-1.8,4-4,4c-2.2,0-4-1.8-4-4C139.3,219.6,141,217.8,143.3,217.8z"/>
<path style="fill:#D95319;" d="M251.8,216.5c-3.3,0-6,2.7-6,6c0,3.3,2.7,6,6,6c3.3,0,6-2.7,6-6C257.8,219.2,255.1,216.5,251.8,216.5
	 M251.8,218.5c2.2,0,4,1.8,4,4s-1.8,4-4,4c-2.2,0-4-1.8-4-4S249.5,218.5,251.8,218.5z"/>
<path style="fill:#D95319;" d="M360.3,198.5c-3.3,0-6,2.7-6,6c0,3.3,2.7,6,6,6c3.3,0,6-2.7,6-6C366.3,201.2,363.6,198.5,360.3,198.5
	 M360.3,200.5c2.2,0,4,1.8,4,4c0,2.2-1.8,4-4,4c-2.2,0-4-1.8-4-4C356.3,202.3,358,200.5,360.3,200.5z"/>
<path style="fill:none;stroke:#EDB120;stroke-width:2.0002;stroke-linejoin:round;stroke-miterlimit:10;" d="M31.2,252.9l7.1-7.1
	 M31.2,245.8l7.1,7.1 M29.5,249.3H40 M34.8,244.1v10.5"/>
<path style="fill:none;stroke:#EDB120;stroke-width:2.0002;stroke-linejoin:round;stroke-miterlimit:10;" d="M139.7,152l7.1-7.1
	 M139.7,144.9l7.1,7.1 M138,148.4h10.5 M143.3,143.2v10.5"/>
<path style="fill:none;stroke:#EDB120;stroke-width:2.0002;stroke-linejoin:round;stroke-miterlimit:10;" d="M248.2,151.5l7.1-7.1
	 M248.2,144.4l7.1,7.1 M246.5,148H257 M251.8,142.7v10.5"/>
<path style="fill:none;stroke:#EDB120;stroke-width:2.0002;stroke-linejoin:round;stroke-miterlimit:10;" d="M356.7,126.5l7.1-7.1
	 M356.7,119.4l7.1,7.1 M355,123h10.5 M360.3,117.7v10.5"/>
<path style="fill:none;stroke:#7E2F8E;stroke-width:2.0002;stroke-linejoin:round;stroke-miterlimit:10;" d="M29.5,246.5H40
	 M34.8,241.3v10.5"/>
<path style="fill:none;stroke:#7E2F8E;stroke-width:2.0002;stroke-linejoin:round;stroke-miterlimit:10;" d="M138,77.7h10.5
	 M143.3,72.4v10.5"/>
<path style="fill:none;stroke:#7E2F8E;stroke-width:2.0002;stroke-linejoin:round;stroke-miterlimit:10;" d="M246.5,77.9H257
	 M251.8,72.7v10.5"/>
<path style="fill:none;stroke:#7E2F8E;stroke-width:2.0002;stroke-linejoin:round;stroke-miterlimit:10;" d="M355,17.2h10.5
	 M360.3,11.9v10.5"/>
<path style="fill:#77AC30;" d="M34.8,258.8c-3.3,0-6,2.7-6,6s2.7,6,6,6s6-2.7,6-6S38.1,258.8,34.8,258.8 M34.8,260.8
	c2.2,0,4,1.8,4,4s-1.8,4-4,4c-2.2,0-4-1.8-4-4S32.5,260.8,34.8,260.8z"/>
<path style="fill:#77AC30;" d="M143.3,257c-3.3,0-6,2.7-6,6c0,3.3,2.7,6,6,6c3.3,0,6-2.7,6-6C149.3,259.6,146.6,257,143.3,257
	 M143.3,259c2.2,0,4,1.8,4,4c0,2.2-1.8,4-4,4c-2.2,0-4-1.8-4-4C139.3,260.8,141,259,143.3,259z"/>
<path style="fill:#77AC30;" d="M251.8,257c-3.3,0-6,2.7-6,6c0,3.3,2.7,6,6,6c3.3,0,6-2.7,6-6C257.8,259.6,255.1,257,251.8,257
	 M251.8,259c2.2,0,4,1.8,4,4c0,2.2-1.8,4-4,4c-2.2,0-4-1.8-4-4C247.8,260.8,249.5,259,251.8,259z"/>
<path style="fill:#77AC30;" d="M360.3,246c-3.3,0-6,2.7-6,6c0,3.3,2.7,6,6,6c3.3,0,6-2.7,6-6C366.3,248.7,363.6,246,360.3,246
	 M360.3,248c2.2,0,4,1.8,4,4c0,2.2-1.8,4-4,4c-2.2,0-4-1.8-4-4C356.3,249.8,358,248,360.3,248z"/>
<path style="fill:none;stroke:#4DBEEE;stroke-width:2.0002;stroke-linejoin:round;stroke-miterlimit:10;" d="M31.2,268.3l7.1-7.1
	 M31.2,261.2l7.1,7.1 M29.5,264.8H40 M34.8,259.5V270"/>
<path style="fill:none;stroke:#4DBEEE;stroke-width:2.0002;stroke-linejoin:round;stroke-miterlimit:10;" d="M139.7,245.9l7.1-7.1
	 M139.7,238.9l7.1,7.1 M138,242.4h10.5 M143.3,237.2v10.5"/>
<path style="fill:none;stroke:#4DBEEE;stroke-width:2.0002;stroke-linejoin:round;stroke-miterlimit:10;" d="M248.2,245.7l7.1-7.1
	 M248.2,238.7l7.1,7.1 M246.5,242.2H257 M251.8,236.9v10.5"/>
<path style="fill:none;stroke:#4DBEEE;stroke-width:2.0002;stroke-linejoin:round;stroke-miterlimit:10;" d="M356.7,227.4l7.1-7.1
	 M356.7,220.3l7.1,7.1 M355,223.9h10.5 M360.3,218.6v10.5"/>
<path style="fill:none;stroke:#A2142F;stroke-width:2.0002;stroke-linejoin:round;stroke-miterlimit:10;" d="M29.5,260.7H40
	 M34.8,255.5V266"/>
<path style="fill:none;stroke:#A2142F;stroke-width:2.0002;stroke-linejoin:round;stroke-miterlimit:10;" d="M138,189.9h10.5
	 M143.3,184.7v10.5"/>
<path style="fill:none;stroke:#A2142F;stroke-width:2.0002;stroke-linejoin:round;stroke-miterlimit:10;" d="M246.5,190.6H257
	 M251.8,185.3v10.5"/>
<path style="fill:none;stroke:#A2142F;stroke-width:2.0002;stroke-linejoin:round;stroke-miterlimit:10;" d="M355,149.5h10.5
	 M360.3,144.2v10.5"/>
<path style="fill:#0072BD;" d="M34.8,256.1c-3.3,0-6,2.7-6,6c0,3.3,2.7,6,6,6s6-2.7,6-6C40.8,258.8,38.1,256.1,34.8,256.1
	 M34.8,258.1c2.2,0,4,1.8,4,4c0,2.2-1.8,4-4,4c-2.2,0-4-1.8-4-4C30.8,259.9,32.5,258.1,34.8,258.1z"/>
<path style="fill:#0072BD;" d="M143.3,191.7c-3.3,0-6,2.7-6,6c0,3.3,2.7,6,6,6c3.3,0,6-2.7,6-6C149.3,194.4,146.6,191.7,143.3,191.7
	 M143.3,193.7c2.2,0,4,1.8,4,4c0,2.2-1.8,4-4,4c-2.2,0-4-1.8-4-4C139.3,195.5,141,193.7,143.3,193.7z"/>
<path style="fill:#0072BD;" d="M251.8,191.5c-3.3,0-6,2.7-6,6c0,3.3,2.7,6,6,6c3.3,0,6-2.7,6-6C257.8,194.2,255.1,191.5,251.8,191.5
	 M251.8,193.5c2.2,0,4,1.8,4,4c0,2.2-1.8,4-4,4c-2.2,0-4-1.8-4-4C247.8,195.3,249.5,193.5,251.8,193.5z"/>
<path style="fill:#0072BD;" d="M360.3,120.7c-3.3,0-6,2.7-6,6c0,3.3,2.7,6,6,6c3.3,0,6-2.7,6-6C366.3,123.4,363.6,120.7,360.3,120.7
	 M360.3,122.7c2.2,0,4,1.8,4,4c0,2.2-1.8,4-4,4c-2.2,0-4-1.8-4-4C356.3,124.5,358,122.7,360.3,122.7z"/>
<path style="fill:none;stroke:#D95319;stroke-width:2.0002;stroke-linejoin:round;stroke-miterlimit:10;" d="M31.2,268.3l7.1-7.1
	 M31.2,261.2l7.1,7.1 M29.5,264.8H40 M34.8,259.5V270"/>
<path style="fill:none;stroke:#D95319;stroke-width:2.0002;stroke-linejoin:round;stroke-miterlimit:10;" d="M139.7,268.3l7.1-7.1
	 M139.7,261.2l7.1,7.1 M138,264.8h10.5 M143.3,259.5V270"/>
<path style="fill:none;stroke:#D95319;stroke-width:2.0002;stroke-linejoin:round;stroke-miterlimit:10;" d="M248.2,268.3l7.1-7.1
	 M248.2,261.2l7.1,7.1 M246.5,264.8H257 M251.8,259.5V270"/>
<path style="fill:none;stroke:#D95319;stroke-width:2.0002;stroke-linejoin:round;stroke-miterlimit:10;" d="M356.7,268.3l7.1-7.1
	 M356.7,261.2l7.1,7.1 M355,264.8h10.5 M360.3,259.5V270"/>
<path style="fill:none;stroke:#EDB120;stroke-width:2.0002;stroke-linejoin:round;stroke-miterlimit:10;" d="M29.5,264.8H40
	 M34.8,259.5V270"/>
<path style="fill:none;stroke:#EDB120;stroke-width:2.0002;stroke-linejoin:round;stroke-miterlimit:10;" d="M138,264.8h10.5
	 M143.3,259.5V270"/>
<path style="fill:none;stroke:#EDB120;stroke-width:2.0002;stroke-linejoin:round;stroke-miterlimit:10;" d="M246.5,264.8H257
	 M251.8,259.5V270"/>
<path style="fill:none;stroke:#EDB120;stroke-width:2.0002;stroke-linejoin:round;stroke-miterlimit:10;" d="M355,264.8h10.5
	 M360.3,259.5V270"/>
<path style="fill:#7E2F8E;" d="M34.8,258.8c-3.3,0-6,2.7-6,6s2.7,6,6,6s6-2.7,6-6S38.1,258.8,34.8,258.8 M34.8,260.8
	c2.2,0,4,1.8,4,4s-1.8,4-4,4c-2.2,0-4-1.8-4-4S32.5,260.8,34.8,260.8z"/>
<path style="fill:#7E2F8E;" d="M143.3,256.8c-3.3,0-6,2.7-6,6c0,3.3,2.7,6,6,6c3.3,0,6-2.7,6-6C149.3,259.5,146.6,256.8,143.3,256.8
	 M143.3,258.8c2.2,0,4,1.8,4,4c0,2.2-1.8,4-4,4c-2.2,0-4-1.8-4-4C139.3,260.6,141,258.8,143.3,258.8z"/>
<path style="fill:#7E2F8E;" d="M251.8,256.8c-3.3,0-6,2.7-6,6c0,3.3,2.7,6,6,6c3.3,0,6-2.7,6-6C257.8,259.5,255.1,256.8,251.8,256.8
	 M251.8,258.8c2.2,0,4,1.8,4,4c0,2.2-1.8,4-4,4c-2.2,0-4-1.8-4-4C247.8,260.6,249.5,258.8,251.8,258.8z"/>
<path style="fill:#7E2F8E;" d="M360.3,252.5c-3.3,0-6,2.7-6,6c0,3.3,2.7,6,6,6c3.3,0,6-2.7,6-6C366.3,255.2,363.6,252.5,360.3,252.5
	 M360.3,254.5c2.2,0,4,1.8,4,4c0,2.2-1.8,4-4,4c-2.2,0-4-1.8-4-4C356.3,256.3,358,254.5,360.3,254.5z"/>
<path style="fill:none;stroke:#77AC30;stroke-width:2.0002;stroke-linejoin:round;stroke-miterlimit:10;" d="M31.2,255.4l7.1-7.1
	 M31.2,248.4l7.1,7.1 M29.5,251.9H40 M34.8,246.7v10.5"/>
<path style="fill:none;stroke:#77AC30;stroke-width:2.0002;stroke-linejoin:round;stroke-miterlimit:10;" d="M139.7,168.1l7.1-7.1
	 M139.7,161l7.1,7.1 M138,164.6h10.5 M143.3,159.3v10.5"/>
<path style="fill:none;stroke:#77AC30;stroke-width:2.0002;stroke-linejoin:round;stroke-miterlimit:10;" d="M248.2,168.1l7.1-7.1
	 M248.2,161l7.1,7.1 M246.5,164.6H257 M251.8,159.3v10.5"/>
<path style="fill:none;stroke:#77AC30;stroke-width:2.0002;stroke-linejoin:round;stroke-miterlimit:10;" d="M356.7,178.8l7.1-7.1
	 M356.7,171.7l7.1,7.1 M355,175.3h10.5 M360.3,170v10.5"/>
<path style="fill:none;stroke:#4DBEEE;stroke-width:2.0002;stroke-linejoin:round;stroke-miterlimit:10;" d="M29.5,264.8H40
	 M34.8,259.5V270"/>
<path style="fill:none;stroke:#4DBEEE;stroke-width:2.0002;stroke-linejoin:round;stroke-miterlimit:10;" d="M138,262.9h10.5
	 M143.3,257.6v10.5"/>
<path style="fill:none;stroke:#4DBEEE;stroke-width:2.0002;stroke-linejoin:round;stroke-miterlimit:10;" d="M246.5,262.6H257
	 M251.8,257.4v10.5"/>
<path style="fill:none;stroke:#4DBEEE;stroke-width:2.0002;stroke-linejoin:round;stroke-miterlimit:10;" d="M355,256.6h10.5
	 M360.3,251.3v10.5"/>
<path style="fill:#A2142F;" d="M34.8,258c-3.3,0-6,2.7-6,6c0,3.3,2.7,6,6,6s6-2.7,6-6C40.8,260.7,38.1,258,34.8,258 M34.8,260
	c2.2,0,4,1.8,4,4c0,2.2-1.8,4-4,4c-2.2,0-4-1.8-4-4C30.8,261.8,32.5,260,34.8,260z"/>
<path style="fill:#A2142F;" d="M143.3,243.3c-3.3,0-6,2.7-6,6c0,3.3,2.7,6,6,6c3.3,0,6-2.7,6-6C149.3,246,146.6,243.3,143.3,243.3
	 M143.3,245.3c2.2,0,4,1.8,4,4c0,2.2-1.8,4-4,4c-2.2,0-4-1.8-4-4C139.3,247.1,141,245.3,143.3,245.3z"/>
<path style="fill:#A2142F;" d="M251.8,244c-3.3,0-6,2.7-6,6c0,3.3,2.7,6,6,6c3.3,0,6-2.7,6-6C257.8,246.7,255.1,244,251.8,244
	 M251.8,246c2.2,0,4,1.8,4,4c0,2.2-1.8,4-4,4c-2.2,0-4-1.8-4-4C247.8,247.8,249.5,246,251.8,246z"/>
<path style="fill:#A2142F;" d="M360.3,231.7c-3.3,0-6,2.7-6,6c0,3.3,2.7,6,6,6c3.3,0,6-2.7,6-6C366.3,234.3,363.6,231.7,360.3,231.7
	 M360.3,233.7c2.2,0,4,1.8,4,4c0,2.2-1.8,4-4,4c-2.2,0-4-1.8-4-4C356.3,235.4,358,233.7,360.3,233.7z"/>
<path style="fill:none;stroke:#0072BD;stroke-width:2.0002;stroke-linejoin:round;stroke-miterlimit:10;" d="M31.2,260.8l7.1-7.1
	 M31.2,253.7l7.1,7.1 M29.5,257.3H40 M34.8,252v10.5"/>
<path style="fill:none;stroke:#0072BD;stroke-width:2.0002;stroke-linejoin:round;stroke-miterlimit:10;" d="M139.7,197.3l7.1-7.1
	 M139.7,190.2l7.1,7.1 M138,193.7h10.5 M143.3,188.5V199"/>
<path style="fill:none;stroke:#0072BD;stroke-width:2.0002;stroke-linejoin:round;stroke-miterlimit:10;" d="M248.2,197.5l7.1-7.1
	 M248.2,190.4l7.1,7.1 M246.5,194H257 M251.8,188.7v10.5"/>
<path style="fill:none;stroke:#0072BD;stroke-width:2.0002;stroke-linejoin:round;stroke-miterlimit:10;" d="M356.7,171.8l7.1-7.1
	 M356.7,164.8l7.1,7.1 M355,168.3h10.5 M360.3,163v10.5"/>
<path style="fill:none;stroke:#D95319;stroke-width:2.0002;stroke-linejoin:round;stroke-miterlimit:10;" d="M29.5,246.8H40
	 M34.8,241.5V252"/>
<path style="fill:none;stroke:#D95319;stroke-width:2.0002;stroke-linejoin:round;stroke-miterlimit:10;" d="M138,111.5h10.5
	 M143.3,106.3v10.5"/>
<path style="fill:none;stroke:#D95319;stroke-width:2.0002;stroke-linejoin:round;stroke-miterlimit:10;" d="M246.5,111.3H257
	 M251.8,106.1v10.5"/>
<path style="fill:none;stroke:#D95319;stroke-width:2.0002;stroke-linejoin:round;stroke-miterlimit:10;" d="M355,93.8h10.5
	 M360.3,88.5V99"/>
<path style="fill:#EDB120;" d="M34.8,258.8c-3.3,0-6,2.7-6,6s2.7,6,6,6s6-2.7,6-6S38.1,258.8,34.8,258.8 M34.8,260.8
	c2.2,0,4,1.8,4,4s-1.8,4-4,4c-2.2,0-4-1.8-4-4S32.5,260.8,34.8,260.8z"/>
<path style="fill:#EDB120;" d="M143.3,257.6c-3.3,0-6,2.7-6,6c0,3.3,2.7,6,6,6c3.3,0,6-2.7,6-6C149.3,260.3,146.6,257.6,143.3,257.6
	 M143.3,259.6c2.2,0,4,1.8,4,4c0,2.2-1.8,4-4,4c-2.2,0-4-1.8-4-4C139.3,261.4,141,259.6,143.3,259.6z"/>
<path style="fill:#EDB120;" d="M251.8,257.4c-3.3,0-6,2.7-6,6c0,3.3,2.7,6,6,6c3.3,0,6-2.7,6-6C257.8,260.1,255.1,257.4,251.8,257.4
	 M251.8,259.4c2.2,0,4,1.8,4,4c0,2.2-1.8,4-4,4c-2.2,0-4-1.8-4-4C247.8,261.2,249.5,259.4,251.8,259.4z"/>
<path style="fill:#EDB120;" d="M360.3,253.4c-3.3,0-6,2.7-6,6c0,3.3,2.7,6,6,6c3.3,0,6-2.7,6-6C366.3,256.1,363.6,253.4,360.3,253.4
	 M360.3,255.4c2.2,0,4,1.8,4,4s-1.8,4-4,4c-2.2,0-4-1.8-4-4S358,255.4,360.3,255.4z"/>
<path style="fill:none;stroke:#7E2F8E;stroke-width:2.0002;stroke-linejoin:round;stroke-miterlimit:10;" d="M31.2,268.3l7.1-7.1
	 M31.2,261.2l7.1,7.1 M29.5,264.8H40 M34.8,259.5V270"/>
<path style="fill:none;stroke:#7E2F8E;stroke-width:2.0002;stroke-linejoin:round;stroke-miterlimit:10;" d="M139.7,264l7.1-7.1
	 M139.7,257l7.1,7.1 M138,260.5h10.5 M143.3,255.3v10.5"/>
<path style="fill:none;stroke:#7E2F8E;stroke-width:2.0002;stroke-linejoin:round;stroke-miterlimit:10;" d="M248.2,264.3l7.1-7.1
	 M248.2,257.2l7.1,7.1 M246.5,260.7H257 M251.8,255.5V266"/>
<path style="fill:none;stroke:#7E2F8E;stroke-width:2.0002;stroke-linejoin:round;stroke-miterlimit:10;" d="M356.7,256.9l7.1-7.1
	 M356.7,249.8l7.1,7.1 M355,253.4h10.5 M360.3,248.1v10.5"/>
<path style="fill:none;stroke:#77AC30;stroke-width:2.0002;stroke-linejoin:round;stroke-miterlimit:10;" d="M29.5,260.3H40
	 M34.8,255v10.5"/>
<path style="fill:none;stroke:#77AC30;stroke-width:2.0002;stroke-linejoin:round;stroke-miterlimit:10;" d="M138,170.2h10.5
	 M143.3,165v10.5"/>
<path style="fill:none;stroke:#77AC30;stroke-width:2.0002;stroke-linejoin:round;stroke-miterlimit:10;" d="M246.5,170.5H257
	 M251.8,165.2v10.5"/>
<path style="fill:none;stroke:#77AC30;stroke-width:2.0002;stroke-linejoin:round;stroke-miterlimit:10;" d="M355,153h10.5
	 M360.3,147.8v10.5"/>
<path style="fill:#4DBEEE;" d="M34.8,244.2c-3.3,0-6,2.7-6,6c0,3.3,2.7,6,6,6s6-2.7,6-6C40.8,246.9,38.1,244.2,34.8,244.2
	 M34.8,246.2c2.2,0,4,1.8,4,4s-1.8,4-4,4c-2.2,0-4-1.8-4-4S32.5,246.2,34.8,246.2z"/>
<path style="fill:#4DBEEE;" d="M143.3,82c-3.3,0-6,2.7-6,6c0,3.3,2.7,6,6,6c3.3,0,6-2.7,6-6C149.3,84.7,146.6,82,143.3,82 M143.3,84
	c2.2,0,4,1.8,4,4c0,2.2-1.8,4-4,4c-2.2,0-4-1.8-4-4C139.3,85.8,141,84,143.3,84z"/>
<path style="fill:#4DBEEE;" d="M251.8,82.3c-3.3,0-6,2.7-6,6c0,3.3,2.7,6,6,6c3.3,0,6-2.7,6-6C257.8,84.9,255.1,82.3,251.8,82.3
	 M251.8,84.3c2.2,0,4,1.8,4,4c0,2.2-1.8,4-4,4c-2.2,0-4-1.8-4-4C247.8,86,249.5,84.3,251.8,84.3z"/>
<path style="fill:#4DBEEE;" d="M360.3,35.3c-3.3,0-6,2.7-6,6c0,3.3,2.7,6,6,6c3.3,0,6-2.7,6-6C366.3,38,363.6,35.3,360.3,35.3
	 M360.3,37.3c2.2,0,4,1.8,4,4c0,2.2-1.8,4-4,4c-2.2,0-4-1.8-4-4C356.3,39.1,358,37.3,360.3,37.3z"/>
<path style="fill:none;stroke:#A2142F;stroke-width:2.0002;stroke-linejoin:round;stroke-miterlimit:10;" d="M31.2,268.3l7.1-7.1
	 M31.2,261.2l7.1,7.1 M29.5,264.8H40 M34.8,259.5V270"/>
<path style="fill:none;stroke:#A2142F;stroke-width:2.0002;stroke-linejoin:round;stroke-miterlimit:10;" d="M139.7,268.3l7.1-7.1
	 M139.7,261.2l7.1,7.1 M138,264.8h10.5 M143.3,259.5V270"/>
<path style="fill:none;stroke:#A2142F;stroke-width:2.0002;stroke-linejoin:round;stroke-miterlimit:10;" d="M248.2,268.3l7.1-7.1
	 M248.2,261.2l7.1,7.1 M246.5,264.8H257 M251.8,259.5V270"/>
<path style="fill:none;stroke:#A2142F;stroke-width:2.0002;stroke-linejoin:round;stroke-miterlimit:10;" d="M356.7,268.3l7.1-7.1
	 M356.7,261.2l7.1,7.1 M355,264.8h10.5 M360.3,259.5V270"/>
<path style="fill:none;stroke:#0072BD;stroke-width:2.0002;stroke-linejoin:round;stroke-miterlimit:10;" d="M29.5,264.8H40
	 M34.8,259.5V270"/>
<path style="fill:none;stroke:#0072BD;stroke-width:2.0002;stroke-linejoin:round;stroke-miterlimit:10;" d="M138,264.8h10.5
	 M143.3,259.5V270"/>
<path style="fill:none;stroke:#0072BD;stroke-width:2.0002;stroke-linejoin:round;stroke-miterlimit:10;" d="M246.5,264.8H257
	 M251.8,259.5V270"/>
<path style="fill:none;stroke:#0072BD;stroke-width:2.0002;stroke-linejoin:round;stroke-miterlimit:10;" d="M355,264.8h10.5
	 M360.3,259.5V270"/>
<path style="fill:#D95319;" d="M34.8,258.8c-3.3,0-6,2.7-6,6s2.7,6,6,6s6-2.7,6-6S38.1,258.8,34.8,258.8 M34.8,260.8
	c2.2,0,4,1.8,4,4s-1.8,4-4,4c-2.2,0-4-1.8-4-4S32.5,260.8,34.8,260.8z"/>
<path style="fill:#D95319;" d="M143.3,254.3c-3.3,0-6,2.7-6,6c0,3.3,2.7,6,6,6c3.3,0,6-2.7,6-6C149.3,256.9,146.6,254.3,143.3,254.3
	 M143.3,256.3c2.2,0,4,1.8,4,4s-1.8,4-4,4c-2.2,0-4-1.8-4-4S141,256.3,143.3,256.3z"/>
<path style="fill:#D95319;" d="M251.8,254.3c-3.3,0-6,2.7-6,6c0,3.3,2.7,6,6,6c3.3,0,6-2.7,6-6C257.8,256.9,255.1,254.3,251.8,254.3
	 M251.8,256.3c2.2,0,4,1.8,4,4s-1.8,4-4,4c-2.2,0-4-1.8-4-4S249.5,256.3,251.8,256.3z"/>
<path style="fill:#D95319;" d="M360.3,253c-3.3,0-6,2.7-6,6c0,3.3,2.7,6,6,6c3.3,0,6-2.7,6-6C366.3,255.7,363.6,253,360.3,253
	 M360.3,255c2.2,0,4,1.8,4,4c0,2.2-1.8,4-4,4c-2.2,0-4-1.8-4-4C356.3,256.8,358,255,360.3,255z"/>
<path style="fill:none;stroke:#EDB120;stroke-width:2.0002;stroke-linejoin:round;stroke-miterlimit:10;" d="M31.2,260.1l7.1-7.1
	 M31.2,253.1l7.1,7.1 M29.5,256.6H40 M34.8,251.4v10.5"/>
<path style="fill:none;stroke:#EDB120;stroke-width:2.0002;stroke-linejoin:round;stroke-miterlimit:10;" d="M139.7,165.7l7.1-7.1
	 M139.7,158.7l7.1,7.1 M138,162.2h10.5 M143.3,156.9v10.5"/>
<path style="fill:none;stroke:#EDB120;stroke-width:2.0002;stroke-linejoin:round;stroke-miterlimit:10;" d="M248.2,165.1l7.1-7.1
	 M248.2,158l7.1,7.1 M246.5,161.6H257 M251.8,156.3v10.5"/>
<path style="fill:none;stroke:#EDB120;stroke-width:2.0002;stroke-linejoin:round;stroke-miterlimit:10;" d="M356.7,130.8l7.1-7.1
	 M356.7,123.8l7.1,7.1 M355,127.3h10.5 M360.3,122v10.5"/>
</svg>
