<?xml version="1.0" encoding="utf-8"?>
<!-- Generator: Adobe Illustrator 23.0.1, SVG Export Plug-In . SVG Version: 6.00 Build 0)  -->
<svg version="1.1" id="Layer_1" xmlns="http://www.w3.org/2000/svg" xmlns:xlink="http://www.w3.org/1999/xlink" x="0px" y="0px"
	 viewBox="0 0 600 263" style="enable-background:new 0 0 600 263;" xml:space="preserve">
<g>
	<defs>
		<rect id="SVGID_1_" width="600" height="262.5"/>
	</defs>
	<clipPath id="SVGID_2_">
		<use xlink:href="#SVGID_1_"  style="overflow:visible;"/>
	</clipPath>
	<rect style="clip-path:url(#SVGID_2_);fill:#FFFFFF;" width="600" height="262.5"/>
</g>
<rect style="fill:#FFFFFF;" width="600" height="262.5"/>
<rect x="61.5" y="19.5" style="fill:#FFFFFF;" width="366" height="202.5"/>
<line style="opacity:0.149;fill:none;stroke:#262626;stroke-width:0.5;stroke-linejoin:round;stroke-miterlimit:10;" x1="61.5" y1="222" x2="61.5" y2="19.5"/>
<line style="opacity:0.149;fill:none;stroke:#262626;stroke-width:0.5;stroke-linejoin:round;stroke-miterlimit:10;" x1="183.5" y1="222" x2="183.5" y2="19.5"/>
<line style="opacity:0.149;fill:none;stroke:#262626;stroke-width:0.5;stroke-linejoin:round;stroke-miterlimit:10;" x1="305.5" y1="222" x2="305.5" y2="19.5"/>
<line style="opacity:0.149;fill:none;stroke:#262626;stroke-width:0.5;stroke-linejoin:round;stroke-miterlimit:10;" x1="427.5" y1="222" x2="427.5" y2="19.5"/>
<line style="opacity:0.149;fill:none;stroke:#262626;stroke-width:0.5;stroke-linejoin:round;stroke-miterlimit:10;" x1="427.5" y1="222" x2="61.5" y2="222"/>
<line style="opacity:0.149;fill:none;stroke:#262626;stroke-width:0.5;stroke-linejoin:round;stroke-miterlimit:10;" x1="427.5" y1="188.3" x2="61.5" y2="188.3"/>
<line style="opacity:0.149;fill:none;stroke:#262626;stroke-width:0.5;stroke-linejoin:round;stroke-miterlimit:10;" x1="427.5" y1="154.5" x2="61.5" y2="154.5"/>
<line style="opacity:0.149;fill:none;stroke:#262626;stroke-width:0.5;stroke-linejoin:round;stroke-miterlimit:10;" x1="427.5" y1="120.8" x2="61.5" y2="120.8"/>
<line style="opacity:0.149;fill:none;stroke:#262626;stroke-width:0.5;stroke-linejoin:round;stroke-miterlimit:10;" x1="427.5" y1="87" x2="61.5" y2="87"/>
<line style="opacity:0.149;fill:none;stroke:#262626;stroke-width:0.5;stroke-linejoin:round;stroke-miterlimit:10;" x1="427.5" y1="53.3" x2="61.5" y2="53.3"/>
<line style="opacity:0.149;fill:none;stroke:#262626;stroke-width:0.5;stroke-linejoin:round;stroke-miterlimit:10;" x1="427.5" y1="19.5" x2="61.5" y2="19.5"/>
<line style="fill:none;stroke:#262626;stroke-width:0.5;stroke-linecap:square;stroke-linejoin:round;stroke-miterlimit:10;" x1="61.5" y1="222" x2="427.5" y2="222"/>
<line style="fill:none;stroke:#262626;stroke-width:0.5;stroke-linecap:square;stroke-linejoin:round;stroke-miterlimit:10;" x1="61.5" y1="19.5" x2="427.5" y2="19.5"/>
<line style="fill:none;stroke:#262626;stroke-width:0.5;stroke-linecap:square;stroke-linejoin:round;stroke-miterlimit:10;" x1="61.5" y1="222" x2="61.5" y2="218.3"/>
<line style="fill:none;stroke:#262626;stroke-width:0.5;stroke-linecap:square;stroke-linejoin:round;stroke-miterlimit:10;" x1="183.5" y1="222" x2="183.5" y2="218.3"/>
<line style="fill:none;stroke:#262626;stroke-width:0.5;stroke-linecap:square;stroke-linejoin:round;stroke-miterlimit:10;" x1="305.5" y1="222" x2="305.5" y2="218.3"/>
<line style="fill:none;stroke:#262626;stroke-width:0.5;stroke-linecap:square;stroke-linejoin:round;stroke-miterlimit:10;" x1="427.5" y1="222" x2="427.5" y2="218.3"/>
<line style="fill:none;stroke:#262626;stroke-width:0.5;stroke-linecap:square;stroke-linejoin:round;stroke-miterlimit:10;" x1="61.5" y1="19.5" x2="61.5" y2="23.2"/>
<line style="fill:none;stroke:#262626;stroke-width:0.5;stroke-linecap:square;stroke-linejoin:round;stroke-miterlimit:10;" x1="183.5" y1="19.5" x2="183.5" y2="23.2"/>
<line style="fill:none;stroke:#262626;stroke-width:0.5;stroke-linecap:square;stroke-linejoin:round;stroke-miterlimit:10;" x1="305.5" y1="19.5" x2="305.5" y2="23.2"/>
<line style="fill:none;stroke:#262626;stroke-width:0.5;stroke-linecap:square;stroke-linejoin:round;stroke-miterlimit:10;" x1="427.5" y1="19.5" x2="427.5" y2="23.2"/>
<text transform="matrix(-4.333333e-08 -1 1 -4.333333e-08 65.6249 261.2497)" style="fill:#262626; font-family:'ArialMT'; font-size:9.9998px;">4c to 4c</text>
<text transform="matrix(-4.333333e-08 -1 1 -4.333333e-08 187.6249 261.9997)" style="fill:#262626; font-family:'ArialMT'; font-size:9.9998px;">4c to 8d</text>
<text transform="matrix(-4.333333e-08 -1 1 -4.333333e-08 309.6254 261.9996)" style="fill:#262626; font-family:'ArialMT'; font-size:9.9998px;">8d to 4c</text>
<text transform="matrix(-4.333333e-08 -1 1 -4.333333e-08 431.6254 262.7496)" style="fill:#262626; font-family:'ArialMT'; font-size:9.9998px;">8d to 8d</text>
<line style="fill:none;stroke:#262626;stroke-width:0.5;stroke-linecap:square;stroke-linejoin:round;stroke-miterlimit:10;" x1="61.5" y1="222" x2="61.5" y2="19.5"/>
<line style="fill:none;stroke:#262626;stroke-width:0.5;stroke-linecap:square;stroke-linejoin:round;stroke-miterlimit:10;" x1="427.5" y1="222" x2="427.5" y2="19.5"/>
<line style="fill:none;stroke:#262626;stroke-width:0.5;stroke-linecap:square;stroke-linejoin:round;stroke-miterlimit:10;" x1="61.5" y1="222" x2="65.2" y2="222"/>
<line style="fill:none;stroke:#262626;stroke-width:0.5;stroke-linecap:square;stroke-linejoin:round;stroke-miterlimit:10;" x1="61.5" y1="188.3" x2="65.2" y2="188.3"/>
<line style="fill:none;stroke:#262626;stroke-width:0.5;stroke-linecap:square;stroke-linejoin:round;stroke-miterlimit:10;" x1="61.5" y1="154.5" x2="65.2" y2="154.5"/>
<line style="fill:none;stroke:#262626;stroke-width:0.5;stroke-linecap:square;stroke-linejoin:round;stroke-miterlimit:10;" x1="61.5" y1="120.8" x2="65.2" y2="120.8"/>
<line style="fill:none;stroke:#262626;stroke-width:0.5;stroke-linecap:square;stroke-linejoin:round;stroke-miterlimit:10;" x1="61.5" y1="87" x2="65.2" y2="87"/>
<line style="fill:none;stroke:#262626;stroke-width:0.5;stroke-linecap:square;stroke-linejoin:round;stroke-miterlimit:10;" x1="61.5" y1="53.3" x2="65.2" y2="53.3"/>
<line style="fill:none;stroke:#262626;stroke-width:0.5;stroke-linecap:square;stroke-linejoin:round;stroke-miterlimit:10;" x1="61.5" y1="19.5" x2="65.2" y2="19.5"/>
<line style="fill:none;stroke:#262626;stroke-width:0.5;stroke-linecap:square;stroke-linejoin:round;stroke-miterlimit:10;" x1="427.5" y1="222" x2="423.8" y2="222"/>
<line style="fill:none;stroke:#262626;stroke-width:0.5;stroke-linecap:square;stroke-linejoin:round;stroke-miterlimit:10;" x1="427.5" y1="188.3" x2="423.8" y2="188.3"/>
<line style="fill:none;stroke:#262626;stroke-width:0.5;stroke-linecap:square;stroke-linejoin:round;stroke-miterlimit:10;" x1="427.5" y1="154.5" x2="423.8" y2="154.5"/>
<line style="fill:none;stroke:#262626;stroke-width:0.5;stroke-linecap:square;stroke-linejoin:round;stroke-miterlimit:10;" x1="427.5" y1="120.8" x2="423.8" y2="120.8"/>
<line style="fill:none;stroke:#262626;stroke-width:0.5;stroke-linecap:square;stroke-linejoin:round;stroke-miterlimit:10;" x1="427.5" y1="87" x2="423.8" y2="87"/>
<line style="fill:none;stroke:#262626;stroke-width:0.5;stroke-linecap:square;stroke-linejoin:round;stroke-miterlimit:10;" x1="427.5" y1="53.3" x2="423.8" y2="53.3"/>
<line style="fill:none;stroke:#262626;stroke-width:0.5;stroke-linecap:square;stroke-linejoin:round;stroke-miterlimit:10;" x1="427.5" y1="19.5" x2="423.8" y2="19.5"/>
<text transform="matrix(1 0 0 1 51.5 226.125)" style="fill:#262626; font-family:'ArialMT'; font-size:9.9998px;">0</text>
<text transform="matrix(1 0 0 1 43.25 192.375)" style="fill:#262626; font-family:'ArialMT'; font-size:9.9998px;">0.5</text>
<text transform="matrix(1 0 0 1 51.5 158.625)" style="fill:#262626; font-family:'ArialMT'; font-size:9.9998px;">1</text>
<text transform="matrix(1 0 0 1 43.25 124.875)" style="fill:#262626; font-family:'ArialMT'; font-size:9.9998px;">1.5</text>
<text transform="matrix(1 0 0 1 51.5 91.125)" style="fill:#262626; font-family:'ArialMT'; font-size:9.9998px;">2</text>
<text transform="matrix(1 0 0 1 43.25 57.375)" style="fill:#262626; font-family:'ArialMT'; font-size:9.9998px;">2.5</text>
<text transform="matrix(1 0 0 1 51.5 23.625)" style="fill:#262626; font-family:'ArialMT'; font-size:9.9998px;">3</text>
<text transform="matrix(-4.333333e-08 -1 1 -4.333333e-08 37.2499 157.1246)" style="fill:#262626; font-family:'ArialMT'; font-size:11.0002px;">Jump rate (Hz)</text>
<path style="fill:#262626;" d="M62.9,17c0,0,0-0.1,0-0.1l2-2l-2-2c0,0,0-0.1,0-0.1c0,0,0-0.1,0.1-0.1c0,0,0.1-0.1,0.1-0.1
	c0,0,0.1,0,0.2,0.1l2,2l2-2c0.1,0,0.1-0.1,0.1-0.1c0.1,0,0.1,0,0.1,0.1c0,0,0.1,0.1,0.1,0.1c0,0.1,0,0.1,0,0.1l-2,2l2,2
	c0,0,0,0.1,0,0.1c0,0.1,0,0.1-0.1,0.1c0,0-0.1,0.1-0.1,0.1c0,0-0.1,0-0.1-0.1l-2-2l-2,2c-0.1,0-0.1,0.1-0.2,0.1
	c-0.1,0-0.1,0-0.1-0.1C62.9,17.1,62.9,17,62.9,17z"/>
<text transform="matrix(1 0 0 1 69.75 17.25)" style="fill:#262626; font-family:'ArialMT'; font-size:9.9998px;">10</text>
<text transform="matrix(1 0 0 1 81 12.75)" style="fill:#262626; font-family:'ArialMT'; font-size:8.0002px;">11</text>
<path style="fill:none;stroke:#0072BD;stroke-width:2;stroke-miterlimit:10;" d="M58,204.8l7.1-7.1 M58,197.7l7.1,7.1 M56.3,201.2
	h10.5 M61.5,196v10.5"/>
<path style="fill:none;stroke:#0072BD;stroke-width:2;stroke-miterlimit:10;" d="M180,68.8l7.1-7.1 M180,61.8l7.1,7.1 M178.3,65.3
	h10.5 M183.5,60v10.5"/>
<path style="fill:none;stroke:#0072BD;stroke-width:2;stroke-miterlimit:10;" d="M302,68.2l7.1-7.1 M302,61.1l7.1,7.1 M300.3,64.7
	h10.5 M305.5,59.4v10.5"/>
<path style="fill:none;stroke:#0072BD;stroke-width:2;stroke-miterlimit:10;" d="M424,34.5l7.1-7.1 M424,27.5l7.1,7.1 M422.3,31
	h10.5 M427.5,25.7v10.5"/>
<path style="fill:none;stroke:#D95319;stroke-width:2;stroke-miterlimit:10;" d="M56.3,218.3h10.5 M61.5,213v10.5"/>
<path style="fill:none;stroke:#D95319;stroke-width:2;stroke-miterlimit:10;" d="M178.3,166.6h10.5 M183.5,161.4v10.5"/>
<path style="fill:none;stroke:#D95319;stroke-width:2;stroke-miterlimit:10;" d="M300.3,168.6h10.5 M305.5,163.4v10.5"/>
<path style="fill:none;stroke:#D95319;stroke-width:2;stroke-miterlimit:10;" d="M422.3,111.5h10.5 M427.5,106.3v10.5"/>
<path style="fill:#EDB120;" d="M61.5,210.6c-3.3,0-6,2.7-6,6s2.7,6,6,6c3.3,0,6-2.7,6-6S64.8,210.6,61.5,210.6z M61.5,212.6
	c2.2,0,4,1.8,4,4s-1.8,4-4,4c-2.2,0-4-1.8-4-4S59.3,212.6,61.5,212.6z"/>
<path style="fill:#EDB120;" d="M183.5,115.2c-3.3,0-6,2.7-6,6c0,3.3,2.7,6,6,6c3.3,0,6-2.7,6-6C189.5,117.9,186.8,115.2,183.5,115.2
	z M183.5,117.2c2.2,0,4,1.8,4,4c0,2.2-1.8,4-4,4c-2.2,0-4-1.8-4-4C179.5,119,181.3,117.2,183.5,117.2z"/>
<path style="fill:#EDB120;" d="M305.5,116.1c-3.3,0-6,2.7-6,6c0,3.3,2.7,6,6,6c3.3,0,6-2.7,6-6C311.5,118.8,308.8,116.1,305.5,116.1
	z M305.5,118.1c2.2,0,4,1.8,4,4c0,2.2-1.8,4-4,4c-2.2,0-4-1.8-4-4C301.5,119.9,303.3,118.1,305.5,118.1z"/>
<path style="fill:#EDB120;" d="M427.5,60.7c-3.3,0-6,2.7-6,6c0,3.3,2.7,6,6,6c3.3,0,6-2.7,6-6C433.5,63.4,430.8,60.7,427.5,60.7z
	 M427.5,62.7c2.2,0,4,1.8,4,4c0,2.2-1.8,4-4,4c-2.2,0-4-1.8-4-4C423.5,64.5,425.3,62.7,427.5,62.7z"/>
<path style="fill:none;stroke:#7E2F8E;stroke-width:2;stroke-miterlimit:10;" d="M180,222.9l7.1-7.1 M180,215.9l7.1,7.1
	 M178.3,219.4h10.5 M183.5,214.2v10.5"/>
<path style="fill:none;stroke:#7E2F8E;stroke-width:2;stroke-miterlimit:10;" d="M302,222.9l7.1-7.1 M302,215.9l7.1,7.1
	 M300.3,219.4h10.5 M305.5,214.2v10.5"/>
<path style="fill:none;stroke:#7E2F8E;stroke-width:2;stroke-miterlimit:10;" d="M424,217.2l7.1-7.1 M424,210.1l7.1,7.1
	 M422.3,213.6h10.5 M427.5,208.4v10.5"/>
<path style="fill:none;stroke:#77AC30;stroke-width:2;stroke-miterlimit:10;" d="M56.3,211.9h10.5 M61.5,206.7v10.5"/>
<path style="fill:none;stroke:#77AC30;stroke-width:2;stroke-miterlimit:10;" d="M178.3,126.3h10.5 M183.5,121.1v10.5"/>
<path style="fill:none;stroke:#77AC30;stroke-width:2;stroke-miterlimit:10;" d="M300.3,126.7h10.5 M305.5,121.4v10.5"/>
<path style="fill:none;stroke:#77AC30;stroke-width:2;stroke-miterlimit:10;" d="M422.3,92h10.5 M427.5,86.8v10.5"/>
<path style="fill:#4DBEEE;" d="M61.5,210c-3.3,0-6,2.7-6,6s2.7,6,6,6c3.3,0,6-2.7,6-6S64.8,210,61.5,210z M61.5,212c2.2,0,4,1.8,4,4
	s-1.8,4-4,4c-2.2,0-4-1.8-4-4S59.3,212,61.5,212z"/>
<path style="fill:#4DBEEE;" d="M183.5,88.7c-3.3,0-6,2.7-6,6c0,3.3,2.7,6,6,6c3.3,0,6-2.7,6-6C189.5,91.4,186.8,88.7,183.5,88.7z
	 M183.5,90.7c2.2,0,4,1.8,4,4c0,2.2-1.8,4-4,4c-2.2,0-4-1.8-4-4C179.5,92.5,181.3,90.7,183.5,90.7z"/>
<path style="fill:#4DBEEE;" d="M305.5,89c-3.3,0-6,2.7-6,6c0,3.3,2.7,6,6,6c3.3,0,6-2.7,6-6C311.5,91.7,308.8,89,305.5,89z
	 M305.5,91c2.2,0,4,1.8,4,4c0,2.2-1.8,4-4,4c-2.2,0-4-1.8-4-4C301.5,92.8,303.3,91,305.5,91z"/>
<path style="fill:#4DBEEE;" d="M427.5,65.5c-3.3,0-6,2.7-6,6c0,3.3,2.7,6,6,6c3.3,0,6-2.7,6-6C433.5,68.2,430.8,65.5,427.5,65.5z
	 M427.5,67.5c2.2,0,4,1.8,4,4c0,2.2-1.8,4-4,4c-2.2,0-4-1.8-4-4C423.5,69.3,425.3,67.5,427.5,67.5z"/>
<path style="fill:none;stroke:#A2142F;stroke-width:2;stroke-miterlimit:10;" d="M180,219.5l7.1-7.1 M180,212.4l7.1,7.1
	 M178.3,215.9h10.5 M183.5,210.7v10.5"/>
<path style="fill:none;stroke:#A2142F;stroke-width:2;stroke-miterlimit:10;" d="M302,219.5l7.1-7.1 M302,212.4l7.1,7.1
	 M300.3,215.9h10.5 M305.5,210.7v10.5"/>
<path style="fill:none;stroke:#A2142F;stroke-width:2;stroke-miterlimit:10;" d="M424,217.7l7.1-7.1 M424,210.7l7.1,7.1
	 M422.3,214.2h10.5 M427.5,209v10.5"/>
<rect x="441.8" y="60.8" style="fill:#FFFFFF;" width="113.3" height="120"/>
<text transform="matrix(1 0 0 1 477 72)" style="font-family:'ArialMT'; font-size:9px;">Bi</text>
<text transform="matrix(1 0 0 1 485.25 76.5)" style="font-family:'ArialMT'; font-size:7.2px;">6</text>
<text transform="matrix(1 0 0 1 489.75 72)" style="font-family:'ArialMT'; font-size:9px;">Sn</text>
<text transform="matrix(1 0 0 1 501 76.5)" style="font-family:'ArialMT'; font-size:7.2px;">2</text>
<text transform="matrix(1 0 0 1 505.5 72)" style="font-family:'ArialMT'; font-size:9px;">F</text>
<text transform="matrix(1 0 0 1 511.5 76.5)" style="font-family:'ArialMT'; font-size:7.2px;">22</text>
<text transform="matrix(1 0 0 1 519.75 72)" style="font-family:'ArialMT'; font-size:9px;">  </text>
<text transform="matrix(1 0 0 1 525 72)" style="font-family:'ArialMT'; font-size:9px;">1500</text>
<text transform="matrix(1 0 0 1 545.25 72)" style="font-family:'ArialMT'; font-size:9px;">K</text>
<path style="fill:none;stroke:#0072BD;stroke-width:2;stroke-miterlimit:10;" d="M456.6,73.6l6.4-6.4 M456.6,67.3l6.4,6.4
	 M455.3,70.4h9 M459.8,65.9v9"/>
<text transform="matrix(1 0 0 1 477 88.5)" style="font-family:'ArialMT'; font-size:9px;">Bi</text>
<text transform="matrix(1 0 0 1 485.25 93)" style="font-family:'ArialMT'; font-size:7.2px;">6</text>
<text transform="matrix(1 0 0 1 489.75 88.5)" style="font-family:'ArialMT'; font-size:9px;">Sn</text>
<text transform="matrix(1 0 0 1 501 93)" style="font-family:'ArialMT'; font-size:7.2px;">2</text>
<text transform="matrix(1 0 0 1 505.5 88.5)" style="font-family:'ArialMT'; font-size:9px;">F</text>
<text transform="matrix(1 0 0 1 511.5 93)" style="font-family:'ArialMT'; font-size:7.2px;">24</text>
<text transform="matrix(1 0 0 1 519.75 88.5)" style="font-family:'ArialMT'; font-size:9px;">  </text>
<text transform="matrix(1 0 0 1 525 88.5)" style="font-family:'ArialMT'; font-size:9px;">1500</text>
<text transform="matrix(1 0 0 1 545.25 88.5)" style="font-family:'ArialMT'; font-size:9px;">K</text>
<path style="fill:none;stroke:#D95319;stroke-width:2;stroke-miterlimit:10;" d="M455.3,87.2h9 M459.8,82.7v9"/>
<text transform="matrix(1 0 0 1 477 105.75)" style="font-family:'ArialMT'; font-size:9px;">Bi</text>
<text transform="matrix(1 0 0 1 485.25 110.25)" style="font-family:'ArialMT'; font-size:7.2px;">7</text>
<text transform="matrix(1 0 0 1 489.75 105.75)" style="font-family:'ArialMT'; font-size:9px;">SnF</text>
<text transform="matrix(1 0 0 1 507 110.25)" style="font-family:'ArialMT'; font-size:7.2px;">23</text>
<text transform="matrix(1 0 0 1 515.25 105.75)" style="font-family:'ArialMT'; font-size:9px;">  </text>
<text transform="matrix(1 0 0 1 520.5 105.75)" style="font-family:'ArialMT'; font-size:9px;">1500</text>
<text transform="matrix(1 0 0 1 540.75 105.75)" style="font-family:'ArialMT'; font-size:9px;">K</text>
<path style="fill:#EDB120;" d="M459.8,98.5c-3,0-5.5,2.5-5.5,5.5c0,3,2.5,5.5,5.5,5.5c3,0,5.5-2.5,5.5-5.5
	C465.3,100.9,462.8,98.5,459.8,98.5z M459.8,100.5c1.9,0,3.5,1.6,3.5,3.5c0,1.9-1.6,3.5-3.5,3.5c-1.9,0-3.5-1.6-3.5-3.5
	C456.3,102,457.8,100.5,459.8,100.5z"/>
<text transform="matrix(1 0 0 1 477 122.25)" style="font-family:'ArialMT'; font-size:9px;">Bi</text>
<text transform="matrix(1 0 0 1 485.25 126.75)" style="font-family:'ArialMT'; font-size:7.2px;">7</text>
<text transform="matrix(1 0 0 1 489.75 122.25)" style="font-family:'ArialMT'; font-size:9px;">SnF</text>
<text transform="matrix(1 0 0 1 507 126.75)" style="font-family:'ArialMT'; font-size:7.2px;">24</text>
<text transform="matrix(1 0 0 1 515.25 122.25)" style="font-family:'ArialMT'; font-size:9px;">  </text>
<text transform="matrix(1 0 0 1 520.5 122.25)" style="font-family:'ArialMT'; font-size:9px;">1500</text>
<text transform="matrix(1 0 0 1 540.75 122.25)" style="font-family:'ArialMT'; font-size:9px;">K</text>
<path style="fill:none;stroke:#7E2F8E;stroke-width:2;stroke-miterlimit:10;" d="M456.6,123.9l6.4-6.4 M456.6,117.6l6.4,6.4
	 M455.3,120.8h9 M459.8,116.3v9"/>
<text transform="matrix(1 0 0 1 477 138.75)" style="font-family:'ArialMT'; font-size:9px;">Bi</text>
<text transform="matrix(1 0 0 1 485.25 143.25)" style="font-family:'ArialMT'; font-size:7.2px;">8</text>
<text transform="matrix(1 0 0 1 489.75 138.75)" style="font-family:'ArialMT'; font-size:9px;">F</text>
<text transform="matrix(1 0 0 1 495.75 143.25)" style="font-family:'ArialMT'; font-size:7.2px;">22</text>
<text transform="matrix(1 0 0 1 504 138.75)" style="font-family:'ArialMT'; font-size:9px;">  </text>
<text transform="matrix(1 0 0 1 509.25 138.75)" style="font-family:'ArialMT'; font-size:9px;">1500</text>
<text transform="matrix(1 0 0 1 529.5 138.75)" style="font-family:'ArialMT'; font-size:9px;">K</text>
<path style="fill:none;stroke:#77AC30;stroke-width:2;stroke-miterlimit:10;" d="M455.3,137.5h9 M459.8,133v9"/>
<text transform="matrix(1 0 0 1 477 156)" style="font-family:'ArialMT'; font-size:9px;">Bi</text>
<text transform="matrix(1 0 0 1 485.25 160.5)" style="font-family:'ArialMT'; font-size:7.2px;">8</text>
<text transform="matrix(1 0 0 1 489.75 156)" style="font-family:'ArialMT'; font-size:9px;">F</text>
<text transform="matrix(1 0 0 1 495.75 160.5)" style="font-family:'ArialMT'; font-size:7.2px;">23</text>
<text transform="matrix(1 0 0 1 504 156)" style="font-family:'ArialMT'; font-size:9px;">  </text>
<text transform="matrix(1 0 0 1 509.25 156)" style="font-family:'ArialMT'; font-size:9px;">1500</text>
<text transform="matrix(1 0 0 1 529.5 156)" style="font-family:'ArialMT'; font-size:9px;">K</text>
<path style="fill:#4DBEEE;" d="M459.8,148.8c-3,0-5.5,2.5-5.5,5.5c0,3,2.5,5.5,5.5,5.5c3,0,5.5-2.5,5.5-5.5
	C465.3,151.3,462.8,148.8,459.8,148.8z M459.8,150.8c1.9,0,3.5,1.6,3.5,3.5s-1.6,3.5-3.5,3.5c-1.9,0-3.5-1.6-3.5-3.5
	S457.8,150.8,459.8,150.8z"/>
<text transform="matrix(1 0 0 1 477 172.5)" style="font-family:'ArialMT'; font-size:9px;">Bi</text>
<text transform="matrix(1 0 0 1 485.25 177)" style="font-family:'ArialMT'; font-size:7.2px;">8</text>
<text transform="matrix(1 0 0 1 489.75 172.5)" style="font-family:'ArialMT'; font-size:9px;">F</text>
<text transform="matrix(1 0 0 1 495.75 177)" style="font-family:'ArialMT'; font-size:7.2px;">24</text>
<text transform="matrix(1 0 0 1 504 172.5)" style="font-family:'ArialMT'; font-size:9px;">  </text>
<text transform="matrix(1 0 0 1 509.25 172.5)" style="font-family:'ArialMT'; font-size:9px;">1500</text>
<text transform="matrix(1 0 0 1 529.5 172.5)" style="font-family:'ArialMT'; font-size:9px;">K</text>
<path style="fill:none;stroke:#A2142F;stroke-width:2;stroke-miterlimit:10;" d="M456.6,174.2l6.4-6.4 M456.6,167.9l6.4,6.4
	 M455.3,171.1h9 M459.8,166.6v9"/>
<rect x="441.8" y="60.8" style="fill:none;stroke:#262626;stroke-width:0.5;stroke-miterlimit:10;" width="113.3" height="120"/>
</svg>
