<?xml version="1.0" encoding="utf-8"?>
<!-- Generator: Adobe Illustrator 23.0.1, SVG Export Plug-In . SVG Version: 6.00 Build 0)  -->
<svg version="1.1" id="Layer_1" xmlns="http://www.w3.org/2000/svg" xmlns:xlink="http://www.w3.org/1999/xlink" x="0px" y="0px"
	 viewBox="0 0 396 283" style="enable-background:new 0 0 396 283;" xml:space="preserve">
<rect x="2" y="-20" style="fill:#FFFFFF;" width="420" height="315"/>
<rect x="2" y="-20" style="fill:#FFFFFF;" width="420" height="315"/>
<polyline style="fill:#FFFFFF;" points="106.4,249.1 382.3,240.6 382.3,45.8 350.6,14.7 74.8,23.1 74.8,217.9 "/>
<line style="fill:none;stroke:#FF0000;stroke-width:0.9998;stroke-linejoin:round;stroke-miterlimit:10;" x1="233" y1="69" x2="243" y2="71.5"/>
<line style="fill:none;stroke:#FF0000;stroke-width:0.9998;stroke-linejoin:round;stroke-miterlimit:10;" x1="307.3" y1="107.2" x2="350.7" y2="112.5"/>
<line style="fill:none;stroke:#FF0000;stroke-width:0.9998;stroke-linejoin:round;stroke-miterlimit:10;" x1="233" y1="69" x2="227" y2="72"/>
<line style="fill:none;stroke:#FF0000;stroke-width:2.6093;stroke-linejoin:round;stroke-miterlimit:10;" x1="233" y1="69" x2="211.6" y2="119.6"/>
<line style="fill:none;stroke:#FF0000;stroke-width:0.9998;stroke-linejoin:round;stroke-miterlimit:10;" x1="169.3" y1="111.4" x2="213.2" y2="153.9"/>
<line style="fill:none;stroke:#FF0000;stroke-width:0.9998;stroke-linejoin:round;stroke-miterlimit:10;" x1="307.3" y1="107.2" x2="281.4" y2="151.8"/>
<line style="fill:none;stroke:#000000;stroke-width:0.5002;stroke-linejoin:round;stroke-miterlimit:10;" x1="350.6" y1="209.5" x2="350.8" y2="15.6"/>
<line style="fill:none;stroke:#000000;stroke-width:0.5002;stroke-linejoin:round;stroke-miterlimit:10;" x1="382.1" y1="239.7" x2="350.6" y2="209.5"/>
<line style="fill:none;stroke:#000000;stroke-width:0.5002;stroke-linejoin:round;stroke-miterlimit:10;" x1="350.6" y1="209.5" x2="350.8" y2="15.6"/>
<line style="fill:none;stroke:#000000;stroke-width:0.5002;stroke-linejoin:round;stroke-miterlimit:10;" x1="74.8" y1="217.9" x2="350.6" y2="209.5"/>
<text transform="matrix(1 0 0 1 311.8271 31.2119)" style="font-family:'ArialMT'; font-size:9.9998px;">8d</text>
<line style="fill:none;stroke:#FF0000;stroke-width:1.6935;stroke-linejoin:round;stroke-miterlimit:10;" x1="307.3" y1="33.7" x2="350.8" y2="15.6"/>
<line style="fill:none;stroke:#FF0000;stroke-width:2.3865;stroke-linejoin:round;stroke-miterlimit:10;" x1="233" y1="69" x2="227" y2="63.5"/>
<line style="fill:none;stroke:#FF0000;stroke-width:3.0795;stroke-linejoin:round;stroke-miterlimit:10;" x1="233" y1="69" x2="238" y2="80.5"/>
<line style="fill:none;stroke:#FF0000;stroke-width:3.8902;stroke-linejoin:round;stroke-miterlimit:10;" x1="307.3" y1="107.2" x2="281.3" y2="114.8"/>
<line style="fill:none;stroke:#FF0000;stroke-width:0.9998;stroke-linejoin:round;stroke-miterlimit:10;" x1="307.3" y1="33.7" x2="281.2" y2="78.8"/>
<text transform="matrix(1 0 0 1 60.9834 213.6006)" style="fill:#262626; font-family:'ArialMT'; font-size:9.9998px;">0</text>
<line style="fill:none;stroke:#FF0000;stroke-width:2.946;stroke-linejoin:round;stroke-miterlimit:10;" x1="307.3" y1="107.2" x2="326" y2="150.1"/>
<line style="fill:none;stroke:#FF0000;stroke-width:0.9998;stroke-linejoin:round;stroke-miterlimit:10;" x1="243.9" y1="138.1" x2="321.6" y2="158.1"/>
<text transform="matrix(1 0 0 1 60.9834 186.2959)" style="fill:#262626; font-family:'ArialMT'; font-size:9.9998px;">1</text>
<text transform="matrix(1 0 0 1 60.9834 104.3833)" style="fill:#262626; font-family:'ArialMT'; font-size:9.9998px;">4</text>
<text transform="matrix(1 0 0 1 60.9834 49.7744)" style="fill:#262626; font-family:'ArialMT'; font-size:9.9998px;">6</text>
<line style="fill:none;stroke:#FF0000;stroke-width:0.9998;stroke-linejoin:round;stroke-miterlimit:10;" x1="169.3" y1="111.4" x2="143.5" y2="156.1"/>
<text transform="matrix(1 0 0 1 60.9834 158.9922)" style="fill:#262626; font-family:'ArialMT'; font-size:9.9998px;">2</text>
<line style="fill:none;stroke:#FF0000;stroke-width:2.7915;stroke-linejoin:round;stroke-miterlimit:10;" x1="241.7" y1="221.8" x2="243.9" y2="211.6"/>
<text transform="matrix(1 0 0 1 60.9834 131.687)" style="fill:#262626; font-family:'ArialMT'; font-size:9.9998px;">3</text>
<line style="fill:none;stroke:#262626;stroke-width:0.5002;stroke-linejoin:round;stroke-miterlimit:10;" x1="74.8" y1="217.1" x2="69.8" y2="212.3"/>
<line style="fill:none;stroke:#FF0000;stroke-width:2.946;stroke-linejoin:round;stroke-miterlimit:10;" x1="233" y1="69" x2="238.1" y2="54.1"/>
<line style="fill:none;stroke:#FF0000;stroke-width:3.5647;stroke-linejoin:round;stroke-miterlimit:10;" x1="307.3" y1="33.7" x2="281" y2="17.3"/>
<line style="fill:none;stroke:#262626;stroke-width:0.5002;stroke-linecap:round;stroke-linejoin:round;stroke-miterlimit:10;" x1="74.8" y1="189.8" x2="69.8" y2="185"/>
<line style="fill:none;stroke:#FF0000;stroke-width:3.1972;stroke-linejoin:round;stroke-miterlimit:10;" x1="95" y1="73.2" x2="100.1" y2="84.8"/>
<line style="fill:none;stroke:#FF0000;stroke-width:2.0985;stroke-linejoin:round;stroke-miterlimit:10;" x1="169.4" y1="37.9" x2="143.3" y2="83"/>
<line style="fill:none;stroke:#FF0000;stroke-width:2.7915;stroke-linejoin:round;stroke-miterlimit:10;" x1="169.3" y1="111.4" x2="143.4" y2="119"/>
<text transform="matrix(1 0 0 1 60.9834 77.0791)" style="fill:#262626; font-family:'ArialMT'; font-size:9.9998px;">5</text>
<line style="fill:none;stroke:#FF0000;stroke-width:1.6935;stroke-linejoin:round;stroke-miterlimit:10;" x1="243.9" y1="138.1" x2="197.8" y2="161.8"/>
<line style="fill:none;stroke:#FF0000;stroke-width:2.3865;stroke-linejoin:round;stroke-miterlimit:10;" x1="243.9" y1="211.6" x2="197.9" y2="169.4"/>
<line style="fill:none;stroke:#FF0000;stroke-width:2.7915;stroke-linejoin:round;stroke-miterlimit:10;" x1="169.3" y1="111.4" x2="188.1" y2="154.3"/>
<line style="fill:none;stroke:#FF0000;stroke-width:2.946;stroke-linejoin:round;stroke-miterlimit:10;" x1="307.3" y1="33.7" x2="353.1" y2="56"/>
<text transform="matrix(1 0 0 1 311.7715 104.7358)" style="font-family:'ArialMT'; font-size:9.9998px;">8d</text>
<line style="fill:none;stroke:#FF0000;stroke-width:2.6093;stroke-linejoin:round;stroke-miterlimit:10;" x1="307.3" y1="107.2" x2="353.1" y2="76.6"/>
<line style="fill:none;stroke:#FF0000;stroke-width:3.4852;stroke-linejoin:round;stroke-miterlimit:10;" x1="307.3" y1="107.2" x2="359.7" y2="126"/>
<line style="fill:none;stroke:#FF0000;stroke-width:1.6935;stroke-linejoin:round;stroke-miterlimit:10;" x1="315.1" y1="176.4" x2="355.6" y2="95.3"/>
<line style="fill:none;stroke:#262626;stroke-width:0.5002;stroke-linecap:round;stroke-linejoin:round;stroke-miterlimit:10;" x1="74.8" y1="162.5" x2="69.8" y2="157.7"/>
<line style="fill:none;stroke:#FF0000;stroke-width:2.6093;stroke-linejoin:round;stroke-miterlimit:10;" x1="308.7" y1="217.7" x2="315.1" y2="176.4"/>
<line style="fill:none;stroke:#FF0000;stroke-width:3.7725;stroke-linejoin:round;stroke-miterlimit:10;" x1="276.1" y1="219.7" x2="243.9" y2="211.6"/>
<line style="fill:none;stroke:#262626;stroke-width:0.5002;stroke-linecap:round;stroke-linejoin:round;stroke-miterlimit:10;" x1="74.8" y1="135.2" x2="69.8" y2="130.4"/>
<line style="fill:none;stroke:#FF0000;stroke-width:3.3022;stroke-linejoin:round;stroke-miterlimit:10;" x1="95" y1="73.2" x2="100.2" y2="58.3"/>
<line style="fill:none;stroke:#000000;stroke-width:0.5002;stroke-linejoin:round;stroke-miterlimit:10;" x1="74.9" y1="24.1" x2="350.8" y2="15.6"/>
<line style="fill:none;stroke:#FF0000;stroke-width:4.0447;stroke-linejoin:round;stroke-miterlimit:10;" x1="307.3" y1="107.2" x2="307.3" y2="33.7"/>
<line style="fill:none;stroke:#FF0000;stroke-width:0.9998;stroke-linejoin:round;stroke-miterlimit:10;" x1="307.3" y1="33.7" x2="359.7" y2="104.1"/>
<text transform="matrix(1 0 0 1 303.2793 80.0791)" style="font-family:'ArialMT'; font-size:9.9998px;">4c</text>
<line style="fill:none;stroke:#FF0000;stroke-width:0.9998;stroke-linejoin:round;stroke-miterlimit:10;" x1="298.8" y1="82.5" x2="362.9" y2="29.3"/>
<line style="fill:none;stroke:#FF0000;stroke-width:3.5647;stroke-linejoin:round;stroke-miterlimit:10;" x1="351.1" y1="47.9" x2="366.5" y2="30.7"/>
<text transform="matrix(1 0 0 1 355.582 45.4639)" style="font-family:'ArialMT'; font-size:9.9998px;">8d</text>
<line style="fill:none;stroke:#FF0000;stroke-width:2.7915;stroke-linejoin:round;stroke-miterlimit:10;" x1="351.1" y1="47.9" x2="373.3" y2="41.9"/>
<line style="fill:none;stroke:#000000;stroke-width:0.5002;stroke-linejoin:round;stroke-miterlimit:10;" x1="382.3" y1="45.8" x2="350.8" y2="15.6"/>
<line style="fill:none;stroke:#000000;stroke-width:0.5002;stroke-linejoin:round;stroke-miterlimit:10;" x1="74.9" y1="24.1" x2="350.8" y2="15.6"/>
<line style="fill:none;stroke:#000000;stroke-width:0.5002;stroke-linejoin:round;stroke-miterlimit:10;" x1="382.3" y1="45.8" x2="350.8" y2="15.6"/>
<text transform="matrix(1 0 0 1 60.9834 22.4712)" style="fill:#262626; font-family:'ArialMT'; font-size:9.9998px;">7</text>
<line style="fill:none;stroke:#262626;stroke-width:0.5002;stroke-linejoin:round;stroke-miterlimit:10;" x1="74.8" y1="217.9" x2="74.8" y2="23.1"/>
<line style="fill:none;stroke:#000000;stroke-width:0.5002;stroke-linejoin:round;stroke-miterlimit:10;" x1="74.8" y1="217.9" x2="74.9" y2="24.1"/>
<line style="fill:none;stroke:#FF0000;stroke-width:1.6935;stroke-linejoin:round;stroke-miterlimit:10;" x1="79.7" y1="191.8" x2="91.1" y2="201.8"/>
<line style="fill:none;stroke:#262626;stroke-width:0.5002;stroke-linecap:round;stroke-linejoin:round;stroke-miterlimit:10;" x1="74.8" y1="107.9" x2="69.8" y2="103.1"/>
<line style="fill:none;stroke:#FF0000;stroke-width:4.2188;stroke-linejoin:round;stroke-miterlimit:10;" x1="307.3" y1="33.7" x2="312.1" y2="19.8"/>
<line style="fill:none;stroke:#FF0000;stroke-width:1.6935;stroke-linejoin:round;stroke-miterlimit:10;" x1="103.7" y1="226" x2="105.9" y2="215.8"/>
<line style="fill:none;stroke:#262626;stroke-width:0.5002;stroke-linecap:round;stroke-linejoin:round;stroke-miterlimit:10;" x1="74.8" y1="80.6" x2="69.8" y2="75.8"/>
<text transform="matrix(1 0 0 1 1.0254 272.6367)" style="fill:#262626; font-family:'ArialMT'; font-size:11.0002px;">Y (Angstrom)</text>
<line style="fill:none;stroke:#FF0000;stroke-width:0.9998;stroke-linejoin:round;stroke-miterlimit:10;" x1="89.3" y1="229.6" x2="105.9" y2="215.8"/>
<line style="fill:none;stroke:#FF0000;stroke-width:2.3865;stroke-linejoin:round;stroke-miterlimit:10;" x1="116.9" y1="228.8" x2="105.9" y2="215.8"/>
<line style="fill:none;stroke:#FF0000;stroke-width:2.7915;stroke-linejoin:round;stroke-miterlimit:10;" x1="110.4" y1="240.7" x2="149.7" y2="230.1"/>
<line style="fill:none;stroke:#000000;stroke-width:0.5002;stroke-linejoin:round;stroke-miterlimit:10;" x1="106.2" y1="248.1" x2="74.8" y2="217.9"/>
<line style="fill:none;stroke:#262626;stroke-width:0.5002;stroke-linejoin:round;stroke-miterlimit:10;" x1="106.4" y1="249.1" x2="74.8" y2="217.9"/>
<line style="fill:none;stroke:#FF0000;stroke-width:2.7915;stroke-linejoin:round;stroke-miterlimit:10;" x1="169.4" y1="37.9" x2="143.1" y2="21.5"/>
<text transform="matrix(1 0 0 1 237.4697 66.502)" style="font-family:'ArialMT'; font-size:9.9998px;">4c</text>
<line style="fill:none;stroke:#262626;stroke-width:0.5002;stroke-linecap:round;stroke-linejoin:round;stroke-miterlimit:10;" x1="74.8" y1="53.3" x2="69.8" y2="48.5"/>
<line style="fill:none;stroke:#FF0000;stroke-width:2.7915;stroke-linejoin:round;stroke-miterlimit:10;" x1="233" y1="69" x2="242" y2="27.2"/>
<text transform="matrix(1 0 0 1 99.5332 70.7261)" style="font-family:'ArialMT'; font-size:9.9998px;">4c</text>
<line style="fill:none;stroke:#FF0000;stroke-width:1.6935;stroke-linejoin:round;stroke-miterlimit:10;" x1="95" y1="73.2" x2="233" y2="69"/>
<text transform="matrix(1 0 0 1 173.835 108.959)" style="font-family:'ArialMT'; font-size:9.9998px;">8d</text>
<line style="fill:none;stroke:#FF0000;stroke-width:1.6935;stroke-linejoin:round;stroke-miterlimit:10;" x1="169.3" y1="111.4" x2="307.3" y2="107.2"/>
<line style="fill:none;stroke:#FF0000;stroke-width:0.9998;stroke-linejoin:round;stroke-miterlimit:10;" x1="233" y1="69" x2="315.1" y2="176.4"/>
<line style="fill:none;stroke:#FF0000;stroke-width:3.639;stroke-linejoin:round;stroke-miterlimit:10;" x1="307.3" y1="33.7" x2="233" y2="69"/>
<line style="fill:none;stroke:#FF0000;stroke-width:2.6093;stroke-linejoin:round;stroke-miterlimit:10;" x1="298.8" y1="82.5" x2="233" y2="69"/>
<line style="fill:none;stroke:#FF0000;stroke-width:3.639;stroke-linejoin:round;stroke-miterlimit:10;" x1="169.3" y1="111.4" x2="233" y2="69"/>
<line style="fill:none;stroke:#FF0000;stroke-width:2.6093;stroke-linejoin:round;stroke-miterlimit:10;" x1="243.9" y1="138.1" x2="233" y2="69"/>
<path style="fill:#0000FF;" d="M238.8,69c0-3.2-2.6-5.8-5.8-5.8s-5.8,2.6-5.8,5.8s2.6,5.8,5.8,5.8S238.8,72.2,238.8,69"/>
<line style="fill:none;stroke:#FF0000;stroke-width:2.946;stroke-linejoin:round;stroke-miterlimit:10;" x1="307.3" y1="107.2" x2="233" y2="69"/>
<line style="fill:none;stroke:#FF0000;stroke-width:3.0795;stroke-linejoin:round;stroke-miterlimit:10;" x1="169.4" y1="37.9" x2="233" y2="69"/>
<line style="fill:none;stroke:#262626;stroke-width:0.5002;stroke-linejoin:round;stroke-miterlimit:10;" x1="74.8" y1="26" x2="69.8" y2="21.2"/>
<line style="fill:none;stroke:#FF0000;stroke-width:3.0795;stroke-linejoin:round;stroke-miterlimit:10;" x1="307.3" y1="107.2" x2="351" y2="121.4"/>
<text transform="matrix(1 0 0 1 248.4063 135.6372)" style="font-family:'ArialMT'; font-size:9.9998px;">8d</text>
<line style="fill:none;stroke:#FF0000;stroke-width:2.946;stroke-linejoin:round;stroke-miterlimit:10;" x1="307.3" y1="107.2" x2="243.9" y2="138.1"/>
<line style="fill:none;stroke:#FF0000;stroke-width:2.7915;stroke-linejoin:round;stroke-miterlimit:10;" x1="307.3" y1="107.2" x2="315.1" y2="176.4"/>
<path style="fill:#0000FF;" d="M313.1,107.2c0-3.2-2.6-5.8-5.8-5.8c-3.2,0-5.8,2.6-5.8,5.8c0,3.2,2.6,5.8,5.8,5.8
	C310.5,113,313.1,110.4,313.1,107.2"/>
<line style="fill:none;stroke:#FF0000;stroke-width:2.7915;stroke-linejoin:round;stroke-miterlimit:10;" x1="307.3" y1="107.2" x2="298.8" y2="82.5"/>
<line style="fill:none;stroke:#FF0000;stroke-width:2.7915;stroke-linejoin:round;stroke-miterlimit:10;" x1="315.1" y1="176.4" x2="362.4" y2="198.4"/>
<line style="fill:none;stroke:#FF0000;stroke-width:3.0795;stroke-linejoin:round;stroke-miterlimit:10;" x1="205.9" y1="221.9" x2="243.9" y2="211.6"/>
<line style="fill:none;stroke:#FF0000;stroke-width:2.0985;stroke-linejoin:round;stroke-miterlimit:10;" x1="170.8" y1="222" x2="177.1" y2="180.6"/>
<line style="fill:none;stroke:#FF0000;stroke-width:2.0985;stroke-linejoin:round;stroke-miterlimit:10;" x1="138.2" y1="223.9" x2="105.9" y2="215.8"/>
<line style="fill:none;stroke:#262626;stroke-width:0.5002;stroke-linejoin:round;stroke-miterlimit:10;" x1="77.3" y1="220.5" x2="70.4" y2="220.7"/>
<line style="fill:none;stroke:#FF0000;stroke-width:2.0985;stroke-linejoin:round;stroke-miterlimit:10;" x1="74.8" y1="121" x2="75.9" y2="117.8"/>
<line style="fill:none;stroke:#FF0000;stroke-width:3.0795;stroke-linejoin:round;stroke-miterlimit:10;" x1="169.4" y1="37.9" x2="174.2" y2="24"/>
<line style="fill:none;stroke:#FF0000;stroke-width:1.6935;stroke-linejoin:round;stroke-miterlimit:10;" x1="307.3" y1="33.7" x2="283.7" y2="20.7"/>
<text transform="matrix(0.7017 -0.7125 0.7125 0.7017 65.1761 227.9613)" style="fill:#262626; font-family:'ArialMT'; font-size:9.9998px;">6</text>
<text transform="matrix(-6.123234e-17 -1 1 -6.123234e-17 51.8504 152.7749)" style="fill:#262626; font-family:'ArialMT'; font-size:11.0002px;">Z (Angstrom)</text>
<path style="fill:#0000FF;" d="M313.2,33.7c0-3.2-2.6-5.8-5.8-5.8c-3.2,0-5.8,2.6-5.8,5.8s2.6,5.8,5.8,5.8
	C310.6,39.5,313.2,36.9,313.2,33.7"/>
<line style="fill:none;stroke:#FF0000;stroke-width:3.7725;stroke-linejoin:round;stroke-miterlimit:10;" x1="307.3" y1="33.7" x2="274" y2="25.3"/>
<line style="fill:none;stroke:#FF0000;stroke-width:3.3022;stroke-linejoin:round;stroke-miterlimit:10;" x1="307.3" y1="33.7" x2="298.8" y2="82.5"/>
<line style="fill:none;stroke:#FF0000;stroke-width:2.6093;stroke-linejoin:round;stroke-miterlimit:10;" x1="307.3" y1="33.7" x2="308.9" y2="23.2"/>
<line style="fill:none;stroke:#FF0000;stroke-width:2.0985;stroke-linejoin:round;stroke-miterlimit:10;" x1="307.3" y1="33.7" x2="346.6" y2="23.1"/>
<line style="fill:none;stroke:#FF0000;stroke-width:2.946;stroke-linejoin:round;stroke-miterlimit:10;" x1="351.1" y1="47.9" x2="307.3" y2="33.7"/>
<line style="fill:none;stroke:#FF0000;stroke-width:2.946;stroke-linejoin:round;stroke-miterlimit:10;" x1="351" y1="121.4" x2="366.5" y2="127.7"/>
<text transform="matrix(1 0 0 1 319.5518 173.9658)" style="font-family:'ArialMT'; font-size:9.9998px;">4c</text>
<line style="fill:none;stroke:#FF0000;stroke-width:2.6093;stroke-linejoin:round;stroke-miterlimit:10;" x1="315.1" y1="176.4" x2="362.5" y2="146.2"/>
<line style="fill:none;stroke:#FF0000;stroke-width:0.9998;stroke-linejoin:round;stroke-miterlimit:10;" x1="351" y1="121.4" x2="370.3" y2="131"/>
<text transform="matrix(1 0 0 1 248.3496 209.1602)" style="font-family:'ArialMT'; font-size:9.9998px;">8d</text>
<line style="fill:none;stroke:#FF0000;stroke-width:2.3865;stroke-linejoin:round;stroke-miterlimit:10;" x1="169.4" y1="37.9" x2="95" y2="73.2"/>
<line style="fill:none;stroke:#FF0000;stroke-width:2.3865;stroke-linejoin:round;stroke-miterlimit:10;" x1="106" y1="142.3" x2="95" y2="73.2"/>
<line style="fill:none;stroke:#FF0000;stroke-width:0.9998;stroke-linejoin:round;stroke-miterlimit:10;" x1="160.8" y1="86.8" x2="95" y2="73.2"/>
<line style="fill:none;stroke:#FF0000;stroke-width:3.4852;stroke-linejoin:round;stroke-miterlimit:10;" x1="83.8" y1="134.4" x2="106" y2="142.3"/>
<line style="fill:none;stroke:#FF0000;stroke-width:1.6935;stroke-linejoin:round;stroke-miterlimit:10;" x1="79.7" y1="103.8" x2="95" y2="73.2"/>
<path style="fill:#0000FF;" d="M100.9,73.2c0-3.2-2.6-5.8-5.8-5.8c-3.2,0-5.8,2.6-5.8,5.8c0,3.2,2.6,5.8,5.8,5.8
	C98.3,79,100.9,76.4,100.9,73.2"/>
<line style="fill:none;stroke:#FF0000;stroke-width:2.6093;stroke-linejoin:round;stroke-miterlimit:10;" x1="77.2" y1="85.1" x2="95" y2="73.2"/>
<line style="fill:none;stroke:#FF0000;stroke-width:0.9998;stroke-linejoin:round;stroke-miterlimit:10;" x1="169.3" y1="111.4" x2="95" y2="73.2"/>
<line style="fill:none;stroke:#FF0000;stroke-width:1.6935;stroke-linejoin:round;stroke-miterlimit:10;" x1="95" y1="73.2" x2="104" y2="31.5"/>
<line style="fill:none;stroke:#FF0000;stroke-width:2.946;stroke-linejoin:round;stroke-miterlimit:10;" x1="77.2" y1="64.5" x2="95" y2="73.2"/>
<line style="fill:none;stroke:#FF0000;stroke-width:2.6093;stroke-linejoin:round;stroke-miterlimit:10;" x1="169.3" y1="111.4" x2="213.1" y2="125.7"/>
<line style="fill:none;stroke:#FF0000;stroke-width:3.0795;stroke-linejoin:round;stroke-miterlimit:10;" x1="169.3" y1="111.4" x2="160.8" y2="86.8"/>
<text transform="matrix(1 0 0 1 110.4702 139.8599)" style="font-family:'ArialMT'; font-size:9.9998px;">8d</text>
<line style="fill:none;stroke:#FF0000;stroke-width:2.0985;stroke-linejoin:round;stroke-miterlimit:10;" x1="169.3" y1="111.4" x2="106" y2="142.3"/>
<line style="fill:none;stroke:#FF0000;stroke-width:1.6935;stroke-linejoin:round;stroke-miterlimit:10;" x1="169.3" y1="111.4" x2="243.9" y2="211.6"/>
<line style="fill:none;stroke:#FF0000;stroke-width:3.1972;stroke-linejoin:round;stroke-miterlimit:10;" x1="169.3" y1="111.4" x2="177.1" y2="180.6"/>
<path style="fill:#0000FF;" d="M175.2,111.4c0-3.2-2.6-5.8-5.8-5.8s-5.8,2.6-5.8,5.8s2.6,5.8,5.8,5.8S175.2,114.6,175.2,111.4"/>
<line style="fill:none;stroke:#FF0000;stroke-width:3.5647;stroke-linejoin:round;stroke-miterlimit:10;" x1="169.3" y1="111.4" x2="243.9" y2="138.1"/>
<line style="fill:none;stroke:#FF0000;stroke-width:4.1782;stroke-linejoin:round;stroke-miterlimit:10;" x1="169.3" y1="111.4" x2="169.4" y2="37.9"/>
<text transform="matrix(1 0 0 1 110.4141 213.3828)" style="font-family:'ArialMT'; font-size:9.9998px;">8d</text>
<line style="fill:none;stroke:#FF0000;stroke-width:2.3865;stroke-linejoin:round;stroke-miterlimit:10;" x1="169.3" y1="111.4" x2="105.9" y2="215.8"/>
<line style="fill:none;stroke:#FF0000;stroke-width:0.9998;stroke-linejoin:round;stroke-miterlimit:10;" x1="169.3" y1="111.4" x2="298.8" y2="82.5"/>
<line style="fill:none;stroke:#FF0000;stroke-width:0.9998;stroke-linejoin:round;stroke-miterlimit:10;" x1="213.1" y1="52.1" x2="169.3" y2="111.4"/>
<line style="fill:none;stroke:#FF0000;stroke-width:2.3865;stroke-linejoin:round;stroke-miterlimit:10;" x1="177.1" y1="180.6" x2="243.9" y2="211.6"/>
<path style="fill:#0000FF;" d="M249.7,211.6c0-3.2-2.6-5.8-5.8-5.8c-3.2,0-5.8,2.6-5.8,5.8c0,3.2,2.6,5.8,5.8,5.8
	C247.1,217.4,249.7,214.8,249.7,211.6"/>
<line style="fill:none;stroke:#FF0000;stroke-width:2.3865;stroke-linejoin:round;stroke-miterlimit:10;" x1="243.9" y1="138.1" x2="243.9" y2="211.6"/>
<line style="fill:none;stroke:#FF0000;stroke-width:2.6093;stroke-linejoin:round;stroke-miterlimit:10;" x1="243.9" y1="211.6" x2="315.1" y2="176.4"/>
<line style="fill:none;stroke:#FF0000;stroke-width:3.1972;stroke-linejoin:round;stroke-miterlimit:10;" x1="254.8" y1="224.5" x2="243.9" y2="211.6"/>
<line style="fill:none;stroke:#FF0000;stroke-width:3.8902;stroke-linejoin:round;stroke-miterlimit:10;" x1="243.9" y1="138.1" x2="315.1" y2="176.4"/>
<line style="fill:none;stroke:#FF0000;stroke-width:0.9998;stroke-linejoin:round;stroke-miterlimit:10;" x1="243.9" y1="211.6" x2="287.7" y2="152.3"/>
<line style="fill:none;stroke:#FF0000;stroke-width:3.0795;stroke-linejoin:round;stroke-miterlimit:10;" x1="287.6" y1="225.9" x2="243.9" y2="211.6"/>
<line style="fill:none;stroke:#FF0000;stroke-width:3.3982;stroke-linejoin:round;stroke-miterlimit:10;" x1="227.9" y1="229.4" x2="243.9" y2="211.6"/>
<text transform="matrix(1 0 0 1 181.6152 178.1904)" style="font-family:'ArialMT'; font-size:9.9998px;">4c</text>
<line style="fill:none;stroke:#FF0000;stroke-width:3.3022;stroke-linejoin:round;stroke-miterlimit:10;" x1="177.1" y1="180.6" x2="243.9" y2="138.1"/>
<line style="fill:none;stroke:#FF0000;stroke-width:1.6935;stroke-linejoin:round;stroke-miterlimit:10;" x1="213.1" y1="125.7" x2="243.9" y2="211.6"/>
<line style="fill:none;stroke:#FF0000;stroke-width:2.0985;stroke-linejoin:round;stroke-miterlimit:10;" x1="83.7" y1="221.8" x2="105.9" y2="215.8"/>
<line style="fill:none;stroke:#000000;stroke-width:0.5002;stroke-linejoin:round;stroke-miterlimit:10;" x1="106.4" y1="54.3" x2="74.9" y2="24.1"/>
<text transform="matrix(1 0 0 1 173.8911 35.436)" style="font-family:'ArialMT'; font-size:9.9998px;">8d</text>
<line style="fill:none;stroke:#FF0000;stroke-width:2.0985;stroke-linejoin:round;stroke-miterlimit:10;" x1="169.4" y1="37.9" x2="171" y2="27.4"/>
<path style="fill:#0000FF;" d="M175.2,37.9c0-3.2-2.6-5.8-5.8-5.8c-3.2,0-5.8,2.6-5.8,5.8c0,3.2,2.6,5.8,5.8,5.8
	C172.6,43.7,175.2,41.1,175.2,37.9"/>
<line style="fill:none;stroke:#FF0000;stroke-width:3.1972;stroke-linejoin:round;stroke-miterlimit:10;" x1="213.1" y1="52.1" x2="169.4" y2="37.9"/>
<line style="fill:none;stroke:#FF0000;stroke-width:2.0985;stroke-linejoin:round;stroke-miterlimit:10;" x1="169.4" y1="37.9" x2="136.1" y2="29.5"/>
<line style="fill:none;stroke:#FF0000;stroke-width:2.7915;stroke-linejoin:round;stroke-miterlimit:10;" x1="169.4" y1="37.9" x2="160.8" y2="86.8"/>
<line style="fill:none;stroke:#FF0000;stroke-width:3.0795;stroke-linejoin:round;stroke-miterlimit:10;" x1="169.4" y1="37.9" x2="208.6" y2="27.3"/>
<path style="fill:#0000FF;" d="M249.7,138.1c0-3.2-2.6-5.8-5.8-5.8s-5.8,2.6-5.8,5.8s2.6,5.8,5.8,5.8S249.7,141.3,249.7,138.1"/>
<line style="fill:none;stroke:#FF0000;stroke-width:2.946;stroke-linejoin:round;stroke-miterlimit:10;" x1="243.9" y1="138.1" x2="298.8" y2="82.5"/>
<line style="fill:none;stroke:#FF0000;stroke-width:2.0985;stroke-linejoin:round;stroke-miterlimit:10;" x1="243.9" y1="138.1" x2="287.7" y2="152.3"/>
<line style="fill:none;stroke:#FF0000;stroke-width:2.3865;stroke-linejoin:round;stroke-miterlimit:10;" x1="298.8" y1="82.5" x2="315.1" y2="176.4"/>
<line style="fill:none;stroke:#FF0000;stroke-width:0.9998;stroke-linejoin:round;stroke-miterlimit:10;" x1="243.9" y1="138.1" x2="351" y2="121.4"/>
<line style="fill:none;stroke:#FF0000;stroke-width:0.9998;stroke-linejoin:round;stroke-miterlimit:10;" x1="213.1" y1="52.1" x2="243.9" y2="138.1"/>
<line style="fill:none;stroke:#FF0000;stroke-width:1.6935;stroke-linejoin:round;stroke-miterlimit:10;" x1="287.6" y1="225.9" x2="243.9" y2="138.1"/>
<line style="fill:none;stroke:#FF0000;stroke-width:3.4852;stroke-linejoin:round;stroke-miterlimit:10;" x1="213.1" y1="125.7" x2="243.9" y2="138.1"/>
<line style="fill:none;stroke:#FF0000;stroke-width:0.9998;stroke-linejoin:round;stroke-miterlimit:10;" x1="160.8" y1="86.8" x2="243.9" y2="138.1"/>
<line style="fill:none;stroke:#FF0000;stroke-width:3.3982;stroke-linejoin:round;stroke-miterlimit:10;" x1="344.3" y1="229.6" x2="315.1" y2="176.4"/>
<line style="fill:none;stroke:#FF0000;stroke-width:3.0795;stroke-linejoin:round;stroke-miterlimit:10;" x1="287.6" y1="225.9" x2="315.1" y2="176.4"/>
<path style="fill:#0000FF;" d="M320.9,176.4c0-3.2-2.6-5.8-5.8-5.8c-3.2,0-5.8,2.6-5.8,5.8s2.6,5.8,5.8,5.8
	C318.3,182.3,320.9,179.6,320.9,176.4"/>
<line style="fill:none;stroke:#FF0000;stroke-width:2.0985;stroke-linejoin:round;stroke-miterlimit:10;" x1="362" y1="190.6" x2="315.1" y2="176.4"/>
<line style="fill:none;stroke:#FF0000;stroke-width:3.0795;stroke-linejoin:round;stroke-miterlimit:10;" x1="351" y1="121.4" x2="315.1" y2="176.4"/>
<line style="fill:none;stroke:#FF0000;stroke-width:2.3865;stroke-linejoin:round;stroke-miterlimit:10;" x1="287.7" y1="152.3" x2="315.1" y2="176.4"/>
<line style="fill:none;stroke:#FF0000;stroke-width:1.6935;stroke-linejoin:round;stroke-miterlimit:10;" x1="315.1" y1="176.4" x2="371.2" y2="199.4"/>
<line style="fill:none;stroke:#FF0000;stroke-width:2.946;stroke-linejoin:round;stroke-miterlimit:10;" x1="289.9" y1="236.2" x2="287.6" y2="225.9"/>
<line style="fill:none;stroke:#FF0000;stroke-width:2.7915;stroke-linejoin:round;stroke-miterlimit:10;" x1="86.5" y1="206.8" x2="105.9" y2="215.8"/>
<path style="fill:#0000FF;" d="M111.8,215.8c0-3.2-2.6-5.8-5.8-5.8c-3.2,0-5.8,2.6-5.8,5.8c0,3.2,2.6,5.8,5.8,5.8
	C109.1,221.7,111.8,219.1,111.8,215.8"/>
<line style="fill:none;stroke:#FF0000;stroke-width:0.9998;stroke-linejoin:round;stroke-miterlimit:10;" x1="161.4" y1="231.4" x2="105.9" y2="215.8"/>
<line style="fill:none;stroke:#FF0000;stroke-width:0.9998;stroke-linejoin:round;stroke-miterlimit:10;" x1="149.7" y1="230.1" x2="105.9" y2="215.8"/>
<line style="fill:none;stroke:#FF0000;stroke-width:2.7915;stroke-linejoin:round;stroke-miterlimit:10;" x1="106" y1="142.3" x2="105.9" y2="215.8"/>
<line style="fill:none;stroke:#FF0000;stroke-width:2.946;stroke-linejoin:round;stroke-miterlimit:10;" x1="106" y1="142.3" x2="177.1" y2="180.6"/>
<line style="fill:none;stroke:#FF0000;stroke-width:2.3865;stroke-linejoin:round;stroke-miterlimit:10;" x1="105.9" y1="215.8" x2="177.1" y2="180.6"/>
<line style="fill:none;stroke:#FF0000;stroke-width:1.6935;stroke-linejoin:round;stroke-miterlimit:10;" x1="149.7" y1="230.1" x2="106" y2="142.3"/>
<line style="fill:none;stroke:#FF0000;stroke-width:2.6093;stroke-linejoin:round;stroke-miterlimit:10;" x1="86.6" y1="154.7" x2="106" y2="142.3"/>
<line style="fill:none;stroke:#FF0000;stroke-width:0.9998;stroke-linejoin:round;stroke-miterlimit:10;" x1="94.4" y1="139.5" x2="177.1" y2="180.6"/>
<line style="fill:none;stroke:#FF0000;stroke-width:0.9998;stroke-linejoin:round;stroke-miterlimit:10;" x1="105.9" y1="215.8" x2="149.7" y2="156.6"/>
<line style="fill:none;stroke:#FF0000;stroke-width:3.5647;stroke-linejoin:round;stroke-miterlimit:10;" x1="90.5" y1="233" x2="105.9" y2="215.8"/>
<line style="fill:none;stroke:#FF0000;stroke-width:2.0985;stroke-linejoin:round;stroke-miterlimit:10;" x1="351.1" y1="47.9" x2="370.7" y2="54.9"/>
<text transform="matrix(1 0 0 1 355.5264 118.9868)" style="font-family:'ArialMT'; font-size:9.9998px;">8d</text>
<line style="fill:none;stroke:#FF0000;stroke-width:2.7915;stroke-linejoin:round;stroke-miterlimit:10;" x1="351" y1="121.4" x2="370.7" y2="111.6"/>
<line style="fill:none;stroke:#262626;stroke-width:0.5002;stroke-linecap:round;stroke-linejoin:round;stroke-miterlimit:10;" x1="87" y1="229.9" x2="80.1" y2="230.2"/>
<line style="fill:none;stroke:#FF0000;stroke-width:3.1972;stroke-linejoin:round;stroke-miterlimit:10;" x1="298.8" y1="82.5" x2="254.2" y2="29.8"/>
<line style="fill:none;stroke:#FF0000;stroke-width:3.3982;stroke-linejoin:round;stroke-miterlimit:10;" x1="213.1" y1="52.1" x2="229.1" y2="34.3"/>
<line style="fill:none;stroke:#FF0000;stroke-width:0.9998;stroke-linejoin:round;stroke-miterlimit:10;" x1="83.8" y1="112.5" x2="106" y2="142.3"/>
<line style="fill:none;stroke:#FF0000;stroke-width:3.4852;stroke-linejoin:round;stroke-miterlimit:10;" x1="320.9" y1="234.2" x2="287.6" y2="225.9"/>
<line style="fill:none;stroke:#FF0000;stroke-width:0.9998;stroke-linejoin:round;stroke-miterlimit:10;" x1="353" y1="232.3" x2="362" y2="190.6"/>
<line style="fill:none;stroke:#FF0000;stroke-width:0.9998;stroke-linejoin:round;stroke-miterlimit:10;" x1="327.5" y1="233.1" x2="224" y2="194.8"/>
<text transform="matrix(0.7017 -0.7125 0.7125 0.7017 74.8053 237.4445)" style="fill:#262626; font-family:'ArialMT'; font-size:9.9998px;">4</text>
<path style="fill:#0000FF;" d="M111.8,142.3c0-3.2-2.6-5.8-5.8-5.8c-3.2,0-5.8,2.6-5.8,5.8c0,3.2,2.6,5.8,5.8,5.8
	C109.2,148.1,111.8,145.5,111.8,142.3"/>
<line style="fill:none;stroke:#FF0000;stroke-width:2.946;stroke-linejoin:round;stroke-miterlimit:10;" x1="90.5" y1="136.1" x2="106" y2="142.3"/>
<line style="fill:none;stroke:#FF0000;stroke-width:2.3865;stroke-linejoin:round;stroke-miterlimit:10;" x1="106" y1="142.3" x2="160.8" y2="86.8"/>
<line style="fill:none;stroke:#FF0000;stroke-width:2.0985;stroke-linejoin:round;stroke-miterlimit:10;" x1="106" y1="142.3" x2="149.7" y2="156.6"/>
<line style="fill:none;stroke:#FF0000;stroke-width:0.9998;stroke-linejoin:round;stroke-miterlimit:10;" x1="177.1" y1="180.6" x2="287.6" y2="225.9"/>
<line style="fill:none;stroke:#FF0000;stroke-width:3.708;stroke-linejoin:round;stroke-miterlimit:10;" x1="206.3" y1="233.8" x2="177.1" y2="180.6"/>
<line style="fill:none;stroke:#FF0000;stroke-width:3.1972;stroke-linejoin:round;stroke-miterlimit:10;" x1="149.7" y1="230.1" x2="177.1" y2="180.6"/>
<path style="fill:#0000FF;" d="M183,180.6c0-3.2-2.6-5.8-5.8-5.8s-5.8,2.6-5.8,5.8c0,3.2,2.6,5.8,5.8,5.8S183,183.9,183,180.6"/>
<line style="fill:none;stroke:#FF0000;stroke-width:3.3982;stroke-linejoin:round;stroke-miterlimit:10;" x1="149.7" y1="156.6" x2="177.1" y2="180.6"/>
<line style="fill:none;stroke:#FF0000;stroke-width:3.7725;stroke-linejoin:round;stroke-miterlimit:10;" x1="213.1" y1="125.7" x2="177.1" y2="180.6"/>
<line style="fill:none;stroke:#FF0000;stroke-width:1.6935;stroke-linejoin:round;stroke-miterlimit:10;" x1="224" y1="194.8" x2="177.1" y2="180.6"/>
<line style="fill:none;stroke:#FF0000;stroke-width:2.3865;stroke-linejoin:round;stroke-miterlimit:10;" x1="160.8" y1="86.8" x2="177.1" y2="180.6"/>
<line style="fill:none;stroke:#FF0000;stroke-width:2.3865;stroke-linejoin:round;stroke-miterlimit:10;" x1="151.9" y1="240.4" x2="149.7" y2="230.1"/>
<text transform="matrix(1 0 0 1 173 9.6357)" style="font-family:'ArialMT'; font-size:11.0002px;">Jumps between sites</text>
<line style="fill:none;stroke:#FF0000;stroke-width:3.3982;stroke-linejoin:round;stroke-miterlimit:10;" x1="351.1" y1="47.9" x2="343.9" y2="34.9"/>
<line style="fill:none;stroke:#FF0000;stroke-width:3.708;stroke-linejoin:round;stroke-miterlimit:10;" x1="351" y1="121.4" x2="298.8" y2="82.5"/>
<line style="fill:none;stroke:#FF0000;stroke-width:2.946;stroke-linejoin:round;stroke-miterlimit:10;" x1="298.8" y1="82.5" x2="289.9" y2="41.7"/>
<text transform="matrix(1 0 0 1 217.5898 123.2109)" style="font-family:'ArialMT'; font-size:9.9998px;">8d</text>
<line style="fill:none;stroke:#FF0000;stroke-width:0.9998;stroke-linejoin:round;stroke-miterlimit:10;" x1="213.1" y1="125.7" x2="351" y2="121.4"/>
<line style="fill:none;stroke:#FF0000;stroke-width:2.3865;stroke-linejoin:round;stroke-miterlimit:10;" x1="287.7" y1="152.3" x2="298.8" y2="82.5"/>
<line style="fill:none;stroke:#FF0000;stroke-width:4.2577;stroke-linejoin:round;stroke-miterlimit:10;" x1="351.1" y1="47.9" x2="298.8" y2="82.5"/>
<path style="fill:#0000FF;" d="M304.6,82.5c0-3.2-2.6-5.8-5.8-5.8c-3.2,0-5.8,2.6-5.8,5.8s2.6,5.8,5.8,5.8
	C302,88.4,304.6,85.8,304.6,82.5"/>
<line style="fill:none;stroke:#FF0000;stroke-width:1.6935;stroke-linejoin:round;stroke-miterlimit:10;" x1="213.1" y1="52.1" x2="298.8" y2="82.5"/>
<line style="fill:none;stroke:#FF0000;stroke-width:0.9998;stroke-linejoin:round;stroke-miterlimit:10;" x1="213.1" y1="125.7" x2="298.8" y2="82.5"/>
<line style="fill:none;stroke:#FF0000;stroke-width:2.7915;stroke-linejoin:round;stroke-miterlimit:10;" x1="351" y1="121.4" x2="373.2" y2="129.4"/>
<line style="fill:none;stroke:#FF0000;stroke-width:2.0985;stroke-linejoin:round;stroke-miterlimit:10;" x1="365.8" y1="127.9" x2="377.3" y2="107.2"/>
<line style="fill:none;stroke:#FF0000;stroke-width:2.946;stroke-linejoin:round;stroke-miterlimit:10;" x1="365.9" y1="61.9" x2="377.3" y2="71.9"/>
<text transform="matrix(1 0 0 1 292.1611 149.8877)" style="font-family:'ArialMT'; font-size:9.9998px;">8d</text>
<line style="fill:none;stroke:#FF0000;stroke-width:2.0985;stroke-linejoin:round;stroke-miterlimit:10;" x1="351.1" y1="47.9" x2="287.7" y2="152.3"/>
<line style="fill:none;stroke:#FF0000;stroke-width:0.9998;stroke-linejoin:round;stroke-miterlimit:10;" x1="273.4" y1="101.5" x2="351" y2="121.4"/>
<line style="fill:none;stroke:#FF0000;stroke-width:1.6935;stroke-linejoin:round;stroke-miterlimit:10;" x1="351" y1="121.4" x2="362" y2="190.6"/>
<line style="fill:none;stroke:#FF0000;stroke-width:3.8333;stroke-linejoin:round;stroke-miterlimit:10;" x1="287.7" y1="152.3" x2="351" y2="121.4"/>
<path style="fill:#0000FF;" d="M356.9,121.4c0-3.2-2.6-5.8-5.8-5.8c-3.2,0-5.8,2.6-5.8,5.8s2.6,5.8,5.8,5.8
	C354.3,127.3,356.9,124.7,356.9,121.4"/>
<line style="fill:none;stroke:#FF0000;stroke-width:3.0795;stroke-linejoin:round;stroke-miterlimit:10;" x1="351.1" y1="47.9" x2="351" y2="121.4"/>
<line style="fill:none;stroke:#FF0000;stroke-width:0.9998;stroke-linejoin:round;stroke-miterlimit:10;" x1="351" y1="121.4" x2="373.2" y2="151.2"/>
<text transform="matrix(1 0 0 1 292.1055 223.4111)" style="font-family:'ArialMT'; font-size:9.9998px;">8d</text>
<line style="fill:none;stroke:#FF0000;stroke-width:0.9998;stroke-linejoin:round;stroke-miterlimit:10;" x1="287.6" y1="225.9" x2="351" y2="121.4"/>
<line style="fill:none;stroke:#FF0000;stroke-width:2.3865;stroke-linejoin:round;stroke-miterlimit:10;" x1="160.8" y1="86.8" x2="116.3" y2="34"/>
<line style="fill:none;stroke:#FF0000;stroke-width:0.9998;stroke-linejoin:round;stroke-miterlimit:10;" x1="213.1" y1="52.1" x2="157.7" y2="36.5"/>
<line style="fill:none;stroke:#FF0000;stroke-width:3.3022;stroke-linejoin:round;stroke-miterlimit:10;" x1="362" y1="190.6" x2="379.8" y2="199.3"/>
<line style="fill:none;stroke:#FF0000;stroke-width:2.946;stroke-linejoin:round;stroke-miterlimit:10;" x1="215" y1="236.5" x2="224" y2="194.8"/>
<line style="fill:none;stroke:#FF0000;stroke-width:3.5647;stroke-linejoin:round;stroke-miterlimit:10;" x1="248.4" y1="236.4" x2="287.6" y2="225.9"/>
<line style="fill:none;stroke:#FF0000;stroke-width:2.3865;stroke-linejoin:round;stroke-miterlimit:10;" x1="183" y1="238.4" x2="149.7" y2="230.1"/>
<line style="fill:none;stroke:#FF0000;stroke-width:1.6935;stroke-linejoin:round;stroke-miterlimit:10;" x1="95.3" y1="207.8" x2="149.7" y2="230.1"/>
<line style="fill:none;stroke:#FF0000;stroke-width:0.9998;stroke-linejoin:round;stroke-miterlimit:10;" x1="374.9" y1="236.9" x2="378.2" y2="234.7"/>
<text transform="matrix(1 0 0 1 165.3428 84.3018)" style="font-family:'ArialMT'; font-size:9.9998px;">4c</text>
<line style="fill:none;stroke:#FF0000;stroke-width:0.9998;stroke-linejoin:round;stroke-miterlimit:10;" x1="351.1" y1="47.9" x2="325.9" y2="38.6"/>
<path style="fill:#0000FF;" d="M356.9,47.9c0-3.2-2.6-5.8-5.8-5.8c-3.2,0-5.8,2.6-5.8,5.8c0,3.2,2.6,5.8,5.8,5.8
	C354.3,53.8,356.9,51.1,356.9,47.9"/>
<line style="fill:none;stroke:#FF0000;stroke-width:0.9998;stroke-linejoin:round;stroke-miterlimit:10;" x1="351.1" y1="47.9" x2="353.3" y2="37.8"/>
<line style="fill:none;stroke:#FF0000;stroke-width:0.9998;stroke-linejoin:round;stroke-miterlimit:10;" x1="351.1" y1="47.9" x2="373.2" y2="77.7"/>
<line style="fill:none;stroke:#FF0000;stroke-width:3.4852;stroke-linejoin:round;stroke-miterlimit:10;" x1="351.1" y1="47.9" x2="318.8" y2="39.8"/>
<text transform="matrix(1 0 0 1 366.4629 188.1211)" style="font-family:'ArialMT'; font-size:9.9998px;">4c</text>
<line style="fill:none;stroke:#FF0000;stroke-width:3.639;stroke-linejoin:round;stroke-miterlimit:10;" x1="362" y1="190.6" x2="379.8" y2="178.7"/>
<line style="fill:none;stroke:#FF0000;stroke-width:3.708;stroke-linejoin:round;stroke-miterlimit:10;" x1="213.1" y1="52.1" x2="206" y2="39.1"/>
<path style="fill:#0000FF;" d="M166.7,86.8c0-3.2-2.6-5.8-5.8-5.8s-5.8,2.6-5.8,5.8c0,3.2,2.6,5.8,5.8,5.8S166.7,90,166.7,86.8"/>
<line style="fill:none;stroke:#FF0000;stroke-width:2.0985;stroke-linejoin:round;stroke-miterlimit:10;" x1="94.8" y1="63.3" x2="160.8" y2="86.8"/>
<line style="fill:none;stroke:#FF0000;stroke-width:4.2577;stroke-linejoin:round;stroke-miterlimit:10;" x1="213.1" y1="52.1" x2="160.8" y2="86.8"/>
<line style="fill:none;stroke:#FF0000;stroke-width:2.7915;stroke-linejoin:round;stroke-miterlimit:10;" x1="94.8" y1="120" x2="160.8" y2="86.8"/>
<line style="fill:none;stroke:#FF0000;stroke-width:3.5647;stroke-linejoin:round;stroke-miterlimit:10;" x1="213.1" y1="125.7" x2="160.8" y2="86.8"/>
<line style="fill:none;stroke:#FF0000;stroke-width:2.0985;stroke-linejoin:round;stroke-miterlimit:10;" x1="149.7" y1="156.6" x2="160.8" y2="86.8"/>
<line style="fill:none;stroke:#FF0000;stroke-width:2.3865;stroke-linejoin:round;stroke-miterlimit:10;" x1="160.8" y1="86.8" x2="151.9" y2="45.9"/>
<line style="fill:none;stroke:#FF0000;stroke-width:2.6093;stroke-linejoin:round;stroke-miterlimit:10;" x1="213.1" y1="125.7" x2="287.7" y2="152.3"/>
<text transform="matrix(1 0 0 1 154.2251 154.1123)" style="font-family:'ArialMT'; font-size:9.9998px;">8d</text>
<line style="fill:none;stroke:#FF0000;stroke-width:2.946;stroke-linejoin:round;stroke-miterlimit:10;" x1="149.7" y1="156.6" x2="213.1" y2="125.7"/>
<path style="fill:#0000FF;" d="M218.9,125.7c0-3.2-2.6-5.8-5.8-5.8s-5.8,2.6-5.8,5.8c0,3.2,2.6,5.8,5.8,5.8S218.9,128.9,218.9,125.7
	"/>
<line style="fill:none;stroke:#FF0000;stroke-width:2.7915;stroke-linejoin:round;stroke-miterlimit:10;" x1="213.1" y1="125.7" x2="224" y2="194.8"/>
<line style="fill:none;stroke:#FF0000;stroke-width:0.9998;stroke-linejoin:round;stroke-miterlimit:10;" x1="259.2" y1="101.9" x2="213.1" y2="125.7"/>
<line style="fill:none;stroke:#FF0000;stroke-width:3.1972;stroke-linejoin:round;stroke-miterlimit:10;" x1="213.1" y1="52.1" x2="213.1" y2="125.7"/>
<path style="fill:#0000FF;" d="M293.4,225.9c0-3.2-2.6-5.8-5.8-5.8s-5.8,2.6-5.8,5.8s2.6,5.8,5.8,5.8S293.4,229.1,293.4,225.9"/>
<line style="fill:none;stroke:#FF0000;stroke-width:3.8902;stroke-linejoin:round;stroke-miterlimit:10;" x1="287.6" y1="225.9" x2="287.7" y2="152.3"/>
<text transform="matrix(1 0 0 1 228.5264 192.3447)" style="font-family:'ArialMT'; font-size:9.9998px;">4c</text>
<line style="fill:none;stroke:#FF0000;stroke-width:3.639;stroke-linejoin:round;stroke-miterlimit:10;" x1="224" y1="194.8" x2="287.7" y2="152.3"/>
<line style="fill:none;stroke:#FF0000;stroke-width:2.6093;stroke-linejoin:round;stroke-miterlimit:10;" x1="245.4" y1="144.2" x2="224" y2="194.8"/>
<line style="fill:none;stroke:#FF0000;stroke-width:0.9998;stroke-linejoin:round;stroke-miterlimit:10;" x1="243.3" y1="182.9" x2="287.6" y2="225.9"/>
<line style="fill:none;stroke:#FF0000;stroke-width:2.946;stroke-linejoin:round;stroke-miterlimit:10;" x1="282.8" y1="239.7" x2="287.6" y2="225.9"/>
<line style="fill:none;stroke:#FF0000;stroke-width:3.3022;stroke-linejoin:round;stroke-miterlimit:10;" x1="144.9" y1="243.9" x2="149.7" y2="230.1"/>
<line style="fill:none;stroke:#262626;stroke-width:0.5002;stroke-linejoin:round;stroke-miterlimit:10;" x1="106.4" y1="249.1" x2="382.3" y2="240.6"/>
<line style="fill:none;stroke:#FF0000;stroke-width:3.5647;stroke-linejoin:round;stroke-miterlimit:10;" x1="313.9" y1="242.3" x2="287.6" y2="225.9"/>
<line style="fill:none;stroke:#FF0000;stroke-width:3.0795;stroke-linejoin:round;stroke-miterlimit:10;" x1="224" y1="194.8" x2="287.6" y2="225.9"/>
<line style="fill:none;stroke:#FF0000;stroke-width:2.6093;stroke-linejoin:round;stroke-miterlimit:10;" x1="287.6" y1="225.9" x2="362" y2="190.6"/>
<line style="fill:none;stroke:#FF0000;stroke-width:2.946;stroke-linejoin:round;stroke-miterlimit:10;" x1="287.7" y1="152.3" x2="362" y2="190.6"/>
<line style="fill:none;stroke:#FF0000;stroke-width:0.9998;stroke-linejoin:round;stroke-miterlimit:10;" x1="313.7" y1="180.7" x2="287.6" y2="225.9"/>
<line style="fill:none;stroke:#FF0000;stroke-width:0.9998;stroke-linejoin:round;stroke-miterlimit:10;" x1="313.3" y1="145.3" x2="378.3" y2="101"/>
<line style="fill:none;stroke:#000000;stroke-width:0.5002;stroke-linejoin:round;stroke-miterlimit:10;" x1="382.1" y1="239.7" x2="382.3" y2="45.8"/>
<line style="fill:none;stroke:#262626;stroke-width:0.5002;stroke-linecap:round;stroke-linejoin:round;stroke-miterlimit:10;" x1="96.6" y1="239.4" x2="89.7" y2="239.6"/>
<text transform="matrix(1 0 0 1 217.6465 49.687)" style="font-family:'ArialMT'; font-size:9.9998px;">8d</text>
<text transform="matrix(0.7017 -0.7125 0.7125 0.7017 84.4341 246.9271)" style="fill:#262626; font-family:'ArialMT'; font-size:9.9998px;">2</text>
<line style="fill:none;stroke:#000000;stroke-width:0.5002;stroke-linejoin:round;stroke-miterlimit:10;" x1="106.2" y1="248.1" x2="382.1" y2="239.7"/>
<line style="fill:none;stroke:#FF0000;stroke-width:3.5647;stroke-linejoin:round;stroke-miterlimit:10;" x1="213.1" y1="52.1" x2="251.1" y2="41.9"/>
<path style="fill:#0000FF;" d="M219,52.1c0-3.2-2.6-5.8-5.8-5.8c-3.2,0-5.8,2.6-5.8,5.8s2.6,5.8,5.8,5.8C216.4,58,219,55.4,219,52.1
	"/>
<line style="fill:none;stroke:#FF0000;stroke-width:2.3865;stroke-linejoin:round;stroke-miterlimit:10;" x1="213.1" y1="52.1" x2="180.9" y2="44.1"/>
<line style="fill:none;stroke:#FF0000;stroke-width:2.946;stroke-linejoin:round;stroke-miterlimit:10;" x1="213.1" y1="52.1" x2="215.3" y2="42"/>
<line style="fill:none;stroke:#FF0000;stroke-width:2.3865;stroke-linejoin:round;stroke-miterlimit:10;" x1="259.1" y1="94.3" x2="213.1" y2="52.1"/>
<line style="fill:none;stroke:#262626;stroke-width:0.5002;stroke-linejoin:round;stroke-miterlimit:10;" x1="379.4" y1="240.7" x2="384.3" y2="245.5"/>
<line style="fill:none;stroke:#FF0000;stroke-width:3.8902;stroke-linejoin:round;stroke-miterlimit:10;" x1="313.6" y1="144.8" x2="287.7" y2="152.3"/>
<line style="fill:none;stroke:#FF0000;stroke-width:3.0795;stroke-linejoin:round;stroke-miterlimit:10;" x1="268.9" y1="109.5" x2="287.7" y2="152.3"/>
<line style="fill:none;stroke:#FF0000;stroke-width:0.9998;stroke-linejoin:round;stroke-miterlimit:10;" x1="313.5" y1="107.7" x2="287.7" y2="152.3"/>
<path style="fill:#0000FF;" d="M293.5,152.3c0-3.2-2.6-5.8-5.8-5.8c-3.2,0-5.8,2.6-5.8,5.8c0,3.2,2.6,5.8,5.8,5.8
	C290.9,158.2,293.5,155.6,293.5,152.3"/>
<line style="fill:none;stroke:#FF0000;stroke-width:2.946;stroke-linejoin:round;stroke-miterlimit:10;" x1="356.9" y1="179" x2="362" y2="190.6"/>
<path style="fill:#0000FF;" d="M367.8,190.6c0-3.2-2.6-5.8-5.8-5.8c-3.2,0-5.8,2.6-5.8,5.8c0,3.2,2.6,5.8,5.8,5.8
	C365.2,196.4,367.8,193.8,367.8,190.6"/>
<line style="fill:none;stroke:#FF0000;stroke-width:0.9998;stroke-linejoin:round;stroke-miterlimit:10;" x1="351.9" y1="188" x2="362" y2="190.6"/>
<line style="fill:none;stroke:#FF0000;stroke-width:4.2188;stroke-linejoin:round;stroke-miterlimit:10;" x1="356.8" y1="205.4" x2="362" y2="190.6"/>
<text transform="matrix(1 0 0 1 154.168 227.6348)" style="font-family:'ArialMT'; font-size:9.9998px;">8d</text>
<line style="fill:none;stroke:#262626;stroke-width:0.5002;stroke-linecap:round;stroke-linejoin:round;stroke-miterlimit:10;" x1="324.8" y1="242.4" x2="329.7" y2="247.2"/>
<line style="fill:none;stroke:#FF0000;stroke-width:2.7915;stroke-linejoin:round;stroke-miterlimit:10;" x1="97.3" y1="137.8" x2="149.7" y2="156.6"/>
<line style="fill:none;stroke:#FF0000;stroke-width:0.9998;stroke-linejoin:round;stroke-miterlimit:10;" x1="97.3" y1="159.6" x2="149.7" y2="230.1"/>
<line style="fill:none;stroke:#FF0000;stroke-width:2.7915;stroke-linejoin:round;stroke-miterlimit:10;" x1="176" y1="246.5" x2="149.7" y2="230.1"/>
<line style="fill:none;stroke:#FF0000;stroke-width:3.996;stroke-linejoin:round;stroke-miterlimit:10;" x1="149.7" y1="230.1" x2="149.7" y2="156.6"/>
<line style="fill:none;stroke:#FF0000;stroke-width:2.3865;stroke-linejoin:round;stroke-miterlimit:10;" x1="149.7" y1="230.1" x2="224" y2="194.8"/>
<line style="fill:none;stroke:#FF0000;stroke-width:2.946;stroke-linejoin:round;stroke-miterlimit:10;" x1="149.7" y1="156.6" x2="224" y2="194.8"/>
<line style="fill:none;stroke:#FF0000;stroke-width:0.9998;stroke-linejoin:round;stroke-miterlimit:10;" x1="175.8" y1="184.9" x2="149.7" y2="230.1"/>
<line style="fill:none;stroke:#262626;stroke-width:0.5002;stroke-linejoin:round;stroke-miterlimit:10;" x1="106.2" y1="248.9" x2="99.3" y2="249.1"/>
<text transform="matrix(0.7017 -0.7125 0.7125 0.7017 94.0629 256.4096)" style="fill:#262626; font-family:'ArialMT'; font-size:9.9998px;">0</text>
<line style="fill:none;stroke:#FF0000;stroke-width:1.6935;stroke-linejoin:round;stroke-miterlimit:10;" x1="106.2" y1="248.1" x2="149.7" y2="230.1"/>
<path style="fill:#0000FF;" d="M155.5,230.1c0-3.2-2.6-5.8-5.8-5.8c-3.2,0-5.8,2.6-5.8,5.8c0,3.2,2.6,5.8,5.8,5.8
	C152.9,235.9,155.5,233.3,155.5,230.1"/>
<line style="fill:none;stroke:#FF0000;stroke-width:3.3022;stroke-linejoin:round;stroke-miterlimit:10;" x1="103.9" y1="207.7" x2="149.7" y2="230.1"/>
<line style="fill:none;stroke:#FF0000;stroke-width:2.0985;stroke-linejoin:round;stroke-miterlimit:10;" x1="381.1" y1="145.9" x2="382.2" y2="142.7"/>
<line style="fill:none;stroke:#262626;stroke-width:0.5002;stroke-linecap:round;stroke-linejoin:round;stroke-miterlimit:10;" x1="270.2" y1="244" x2="275.1" y2="248.9"/>
<text transform="matrix(1 0 0 1 205.4951 277.8398)" style="fill:#262626; font-family:'ArialMT'; font-size:11.0002px;">X (Angstrom)</text>
<line style="fill:none;stroke:#FF0000;stroke-width:0.9998;stroke-linejoin:round;stroke-miterlimit:10;" x1="97.3" y1="86.1" x2="149.7" y2="156.6"/>
<line style="fill:none;stroke:#FF0000;stroke-width:2.0985;stroke-linejoin:round;stroke-miterlimit:10;" x1="175.5" y1="111.9" x2="149.7" y2="156.6"/>
<line style="fill:none;stroke:#FF0000;stroke-width:2.7915;stroke-linejoin:round;stroke-miterlimit:10;" x1="175.7" y1="149" x2="149.7" y2="156.6"/>
<line style="fill:none;stroke:#FF0000;stroke-width:3.1972;stroke-linejoin:round;stroke-miterlimit:10;" x1="131" y1="113.7" x2="149.7" y2="156.6"/>
<line style="fill:none;stroke:#FF0000;stroke-width:0.9998;stroke-linejoin:round;stroke-miterlimit:10;" x1="106.3" y1="151.2" x2="149.7" y2="156.6"/>
<line style="fill:none;stroke:#FF0000;stroke-width:3.639;stroke-linejoin:round;stroke-miterlimit:10;" x1="103.9" y1="187.1" x2="149.7" y2="156.6"/>
<path style="fill:#0000FF;" d="M155.6,156.6c0-3.2-2.6-5.8-5.8-5.8c-3.2,0-5.8,2.6-5.8,5.8s2.6,5.8,5.8,5.8
	C153,162.4,155.6,159.8,155.6,156.6"/>
<line style="fill:none;stroke:#FF0000;stroke-width:3.0795;stroke-linejoin:round;stroke-miterlimit:10;" x1="218.9" y1="209.6" x2="224" y2="194.8"/>
<line style="fill:none;stroke:#FF0000;stroke-width:1.6935;stroke-linejoin:round;stroke-miterlimit:10;" x1="230" y1="191.7" x2="224" y2="194.8"/>
<path style="fill:#0000FF;" d="M229.9,194.8c0-3.2-2.6-5.8-5.8-5.8s-5.8,2.6-5.8,5.8c0,3.2,2.6,5.8,5.8,5.8S229.9,198,229.9,194.8"
	/>
<line style="fill:none;stroke:#FF0000;stroke-width:1.6935;stroke-linejoin:round;stroke-miterlimit:10;" x1="249.4" y1="208.7" x2="224" y2="194.8"/>
<line style="fill:none;stroke:#FF0000;stroke-width:2.7915;stroke-linejoin:round;stroke-miterlimit:10;" x1="219" y1="183.2" x2="224" y2="194.8"/>
<line style="fill:none;stroke:#FF0000;stroke-width:2.3865;stroke-linejoin:round;stroke-miterlimit:10;" x1="230" y1="200.3" x2="224" y2="194.8"/>
<line style="fill:none;stroke:#262626;stroke-width:0.5002;stroke-linecap:round;stroke-linejoin:round;stroke-miterlimit:10;" x1="215.6" y1="245.7" x2="220.5" y2="250.5"/>
<line style="fill:none;stroke:#000000;stroke-width:0.5002;stroke-linejoin:round;stroke-miterlimit:10;" x1="106.4" y1="54.3" x2="382.3" y2="45.8"/>
<line style="fill:none;stroke:#262626;stroke-width:0.5002;stroke-linecap:round;stroke-linejoin:round;stroke-miterlimit:10;" x1="161" y1="247.4" x2="165.9" y2="252.2"/>
<text transform="matrix(1 0 0 1 381.5605 258.8398)" style="fill:#262626; font-family:'ArialMT'; font-size:9.9998px;">10</text>
<line style="fill:none;stroke:#000000;stroke-width:0.5002;stroke-linejoin:round;stroke-miterlimit:10;" x1="106.2" y1="248.1" x2="106.4" y2="54.3"/>
<line style="fill:none;stroke:#262626;stroke-width:0.5002;stroke-linejoin:round;stroke-miterlimit:10;" x1="106.4" y1="249.1" x2="111.3" y2="253.9"/>
<text transform="matrix(1 0 0 1 329.5771 260.5117)" style="fill:#262626; font-family:'ArialMT'; font-size:9.9998px;">8</text>
<text transform="matrix(1 0 0 1 274.9688 262.1836)" style="fill:#262626; font-family:'ArialMT'; font-size:9.9998px;">6</text>
<text transform="matrix(1 0 0 1 220.3604 263.8564)" style="fill:#262626; font-family:'ArialMT'; font-size:9.9998px;">4</text>
<text transform="matrix(1 0 0 1 165.7515 265.5283)" style="fill:#262626; font-family:'ArialMT'; font-size:9.9998px;">2</text>
<text transform="matrix(1 0 0 1 111.1431 267.2002)" style="fill:#262626; font-family:'ArialMT'; font-size:9.9998px;">0</text>
</svg>
