<?xml version="1.0" encoding="utf-8"?>
<!-- Generator: Adobe Illustrator 23.0.1, SVG Export Plug-In . SVG Version: 6.00 Build 0)  -->
<svg version="1.1" id="Layer_1" xmlns="http://www.w3.org/2000/svg" xmlns:xlink="http://www.w3.org/1999/xlink" x="0px" y="0px"
	 viewBox="0 0 473 265.1" style="enable-background:new 0 0 473 265.1;" xml:space="preserve">
<g>
	<defs>
		<rect id="SVGID_1_" x="4.4" y="6" width="457.8" height="259.1"/>
	</defs>
	<clipPath id="SVGID_2_">
		<use xlink:href="#SVGID_1_"  style="overflow:visible;"/>
	</clipPath>
	
		<rect x="76.4" y="20.7" style="clip-path:url(#SVGID_2_);fill-rule:evenodd;clip-rule:evenodd;fill:#FCF9FC;" width="90.4" height="15.4"/>
	
		<rect x="166.6" y="20.7" style="clip-path:url(#SVGID_2_);fill-rule:evenodd;clip-rule:evenodd;fill:#9DD087;" width="88" height="15.4"/>
	
		<rect x="254.5" y="20.7" style="clip-path:url(#SVGID_2_);fill-rule:evenodd;clip-rule:evenodd;fill:#73C37F;" width="150.9" height="15.4"/>
	
		<rect x="76.4" y="36" style="clip-path:url(#SVGID_2_);fill-rule:evenodd;clip-rule:evenodd;fill:#F8696B;" width="90.4" height="15.4"/>
	
		<rect x="166.6" y="36" style="clip-path:url(#SVGID_2_);fill-rule:evenodd;clip-rule:evenodd;fill:#63BE7B;" width="238.7" height="15.4"/>
	
		<rect x="76.4" y="51.2" style="clip-path:url(#SVGID_2_);fill-rule:evenodd;clip-rule:evenodd;fill:#FCFCFF;" width="90.4" height="15.4"/>
	
		<rect x="166.6" y="51.2" style="clip-path:url(#SVGID_2_);fill-rule:evenodd;clip-rule:evenodd;fill:#EDE998;" width="88" height="15.4"/>
	
		<rect x="254.5" y="51.2" style="clip-path:url(#SVGID_2_);fill-rule:evenodd;clip-rule:evenodd;fill:#FFEF9C;" width="150.9" height="15.4"/>
	
		<rect x="76.4" y="66.4" style="clip-path:url(#SVGID_2_);fill-rule:evenodd;clip-rule:evenodd;fill:#FCF7FA;" width="90.4" height="15.4"/>
	
		<rect x="166.6" y="66.4" style="clip-path:url(#SVGID_2_);fill-rule:evenodd;clip-rule:evenodd;fill:#B0D68B;" width="88" height="15.4"/>
	
		<rect x="254.5" y="66.4" style="clip-path:url(#SVGID_2_);fill-rule:evenodd;clip-rule:evenodd;fill:#82C882;" width="150.9" height="15.4"/>
	
		<rect x="76.4" y="81.7" style="clip-path:url(#SVGID_2_);fill-rule:evenodd;clip-rule:evenodd;fill:#FCF9FC;" width="90.4" height="15.4"/>
	
		<rect x="166.6" y="81.7" style="clip-path:url(#SVGID_2_);fill-rule:evenodd;clip-rule:evenodd;fill:#B7D88C;" width="88" height="15.4"/>
	
		<rect x="254.5" y="81.7" style="clip-path:url(#SVGID_2_);fill-rule:evenodd;clip-rule:evenodd;fill:#A1D288;" width="150.9" height="15.4"/>
	
		<rect x="76.4" y="96.9" style="clip-path:url(#SVGID_2_);fill-rule:evenodd;clip-rule:evenodd;fill:#FCE6E9;" width="90.4" height="15.4"/>
	
		<rect x="166.6" y="96.9" style="clip-path:url(#SVGID_2_);fill-rule:evenodd;clip-rule:evenodd;fill:#FFEF9C;" width="88" height="15.4"/>
	
		<rect x="254.5" y="96.9" style="clip-path:url(#SVGID_2_);fill-rule:evenodd;clip-rule:evenodd;fill:#6FC27E;" width="150.9" height="15.4"/>
	<g style="clip-path:url(#SVGID_2_);">
		<text transform="matrix(1 0 0 1 78.54 17.1201)"><tspan x="0" y="0" style="font-family:'Arial', sans-serif; font-size:12px;">Cos</tspan><tspan x="21.3" y="0" style="font-family:'Arial', sans-serif; font-size:12px;">t</tspan><tspan x="24.7" y="0" style="font-family:'Arial', sans-serif; font-size:12px;"> (</tspan><tspan x="32" y="0" style="font-family:'Arial', sans-serif; font-size:12px;">U</tspan><tspan x="40.7" y="0" style="font-family:'Arial', sans-serif; font-size:12px;">S</tspan><tspan x="48.7" y="0" style="font-family:'Arial', sans-serif; font-size:12px;">D/k</tspan><tspan x="66.7" y="0" style="font-family:'Arial', sans-serif; font-size:12px;">g</tspan><tspan x="73.3" y="0" style="font-family:'Arial', sans-serif; font-size:12px;">)</tspan></text>
	</g>
	<g style="clip-path:url(#SVGID_2_);">
		<text transform="matrix(1 0 0 1 168.8101 17.1201)"><tspan x="0" y="0" style="font-family:'Arial', sans-serif; font-size:12px;">W</tspan><tspan x="11.9" y="0" style="font-family:'Arial', sans-serif; font-size:12px;">e</tspan><tspan x="18.6" y="0" style="font-family:'Arial', sans-serif; font-size:12px;">i</tspan><tspan x="21.2" y="0" style="font-family:'Arial', sans-serif; font-size:12px;">g</tspan><tspan x="27.8" y="0" style="font-family:'Arial', sans-serif; font-size:12px;">h</tspan><tspan x="34.5" y="0" style="font-family:'Arial', sans-serif; font-size:12px;">t</tspan><tspan x="37.8" y="0" style="font-family:'Arial', sans-serif; font-size:12px;"> </tspan><tspan x="41.2" y="0" style="font-family:'Arial', sans-serif; font-size:12px;">(u)</tspan></text>
	</g>
	<g style="clip-path:url(#SVGID_2_);">
		<text transform="matrix(1 0 0 1 256.6499 17.1201)"><tspan x="0" y="0" style="font-family:'Arial', sans-serif; font-size:12px;">Po</tspan><tspan x="14.7" y="0" style="font-family:'Arial', sans-serif; font-size:12px;">t</tspan><tspan x="18.1" y="0" style="font-family:'Arial', sans-serif; font-size:12px;">e</tspan><tspan x="24.8" y="0" style="font-family:'Arial', sans-serif; font-size:12px;">n</tspan><tspan x="31.5" y="0" style="font-family:'Arial', sans-serif; font-size:12px;">ti</tspan><tspan x="37.5" y="0" style="font-family:'Arial', sans-serif; font-size:12px;">a</tspan><tspan x="44.2" y="0" style="font-family:'Arial', sans-serif; font-size:12px;">l (a</tspan><tspan x="60.8" y="0" style="font-family:'Arial', sans-serif; font-size:12px;">b</tspan><tspan x="67.6" y="0" style="font-family:'Arial', sans-serif; font-size:12px;">s</tspan><tspan x="73.6" y="0" style="font-family:'Arial', sans-serif; font-size:12px;">o</tspan><tspan x="80.3" y="0" style="font-family:'Arial', sans-serif; font-size:12px;">lu</tspan><tspan x="89.6" y="0" style="font-family:'Arial', sans-serif; font-size:12px;">t</tspan><tspan x="93" y="0" style="font-family:'Arial', sans-serif; font-size:12px;">e</tspan><tspan x="99.7" y="0" style="font-family:'Arial', sans-serif; font-size:12px;"> </tspan><tspan x="103" y="0" style="font-family:'Arial', sans-serif; font-size:12px;">v</tspan><tspan x="108.9" y="0" style="font-family:'Arial', sans-serif; font-size:12px;">a</tspan><tspan x="115.6" y="0" style="font-family:'Arial', sans-serif; font-size:12px;">lu</tspan><tspan x="124.9" y="0" style="font-family:'Arial', sans-serif; font-size:12px;">e</tspan><tspan x="131.7" y="0" style="font-family:'Arial', sans-serif; font-size:12px;">)</tspan></text>
	</g>
	<g style="clip-path:url(#SVGID_2_);">
		<text transform="matrix(1 0 0 1 407.4199 17.1201)"><tspan x="0" y="0" style="font-family:'Arial', sans-serif; font-size:12px;">Po</tspan><tspan x="14.7" y="0" style="font-family:'Arial', sans-serif; font-size:12px;">t</tspan><tspan x="18.1" y="0" style="font-family:'Arial', sans-serif; font-size:12px;">e</tspan><tspan x="24.8" y="0" style="font-family:'Arial', sans-serif; font-size:12px;">n</tspan><tspan x="31.5" y="0" style="font-family:'Arial', sans-serif; font-size:12px;">ti</tspan><tspan x="37.5" y="0" style="font-family:'Arial', sans-serif; font-size:12px;">a</tspan><tspan x="44.2" y="0" style="font-family:'Arial', sans-serif; font-size:12px;">l</tspan></text>
	</g>
	<g style="clip-path:url(#SVGID_2_);">
		<text transform="matrix(1 0 0 1 6.04 32.3599)"><tspan x="0" y="0" style="font-family:'Arial', sans-serif; font-size:12px;">F</tspan><tspan x="7.3" y="0" style="font-family:'Arial', sans-serif; font-size:12px;">l</tspan><tspan x="10" y="0" style="font-family:'Arial', sans-serif; font-size:12px;">uo</tspan><tspan x="23.4" y="0" style="font-family:'Arial', sans-serif; font-size:12px;">r</tspan><tspan x="27.4" y="0" style="font-family:'Arial', sans-serif; font-size:12px;">i</tspan><tspan x="30" y="0" style="font-family:'Arial', sans-serif; font-size:12px;">n</tspan><tspan x="36.7" y="0" style="font-family:'Arial', sans-serif; font-size:12px;">e</tspan></text>
	</g>
	<g style="clip-path:url(#SVGID_2_);">
		<text transform="matrix(1 0 0 1 136.98 32.3599)"><tspan x="0" y="0" style="font-family:'Arial', sans-serif; font-size:12px;">2</tspan><tspan x="6.7" y="0" style="font-family:'Arial', sans-serif; font-size:12px;">.</tspan><tspan x="10" y="0" style="font-family:'Arial', sans-serif; font-size:12px;">0</tspan><tspan x="16.8" y="0" style="font-family:'Arial', sans-serif; font-size:12px;">0</tspan></text>
	</g>
	<g style="clip-path:url(#SVGID_2_);">
		<text transform="matrix(1 0 0 1 82.5 32.3599)"><tspan x="0" y="0" style="font-family:'Arial', sans-serif; font-size:12px;">$</tspan><tspan x="6.7" y="0" style="font-family:'Arial', sans-serif; font-size:12px;"> </tspan><tspan x="10" y="0" style="font-family:'Arial', sans-serif; font-size:12px;"> </tspan><tspan x="13.4" y="0" style="font-family:'Arial', sans-serif; font-size:12px;"> </tspan><tspan x="16.7" y="0" style="font-family:'Arial', sans-serif; font-size:12px;"> </tspan><tspan x="20.1" y="0" style="font-family:'Arial', sans-serif; font-size:12px;"> </tspan><tspan x="23.4" y="0" style="font-family:'Arial', sans-serif; font-size:12px;"> </tspan><tspan x="26.8" y="0" style="font-family:'Arial', sans-serif; font-size:12px;"> </tspan><tspan x="30.1" y="0" style="font-family:'Arial', sans-serif; font-size:12px;"> </tspan><tspan x="33.5" y="0" style="font-family:'Arial', sans-serif; font-size:12px;"> </tspan><tspan x="36.8" y="0" style="font-family:'Arial', sans-serif; font-size:12px;"> </tspan><tspan x="40.2" y="0" style="font-family:'Arial', sans-serif; font-size:12px;"> </tspan><tspan x="43.6" y="0" style="font-family:'Arial', sans-serif; font-size:12px;"> </tspan><tspan x="46.9" y="0" style="font-family:'Arial', sans-serif; font-size:12px;">  </tspan></text>
	</g>
	<g style="clip-path:url(#SVGID_2_);">
		<text transform="matrix(1 0 0 1 136.2598 32.3599)" style="font-family:'Arial', sans-serif; font-size:12px;"> </text>
	</g>
	<g style="clip-path:url(#SVGID_2_);">
		<text transform="matrix(1 0 0 1 181.77 32.3599)"><tspan x="0" y="0" style="font-family:'Arial', sans-serif; font-size:12px;">18</tspan><tspan x="13.4" y="0" style="font-family:'Arial', sans-serif; font-size:12px;">.</tspan><tspan x="16.7" y="0" style="font-family:'Arial', sans-serif; font-size:12px;">9</tspan><tspan x="23.5" y="0" style="font-family:'Arial', sans-serif; font-size:12px;">984031</tspan><tspan x="63.6" y="0" style="font-family:'Arial', sans-serif; font-size:12px;">6</tspan></text>
	</g>
	<g style="clip-path:url(#SVGID_2_);">
		<text transform="matrix(1 0 0 1 379.5498 32.3599)"><tspan x="0" y="0" style="font-family:'Arial', sans-serif; font-size:12px;">2</tspan><tspan x="6.7" y="0" style="font-family:'Arial', sans-serif; font-size:12px;">.</tspan><tspan x="10" y="0" style="font-family:'Arial', sans-serif; font-size:12px;">8</tspan><tspan x="16.8" y="0" style="font-family:'Arial', sans-serif; font-size:12px;">7</tspan></text>
	</g>
	<g style="clip-path:url(#SVGID_2_);">
		<text transform="matrix(1 0 0 1 432.0195 32.3599)"><tspan x="0" y="0" style="font-family:'Arial', sans-serif; font-size:12px;">-2.</tspan><tspan x="14" y="0" style="font-family:'Arial', sans-serif; font-size:12px;">8</tspan><tspan x="20.7" y="0" style="font-family:'Arial', sans-serif; font-size:12px;">7</tspan></text>
	</g>
	<g style="clip-path:url(#SVGID_2_);">
		<text transform="matrix(1 0 0 1 6.04 47.6001)"><tspan x="0" y="0" style="font-family:'Arial', sans-serif; font-size:12px;">L</tspan><tspan x="6.7" y="0" style="font-family:'Arial', sans-serif; font-size:12px;">it</tspan><tspan x="12.7" y="0" style="font-family:'Arial', sans-serif; font-size:12px;">h</tspan><tspan x="19.4" y="0" style="font-family:'Arial', sans-serif; font-size:12px;">ium</tspan></text>
	</g>
	<g style="clip-path:url(#SVGID_2_);">
		<text transform="matrix(1 0 0 1 130.2598 47.6001)"><tspan x="0" y="0" style="font-family:'Arial', sans-serif; font-size:12px;">85</tspan><tspan x="13.4" y="0" style="font-family:'Arial', sans-serif; font-size:12px;">.</tspan><tspan x="16.7" y="0" style="font-family:'Arial', sans-serif; font-size:12px;">0</tspan><tspan x="23.5" y="0" style="font-family:'Arial', sans-serif; font-size:12px;">0</tspan></text>
	</g>
	<g style="clip-path:url(#SVGID_2_);">
		<text transform="matrix(1 0 0 1 82.5 47.6001)"><tspan x="0" y="0" style="font-family:'Arial', sans-serif; font-size:12px;">$</tspan><tspan x="6.7" y="0" style="font-family:'Arial', sans-serif; font-size:12px;"> </tspan><tspan x="10" y="0" style="font-family:'Arial', sans-serif; font-size:12px;"> </tspan><tspan x="13.4" y="0" style="font-family:'Arial', sans-serif; font-size:12px;"> </tspan><tspan x="16.7" y="0" style="font-family:'Arial', sans-serif; font-size:12px;"> </tspan><tspan x="20.1" y="0" style="font-family:'Arial', sans-serif; font-size:12px;"> </tspan><tspan x="23.4" y="0" style="font-family:'Arial', sans-serif; font-size:12px;"> </tspan><tspan x="26.8" y="0" style="font-family:'Arial', sans-serif; font-size:12px;"> </tspan><tspan x="30.1" y="0" style="font-family:'Arial', sans-serif; font-size:12px;"> </tspan><tspan x="33.5" y="0" style="font-family:'Arial', sans-serif; font-size:12px;"> </tspan><tspan x="36.8" y="0" style="font-family:'Arial', sans-serif; font-size:12px;"> </tspan><tspan x="40.2" y="0" style="font-family:'Arial', sans-serif; font-size:12px;">  </tspan></text>
	</g>
	<g style="clip-path:url(#SVGID_2_);">
		<text transform="matrix(1 0 0 1 129.54 47.6001)" style="font-family:'Arial', sans-serif; font-size:12px;"> </text>
	</g>
	<g style="clip-path:url(#SVGID_2_);">
		<text transform="matrix(1 0 0 1 228.8101 47.6001)"><tspan x="0" y="0" style="font-family:'Arial', sans-serif; font-size:12px;">6</tspan><tspan x="6.7" y="0" style="font-family:'Arial', sans-serif; font-size:12px;">.</tspan><tspan x="10" y="0" style="font-family:'Arial', sans-serif; font-size:12px;">9</tspan><tspan x="16.8" y="0" style="font-family:'Arial', sans-serif; font-size:12px;">4</tspan></text>
	</g>
	<g style="clip-path:url(#SVGID_2_);">
		<text transform="matrix(1 0 0 1 379.5498 47.6001)"><tspan x="0" y="0" style="font-family:'Arial', sans-serif; font-size:12px;">3</tspan><tspan x="6.7" y="0" style="font-family:'Arial', sans-serif; font-size:12px;">.</tspan><tspan x="10" y="0" style="font-family:'Arial', sans-serif; font-size:12px;">0</tspan><tspan x="16.8" y="0" style="font-family:'Arial', sans-serif; font-size:12px;">4</tspan></text>
	</g>
	<g style="clip-path:url(#SVGID_2_);">
		<text transform="matrix(1 0 0 1 435.9805 47.6001)"><tspan x="0" y="0" style="font-family:'Arial', sans-serif; font-size:12px;">3</tspan><tspan x="6.7" y="0" style="font-family:'Arial', sans-serif; font-size:12px;">.</tspan><tspan x="10" y="0" style="font-family:'Arial', sans-serif; font-size:12px;">0</tspan><tspan x="16.8" y="0" style="font-family:'Arial', sans-serif; font-size:12px;">4</tspan></text>
	</g>
	<g style="clip-path:url(#SVGID_2_);">
		<text transform="matrix(1 0 0 1 6.04 62.8398)"><tspan x="0" y="0" style="font-family:'Arial', sans-serif; font-size:12px;">Chl</tspan><tspan x="18" y="0" style="font-family:'Arial', sans-serif; font-size:12px;">o</tspan><tspan x="24.7" y="0" style="font-family:'Arial', sans-serif; font-size:12px;">r</tspan><tspan x="28.7" y="0" style="font-family:'Arial', sans-serif; font-size:12px;">i</tspan><tspan x="31.3" y="0" style="font-family:'Arial', sans-serif; font-size:12px;">d</tspan><tspan x="38" y="0" style="font-family:'Arial', sans-serif; font-size:12px;">e</tspan></text>
	</g>
	<g style="clip-path:url(#SVGID_2_);">
		<text transform="matrix(1 0 0 1 136.98 62.8398)"><tspan x="0" y="0" style="font-family:'Arial', sans-serif; font-size:12px;">0</tspan><tspan x="6.7" y="0" style="font-family:'Arial', sans-serif; font-size:12px;">.</tspan><tspan x="10" y="0" style="font-family:'Arial', sans-serif; font-size:12px;">0</tspan><tspan x="16.8" y="0" style="font-family:'Arial', sans-serif; font-size:12px;">8</tspan></text>
	</g>
	<g style="clip-path:url(#SVGID_2_);">
		<text transform="matrix(1 0 0 1 82.5 62.8398)"><tspan x="0" y="0" style="font-family:'Arial', sans-serif; font-size:12px;">$</tspan><tspan x="6.7" y="0" style="font-family:'Arial', sans-serif; font-size:12px;"> </tspan><tspan x="10" y="0" style="font-family:'Arial', sans-serif; font-size:12px;"> </tspan><tspan x="13.4" y="0" style="font-family:'Arial', sans-serif; font-size:12px;"> </tspan><tspan x="16.7" y="0" style="font-family:'Arial', sans-serif; font-size:12px;"> </tspan><tspan x="20.1" y="0" style="font-family:'Arial', sans-serif; font-size:12px;"> </tspan><tspan x="23.4" y="0" style="font-family:'Arial', sans-serif; font-size:12px;"> </tspan><tspan x="26.8" y="0" style="font-family:'Arial', sans-serif; font-size:12px;"> </tspan><tspan x="30.1" y="0" style="font-family:'Arial', sans-serif; font-size:12px;"> </tspan><tspan x="33.5" y="0" style="font-family:'Arial', sans-serif; font-size:12px;"> </tspan><tspan x="36.8" y="0" style="font-family:'Arial', sans-serif; font-size:12px;"> </tspan><tspan x="40.2" y="0" style="font-family:'Arial', sans-serif; font-size:12px;"> </tspan><tspan x="43.6" y="0" style="font-family:'Arial', sans-serif; font-size:12px;"> </tspan><tspan x="46.9" y="0" style="font-family:'Arial', sans-serif; font-size:12px;">  </tspan></text>
	</g>
	<g style="clip-path:url(#SVGID_2_);">
		<text transform="matrix(1 0 0 1 136.2598 62.8398)" style="font-family:'Arial', sans-serif; font-size:12px;"> </text>
	</g>
	<g style="clip-path:url(#SVGID_2_);">
		<text transform="matrix(1 0 0 1 222.0898 62.8398)"><tspan x="0" y="0" style="font-family:'Arial', sans-serif; font-size:12px;">35</tspan><tspan x="13.4" y="0" style="font-family:'Arial', sans-serif; font-size:12px;">.</tspan><tspan x="16.7" y="0" style="font-family:'Arial', sans-serif; font-size:12px;">4</tspan><tspan x="23.5" y="0" style="font-family:'Arial', sans-serif; font-size:12px;">5</tspan></text>
	</g>
	<g style="clip-path:url(#SVGID_2_);">
		<text transform="matrix(1 0 0 1 379.5498 62.8398)"><tspan x="0" y="0" style="font-family:'Arial', sans-serif; font-size:12px;">1</tspan><tspan x="6.7" y="0" style="font-family:'Arial', sans-serif; font-size:12px;">.</tspan><tspan x="10" y="0" style="font-family:'Arial', sans-serif; font-size:12px;">3</tspan><tspan x="16.8" y="0" style="font-family:'Arial', sans-serif; font-size:12px;">6</tspan></text>
	</g>
	<g style="clip-path:url(#SVGID_2_);">
		<text transform="matrix(1 0 0 1 432.0195 62.8398)"><tspan x="0" y="0" style="font-family:'Arial', sans-serif; font-size:12px;">-1.</tspan><tspan x="14" y="0" style="font-family:'Arial', sans-serif; font-size:12px;">3</tspan><tspan x="20.7" y="0" style="font-family:'Arial', sans-serif; font-size:12px;">6</tspan></text>
	</g>
	<g style="clip-path:url(#SVGID_2_);">
		<text transform="matrix(1 0 0 1 6.04 78.0801)"><tspan x="0" y="0" style="font-family:'Arial', sans-serif; font-size:12px;">Sod</tspan><tspan x="21.4" y="0" style="font-family:'Arial', sans-serif; font-size:12px;">ium</tspan></text>
	</g>
	<g style="clip-path:url(#SVGID_2_);">
		<text transform="matrix(1 0 0 1 136.98 78.0801)"><tspan x="0" y="0" style="font-family:'Arial', sans-serif; font-size:12px;">3</tspan><tspan x="6.7" y="0" style="font-family:'Arial', sans-serif; font-size:12px;">.</tspan><tspan x="10" y="0" style="font-family:'Arial', sans-serif; font-size:12px;">0</tspan><tspan x="16.8" y="0" style="font-family:'Arial', sans-serif; font-size:12px;">0</tspan></text>
	</g>
	<g style="clip-path:url(#SVGID_2_);">
		<text transform="matrix(1 0 0 1 82.5 78.0801)"><tspan x="0" y="0" style="font-family:'Arial', sans-serif; font-size:12px;">$</tspan><tspan x="6.7" y="0" style="font-family:'Arial', sans-serif; font-size:12px;"> </tspan><tspan x="10" y="0" style="font-family:'Arial', sans-serif; font-size:12px;"> </tspan><tspan x="13.4" y="0" style="font-family:'Arial', sans-serif; font-size:12px;"> </tspan><tspan x="16.7" y="0" style="font-family:'Arial', sans-serif; font-size:12px;"> </tspan><tspan x="20.1" y="0" style="font-family:'Arial', sans-serif; font-size:12px;"> </tspan><tspan x="23.4" y="0" style="font-family:'Arial', sans-serif; font-size:12px;"> </tspan><tspan x="26.8" y="0" style="font-family:'Arial', sans-serif; font-size:12px;"> </tspan><tspan x="30.1" y="0" style="font-family:'Arial', sans-serif; font-size:12px;"> </tspan><tspan x="33.5" y="0" style="font-family:'Arial', sans-serif; font-size:12px;"> </tspan><tspan x="36.8" y="0" style="font-family:'Arial', sans-serif; font-size:12px;"> </tspan><tspan x="40.2" y="0" style="font-family:'Arial', sans-serif; font-size:12px;"> </tspan><tspan x="43.6" y="0" style="font-family:'Arial', sans-serif; font-size:12px;"> </tspan><tspan x="46.9" y="0" style="font-family:'Arial', sans-serif; font-size:12px;">  </tspan></text>
	</g>
	<g style="clip-path:url(#SVGID_2_);">
		<text transform="matrix(1 0 0 1 136.2598 78.0801)" style="font-family:'Arial', sans-serif; font-size:12px;"> </text>
	</g>
	<g style="clip-path:url(#SVGID_2_);">
		<text transform="matrix(1 0 0 1 181.77 78.0801)"><tspan x="0" y="0" style="font-family:'Arial', sans-serif; font-size:12px;">22</tspan><tspan x="13.4" y="0" style="font-family:'Arial', sans-serif; font-size:12px;">.</tspan><tspan x="16.7" y="0" style="font-family:'Arial', sans-serif; font-size:12px;">9</tspan><tspan x="23.5" y="0" style="font-family:'Arial', sans-serif; font-size:12px;">897692</tspan><tspan x="63.6" y="0" style="font-family:'Arial', sans-serif; font-size:12px;">8</tspan></text>
	</g>
	<g style="clip-path:url(#SVGID_2_);">
		<text transform="matrix(1 0 0 1 379.5498 78.0801)"><tspan x="0" y="0" style="font-family:'Arial', sans-serif; font-size:12px;">2</tspan><tspan x="6.7" y="0" style="font-family:'Arial', sans-serif; font-size:12px;">.</tspan><tspan x="10" y="0" style="font-family:'Arial', sans-serif; font-size:12px;">7</tspan><tspan x="16.8" y="0" style="font-family:'Arial', sans-serif; font-size:12px;">1</tspan></text>
	</g>
	<g style="clip-path:url(#SVGID_2_);">
		<text transform="matrix(1 0 0 1 432.0195 78.0801)"><tspan x="0" y="0" style="font-family:'Arial', sans-serif; font-size:12px;">-2.</tspan><tspan x="14" y="0" style="font-family:'Arial', sans-serif; font-size:12px;">7</tspan><tspan x="20.7" y="0" style="font-family:'Arial', sans-serif; font-size:12px;">1</tspan></text>
	</g>
	<g style="clip-path:url(#SVGID_2_);">
		<text transform="matrix(1 0 0 1 6.04 93.3398)"><tspan x="0" y="0" style="font-family:'Arial', sans-serif; font-size:12px;">M</tspan><tspan x="10" y="0" style="font-family:'Arial', sans-serif; font-size:12px;">a</tspan><tspan x="16.7" y="0" style="font-family:'Arial', sans-serif; font-size:12px;">g</tspan><tspan x="23.3" y="0" style="font-family:'Arial', sans-serif; font-size:12px;">ne</tspan><tspan x="36.7" y="0" style="font-family:'Arial', sans-serif; font-size:12px;">sium</tspan></text>
	</g>
	<g style="clip-path:url(#SVGID_2_);">
		<text transform="matrix(1 0 0 1 136.98 93.3398)"><tspan x="0" y="0" style="font-family:'Arial', sans-serif; font-size:12px;">2</tspan><tspan x="6.7" y="0" style="font-family:'Arial', sans-serif; font-size:12px;">.</tspan><tspan x="10" y="0" style="font-family:'Arial', sans-serif; font-size:12px;">3</tspan><tspan x="16.8" y="0" style="font-family:'Arial', sans-serif; font-size:12px;">2</tspan></text>
	</g>
	<g style="clip-path:url(#SVGID_2_);">
		<text transform="matrix(1 0 0 1 82.5 93.3398)"><tspan x="0" y="0" style="font-family:'Arial', sans-serif; font-size:12px;">$</tspan><tspan x="6.7" y="0" style="font-family:'Arial', sans-serif; font-size:12px;"> </tspan><tspan x="10" y="0" style="font-family:'Arial', sans-serif; font-size:12px;"> </tspan><tspan x="13.4" y="0" style="font-family:'Arial', sans-serif; font-size:12px;"> </tspan><tspan x="16.7" y="0" style="font-family:'Arial', sans-serif; font-size:12px;"> </tspan><tspan x="20.1" y="0" style="font-family:'Arial', sans-serif; font-size:12px;"> </tspan><tspan x="23.4" y="0" style="font-family:'Arial', sans-serif; font-size:12px;"> </tspan><tspan x="26.8" y="0" style="font-family:'Arial', sans-serif; font-size:12px;"> </tspan><tspan x="30.1" y="0" style="font-family:'Arial', sans-serif; font-size:12px;"> </tspan><tspan x="33.5" y="0" style="font-family:'Arial', sans-serif; font-size:12px;"> </tspan><tspan x="36.8" y="0" style="font-family:'Arial', sans-serif; font-size:12px;"> </tspan><tspan x="40.2" y="0" style="font-family:'Arial', sans-serif; font-size:12px;"> </tspan><tspan x="43.6" y="0" style="font-family:'Arial', sans-serif; font-size:12px;"> </tspan><tspan x="46.9" y="0" style="font-family:'Arial', sans-serif; font-size:12px;">  </tspan></text>
	</g>
	<g style="clip-path:url(#SVGID_2_);">
		<text transform="matrix(1 0 0 1 136.2598 93.3398)" style="font-family:'Arial', sans-serif; font-size:12px;"> </text>
	</g>
	<g style="clip-path:url(#SVGID_2_);">
		<text transform="matrix(1 0 0 1 215.3701 93.3398)"><tspan x="0" y="0" style="font-family:'Arial', sans-serif; font-size:12px;">24</tspan><tspan x="13.4" y="0" style="font-family:'Arial', sans-serif; font-size:12px;">.</tspan><tspan x="16.7" y="0" style="font-family:'Arial', sans-serif; font-size:12px;">3</tspan><tspan x="23.5" y="0" style="font-family:'Arial', sans-serif; font-size:12px;">0</tspan><tspan x="30.1" y="0" style="font-family:'Arial', sans-serif; font-size:12px;">5</tspan></text>
	</g>
	<g style="clip-path:url(#SVGID_2_);">
		<text transform="matrix(1 0 0 1 379.5498 93.3398)"><tspan x="0" y="0" style="font-family:'Arial', sans-serif; font-size:12px;">2</tspan><tspan x="6.7" y="0" style="font-family:'Arial', sans-serif; font-size:12px;">.</tspan><tspan x="10" y="0" style="font-family:'Arial', sans-serif; font-size:12px;">3</tspan><tspan x="16.8" y="0" style="font-family:'Arial', sans-serif; font-size:12px;">8</tspan></text>
	</g>
	<g style="clip-path:url(#SVGID_2_);">
		<text transform="matrix(1 0 0 1 432.0195 93.3398)"><tspan x="0" y="0" style="font-family:'Arial', sans-serif; font-size:12px;">-2.</tspan><tspan x="14" y="0" style="font-family:'Arial', sans-serif; font-size:12px;">3</tspan><tspan x="20.7" y="0" style="font-family:'Arial', sans-serif; font-size:12px;">8</tspan></text>
	</g>
	<g style="clip-path:url(#SVGID_2_);">
		<text transform="matrix(1 0 0 1 6.04 108.5801)"><tspan x="0" y="0" style="font-family:'Arial', sans-serif; font-size:12px;">Po</tspan><tspan x="14.7" y="0" style="font-family:'Arial', sans-serif; font-size:12px;">t</tspan><tspan x="18.1" y="0" style="font-family:'Arial', sans-serif; font-size:12px;">a</tspan><tspan x="24.8" y="0" style="font-family:'Arial', sans-serif; font-size:12px;">ssium</tspan></text>
	</g>
	<g style="clip-path:url(#SVGID_2_);">
		<text transform="matrix(1 0 0 1 130.2598 108.5801)"><tspan x="0" y="0" style="font-family:'Arial', sans-serif; font-size:12px;">13</tspan><tspan x="13.4" y="0" style="font-family:'Arial', sans-serif; font-size:12px;">.</tspan><tspan x="16.7" y="0" style="font-family:'Arial', sans-serif; font-size:12px;">0</tspan><tspan x="23.5" y="0" style="font-family:'Arial', sans-serif; font-size:12px;">0</tspan></text>
	</g>
	<g style="clip-path:url(#SVGID_2_);">
		<text transform="matrix(1 0 0 1 82.5 108.5801)"><tspan x="0" y="0" style="font-family:'Arial', sans-serif; font-size:12px;">$</tspan><tspan x="6.7" y="0" style="font-family:'Arial', sans-serif; font-size:12px;"> </tspan><tspan x="10" y="0" style="font-family:'Arial', sans-serif; font-size:12px;"> </tspan><tspan x="13.4" y="0" style="font-family:'Arial', sans-serif; font-size:12px;"> </tspan><tspan x="16.7" y="0" style="font-family:'Arial', sans-serif; font-size:12px;"> </tspan><tspan x="20.1" y="0" style="font-family:'Arial', sans-serif; font-size:12px;"> </tspan><tspan x="23.4" y="0" style="font-family:'Arial', sans-serif; font-size:12px;"> </tspan><tspan x="26.8" y="0" style="font-family:'Arial', sans-serif; font-size:12px;"> </tspan><tspan x="30.1" y="0" style="font-family:'Arial', sans-serif; font-size:12px;"> </tspan><tspan x="33.5" y="0" style="font-family:'Arial', sans-serif; font-size:12px;"> </tspan><tspan x="36.8" y="0" style="font-family:'Arial', sans-serif; font-size:12px;"> </tspan><tspan x="40.2" y="0" style="font-family:'Arial', sans-serif; font-size:12px;">  </tspan></text>
	</g>
	<g style="clip-path:url(#SVGID_2_);">
		<text transform="matrix(1 0 0 1 129.54 108.5801)" style="font-family:'Arial', sans-serif; font-size:12px;"> </text>
	</g>
	<g style="clip-path:url(#SVGID_2_);">
		<text transform="matrix(1 0 0 1 208.6499 108.5801)"><tspan x="0" y="0" style="font-family:'Arial', sans-serif; font-size:12px;">39</tspan><tspan x="13.4" y="0" style="font-family:'Arial', sans-serif; font-size:12px;">.</tspan><tspan x="16.7" y="0" style="font-family:'Arial', sans-serif; font-size:12px;">0</tspan><tspan x="23.5" y="0" style="font-family:'Arial', sans-serif; font-size:12px;">98</tspan><tspan x="36.8" y="0" style="font-family:'Arial', sans-serif; font-size:12px;">3</tspan></text>
	</g>
	<g style="clip-path:url(#SVGID_2_);">
		<text transform="matrix(1 0 0 1 379.5498 108.5801)"><tspan x="0" y="0" style="font-family:'Arial', sans-serif; font-size:12px;">2</tspan><tspan x="6.7" y="0" style="font-family:'Arial', sans-serif; font-size:12px;">.</tspan><tspan x="10" y="0" style="font-family:'Arial', sans-serif; font-size:12px;">9</tspan><tspan x="16.8" y="0" style="font-family:'Arial', sans-serif; font-size:12px;">2</tspan></text>
	</g>
	<g style="clip-path:url(#SVGID_2_);">
		<text transform="matrix(1 0 0 1 432.0195 108.5801)"><tspan x="0" y="0" style="font-family:'Arial', sans-serif; font-size:12px;">-2.</tspan><tspan x="14" y="0" style="font-family:'Arial', sans-serif; font-size:12px;">9</tspan><tspan x="20.7" y="0" style="font-family:'Arial', sans-serif; font-size:12px;">2</tspan></text>
	</g>
	<g style="clip-path:url(#SVGID_2_);">
		<text transform="matrix(1 0 0 1 6.04 169.54)"><tspan x="0" y="0" style="font-family:'Arial', sans-serif; font-size:12px;">Nor</tspan><tspan x="19.3" y="0" style="font-family:'Arial', sans-serif; font-size:12px;">m</tspan><tspan x="29.4" y="0" style="font-family:'Arial', sans-serif; font-size:12px;">a</tspan><tspan x="36.1" y="0" style="font-family:'Arial', sans-serif; font-size:12px;">l</tspan><tspan x="38.7" y="0" style="font-family:'Arial', sans-serif; font-size:12px;">i</tspan><tspan x="41.4" y="0" style="font-family:'Arial', sans-serif; font-size:12px;">z</tspan><tspan x="47.2" y="0" style="font-family:'Arial', sans-serif; font-size:12px;">e</tspan><tspan x="53.9" y="0" style="font-family:'Arial', sans-serif; font-size:12px;">d</tspan></text>
	</g>
	<g style="clip-path:url(#SVGID_2_);">
		<text transform="matrix(1 0 0 1 78.54 169.54)" style="font-family:'Arial', sans-serif; font-size:12px;">Cost</text>
	</g>
	<g style="clip-path:url(#SVGID_2_);">
		<text transform="matrix(1 0 0 1 168.8101 169.54)"><tspan x="0" y="0" style="font-family:'Arial', sans-serif; font-size:12px;">W</tspan><tspan x="11.9" y="0" style="font-family:'Arial', sans-serif; font-size:12px;">e</tspan><tspan x="18.6" y="0" style="font-family:'Arial', sans-serif; font-size:12px;">i</tspan><tspan x="21.2" y="0" style="font-family:'Arial', sans-serif; font-size:12px;">g</tspan><tspan x="27.8" y="0" style="font-family:'Arial', sans-serif; font-size:12px;">h</tspan><tspan x="34.5" y="0" style="font-family:'Arial', sans-serif; font-size:12px;">t</tspan></text>
	</g>
	<g style="clip-path:url(#SVGID_2_);">
		<text transform="matrix(1 0 0 1 256.6499 169.54)"><tspan x="0" y="0" style="font-family:'Arial', sans-serif; font-size:12px;">Po</tspan><tspan x="14.7" y="0" style="font-family:'Arial', sans-serif; font-size:12px;">t</tspan><tspan x="18.1" y="0" style="font-family:'Arial', sans-serif; font-size:12px;">e</tspan><tspan x="24.8" y="0" style="font-family:'Arial', sans-serif; font-size:12px;">n</tspan><tspan x="31.5" y="0" style="font-family:'Arial', sans-serif; font-size:12px;">ti</tspan><tspan x="37.5" y="0" style="font-family:'Arial', sans-serif; font-size:12px;">a</tspan><tspan x="44.2" y="0" style="font-family:'Arial', sans-serif; font-size:12px;">l</tspan></text>
	</g>
	<g style="clip-path:url(#SVGID_2_);">
		<text transform="matrix(1 0 0 1 6.04 184.7803)"><tspan x="0" y="0" style="font-family:'Arial', sans-serif; font-size:12px;">F</tspan><tspan x="7.3" y="0" style="font-family:'Arial', sans-serif; font-size:12px;">l</tspan><tspan x="10" y="0" style="font-family:'Arial', sans-serif; font-size:12px;">uo</tspan><tspan x="23.4" y="0" style="font-family:'Arial', sans-serif; font-size:12px;">r</tspan><tspan x="27.4" y="0" style="font-family:'Arial', sans-serif; font-size:12px;">i</tspan><tspan x="30" y="0" style="font-family:'Arial', sans-serif; font-size:12px;">n</tspan><tspan x="36.7" y="0" style="font-family:'Arial', sans-serif; font-size:12px;">e</tspan></text>
	</g>
	<g style="clip-path:url(#SVGID_2_);">
		<text transform="matrix(1 0 0 1 93.8999 184.7803)"><tspan x="0" y="0" style="font-family:'Arial', sans-serif; font-size:12px;">1</tspan><tspan x="6.7" y="0" style="font-family:'Arial', sans-serif; font-size:12px;">.</tspan><tspan x="10" y="0" style="font-family:'Arial', sans-serif; font-size:12px;">1</tspan><tspan x="16.8" y="0" style="font-family:'Arial', sans-serif; font-size:12px;">4397893</tspan><tspan x="63.6" y="0" style="font-family:'Arial', sans-serif; font-size:12px;">5</tspan></text>
	</g>
	<g style="clip-path:url(#SVGID_2_);">
		<text transform="matrix(1 0 0 1 181.77 184.7803)"><tspan x="0" y="0" style="font-family:'Arial', sans-serif; font-size:12px;">0</tspan><tspan x="6.7" y="0" style="font-family:'Arial', sans-serif; font-size:12px;">.</tspan><tspan x="10" y="0" style="font-family:'Arial', sans-serif; font-size:12px;">5</tspan><tspan x="16.8" y="0" style="font-family:'Arial', sans-serif; font-size:12px;">1408620</tspan><tspan x="63.6" y="0" style="font-family:'Arial', sans-serif; font-size:12px;">9</tspan></text>
	</g>
	<g style="clip-path:url(#SVGID_2_);">
		<text transform="matrix(1 0 0 1 339.2305 184.7803)"><tspan x="0" y="0" style="font-family:'Arial', sans-serif; font-size:12px;">1</tspan><tspan x="6.7" y="0" style="font-family:'Arial', sans-serif; font-size:12px;">.</tspan><tspan x="10" y="0" style="font-family:'Arial', sans-serif; font-size:12px;">4</tspan><tspan x="16.8" y="0" style="font-family:'Arial', sans-serif; font-size:12px;">367985</tspan><tspan x="56.9" y="0" style="font-family:'Arial', sans-serif; font-size:12px;">1</tspan></text>
	</g>
	<g style="clip-path:url(#SVGID_2_);">
		<text transform="matrix(1 0 0 1 6.04 200.02)"><tspan x="0" y="0" style="font-family:'Arial', sans-serif; font-size:12px;">L</tspan><tspan x="6.7" y="0" style="font-family:'Arial', sans-serif; font-size:12px;">it</tspan><tspan x="12.7" y="0" style="font-family:'Arial', sans-serif; font-size:12px;">h</tspan><tspan x="19.4" y="0" style="font-family:'Arial', sans-serif; font-size:12px;">ium</tspan></text>
	</g>
	<g style="clip-path:url(#SVGID_2_);">
		<text transform="matrix(1 0 0 1 157.77 200.02)" style="font-family:'Arial', sans-serif; font-size:12px;">0</text>
	</g>
	<g style="clip-path:url(#SVGID_2_);">
		<text transform="matrix(1 0 0 1 181.77 200.02)"><tspan x="0" y="0" style="font-family:'Arial', sans-serif; font-size:12px;">0</tspan><tspan x="6.7" y="0" style="font-family:'Arial', sans-serif; font-size:12px;">.</tspan><tspan x="10" y="0" style="font-family:'Arial', sans-serif; font-size:12px;">8</tspan><tspan x="16.8" y="0" style="font-family:'Arial', sans-serif; font-size:12px;">2249867</tspan><tspan x="63.6" y="0" style="font-family:'Arial', sans-serif; font-size:12px;">6</tspan></text>
	</g>
	<g style="clip-path:url(#SVGID_2_);">
		<text transform="matrix(1 0 0 1 332.5098 200.02)"><tspan x="0" y="0" style="font-family:'Arial', sans-serif; font-size:12px;">1</tspan><tspan x="6.7" y="0" style="font-family:'Arial', sans-serif; font-size:12px;">.</tspan><tspan x="10" y="0" style="font-family:'Arial', sans-serif; font-size:12px;">4</tspan><tspan x="16.8" y="0" style="font-family:'Arial', sans-serif; font-size:12px;">6299661</tspan><tspan x="63.6" y="0" style="font-family:'Arial', sans-serif; font-size:12px;">2</tspan></text>
	</g>
	<g style="clip-path:url(#SVGID_2_);">
		<text transform="matrix(1 0 0 1 6.04 215.2598)"><tspan x="0" y="0" style="font-family:'Arial', sans-serif; font-size:12px;">Chl</tspan><tspan x="18" y="0" style="font-family:'Arial', sans-serif; font-size:12px;">o</tspan><tspan x="24.7" y="0" style="font-family:'Arial', sans-serif; font-size:12px;">r</tspan><tspan x="28.7" y="0" style="font-family:'Arial', sans-serif; font-size:12px;">i</tspan><tspan x="31.3" y="0" style="font-family:'Arial', sans-serif; font-size:12px;">d</tspan><tspan x="38" y="0" style="font-family:'Arial', sans-serif; font-size:12px;">e</tspan></text>
	</g>
	<g style="clip-path:url(#SVGID_2_);">
		<text transform="matrix(1 0 0 1 93.8999 215.2598)"><tspan x="0" y="0" style="font-family:'Arial', sans-serif; font-size:12px;">1</tspan><tspan x="6.7" y="0" style="font-family:'Arial', sans-serif; font-size:12px;">.</tspan><tspan x="10" y="0" style="font-family:'Arial', sans-serif; font-size:12px;">5</tspan><tspan x="16.8" y="0" style="font-family:'Arial', sans-serif; font-size:12px;">6296024</tspan><tspan x="63.6" y="0" style="font-family:'Arial', sans-serif; font-size:12px;">3</tspan></text>
	</g>
	<g style="clip-path:url(#SVGID_2_);">
		<text transform="matrix(1 0 0 1 181.77 215.2598)"><tspan x="0" y="0" style="font-family:'Arial', sans-serif; font-size:12px;">0</tspan><tspan x="6.7" y="0" style="font-family:'Arial', sans-serif; font-size:12px;">.</tspan><tspan x="10" y="0" style="font-family:'Arial', sans-serif; font-size:12px;">0</tspan><tspan x="16.8" y="0" style="font-family:'Arial', sans-serif; font-size:12px;">9331096</tspan><tspan x="63.6" y="0" style="font-family:'Arial', sans-serif; font-size:12px;">2</tspan></text>
	</g>
	<g style="clip-path:url(#SVGID_2_);">
		<text transform="matrix(1 0 0 1 332.5098 215.2598)"><tspan x="0" y="0" style="font-family:'Arial', sans-serif; font-size:12px;">1</tspan><tspan x="6.7" y="0" style="font-family:'Arial', sans-serif; font-size:12px;">.</tspan><tspan x="10" y="0" style="font-family:'Arial', sans-serif; font-size:12px;">0</tspan><tspan x="16.8" y="0" style="font-family:'Arial', sans-serif; font-size:12px;">8778141</tspan><tspan x="63.6" y="0" style="font-family:'Arial', sans-serif; font-size:12px;">8</tspan></text>
	</g>
	<g style="clip-path:url(#SVGID_2_);">
		<text transform="matrix(1 0 0 1 6.04 230.5303)"><tspan x="0" y="0" style="font-family:'Arial', sans-serif; font-size:12px;">Sod</tspan><tspan x="21.4" y="0" style="font-family:'Arial', sans-serif; font-size:12px;">ium</tspan></text>
	</g>
	<g style="clip-path:url(#SVGID_2_);">
		<text transform="matrix(1 0 0 1 93.8999 230.5303)"><tspan x="0" y="0" style="font-family:'Arial', sans-serif; font-size:12px;">0</tspan><tspan x="6.7" y="0" style="font-family:'Arial', sans-serif; font-size:12px;">.</tspan><tspan x="10" y="0" style="font-family:'Arial', sans-serif; font-size:12px;">7</tspan><tspan x="16.8" y="0" style="font-family:'Arial', sans-serif; font-size:12px;">5271246</tspan><tspan x="63.6" y="0" style="font-family:'Arial', sans-serif; font-size:12px;">3</tspan></text>
	</g>
	<g style="clip-path:url(#SVGID_2_);">
		<text transform="matrix(1 0 0 1 181.77 230.5303)"><tspan x="0" y="0" style="font-family:'Arial', sans-serif; font-size:12px;">0</tspan><tspan x="6.7" y="0" style="font-family:'Arial', sans-serif; font-size:12px;">.</tspan><tspan x="10" y="0" style="font-family:'Arial', sans-serif; font-size:12px;">4</tspan><tspan x="16.8" y="0" style="font-family:'Arial', sans-serif; font-size:12px;">1200079</tspan><tspan x="63.6" y="0" style="font-family:'Arial', sans-serif; font-size:12px;">6</tspan></text>
	</g>
	<g style="clip-path:url(#SVGID_2_);">
		<text transform="matrix(1 0 0 1 332.5098 230.5303)"><tspan x="0" y="0" style="font-family:'Arial', sans-serif; font-size:12px;">1</tspan><tspan x="6.7" y="0" style="font-family:'Arial', sans-serif; font-size:12px;">.</tspan><tspan x="10" y="0" style="font-family:'Arial', sans-serif; font-size:12px;">4</tspan><tspan x="16.8" y="0" style="font-family:'Arial', sans-serif; font-size:12px;">1060854</tspan><tspan x="63.6" y="0" style="font-family:'Arial', sans-serif; font-size:12px;">3</tspan></text>
	</g>
	<g style="clip-path:url(#SVGID_2_);">
		<text transform="matrix(1 0 0 1 6.04 245.77)"><tspan x="0" y="0" style="font-family:'Arial', sans-serif; font-size:12px;">M</tspan><tspan x="10" y="0" style="font-family:'Arial', sans-serif; font-size:12px;">a</tspan><tspan x="16.7" y="0" style="font-family:'Arial', sans-serif; font-size:12px;">g</tspan><tspan x="23.3" y="0" style="font-family:'Arial', sans-serif; font-size:12px;">ne</tspan><tspan x="36.7" y="0" style="font-family:'Arial', sans-serif; font-size:12px;">sium</tspan></text>
	</g>
	<g style="clip-path:url(#SVGID_2_);">
		<text transform="matrix(1 0 0 1 93.8999 245.77)"><tspan x="0" y="0" style="font-family:'Arial', sans-serif; font-size:12px;">0</tspan><tspan x="6.7" y="0" style="font-family:'Arial', sans-serif; font-size:12px;">.</tspan><tspan x="10" y="0" style="font-family:'Arial', sans-serif; font-size:12px;">8</tspan><tspan x="16.8" y="0" style="font-family:'Arial', sans-serif; font-size:12px;">1057095</tspan><tspan x="63.6" y="0" style="font-family:'Arial', sans-serif; font-size:12px;">5</tspan></text>
	</g>
	<g style="clip-path:url(#SVGID_2_);">
		<text transform="matrix(1 0 0 1 181.77 245.77)"><tspan x="0" y="0" style="font-family:'Arial', sans-serif; font-size:12px;">0</tspan><tspan x="6.7" y="0" style="font-family:'Arial', sans-serif; font-size:12px;">.</tspan><tspan x="10" y="0" style="font-family:'Arial', sans-serif; font-size:12px;">3</tspan><tspan x="16.8" y="0" style="font-family:'Arial', sans-serif; font-size:12px;">7836171</tspan><tspan x="63.6" y="0" style="font-family:'Arial', sans-serif; font-size:12px;">9</tspan></text>
	</g>
	<g style="clip-path:url(#SVGID_2_);">
		<text transform="matrix(1 0 0 1 332.5098 245.77)"><tspan x="0" y="0" style="font-family:'Arial', sans-serif; font-size:12px;">1</tspan><tspan x="6.7" y="0" style="font-family:'Arial', sans-serif; font-size:12px;">.</tspan><tspan x="10" y="0" style="font-family:'Arial', sans-serif; font-size:12px;">3</tspan><tspan x="16.8" y="0" style="font-family:'Arial', sans-serif; font-size:12px;">5102285</tspan><tspan x="63.6" y="0" style="font-family:'Arial', sans-serif; font-size:12px;">3</tspan></text>
	</g>
	<g style="clip-path:url(#SVGID_2_);">
		<text transform="matrix(1 0 0 1 6.04 261.0098)"><tspan x="0" y="0" style="font-family:'Arial', sans-serif; font-size:12px;">Po</tspan><tspan x="14.7" y="0" style="font-family:'Arial', sans-serif; font-size:12px;">t</tspan><tspan x="18.1" y="0" style="font-family:'Arial', sans-serif; font-size:12px;">a</tspan><tspan x="24.8" y="0" style="font-family:'Arial', sans-serif; font-size:12px;">ssium</tspan></text>
	</g>
	<g style="clip-path:url(#SVGID_2_);">
		<text transform="matrix(1 0 0 1 93.8999 261.0098)"><tspan x="0" y="0" style="font-family:'Arial', sans-serif; font-size:12px;">0</tspan><tspan x="6.7" y="0" style="font-family:'Arial', sans-serif; font-size:12px;">.</tspan><tspan x="10" y="0" style="font-family:'Arial', sans-serif; font-size:12px;">4</tspan><tspan x="16.8" y="0" style="font-family:'Arial', sans-serif; font-size:12px;">2265345</tspan><tspan x="63.6" y="0" style="font-family:'Arial', sans-serif; font-size:12px;">4</tspan></text>
	</g>
	<g style="clip-path:url(#SVGID_2_);">
		<text transform="matrix(1 0 0 1 245.6099 261.0098)" style="font-family:'Arial', sans-serif; font-size:12px;">0</text>
	</g>
	<g style="clip-path:url(#SVGID_2_);">
		<text transform="matrix(1 0 0 1 332.5098 261.0098)"><tspan x="0" y="0" style="font-family:'Arial', sans-serif; font-size:12px;">1</tspan><tspan x="6.7" y="0" style="font-family:'Arial', sans-serif; font-size:12px;">.</tspan><tspan x="10" y="0" style="font-family:'Arial', sans-serif; font-size:12px;">4</tspan><tspan x="16.8" y="0" style="font-family:'Arial', sans-serif; font-size:12px;">4466923</tspan><tspan x="63.6" y="0" style="font-family:'Arial', sans-serif; font-size:12px;">1</tspan></text>
	</g>
</g>
</svg>
