<?xml version="1.0" encoding="UTF-8" standalone="no"?>
<!DOCTYPE svg PUBLIC "-//W3C//DTD SVG 1.1//EN" "http://www.w3.org/Graphics/SVG/1.1/DTD/svg11.dtd">
<svg xmlns="http://www.w3.org/2000/svg" xmlns:xlink="http://www.w3.org/1999/xlink" version="1.1" width="432pt" height="252pt" viewBox="0 0 432 252">
<g enable-background="new">
<clipPath id="cp0">
<path transform="matrix(.75,0,0,.75,0,0)" d="M 0 0 L 576 0 L 576 336 L 0 336 L 0 0 Z "/>
</clipPath>
<g clip-path="url(#cp0)">
<path transform="matrix(.75,0,0,.75,0,0)" d="M 0 0 L 576 0 L 576 336 L 0 336 Z " fill="#ffffff"/>
</g>
<path transform="matrix(.75,0,0,.75,0,0)" d="M 0 0 L 576 0 L 576 336 L 0 336 Z " fill="#ffffff"/>
<path transform="matrix(.75,0,0,.75,0,0)" d="M 75 287 L 521 287 L 521 25 L 75 25 Z " fill="#ffffff"/>
<path transform="matrix(.75,0,0,.75,0,0)" stroke-width=".666667" stroke-linecap="square" stroke-linejoin="round" fill="none" stroke="#323232" d="M 75 287 L 521 287 "/>
<path transform="matrix(.75,0,0,.75,0,0)" stroke-width=".666667" stroke-linecap="square" stroke-linejoin="round" fill="none" stroke="#323232" d="M 75 24.99999 L 521 24.99999 "/>
<path transform="matrix(.75,0,0,.75,0,0)" stroke-width=".666667" stroke-linecap="square" stroke-linejoin="round" fill="none" stroke="#323232" d="M 75 287 L 75 282.54 "/>
<path transform="matrix(.75,0,0,.75,0,0)" stroke-width=".666667" stroke-linecap="square" stroke-linejoin="round" fill="none" stroke="#323232" d="M 119.6 287 L 119.6 282.54 "/>
<path transform="matrix(.75,0,0,.75,0,0)" stroke-width=".666667" stroke-linecap="square" stroke-linejoin="round" fill="none" stroke="#323232" d="M 164.2 287 L 164.2 282.54 "/>
<path transform="matrix(.75,0,0,.75,0,0)" stroke-width=".666667" stroke-linecap="square" stroke-linejoin="round" fill="none" stroke="#323232" d="M 208.8 287 L 208.8 282.54 "/>
<path transform="matrix(.75,0,0,.75,0,0)" stroke-width=".666667" stroke-linecap="square" stroke-linejoin="round" fill="none" stroke="#323232" d="M 253.40001 287 L 253.40001 282.54 "/>
<path transform="matrix(.75,0,0,.75,0,0)" stroke-width=".666667" stroke-linecap="square" stroke-linejoin="round" fill="none" stroke="#323232" d="M 298 287 L 298 282.54 "/>
<path transform="matrix(.75,0,0,.75,0,0)" stroke-width=".666667" stroke-linecap="square" stroke-linejoin="round" fill="none" stroke="#323232" d="M 342.6 287 L 342.6 282.54 "/>
<path transform="matrix(.75,0,0,.75,0,0)" stroke-width=".666667" stroke-linecap="square" stroke-linejoin="round" fill="none" stroke="#323232" d="M 387.19999 287 L 387.19999 282.54 "/>
<path transform="matrix(.75,0,0,.75,0,0)" stroke-width=".666667" stroke-linecap="square" stroke-linejoin="round" fill="none" stroke="#323232" d="M 431.80003 287 L 431.80003 282.54 "/>
<path transform="matrix(.75,0,0,.75,0,0)" stroke-width=".666667" stroke-linecap="square" stroke-linejoin="round" fill="none" stroke="#323232" d="M 476.4 287 L 476.4 282.54 "/>
<path transform="matrix(.75,0,0,.75,0,0)" stroke-width=".666667" stroke-linecap="square" stroke-linejoin="round" fill="none" stroke="#323232" d="M 521 287 L 521 282.54 "/>
<path transform="matrix(.75,0,0,.75,0,0)" stroke-width=".666667" stroke-linecap="square" stroke-linejoin="round" fill="none" stroke="#323232" d="M 75 24.99999 L 75 29.459996 "/>
<path transform="matrix(.75,0,0,.75,0,0)" stroke-width=".666667" stroke-linecap="square" stroke-linejoin="round" fill="none" stroke="#323232" d="M 119.6 24.99999 L 119.6 29.459996 "/>
<path transform="matrix(.75,0,0,.75,0,0)" stroke-width=".666667" stroke-linecap="square" stroke-linejoin="round" fill="none" stroke="#323232" d="M 164.2 24.99999 L 164.2 29.459996 "/>
<path transform="matrix(.75,0,0,.75,0,0)" stroke-width=".666667" stroke-linecap="square" stroke-linejoin="round" fill="none" stroke="#323232" d="M 208.8 24.99999 L 208.8 29.459996 "/>
<path transform="matrix(.75,0,0,.75,0,0)" stroke-width=".666667" stroke-linecap="square" stroke-linejoin="round" fill="none" stroke="#323232" d="M 253.40001 24.99999 L 253.40001 29.459996 "/>
<path transform="matrix(.75,0,0,.75,0,0)" stroke-width=".666667" stroke-linecap="square" stroke-linejoin="round" fill="none" stroke="#323232" d="M 298 24.99999 L 298 29.459996 "/>
<path transform="matrix(.75,0,0,.75,0,0)" stroke-width=".666667" stroke-linecap="square" stroke-linejoin="round" fill="none" stroke="#323232" d="M 342.6 24.99999 L 342.6 29.459996 "/>
<path transform="matrix(.75,0,0,.75,0,0)" stroke-width=".666667" stroke-linecap="square" stroke-linejoin="round" fill="none" stroke="#323232" d="M 387.19999 24.99999 L 387.19999 29.459996 "/>
<path transform="matrix(.75,0,0,.75,0,0)" stroke-width=".666667" stroke-linecap="square" stroke-linejoin="round" fill="none" stroke="#323232" d="M 431.80003 24.99999 L 431.80003 29.459996 "/>
<path transform="matrix(.75,0,0,.75,0,0)" stroke-width=".666667" stroke-linecap="square" stroke-linejoin="round" fill="none" stroke="#323232" d="M 476.4 24.99999 L 476.4 29.459996 "/>
<path transform="matrix(.75,0,0,.75,0,0)" stroke-width=".666667" stroke-linecap="square" stroke-linejoin="round" fill="none" stroke="#323232" d="M 521 24.99999 L 521 29.459996 "/>
<text fill="#323232" xml:space="preserve" transform="matrix(.75 0 0 .75 56.25 219.25)" font-size="13.333" font-family="Helvetica"><tspan y="14" x="-4">0</tspan></text>
<text fill="#323232" xml:space="preserve" transform="matrix(.75 0 0 .75 89.7 219.25)" font-size="13.333" font-family="Helvetica"><tspan y="14" x="-9.5 -2.0868512 1.6197233">0.1</tspan></text>
<text fill="#323232" xml:space="preserve" transform="matrix(.75 0 0 .75 123.149997 219.25)" font-size="13.333" font-family="Helvetica"><tspan y="14" x="-9.5 -2.0868512 1.6197233">0.2</tspan></text>
<text fill="#323232" xml:space="preserve" transform="matrix(.75 0 0 .75 156.6 219.25)" font-size="13.333" font-family="Helvetica"><tspan y="14" x="-9.5 -2.0868512 1.6197233">0.3</tspan></text>
<text fill="#323232" xml:space="preserve" transform="matrix(.75 0 0 .75 190.05 219.25)" font-size="13.333" font-family="Helvetica"><tspan y="14" x="-9.5 -2.0868512 1.6197233">0.4</tspan></text>
<text fill="#323232" xml:space="preserve" transform="matrix(.75 0 0 .75 223.5 219.25)" font-size="13.333" font-family="Helvetica"><tspan y="14" x="-9.5 -2.0868512 1.6197233">0.5</tspan></text>
<text fill="#323232" xml:space="preserve" transform="matrix(.75 0 0 .75 256.95 219.25)" font-size="13.333" font-family="Helvetica"><tspan y="14" x="-9.5 -2.0868512 1.6197233">0.6</tspan></text>
<text fill="#323232" xml:space="preserve" transform="matrix(.75 0 0 .75 290.4 219.25)" font-size="13.333" font-family="Helvetica"><tspan y="14" x="-9.5 -2.0868512 1.6197233">0.7</tspan></text>
<text fill="#323232" xml:space="preserve" transform="matrix(.75 0 0 .75 323.85 219.25)" font-size="13.333" font-family="Helvetica"><tspan y="14" x="-9.5 -2.0868512 1.6197233">0.8</tspan></text>
<text fill="#323232" xml:space="preserve" transform="matrix(.75 0 0 .75 357.3 219.25)" font-size="13.333" font-family="Helvetica"><tspan y="14" x="-9.5 -2.0868512 1.6197233">0.9</tspan></text>
<text fill="#323232" xml:space="preserve" transform="matrix(.75 0 0 .75 390.75 219.25)" font-size="13.333" font-family="Helvetica"><tspan y="14" x="-4">1</tspan></text>
<text fill="#323232" xml:space="preserve" transform="matrix(.75 0 0 .75 180 244.5)" font-size="14.667" font-family="Helvetica"><tspan y="0" x="0 7.3335 11.410927 14.667001 22.821854 26.89928 36.68217">x in Bi</tspan></text>
<text fill="#323232" xml:space="preserve" transform="matrix(.75 0 0 .75 210 249.75)" font-size="11.733" font-family="Helvetica"><tspan y="0" x="0 3.907089 10.430637 14.337727 20.204228">(1-x)</tspan></text>
<text fill="#323232" xml:space="preserve" transform="matrix(.75 0 0 .75 228.75 244.5)" font-size="14.667" font-family="Helvetica"><tspan y="0" x="0 9.782889">Ba</tspan></text>
<text fill="#323232" xml:space="preserve" transform="matrix(.75 0 0 .75 242.25 249.75)" font-size="11.733" font-family="Helvetica"><tspan y="0" x="0">x</tspan></text>
<text fill="#323232" xml:space="preserve" transform="matrix(.75 0 0 .75 246.75 244.5)" font-size="14.667" font-family="Helvetica"><tspan y="0" x="0">F</tspan></text>
<text fill="#323232" xml:space="preserve" transform="matrix(.75 0 0 .75 253.5 249.75)" font-size="11.733" font-family="Helvetica"><tspan y="0" x="0 6.5235488 10.430637">3-x</tspan></text>
<path transform="matrix(.75,0,0,.75,0,0)" stroke-width=".666667" stroke-linecap="square" stroke-linejoin="round" fill="none" stroke="#323232" d="M 75 287 L 75 24.99999 "/>
<path transform="matrix(.75,0,0,.75,0,0)" stroke-width=".666667" stroke-linecap="square" stroke-linejoin="round" fill="none" stroke="#323232" d="M 521 287 L 521 24.99999 "/>
<path transform="matrix(.75,0,0,.75,0,0)" stroke-width=".666667" stroke-linecap="square" stroke-linejoin="round" fill="none" stroke="#323232" d="M 75 287 L 79.46 287 "/>
<path transform="matrix(.75,0,0,.75,0,0)" stroke-width=".666667" stroke-linecap="square" stroke-linejoin="round" fill="none" stroke="#323232" d="M 75 249.57143 L 79.46 249.57143 "/>
<path transform="matrix(.75,0,0,.75,0,0)" stroke-width=".666667" stroke-linecap="square" stroke-linejoin="round" fill="none" stroke="#323232" d="M 75 212.14286 L 79.46 212.14286 "/>
<path transform="matrix(.75,0,0,.75,0,0)" stroke-width=".666667" stroke-linecap="square" stroke-linejoin="round" fill="none" stroke="#323232" d="M 75 174.71428 L 79.46 174.71428 "/>
<path transform="matrix(.75,0,0,.75,0,0)" stroke-width=".666667" stroke-linecap="square" stroke-linejoin="round" fill="none" stroke="#323232" d="M 75 137.2857 L 79.46 137.2857 "/>
<path transform="matrix(.75,0,0,.75,0,0)" stroke-width=".666667" stroke-linecap="square" stroke-linejoin="round" fill="none" stroke="#323232" d="M 75 99.85714 L 79.46 99.85714 "/>
<path transform="matrix(.75,0,0,.75,0,0)" stroke-width=".666667" stroke-linecap="square" stroke-linejoin="round" fill="none" stroke="#323232" d="M 75 62.42857 L 79.46 62.42857 "/>
<path transform="matrix(.75,0,0,.75,0,0)" stroke-width=".666667" stroke-linecap="square" stroke-linejoin="round" fill="none" stroke="#323232" d="M 75 24.99999 L 79.46 24.99999 "/>
<path transform="matrix(.75,0,0,.75,0,0)" stroke-width=".666667" stroke-linecap="square" stroke-linejoin="round" fill="none" stroke="#323232" d="M 521 287 L 516.54 287 "/>
<path transform="matrix(.75,0,0,.75,0,0)" stroke-width=".666667" stroke-linecap="square" stroke-linejoin="round" fill="none" stroke="#323232" d="M 521 249.57143 L 516.54 249.57143 "/>
<path transform="matrix(.75,0,0,.75,0,0)" stroke-width=".666667" stroke-linecap="square" stroke-linejoin="round" fill="none" stroke="#323232" d="M 521 212.14286 L 516.54 212.14286 "/>
<path transform="matrix(.75,0,0,.75,0,0)" stroke-width=".666667" stroke-linecap="square" stroke-linejoin="round" fill="none" stroke="#323232" d="M 521 174.71428 L 516.54 174.71428 "/>
<path transform="matrix(.75,0,0,.75,0,0)" stroke-width=".666667" stroke-linecap="square" stroke-linejoin="round" fill="none" stroke="#323232" d="M 521 137.2857 L 516.54 137.2857 "/>
<path transform="matrix(.75,0,0,.75,0,0)" stroke-width=".666667" stroke-linecap="square" stroke-linejoin="round" fill="none" stroke="#323232" d="M 521 99.85714 L 516.54 99.85714 "/>
<path transform="matrix(.75,0,0,.75,0,0)" stroke-width=".666667" stroke-linecap="square" stroke-linejoin="round" fill="none" stroke="#323232" d="M 521 62.42857 L 516.54 62.42857 "/>
<path transform="matrix(.75,0,0,.75,0,0)" stroke-width=".666667" stroke-linecap="square" stroke-linejoin="round" fill="none" stroke="#323232" d="M 521 24.99999 L 516.54 24.99999 "/>
<text fill="#323232" xml:space="preserve" transform="matrix(.75 0 0 .75 52.249998 215.25)" font-size="13.333" font-family="Helvetica"><tspan y="5.5" x="-31 -26.560112 -19.146964 -15.440389 -8.02724">-0.05</tspan></text>
<text fill="#323232" xml:space="preserve" transform="matrix(.75 0 0 .75 52.249998 187.17858)" font-size="13.333" font-family="Helvetica"><tspan y="5.5" x="-8">0</tspan></text>
<text fill="#323232" xml:space="preserve" transform="matrix(.75 0 0 .75 52.249998 159.10713)" font-size="13.333" font-family="Helvetica"><tspan y="5.5" x="-26 -18.586852 -14.880277 -7.467128">0.05</tspan></text>
<text fill="#323232" xml:space="preserve" transform="matrix(.75 0 0 .75 52.249998 131.0357)" font-size="13.333" font-family="Helvetica"><tspan y="5.5" x="-19 -11.586851 -7.8802769">0.1</tspan></text>
<text fill="#323232" xml:space="preserve" transform="matrix(.75 0 0 .75 52.249998 102.96428)" font-size="13.333" font-family="Helvetica"><tspan y="5.5" x="-26 -18.586852 -14.880277 -7.467128">0.15</tspan></text>
<text fill="#323232" xml:space="preserve" transform="matrix(.75 0 0 .75 52.249998 74.89285)" font-size="13.333" font-family="Helvetica"><tspan y="5.5" x="-19 -11.586851 -7.8802769">0.2</tspan></text>
<text fill="#323232" xml:space="preserve" transform="matrix(.75 0 0 .75 52.249998 46.821428)" font-size="13.333" font-family="Helvetica"><tspan y="5.5" x="-26 -18.586852 -14.880277 -7.467128">0.25</tspan></text>
<text fill="#323232" xml:space="preserve" transform="matrix(.75 0 0 .75 52.249998 18.749993)" font-size="13.333" font-family="Helvetica"><tspan y="5.5" x="-19 -11.586851 -7.8802769">0.3</tspan></text>
<text fill="#323232" xml:space="preserve" transform="matrix(-.0000000325 -.75 .75 -.0000000325 26 116.99989)" font-size="14.667" font-family="Helvetica"><tspan y="-4" x="-92 -83.03846 -74.883609 -69.9995 -57.781885 -49.62703 -45.549604 -42.29353 -34.138677 -25.983822 -21.906395 -13.751542 -5.596689 2.5581637 7.4422748 15.597128 22.930628 27.008055 35.162908 39.240335 47.395189 59.6128 63.690229 68.57434 76.729198 86.512088">Formation energy/atom (eV)</tspan></text>
<path transform="matrix(.75,0,0,.75,0,0)" stroke-width=".666667" stroke-linecap="butt" stroke-linejoin="round" fill="none" stroke="#000000" d="M 75 249.57143 L 409.5 252.8039 L 521 249.57143 "/>
<path transform="matrix(.75,0,0,.75,56.25,187.17858)" stroke-width=".666667" stroke-linecap="butt" stroke-miterlimit="10" stroke-linejoin="miter" fill="none" stroke="#3366cc" d="M -2.8284274 -2.8284274 L 2.8284274 2.8284274 M -2.8284274 2.8284274 L 2.8284274 -2.8284274 "/>
<path transform="matrix(.75,0,0,.75,77.15625,181.13278)" stroke-width=".666667" stroke-linecap="butt" stroke-miterlimit="10" stroke-linejoin="miter" fill="none" stroke="#3366cc" d="M -2.8284274 -2.8284274 L 2.8284274 2.8284274 M -2.8284274 2.8284274 L 2.8284274 -2.8284274 "/>
<path transform="matrix(.75,0,0,.75,98.0625,175.35214)" stroke-width=".666667" stroke-linecap="butt" stroke-miterlimit="10" stroke-linejoin="miter" fill="none" stroke="#3366cc" d="M -2.8284274 -2.8284274 L 2.8284274 2.8284274 M -2.8284274 2.8284274 L 2.8284274 -2.8284274 "/>
<path transform="matrix(.75,0,0,.75,118.96875,168.65876)" stroke-width=".666667" stroke-linecap="butt" stroke-miterlimit="10" stroke-linejoin="miter" fill="none" stroke="#3366cc" d="M -2.8284274 -2.8284274 L 2.8284274 2.8284274 M -2.8284274 2.8284274 L 2.8284274 -2.8284274 "/>
<path transform="matrix(.75,0,0,.75,139.875,166.44469)" stroke-width=".666667" stroke-linecap="butt" stroke-miterlimit="10" stroke-linejoin="miter" fill="none" stroke="#3366cc" d="M -2.8284274 -2.8284274 L 2.8284274 2.8284274 M -2.8284274 2.8284274 L 2.8284274 -2.8284274 "/>
<path transform="matrix(.75,0,0,.75,160.78125,168.24343)" stroke-width=".666667" stroke-linecap="butt" stroke-miterlimit="10" stroke-linejoin="miter" fill="none" stroke="#3366cc" d="M -2.8284274 -2.8284274 L 2.8284274 2.8284274 M -2.8284274 2.8284274 L 2.8284274 -2.8284274 "/>
<path transform="matrix(.75,0,0,.75,181.6875,166.3433)" stroke-width=".666667" stroke-linecap="butt" stroke-miterlimit="10" stroke-linejoin="miter" fill="none" stroke="#3366cc" d="M -2.8284274 -2.8284274 L 2.8284274 2.8284274 M -2.8284274 2.8284274 L 2.8284274 -2.8284274 "/>
<path transform="matrix(.75,0,0,.75,223.5,152.74166)" stroke-width=".666667" stroke-linecap="butt" stroke-miterlimit="10" stroke-linejoin="miter" fill="none" stroke="#3366cc" d="M -2.8284274 -2.8284274 L 2.8284274 2.8284274 M -2.8284274 2.8284274 L 2.8284274 -2.8284274 "/>
<path transform="matrix(.75,0,0,.75,265.3125,173.76175)" stroke-width=".666667" stroke-linecap="butt" stroke-miterlimit="10" stroke-linejoin="miter" fill="none" stroke="#3366cc" d="M -2.8284274 -2.8284274 L 2.8284274 2.8284274 M -2.8284274 2.8284274 L 2.8284274 -2.8284274 "/>
<path transform="matrix(.75,0,0,.75,307.125,171.52545)" stroke-width=".666667" stroke-linecap="butt" stroke-miterlimit="10" stroke-linejoin="miter" fill="none" stroke="#3366cc" d="M -2.8284274 -2.8284274 L 2.8284274 2.8284274 M -2.8284274 2.8284274 L 2.8284274 -2.8284274 "/>
<path transform="matrix(.75,0,0,.75,348.9375,152.01868)" stroke-width=".666667" stroke-linecap="butt" stroke-miterlimit="10" stroke-linejoin="miter" fill="none" stroke="#3366cc" d="M -2.8284274 -2.8284274 L 2.8284274 2.8284274 M -2.8284274 2.8284274 L 2.8284274 -2.8284274 "/>
<path transform="matrix(.75,0,0,.75,390.75,167.18318)" stroke-width=".666667" stroke-linecap="butt" stroke-miterlimit="10" stroke-linejoin="miter" fill="none" stroke="#3366cc" d="M -2.8284274 -2.8284274 L 2.8284274 2.8284274 M -2.8284274 2.8284274 L 2.8284274 -2.8284274 "/>
<path transform="matrix(.75,0,0,.75,56.25,187.17858)" stroke-width=".666667" stroke-linecap="butt" stroke-miterlimit="10" stroke-linejoin="miter" fill="none" stroke="#3366cc" d="M -2.8284274 -2.8284274 L 2.8284274 2.8284274 M -2.8284274 2.8284274 L 2.8284274 -2.8284274 "/>
<path transform="matrix(.75,0,0,.75,77.15625,180.02016)" stroke-width=".666667" stroke-linecap="butt" stroke-miterlimit="10" stroke-linejoin="miter" fill="none" stroke="#3366cc" d="M -2.8284274 -2.8284274 L 2.8284274 2.8284274 M -2.8284274 2.8284274 L 2.8284274 -2.8284274 "/>
<path transform="matrix(.75,0,0,.75,98.0625,176.5709)" stroke-width=".666667" stroke-linecap="butt" stroke-miterlimit="10" stroke-linejoin="miter" fill="none" stroke="#3366cc" d="M -2.8284274 -2.8284274 L 2.8284274 2.8284274 M -2.8284274 2.8284274 L 2.8284274 -2.8284274 "/>
<path transform="matrix(.75,0,0,.75,118.96875,171.07483)" stroke-width=".666667" stroke-linecap="butt" stroke-miterlimit="10" stroke-linejoin="miter" fill="none" stroke="#3366cc" d="M -2.8284274 -2.8284274 L 2.8284274 2.8284274 M -2.8284274 2.8284274 L 2.8284274 -2.8284274 "/>
<path transform="matrix(.75,0,0,.75,139.875,165.49672)" stroke-width=".666667" stroke-linecap="butt" stroke-miterlimit="10" stroke-linejoin="miter" fill="none" stroke="#3366cc" d="M -2.8284274 -2.8284274 L 2.8284274 2.8284274 M -2.8284274 2.8284274 L 2.8284274 -2.8284274 "/>
<path transform="matrix(.75,0,0,.75,160.78125,167.4896)" stroke-width=".666667" stroke-linecap="butt" stroke-miterlimit="10" stroke-linejoin="miter" fill="none" stroke="#3366cc" d="M -2.8284274 -2.8284274 L 2.8284274 2.8284274 M -2.8284274 2.8284274 L 2.8284274 -2.8284274 "/>
<path transform="matrix(.75,0,0,.75,181.6875,181.23394)" stroke-width=".666667" stroke-linecap="butt" stroke-miterlimit="10" stroke-linejoin="miter" fill="none" stroke="#3366cc" d="M -2.8284274 -2.8284274 L 2.8284274 2.8284274 M -2.8284274 2.8284274 L 2.8284274 -2.8284274 "/>
<path transform="matrix(.75,0,0,.75,223.5,158.21878)" stroke-width=".666667" stroke-linecap="butt" stroke-miterlimit="10" stroke-linejoin="miter" fill="none" stroke="#3366cc" d="M -2.8284274 -2.8284274 L 2.8284274 2.8284274 M -2.8284274 2.8284274 L 2.8284274 -2.8284274 "/>
<path transform="matrix(.75,0,0,.75,265.3125,174.48413)" stroke-width=".666667" stroke-linecap="butt" stroke-miterlimit="10" stroke-linejoin="miter" fill="none" stroke="#3366cc" d="M -2.8284274 -2.8284274 L 2.8284274 2.8284274 M -2.8284274 2.8284274 L 2.8284274 -2.8284274 "/>
<path transform="matrix(.75,0,0,.75,307.125,159.29225)" stroke-width=".666667" stroke-linecap="butt" stroke-miterlimit="10" stroke-linejoin="miter" fill="none" stroke="#3366cc" d="M -2.8284274 -2.8284274 L 2.8284274 2.8284274 M -2.8284274 2.8284274 L 2.8284274 -2.8284274 "/>
<path transform="matrix(.75,0,0,.75,348.9375,172.23123)" stroke-width=".666667" stroke-linecap="butt" stroke-miterlimit="10" stroke-linejoin="miter" fill="none" stroke="#3366cc" d="M -2.8284274 -2.8284274 L 2.8284274 2.8284274 M -2.8284274 2.8284274 L 2.8284274 -2.8284274 "/>
<path transform="matrix(.75,0,0,.75,390.75,160.18064)" stroke-width=".666667" stroke-linecap="butt" stroke-miterlimit="10" stroke-linejoin="miter" fill="none" stroke="#3366cc" d="M -2.8284274 -2.8284274 L 2.8284274 2.8284274 M -2.8284274 2.8284274 L 2.8284274 -2.8284274 "/>
<path transform="matrix(.75,0,0,.75,56.25,187.17858)" stroke-width=".666667" stroke-linecap="butt" stroke-miterlimit="10" stroke-linejoin="miter" fill="none" stroke="#3366cc" d="M -2.8284274 -2.8284274 L 2.8284274 2.8284274 M -2.8284274 2.8284274 L 2.8284274 -2.8284274 "/>
<path transform="matrix(.75,0,0,.75,77.15625,180.02828)" stroke-width=".666667" stroke-linecap="butt" stroke-miterlimit="10" stroke-linejoin="miter" fill="none" stroke="#3366cc" d="M -2.8284274 -2.8284274 L 2.8284274 2.8284274 M -2.8284274 2.8284274 L 2.8284274 -2.8284274 "/>
<path transform="matrix(.75,0,0,.75,98.0625,174.1362)" stroke-width=".666667" stroke-linecap="butt" stroke-miterlimit="10" stroke-linejoin="miter" fill="none" stroke="#3366cc" d="M -2.8284274 -2.8284274 L 2.8284274 2.8284274 M -2.8284274 2.8284274 L 2.8284274 -2.8284274 "/>
<path transform="matrix(.75,0,0,.75,118.96875,172.11016)" stroke-width=".666667" stroke-linecap="butt" stroke-miterlimit="10" stroke-linejoin="miter" fill="none" stroke="#3366cc" d="M -2.8284274 -2.8284274 L 2.8284274 2.8284274 M -2.8284274 2.8284274 L 2.8284274 -2.8284274 "/>
<path transform="matrix(.75,0,0,.75,139.875,167.17913)" stroke-width=".666667" stroke-linecap="butt" stroke-miterlimit="10" stroke-linejoin="miter" fill="none" stroke="#3366cc" d="M -2.8284274 -2.8284274 L 2.8284274 2.8284274 M -2.8284274 2.8284274 L 2.8284274 -2.8284274 "/>
<path transform="matrix(.75,0,0,.75,160.78125,167.55667)" stroke-width=".666667" stroke-linecap="butt" stroke-miterlimit="10" stroke-linejoin="miter" fill="none" stroke="#3366cc" d="M -2.8284274 -2.8284274 L 2.8284274 2.8284274 M -2.8284274 2.8284274 L 2.8284274 -2.8284274 "/>
<path transform="matrix(.75,0,0,.75,181.6875,164.40715)" stroke-width=".666667" stroke-linecap="butt" stroke-miterlimit="10" stroke-linejoin="miter" fill="none" stroke="#3366cc" d="M -2.8284274 -2.8284274 L 2.8284274 2.8284274 M -2.8284274 2.8284274 L 2.8284274 -2.8284274 "/>
<path transform="matrix(.75,0,0,.75,223.5,156.84569)" stroke-width=".666667" stroke-linecap="butt" stroke-miterlimit="10" stroke-linejoin="miter" fill="none" stroke="#3366cc" d="M -2.8284274 -2.8284274 L 2.8284274 2.8284274 M -2.8284274 2.8284274 L 2.8284274 -2.8284274 "/>
<path transform="matrix(.75,0,0,.75,265.3125,173.053)" stroke-width=".666667" stroke-linecap="butt" stroke-miterlimit="10" stroke-linejoin="miter" fill="none" stroke="#3366cc" d="M -2.8284274 -2.8284274 L 2.8284274 2.8284274 M -2.8284274 2.8284274 L 2.8284274 -2.8284274 "/>
<path transform="matrix(.75,0,0,.75,307.125,161.94339)" stroke-width=".666667" stroke-linecap="butt" stroke-miterlimit="10" stroke-linejoin="miter" fill="none" stroke="#3366cc" d="M -2.8284274 -2.8284274 L 2.8284274 2.8284274 M -2.8284274 2.8284274 L 2.8284274 -2.8284274 "/>
<path transform="matrix(.75,0,0,.75,348.9375,164.4084)" stroke-width=".666667" stroke-linecap="butt" stroke-miterlimit="10" stroke-linejoin="miter" fill="none" stroke="#3366cc" d="M -2.8284274 -2.8284274 L 2.8284274 2.8284274 M -2.8284274 2.8284274 L 2.8284274 -2.8284274 "/>
<path transform="matrix(.75,0,0,.75,390.75,175.29686)" stroke-width=".666667" stroke-linecap="butt" stroke-miterlimit="10" stroke-linejoin="miter" fill="none" stroke="#3366cc" d="M -2.8284274 -2.8284274 L 2.8284274 2.8284274 M -2.8284274 2.8284274 L 2.8284274 -2.8284274 "/>
<path transform="matrix(.75,0,0,.75,56.25,187.17858)" stroke-width=".666667" stroke-linecap="butt" stroke-miterlimit="10" stroke-linejoin="miter" fill="none" stroke="#3366cc" d="M -2.8284274 -2.8284274 L 2.8284274 2.8284274 M -2.8284274 2.8284274 L 2.8284274 -2.8284274 "/>
<path transform="matrix(.75,0,0,.75,77.15625,179.6203)" stroke-width=".666667" stroke-linecap="butt" stroke-miterlimit="10" stroke-linejoin="miter" fill="none" stroke="#3366cc" d="M -2.8284274 -2.8284274 L 2.8284274 2.8284274 M -2.8284274 2.8284274 L 2.8284274 -2.8284274 "/>
<path transform="matrix(.75,0,0,.75,98.0625,171.68611)" stroke-width=".666667" stroke-linecap="butt" stroke-miterlimit="10" stroke-linejoin="miter" fill="none" stroke="#3366cc" d="M -2.8284274 -2.8284274 L 2.8284274 2.8284274 M -2.8284274 2.8284274 L 2.8284274 -2.8284274 "/>
<path transform="matrix(.75,0,0,.75,118.96875,173.76528)" stroke-width=".666667" stroke-linecap="butt" stroke-miterlimit="10" stroke-linejoin="miter" fill="none" stroke="#3366cc" d="M -2.8284274 -2.8284274 L 2.8284274 2.8284274 M -2.8284274 2.8284274 L 2.8284274 -2.8284274 "/>
<path transform="matrix(.75,0,0,.75,139.875,173.82541)" stroke-width=".666667" stroke-linecap="butt" stroke-miterlimit="10" stroke-linejoin="miter" fill="none" stroke="#3366cc" d="M -2.8284274 -2.8284274 L 2.8284274 2.8284274 M -2.8284274 2.8284274 L 2.8284274 -2.8284274 "/>
<path transform="matrix(.75,0,0,.75,160.78125,167.38301)" stroke-width=".666667" stroke-linecap="butt" stroke-miterlimit="10" stroke-linejoin="miter" fill="none" stroke="#3366cc" d="M -2.8284274 -2.8284274 L 2.8284274 2.8284274 M -2.8284274 2.8284274 L 2.8284274 -2.8284274 "/>
<path transform="matrix(.75,0,0,.75,181.6875,178.73627)" stroke-width=".666667" stroke-linecap="butt" stroke-miterlimit="10" stroke-linejoin="miter" fill="none" stroke="#3366cc" d="M -2.8284274 -2.8284274 L 2.8284274 2.8284274 M -2.8284274 2.8284274 L 2.8284274 -2.8284274 "/>
<path transform="matrix(.75,0,0,.75,223.5,154.59976)" stroke-width=".666667" stroke-linecap="butt" stroke-miterlimit="10" stroke-linejoin="miter" fill="none" stroke="#3366cc" d="M -2.8284274 -2.8284274 L 2.8284274 2.8284274 M -2.8284274 2.8284274 L 2.8284274 -2.8284274 "/>
<path transform="matrix(.75,0,0,.75,265.3125,172.82865)" stroke-width=".666667" stroke-linecap="butt" stroke-miterlimit="10" stroke-linejoin="miter" fill="none" stroke="#3366cc" d="M -2.8284274 -2.8284274 L 2.8284274 2.8284274 M -2.8284274 2.8284274 L 2.8284274 -2.8284274 "/>
<path transform="matrix(.75,0,0,.75,307.125,158.40465)" stroke-width=".666667" stroke-linecap="butt" stroke-miterlimit="10" stroke-linejoin="miter" fill="none" stroke="#3366cc" d="M -2.8284274 -2.8284274 L 2.8284274 2.8284274 M -2.8284274 2.8284274 L 2.8284274 -2.8284274 "/>
<path transform="matrix(.75,0,0,.75,348.9375,145.45334)" stroke-width=".666667" stroke-linecap="butt" stroke-miterlimit="10" stroke-linejoin="miter" fill="none" stroke="#3366cc" d="M -2.8284274 -2.8284274 L 2.8284274 2.8284274 M -2.8284274 2.8284274 L 2.8284274 -2.8284274 "/>
<path transform="matrix(.75,0,0,.75,390.75,166.8607)" stroke-width=".666667" stroke-linecap="butt" stroke-miterlimit="10" stroke-linejoin="miter" fill="none" stroke="#3366cc" d="M -2.8284274 -2.8284274 L 2.8284274 2.8284274 M -2.8284274 2.8284274 L 2.8284274 -2.8284274 "/>
<path transform="matrix(.75,0,0,.75,56.25,187.17858)" stroke-width=".666667" stroke-linecap="butt" stroke-miterlimit="10" stroke-linejoin="miter" fill="none" stroke="#3366cc" d="M -2.8284274 -2.8284274 L 2.8284274 2.8284274 M -2.8284274 2.8284274 L 2.8284274 -2.8284274 "/>
<path transform="matrix(.75,0,0,.75,77.15625,180.04575)" stroke-width=".666667" stroke-linecap="butt" stroke-miterlimit="10" stroke-linejoin="miter" fill="none" stroke="#3366cc" d="M -2.8284274 -2.8284274 L 2.8284274 2.8284274 M -2.8284274 2.8284274 L 2.8284274 -2.8284274 "/>
<path transform="matrix(.75,0,0,.75,98.0625,173.4843)" stroke-width=".666667" stroke-linecap="butt" stroke-miterlimit="10" stroke-linejoin="miter" fill="none" stroke="#3366cc" d="M -2.8284274 -2.8284274 L 2.8284274 2.8284274 M -2.8284274 2.8284274 L 2.8284274 -2.8284274 "/>
<path transform="matrix(.75,0,0,.75,118.96875,173.22612)" stroke-width=".666667" stroke-linecap="butt" stroke-miterlimit="10" stroke-linejoin="miter" fill="none" stroke="#3366cc" d="M -2.8284274 -2.8284274 L 2.8284274 2.8284274 M -2.8284274 2.8284274 L 2.8284274 -2.8284274 "/>
<path transform="matrix(.75,0,0,.75,139.875,170.75852)" stroke-width=".666667" stroke-linecap="butt" stroke-miterlimit="10" stroke-linejoin="miter" fill="none" stroke="#3366cc" d="M -2.8284274 -2.8284274 L 2.8284274 2.8284274 M -2.8284274 2.8284274 L 2.8284274 -2.8284274 "/>
<path transform="matrix(.75,0,0,.75,160.78125,168.31337)" stroke-width=".666667" stroke-linecap="butt" stroke-miterlimit="10" stroke-linejoin="miter" fill="none" stroke="#3366cc" d="M -2.8284274 -2.8284274 L 2.8284274 2.8284274 M -2.8284274 2.8284274 L 2.8284274 -2.8284274 "/>
<path transform="matrix(.75,0,0,.75,181.6875,179.44376)" stroke-width=".666667" stroke-linecap="butt" stroke-miterlimit="10" stroke-linejoin="miter" fill="none" stroke="#3366cc" d="M -2.8284274 -2.8284274 L 2.8284274 2.8284274 M -2.8284274 2.8284274 L 2.8284274 -2.8284274 "/>
<path transform="matrix(.75,0,0,.75,223.5,154.59976)" stroke-width=".666667" stroke-linecap="butt" stroke-miterlimit="10" stroke-linejoin="miter" fill="none" stroke="#3366cc" d="M -2.8284274 -2.8284274 L 2.8284274 2.8284274 M -2.8284274 2.8284274 L 2.8284274 -2.8284274 "/>
<path transform="matrix(.75,0,0,.75,265.3125,170.7972)" stroke-width=".666667" stroke-linecap="butt" stroke-miterlimit="10" stroke-linejoin="miter" fill="none" stroke="#3366cc" d="M -2.8284274 -2.8284274 L 2.8284274 2.8284274 M -2.8284274 2.8284274 L 2.8284274 -2.8284274 "/>
<path transform="matrix(.75,0,0,.75,307.125,135.88014)" stroke-width=".666667" stroke-linecap="butt" stroke-miterlimit="10" stroke-linejoin="miter" fill="none" stroke="#3366cc" d="M -2.8284274 -2.8284274 L 2.8284274 2.8284274 M -2.8284274 2.8284274 L 2.8284274 -2.8284274 "/>
<path transform="matrix(.75,0,0,.75,348.9375,157.38988)" stroke-width=".666667" stroke-linecap="butt" stroke-miterlimit="10" stroke-linejoin="miter" fill="none" stroke="#3366cc" d="M -2.8284274 -2.8284274 L 2.8284274 2.8284274 M -2.8284274 2.8284274 L 2.8284274 -2.8284274 "/>
<path transform="matrix(.75,0,0,.75,390.75,157.66568)" stroke-width=".666667" stroke-linecap="butt" stroke-miterlimit="10" stroke-linejoin="miter" fill="none" stroke="#3366cc" d="M -2.8284274 -2.8284274 L 2.8284274 2.8284274 M -2.8284274 2.8284274 L 2.8284274 -2.8284274 "/>
<path transform="matrix(.75,0,0,.75,56.25,187.17858)" stroke-width=".666667" stroke-linecap="butt" stroke-miterlimit="10" stroke-linejoin="miter" fill="none" stroke="#3366cc" d="M -2.8284274 -2.8284274 L 2.8284274 2.8284274 M -2.8284274 2.8284274 L 2.8284274 -2.8284274 "/>
<path transform="matrix(.75,0,0,.75,77.15625,181.07387)" stroke-width=".666667" stroke-linecap="butt" stroke-miterlimit="10" stroke-linejoin="miter" fill="none" stroke="#3366cc" d="M -2.8284274 -2.8284274 L 2.8284274 2.8284274 M -2.8284274 2.8284274 L 2.8284274 -2.8284274 "/>
<path transform="matrix(.75,0,0,.75,98.0625,171.47765)" stroke-width=".666667" stroke-linecap="butt" stroke-miterlimit="10" stroke-linejoin="miter" fill="none" stroke="#3366cc" d="M -2.8284274 -2.8284274 L 2.8284274 2.8284274 M -2.8284274 2.8284274 L 2.8284274 -2.8284274 "/>
<path transform="matrix(.75,0,0,.75,118.96875,173.4239)" stroke-width=".666667" stroke-linecap="butt" stroke-miterlimit="10" stroke-linejoin="miter" fill="none" stroke="#3366cc" d="M -2.8284274 -2.8284274 L 2.8284274 2.8284274 M -2.8284274 2.8284274 L 2.8284274 -2.8284274 "/>
<path transform="matrix(.75,0,0,.75,139.875,171.94313)" stroke-width=".666667" stroke-linecap="butt" stroke-miterlimit="10" stroke-linejoin="miter" fill="none" stroke="#3366cc" d="M -2.8284274 -2.8284274 L 2.8284274 2.8284274 M -2.8284274 2.8284274 L 2.8284274 -2.8284274 "/>
<path transform="matrix(.75,0,0,.75,160.78125,172.73896)" stroke-width=".666667" stroke-linecap="butt" stroke-miterlimit="10" stroke-linejoin="miter" fill="none" stroke="#3366cc" d="M -2.8284274 -2.8284274 L 2.8284274 2.8284274 M -2.8284274 2.8284274 L 2.8284274 -2.8284274 "/>
<path transform="matrix(.75,0,0,.75,181.6875,169.72863)" stroke-width=".666667" stroke-linecap="butt" stroke-miterlimit="10" stroke-linejoin="miter" fill="none" stroke="#3366cc" d="M -2.8284274 -2.8284274 L 2.8284274 2.8284274 M -2.8284274 2.8284274 L 2.8284274 -2.8284274 "/>
<path transform="matrix(.75,0,0,.75,223.5,154.59976)" stroke-width=".666667" stroke-linecap="butt" stroke-miterlimit="10" stroke-linejoin="miter" fill="none" stroke="#3366cc" d="M -2.8284274 -2.8284274 L 2.8284274 2.8284274 M -2.8284274 2.8284274 L 2.8284274 -2.8284274 "/>
<path transform="matrix(.75,0,0,.75,265.3125,178.94748)" stroke-width=".666667" stroke-linecap="butt" stroke-miterlimit="10" stroke-linejoin="miter" fill="none" stroke="#3366cc" d="M -2.8284274 -2.8284274 L 2.8284274 2.8284274 M -2.8284274 2.8284274 L 2.8284274 -2.8284274 "/>
<path transform="matrix(.75,0,0,.75,307.125,155.77695)" stroke-width=".666667" stroke-linecap="butt" stroke-miterlimit="10" stroke-linejoin="miter" fill="none" stroke="#3366cc" d="M -2.8284274 -2.8284274 L 2.8284274 2.8284274 M -2.8284274 2.8284274 L 2.8284274 -2.8284274 "/>
<path transform="matrix(.75,0,0,.75,348.9375,148.90917)" stroke-width=".666667" stroke-linecap="butt" stroke-miterlimit="10" stroke-linejoin="miter" fill="none" stroke="#3366cc" d="M -2.8284274 -2.8284274 L 2.8284274 2.8284274 M -2.8284274 2.8284274 L 2.8284274 -2.8284274 "/>
<path transform="matrix(.75,0,0,.75,390.75,128.11454)" stroke-width=".666667" stroke-linecap="butt" stroke-miterlimit="10" stroke-linejoin="miter" fill="none" stroke="#3366cc" d="M -2.8284274 -2.8284274 L 2.8284274 2.8284274 M -2.8284274 2.8284274 L 2.8284274 -2.8284274 "/>
<path transform="matrix(.75,0,0,.75,56.25,187.17858)" stroke-width=".666667" stroke-linecap="butt" stroke-miterlimit="10" stroke-linejoin="miter" fill="none" stroke="#3366cc" d="M -2.8284274 -2.8284274 L 2.8284274 2.8284274 M -2.8284274 2.8284274 L 2.8284274 -2.8284274 "/>
<path transform="matrix(.75,0,0,.75,77.15625,180.02828)" stroke-width=".666667" stroke-linecap="butt" stroke-miterlimit="10" stroke-linejoin="miter" fill="none" stroke="#3366cc" d="M -2.8284274 -2.8284274 L 2.8284274 2.8284274 M -2.8284274 2.8284274 L 2.8284274 -2.8284274 "/>
<path transform="matrix(.75,0,0,.75,98.0625,176.18071)" stroke-width=".666667" stroke-linecap="butt" stroke-miterlimit="10" stroke-linejoin="miter" fill="none" stroke="#3366cc" d="M -2.8284274 -2.8284274 L 2.8284274 2.8284274 M -2.8284274 2.8284274 L 2.8284274 -2.8284274 "/>
<path transform="matrix(.75,0,0,.75,118.96875,173.3431)" stroke-width=".666667" stroke-linecap="butt" stroke-miterlimit="10" stroke-linejoin="miter" fill="none" stroke="#3366cc" d="M -2.8284274 -2.8284274 L 2.8284274 2.8284274 M -2.8284274 2.8284274 L 2.8284274 -2.8284274 "/>
<path transform="matrix(.75,0,0,.75,139.875,171.85378)" stroke-width=".666667" stroke-linecap="butt" stroke-miterlimit="10" stroke-linejoin="miter" fill="none" stroke="#3366cc" d="M -2.8284274 -2.8284274 L 2.8284274 2.8284274 M -2.8284274 2.8284274 L 2.8284274 -2.8284274 "/>
<path transform="matrix(.75,0,0,.75,160.78125,167.5619)" stroke-width=".666667" stroke-linecap="butt" stroke-miterlimit="10" stroke-linejoin="miter" fill="none" stroke="#3366cc" d="M -2.8284274 -2.8284274 L 2.8284274 2.8284274 M -2.8284274 2.8284274 L 2.8284274 -2.8284274 "/>
<path transform="matrix(.75,0,0,.75,181.6875,157.27324)" stroke-width=".666667" stroke-linecap="butt" stroke-miterlimit="10" stroke-linejoin="miter" fill="none" stroke="#3366cc" d="M -2.8284274 -2.8284274 L 2.8284274 2.8284274 M -2.8284274 2.8284274 L 2.8284274 -2.8284274 "/>
<path transform="matrix(.75,0,0,.75,223.5,173.86489)" stroke-width=".666667" stroke-linecap="butt" stroke-miterlimit="10" stroke-linejoin="miter" fill="none" stroke="#3366cc" d="M -2.8284274 -2.8284274 L 2.8284274 2.8284274 M -2.8284274 2.8284274 L 2.8284274 -2.8284274 "/>
<path transform="matrix(.75,0,0,.75,265.3125,158.33277)" stroke-width=".666667" stroke-linecap="butt" stroke-miterlimit="10" stroke-linejoin="miter" fill="none" stroke="#3366cc" d="M -2.8284274 -2.8284274 L 2.8284274 2.8284274 M -2.8284274 2.8284274 L 2.8284274 -2.8284274 "/>
<path transform="matrix(.75,0,0,.75,307.125,147.03183)" stroke-width=".666667" stroke-linecap="butt" stroke-miterlimit="10" stroke-linejoin="miter" fill="none" stroke="#3366cc" d="M -2.8284274 -2.8284274 L 2.8284274 2.8284274 M -2.8284274 2.8284274 L 2.8284274 -2.8284274 "/>
<path transform="matrix(.75,0,0,.75,348.9375,153.79044)" stroke-width=".666667" stroke-linecap="butt" stroke-miterlimit="10" stroke-linejoin="miter" fill="none" stroke="#3366cc" d="M -2.8284274 -2.8284274 L 2.8284274 2.8284274 M -2.8284274 2.8284274 L 2.8284274 -2.8284274 "/>
<path transform="matrix(.75,0,0,.75,390.75,157.72135)" stroke-width=".666667" stroke-linecap="butt" stroke-miterlimit="10" stroke-linejoin="miter" fill="none" stroke="#3366cc" d="M -2.8284274 -2.8284274 L 2.8284274 2.8284274 M -2.8284274 2.8284274 L 2.8284274 -2.8284274 "/>
<path transform="matrix(.75,0,0,.75,56.25,187.17858)" stroke-width=".666667" stroke-linecap="butt" stroke-miterlimit="10" stroke-linejoin="miter" fill="none" stroke="#3366cc" d="M -2.8284274 -2.8284274 L 2.8284274 2.8284274 M -2.8284274 2.8284274 L 2.8284274 -2.8284274 "/>
<path transform="matrix(.75,0,0,.75,77.15625,182.09754)" stroke-width=".666667" stroke-linecap="butt" stroke-miterlimit="10" stroke-linejoin="miter" fill="none" stroke="#3366cc" d="M -2.8284274 -2.8284274 L 2.8284274 2.8284274 M -2.8284274 2.8284274 L 2.8284274 -2.8284274 "/>
<path transform="matrix(.75,0,0,.75,98.0625,174.19777)" stroke-width=".666667" stroke-linecap="butt" stroke-miterlimit="10" stroke-linejoin="miter" fill="none" stroke="#3366cc" d="M -2.8284274 -2.8284274 L 2.8284274 2.8284274 M -2.8284274 2.8284274 L 2.8284274 -2.8284274 "/>
<path transform="matrix(.75,0,0,.75,118.96875,173.10655)" stroke-width=".666667" stroke-linecap="butt" stroke-miterlimit="10" stroke-linejoin="miter" fill="none" stroke="#3366cc" d="M -2.8284274 -2.8284274 L 2.8284274 2.8284274 M -2.8284274 2.8284274 L 2.8284274 -2.8284274 "/>
<path transform="matrix(.75,0,0,.75,139.875,169.26512)" stroke-width=".666667" stroke-linecap="butt" stroke-miterlimit="10" stroke-linejoin="miter" fill="none" stroke="#3366cc" d="M -2.8284274 -2.8284274 L 2.8284274 2.8284274 M -2.8284274 2.8284274 L 2.8284274 -2.8284274 "/>
<path transform="matrix(.75,0,0,.75,160.78125,169.9338)" stroke-width=".666667" stroke-linecap="butt" stroke-miterlimit="10" stroke-linejoin="miter" fill="none" stroke="#3366cc" d="M -2.8284274 -2.8284274 L 2.8284274 2.8284274 M -2.8284274 2.8284274 L 2.8284274 -2.8284274 "/>
<path transform="matrix(.75,0,0,.75,181.6875,170.82892)" stroke-width=".666667" stroke-linecap="butt" stroke-miterlimit="10" stroke-linejoin="miter" fill="none" stroke="#3366cc" d="M -2.8284274 -2.8284274 L 2.8284274 2.8284274 M -2.8284274 2.8284274 L 2.8284274 -2.8284274 "/>
<path transform="matrix(.75,0,0,.75,223.5,157.73705)" stroke-width=".666667" stroke-linecap="butt" stroke-miterlimit="10" stroke-linejoin="miter" fill="none" stroke="#3366cc" d="M -2.8284274 -2.8284274 L 2.8284274 2.8284274 M -2.8284274 2.8284274 L 2.8284274 -2.8284274 "/>
<path transform="matrix(.75,0,0,.75,265.3125,167.8862)" stroke-width=".666667" stroke-linecap="butt" stroke-miterlimit="10" stroke-linejoin="miter" fill="none" stroke="#3366cc" d="M -2.8284274 -2.8284274 L 2.8284274 2.8284274 M -2.8284274 2.8284274 L 2.8284274 -2.8284274 "/>
<path transform="matrix(.75,0,0,.75,307.125,165.27169)" stroke-width=".666667" stroke-linecap="butt" stroke-miterlimit="10" stroke-linejoin="miter" fill="none" stroke="#3366cc" d="M -2.8284274 -2.8284274 L 2.8284274 2.8284274 M -2.8284274 2.8284274 L 2.8284274 -2.8284274 "/>
<path transform="matrix(.75,0,0,.75,348.9375,144.12142)" stroke-width=".666667" stroke-linecap="butt" stroke-miterlimit="10" stroke-linejoin="miter" fill="none" stroke="#3366cc" d="M -2.8284274 -2.8284274 L 2.8284274 2.8284274 M -2.8284274 2.8284274 L 2.8284274 -2.8284274 "/>
<path transform="matrix(.75,0,0,.75,390.75,154.01767)" stroke-width=".666667" stroke-linecap="butt" stroke-miterlimit="10" stroke-linejoin="miter" fill="none" stroke="#3366cc" d="M -2.8284274 -2.8284274 L 2.8284274 2.8284274 M -2.8284274 2.8284274 L 2.8284274 -2.8284274 "/>
<path transform="matrix(.75,0,0,.75,56.25,187.17858)" stroke-width=".666667" stroke-linecap="butt" stroke-miterlimit="10" stroke-linejoin="miter" fill="none" stroke="#3366cc" d="M -2.8284274 -2.8284274 L 2.8284274 2.8284274 M -2.8284274 2.8284274 L 2.8284274 -2.8284274 "/>
<path transform="matrix(.75,0,0,.75,77.15625,180.08782)" stroke-width=".666667" stroke-linecap="butt" stroke-miterlimit="10" stroke-linejoin="miter" fill="none" stroke="#3366cc" d="M -2.8284274 -2.8284274 L 2.8284274 2.8284274 M -2.8284274 2.8284274 L 2.8284274 -2.8284274 "/>
<path transform="matrix(.75,0,0,.75,98.0625,176.57741)" stroke-width=".666667" stroke-linecap="butt" stroke-miterlimit="10" stroke-linejoin="miter" fill="none" stroke="#3366cc" d="M -2.8284274 -2.8284274 L 2.8284274 2.8284274 M -2.8284274 2.8284274 L 2.8284274 -2.8284274 "/>
<path transform="matrix(.75,0,0,.75,118.96875,170.82909)" stroke-width=".666667" stroke-linecap="butt" stroke-miterlimit="10" stroke-linejoin="miter" fill="none" stroke="#3366cc" d="M -2.8284274 -2.8284274 L 2.8284274 2.8284274 M -2.8284274 2.8284274 L 2.8284274 -2.8284274 "/>
<path transform="matrix(.75,0,0,.75,139.875,170.7966)" stroke-width=".666667" stroke-linecap="butt" stroke-miterlimit="10" stroke-linejoin="miter" fill="none" stroke="#3366cc" d="M -2.8284274 -2.8284274 L 2.8284274 2.8284274 M -2.8284274 2.8284274 L 2.8284274 -2.8284274 "/>
<path transform="matrix(.75,0,0,.75,160.78125,163.37899)" stroke-width=".666667" stroke-linecap="butt" stroke-miterlimit="10" stroke-linejoin="miter" fill="none" stroke="#3366cc" d="M -2.8284274 -2.8284274 L 2.8284274 2.8284274 M -2.8284274 2.8284274 L 2.8284274 -2.8284274 "/>
<path transform="matrix(.75,0,0,.75,181.6875,180.25153)" stroke-width=".666667" stroke-linecap="butt" stroke-miterlimit="10" stroke-linejoin="miter" fill="none" stroke="#3366cc" d="M -2.8284274 -2.8284274 L 2.8284274 2.8284274 M -2.8284274 2.8284274 L 2.8284274 -2.8284274 "/>
<path transform="matrix(.75,0,0,.75,223.5,153.68675)" stroke-width=".666667" stroke-linecap="butt" stroke-miterlimit="10" stroke-linejoin="miter" fill="none" stroke="#3366cc" d="M -2.8284274 -2.8284274 L 2.8284274 2.8284274 M -2.8284274 2.8284274 L 2.8284274 -2.8284274 "/>
<path transform="matrix(.75,0,0,.75,265.3125,169.3691)" stroke-width=".666667" stroke-linecap="butt" stroke-miterlimit="10" stroke-linejoin="miter" fill="none" stroke="#3366cc" d="M -2.8284274 -2.8284274 L 2.8284274 2.8284274 M -2.8284274 2.8284274 L 2.8284274 -2.8284274 "/>
<path transform="matrix(.75,0,0,.75,307.125,171.39957)" stroke-width=".666667" stroke-linecap="butt" stroke-miterlimit="10" stroke-linejoin="miter" fill="none" stroke="#3366cc" d="M -2.8284274 -2.8284274 L 2.8284274 2.8284274 M -2.8284274 2.8284274 L 2.8284274 -2.8284274 "/>
<path transform="matrix(.75,0,0,.75,348.9375,150.21425)" stroke-width=".666667" stroke-linecap="butt" stroke-miterlimit="10" stroke-linejoin="miter" fill="none" stroke="#3366cc" d="M -2.8284274 -2.8284274 L 2.8284274 2.8284274 M -2.8284274 2.8284274 L 2.8284274 -2.8284274 "/>
<path transform="matrix(.75,0,0,.75,390.75,143.71347)" stroke-width=".666667" stroke-linecap="butt" stroke-miterlimit="10" stroke-linejoin="miter" fill="none" stroke="#3366cc" d="M -2.8284274 -2.8284274 L 2.8284274 2.8284274 M -2.8284274 2.8284274 L 2.8284274 -2.8284274 "/>
<path transform="matrix(.75,0,0,.75,56.25,187.17858)" stroke-width=".666667" stroke-linecap="butt" stroke-miterlimit="10" stroke-linejoin="miter" fill="none" stroke="#3366cc" d="M -2.8284274 -2.8284274 L 2.8284274 2.8284274 M -2.8284274 2.8284274 L 2.8284274 -2.8284274 "/>
<path transform="matrix(.75,0,0,.75,77.15625,180.23378)" stroke-width=".666667" stroke-linecap="butt" stroke-miterlimit="10" stroke-linejoin="miter" fill="none" stroke="#3366cc" d="M -2.8284274 -2.8284274 L 2.8284274 2.8284274 M -2.8284274 2.8284274 L 2.8284274 -2.8284274 "/>
<path transform="matrix(.75,0,0,.75,98.0625,175.57019)" stroke-width=".666667" stroke-linecap="butt" stroke-miterlimit="10" stroke-linejoin="miter" fill="none" stroke="#3366cc" d="M -2.8284274 -2.8284274 L 2.8284274 2.8284274 M -2.8284274 2.8284274 L 2.8284274 -2.8284274 "/>
<path transform="matrix(.75,0,0,.75,118.96875,174.52623)" stroke-width=".666667" stroke-linecap="butt" stroke-miterlimit="10" stroke-linejoin="miter" fill="none" stroke="#3366cc" d="M -2.8284274 -2.8284274 L 2.8284274 2.8284274 M -2.8284274 2.8284274 L 2.8284274 -2.8284274 "/>
<path transform="matrix(.75,0,0,.75,139.875,169.85059)" stroke-width=".666667" stroke-linecap="butt" stroke-miterlimit="10" stroke-linejoin="miter" fill="none" stroke="#3366cc" d="M -2.8284274 -2.8284274 L 2.8284274 2.8284274 M -2.8284274 2.8284274 L 2.8284274 -2.8284274 "/>
<path transform="matrix(.75,0,0,.75,160.78125,168.96843)" stroke-width=".666667" stroke-linecap="butt" stroke-miterlimit="10" stroke-linejoin="miter" fill="none" stroke="#3366cc" d="M -2.8284274 -2.8284274 L 2.8284274 2.8284274 M -2.8284274 2.8284274 L 2.8284274 -2.8284274 "/>
<path transform="matrix(.75,0,0,.75,181.6875,158.90157)" stroke-width=".666667" stroke-linecap="butt" stroke-miterlimit="10" stroke-linejoin="miter" fill="none" stroke="#3366cc" d="M -2.8284274 -2.8284274 L 2.8284274 2.8284274 M -2.8284274 2.8284274 L 2.8284274 -2.8284274 "/>
<path transform="matrix(.75,0,0,.75,223.5,171.06438)" stroke-width=".666667" stroke-linecap="butt" stroke-miterlimit="10" stroke-linejoin="miter" fill="none" stroke="#3366cc" d="M -2.8284274 -2.8284274 L 2.8284274 2.8284274 M -2.8284274 2.8284274 L 2.8284274 -2.8284274 "/>
<path transform="matrix(.75,0,0,.75,265.3125,173.18379)" stroke-width=".666667" stroke-linecap="butt" stroke-miterlimit="10" stroke-linejoin="miter" fill="none" stroke="#3366cc" d="M -2.8284274 -2.8284274 L 2.8284274 2.8284274 M -2.8284274 2.8284274 L 2.8284274 -2.8284274 "/>
<path transform="matrix(.75,0,0,.75,307.125,156.54988)" stroke-width=".666667" stroke-linecap="butt" stroke-miterlimit="10" stroke-linejoin="miter" fill="none" stroke="#3366cc" d="M -2.8284274 -2.8284274 L 2.8284274 2.8284274 M -2.8284274 2.8284274 L 2.8284274 -2.8284274 "/>
<path transform="matrix(.75,0,0,.75,348.9375,165.60245)" stroke-width=".666667" stroke-linecap="butt" stroke-miterlimit="10" stroke-linejoin="miter" fill="none" stroke="#3366cc" d="M -2.8284274 -2.8284274 L 2.8284274 2.8284274 M -2.8284274 2.8284274 L 2.8284274 -2.8284274 "/>
<path transform="matrix(.75,0,0,.75,390.75,139.361)" stroke-width=".666667" stroke-linecap="butt" stroke-miterlimit="10" stroke-linejoin="miter" fill="none" stroke="#3366cc" d="M -2.8284274 -2.8284274 L 2.8284274 2.8284274 M -2.8284274 2.8284274 L 2.8284274 -2.8284274 "/>
<path transform="matrix(.75,0,0,.75,56.25,35.241785)" stroke-width=".666667" stroke-linecap="butt" stroke-miterlimit="10" stroke-linejoin="miter" fill="none" stroke="#dc3912" d="M -2.8284274 -2.8284274 L 2.8284274 2.8284274 M -2.8284274 2.8284274 L 2.8284274 -2.8284274 "/>
<path transform="matrix(.75,0,0,.75,98.0625,148.31801)" stroke-width=".666667" stroke-linecap="butt" stroke-miterlimit="10" stroke-linejoin="miter" fill="none" stroke="#dc3912" d="M -2.8284274 -2.8284274 L 2.8284274 2.8284274 M -2.8284274 2.8284274 L 2.8284274 -2.8284274 "/>
<path transform="matrix(.75,0,0,.75,139.875,161.15557)" stroke-width=".666667" stroke-linecap="butt" stroke-miterlimit="10" stroke-linejoin="miter" fill="none" stroke="#dc3912" d="M -2.8284274 -2.8284274 L 2.8284274 2.8284274 M -2.8284274 2.8284274 L 2.8284274 -2.8284274 "/>
<path transform="matrix(.75,0,0,.75,181.6875,173.08907)" stroke-width=".666667" stroke-linecap="butt" stroke-miterlimit="10" stroke-linejoin="miter" fill="none" stroke="#dc3912" d="M -2.8284274 -2.8284274 L 2.8284274 2.8284274 M -2.8284274 2.8284274 L 2.8284274 -2.8284274 "/>
<path transform="matrix(.75,0,0,.75,223.5,183.55225)" stroke-width=".666667" stroke-linecap="butt" stroke-miterlimit="10" stroke-linejoin="miter" fill="none" stroke="#dc3912" d="M -2.8284274 -2.8284274 L 2.8284274 2.8284274 M -2.8284274 2.8284274 L 2.8284274 -2.8284274 "/>
<path transform="matrix(.75,0,0,.75,265.3125,180.8917)" stroke-width=".666667" stroke-linecap="butt" stroke-miterlimit="10" stroke-linejoin="miter" fill="none" stroke="#dc3912" d="M -2.8284274 -2.8284274 L 2.8284274 2.8284274 M -2.8284274 2.8284274 L 2.8284274 -2.8284274 "/>
<path transform="matrix(.75,0,0,.75,307.125,184.13913)" stroke-width=".666667" stroke-linecap="butt" stroke-miterlimit="10" stroke-linejoin="miter" fill="none" stroke="#dc3912" d="M -2.8284274 -2.8284274 L 2.8284274 2.8284274 M -2.8284274 2.8284274 L 2.8284274 -2.8284274 "/>
<path transform="matrix(.75,0,0,.75,348.9375,180.87532)" stroke-width=".666667" stroke-linecap="butt" stroke-miterlimit="10" stroke-linejoin="miter" fill="none" stroke="#dc3912" d="M -2.8284274 -2.8284274 L 2.8284274 2.8284274 M -2.8284274 2.8284274 L 2.8284274 -2.8284274 "/>
<path transform="matrix(.75,0,0,.75,390.75,144.90288)" stroke-width=".666667" stroke-linecap="butt" stroke-miterlimit="10" stroke-linejoin="miter" fill="none" stroke="#dc3912" d="M -2.8284274 -2.8284274 L 2.8284274 2.8284274 M -2.8284274 2.8284274 L 2.8284274 -2.8284274 "/>
<path transform="matrix(.75,0,0,.75,56.25,35.241785)" stroke-width=".666667" stroke-linecap="butt" stroke-miterlimit="10" stroke-linejoin="miter" fill="none" stroke="#dc3912" d="M -2.8284274 -2.8284274 L 2.8284274 2.8284274 M -2.8284274 2.8284274 L 2.8284274 -2.8284274 "/>
<path transform="matrix(.75,0,0,.75,98.0625,135.06792)" stroke-width=".666667" stroke-linecap="butt" stroke-miterlimit="10" stroke-linejoin="miter" fill="none" stroke="#dc3912" d="M -2.8284274 -2.8284274 L 2.8284274 2.8284274 M -2.8284274 2.8284274 L 2.8284274 -2.8284274 "/>
<path transform="matrix(.75,0,0,.75,139.875,160.40193)" stroke-width=".666667" stroke-linecap="butt" stroke-miterlimit="10" stroke-linejoin="miter" fill="none" stroke="#dc3912" d="M -2.8284274 -2.8284274 L 2.8284274 2.8284274 M -2.8284274 2.8284274 L 2.8284274 -2.8284274 "/>
<path transform="matrix(.75,0,0,.75,181.6875,169.64566)" stroke-width=".666667" stroke-linecap="butt" stroke-miterlimit="10" stroke-linejoin="miter" fill="none" stroke="#dc3912" d="M -2.8284274 -2.8284274 L 2.8284274 2.8284274 M -2.8284274 2.8284274 L 2.8284274 -2.8284274 "/>
<path transform="matrix(.75,0,0,.75,223.5,182.8728)" stroke-width=".666667" stroke-linecap="butt" stroke-miterlimit="10" stroke-linejoin="miter" fill="none" stroke="#dc3912" d="M -2.8284274 -2.8284274 L 2.8284274 2.8284274 M -2.8284274 2.8284274 L 2.8284274 -2.8284274 "/>
<path transform="matrix(.75,0,0,.75,265.3125,187.35684)" stroke-width=".666667" stroke-linecap="butt" stroke-miterlimit="10" stroke-linejoin="miter" fill="none" stroke="#dc3912" d="M -2.8284274 -2.8284274 L 2.8284274 2.8284274 M -2.8284274 2.8284274 L 2.8284274 -2.8284274 "/>
<path transform="matrix(.75,0,0,.75,307.125,184.81728)" stroke-width=".666667" stroke-linecap="butt" stroke-miterlimit="10" stroke-linejoin="miter" fill="none" stroke="#dc3912" d="M -2.8284274 -2.8284274 L 2.8284274 2.8284274 M -2.8284274 2.8284274 L 2.8284274 -2.8284274 "/>
<path transform="matrix(.75,0,0,.75,348.9375,161.4454)" stroke-width=".666667" stroke-linecap="butt" stroke-miterlimit="10" stroke-linejoin="miter" fill="none" stroke="#dc3912" d="M -2.8284274 -2.8284274 L 2.8284274 2.8284274 M -2.8284274 2.8284274 L 2.8284274 -2.8284274 "/>
<path transform="matrix(.75,0,0,.75,390.75,185.01006)" stroke-width=".666667" stroke-linecap="butt" stroke-miterlimit="10" stroke-linejoin="miter" fill="none" stroke="#dc3912" d="M -2.8284274 -2.8284274 L 2.8284274 2.8284274 M -2.8284274 2.8284274 L 2.8284274 -2.8284274 "/>
<path transform="matrix(.75,0,0,.75,56.25,35.241785)" stroke-width=".666667" stroke-linecap="butt" stroke-miterlimit="10" stroke-linejoin="miter" fill="none" stroke="#dc3912" d="M -2.8284274 -2.8284274 L 2.8284274 2.8284274 M -2.8284274 2.8284274 L 2.8284274 -2.8284274 "/>
<path transform="matrix(.75,0,0,.75,98.0625,142.05599)" stroke-width=".666667" stroke-linecap="butt" stroke-miterlimit="10" stroke-linejoin="miter" fill="none" stroke="#dc3912" d="M -2.8284274 -2.8284274 L 2.8284274 2.8284274 M -2.8284274 2.8284274 L 2.8284274 -2.8284274 "/>
<path transform="matrix(.75,0,0,.75,139.875,161.58075)" stroke-width=".666667" stroke-linecap="butt" stroke-miterlimit="10" stroke-linejoin="miter" fill="none" stroke="#dc3912" d="M -2.8284274 -2.8284274 L 2.8284274 2.8284274 M -2.8284274 2.8284274 L 2.8284274 -2.8284274 "/>
<path transform="matrix(.75,0,0,.75,181.6875,173.01152)" stroke-width=".666667" stroke-linecap="butt" stroke-miterlimit="10" stroke-linejoin="miter" fill="none" stroke="#dc3912" d="M -2.8284274 -2.8284274 L 2.8284274 2.8284274 M -2.8284274 2.8284274 L 2.8284274 -2.8284274 "/>
<path transform="matrix(.75,0,0,.75,223.5,167.49669)" stroke-width=".666667" stroke-linecap="butt" stroke-miterlimit="10" stroke-linejoin="miter" fill="none" stroke="#dc3912" d="M -2.8284274 -2.8284274 L 2.8284274 2.8284274 M -2.8284274 2.8284274 L 2.8284274 -2.8284274 "/>
<path transform="matrix(.75,0,0,.75,265.3125,186.42145)" stroke-width=".666667" stroke-linecap="butt" stroke-miterlimit="10" stroke-linejoin="miter" fill="none" stroke="#dc3912" d="M -2.8284274 -2.8284274 L 2.8284274 2.8284274 M -2.8284274 2.8284274 L 2.8284274 -2.8284274 "/>
<path transform="matrix(.75,0,0,.75,307.125,176.7596)" stroke-width=".666667" stroke-linecap="butt" stroke-miterlimit="10" stroke-linejoin="miter" fill="none" stroke="#dc3912" d="M -2.8284274 -2.8284274 L 2.8284274 2.8284274 M -2.8284274 2.8284274 L 2.8284274 -2.8284274 "/>
<path transform="matrix(.75,0,0,.75,348.9375,154.09709)" stroke-width=".666667" stroke-linecap="butt" stroke-miterlimit="10" stroke-linejoin="miter" fill="none" stroke="#dc3912" d="M -2.8284274 -2.8284274 L 2.8284274 2.8284274 M -2.8284274 2.8284274 L 2.8284274 -2.8284274 "/>
<path transform="matrix(.75,0,0,.75,390.75,187.17858)" stroke-width=".666667" stroke-linecap="butt" stroke-miterlimit="10" stroke-linejoin="miter" fill="none" stroke="#dc3912" d="M -2.8284274 -2.8284274 L 2.8284274 2.8284274 M -2.8284274 2.8284274 L 2.8284274 -2.8284274 "/>
<path transform="matrix(.75,0,0,.75,56.25,35.241785)" stroke-width=".666667" stroke-linecap="butt" stroke-miterlimit="10" stroke-linejoin="miter" fill="none" stroke="#dc3912" d="M -2.8284274 -2.8284274 L 2.8284274 2.8284274 M -2.8284274 2.8284274 L 2.8284274 -2.8284274 "/>
<path transform="matrix(.75,0,0,.75,98.0625,142.08895)" stroke-width=".666667" stroke-linecap="butt" stroke-miterlimit="10" stroke-linejoin="miter" fill="none" stroke="#dc3912" d="M -2.8284274 -2.8284274 L 2.8284274 2.8284274 M -2.8284274 2.8284274 L 2.8284274 -2.8284274 "/>
<path transform="matrix(.75,0,0,.75,139.875,161.24866)" stroke-width=".666667" stroke-linecap="butt" stroke-miterlimit="10" stroke-linejoin="miter" fill="none" stroke="#dc3912" d="M -2.8284274 -2.8284274 L 2.8284274 2.8284274 M -2.8284274 2.8284274 L 2.8284274 -2.8284274 "/>
<path transform="matrix(.75,0,0,.75,181.6875,172.0119)" stroke-width=".666667" stroke-linecap="butt" stroke-miterlimit="10" stroke-linejoin="miter" fill="none" stroke="#dc3912" d="M -2.8284274 -2.8284274 L 2.8284274 2.8284274 M -2.8284274 2.8284274 L 2.8284274 -2.8284274 "/>
<path transform="matrix(.75,0,0,.75,223.5,174.39795)" stroke-width=".666667" stroke-linecap="butt" stroke-miterlimit="10" stroke-linejoin="miter" fill="none" stroke="#dc3912" d="M -2.8284274 -2.8284274 L 2.8284274 2.8284274 M -2.8284274 2.8284274 L 2.8284274 -2.8284274 "/>
<path transform="matrix(.75,0,0,.75,265.3125,180.28919)" stroke-width=".666667" stroke-linecap="butt" stroke-miterlimit="10" stroke-linejoin="miter" fill="none" stroke="#dc3912" d="M -2.8284274 -2.8284274 L 2.8284274 2.8284274 M -2.8284274 2.8284274 L 2.8284274 -2.8284274 "/>
<path transform="matrix(.75,0,0,.75,307.125,180.599)" stroke-width=".666667" stroke-linecap="butt" stroke-miterlimit="10" stroke-linejoin="miter" fill="none" stroke="#dc3912" d="M -2.8284274 -2.8284274 L 2.8284274 2.8284274 M -2.8284274 2.8284274 L 2.8284274 -2.8284274 "/>
<path transform="matrix(.75,0,0,.75,348.9375,170.43758)" stroke-width=".666667" stroke-linecap="butt" stroke-miterlimit="10" stroke-linejoin="miter" fill="none" stroke="#dc3912" d="M -2.8284274 -2.8284274 L 2.8284274 2.8284274 M -2.8284274 2.8284274 L 2.8284274 -2.8284274 "/>
<path transform="matrix(.75,0,0,.75,390.75,147.47188)" stroke-width=".666667" stroke-linecap="butt" stroke-miterlimit="10" stroke-linejoin="miter" fill="none" stroke="#dc3912" d="M -2.8284274 -2.8284274 L 2.8284274 2.8284274 M -2.8284274 2.8284274 L 2.8284274 -2.8284274 "/>
<path transform="matrix(.75,0,0,.75,56.25,35.241785)" stroke-width=".666667" stroke-linecap="butt" stroke-miterlimit="10" stroke-linejoin="miter" fill="none" stroke="#dc3912" d="M -2.8284274 -2.8284274 L 2.8284274 2.8284274 M -2.8284274 2.8284274 L 2.8284274 -2.8284274 "/>
<path transform="matrix(.75,0,0,.75,98.0625,135.08405)" stroke-width=".666667" stroke-linecap="butt" stroke-miterlimit="10" stroke-linejoin="miter" fill="none" stroke="#dc3912" d="M -2.8284274 -2.8284274 L 2.8284274 2.8284274 M -2.8284274 2.8284274 L 2.8284274 -2.8284274 "/>
<path transform="matrix(.75,0,0,.75,139.875,159.28543)" stroke-width=".666667" stroke-linecap="butt" stroke-miterlimit="10" stroke-linejoin="miter" fill="none" stroke="#dc3912" d="M -2.8284274 -2.8284274 L 2.8284274 2.8284274 M -2.8284274 2.8284274 L 2.8284274 -2.8284274 "/>
<path transform="matrix(.75,0,0,.75,181.6875,169.75824)" stroke-width=".666667" stroke-linecap="butt" stroke-miterlimit="10" stroke-linejoin="miter" fill="none" stroke="#dc3912" d="M -2.8284274 -2.8284274 L 2.8284274 2.8284274 M -2.8284274 2.8284274 L 2.8284274 -2.8284274 "/>
<path transform="matrix(.75,0,0,.75,223.5,170.02953)" stroke-width=".666667" stroke-linecap="butt" stroke-miterlimit="10" stroke-linejoin="miter" fill="none" stroke="#dc3912" d="M -2.8284274 -2.8284274 L 2.8284274 2.8284274 M -2.8284274 2.8284274 L 2.8284274 -2.8284274 "/>
<path transform="matrix(.75,0,0,.75,265.3125,183.59912)" stroke-width=".666667" stroke-linecap="butt" stroke-miterlimit="10" stroke-linejoin="miter" fill="none" stroke="#dc3912" d="M -2.8284274 -2.8284274 L 2.8284274 2.8284274 M -2.8284274 2.8284274 L 2.8284274 -2.8284274 "/>
<path transform="matrix(.75,0,0,.75,307.125,189.60292)" stroke-width=".666667" stroke-linecap="butt" stroke-miterlimit="10" stroke-linejoin="miter" fill="none" stroke="#dc3912" d="M -2.8284274 -2.8284274 L 2.8284274 2.8284274 M -2.8284274 2.8284274 L 2.8284274 -2.8284274 "/>
<path transform="matrix(.75,0,0,.75,348.9375,172.91405)" stroke-width=".666667" stroke-linecap="butt" stroke-miterlimit="10" stroke-linejoin="miter" fill="none" stroke="#dc3912" d="M -2.8284274 -2.8284274 L 2.8284274 2.8284274 M -2.8284274 2.8284274 L 2.8284274 -2.8284274 "/>
<path transform="matrix(.75,0,0,.75,390.75,148.88973)" stroke-width=".666667" stroke-linecap="butt" stroke-miterlimit="10" stroke-linejoin="miter" fill="none" stroke="#dc3912" d="M -2.8284274 -2.8284274 L 2.8284274 2.8284274 M -2.8284274 2.8284274 L 2.8284274 -2.8284274 "/>
<path transform="matrix(.75,0,0,.75,56.25,35.241785)" stroke-width=".666667" stroke-linecap="butt" stroke-miterlimit="10" stroke-linejoin="miter" fill="none" stroke="#dc3912" d="M -2.8284274 -2.8284274 L 2.8284274 2.8284274 M -2.8284274 2.8284274 L 2.8284274 -2.8284274 "/>
<path transform="matrix(.75,0,0,.75,98.0625,152.60034)" stroke-width=".666667" stroke-linecap="butt" stroke-miterlimit="10" stroke-linejoin="miter" fill="none" stroke="#dc3912" d="M -2.8284274 -2.8284274 L 2.8284274 2.8284274 M -2.8284274 2.8284274 L 2.8284274 -2.8284274 "/>
<path transform="matrix(.75,0,0,.75,139.875,170.41211)" stroke-width=".666667" stroke-linecap="butt" stroke-miterlimit="10" stroke-linejoin="miter" fill="none" stroke="#dc3912" d="M -2.8284274 -2.8284274 L 2.8284274 2.8284274 M -2.8284274 2.8284274 L 2.8284274 -2.8284274 "/>
<path transform="matrix(.75,0,0,.75,181.6875,170.03847)" stroke-width=".666667" stroke-linecap="butt" stroke-miterlimit="10" stroke-linejoin="miter" fill="none" stroke="#dc3912" d="M -2.8284274 -2.8284274 L 2.8284274 2.8284274 M -2.8284274 2.8284274 L 2.8284274 -2.8284274 "/>
<path transform="matrix(.75,0,0,.75,223.5,180.431)" stroke-width=".666667" stroke-linecap="butt" stroke-miterlimit="10" stroke-linejoin="miter" fill="none" stroke="#dc3912" d="M -2.8284274 -2.8284274 L 2.8284274 2.8284274 M -2.8284274 2.8284274 L 2.8284274 -2.8284274 "/>
<path transform="matrix(.75,0,0,.75,265.3125,180.68126)" stroke-width=".666667" stroke-linecap="butt" stroke-miterlimit="10" stroke-linejoin="miter" fill="none" stroke="#dc3912" d="M -2.8284274 -2.8284274 L 2.8284274 2.8284274 M -2.8284274 2.8284274 L 2.8284274 -2.8284274 "/>
<path transform="matrix(.75,0,0,.75,307.125,169.93024)" stroke-width=".666667" stroke-linecap="butt" stroke-miterlimit="10" stroke-linejoin="miter" fill="none" stroke="#dc3912" d="M -2.8284274 -2.8284274 L 2.8284274 2.8284274 M -2.8284274 2.8284274 L 2.8284274 -2.8284274 "/>
<path transform="matrix(.75,0,0,.75,348.9375,153.94203)" stroke-width=".666667" stroke-linecap="butt" stroke-miterlimit="10" stroke-linejoin="miter" fill="none" stroke="#dc3912" d="M -2.8284274 -2.8284274 L 2.8284274 2.8284274 M -2.8284274 2.8284274 L 2.8284274 -2.8284274 "/>
<path transform="matrix(.75,0,0,.75,390.75,169.76364)" stroke-width=".666667" stroke-linecap="butt" stroke-miterlimit="10" stroke-linejoin="miter" fill="none" stroke="#dc3912" d="M -2.8284274 -2.8284274 L 2.8284274 2.8284274 M -2.8284274 2.8284274 L 2.8284274 -2.8284274 "/>
<path transform="matrix(.75,0,0,.75,56.25,35.241785)" stroke-width=".666667" stroke-linecap="butt" stroke-miterlimit="10" stroke-linejoin="miter" fill="none" stroke="#dc3912" d="M -2.8284274 -2.8284274 L 2.8284274 2.8284274 M -2.8284274 2.8284274 L 2.8284274 -2.8284274 "/>
<path transform="matrix(.75,0,0,.75,98.0625,135.07752)" stroke-width=".666667" stroke-linecap="butt" stroke-miterlimit="10" stroke-linejoin="miter" fill="none" stroke="#dc3912" d="M -2.8284274 -2.8284274 L 2.8284274 2.8284274 M -2.8284274 2.8284274 L 2.8284274 -2.8284274 "/>
<path transform="matrix(.75,0,0,.75,139.875,150.93747)" stroke-width=".666667" stroke-linecap="butt" stroke-miterlimit="10" stroke-linejoin="miter" fill="none" stroke="#dc3912" d="M -2.8284274 -2.8284274 L 2.8284274 2.8284274 M -2.8284274 2.8284274 L 2.8284274 -2.8284274 "/>
<path transform="matrix(.75,0,0,.75,181.6875,173.57625)" stroke-width=".666667" stroke-linecap="butt" stroke-miterlimit="10" stroke-linejoin="miter" fill="none" stroke="#dc3912" d="M -2.8284274 -2.8284274 L 2.8284274 2.8284274 M -2.8284274 2.8284274 L 2.8284274 -2.8284274 "/>
<path transform="matrix(.75,0,0,.75,223.5,181.84981)" stroke-width=".666667" stroke-linecap="butt" stroke-miterlimit="10" stroke-linejoin="miter" fill="none" stroke="#dc3912" d="M -2.8284274 -2.8284274 L 2.8284274 2.8284274 M -2.8284274 2.8284274 L 2.8284274 -2.8284274 "/>
<path transform="matrix(.75,0,0,.75,265.3125,174.00547)" stroke-width=".666667" stroke-linecap="butt" stroke-miterlimit="10" stroke-linejoin="miter" fill="none" stroke="#dc3912" d="M -2.8284274 -2.8284274 L 2.8284274 2.8284274 M -2.8284274 2.8284274 L 2.8284274 -2.8284274 "/>
<path transform="matrix(.75,0,0,.75,307.125,179.38481)" stroke-width=".666667" stroke-linecap="butt" stroke-miterlimit="10" stroke-linejoin="miter" fill="none" stroke="#dc3912" d="M -2.8284274 -2.8284274 L 2.8284274 2.8284274 M -2.8284274 2.8284274 L 2.8284274 -2.8284274 "/>
<path transform="matrix(.75,0,0,.75,348.9375,136.93064)" stroke-width=".666667" stroke-linecap="butt" stroke-miterlimit="10" stroke-linejoin="miter" fill="none" stroke="#dc3912" d="M -2.8284274 -2.8284274 L 2.8284274 2.8284274 M -2.8284274 2.8284274 L 2.8284274 -2.8284274 "/>
<path transform="matrix(.75,0,0,.75,390.75,153.81708)" stroke-width=".666667" stroke-linecap="butt" stroke-miterlimit="10" stroke-linejoin="miter" fill="none" stroke="#dc3912" d="M -2.8284274 -2.8284274 L 2.8284274 2.8284274 M -2.8284274 2.8284274 L 2.8284274 -2.8284274 "/>
<path transform="matrix(.75,0,0,.75,56.25,35.241785)" stroke-width=".666667" stroke-linecap="butt" stroke-miterlimit="10" stroke-linejoin="miter" fill="none" stroke="#dc3912" d="M -2.8284274 -2.8284274 L 2.8284274 2.8284274 M -2.8284274 2.8284274 L 2.8284274 -2.8284274 "/>
<path transform="matrix(.75,0,0,.75,98.0625,142.05319)" stroke-width=".666667" stroke-linecap="butt" stroke-miterlimit="10" stroke-linejoin="miter" fill="none" stroke="#dc3912" d="M -2.8284274 -2.8284274 L 2.8284274 2.8284274 M -2.8284274 2.8284274 L 2.8284274 -2.8284274 "/>
<path transform="matrix(.75,0,0,.75,139.875,162.65833)" stroke-width=".666667" stroke-linecap="butt" stroke-miterlimit="10" stroke-linejoin="miter" fill="none" stroke="#dc3912" d="M -2.8284274 -2.8284274 L 2.8284274 2.8284274 M -2.8284274 2.8284274 L 2.8284274 -2.8284274 "/>
<path transform="matrix(.75,0,0,.75,181.6875,164.5233)" stroke-width=".666667" stroke-linecap="butt" stroke-miterlimit="10" stroke-linejoin="miter" fill="none" stroke="#dc3912" d="M -2.8284274 -2.8284274 L 2.8284274 2.8284274 M -2.8284274 2.8284274 L 2.8284274 -2.8284274 "/>
<path transform="matrix(.75,0,0,.75,223.5,182.59842)" stroke-width=".666667" stroke-linecap="butt" stroke-miterlimit="10" stroke-linejoin="miter" fill="none" stroke="#dc3912" d="M -2.8284274 -2.8284274 L 2.8284274 2.8284274 M -2.8284274 2.8284274 L 2.8284274 -2.8284274 "/>
<path transform="matrix(.75,0,0,.75,265.3125,185.19742)" stroke-width=".666667" stroke-linecap="butt" stroke-miterlimit="10" stroke-linejoin="miter" fill="none" stroke="#dc3912" d="M -2.8284274 -2.8284274 L 2.8284274 2.8284274 M -2.8284274 2.8284274 L 2.8284274 -2.8284274 "/>
<path transform="matrix(.75,0,0,.75,307.125,169.89408)" stroke-width=".666667" stroke-linecap="butt" stroke-miterlimit="10" stroke-linejoin="miter" fill="none" stroke="#dc3912" d="M -2.8284274 -2.8284274 L 2.8284274 2.8284274 M -2.8284274 2.8284274 L 2.8284274 -2.8284274 "/>
<path transform="matrix(.75,0,0,.75,348.9375,32.688165)" stroke-width=".666667" stroke-linecap="butt" stroke-miterlimit="10" stroke-linejoin="miter" fill="none" stroke="#dc3912" d="M -2.8284274 -2.8284274 L 2.8284274 2.8284274 M -2.8284274 2.8284274 L 2.8284274 -2.8284274 "/>
<path transform="matrix(.75,0,0,.75,390.75,148.80644)" stroke-width=".666667" stroke-linecap="butt" stroke-miterlimit="10" stroke-linejoin="miter" fill="none" stroke="#dc3912" d="M -2.8284274 -2.8284274 L 2.8284274 2.8284274 M -2.8284274 2.8284274 L 2.8284274 -2.8284274 "/>
<path transform="matrix(.75,0,0,.75,56.25,35.241785)" stroke-width=".666667" stroke-linecap="butt" stroke-miterlimit="10" stroke-linejoin="miter" fill="none" stroke="#dc3912" d="M -2.8284274 -2.8284274 L 2.8284274 2.8284274 M -2.8284274 2.8284274 L 2.8284274 -2.8284274 "/>
<path transform="matrix(.75,0,0,.75,98.0625,137.33139)" stroke-width=".666667" stroke-linecap="butt" stroke-miterlimit="10" stroke-linejoin="miter" fill="none" stroke="#dc3912" d="M -2.8284274 -2.8284274 L 2.8284274 2.8284274 M -2.8284274 2.8284274 L 2.8284274 -2.8284274 "/>
<path transform="matrix(.75,0,0,.75,139.875,158.03047)" stroke-width=".666667" stroke-linecap="butt" stroke-miterlimit="10" stroke-linejoin="miter" fill="none" stroke="#dc3912" d="M -2.8284274 -2.8284274 L 2.8284274 2.8284274 M -2.8284274 2.8284274 L 2.8284274 -2.8284274 "/>
<path transform="matrix(.75,0,0,.75,181.6875,172.51284)" stroke-width=".666667" stroke-linecap="butt" stroke-miterlimit="10" stroke-linejoin="miter" fill="none" stroke="#dc3912" d="M -2.8284274 -2.8284274 L 2.8284274 2.8284274 M -2.8284274 2.8284274 L 2.8284274 -2.8284274 "/>
<path transform="matrix(.75,0,0,.75,223.5,180.07669)" stroke-width=".666667" stroke-linecap="butt" stroke-miterlimit="10" stroke-linejoin="miter" fill="none" stroke="#dc3912" d="M -2.8284274 -2.8284274 L 2.8284274 2.8284274 M -2.8284274 2.8284274 L 2.8284274 -2.8284274 "/>
<path transform="matrix(.75,0,0,.75,265.3125,185.50569)" stroke-width=".666667" stroke-linecap="butt" stroke-miterlimit="10" stroke-linejoin="miter" fill="none" stroke="#dc3912" d="M -2.8284274 -2.8284274 L 2.8284274 2.8284274 M -2.8284274 2.8284274 L 2.8284274 -2.8284274 "/>
<path transform="matrix(.75,0,0,.75,307.125,179.38816)" stroke-width=".666667" stroke-linecap="butt" stroke-miterlimit="10" stroke-linejoin="miter" fill="none" stroke="#dc3912" d="M -2.8284274 -2.8284274 L 2.8284274 2.8284274 M -2.8284274 2.8284274 L 2.8284274 -2.8284274 "/>
<path transform="matrix(.75,0,0,.75,348.9375,60.791257)" stroke-width=".666667" stroke-linecap="butt" stroke-miterlimit="10" stroke-linejoin="miter" fill="none" stroke="#dc3912" d="M -2.8284274 -2.8284274 L 2.8284274 2.8284274 M -2.8284274 2.8284274 L 2.8284274 -2.8284274 "/>
<path transform="matrix(.75,0,0,.75,390.75,170.80123)" stroke-width=".666667" stroke-linecap="butt" stroke-miterlimit="10" stroke-linejoin="miter" fill="none" stroke="#dc3912" d="M -2.8284274 -2.8284274 L 2.8284274 2.8284274 M -2.8284274 2.8284274 L 2.8284274 -2.8284274 "/>
<path transform="matrix(.75,0,0,.75,56.25,35.241785)" stroke-width=".666667" stroke-linecap="butt" stroke-miterlimit="10" stroke-linejoin="miter" fill="none" stroke="#dc3912" d="M -2.8284274 -2.8284274 L 2.8284274 2.8284274 M -2.8284274 2.8284274 L 2.8284274 -2.8284274 "/>
<path transform="matrix(.75,0,0,.75,98.0625,148.75193)" stroke-width=".666667" stroke-linecap="butt" stroke-miterlimit="10" stroke-linejoin="miter" fill="none" stroke="#dc3912" d="M -2.8284274 -2.8284274 L 2.8284274 2.8284274 M -2.8284274 2.8284274 L 2.8284274 -2.8284274 "/>
<path transform="matrix(.75,0,0,.75,139.875,168.8941)" stroke-width=".666667" stroke-linecap="butt" stroke-miterlimit="10" stroke-linejoin="miter" fill="none" stroke="#dc3912" d="M -2.8284274 -2.8284274 L 2.8284274 2.8284274 M -2.8284274 2.8284274 L 2.8284274 -2.8284274 "/>
<path transform="matrix(.75,0,0,.75,181.6875,172.4137)" stroke-width=".666667" stroke-linecap="butt" stroke-miterlimit="10" stroke-linejoin="miter" fill="none" stroke="#dc3912" d="M -2.8284274 -2.8284274 L 2.8284274 2.8284274 M -2.8284274 2.8284274 L 2.8284274 -2.8284274 "/>
<path transform="matrix(.75,0,0,.75,223.5,180.02327)" stroke-width=".666667" stroke-linecap="butt" stroke-miterlimit="10" stroke-linejoin="miter" fill="none" stroke="#dc3912" d="M -2.8284274 -2.8284274 L 2.8284274 2.8284274 M -2.8284274 2.8284274 L 2.8284274 -2.8284274 "/>
<path transform="matrix(.75,0,0,.75,265.3125,188.3486)" stroke-width=".666667" stroke-linecap="butt" stroke-miterlimit="10" stroke-linejoin="miter" fill="none" stroke="#dc3912" d="M -2.8284274 -2.8284274 L 2.8284274 2.8284274 M -2.8284274 2.8284274 L 2.8284274 -2.8284274 "/>
<path transform="matrix(.75,0,0,.75,307.125,176.1527)" stroke-width=".666667" stroke-linecap="butt" stroke-miterlimit="10" stroke-linejoin="miter" fill="none" stroke="#dc3912" d="M -2.8284274 -2.8284274 L 2.8284274 2.8284274 M -2.8284274 2.8284274 L 2.8284274 -2.8284274 "/>
<path transform="matrix(.75,0,0,.75,348.9375,103.76626)" stroke-width=".666667" stroke-linecap="butt" stroke-miterlimit="10" stroke-linejoin="miter" fill="none" stroke="#dc3912" d="M -2.8284274 -2.8284274 L 2.8284274 2.8284274 M -2.8284274 2.8284274 L 2.8284274 -2.8284274 "/>
<path transform="matrix(.75,0,0,.75,390.75,174.20079)" stroke-width=".666667" stroke-linecap="butt" stroke-miterlimit="10" stroke-linejoin="miter" fill="none" stroke="#dc3912" d="M -2.8284274 -2.8284274 L 2.8284274 2.8284274 M -2.8284274 2.8284274 L 2.8284274 -2.8284274 "/>
<path transform="matrix(.75,0,0,.75,0,0)" d="M 510 89 L 510 36 L 396 36 L 396 89 Z " fill="#ffffff"/>
<text xml:space="preserve" transform="matrix(.75 0 0 .75 332.25 34.5)" font-size="12" font-family="Helvetica"><tspan y="5" x="0 8.6640009 15.336001 22.008004 28.008004 34.680006 40.680006 44.016008 50.688009 57.36001 60.02401">Convex hull</tspan></text>
<path transform="matrix(.75,0,0,.75,0,0)" stroke-width=".666667" stroke-linecap="butt" stroke-linejoin="round" fill="none" stroke="#000000" d="M 400 46 L 440 46 "/>
<text xml:space="preserve" transform="matrix(.75 0 0 .75 332.25 46.875)" font-size="12" font-family="Helvetica"><tspan y="5" x="0 8.004001 14.676002 24.672">Pnma</tspan></text>
<path transform="matrix(.75,0,0,.75,315,46.875)" stroke-width=".666667" stroke-linecap="butt" stroke-miterlimit="10" stroke-linejoin="miter" fill="none" stroke="#3366cc" d="M -2.8284274 -2.8284274 L 2.8284274 2.8284274 M -2.8284274 2.8284274 L 2.8284274 -2.8284274 "/>
<text xml:space="preserve" transform="matrix(.75 0 0 .75 332.25 59.25)" font-size="12" font-family="Helvetica"><tspan y="5" x="0 7.332 17.328 24">Fm3m</tspan></text>
<path transform="matrix(.75,0,0,.75,315,59.25)" stroke-width=".666667" stroke-linecap="butt" stroke-miterlimit="10" stroke-linejoin="miter" fill="none" stroke="#dc3912" d="M -2.8284274 -2.8284274 L 2.8284274 2.8284274 M -2.8284274 2.8284274 L 2.8284274 -2.8284274 "/>
<path transform="matrix(.75,0,0,.75,0,0)" stroke-width=".666667" stroke-linecap="butt" stroke-miterlimit="10" stroke-linejoin="miter" fill="none" stroke="#323232" d="M 396 89 L 396 36 L 510 36 L 510 89 Z "/>
</g>
</svg>
