<?xml version="1.0" encoding="UTF-8" standalone="no"?>
<!DOCTYPE svg PUBLIC "-//W3C//DTD SVG 1.1//EN" "http://www.w3.org/Graphics/SVG/1.1/DTD/svg11.dtd">
<svg xmlns="http://www.w3.org/2000/svg" xmlns:xlink="http://www.w3.org/1999/xlink" version="1.1" width="432pt" height="432pt" viewBox="0 0 432 432">
<g enable-background="new">
<clipPath id="cp0">
<path transform="matrix(.75,0,0,.75,0,0)" d="M 0 0 L 576 0 L 576 576 L 0 576 L 0 0 Z "/>
</clipPath>
<g clip-path="url(#cp0)">
<path transform="matrix(.75,0,0,.75,0,0)" d="M 0 0 L 576 0 L 576 576 L 0 576 Z " fill="#ffffff"/>
</g>
<path transform="matrix(.75,0,0,.75,0,0)" d="M 0 0 L 576 0 L 576 576 L 0 576 Z " fill="#ffffff"/>
<path transform="matrix(.75,0,0,.75,0,0)" d="M 75 240 L 521 240 L 521 43 L 75 43 Z " fill="#ffffff"/>
<path transform="matrix(.75,0,0,.75,0,0)" stroke-width=".666667" stroke-linecap="square" stroke-linejoin="round" fill="none" stroke="#323232" d="M 75 240 L 521 240 "/>
<path transform="matrix(.75,0,0,.75,0,0)" stroke-width=".666667" stroke-linecap="square" stroke-linejoin="round" fill="none" stroke="#323232" d="M 75 43.000005 L 521 43.000005 "/>
<path transform="matrix(.75,0,0,.75,0,0)" stroke-width=".666667" stroke-linecap="square" stroke-linejoin="round" fill="none" stroke="#323232" d="M 75 240 L 75 235.54 "/>
<path transform="matrix(.75,0,0,.75,0,0)" stroke-width=".666667" stroke-linecap="square" stroke-linejoin="round" fill="none" stroke="#323232" d="M 119.6 240 L 119.6 235.54 "/>
<path transform="matrix(.75,0,0,.75,0,0)" stroke-width=".666667" stroke-linecap="square" stroke-linejoin="round" fill="none" stroke="#323232" d="M 164.2 240 L 164.2 235.54 "/>
<path transform="matrix(.75,0,0,.75,0,0)" stroke-width=".666667" stroke-linecap="square" stroke-linejoin="round" fill="none" stroke="#323232" d="M 208.8 240 L 208.8 235.54 "/>
<path transform="matrix(.75,0,0,.75,0,0)" stroke-width=".666667" stroke-linecap="square" stroke-linejoin="round" fill="none" stroke="#323232" d="M 253.40001 240 L 253.40001 235.54 "/>
<path transform="matrix(.75,0,0,.75,0,0)" stroke-width=".666667" stroke-linecap="square" stroke-linejoin="round" fill="none" stroke="#323232" d="M 298 240 L 298 235.54 "/>
<path transform="matrix(.75,0,0,.75,0,0)" stroke-width=".666667" stroke-linecap="square" stroke-linejoin="round" fill="none" stroke="#323232" d="M 342.6 240 L 342.6 235.54 "/>
<path transform="matrix(.75,0,0,.75,0,0)" stroke-width=".666667" stroke-linecap="square" stroke-linejoin="round" fill="none" stroke="#323232" d="M 387.19999 240 L 387.19999 235.54 "/>
<path transform="matrix(.75,0,0,.75,0,0)" stroke-width=".666667" stroke-linecap="square" stroke-linejoin="round" fill="none" stroke="#323232" d="M 431.80003 240 L 431.80003 235.54 "/>
<path transform="matrix(.75,0,0,.75,0,0)" stroke-width=".666667" stroke-linecap="square" stroke-linejoin="round" fill="none" stroke="#323232" d="M 476.4 240 L 476.4 235.54 "/>
<path transform="matrix(.75,0,0,.75,0,0)" stroke-width=".666667" stroke-linecap="square" stroke-linejoin="round" fill="none" stroke="#323232" d="M 521 240 L 521 235.54 "/>
<path transform="matrix(.75,0,0,.75,0,0)" stroke-width=".666667" stroke-linecap="square" stroke-linejoin="round" fill="none" stroke="#323232" d="M 75 43.000005 L 75 47.460004 "/>
<path transform="matrix(.75,0,0,.75,0,0)" stroke-width=".666667" stroke-linecap="square" stroke-linejoin="round" fill="none" stroke="#323232" d="M 119.6 43.000005 L 119.6 47.460004 "/>
<path transform="matrix(.75,0,0,.75,0,0)" stroke-width=".666667" stroke-linecap="square" stroke-linejoin="round" fill="none" stroke="#323232" d="M 164.2 43.000005 L 164.2 47.460004 "/>
<path transform="matrix(.75,0,0,.75,0,0)" stroke-width=".666667" stroke-linecap="square" stroke-linejoin="round" fill="none" stroke="#323232" d="M 208.8 43.000005 L 208.8 47.460004 "/>
<path transform="matrix(.75,0,0,.75,0,0)" stroke-width=".666667" stroke-linecap="square" stroke-linejoin="round" fill="none" stroke="#323232" d="M 253.40001 43.000005 L 253.40001 47.460004 "/>
<path transform="matrix(.75,0,0,.75,0,0)" stroke-width=".666667" stroke-linecap="square" stroke-linejoin="round" fill="none" stroke="#323232" d="M 298 43.000005 L 298 47.460004 "/>
<path transform="matrix(.75,0,0,.75,0,0)" stroke-width=".666667" stroke-linecap="square" stroke-linejoin="round" fill="none" stroke="#323232" d="M 342.6 43.000005 L 342.6 47.460004 "/>
<path transform="matrix(.75,0,0,.75,0,0)" stroke-width=".666667" stroke-linecap="square" stroke-linejoin="round" fill="none" stroke="#323232" d="M 387.19999 43.000005 L 387.19999 47.460004 "/>
<path transform="matrix(.75,0,0,.75,0,0)" stroke-width=".666667" stroke-linecap="square" stroke-linejoin="round" fill="none" stroke="#323232" d="M 431.80003 43.000005 L 431.80003 47.460004 "/>
<path transform="matrix(.75,0,0,.75,0,0)" stroke-width=".666667" stroke-linecap="square" stroke-linejoin="round" fill="none" stroke="#323232" d="M 476.4 43.000005 L 476.4 47.460004 "/>
<path transform="matrix(.75,0,0,.75,0,0)" stroke-width=".666667" stroke-linecap="square" stroke-linejoin="round" fill="none" stroke="#323232" d="M 521 43.000005 L 521 47.460004 "/>
<text fill="#323232" xml:space="preserve" transform="matrix(.75 0 0 .75 56.25 184)" font-size="13.333" font-family="Helvetica"><tspan y="14" x="-4">0</tspan></text>
<text fill="#323232" xml:space="preserve" transform="matrix(.75 0 0 .75 89.7 184)" font-size="13.333" font-family="Helvetica"><tspan y="14" x="-9.5 -2.0868512 1.6197233">0.1</tspan></text>
<text fill="#323232" xml:space="preserve" transform="matrix(.75 0 0 .75 123.149997 184)" font-size="13.333" font-family="Helvetica"><tspan y="14" x="-9.5 -2.0868512 1.6197233">0.2</tspan></text>
<text fill="#323232" xml:space="preserve" transform="matrix(.75 0 0 .75 156.6 184)" font-size="13.333" font-family="Helvetica"><tspan y="14" x="-9.5 -2.0868512 1.6197233">0.3</tspan></text>
<text fill="#323232" xml:space="preserve" transform="matrix(.75 0 0 .75 190.05 184)" font-size="13.333" font-family="Helvetica"><tspan y="14" x="-9.5 -2.0868512 1.6197233">0.4</tspan></text>
<text fill="#323232" xml:space="preserve" transform="matrix(.75 0 0 .75 223.5 184)" font-size="13.333" font-family="Helvetica"><tspan y="14" x="-9.5 -2.0868512 1.6197233">0.5</tspan></text>
<text fill="#323232" xml:space="preserve" transform="matrix(.75 0 0 .75 256.95 184)" font-size="13.333" font-family="Helvetica"><tspan y="14" x="-9.5 -2.0868512 1.6197233">0.6</tspan></text>
<text fill="#323232" xml:space="preserve" transform="matrix(.75 0 0 .75 290.4 184)" font-size="13.333" font-family="Helvetica"><tspan y="14" x="-9.5 -2.0868512 1.6197233">0.7</tspan></text>
<text fill="#323232" xml:space="preserve" transform="matrix(.75 0 0 .75 323.85 184)" font-size="13.333" font-family="Helvetica"><tspan y="14" x="-9.5 -2.0868512 1.6197233">0.8</tspan></text>
<text fill="#323232" xml:space="preserve" transform="matrix(.75 0 0 .75 357.3 184)" font-size="13.333" font-family="Helvetica"><tspan y="14" x="-9.5 -2.0868512 1.6197233">0.9</tspan></text>
<text fill="#323232" xml:space="preserve" transform="matrix(.75 0 0 .75 390.75 184)" font-size="13.333" font-family="Helvetica"><tspan y="14" x="-4">1</tspan></text>
<text fill="#323232" xml:space="preserve" transform="matrix(.75 0 0 .75 180 209.25)" font-size="14.667" font-family="Helvetica"><tspan y="0" x="0 7.3335 11.410927 14.667001 22.821854 26.89928 36.68217">x in Bi</tspan></text>
<text fill="#323232" xml:space="preserve" transform="matrix(.75 0 0 .75 210 214.5)" font-size="11.733" font-family="Helvetica"><tspan y="0" x="0 3.907089 10.430637 14.337727 20.204228">(1-x)</tspan></text>
<text fill="#323232" xml:space="preserve" transform="matrix(.75 0 0 .75 228.75 209.25)" font-size="14.667" font-family="Helvetica"><tspan y="0" x="0 9.782889">Pb</tspan></text>
<text fill="#323232" xml:space="preserve" transform="matrix(.75 0 0 .75 242.25 214.5)" font-size="11.733" font-family="Helvetica"><tspan y="0" x="0">x</tspan></text>
<text fill="#323232" xml:space="preserve" transform="matrix(.75 0 0 .75 246.75 209.25)" font-size="14.667" font-family="Helvetica"><tspan y="0" x="0">F</tspan></text>
<text fill="#323232" xml:space="preserve" transform="matrix(.75 0 0 .75 253.5 214.5)" font-size="11.733" font-family="Helvetica"><tspan y="0" x="0 6.5235488 10.430637">3-x</tspan></text>
<path transform="matrix(.75,0,0,.75,0,0)" stroke-width=".666667" stroke-linecap="square" stroke-linejoin="round" fill="none" stroke="#323232" d="M 75 240 L 75 43.000005 "/>
<path transform="matrix(.75,0,0,.75,0,0)" stroke-width=".666667" stroke-linecap="square" stroke-linejoin="round" fill="none" stroke="#323232" d="M 521 240 L 521 43.000005 "/>
<path transform="matrix(.75,0,0,.75,0,0)" stroke-width=".666667" stroke-linecap="square" stroke-linejoin="round" fill="none" stroke="#323232" d="M 75 240 L 79.46 240 "/>
<path transform="matrix(.75,0,0,.75,0,0)" stroke-width=".666667" stroke-linecap="square" stroke-linejoin="round" fill="none" stroke="#323232" d="M 75 207.16667 L 79.46 207.16667 "/>
<path transform="matrix(.75,0,0,.75,0,0)" stroke-width=".666667" stroke-linecap="square" stroke-linejoin="round" fill="none" stroke="#323232" d="M 75 174.33333 L 79.46 174.33333 "/>
<path transform="matrix(.75,0,0,.75,0,0)" stroke-width=".666667" stroke-linecap="square" stroke-linejoin="round" fill="none" stroke="#323232" d="M 75 141.5 L 79.46 141.5 "/>
<path transform="matrix(.75,0,0,.75,0,0)" stroke-width=".666667" stroke-linecap="square" stroke-linejoin="round" fill="none" stroke="#323232" d="M 75 108.66667 L 79.46 108.66667 "/>
<path transform="matrix(.75,0,0,.75,0,0)" stroke-width=".666667" stroke-linecap="square" stroke-linejoin="round" fill="none" stroke="#323232" d="M 75 75.83333 L 79.46 75.83333 "/>
<path transform="matrix(.75,0,0,.75,0,0)" stroke-width=".666667" stroke-linecap="square" stroke-linejoin="round" fill="none" stroke="#323232" d="M 75 43.000005 L 79.46 43.000005 "/>
<path transform="matrix(.75,0,0,.75,0,0)" stroke-width=".666667" stroke-linecap="square" stroke-linejoin="round" fill="none" stroke="#323232" d="M 521 240 L 516.54 240 "/>
<path transform="matrix(.75,0,0,.75,0,0)" stroke-width=".666667" stroke-linecap="square" stroke-linejoin="round" fill="none" stroke="#323232" d="M 521 207.16667 L 516.54 207.16667 "/>
<path transform="matrix(.75,0,0,.75,0,0)" stroke-width=".666667" stroke-linecap="square" stroke-linejoin="round" fill="none" stroke="#323232" d="M 521 174.33333 L 516.54 174.33333 "/>
<path transform="matrix(.75,0,0,.75,0,0)" stroke-width=".666667" stroke-linecap="square" stroke-linejoin="round" fill="none" stroke="#323232" d="M 521 141.5 L 516.54 141.5 "/>
<path transform="matrix(.75,0,0,.75,0,0)" stroke-width=".666667" stroke-linecap="square" stroke-linejoin="round" fill="none" stroke="#323232" d="M 521 108.66667 L 516.54 108.66667 "/>
<path transform="matrix(.75,0,0,.75,0,0)" stroke-width=".666667" stroke-linecap="square" stroke-linejoin="round" fill="none" stroke="#323232" d="M 521 75.83333 L 516.54 75.83333 "/>
<path transform="matrix(.75,0,0,.75,0,0)" stroke-width=".666667" stroke-linecap="square" stroke-linejoin="round" fill="none" stroke="#323232" d="M 521 43.000005 L 516.54 43.000005 "/>
<text fill="#323232" xml:space="preserve" transform="matrix(.75 0 0 .75 52.249998 180)" font-size="13.333" font-family="Helvetica"><tspan y="5.5" x="-8">0</tspan></text>
<text fill="#323232" xml:space="preserve" transform="matrix(.75 0 0 .75 52.249998 155.375)" font-size="13.333" font-family="Helvetica"><tspan y="5.5" x="-26 -18.586852 -14.880277 -7.467128">0.01</tspan></text>
<text fill="#323232" xml:space="preserve" transform="matrix(.75 0 0 .75 52.249998 130.75)" font-size="13.333" font-family="Helvetica"><tspan y="5.5" x="-26 -18.586852 -14.880277 -7.467128">0.02</tspan></text>
<text fill="#323232" xml:space="preserve" transform="matrix(.75 0 0 .75 52.249998 106.125)" font-size="13.333" font-family="Helvetica"><tspan y="5.5" x="-26 -18.586852 -14.880277 -7.467128">0.03</tspan></text>
<text fill="#323232" xml:space="preserve" transform="matrix(.75 0 0 .75 52.249998 81.5)" font-size="13.333" font-family="Helvetica"><tspan y="5.5" x="-26 -18.586852 -14.880277 -7.467128">0.04</tspan></text>
<text fill="#323232" xml:space="preserve" transform="matrix(.75 0 0 .75 52.249998 56.874998)" font-size="13.333" font-family="Helvetica"><tspan y="5.5" x="-26 -18.586852 -14.880277 -7.467128">0.05</tspan></text>
<text fill="#323232" xml:space="preserve" transform="matrix(.75 0 0 .75 52.249998 32.250005)" font-size="13.333" font-family="Helvetica"><tspan y="5.5" x="-26 -18.586852 -14.880277 -7.467128">0.06</tspan></text>
<text fill="#323232" xml:space="preserve" transform="matrix(-.0000000325 -.75 .75 -.0000000325 29.75 106.12493)" font-size="14.667" font-family="Helvetica"><tspan y="-4" x="-92 -83.03846 -74.883609 -69.9995 -57.781885 -49.62703 -45.549604 -42.29353 -34.138677 -25.983822 -21.906395 -13.751542 -5.596689 2.5581637 7.4422748 15.597128 22.930628 27.008055 35.162908 39.240335 47.395189 59.6128 63.690229 68.57434 76.729198 86.512088">Formation energy/atom (eV)</tspan></text>
<text xml:space="preserve" transform="matrix(.75 0 0 .75 223.50023 30.1875)" font-size="14.667" font-family="Helvetica" font-weight="bold"><tspan y="-4" x="-20 -10.217111 -1.2555733 11.78339">Pnma</tspan></text>
<path transform="matrix(.75,0,0,.75,56.25,180)" stroke-width=".666667" stroke-linecap="butt" stroke-miterlimit="10" stroke-linejoin="miter" fill="none" stroke="#3366cc" d="M -2.8284274 -2.8284274 L 2.8284274 2.8284274 M -2.8284274 2.8284274 L 2.8284274 -2.8284274 "/>
<path transform="matrix(.75,0,0,.75,98.0625,136.00907)" stroke-width=".666667" stroke-linecap="butt" stroke-miterlimit="10" stroke-linejoin="miter" fill="none" stroke="#3366cc" d="M -2.8284274 -2.8284274 L 2.8284274 2.8284274 M -2.8284274 2.8284274 L 2.8284274 -2.8284274 "/>
<path transform="matrix(.75,0,0,.75,139.875,111.620578)" stroke-width=".666667" stroke-linecap="butt" stroke-miterlimit="10" stroke-linejoin="miter" fill="none" stroke="#3366cc" d="M -2.8284274 -2.8284274 L 2.8284274 2.8284274 M -2.8284274 2.8284274 L 2.8284274 -2.8284274 "/>
<path transform="matrix(.75,0,0,.75,181.6875,97.24997)" stroke-width=".666667" stroke-linecap="butt" stroke-miterlimit="10" stroke-linejoin="miter" fill="none" stroke="#3366cc" d="M -2.8284274 -2.8284274 L 2.8284274 2.8284274 M -2.8284274 2.8284274 L 2.8284274 -2.8284274 "/>
<path transform="matrix(.75,0,0,.75,223.5,148.15129)" stroke-width=".666667" stroke-linecap="butt" stroke-miterlimit="10" stroke-linejoin="miter" fill="none" stroke="#3366cc" d="M -2.8284274 -2.8284274 L 2.8284274 2.8284274 M -2.8284274 2.8284274 L 2.8284274 -2.8284274 "/>
<path transform="matrix(.75,0,0,.75,265.3125,109.36849)" stroke-width=".666667" stroke-linecap="butt" stroke-miterlimit="10" stroke-linejoin="miter" fill="none" stroke="#3366cc" d="M -2.8284274 -2.8284274 L 2.8284274 2.8284274 M -2.8284274 2.8284274 L 2.8284274 -2.8284274 "/>
<path transform="matrix(.75,0,0,.75,307.125,67.59717)" stroke-width=".666667" stroke-linecap="butt" stroke-miterlimit="10" stroke-linejoin="miter" fill="none" stroke="#3366cc" d="M -2.8284274 -2.8284274 L 2.8284274 2.8284274 M -2.8284274 2.8284274 L 2.8284274 -2.8284274 "/>
<path transform="matrix(.75,0,0,.75,348.9375,69.10026)" stroke-width=".666667" stroke-linecap="butt" stroke-miterlimit="10" stroke-linejoin="miter" fill="none" stroke="#3366cc" d="M -2.8284274 -2.8284274 L 2.8284274 2.8284274 M -2.8284274 2.8284274 L 2.8284274 -2.8284274 "/>
<path transform="matrix(.75,0,0,.75,390.75,180)" stroke-width=".666667" stroke-linecap="butt" stroke-miterlimit="10" stroke-linejoin="miter" fill="none" stroke="#3366cc" d="M -2.8284274 -2.8284274 L 2.8284274 2.8284274 M -2.8284274 2.8284274 L 2.8284274 -2.8284274 "/>
<path transform="matrix(.75,0,0,.75,56.25,180)" stroke-width=".666667" stroke-linecap="butt" stroke-miterlimit="10" stroke-linejoin="miter" fill="none" stroke="#3366cc" d="M -2.8284274 -2.8284274 L 2.8284274 2.8284274 M -2.8284274 2.8284274 L 2.8284274 -2.8284274 "/>
<path transform="matrix(.75,0,0,.75,98.0625,132.77486)" stroke-width=".666667" stroke-linecap="butt" stroke-miterlimit="10" stroke-linejoin="miter" fill="none" stroke="#3366cc" d="M -2.8284274 -2.8284274 L 2.8284274 2.8284274 M -2.8284274 2.8284274 L 2.8284274 -2.8284274 "/>
<path transform="matrix(.75,0,0,.75,139.875,105.90265)" stroke-width=".666667" stroke-linecap="butt" stroke-miterlimit="10" stroke-linejoin="miter" fill="none" stroke="#3366cc" d="M -2.8284274 -2.8284274 L 2.8284274 2.8284274 M -2.8284274 2.8284274 L 2.8284274 -2.8284274 "/>
<path transform="matrix(.75,0,0,.75,181.6875,88.779399)" stroke-width=".666667" stroke-linecap="butt" stroke-miterlimit="10" stroke-linejoin="miter" fill="none" stroke="#3366cc" d="M -2.8284274 -2.8284274 L 2.8284274 2.8284274 M -2.8284274 2.8284274 L 2.8284274 -2.8284274 "/>
<path transform="matrix(.75,0,0,.75,223.5,122.13147)" stroke-width=".666667" stroke-linecap="butt" stroke-miterlimit="10" stroke-linejoin="miter" fill="none" stroke="#3366cc" d="M -2.8284274 -2.8284274 L 2.8284274 2.8284274 M -2.8284274 2.8284274 L 2.8284274 -2.8284274 "/>
<path transform="matrix(.75,0,0,.75,56.25,180)" stroke-width=".666667" stroke-linecap="butt" stroke-miterlimit="10" stroke-linejoin="miter" fill="none" stroke="#3366cc" d="M -2.8284274 -2.8284274 L 2.8284274 2.8284274 M -2.8284274 2.8284274 L 2.8284274 -2.8284274 "/>
<path transform="matrix(.75,0,0,.75,98.0625,132.73474)" stroke-width=".666667" stroke-linecap="butt" stroke-miterlimit="10" stroke-linejoin="miter" fill="none" stroke="#3366cc" d="M -2.8284274 -2.8284274 L 2.8284274 2.8284274 M -2.8284274 2.8284274 L 2.8284274 -2.8284274 "/>
<path transform="matrix(.75,0,0,.75,139.875,102.76953)" stroke-width=".666667" stroke-linecap="butt" stroke-miterlimit="10" stroke-linejoin="miter" fill="none" stroke="#3366cc" d="M -2.8284274 -2.8284274 L 2.8284274 2.8284274 M -2.8284274 2.8284274 L 2.8284274 -2.8284274 "/>
<path transform="matrix(.75,0,0,.75,181.6875,72.09936)" stroke-width=".666667" stroke-linecap="butt" stroke-miterlimit="10" stroke-linejoin="miter" fill="none" stroke="#3366cc" d="M -2.8284274 -2.8284274 L 2.8284274 2.8284274 M -2.8284274 2.8284274 L 2.8284274 -2.8284274 "/>
<path transform="matrix(.75,0,0,.75,223.5,121.26828)" stroke-width=".666667" stroke-linecap="butt" stroke-miterlimit="10" stroke-linejoin="miter" fill="none" stroke="#3366cc" d="M -2.8284274 -2.8284274 L 2.8284274 2.8284274 M -2.8284274 2.8284274 L 2.8284274 -2.8284274 "/>
<path transform="matrix(.75,0,0,.75,56.25,180)" stroke-width=".666667" stroke-linecap="butt" stroke-miterlimit="10" stroke-linejoin="miter" fill="none" stroke="#3366cc" d="M -2.8284274 -2.8284274 L 2.8284274 2.8284274 M -2.8284274 2.8284274 L 2.8284274 -2.8284274 "/>
<path transform="matrix(.75,0,0,.75,98.0625,130.0939)" stroke-width=".666667" stroke-linecap="butt" stroke-miterlimit="10" stroke-linejoin="miter" fill="none" stroke="#3366cc" d="M -2.8284274 -2.8284274 L 2.8284274 2.8284274 M -2.8284274 2.8284274 L 2.8284274 -2.8284274 "/>
<path transform="matrix(.75,0,0,.75,139.875,102.354198)" stroke-width=".666667" stroke-linecap="butt" stroke-miterlimit="10" stroke-linejoin="miter" fill="none" stroke="#3366cc" d="M -2.8284274 -2.8284274 L 2.8284274 2.8284274 M -2.8284274 2.8284274 L 2.8284274 -2.8284274 "/>
<path transform="matrix(.75,0,0,.75,181.6875,72.09936)" stroke-width=".666667" stroke-linecap="butt" stroke-miterlimit="10" stroke-linejoin="miter" fill="none" stroke="#3366cc" d="M -2.8284274 -2.8284274 L 2.8284274 2.8284274 M -2.8284274 2.8284274 L 2.8284274 -2.8284274 "/>
<path transform="matrix(.75,0,0,.75,223.5,95.307369)" stroke-width=".666667" stroke-linecap="butt" stroke-miterlimit="10" stroke-linejoin="miter" fill="none" stroke="#3366cc" d="M -2.8284274 -2.8284274 L 2.8284274 2.8284274 M -2.8284274 2.8284274 L 2.8284274 -2.8284274 "/>
<path transform="matrix(.75,0,0,.75,56.25,180)" stroke-width=".666667" stroke-linecap="butt" stroke-miterlimit="10" stroke-linejoin="miter" fill="none" stroke="#3366cc" d="M -2.8284274 -2.8284274 L 2.8284274 2.8284274 M -2.8284274 2.8284274 L 2.8284274 -2.8284274 "/>
<path transform="matrix(.75,0,0,.75,98.0625,129.88777)" stroke-width=".666667" stroke-linecap="butt" stroke-miterlimit="10" stroke-linejoin="miter" fill="none" stroke="#3366cc" d="M -2.8284274 -2.8284274 L 2.8284274 2.8284274 M -2.8284274 2.8284274 L 2.8284274 -2.8284274 "/>
<path transform="matrix(.75,0,0,.75,139.875,101.44512)" stroke-width=".666667" stroke-linecap="butt" stroke-miterlimit="10" stroke-linejoin="miter" fill="none" stroke="#3366cc" d="M -2.8284274 -2.8284274 L 2.8284274 2.8284274 M -2.8284274 2.8284274 L 2.8284274 -2.8284274 "/>
<path transform="matrix(.75,0,0,.75,181.6875,70.236339)" stroke-width=".666667" stroke-linecap="butt" stroke-miterlimit="10" stroke-linejoin="miter" fill="none" stroke="#3366cc" d="M -2.8284274 -2.8284274 L 2.8284274 2.8284274 M -2.8284274 2.8284274 L 2.8284274 -2.8284274 "/>
<path transform="matrix(.75,0,0,.75,223.5,75.21557)" stroke-width=".666667" stroke-linecap="butt" stroke-miterlimit="10" stroke-linejoin="miter" fill="none" stroke="#3366cc" d="M -2.8284274 -2.8284274 L 2.8284274 2.8284274 M -2.8284274 2.8284274 L 2.8284274 -2.8284274 "/>
<path transform="matrix(.75,0,0,.75,56.25,180)" stroke-width=".666667" stroke-linecap="butt" stroke-miterlimit="10" stroke-linejoin="miter" fill="none" stroke="#3366cc" d="M -2.8284274 -2.8284274 L 2.8284274 2.8284274 M -2.8284274 2.8284274 L 2.8284274 -2.8284274 "/>
<path transform="matrix(.75,0,0,.75,98.0625,128.5469)" stroke-width=".666667" stroke-linecap="butt" stroke-miterlimit="10" stroke-linejoin="miter" fill="none" stroke="#3366cc" d="M -2.8284274 -2.8284274 L 2.8284274 2.8284274 M -2.8284274 2.8284274 L 2.8284274 -2.8284274 "/>
<path transform="matrix(.75,0,0,.75,139.875,93.89797)" stroke-width=".666667" stroke-linecap="butt" stroke-miterlimit="10" stroke-linejoin="miter" fill="none" stroke="#3366cc" d="M -2.8284274 -2.8284274 L 2.8284274 2.8284274 M -2.8284274 2.8284274 L 2.8284274 -2.8284274 "/>
<path transform="matrix(.75,0,0,.75,181.6875,69.79098)" stroke-width=".666667" stroke-linecap="butt" stroke-miterlimit="10" stroke-linejoin="miter" fill="none" stroke="#3366cc" d="M -2.8284274 -2.8284274 L 2.8284274 2.8284274 M -2.8284274 2.8284274 L 2.8284274 -2.8284274 "/>
<path transform="matrix(.75,0,0,.75,223.5,66.400699)" stroke-width=".666667" stroke-linecap="butt" stroke-miterlimit="10" stroke-linejoin="miter" fill="none" stroke="#3366cc" d="M -2.8284274 -2.8284274 L 2.8284274 2.8284274 M -2.8284274 2.8284274 L 2.8284274 -2.8284274 "/>
<path transform="matrix(.75,0,0,.75,56.25,180)" stroke-width=".666667" stroke-linecap="butt" stroke-miterlimit="10" stroke-linejoin="miter" fill="none" stroke="#3366cc" d="M -2.8284274 -2.8284274 L 2.8284274 2.8284274 M -2.8284274 2.8284274 L 2.8284274 -2.8284274 "/>
<path transform="matrix(.75,0,0,.75,98.0625,125.85126)" stroke-width=".666667" stroke-linecap="butt" stroke-miterlimit="10" stroke-linejoin="miter" fill="none" stroke="#3366cc" d="M -2.8284274 -2.8284274 L 2.8284274 2.8284274 M -2.8284274 2.8284274 L 2.8284274 -2.8284274 "/>
<path transform="matrix(.75,0,0,.75,139.875,93.817119)" stroke-width=".666667" stroke-linecap="butt" stroke-miterlimit="10" stroke-linejoin="miter" fill="none" stroke="#3366cc" d="M -2.8284274 -2.8284274 L 2.8284274 2.8284274 M -2.8284274 2.8284274 L 2.8284274 -2.8284274 "/>
<path transform="matrix(.75,0,0,.75,181.6875,67.1735)" stroke-width=".666667" stroke-linecap="butt" stroke-miterlimit="10" stroke-linejoin="miter" fill="none" stroke="#3366cc" d="M -2.8284274 -2.8284274 L 2.8284274 2.8284274 M -2.8284274 2.8284274 L 2.8284274 -2.8284274 "/>
<path transform="matrix(.75,0,0,.75,223.5,47.479906)" stroke-width=".666667" stroke-linecap="butt" stroke-miterlimit="10" stroke-linejoin="miter" fill="none" stroke="#3366cc" d="M -2.8284274 -2.8284274 L 2.8284274 2.8284274 M -2.8284274 2.8284274 L 2.8284274 -2.8284274 "/>
<path transform="matrix(.75,0,0,.75,56.25,180)" stroke-width=".666667" stroke-linecap="butt" stroke-miterlimit="10" stroke-linejoin="miter" fill="none" stroke="#3366cc" d="M -2.8284274 -2.8284274 L 2.8284274 2.8284274 M -2.8284274 2.8284274 L 2.8284274 -2.8284274 "/>
<path transform="matrix(.75,0,0,.75,98.0625,124.77849)" stroke-width=".666667" stroke-linecap="butt" stroke-miterlimit="10" stroke-linejoin="miter" fill="none" stroke="#3366cc" d="M -2.8284274 -2.8284274 L 2.8284274 2.8284274 M -2.8284274 2.8284274 L 2.8284274 -2.8284274 "/>
<path transform="matrix(.75,0,0,.75,139.875,80.85657)" stroke-width=".666667" stroke-linecap="butt" stroke-miterlimit="10" stroke-linejoin="miter" fill="none" stroke="#3366cc" d="M -2.8284274 -2.8284274 L 2.8284274 2.8284274 M -2.8284274 2.8284274 L 2.8284274 -2.8284274 "/>
<path transform="matrix(.75,0,0,.75,181.6875,58.23293)" stroke-width=".666667" stroke-linecap="butt" stroke-miterlimit="10" stroke-linejoin="miter" fill="none" stroke="#3366cc" d="M -2.8284274 -2.8284274 L 2.8284274 2.8284274 M -2.8284274 2.8284274 L 2.8284274 -2.8284274 "/>
<path transform="matrix(.75,0,0,.75,223.5,41.902784)" stroke-width=".666667" stroke-linecap="butt" stroke-miterlimit="10" stroke-linejoin="miter" fill="none" stroke="#3366cc" d="M -2.8284274 -2.8284274 L 2.8284274 2.8284274 M -2.8284274 2.8284274 L 2.8284274 -2.8284274 "/>
<path transform="matrix(.75,0,0,.75,56.25,180)" stroke-width=".666667" stroke-linecap="butt" stroke-miterlimit="10" stroke-linejoin="miter" fill="none" stroke="#3366cc" d="M -2.8284274 -2.8284274 L 2.8284274 2.8284274 M -2.8284274 2.8284274 L 2.8284274 -2.8284274 "/>
<path transform="matrix(.75,0,0,.75,98.0625,114.73664)" stroke-width=".666667" stroke-linecap="butt" stroke-miterlimit="10" stroke-linejoin="miter" fill="none" stroke="#3366cc" d="M -2.8284274 -2.8284274 L 2.8284274 2.8284274 M -2.8284274 2.8284274 L 2.8284274 -2.8284274 "/>
<path transform="matrix(.75,0,0,.75,139.875,79.03966)" stroke-width=".666667" stroke-linecap="butt" stroke-miterlimit="10" stroke-linejoin="miter" fill="none" stroke="#3366cc" d="M -2.8284274 -2.8284274 L 2.8284274 2.8284274 M -2.8284274 2.8284274 L 2.8284274 -2.8284274 "/>
<path transform="matrix(.75,0,0,.75,181.6875,53.789388)" stroke-width=".666667" stroke-linecap="butt" stroke-miterlimit="10" stroke-linejoin="miter" fill="none" stroke="#3366cc" d="M -2.8284274 -2.8284274 L 2.8284274 2.8284274 M -2.8284274 2.8284274 L 2.8284274 -2.8284274 "/>
<path transform="matrix(.75,0,0,.75,223.5,37.37002)" stroke-width=".666667" stroke-linecap="butt" stroke-miterlimit="10" stroke-linejoin="miter" fill="none" stroke="#3366cc" d="M -2.8284274 -2.8284274 L 2.8284274 2.8284274 M -2.8284274 2.8284274 L 2.8284274 -2.8284274 "/>
<path transform="matrix(.75,0,0,.75,56.25,180)" stroke-width=".666667" stroke-linecap="butt" stroke-miterlimit="10" stroke-linejoin="miter" fill="none" stroke="#3366cc" d="M -2.8284274 -2.8284274 L 2.8284274 2.8284274 M -2.8284274 2.8284274 L 2.8284274 -2.8284274 "/>
<path transform="matrix(.75,0,0,.75,98.0625,114.43717)" stroke-width=".666667" stroke-linecap="butt" stroke-miterlimit="10" stroke-linejoin="miter" fill="none" stroke="#3366cc" d="M -2.8284274 -2.8284274 L 2.8284274 2.8284274 M -2.8284274 2.8284274 L 2.8284274 -2.8284274 "/>
<path transform="matrix(.75,0,0,.75,139.875,66.66436)" stroke-width=".666667" stroke-linecap="butt" stroke-miterlimit="10" stroke-linejoin="miter" fill="none" stroke="#3366cc" d="M -2.8284274 -2.8284274 L 2.8284274 2.8284274 M -2.8284274 2.8284274 L 2.8284274 -2.8284274 "/>
<path transform="matrix(.75,0,0,.75,181.6875,50.92652)" stroke-width=".666667" stroke-linecap="butt" stroke-miterlimit="10" stroke-linejoin="miter" fill="none" stroke="#3366cc" d="M -2.8284274 -2.8284274 L 2.8284274 2.8284274 M -2.8284274 2.8284274 L 2.8284274 -2.8284274 "/>
<path transform="matrix(.75,0,0,.75,223.5,32.876398)" stroke-width=".666667" stroke-linecap="butt" stroke-miterlimit="10" stroke-linejoin="miter" fill="none" stroke="#3366cc" d="M -2.8284274 -2.8284274 L 2.8284274 2.8284274 M -2.8284274 2.8284274 L 2.8284274 -2.8284274 "/>
<path transform="matrix(.75,0,0,.75,0,0)" d="M 75 513 L 521 513 L 521 316 L 75 316 Z " fill="#ffffff"/>
<path transform="matrix(.75,0,0,.75,0,0)" stroke-width=".666667" stroke-linecap="square" stroke-linejoin="round" fill="none" stroke="#323232" d="M 75 513 L 521 513 "/>
<path transform="matrix(.75,0,0,.75,0,0)" stroke-width=".666667" stroke-linecap="square" stroke-linejoin="round" fill="none" stroke="#323232" d="M 75 316 L 521 316 "/>
<path transform="matrix(.75,0,0,.75,0,0)" stroke-width=".666667" stroke-linecap="square" stroke-linejoin="round" fill="none" stroke="#323232" d="M 75 513 L 75 508.54 "/>
<path transform="matrix(.75,0,0,.75,0,0)" stroke-width=".666667" stroke-linecap="square" stroke-linejoin="round" fill="none" stroke="#323232" d="M 119.6 513 L 119.6 508.54 "/>
<path transform="matrix(.75,0,0,.75,0,0)" stroke-width=".666667" stroke-linecap="square" stroke-linejoin="round" fill="none" stroke="#323232" d="M 164.2 513 L 164.2 508.54 "/>
<path transform="matrix(.75,0,0,.75,0,0)" stroke-width=".666667" stroke-linecap="square" stroke-linejoin="round" fill="none" stroke="#323232" d="M 208.8 513 L 208.8 508.54 "/>
<path transform="matrix(.75,0,0,.75,0,0)" stroke-width=".666667" stroke-linecap="square" stroke-linejoin="round" fill="none" stroke="#323232" d="M 253.40001 513 L 253.40001 508.54 "/>
<path transform="matrix(.75,0,0,.75,0,0)" stroke-width=".666667" stroke-linecap="square" stroke-linejoin="round" fill="none" stroke="#323232" d="M 298 513 L 298 508.54 "/>
<path transform="matrix(.75,0,0,.75,0,0)" stroke-width=".666667" stroke-linecap="square" stroke-linejoin="round" fill="none" stroke="#323232" d="M 342.6 513 L 342.6 508.54 "/>
<path transform="matrix(.75,0,0,.75,0,0)" stroke-width=".666667" stroke-linecap="square" stroke-linejoin="round" fill="none" stroke="#323232" d="M 387.19999 513 L 387.19999 508.54 "/>
<path transform="matrix(.75,0,0,.75,0,0)" stroke-width=".666667" stroke-linecap="square" stroke-linejoin="round" fill="none" stroke="#323232" d="M 431.80003 513 L 431.80003 508.54 "/>
<path transform="matrix(.75,0,0,.75,0,0)" stroke-width=".666667" stroke-linecap="square" stroke-linejoin="round" fill="none" stroke="#323232" d="M 476.4 513 L 476.4 508.54 "/>
<path transform="matrix(.75,0,0,.75,0,0)" stroke-width=".666667" stroke-linecap="square" stroke-linejoin="round" fill="none" stroke="#323232" d="M 521 513 L 521 508.54 "/>
<path transform="matrix(.75,0,0,.75,0,0)" stroke-width=".666667" stroke-linecap="square" stroke-linejoin="round" fill="none" stroke="#323232" d="M 75 316 L 75 320.46 "/>
<path transform="matrix(.75,0,0,.75,0,0)" stroke-width=".666667" stroke-linecap="square" stroke-linejoin="round" fill="none" stroke="#323232" d="M 119.6 316 L 119.6 320.46 "/>
<path transform="matrix(.75,0,0,.75,0,0)" stroke-width=".666667" stroke-linecap="square" stroke-linejoin="round" fill="none" stroke="#323232" d="M 164.2 316 L 164.2 320.46 "/>
<path transform="matrix(.75,0,0,.75,0,0)" stroke-width=".666667" stroke-linecap="square" stroke-linejoin="round" fill="none" stroke="#323232" d="M 208.8 316 L 208.8 320.46 "/>
<path transform="matrix(.75,0,0,.75,0,0)" stroke-width=".666667" stroke-linecap="square" stroke-linejoin="round" fill="none" stroke="#323232" d="M 253.40001 316 L 253.40001 320.46 "/>
<path transform="matrix(.75,0,0,.75,0,0)" stroke-width=".666667" stroke-linecap="square" stroke-linejoin="round" fill="none" stroke="#323232" d="M 298 316 L 298 320.46 "/>
<path transform="matrix(.75,0,0,.75,0,0)" stroke-width=".666667" stroke-linecap="square" stroke-linejoin="round" fill="none" stroke="#323232" d="M 342.6 316 L 342.6 320.46 "/>
<path transform="matrix(.75,0,0,.75,0,0)" stroke-width=".666667" stroke-linecap="square" stroke-linejoin="round" fill="none" stroke="#323232" d="M 387.19999 316 L 387.19999 320.46 "/>
<path transform="matrix(.75,0,0,.75,0,0)" stroke-width=".666667" stroke-linecap="square" stroke-linejoin="round" fill="none" stroke="#323232" d="M 431.80003 316 L 431.80003 320.46 "/>
<path transform="matrix(.75,0,0,.75,0,0)" stroke-width=".666667" stroke-linecap="square" stroke-linejoin="round" fill="none" stroke="#323232" d="M 476.4 316 L 476.4 320.46 "/>
<path transform="matrix(.75,0,0,.75,0,0)" stroke-width=".666667" stroke-linecap="square" stroke-linejoin="round" fill="none" stroke="#323232" d="M 521 316 L 521 320.46 "/>
<text fill="#323232" xml:space="preserve" transform="matrix(.75 0 0 .75 56.25 388.74998)" font-size="13.333" font-family="Helvetica"><tspan y="14" x="-4">0</tspan></text>
<text fill="#323232" xml:space="preserve" transform="matrix(.75 0 0 .75 89.7 388.74998)" font-size="13.333" font-family="Helvetica"><tspan y="14" x="-9.5 -2.0868512 1.6197233">0.1</tspan></text>
<text fill="#323232" xml:space="preserve" transform="matrix(.75 0 0 .75 123.149997 388.74998)" font-size="13.333" font-family="Helvetica"><tspan y="14" x="-9.5 -2.0868512 1.6197233">0.2</tspan></text>
<text fill="#323232" xml:space="preserve" transform="matrix(.75 0 0 .75 156.6 388.74998)" font-size="13.333" font-family="Helvetica"><tspan y="14" x="-9.5 -2.0868512 1.6197233">0.3</tspan></text>
<text fill="#323232" xml:space="preserve" transform="matrix(.75 0 0 .75 190.05 388.74998)" font-size="13.333" font-family="Helvetica"><tspan y="14" x="-9.5 -2.0868512 1.6197233">0.4</tspan></text>
<text fill="#323232" xml:space="preserve" transform="matrix(.75 0 0 .75 223.5 388.74998)" font-size="13.333" font-family="Helvetica"><tspan y="14" x="-9.5 -2.0868512 1.6197233">0.5</tspan></text>
<text fill="#323232" xml:space="preserve" transform="matrix(.75 0 0 .75 256.95 388.74998)" font-size="13.333" font-family="Helvetica"><tspan y="14" x="-9.5 -2.0868512 1.6197233">0.6</tspan></text>
<text fill="#323232" xml:space="preserve" transform="matrix(.75 0 0 .75 290.4 388.74998)" font-size="13.333" font-family="Helvetica"><tspan y="14" x="-9.5 -2.0868512 1.6197233">0.7</tspan></text>
<text fill="#323232" xml:space="preserve" transform="matrix(.75 0 0 .75 323.85 388.74998)" font-size="13.333" font-family="Helvetica"><tspan y="14" x="-9.5 -2.0868512 1.6197233">0.8</tspan></text>
<text fill="#323232" xml:space="preserve" transform="matrix(.75 0 0 .75 357.3 388.74998)" font-size="13.333" font-family="Helvetica"><tspan y="14" x="-9.5 -2.0868512 1.6197233">0.9</tspan></text>
<text fill="#323232" xml:space="preserve" transform="matrix(.75 0 0 .75 390.75 388.74998)" font-size="13.333" font-family="Helvetica"><tspan y="14" x="-4">1</tspan></text>
<text fill="#323232" xml:space="preserve" transform="matrix(.75 0 0 .75 180 414)" font-size="14.667" font-family="Helvetica"><tspan y="0" x="0 7.3335 11.410927 14.667001 22.821854 26.89928 36.68217">x in Bi</tspan></text>
<text fill="#323232" xml:space="preserve" transform="matrix(.75 0 0 .75 210 419.25)" font-size="11.733" font-family="Helvetica"><tspan y="0" x="0 3.907089 10.430637 14.337727 20.204228">(1-x)</tspan></text>
<text fill="#323232" xml:space="preserve" transform="matrix(.75 0 0 .75 228.75 414)" font-size="14.667" font-family="Helvetica"><tspan y="0" x="0 9.782889">Pb</tspan></text>
<text fill="#323232" xml:space="preserve" transform="matrix(.75 0 0 .75 242.25 419.25)" font-size="11.733" font-family="Helvetica"><tspan y="0" x="0">x</tspan></text>
<text fill="#323232" xml:space="preserve" transform="matrix(.75 0 0 .75 246.75 414)" font-size="14.667" font-family="Helvetica"><tspan y="0" x="0">F</tspan></text>
<text fill="#323232" xml:space="preserve" transform="matrix(.75 0 0 .75 253.5 419.25)" font-size="11.733" font-family="Helvetica"><tspan y="0" x="0 6.5235488 10.430637">3-x</tspan></text>
<path transform="matrix(.75,0,0,.75,0,0)" stroke-width=".666667" stroke-linecap="square" stroke-linejoin="round" fill="none" stroke="#323232" d="M 75 513 L 75 316 "/>
<path transform="matrix(.75,0,0,.75,0,0)" stroke-width=".666667" stroke-linecap="square" stroke-linejoin="round" fill="none" stroke="#323232" d="M 521 513 L 521 316 "/>
<path transform="matrix(.75,0,0,.75,0,0)" stroke-width=".666667" stroke-linecap="square" stroke-linejoin="round" fill="none" stroke="#323232" d="M 75 513 L 79.46 513 "/>
<path transform="matrix(.75,0,0,.75,0,0)" stroke-width=".666667" stroke-linecap="square" stroke-linejoin="round" fill="none" stroke="#323232" d="M 75 473.6 L 79.46 473.6 "/>
<path transform="matrix(.75,0,0,.75,0,0)" stroke-width=".666667" stroke-linecap="square" stroke-linejoin="round" fill="none" stroke="#323232" d="M 75 434.2 L 79.46 434.2 "/>
<path transform="matrix(.75,0,0,.75,0,0)" stroke-width=".666667" stroke-linecap="square" stroke-linejoin="round" fill="none" stroke="#323232" d="M 75 394.8 L 79.46 394.8 "/>
<path transform="matrix(.75,0,0,.75,0,0)" stroke-width=".666667" stroke-linecap="square" stroke-linejoin="round" fill="none" stroke="#323232" d="M 75 355.4 L 79.46 355.4 "/>
<path transform="matrix(.75,0,0,.75,0,0)" stroke-width=".666667" stroke-linecap="square" stroke-linejoin="round" fill="none" stroke="#323232" d="M 75 316 L 79.46 316 "/>
<path transform="matrix(.75,0,0,.75,0,0)" stroke-width=".666667" stroke-linecap="square" stroke-linejoin="round" fill="none" stroke="#323232" d="M 521 513 L 516.54 513 "/>
<path transform="matrix(.75,0,0,.75,0,0)" stroke-width=".666667" stroke-linecap="square" stroke-linejoin="round" fill="none" stroke="#323232" d="M 521 473.6 L 516.54 473.6 "/>
<path transform="matrix(.75,0,0,.75,0,0)" stroke-width=".666667" stroke-linecap="square" stroke-linejoin="round" fill="none" stroke="#323232" d="M 521 434.2 L 516.54 434.2 "/>
<path transform="matrix(.75,0,0,.75,0,0)" stroke-width=".666667" stroke-linecap="square" stroke-linejoin="round" fill="none" stroke="#323232" d="M 521 394.8 L 516.54 394.8 "/>
<path transform="matrix(.75,0,0,.75,0,0)" stroke-width=".666667" stroke-linecap="square" stroke-linejoin="round" fill="none" stroke="#323232" d="M 521 355.4 L 516.54 355.4 "/>
<path transform="matrix(.75,0,0,.75,0,0)" stroke-width=".666667" stroke-linecap="square" stroke-linejoin="round" fill="none" stroke="#323232" d="M 521 316 L 516.54 316 "/>
<text fill="#323232" xml:space="preserve" transform="matrix(.75 0 0 .75 52.249998 384.75)" font-size="13.333" font-family="Helvetica"><tspan y="5.5" x="-23 -18.560112 -11.146963 -7.4403889">-0.2</tspan></text>
<text fill="#323232" xml:space="preserve" transform="matrix(.75 0 0 .75 52.249998 355.2)" font-size="13.333" font-family="Helvetica"><tspan y="5.5" x="-31 -26.560112 -19.146964 -15.440389 -8.02724">-0.15</tspan></text>
<text fill="#323232" xml:space="preserve" transform="matrix(.75 0 0 .75 52.249998 325.65)" font-size="13.333" font-family="Helvetica"><tspan y="5.5" x="-23 -18.560112 -11.146963 -7.4403889">-0.1</tspan></text>
<text fill="#323232" xml:space="preserve" transform="matrix(.75 0 0 .75 52.249998 296.09999)" font-size="13.333" font-family="Helvetica"><tspan y="5.5" x="-31 -26.560112 -19.146964 -15.440389 -8.02724">-0.05</tspan></text>
<text fill="#323232" xml:space="preserve" transform="matrix(.75 0 0 .75 52.249998 266.55)" font-size="13.333" font-family="Helvetica"><tspan y="5.5" x="-8">0</tspan></text>
<text fill="#323232" xml:space="preserve" transform="matrix(.75 0 0 .75 52.249998 237)" font-size="13.333" font-family="Helvetica"><tspan y="5.5" x="-26 -18.586852 -14.880277 -7.467128">0.05</tspan></text>
<text fill="#323232" xml:space="preserve" transform="matrix(-.0000000325 -.75 .75 -.0000000325 26 310.87495)" font-size="14.667" font-family="Helvetica"><tspan y="-4" x="-92 -83.03846 -74.883609 -69.9995 -57.781885 -49.62703 -45.549604 -42.29353 -34.138677 -25.983822 -21.906395 -13.751542 -5.596689 2.5581637 7.4422748 15.597128 22.930628 27.008055 35.162908 39.240335 47.395189 59.6128 63.690229 68.57434 76.729198 86.512088">Formation energy/atom (eV)</tspan></text>
<text xml:space="preserve" transform="matrix(.75 0 0 .75 223.50023 234.9375)" font-size="14.667" font-family="Helvetica" font-weight="bold"><tspan y="-4" x="-22 -13.038463 .000500679 8.155354">Fm3m</tspan></text>
<path transform="matrix(.75,0,0,.75,0,0)" stroke-width=".666667" stroke-linecap="butt" stroke-linejoin="round" fill="none" stroke="#000000" d="M 75 355.4 L 130.75 488.27757 L 186.5 493.23655 L 298 459.1473 L 353.75 436.8125 L 409.5 409.77568 L 521 355.4 "/>
<path transform="matrix(.75,0,0,.75,56.25,266.55)" stroke-width=".666667" stroke-linecap="butt" stroke-miterlimit="10" stroke-linejoin="miter" fill="none" stroke="#dc3912" d="M -2.8284274 -2.8284274 L 2.8284274 2.8284274 M -2.8284274 2.8284274 L 2.8284274 -2.8284274 "/>
<path transform="matrix(.75,0,0,.75,98.0625,366.20817)" stroke-width=".666667" stroke-linecap="butt" stroke-miterlimit="10" stroke-linejoin="miter" fill="none" stroke="#dc3912" d="M -2.8284274 -2.8284274 L 2.8284274 2.8284274 M -2.8284274 2.8284274 L 2.8284274 -2.8284274 "/>
<path transform="matrix(.75,0,0,.75,139.875,369.9274)" stroke-width=".666667" stroke-linecap="butt" stroke-miterlimit="10" stroke-linejoin="miter" fill="none" stroke="#dc3912" d="M -2.8284274 -2.8284274 L 2.8284274 2.8284274 M -2.8284274 2.8284274 L 2.8284274 -2.8284274 "/>
<path transform="matrix(.75,0,0,.75,181.6875,355.95365)" stroke-width=".666667" stroke-linecap="butt" stroke-miterlimit="10" stroke-linejoin="miter" fill="none" stroke="#dc3912" d="M -2.8284274 -2.8284274 L 2.8284274 2.8284274 M -2.8284274 2.8284274 L 2.8284274 -2.8284274 "/>
<path transform="matrix(.75,0,0,.75,223.5,344.36048)" stroke-width=".666667" stroke-linecap="butt" stroke-miterlimit="10" stroke-linejoin="miter" fill="none" stroke="#dc3912" d="M -2.8284274 -2.8284274 L 2.8284274 2.8284274 M -2.8284274 2.8284274 L 2.8284274 -2.8284274 "/>
<path transform="matrix(.75,0,0,.75,265.3125,327.60939)" stroke-width=".666667" stroke-linecap="butt" stroke-miterlimit="10" stroke-linejoin="miter" fill="none" stroke="#dc3912" d="M -2.8284274 -2.8284274 L 2.8284274 2.8284274 M -2.8284274 2.8284274 L 2.8284274 -2.8284274 "/>
<path transform="matrix(.75,0,0,.75,307.125,307.33177)" stroke-width=".666667" stroke-linecap="butt" stroke-miterlimit="10" stroke-linejoin="miter" fill="none" stroke="#dc3912" d="M -2.8284274 -2.8284274 L 2.8284274 2.8284274 M -2.8284274 2.8284274 L 2.8284274 -2.8284274 "/>
<path transform="matrix(.75,0,0,.75,348.9375,276.37794)" stroke-width=".666667" stroke-linecap="butt" stroke-miterlimit="10" stroke-linejoin="miter" fill="none" stroke="#dc3912" d="M -2.8284274 -2.8284274 L 2.8284274 2.8284274 M -2.8284274 2.8284274 L 2.8284274 -2.8284274 "/>
<path transform="matrix(.75,0,0,.75,390.75,266.55)" stroke-width=".666667" stroke-linecap="butt" stroke-miterlimit="10" stroke-linejoin="miter" fill="none" stroke="#dc3912" d="M -2.8284274 -2.8284274 L 2.8284274 2.8284274 M -2.8284274 2.8284274 L 2.8284274 -2.8284274 "/>
<path transform="matrix(.75,0,0,.75,56.25,266.55)" stroke-width=".666667" stroke-linecap="butt" stroke-miterlimit="10" stroke-linejoin="miter" fill="none" stroke="#dc3912" d="M -2.8284274 -2.8284274 L 2.8284274 2.8284274 M -2.8284274 2.8284274 L 2.8284274 -2.8284274 "/>
<path transform="matrix(.75,0,0,.75,98.0625,361.8602)" stroke-width=".666667" stroke-linecap="butt" stroke-miterlimit="10" stroke-linejoin="miter" fill="none" stroke="#dc3912" d="M -2.8284274 -2.8284274 L 2.8284274 2.8284274 M -2.8284274 2.8284274 L 2.8284274 -2.8284274 "/>
<path transform="matrix(.75,0,0,.75,139.875,369.20716)" stroke-width=".666667" stroke-linecap="butt" stroke-miterlimit="10" stroke-linejoin="miter" fill="none" stroke="#dc3912" d="M -2.8284274 -2.8284274 L 2.8284274 2.8284274 M -2.8284274 2.8284274 L 2.8284274 -2.8284274 "/>
<path transform="matrix(.75,0,0,.75,181.6875,355.2143)" stroke-width=".666667" stroke-linecap="butt" stroke-miterlimit="10" stroke-linejoin="miter" fill="none" stroke="#dc3912" d="M -2.8284274 -2.8284274 L 2.8284274 2.8284274 M -2.8284274 2.8284274 L 2.8284274 -2.8284274 "/>
<path transform="matrix(.75,0,0,.75,223.5,342.0615)" stroke-width=".666667" stroke-linecap="butt" stroke-miterlimit="10" stroke-linejoin="miter" fill="none" stroke="#dc3912" d="M -2.8284274 -2.8284274 L 2.8284274 2.8284274 M -2.8284274 2.8284274 L 2.8284274 -2.8284274 "/>
<path transform="matrix(.75,0,0,.75,265.3125,327.56373)" stroke-width=".666667" stroke-linecap="butt" stroke-miterlimit="10" stroke-linejoin="miter" fill="none" stroke="#dc3912" d="M -2.8284274 -2.8284274 L 2.8284274 2.8284274 M -2.8284274 2.8284274 L 2.8284274 -2.8284274 "/>
<path transform="matrix(.75,0,0,.75,307.125,305.90586)" stroke-width=".666667" stroke-linecap="butt" stroke-miterlimit="10" stroke-linejoin="miter" fill="none" stroke="#dc3912" d="M -2.8284274 -2.8284274 L 2.8284274 2.8284274 M -2.8284274 2.8284274 L 2.8284274 -2.8284274 "/>
<path transform="matrix(.75,0,0,.75,348.9375,273.26243)" stroke-width=".666667" stroke-linecap="butt" stroke-miterlimit="10" stroke-linejoin="miter" fill="none" stroke="#dc3912" d="M -2.8284274 -2.8284274 L 2.8284274 2.8284274 M -2.8284274 2.8284274 L 2.8284274 -2.8284274 "/>
<path transform="matrix(.75,0,0,.75,56.25,266.55)" stroke-width=".666667" stroke-linecap="butt" stroke-miterlimit="10" stroke-linejoin="miter" fill="none" stroke="#dc3912" d="M -2.8284274 -2.8284274 L 2.8284274 2.8284274 M -2.8284274 2.8284274 L 2.8284274 -2.8284274 "/>
<path transform="matrix(.75,0,0,.75,98.0625,361.67976)" stroke-width=".666667" stroke-linecap="butt" stroke-miterlimit="10" stroke-linejoin="miter" fill="none" stroke="#dc3912" d="M -2.8284274 -2.8284274 L 2.8284274 2.8284274 M -2.8284274 2.8284274 L 2.8284274 -2.8284274 "/>
<path transform="matrix(.75,0,0,.75,139.875,362.7962)" stroke-width=".666667" stroke-linecap="butt" stroke-miterlimit="10" stroke-linejoin="miter" fill="none" stroke="#dc3912" d="M -2.8284274 -2.8284274 L 2.8284274 2.8284274 M -2.8284274 2.8284274 L 2.8284274 -2.8284274 "/>
<path transform="matrix(.75,0,0,.75,181.6875,354.11585)" stroke-width=".666667" stroke-linecap="butt" stroke-miterlimit="10" stroke-linejoin="miter" fill="none" stroke="#dc3912" d="M -2.8284274 -2.8284274 L 2.8284274 2.8284274 M -2.8284274 2.8284274 L 2.8284274 -2.8284274 "/>
<path transform="matrix(.75,0,0,.75,223.5,341.7472)" stroke-width=".666667" stroke-linecap="butt" stroke-miterlimit="10" stroke-linejoin="miter" fill="none" stroke="#dc3912" d="M -2.8284274 -2.8284274 L 2.8284274 2.8284274 M -2.8284274 2.8284274 L 2.8284274 -2.8284274 "/>
<path transform="matrix(.75,0,0,.75,265.3125,327.12825)" stroke-width=".666667" stroke-linecap="butt" stroke-miterlimit="10" stroke-linejoin="miter" fill="none" stroke="#dc3912" d="M -2.8284274 -2.8284274 L 2.8284274 2.8284274 M -2.8284274 2.8284274 L 2.8284274 -2.8284274 "/>
<path transform="matrix(.75,0,0,.75,307.125,302.30305)" stroke-width=".666667" stroke-linecap="butt" stroke-miterlimit="10" stroke-linejoin="miter" fill="none" stroke="#dc3912" d="M -2.8284274 -2.8284274 L 2.8284274 2.8284274 M -2.8284274 2.8284274 L 2.8284274 -2.8284274 "/>
<path transform="matrix(.75,0,0,.75,348.9375,271.29734)" stroke-width=".666667" stroke-linecap="butt" stroke-miterlimit="10" stroke-linejoin="miter" fill="none" stroke="#dc3912" d="M -2.8284274 -2.8284274 L 2.8284274 2.8284274 M -2.8284274 2.8284274 L 2.8284274 -2.8284274 "/>
<path transform="matrix(.75,0,0,.75,56.25,266.55)" stroke-width=".666667" stroke-linecap="butt" stroke-miterlimit="10" stroke-linejoin="miter" fill="none" stroke="#dc3912" d="M -2.8284274 -2.8284274 L 2.8284274 2.8284274 M -2.8284274 2.8284274 L 2.8284274 -2.8284274 "/>
<path transform="matrix(.75,0,0,.75,98.0625,359.36946)" stroke-width=".666667" stroke-linecap="butt" stroke-miterlimit="10" stroke-linejoin="miter" fill="none" stroke="#dc3912" d="M -2.8284274 -2.8284274 L 2.8284274 2.8284274 M -2.8284274 2.8284274 L 2.8284274 -2.8284274 "/>
<path transform="matrix(.75,0,0,.75,139.875,362.00376)" stroke-width=".666667" stroke-linecap="butt" stroke-miterlimit="10" stroke-linejoin="miter" fill="none" stroke="#dc3912" d="M -2.8284274 -2.8284274 L 2.8284274 2.8284274 M -2.8284274 2.8284274 L 2.8284274 -2.8284274 "/>
<path transform="matrix(.75,0,0,.75,181.6875,351.92179)" stroke-width=".666667" stroke-linecap="butt" stroke-miterlimit="10" stroke-linejoin="miter" fill="none" stroke="#dc3912" d="M -2.8284274 -2.8284274 L 2.8284274 2.8284274 M -2.8284274 2.8284274 L 2.8284274 -2.8284274 "/>
<path transform="matrix(.75,0,0,.75,223.5,340.46104)" stroke-width=".666667" stroke-linecap="butt" stroke-miterlimit="10" stroke-linejoin="miter" fill="none" stroke="#dc3912" d="M -2.8284274 -2.8284274 L 2.8284274 2.8284274 M -2.8284274 2.8284274 L 2.8284274 -2.8284274 "/>
<path transform="matrix(.75,0,0,.75,265.3125,325.01237)" stroke-width=".666667" stroke-linecap="butt" stroke-miterlimit="10" stroke-linejoin="miter" fill="none" stroke="#dc3912" d="M -2.8284274 -2.8284274 L 2.8284274 2.8284274 M -2.8284274 2.8284274 L 2.8284274 -2.8284274 "/>
<path transform="matrix(.75,0,0,.75,307.125,301.96003)" stroke-width=".666667" stroke-linecap="butt" stroke-miterlimit="10" stroke-linejoin="miter" fill="none" stroke="#dc3912" d="M -2.8284274 -2.8284274 L 2.8284274 2.8284274 M -2.8284274 2.8284274 L 2.8284274 -2.8284274 "/>
<path transform="matrix(.75,0,0,.75,348.9375,270.79783)" stroke-width=".666667" stroke-linecap="butt" stroke-miterlimit="10" stroke-linejoin="miter" fill="none" stroke="#dc3912" d="M -2.8284274 -2.8284274 L 2.8284274 2.8284274 M -2.8284274 2.8284274 L 2.8284274 -2.8284274 "/>
<path transform="matrix(.75,0,0,.75,56.25,266.55)" stroke-width=".666667" stroke-linecap="butt" stroke-miterlimit="10" stroke-linejoin="miter" fill="none" stroke="#dc3912" d="M -2.8284274 -2.8284274 L 2.8284274 2.8284274 M -2.8284274 2.8284274 L 2.8284274 -2.8284274 "/>
<path transform="matrix(.75,0,0,.75,98.0625,357.03547)" stroke-width=".666667" stroke-linecap="butt" stroke-miterlimit="10" stroke-linejoin="miter" fill="none" stroke="#dc3912" d="M -2.8284274 -2.8284274 L 2.8284274 2.8284274 M -2.8284274 2.8284274 L 2.8284274 -2.8284274 "/>
<path transform="matrix(.75,0,0,.75,139.875,361.48359)" stroke-width=".666667" stroke-linecap="butt" stroke-miterlimit="10" stroke-linejoin="miter" fill="none" stroke="#dc3912" d="M -2.8284274 -2.8284274 L 2.8284274 2.8284274 M -2.8284274 2.8284274 L 2.8284274 -2.8284274 "/>
<path transform="matrix(.75,0,0,.75,181.6875,351.40223)" stroke-width=".666667" stroke-linecap="butt" stroke-miterlimit="10" stroke-linejoin="miter" fill="none" stroke="#dc3912" d="M -2.8284274 -2.8284274 L 2.8284274 2.8284274 M -2.8284274 2.8284274 L 2.8284274 -2.8284274 "/>
<path transform="matrix(.75,0,0,.75,223.5,340.06507)" stroke-width=".666667" stroke-linecap="butt" stroke-miterlimit="10" stroke-linejoin="miter" fill="none" stroke="#dc3912" d="M -2.8284274 -2.8284274 L 2.8284274 2.8284274 M -2.8284274 2.8284274 L 2.8284274 -2.8284274 "/>
<path transform="matrix(.75,0,0,.75,265.3125,321.1657)" stroke-width=".666667" stroke-linecap="butt" stroke-miterlimit="10" stroke-linejoin="miter" fill="none" stroke="#dc3912" d="M -2.8284274 -2.8284274 L 2.8284274 2.8284274 M -2.8284274 2.8284274 L 2.8284274 -2.8284274 "/>
<path transform="matrix(.75,0,0,.75,307.125,299.96424)" stroke-width=".666667" stroke-linecap="butt" stroke-miterlimit="10" stroke-linejoin="miter" fill="none" stroke="#dc3912" d="M -2.8284274 -2.8284274 L 2.8284274 2.8284274 M -2.8284274 2.8284274 L 2.8284274 -2.8284274 "/>
<path transform="matrix(.75,0,0,.75,348.9375,269.19764)" stroke-width=".666667" stroke-linecap="butt" stroke-miterlimit="10" stroke-linejoin="miter" fill="none" stroke="#dc3912" d="M -2.8284274 -2.8284274 L 2.8284274 2.8284274 M -2.8284274 2.8284274 L 2.8284274 -2.8284274 "/>
<path transform="matrix(.75,0,0,.75,56.25,266.55)" stroke-width=".666667" stroke-linecap="butt" stroke-miterlimit="10" stroke-linejoin="miter" fill="none" stroke="#dc3912" d="M -2.8284274 -2.8284274 L 2.8284274 2.8284274 M -2.8284274 2.8284274 L 2.8284274 -2.8284274 "/>
<path transform="matrix(.75,0,0,.75,98.0625,356.63417)" stroke-width=".666667" stroke-linecap="butt" stroke-miterlimit="10" stroke-linejoin="miter" fill="none" stroke="#dc3912" d="M -2.8284274 -2.8284274 L 2.8284274 2.8284274 M -2.8284274 2.8284274 L 2.8284274 -2.8284274 "/>
<path transform="matrix(.75,0,0,.75,139.875,359.31)" stroke-width=".666667" stroke-linecap="butt" stroke-miterlimit="10" stroke-linejoin="miter" fill="none" stroke="#dc3912" d="M -2.8284274 -2.8284274 L 2.8284274 2.8284274 M -2.8284274 2.8284274 L 2.8284274 -2.8284274 "/>
<path transform="matrix(.75,0,0,.75,181.6875,350.95695)" stroke-width=".666667" stroke-linecap="butt" stroke-miterlimit="10" stroke-linejoin="miter" fill="none" stroke="#dc3912" d="M -2.8284274 -2.8284274 L 2.8284274 2.8284274 M -2.8284274 2.8284274 L 2.8284274 -2.8284274 "/>
<path transform="matrix(.75,0,0,.75,223.5,338.4453)" stroke-width=".666667" stroke-linecap="butt" stroke-miterlimit="10" stroke-linejoin="miter" fill="none" stroke="#dc3912" d="M -2.8284274 -2.8284274 L 2.8284274 2.8284274 M -2.8284274 2.8284274 L 2.8284274 -2.8284274 "/>
<path transform="matrix(.75,0,0,.75,265.3125,320.83924)" stroke-width=".666667" stroke-linecap="butt" stroke-miterlimit="10" stroke-linejoin="miter" fill="none" stroke="#dc3912" d="M -2.8284274 -2.8284274 L 2.8284274 2.8284274 M -2.8284274 2.8284274 L 2.8284274 -2.8284274 "/>
<path transform="matrix(.75,0,0,.75,307.125,299.49977)" stroke-width=".666667" stroke-linecap="butt" stroke-miterlimit="10" stroke-linejoin="miter" fill="none" stroke="#dc3912" d="M -2.8284274 -2.8284274 L 2.8284274 2.8284274 M -2.8284274 2.8284274 L 2.8284274 -2.8284274 "/>
<path transform="matrix(.75,0,0,.75,348.9375,269.05427)" stroke-width=".666667" stroke-linecap="butt" stroke-miterlimit="10" stroke-linejoin="miter" fill="none" stroke="#dc3912" d="M -2.8284274 -2.8284274 L 2.8284274 2.8284274 M -2.8284274 2.8284274 L 2.8284274 -2.8284274 "/>
<path transform="matrix(.75,0,0,.75,56.25,266.55)" stroke-width=".666667" stroke-linecap="butt" stroke-miterlimit="10" stroke-linejoin="miter" fill="none" stroke="#dc3912" d="M -2.8284274 -2.8284274 L 2.8284274 2.8284274 M -2.8284274 2.8284274 L 2.8284274 -2.8284274 "/>
<path transform="matrix(.75,0,0,.75,98.0625,355.0153)" stroke-width=".666667" stroke-linecap="butt" stroke-miterlimit="10" stroke-linejoin="miter" fill="none" stroke="#dc3912" d="M -2.8284274 -2.8284274 L 2.8284274 2.8284274 M -2.8284274 2.8284274 L 2.8284274 -2.8284274 "/>
<path transform="matrix(.75,0,0,.75,139.875,357.1343)" stroke-width=".666667" stroke-linecap="butt" stroke-miterlimit="10" stroke-linejoin="miter" fill="none" stroke="#dc3912" d="M -2.8284274 -2.8284274 L 2.8284274 2.8284274 M -2.8284274 2.8284274 L 2.8284274 -2.8284274 "/>
<path transform="matrix(.75,0,0,.75,181.6875,349.67378)" stroke-width=".666667" stroke-linecap="butt" stroke-miterlimit="10" stroke-linejoin="miter" fill="none" stroke="#dc3912" d="M -2.8284274 -2.8284274 L 2.8284274 2.8284274 M -2.8284274 2.8284274 L 2.8284274 -2.8284274 "/>
<path transform="matrix(.75,0,0,.75,223.5,337.70887)" stroke-width=".666667" stroke-linecap="butt" stroke-miterlimit="10" stroke-linejoin="miter" fill="none" stroke="#dc3912" d="M -2.8284274 -2.8284274 L 2.8284274 2.8284274 M -2.8284274 2.8284274 L 2.8284274 -2.8284274 "/>
<path transform="matrix(.75,0,0,.75,265.3125,317.1908)" stroke-width=".666667" stroke-linecap="butt" stroke-miterlimit="10" stroke-linejoin="miter" fill="none" stroke="#dc3912" d="M -2.8284274 -2.8284274 L 2.8284274 2.8284274 M -2.8284274 2.8284274 L 2.8284274 -2.8284274 "/>
<path transform="matrix(.75,0,0,.75,307.125,295.6288)" stroke-width=".666667" stroke-linecap="butt" stroke-miterlimit="10" stroke-linejoin="miter" fill="none" stroke="#dc3912" d="M -2.8284274 -2.8284274 L 2.8284274 2.8284274 M -2.8284274 2.8284274 L 2.8284274 -2.8284274 "/>
<path transform="matrix(.75,0,0,.75,348.9375,266.48164)" stroke-width=".666667" stroke-linecap="butt" stroke-miterlimit="10" stroke-linejoin="miter" fill="none" stroke="#dc3912" d="M -2.8284274 -2.8284274 L 2.8284274 2.8284274 M -2.8284274 2.8284274 L 2.8284274 -2.8284274 "/>
<path transform="matrix(.75,0,0,.75,56.25,266.55)" stroke-width=".666667" stroke-linecap="butt" stroke-miterlimit="10" stroke-linejoin="miter" fill="none" stroke="#dc3912" d="M -2.8284274 -2.8284274 L 2.8284274 2.8284274 M -2.8284274 2.8284274 L 2.8284274 -2.8284274 "/>
<path transform="matrix(.75,0,0,.75,98.0625,354.26969)" stroke-width=".666667" stroke-linecap="butt" stroke-miterlimit="10" stroke-linejoin="miter" fill="none" stroke="#dc3912" d="M -2.8284274 -2.8284274 L 2.8284274 2.8284274 M -2.8284274 2.8284274 L 2.8284274 -2.8284274 "/>
<path transform="matrix(.75,0,0,.75,139.875,356.3341)" stroke-width=".666667" stroke-linecap="butt" stroke-miterlimit="10" stroke-linejoin="miter" fill="none" stroke="#dc3912" d="M -2.8284274 -2.8284274 L 2.8284274 2.8284274 M -2.8284274 2.8284274 L 2.8284274 -2.8284274 "/>
<path transform="matrix(.75,0,0,.75,181.6875,347.33125)" stroke-width=".666667" stroke-linecap="butt" stroke-miterlimit="10" stroke-linejoin="miter" fill="none" stroke="#dc3912" d="M -2.8284274 -2.8284274 L 2.8284274 2.8284274 M -2.8284274 2.8284274 L 2.8284274 -2.8284274 "/>
<path transform="matrix(.75,0,0,.75,223.5,335.72734)" stroke-width=".666667" stroke-linecap="butt" stroke-miterlimit="10" stroke-linejoin="miter" fill="none" stroke="#dc3912" d="M -2.8284274 -2.8284274 L 2.8284274 2.8284274 M -2.8284274 2.8284274 L 2.8284274 -2.8284274 "/>
<path transform="matrix(.75,0,0,.75,265.3125,317.18339)" stroke-width=".666667" stroke-linecap="butt" stroke-miterlimit="10" stroke-linejoin="miter" fill="none" stroke="#dc3912" d="M -2.8284274 -2.8284274 L 2.8284274 2.8284274 M -2.8284274 2.8284274 L 2.8284274 -2.8284274 "/>
<path transform="matrix(.75,0,0,.75,307.125,294.35023)" stroke-width=".666667" stroke-linecap="butt" stroke-miterlimit="10" stroke-linejoin="miter" fill="none" stroke="#dc3912" d="M -2.8284274 -2.8284274 L 2.8284274 2.8284274 M -2.8284274 2.8284274 L 2.8284274 -2.8284274 "/>
<path transform="matrix(.75,0,0,.75,348.9375,266.24879)" stroke-width=".666667" stroke-linecap="butt" stroke-miterlimit="10" stroke-linejoin="miter" fill="none" stroke="#dc3912" d="M -2.8284274 -2.8284274 L 2.8284274 2.8284274 M -2.8284274 2.8284274 L 2.8284274 -2.8284274 "/>
<path transform="matrix(.75,0,0,.75,56.25,266.55)" stroke-width=".666667" stroke-linecap="butt" stroke-miterlimit="10" stroke-linejoin="miter" fill="none" stroke="#dc3912" d="M -2.8284274 -2.8284274 L 2.8284274 2.8284274 M -2.8284274 2.8284274 L 2.8284274 -2.8284274 "/>
<path transform="matrix(.75,0,0,.75,98.0625,354.26637)" stroke-width=".666667" stroke-linecap="butt" stroke-miterlimit="10" stroke-linejoin="miter" fill="none" stroke="#dc3912" d="M -2.8284274 -2.8284274 L 2.8284274 2.8284274 M -2.8284274 2.8284274 L 2.8284274 -2.8284274 "/>
<path transform="matrix(.75,0,0,.75,139.875,349.4344)" stroke-width=".666667" stroke-linecap="butt" stroke-miterlimit="10" stroke-linejoin="miter" fill="none" stroke="#dc3912" d="M -2.8284274 -2.8284274 L 2.8284274 2.8284274 M -2.8284274 2.8284274 L 2.8284274 -2.8284274 "/>
<path transform="matrix(.75,0,0,.75,181.6875,345.93333)" stroke-width=".666667" stroke-linecap="butt" stroke-miterlimit="10" stroke-linejoin="miter" fill="none" stroke="#dc3912" d="M -2.8284274 -2.8284274 L 2.8284274 2.8284274 M -2.8284274 2.8284274 L 2.8284274 -2.8284274 "/>
<path transform="matrix(.75,0,0,.75,223.5,333.97218)" stroke-width=".666667" stroke-linecap="butt" stroke-miterlimit="10" stroke-linejoin="miter" fill="none" stroke="#dc3912" d="M -2.8284274 -2.8284274 L 2.8284274 2.8284274 M -2.8284274 2.8284274 L 2.8284274 -2.8284274 "/>
<path transform="matrix(.75,0,0,.75,265.3125,317.0773)" stroke-width=".666667" stroke-linecap="butt" stroke-miterlimit="10" stroke-linejoin="miter" fill="none" stroke="#dc3912" d="M -2.8284274 -2.8284274 L 2.8284274 2.8284274 M -2.8284274 2.8284274 L 2.8284274 -2.8284274 "/>
<path transform="matrix(.75,0,0,.75,307.125,294.13575)" stroke-width=".666667" stroke-linecap="butt" stroke-miterlimit="10" stroke-linejoin="miter" fill="none" stroke="#dc3912" d="M -2.8284274 -2.8284274 L 2.8284274 2.8284274 M -2.8284274 2.8284274 L 2.8284274 -2.8284274 "/>
<path transform="matrix(.75,0,0,.75,348.9375,262.67088)" stroke-width=".666667" stroke-linecap="butt" stroke-miterlimit="10" stroke-linejoin="miter" fill="none" stroke="#dc3912" d="M -2.8284274 -2.8284274 L 2.8284274 2.8284274 M -2.8284274 2.8284274 L 2.8284274 -2.8284274 "/>
<path transform="matrix(.75,0,0,.75,56.25,266.55)" stroke-width=".666667" stroke-linecap="butt" stroke-miterlimit="10" stroke-linejoin="miter" fill="none" stroke="#dc3912" d="M -2.8284274 -2.8284274 L 2.8284274 2.8284274 M -2.8284274 2.8284274 L 2.8284274 -2.8284274 "/>
<path transform="matrix(.75,0,0,.75,139.875,344.68077)" stroke-width=".666667" stroke-linecap="butt" stroke-miterlimit="10" stroke-linejoin="miter" fill="none" stroke="#dc3912" d="M -2.8284274 -2.8284274 L 2.8284274 2.8284274 M -2.8284274 2.8284274 L 2.8284274 -2.8284274 "/>
<path transform="matrix(.75,0,0,.75,181.6875,338.32716)" stroke-width=".666667" stroke-linecap="butt" stroke-miterlimit="10" stroke-linejoin="miter" fill="none" stroke="#dc3912" d="M -2.8284274 -2.8284274 L 2.8284274 2.8284274 M -2.8284274 2.8284274 L 2.8284274 -2.8284274 "/>
<path transform="matrix(.75,0,0,.75,223.5,333.95994)" stroke-width=".666667" stroke-linecap="butt" stroke-miterlimit="10" stroke-linejoin="miter" fill="none" stroke="#dc3912" d="M -2.8284274 -2.8284274 L 2.8284274 2.8284274 M -2.8284274 2.8284274 L 2.8284274 -2.8284274 "/>
<path transform="matrix(.75,0,0,.75,265.3125,303.20317)" stroke-width=".666667" stroke-linecap="butt" stroke-miterlimit="10" stroke-linejoin="miter" fill="none" stroke="#dc3912" d="M -2.8284274 -2.8284274 L 2.8284274 2.8284274 M -2.8284274 2.8284274 L 2.8284274 -2.8284274 "/>
<path transform="matrix(.75,0,0,.75,307.125,292.9791)" stroke-width=".666667" stroke-linecap="butt" stroke-miterlimit="10" stroke-linejoin="miter" fill="none" stroke="#dc3912" d="M -2.8284274 -2.8284274 L 2.8284274 2.8284274 M -2.8284274 2.8284274 L 2.8284274 -2.8284274 "/>
<path transform="matrix(.75,0,0,.75,348.9375,262.6496)" stroke-width=".666667" stroke-linecap="butt" stroke-miterlimit="10" stroke-linejoin="miter" fill="none" stroke="#dc3912" d="M -2.8284274 -2.8284274 L 2.8284274 2.8284274 M -2.8284274 2.8284274 L 2.8284274 -2.8284274 "/>
</g>
</svg>
