<svg xmlns="http://www.w3.org/2000/svg" viewBox="0 0 420 241.3574"><defs><style>.a{fill:#fff;}.b,.j,.l,.m,.n{fill:none;}.b{stroke:#262626;stroke-linecap:square;stroke-width:0.5002px;}.b,.j{stroke-linejoin:round;}.c{font-size:9.9998px;}.c,.h,.i{fill:#262626;}.c,.h,.i,.k{font-family:ArialMT, Arial;}.d{letter-spacing:2.286em;}.e{letter-spacing:1.865em;}.f{letter-spacing:-0.0001em;}.g{letter-spacing:2.277em;}.h{font-size:11.0002px;}.i{font-size:8.7998px;}.j,.l,.m{stroke:#000;}.j{stroke-width:2px;}.k{font-size:11px;}.l,.m,.n{stroke-miterlimit:10;}.m{stroke-dasharray:11.8802 11.8802;}.n{stroke:#4d4d4d;}.o{fill:#4d4d4d;}</style></defs><title>Convex_hull_example</title><rect class="a" width="420" height="240.75"/><rect class="a" width="420" height="240.75"/><rect class="a" x="54.75" y="18" width="325.5" height="186"/><line class="b" x1="54.75" y1="204" x2="380.25" y2="204"/><line class="b" x1="54.75" y1="18" x2="380.25" y2="18"/><line class="b" x1="54.75" y1="204" x2="54.75" y2="200.7449"/><line class="b" x1="87.3" y1="204" x2="87.3" y2="200.7449"/><line class="b" x1="119.85" y1="204" x2="119.85" y2="200.7449"/><line class="b" x1="152.4" y1="204" x2="152.4" y2="200.7449"/><line class="b" x1="184.95" y1="204" x2="184.95" y2="200.7449"/><line class="b" x1="217.5" y1="204" x2="217.5" y2="200.7449"/><line class="b" x1="250.05" y1="204" x2="250.05" y2="200.7449"/><line class="b" x1="282.6" y1="204" x2="282.6" y2="200.7449"/><line class="b" x1="315.15" y1="204" x2="315.15" y2="200.7449"/><line class="b" x1="347.7" y1="204" x2="347.7" y2="200.7449"/><line class="b" x1="380.25" y1="204" x2="380.25" y2="200.7449"/><line class="b" x1="54.75" y1="18" x2="54.75" y2="21.255"/><line class="b" x1="87.3" y1="18" x2="87.3" y2="21.255"/><line class="b" x1="119.85" y1="18" x2="119.85" y2="21.255"/><line class="b" x1="152.4" y1="18" x2="152.4" y2="21.255"/><line class="b" x1="184.95" y1="18" x2="184.95" y2="21.255"/><line class="b" x1="217.5" y1="18" x2="217.5" y2="21.255"/><line class="b" x1="250.05" y1="18" x2="250.05" y2="21.255"/><line class="b" x1="282.6" y1="18" x2="282.6" y2="21.255"/><line class="b" x1="315.15" y1="18" x2="315.15" y2="21.255"/><line class="b" x1="347.7" y1="18" x2="347.7" y2="21.255"/><line class="b" x1="380.25" y1="18" x2="380.25" y2="21.255"/><text class="c" transform="translate(51.75 218.5)"><tspan class="d">0</tspan><tspan x="28.4209" y="0">0.</tspan><tspan class="e" x="36.7603" y="0">1</tspan><tspan x="60.9712" y="0">0.</tspan><tspan class="e" x="69.311" y="0">2</tspan><tspan x="93.522" y="0">0.</tspan><tspan class="e" x="101.8613" y="0">3</tspan><tspan x="126.0723" y="0">0.</tspan><tspan class="e" x="134.4121" y="0">4</tspan><tspan x="158.623" y="0">0.</tspan><tspan class="e" x="166.9629" y="0">5</tspan><tspan x="191.1738" y="0">0.</tspan><tspan class="e" x="199.5137" y="0">6</tspan><tspan class="f" x="223.7246" y="0">0.</tspan><tspan class="e" x="232.0635" y="0">7</tspan><tspan x="256.2744" y="0">0.</tspan><tspan class="e" x="264.6143" y="0">8</tspan><tspan x="288.8252" y="0">0.</tspan><tspan class="g" x="297.165" y="0">9</tspan><tspan class="f" x="325.4961" y="0">1</tspan></text><text class="h" transform="translate(188.25 233.25)">x in A</text><text class="i" transform="translate(216 238.5)">(1-x)</text><text class="h" transform="translate(234.75 233.25)">B</text><text class="i" transform="translate(242.25 238.5)">x</text><line class="b" x1="54.75" y1="204" x2="54.75" y2="18"/><line class="b" x1="380.25" y1="204" x2="380.25" y2="18"/><line class="b" x1="54.75" y1="204" x2="58.0051" y2="204"/><line class="b" x1="54.75" y1="157.5" x2="58.0051" y2="157.5"/><line class="b" x1="54.75" y1="111" x2="58.0051" y2="111"/><line class="b" x1="54.75" y1="64.5" x2="58.0051" y2="64.5"/><line class="b" x1="54.75" y1="18" x2="58.0051" y2="18"/><line class="b" x1="380.25" y1="204" x2="376.995" y2="204"/><line class="b" x1="380.25" y1="157.5" x2="376.995" y2="157.5"/><line class="b" x1="380.25" y1="111" x2="376.995" y2="111"/><line class="b" x1="380.25" y1="64.5" x2="376.995" y2="64.5"/><line class="b" x1="380.25" y1="18" x2="376.995" y2="18"/><text class="c" transform="translate(44.75 68.5598)">0</text><polyline class="j" points="380.25 64.5 217.5 189.359 54.75 64.5"/><text class="k" transform="translate(130.674 80.2349)">A</text><text class="k" transform="translate(138.0109 83.8979) scale(0.583)">3</text><text class="k" transform="translate(141.5773 80.2349)">B</text><circle cx="138.5978" cy="89.9674" r="3.4239"/><text class="k" transform="translate(292.8457 78.5229)">AB</text><text class="k" transform="translate(307.5196 82.186) scale(0.583)">3</text><circle cx="300.7696" cy="88.2554" r="3.4239"/><text class="k" transform="translate(206.3479 167.0226)">A</text><text class="k" transform="translate(213.6848 170.6856) scale(0.583)">2</text><text class="k" transform="translate(217.2512 167.0226)">B</text><text class="k" transform="translate(224.5882 170.6856) scale(0.583)">2</text><circle cx="217.9239" cy="188.75" r="3.4239"/><line class="l" x1="380.25" y1="64.5" x2="374.5013" y2="66.2182"/><polyline class="m" points="363.119 69.62 300.77 88.255 138.598 89.967 66.175 67.97"/><line class="l" x1="60.491" y1="66.2437" x2="54.75" y2="64.5"/><line class="n" x1="138.5978" y1="91.0519" x2="138.5978" y2="127.1655"/><polygon class="o" points="134.508 94.365 135.24 95.048 138.597 91.436 141.954 95.048 142.687 94.365 138.597 89.967 134.508 94.365"/><polygon class="o" points="134.508 123.852 135.24 123.17 138.597 126.782 141.954 123.17 142.687 123.852 138.597 128.25 134.508 123.852"/><line class="n" x1="300.7696" y1="91.0519" x2="300.7696" y2="124.3914"/><polygon class="o" points="296.68 94.365 297.412 95.048 300.769 91.436 304.126 95.048 304.858 94.365 300.769 89.967 296.68 94.365"/><polygon class="o" points="296.68 121.078 297.412 120.396 300.769 124.008 304.126 120.396 304.858 121.078 300.769 125.476 296.68 121.078"/></svg>