<?xml version="1.0" encoding="UTF-8" standalone="no"?>
<!DOCTYPE svg PUBLIC "-//W3C//DTD SVG 1.1//EN" "http://www.w3.org/Graphics/SVG/1.1/DTD/svg11.dtd">
<svg xmlns="http://www.w3.org/2000/svg" xmlns:xlink="http://www.w3.org/1999/xlink" version="1.1" width="432pt" height="252pt" viewBox="0 0 432 252">
<g enable-background="new">
<clipPath id="cp0">
<path transform="matrix(.75,0,0,.75,0,0)" d="M 0 0 L 576 0 L 576 336 L 0 336 L 0 0 Z "/>
</clipPath>
<g clip-path="url(#cp0)">
<path transform="matrix(.75,0,0,.75,0,0)" d="M 0 0 L 576 0 L 576 336 L 0 336 Z " fill="#ffffff"/>
</g>
<path transform="matrix(.75,0,0,.75,0,0)" d="M 0 0 L 576 0 L 576 336 L 0 336 Z " fill="#ffffff"/>
<path transform="matrix(.75,0,0,.75,0,0)" d="M 75 287 L 521 287 L 521 25 L 75 25 Z " fill="#ffffff"/>
<path transform="matrix(.75,0,0,.75,0,0)" stroke-width=".666667" stroke-linecap="square" stroke-linejoin="round" fill="none" stroke="#323232" d="M 75 287 L 521 287 "/>
<path transform="matrix(.75,0,0,.75,0,0)" stroke-width=".666667" stroke-linecap="square" stroke-linejoin="round" fill="none" stroke="#323232" d="M 75 25.000006 L 521 25.000006 "/>
<path transform="matrix(.75,0,0,.75,0,0)" stroke-width=".666667" stroke-linecap="square" stroke-linejoin="round" fill="none" stroke="#323232" d="M 75 287 L 75 282.54 "/>
<path transform="matrix(.75,0,0,.75,0,0)" stroke-width=".666667" stroke-linecap="square" stroke-linejoin="round" fill="none" stroke="#323232" d="M 119.6 287 L 119.6 282.54 "/>
<path transform="matrix(.75,0,0,.75,0,0)" stroke-width=".666667" stroke-linecap="square" stroke-linejoin="round" fill="none" stroke="#323232" d="M 164.2 287 L 164.2 282.54 "/>
<path transform="matrix(.75,0,0,.75,0,0)" stroke-width=".666667" stroke-linecap="square" stroke-linejoin="round" fill="none" stroke="#323232" d="M 208.8 287 L 208.8 282.54 "/>
<path transform="matrix(.75,0,0,.75,0,0)" stroke-width=".666667" stroke-linecap="square" stroke-linejoin="round" fill="none" stroke="#323232" d="M 253.40001 287 L 253.40001 282.54 "/>
<path transform="matrix(.75,0,0,.75,0,0)" stroke-width=".666667" stroke-linecap="square" stroke-linejoin="round" fill="none" stroke="#323232" d="M 298 287 L 298 282.54 "/>
<path transform="matrix(.75,0,0,.75,0,0)" stroke-width=".666667" stroke-linecap="square" stroke-linejoin="round" fill="none" stroke="#323232" d="M 342.6 287 L 342.6 282.54 "/>
<path transform="matrix(.75,0,0,.75,0,0)" stroke-width=".666667" stroke-linecap="square" stroke-linejoin="round" fill="none" stroke="#323232" d="M 387.19999 287 L 387.19999 282.54 "/>
<path transform="matrix(.75,0,0,.75,0,0)" stroke-width=".666667" stroke-linecap="square" stroke-linejoin="round" fill="none" stroke="#323232" d="M 431.80003 287 L 431.80003 282.54 "/>
<path transform="matrix(.75,0,0,.75,0,0)" stroke-width=".666667" stroke-linecap="square" stroke-linejoin="round" fill="none" stroke="#323232" d="M 476.4 287 L 476.4 282.54 "/>
<path transform="matrix(.75,0,0,.75,0,0)" stroke-width=".666667" stroke-linecap="square" stroke-linejoin="round" fill="none" stroke="#323232" d="M 521 287 L 521 282.54 "/>
<path transform="matrix(.75,0,0,.75,0,0)" stroke-width=".666667" stroke-linecap="square" stroke-linejoin="round" fill="none" stroke="#323232" d="M 75 25.000006 L 75 29.460005 "/>
<path transform="matrix(.75,0,0,.75,0,0)" stroke-width=".666667" stroke-linecap="square" stroke-linejoin="round" fill="none" stroke="#323232" d="M 119.6 25.000006 L 119.6 29.460005 "/>
<path transform="matrix(.75,0,0,.75,0,0)" stroke-width=".666667" stroke-linecap="square" stroke-linejoin="round" fill="none" stroke="#323232" d="M 164.2 25.000006 L 164.2 29.460005 "/>
<path transform="matrix(.75,0,0,.75,0,0)" stroke-width=".666667" stroke-linecap="square" stroke-linejoin="round" fill="none" stroke="#323232" d="M 208.8 25.000006 L 208.8 29.460005 "/>
<path transform="matrix(.75,0,0,.75,0,0)" stroke-width=".666667" stroke-linecap="square" stroke-linejoin="round" fill="none" stroke="#323232" d="M 253.40001 25.000006 L 253.40001 29.460005 "/>
<path transform="matrix(.75,0,0,.75,0,0)" stroke-width=".666667" stroke-linecap="square" stroke-linejoin="round" fill="none" stroke="#323232" d="M 298 25.000006 L 298 29.460005 "/>
<path transform="matrix(.75,0,0,.75,0,0)" stroke-width=".666667" stroke-linecap="square" stroke-linejoin="round" fill="none" stroke="#323232" d="M 342.6 25.000006 L 342.6 29.460005 "/>
<path transform="matrix(.75,0,0,.75,0,0)" stroke-width=".666667" stroke-linecap="square" stroke-linejoin="round" fill="none" stroke="#323232" d="M 387.19999 25.000006 L 387.19999 29.460005 "/>
<path transform="matrix(.75,0,0,.75,0,0)" stroke-width=".666667" stroke-linecap="square" stroke-linejoin="round" fill="none" stroke="#323232" d="M 431.80003 25.000006 L 431.80003 29.460005 "/>
<path transform="matrix(.75,0,0,.75,0,0)" stroke-width=".666667" stroke-linecap="square" stroke-linejoin="round" fill="none" stroke="#323232" d="M 476.4 25.000006 L 476.4 29.460005 "/>
<path transform="matrix(.75,0,0,.75,0,0)" stroke-width=".666667" stroke-linecap="square" stroke-linejoin="round" fill="none" stroke="#323232" d="M 521 25.000006 L 521 29.460005 "/>
<text fill="#323232" xml:space="preserve" transform="matrix(.75 0 0 .75 56.25 219.25)" font-size="13.333" font-family="Helvetica"><tspan y="14" x="-4">0</tspan></text>
<text fill="#323232" xml:space="preserve" transform="matrix(.75 0 0 .75 89.7 219.25)" font-size="13.333" font-family="Helvetica"><tspan y="14" x="-9.5 -2.0868512 1.6197233">0.1</tspan></text>
<text fill="#323232" xml:space="preserve" transform="matrix(.75 0 0 .75 123.149997 219.25)" font-size="13.333" font-family="Helvetica"><tspan y="14" x="-9.5 -2.0868512 1.6197233">0.2</tspan></text>
<text fill="#323232" xml:space="preserve" transform="matrix(.75 0 0 .75 156.6 219.25)" font-size="13.333" font-family="Helvetica"><tspan y="14" x="-9.5 -2.0868512 1.6197233">0.3</tspan></text>
<text fill="#323232" xml:space="preserve" transform="matrix(.75 0 0 .75 190.05 219.25)" font-size="13.333" font-family="Helvetica"><tspan y="14" x="-9.5 -2.0868512 1.6197233">0.4</tspan></text>
<text fill="#323232" xml:space="preserve" transform="matrix(.75 0 0 .75 223.5 219.25)" font-size="13.333" font-family="Helvetica"><tspan y="14" x="-9.5 -2.0868512 1.6197233">0.5</tspan></text>
<text fill="#323232" xml:space="preserve" transform="matrix(.75 0 0 .75 256.95 219.25)" font-size="13.333" font-family="Helvetica"><tspan y="14" x="-9.5 -2.0868512 1.6197233">0.6</tspan></text>
<text fill="#323232" xml:space="preserve" transform="matrix(.75 0 0 .75 290.4 219.25)" font-size="13.333" font-family="Helvetica"><tspan y="14" x="-9.5 -2.0868512 1.6197233">0.7</tspan></text>
<text fill="#323232" xml:space="preserve" transform="matrix(.75 0 0 .75 323.85 219.25)" font-size="13.333" font-family="Helvetica"><tspan y="14" x="-9.5 -2.0868512 1.6197233">0.8</tspan></text>
<text fill="#323232" xml:space="preserve" transform="matrix(.75 0 0 .75 357.3 219.25)" font-size="13.333" font-family="Helvetica"><tspan y="14" x="-9.5 -2.0868512 1.6197233">0.9</tspan></text>
<text fill="#323232" xml:space="preserve" transform="matrix(.75 0 0 .75 390.75 219.25)" font-size="13.333" font-family="Helvetica"><tspan y="14" x="-4">1</tspan></text>
<text fill="#323232" xml:space="preserve" transform="matrix(.75 0 0 .75 180 244.5)" font-size="14.667" font-family="Helvetica"><tspan y="0" x="0 7.3335 11.410927 14.667001 22.821854 26.89928 36.68217">x in Bi</tspan></text>
<text fill="#323232" xml:space="preserve" transform="matrix(.75 0 0 .75 210 249.75)" font-size="11.733" font-family="Helvetica"><tspan y="0" x="0 3.907089 10.430637 14.337727 20.204228">(1-x)</tspan></text>
<text fill="#323232" xml:space="preserve" transform="matrix(.75 0 0 .75 228.75 244.5)" font-size="14.667" font-family="Helvetica"><tspan y="0" x="0 9.782889">Sn</tspan></text>
<text fill="#323232" xml:space="preserve" transform="matrix(.75 0 0 .75 242.25 249.75)" font-size="11.733" font-family="Helvetica"><tspan y="0" x="0">x</tspan></text>
<text fill="#323232" xml:space="preserve" transform="matrix(.75 0 0 .75 246.75 244.5)" font-size="14.667" font-family="Helvetica"><tspan y="0" x="0">F</tspan></text>
<text fill="#323232" xml:space="preserve" transform="matrix(.75 0 0 .75 253.5 249.75)" font-size="11.733" font-family="Helvetica"><tspan y="0" x="0 6.5235488 10.430637">3-x</tspan></text>
<path transform="matrix(.75,0,0,.75,0,0)" stroke-width=".666667" stroke-linecap="square" stroke-linejoin="round" fill="none" stroke="#323232" d="M 75 287 L 75 25.000006 "/>
<path transform="matrix(.75,0,0,.75,0,0)" stroke-width=".666667" stroke-linecap="square" stroke-linejoin="round" fill="none" stroke="#323232" d="M 521 287 L 521 25.000006 "/>
<path transform="matrix(.75,0,0,.75,0,0)" stroke-width=".666667" stroke-linecap="square" stroke-linejoin="round" fill="none" stroke="#323232" d="M 75 287 L 79.46 287 "/>
<path transform="matrix(.75,0,0,.75,0,0)" stroke-width=".666667" stroke-linecap="square" stroke-linejoin="round" fill="none" stroke="#323232" d="M 75 254.25 L 79.46 254.25 "/>
<path transform="matrix(.75,0,0,.75,0,0)" stroke-width=".666667" stroke-linecap="square" stroke-linejoin="round" fill="none" stroke="#323232" d="M 75 221.5 L 79.46 221.5 "/>
<path transform="matrix(.75,0,0,.75,0,0)" stroke-width=".666667" stroke-linecap="square" stroke-linejoin="round" fill="none" stroke="#323232" d="M 75 188.75 L 79.46 188.75 "/>
<path transform="matrix(.75,0,0,.75,0,0)" stroke-width=".666667" stroke-linecap="square" stroke-linejoin="round" fill="none" stroke="#323232" d="M 75 156 L 79.46 156 "/>
<path transform="matrix(.75,0,0,.75,0,0)" stroke-width=".666667" stroke-linecap="square" stroke-linejoin="round" fill="none" stroke="#323232" d="M 75 123.25 L 79.46 123.25 "/>
<path transform="matrix(.75,0,0,.75,0,0)" stroke-width=".666667" stroke-linecap="square" stroke-linejoin="round" fill="none" stroke="#323232" d="M 75 90.50001 L 79.46 90.50001 "/>
<path transform="matrix(.75,0,0,.75,0,0)" stroke-width=".666667" stroke-linecap="square" stroke-linejoin="round" fill="none" stroke="#323232" d="M 75 57.75 L 79.46 57.75 "/>
<path transform="matrix(.75,0,0,.75,0,0)" stroke-width=".666667" stroke-linecap="square" stroke-linejoin="round" fill="none" stroke="#323232" d="M 75 25.000006 L 79.46 25.000006 "/>
<path transform="matrix(.75,0,0,.75,0,0)" stroke-width=".666667" stroke-linecap="square" stroke-linejoin="round" fill="none" stroke="#323232" d="M 521 287 L 516.54 287 "/>
<path transform="matrix(.75,0,0,.75,0,0)" stroke-width=".666667" stroke-linecap="square" stroke-linejoin="round" fill="none" stroke="#323232" d="M 521 254.25 L 516.54 254.25 "/>
<path transform="matrix(.75,0,0,.75,0,0)" stroke-width=".666667" stroke-linecap="square" stroke-linejoin="round" fill="none" stroke="#323232" d="M 521 221.5 L 516.54 221.5 "/>
<path transform="matrix(.75,0,0,.75,0,0)" stroke-width=".666667" stroke-linecap="square" stroke-linejoin="round" fill="none" stroke="#323232" d="M 521 188.75 L 516.54 188.75 "/>
<path transform="matrix(.75,0,0,.75,0,0)" stroke-width=".666667" stroke-linecap="square" stroke-linejoin="round" fill="none" stroke="#323232" d="M 521 156 L 516.54 156 "/>
<path transform="matrix(.75,0,0,.75,0,0)" stroke-width=".666667" stroke-linecap="square" stroke-linejoin="round" fill="none" stroke="#323232" d="M 521 123.25 L 516.54 123.25 "/>
<path transform="matrix(.75,0,0,.75,0,0)" stroke-width=".666667" stroke-linecap="square" stroke-linejoin="round" fill="none" stroke="#323232" d="M 521 90.50001 L 516.54 90.50001 "/>
<path transform="matrix(.75,0,0,.75,0,0)" stroke-width=".666667" stroke-linecap="square" stroke-linejoin="round" fill="none" stroke="#323232" d="M 521 57.75 L 516.54 57.75 "/>
<path transform="matrix(.75,0,0,.75,0,0)" stroke-width=".666667" stroke-linecap="square" stroke-linejoin="round" fill="none" stroke="#323232" d="M 521 25.000006 L 516.54 25.000006 "/>
<text fill="#323232" xml:space="preserve" transform="matrix(.75 0 0 .75 52.249998 215.25)" font-size="13.333" font-family="Helvetica"><tspan y="5.5" x="-8">0</tspan></text>
<text fill="#323232" xml:space="preserve" transform="matrix(.75 0 0 .75 52.249998 190.6875)" font-size="13.333" font-family="Helvetica"><tspan y="5.5" x="-26 -18.586852 -14.880277 -7.467128">0.01</tspan></text>
<text fill="#323232" xml:space="preserve" transform="matrix(.75 0 0 .75 52.249998 166.125)" font-size="13.333" font-family="Helvetica"><tspan y="5.5" x="-26 -18.586852 -14.880277 -7.467128">0.02</tspan></text>
<text fill="#323232" xml:space="preserve" transform="matrix(.75 0 0 .75 52.249998 141.5625)" font-size="13.333" font-family="Helvetica"><tspan y="5.5" x="-26 -18.586852 -14.880277 -7.467128">0.03</tspan></text>
<text fill="#323232" xml:space="preserve" transform="matrix(.75 0 0 .75 52.249998 117)" font-size="13.333" font-family="Helvetica"><tspan y="5.5" x="-26 -18.586852 -14.880277 -7.467128">0.04</tspan></text>
<text fill="#323232" xml:space="preserve" transform="matrix(.75 0 0 .75 52.249998 92.4375)" font-size="13.333" font-family="Helvetica"><tspan y="5.5" x="-26 -18.586852 -14.880277 -7.467128">0.05</tspan></text>
<text fill="#323232" xml:space="preserve" transform="matrix(.75 0 0 .75 52.249998 67.87501)" font-size="13.333" font-family="Helvetica"><tspan y="5.5" x="-26 -18.586852 -14.880277 -7.467128">0.06</tspan></text>
<text fill="#323232" xml:space="preserve" transform="matrix(.75 0 0 .75 52.249998 43.3125)" font-size="13.333" font-family="Helvetica"><tspan y="5.5" x="-26 -18.586852 -14.880277 -7.467128">0.07</tspan></text>
<text fill="#323232" xml:space="preserve" transform="matrix(.75 0 0 .75 52.249998 18.750004)" font-size="13.333" font-family="Helvetica"><tspan y="5.5" x="-26 -18.586852 -14.880277 -7.467128">0.08</tspan></text>
<text fill="#323232" xml:space="preserve" transform="matrix(-.0000000325 -.75 .75 -.0000000325 29.75 116.99991)" font-size="14.667" font-family="Helvetica"><tspan y="-4" x="-92 -83.03846 -74.883609 -69.9995 -57.781885 -49.62703 -45.549604 -42.29353 -34.138677 -25.983822 -21.906395 -13.751542 -5.596689 2.5581637 7.4422748 15.597128 22.930628 27.008055 35.162908 39.240335 47.395189 59.6128 63.690229 68.57434 76.729198 86.512088">Formation energy/atom (eV)</tspan></text>
<path transform="matrix(.75,0,0,.75,0,0)" stroke-width=".666667" stroke-linecap="butt" stroke-linejoin="round" fill="none" stroke="#000000" d="M 75 287 L 521 287 "/>
<path transform="matrix(.75,0,0,.75,56.25,215.25)" stroke-width=".666667" stroke-linecap="butt" stroke-miterlimit="10" stroke-linejoin="miter" fill="none" stroke="#3366cc" d="M -2.8284274 -2.8284274 L 2.8284274 2.8284274 M -2.8284274 2.8284274 L 2.8284274 -2.8284274 "/>
<path transform="matrix(.75,0,0,.75,77.15625,197.56505)" stroke-width=".666667" stroke-linecap="butt" stroke-miterlimit="10" stroke-linejoin="miter" fill="none" stroke="#3366cc" d="M -2.8284274 -2.8284274 L 2.8284274 2.8284274 M -2.8284274 2.8284274 L 2.8284274 -2.8284274 "/>
<path transform="matrix(.75,0,0,.75,98.0625,152.92513)" stroke-width=".666667" stroke-linecap="butt" stroke-miterlimit="10" stroke-linejoin="miter" fill="none" stroke="#3366cc" d="M -2.8284274 -2.8284274 L 2.8284274 2.8284274 M -2.8284274 2.8284274 L 2.8284274 -2.8284274 "/>
<path transform="matrix(.75,0,0,.75,118.96875,151.41704)" stroke-width=".666667" stroke-linecap="butt" stroke-miterlimit="10" stroke-linejoin="miter" fill="none" stroke="#3366cc" d="M -2.8284274 -2.8284274 L 2.8284274 2.8284274 M -2.8284274 2.8284274 L 2.8284274 -2.8284274 "/>
<path transform="matrix(.75,0,0,.75,139.875,116.97973)" stroke-width=".666667" stroke-linecap="butt" stroke-miterlimit="10" stroke-linejoin="miter" fill="none" stroke="#3366cc" d="M -2.8284274 -2.8284274 L 2.8284274 2.8284274 M -2.8284274 2.8284274 L 2.8284274 -2.8284274 "/>
<path transform="matrix(.75,0,0,.75,160.78125,109.753078)" stroke-width=".666667" stroke-linecap="butt" stroke-miterlimit="10" stroke-linejoin="miter" fill="none" stroke="#3366cc" d="M -2.8284274 -2.8284274 L 2.8284274 2.8284274 M -2.8284274 2.8284274 L 2.8284274 -2.8284274 "/>
<path transform="matrix(.75,0,0,.75,181.6875,101.695758)" stroke-width=".666667" stroke-linecap="butt" stroke-miterlimit="10" stroke-linejoin="miter" fill="none" stroke="#3366cc" d="M -2.8284274 -2.8284274 L 2.8284274 2.8284274 M -2.8284274 2.8284274 L 2.8284274 -2.8284274 "/>
<path transform="matrix(.75,0,0,.75,223.5,101.70019)" stroke-width=".666667" stroke-linecap="butt" stroke-miterlimit="10" stroke-linejoin="miter" fill="none" stroke="#3366cc" d="M -2.8284274 -2.8284274 L 2.8284274 2.8284274 M -2.8284274 2.8284274 L 2.8284274 -2.8284274 "/>
<path transform="matrix(.75,0,0,.75,265.3125,111.27477)" stroke-width=".666667" stroke-linecap="butt" stroke-miterlimit="10" stroke-linejoin="miter" fill="none" stroke="#3366cc" d="M -2.8284274 -2.8284274 L 2.8284274 2.8284274 M -2.8284274 2.8284274 L 2.8284274 -2.8284274 "/>
<path transform="matrix(.75,0,0,.75,307.125,129.10294)" stroke-width=".666667" stroke-linecap="butt" stroke-miterlimit="10" stroke-linejoin="miter" fill="none" stroke="#3366cc" d="M -2.8284274 -2.8284274 L 2.8284274 2.8284274 M -2.8284274 2.8284274 L 2.8284274 -2.8284274 "/>
<path transform="matrix(.75,0,0,.75,348.9375,153.01979)" stroke-width=".666667" stroke-linecap="butt" stroke-miterlimit="10" stroke-linejoin="miter" fill="none" stroke="#3366cc" d="M -2.8284274 -2.8284274 L 2.8284274 2.8284274 M -2.8284274 2.8284274 L 2.8284274 -2.8284274 "/>
<path transform="matrix(.75,0,0,.75,390.75,165.29141)" stroke-width=".666667" stroke-linecap="butt" stroke-miterlimit="10" stroke-linejoin="miter" fill="none" stroke="#3366cc" d="M -2.8284274 -2.8284274 L 2.8284274 2.8284274 M -2.8284274 2.8284274 L 2.8284274 -2.8284274 "/>
<path transform="matrix(.75,0,0,.75,56.25,215.25)" stroke-width=".666667" stroke-linecap="butt" stroke-miterlimit="10" stroke-linejoin="miter" fill="none" stroke="#3366cc" d="M -2.8284274 -2.8284274 L 2.8284274 2.8284274 M -2.8284274 2.8284274 L 2.8284274 -2.8284274 "/>
<path transform="matrix(.75,0,0,.75,77.15625,193.52042)" stroke-width=".666667" stroke-linecap="butt" stroke-miterlimit="10" stroke-linejoin="miter" fill="none" stroke="#3366cc" d="M -2.8284274 -2.8284274 L 2.8284274 2.8284274 M -2.8284274 2.8284274 L 2.8284274 -2.8284274 "/>
<path transform="matrix(.75,0,0,.75,98.0625,153.69092)" stroke-width=".666667" stroke-linecap="butt" stroke-miterlimit="10" stroke-linejoin="miter" fill="none" stroke="#3366cc" d="M -2.8284274 -2.8284274 L 2.8284274 2.8284274 M -2.8284274 2.8284274 L 2.8284274 -2.8284274 "/>
<path transform="matrix(.75,0,0,.75,118.96875,144.0511)" stroke-width=".666667" stroke-linecap="butt" stroke-miterlimit="10" stroke-linejoin="miter" fill="none" stroke="#3366cc" d="M -2.8284274 -2.8284274 L 2.8284274 2.8284274 M -2.8284274 2.8284274 L 2.8284274 -2.8284274 "/>
<path transform="matrix(.75,0,0,.75,139.875,104.30221)" stroke-width=".666667" stroke-linecap="butt" stroke-miterlimit="10" stroke-linejoin="miter" fill="none" stroke="#3366cc" d="M -2.8284274 -2.8284274 L 2.8284274 2.8284274 M -2.8284274 2.8284274 L 2.8284274 -2.8284274 "/>
<path transform="matrix(.75,0,0,.75,160.78125,113.13563)" stroke-width=".666667" stroke-linecap="butt" stroke-miterlimit="10" stroke-linejoin="miter" fill="none" stroke="#3366cc" d="M -2.8284274 -2.8284274 L 2.8284274 2.8284274 M -2.8284274 2.8284274 L 2.8284274 -2.8284274 "/>
<path transform="matrix(.75,0,0,.75,181.6875,129.01349)" stroke-width=".666667" stroke-linecap="butt" stroke-miterlimit="10" stroke-linejoin="miter" fill="none" stroke="#3366cc" d="M -2.8284274 -2.8284274 L 2.8284274 2.8284274 M -2.8284274 2.8284274 L 2.8284274 -2.8284274 "/>
<path transform="matrix(.75,0,0,.75,223.5,81.374729)" stroke-width=".666667" stroke-linecap="butt" stroke-miterlimit="10" stroke-linejoin="miter" fill="none" stroke="#3366cc" d="M -2.8284274 -2.8284274 L 2.8284274 2.8284274 M -2.8284274 2.8284274 L 2.8284274 -2.8284274 "/>
<path transform="matrix(.75,0,0,.75,265.3125,129.53519)" stroke-width=".666667" stroke-linecap="butt" stroke-miterlimit="10" stroke-linejoin="miter" fill="none" stroke="#3366cc" d="M -2.8284274 -2.8284274 L 2.8284274 2.8284274 M -2.8284274 2.8284274 L 2.8284274 -2.8284274 "/>
<path transform="matrix(.75,0,0,.75,307.125,141.58495)" stroke-width=".666667" stroke-linecap="butt" stroke-miterlimit="10" stroke-linejoin="miter" fill="none" stroke="#3366cc" d="M -2.8284274 -2.8284274 L 2.8284274 2.8284274 M -2.8284274 2.8284274 L 2.8284274 -2.8284274 "/>
<path transform="matrix(.75,0,0,.75,348.9375,123.555118)" stroke-width=".666667" stroke-linecap="butt" stroke-miterlimit="10" stroke-linejoin="miter" fill="none" stroke="#3366cc" d="M -2.8284274 -2.8284274 L 2.8284274 2.8284274 M -2.8284274 2.8284274 L 2.8284274 -2.8284274 "/>
<path transform="matrix(.75,0,0,.75,390.75,187.10752)" stroke-width=".666667" stroke-linecap="butt" stroke-miterlimit="10" stroke-linejoin="miter" fill="none" stroke="#3366cc" d="M -2.8284274 -2.8284274 L 2.8284274 2.8284274 M -2.8284274 2.8284274 L 2.8284274 -2.8284274 "/>
<path transform="matrix(.75,0,0,.75,56.25,215.25)" stroke-width=".666667" stroke-linecap="butt" stroke-miterlimit="10" stroke-linejoin="miter" fill="none" stroke="#3366cc" d="M -2.8284274 -2.8284274 L 2.8284274 2.8284274 M -2.8284274 2.8284274 L 2.8284274 -2.8284274 "/>
<path transform="matrix(.75,0,0,.75,77.15625,183.44863)" stroke-width=".666667" stroke-linecap="butt" stroke-miterlimit="10" stroke-linejoin="miter" fill="none" stroke="#3366cc" d="M -2.8284274 -2.8284274 L 2.8284274 2.8284274 M -2.8284274 2.8284274 L 2.8284274 -2.8284274 "/>
<path transform="matrix(.75,0,0,.75,98.0625,153.78087)" stroke-width=".666667" stroke-linecap="butt" stroke-miterlimit="10" stroke-linejoin="miter" fill="none" stroke="#3366cc" d="M -2.8284274 -2.8284274 L 2.8284274 2.8284274 M -2.8284274 2.8284274 L 2.8284274 -2.8284274 "/>
<path transform="matrix(.75,0,0,.75,118.96875,143.12902)" stroke-width=".666667" stroke-linecap="butt" stroke-miterlimit="10" stroke-linejoin="miter" fill="none" stroke="#3366cc" d="M -2.8284274 -2.8284274 L 2.8284274 2.8284274 M -2.8284274 2.8284274 L 2.8284274 -2.8284274 "/>
<path transform="matrix(.75,0,0,.75,139.875,82.04572)" stroke-width=".666667" stroke-linecap="butt" stroke-miterlimit="10" stroke-linejoin="miter" fill="none" stroke="#3366cc" d="M -2.8284274 -2.8284274 L 2.8284274 2.8284274 M -2.8284274 2.8284274 L 2.8284274 -2.8284274 "/>
<path transform="matrix(.75,0,0,.75,160.78125,107.76101)" stroke-width=".666667" stroke-linecap="butt" stroke-miterlimit="10" stroke-linejoin="miter" fill="none" stroke="#3366cc" d="M -2.8284274 -2.8284274 L 2.8284274 2.8284274 M -2.8284274 2.8284274 L 2.8284274 -2.8284274 "/>
<path transform="matrix(.75,0,0,.75,181.6875,112.05691)" stroke-width=".666667" stroke-linecap="butt" stroke-miterlimit="10" stroke-linejoin="miter" fill="none" stroke="#3366cc" d="M -2.8284274 -2.8284274 L 2.8284274 2.8284274 M -2.8284274 2.8284274 L 2.8284274 -2.8284274 "/>
<path transform="matrix(.75,0,0,.75,223.5,72.59933)" stroke-width=".666667" stroke-linecap="butt" stroke-miterlimit="10" stroke-linejoin="miter" fill="none" stroke="#3366cc" d="M -2.8284274 -2.8284274 L 2.8284274 2.8284274 M -2.8284274 2.8284274 L 2.8284274 -2.8284274 "/>
<path transform="matrix(.75,0,0,.75,265.3125,129.86858)" stroke-width=".666667" stroke-linecap="butt" stroke-miterlimit="10" stroke-linejoin="miter" fill="none" stroke="#3366cc" d="M -2.8284274 -2.8284274 L 2.8284274 2.8284274 M -2.8284274 2.8284274 L 2.8284274 -2.8284274 "/>
<path transform="matrix(.75,0,0,.75,307.125,151.20636)" stroke-width=".666667" stroke-linecap="butt" stroke-miterlimit="10" stroke-linejoin="miter" fill="none" stroke="#3366cc" d="M -2.8284274 -2.8284274 L 2.8284274 2.8284274 M -2.8284274 2.8284274 L 2.8284274 -2.8284274 "/>
<path transform="matrix(.75,0,0,.75,348.9375,155.81354)" stroke-width=".666667" stroke-linecap="butt" stroke-miterlimit="10" stroke-linejoin="miter" fill="none" stroke="#3366cc" d="M -2.8284274 -2.8284274 L 2.8284274 2.8284274 M -2.8284274 2.8284274 L 2.8284274 -2.8284274 "/>
<path transform="matrix(.75,0,0,.75,390.75,187.7354)" stroke-width=".666667" stroke-linecap="butt" stroke-miterlimit="10" stroke-linejoin="miter" fill="none" stroke="#3366cc" d="M -2.8284274 -2.8284274 L 2.8284274 2.8284274 M -2.8284274 2.8284274 L 2.8284274 -2.8284274 "/>
<path transform="matrix(.75,0,0,.75,56.25,215.25)" stroke-width=".666667" stroke-linecap="butt" stroke-miterlimit="10" stroke-linejoin="miter" fill="none" stroke="#3366cc" d="M -2.8284274 -2.8284274 L 2.8284274 2.8284274 M -2.8284274 2.8284274 L 2.8284274 -2.8284274 "/>
<path transform="matrix(.75,0,0,.75,77.15625,183.11489)" stroke-width=".666667" stroke-linecap="butt" stroke-miterlimit="10" stroke-linejoin="miter" fill="none" stroke="#3366cc" d="M -2.8284274 -2.8284274 L 2.8284274 2.8284274 M -2.8284274 2.8284274 L 2.8284274 -2.8284274 "/>
<path transform="matrix(.75,0,0,.75,98.0625,161.52994)" stroke-width=".666667" stroke-linecap="butt" stroke-miterlimit="10" stroke-linejoin="miter" fill="none" stroke="#3366cc" d="M -2.8284274 -2.8284274 L 2.8284274 2.8284274 M -2.8284274 2.8284274 L 2.8284274 -2.8284274 "/>
<path transform="matrix(.75,0,0,.75,118.96875,142.93613)" stroke-width=".666667" stroke-linecap="butt" stroke-miterlimit="10" stroke-linejoin="miter" fill="none" stroke="#3366cc" d="M -2.8284274 -2.8284274 L 2.8284274 2.8284274 M -2.8284274 2.8284274 L 2.8284274 -2.8284274 "/>
<path transform="matrix(.75,0,0,.75,139.875,137.39937)" stroke-width=".666667" stroke-linecap="butt" stroke-miterlimit="10" stroke-linejoin="miter" fill="none" stroke="#3366cc" d="M -2.8284274 -2.8284274 L 2.8284274 2.8284274 M -2.8284274 2.8284274 L 2.8284274 -2.8284274 "/>
<path transform="matrix(.75,0,0,.75,160.78125,127.4031)" stroke-width=".666667" stroke-linecap="butt" stroke-miterlimit="10" stroke-linejoin="miter" fill="none" stroke="#3366cc" d="M -2.8284274 -2.8284274 L 2.8284274 2.8284274 M -2.8284274 2.8284274 L 2.8284274 -2.8284274 "/>
<path transform="matrix(.75,0,0,.75,181.6875,91.091968)" stroke-width=".666667" stroke-linecap="butt" stroke-miterlimit="10" stroke-linejoin="miter" fill="none" stroke="#3366cc" d="M -2.8284274 -2.8284274 L 2.8284274 2.8284274 M -2.8284274 2.8284274 L 2.8284274 -2.8284274 "/>
<path transform="matrix(.75,0,0,.75,223.5,97.06314)" stroke-width=".666667" stroke-linecap="butt" stroke-miterlimit="10" stroke-linejoin="miter" fill="none" stroke="#3366cc" d="M -2.8284274 -2.8284274 L 2.8284274 2.8284274 M -2.8284274 2.8284274 L 2.8284274 -2.8284274 "/>
<path transform="matrix(.75,0,0,.75,265.3125,108.21811)" stroke-width=".666667" stroke-linecap="butt" stroke-miterlimit="10" stroke-linejoin="miter" fill="none" stroke="#3366cc" d="M -2.8284274 -2.8284274 L 2.8284274 2.8284274 M -2.8284274 2.8284274 L 2.8284274 -2.8284274 "/>
<path transform="matrix(.75,0,0,.75,307.125,137.41025)" stroke-width=".666667" stroke-linecap="butt" stroke-miterlimit="10" stroke-linejoin="miter" fill="none" stroke="#3366cc" d="M -2.8284274 -2.8284274 L 2.8284274 2.8284274 M -2.8284274 2.8284274 L 2.8284274 -2.8284274 "/>
<path transform="matrix(.75,0,0,.75,348.9375,159.43651)" stroke-width=".666667" stroke-linecap="butt" stroke-miterlimit="10" stroke-linejoin="miter" fill="none" stroke="#3366cc" d="M -2.8284274 -2.8284274 L 2.8284274 2.8284274 M -2.8284274 2.8284274 L 2.8284274 -2.8284274 "/>
<path transform="matrix(.75,0,0,.75,390.75,168.5306)" stroke-width=".666667" stroke-linecap="butt" stroke-miterlimit="10" stroke-linejoin="miter" fill="none" stroke="#3366cc" d="M -2.8284274 -2.8284274 L 2.8284274 2.8284274 M -2.8284274 2.8284274 L 2.8284274 -2.8284274 "/>
<path transform="matrix(.75,0,0,.75,56.25,215.25)" stroke-width=".666667" stroke-linecap="butt" stroke-miterlimit="10" stroke-linejoin="miter" fill="none" stroke="#3366cc" d="M -2.8284274 -2.8284274 L 2.8284274 2.8284274 M -2.8284274 2.8284274 L 2.8284274 -2.8284274 "/>
<path transform="matrix(.75,0,0,.75,77.15625,181.51404)" stroke-width=".666667" stroke-linecap="butt" stroke-miterlimit="10" stroke-linejoin="miter" fill="none" stroke="#3366cc" d="M -2.8284274 -2.8284274 L 2.8284274 2.8284274 M -2.8284274 2.8284274 L 2.8284274 -2.8284274 "/>
<path transform="matrix(.75,0,0,.75,98.0625,156.45856)" stroke-width=".666667" stroke-linecap="butt" stroke-miterlimit="10" stroke-linejoin="miter" fill="none" stroke="#3366cc" d="M -2.8284274 -2.8284274 L 2.8284274 2.8284274 M -2.8284274 2.8284274 L 2.8284274 -2.8284274 "/>
<path transform="matrix(.75,0,0,.75,118.96875,136.83739)" stroke-width=".666667" stroke-linecap="butt" stroke-miterlimit="10" stroke-linejoin="miter" fill="none" stroke="#3366cc" d="M -2.8284274 -2.8284274 L 2.8284274 2.8284274 M -2.8284274 2.8284274 L 2.8284274 -2.8284274 "/>
<path transform="matrix(.75,0,0,.75,139.875,119.842899)" stroke-width=".666667" stroke-linecap="butt" stroke-miterlimit="10" stroke-linejoin="miter" fill="none" stroke="#3366cc" d="M -2.8284274 -2.8284274 L 2.8284274 2.8284274 M -2.8284274 2.8284274 L 2.8284274 -2.8284274 "/>
<path transform="matrix(.75,0,0,.75,160.78125,91.60264)" stroke-width=".666667" stroke-linecap="butt" stroke-miterlimit="10" stroke-linejoin="miter" fill="none" stroke="#3366cc" d="M -2.8284274 -2.8284274 L 2.8284274 2.8284274 M -2.8284274 2.8284274 L 2.8284274 -2.8284274 "/>
<path transform="matrix(.75,0,0,.75,181.6875,92.77915)" stroke-width=".666667" stroke-linecap="butt" stroke-miterlimit="10" stroke-linejoin="miter" fill="none" stroke="#3366cc" d="M -2.8284274 -2.8284274 L 2.8284274 2.8284274 M -2.8284274 2.8284274 L 2.8284274 -2.8284274 "/>
<path transform="matrix(.75,0,0,.75,223.5,43.82612)" stroke-width=".666667" stroke-linecap="butt" stroke-miterlimit="10" stroke-linejoin="miter" fill="none" stroke="#3366cc" d="M -2.8284274 -2.8284274 L 2.8284274 2.8284274 M -2.8284274 2.8284274 L 2.8284274 -2.8284274 "/>
<path transform="matrix(.75,0,0,.75,265.3125,152.33281)" stroke-width=".666667" stroke-linecap="butt" stroke-miterlimit="10" stroke-linejoin="miter" fill="none" stroke="#3366cc" d="M -2.8284274 -2.8284274 L 2.8284274 2.8284274 M -2.8284274 2.8284274 L 2.8284274 -2.8284274 "/>
<path transform="matrix(.75,0,0,.75,307.125,118.90666)" stroke-width=".666667" stroke-linecap="butt" stroke-miterlimit="10" stroke-linejoin="miter" fill="none" stroke="#3366cc" d="M -2.8284274 -2.8284274 L 2.8284274 2.8284274 M -2.8284274 2.8284274 L 2.8284274 -2.8284274 "/>
<path transform="matrix(.75,0,0,.75,348.9375,129.7203)" stroke-width=".666667" stroke-linecap="butt" stroke-miterlimit="10" stroke-linejoin="miter" fill="none" stroke="#3366cc" d="M -2.8284274 -2.8284274 L 2.8284274 2.8284274 M -2.8284274 2.8284274 L 2.8284274 -2.8284274 "/>
<path transform="matrix(.75,0,0,.75,390.75,168.65392)" stroke-width=".666667" stroke-linecap="butt" stroke-miterlimit="10" stroke-linejoin="miter" fill="none" stroke="#3366cc" d="M -2.8284274 -2.8284274 L 2.8284274 2.8284274 M -2.8284274 2.8284274 L 2.8284274 -2.8284274 "/>
<path transform="matrix(.75,0,0,.75,56.25,215.25)" stroke-width=".666667" stroke-linecap="butt" stroke-miterlimit="10" stroke-linejoin="miter" fill="none" stroke="#3366cc" d="M -2.8284274 -2.8284274 L 2.8284274 2.8284274 M -2.8284274 2.8284274 L 2.8284274 -2.8284274 "/>
<path transform="matrix(.75,0,0,.75,77.15625,181.13976)" stroke-width=".666667" stroke-linecap="butt" stroke-miterlimit="10" stroke-linejoin="miter" fill="none" stroke="#3366cc" d="M -2.8284274 -2.8284274 L 2.8284274 2.8284274 M -2.8284274 2.8284274 L 2.8284274 -2.8284274 "/>
<path transform="matrix(.75,0,0,.75,98.0625,153.01387)" stroke-width=".666667" stroke-linecap="butt" stroke-miterlimit="10" stroke-linejoin="miter" fill="none" stroke="#3366cc" d="M -2.8284274 -2.8284274 L 2.8284274 2.8284274 M -2.8284274 2.8284274 L 2.8284274 -2.8284274 "/>
<path transform="matrix(.75,0,0,.75,118.96875,125.86359)" stroke-width=".666667" stroke-linecap="butt" stroke-miterlimit="10" stroke-linejoin="miter" fill="none" stroke="#3366cc" d="M -2.8284274 -2.8284274 L 2.8284274 2.8284274 M -2.8284274 2.8284274 L 2.8284274 -2.8284274 "/>
<path transform="matrix(.75,0,0,.75,139.875,117.10296)" stroke-width=".666667" stroke-linecap="butt" stroke-miterlimit="10" stroke-linejoin="miter" fill="none" stroke="#3366cc" d="M -2.8284274 -2.8284274 L 2.8284274 2.8284274 M -2.8284274 2.8284274 L 2.8284274 -2.8284274 "/>
<path transform="matrix(.75,0,0,.75,160.78125,75.15742)" stroke-width=".666667" stroke-linecap="butt" stroke-miterlimit="10" stroke-linejoin="miter" fill="none" stroke="#3366cc" d="M -2.8284274 -2.8284274 L 2.8284274 2.8284274 M -2.8284274 2.8284274 L 2.8284274 -2.8284274 "/>
<path transform="matrix(.75,0,0,.75,181.6875,86.91846)" stroke-width=".666667" stroke-linecap="butt" stroke-miterlimit="10" stroke-linejoin="miter" fill="none" stroke="#3366cc" d="M -2.8284274 -2.8284274 L 2.8284274 2.8284274 M -2.8284274 2.8284274 L 2.8284274 -2.8284274 "/>
<path transform="matrix(.75,0,0,.75,223.5,64.79854)" stroke-width=".666667" stroke-linecap="butt" stroke-miterlimit="10" stroke-linejoin="miter" fill="none" stroke="#3366cc" d="M -2.8284274 -2.8284274 L 2.8284274 2.8284274 M -2.8284274 2.8284274 L 2.8284274 -2.8284274 "/>
<path transform="matrix(.75,0,0,.75,265.3125,92.15105)" stroke-width=".666667" stroke-linecap="butt" stroke-miterlimit="10" stroke-linejoin="miter" fill="none" stroke="#3366cc" d="M -2.8284274 -2.8284274 L 2.8284274 2.8284274 M -2.8284274 2.8284274 L 2.8284274 -2.8284274 "/>
<path transform="matrix(.75,0,0,.75,307.125,154.65975)" stroke-width=".666667" stroke-linecap="butt" stroke-miterlimit="10" stroke-linejoin="miter" fill="none" stroke="#3366cc" d="M -2.8284274 -2.8284274 L 2.8284274 2.8284274 M -2.8284274 2.8284274 L 2.8284274 -2.8284274 "/>
<path transform="matrix(.75,0,0,.75,348.9375,158.20053)" stroke-width=".666667" stroke-linecap="butt" stroke-miterlimit="10" stroke-linejoin="miter" fill="none" stroke="#3366cc" d="M -2.8284274 -2.8284274 L 2.8284274 2.8284274 M -2.8284274 2.8284274 L 2.8284274 -2.8284274 "/>
<path transform="matrix(.75,0,0,.75,390.75,151.27237)" stroke-width=".666667" stroke-linecap="butt" stroke-miterlimit="10" stroke-linejoin="miter" fill="none" stroke="#3366cc" d="M -2.8284274 -2.8284274 L 2.8284274 2.8284274 M -2.8284274 2.8284274 L 2.8284274 -2.8284274 "/>
<path transform="matrix(.75,0,0,.75,56.25,215.25)" stroke-width=".666667" stroke-linecap="butt" stroke-miterlimit="10" stroke-linejoin="miter" fill="none" stroke="#3366cc" d="M -2.8284274 -2.8284274 L 2.8284274 2.8284274 M -2.8284274 2.8284274 L 2.8284274 -2.8284274 "/>
<path transform="matrix(.75,0,0,.75,77.15625,180.38924)" stroke-width=".666667" stroke-linecap="butt" stroke-miterlimit="10" stroke-linejoin="miter" fill="none" stroke="#3366cc" d="M -2.8284274 -2.8284274 L 2.8284274 2.8284274 M -2.8284274 2.8284274 L 2.8284274 -2.8284274 "/>
<path transform="matrix(.75,0,0,.75,98.0625,154.12078)" stroke-width=".666667" stroke-linecap="butt" stroke-miterlimit="10" stroke-linejoin="miter" fill="none" stroke="#3366cc" d="M -2.8284274 -2.8284274 L 2.8284274 2.8284274 M -2.8284274 2.8284274 L 2.8284274 -2.8284274 "/>
<path transform="matrix(.75,0,0,.75,118.96875,123.8398)" stroke-width=".666667" stroke-linecap="butt" stroke-miterlimit="10" stroke-linejoin="miter" fill="none" stroke="#3366cc" d="M -2.8284274 -2.8284274 L 2.8284274 2.8284274 M -2.8284274 2.8284274 L 2.8284274 -2.8284274 "/>
<path transform="matrix(.75,0,0,.75,139.875,115.83799)" stroke-width=".666667" stroke-linecap="butt" stroke-miterlimit="10" stroke-linejoin="miter" fill="none" stroke="#3366cc" d="M -2.8284274 -2.8284274 L 2.8284274 2.8284274 M -2.8284274 2.8284274 L 2.8284274 -2.8284274 "/>
<path transform="matrix(.75,0,0,.75,160.78125,108.68773)" stroke-width=".666667" stroke-linecap="butt" stroke-miterlimit="10" stroke-linejoin="miter" fill="none" stroke="#3366cc" d="M -2.8284274 -2.8284274 L 2.8284274 2.8284274 M -2.8284274 2.8284274 L 2.8284274 -2.8284274 "/>
<path transform="matrix(.75,0,0,.75,181.6875,78.5003)" stroke-width=".666667" stroke-linecap="butt" stroke-miterlimit="10" stroke-linejoin="miter" fill="none" stroke="#3366cc" d="M -2.8284274 -2.8284274 L 2.8284274 2.8284274 M -2.8284274 2.8284274 L 2.8284274 -2.8284274 "/>
<path transform="matrix(.75,0,0,.75,223.5,115.69249)" stroke-width=".666667" stroke-linecap="butt" stroke-miterlimit="10" stroke-linejoin="miter" fill="none" stroke="#3366cc" d="M -2.8284274 -2.8284274 L 2.8284274 2.8284274 M -2.8284274 2.8284274 L 2.8284274 -2.8284274 "/>
<path transform="matrix(.75,0,0,.75,265.3125,108.96772)" stroke-width=".666667" stroke-linecap="butt" stroke-miterlimit="10" stroke-linejoin="miter" fill="none" stroke="#3366cc" d="M -2.8284274 -2.8284274 L 2.8284274 2.8284274 M -2.8284274 2.8284274 L 2.8284274 -2.8284274 "/>
<path transform="matrix(.75,0,0,.75,307.125,154.94222)" stroke-width=".666667" stroke-linecap="butt" stroke-miterlimit="10" stroke-linejoin="miter" fill="none" stroke="#3366cc" d="M -2.8284274 -2.8284274 L 2.8284274 2.8284274 M -2.8284274 2.8284274 L 2.8284274 -2.8284274 "/>
<path transform="matrix(.75,0,0,.75,348.9375,108.58182)" stroke-width=".666667" stroke-linecap="butt" stroke-miterlimit="10" stroke-linejoin="miter" fill="none" stroke="#3366cc" d="M -2.8284274 -2.8284274 L 2.8284274 2.8284274 M -2.8284274 2.8284274 L 2.8284274 -2.8284274 "/>
<path transform="matrix(.75,0,0,.75,390.75,192.59877)" stroke-width=".666667" stroke-linecap="butt" stroke-miterlimit="10" stroke-linejoin="miter" fill="none" stroke="#3366cc" d="M -2.8284274 -2.8284274 L 2.8284274 2.8284274 M -2.8284274 2.8284274 L 2.8284274 -2.8284274 "/>
<path transform="matrix(.75,0,0,.75,56.25,215.25)" stroke-width=".666667" stroke-linecap="butt" stroke-miterlimit="10" stroke-linejoin="miter" fill="none" stroke="#3366cc" d="M -2.8284274 -2.8284274 L 2.8284274 2.8284274 M -2.8284274 2.8284274 L 2.8284274 -2.8284274 "/>
<path transform="matrix(.75,0,0,.75,77.15625,180.30463)" stroke-width=".666667" stroke-linecap="butt" stroke-miterlimit="10" stroke-linejoin="miter" fill="none" stroke="#3366cc" d="M -2.8284274 -2.8284274 L 2.8284274 2.8284274 M -2.8284274 2.8284274 L 2.8284274 -2.8284274 "/>
<path transform="matrix(.75,0,0,.75,98.0625,166.93605)" stroke-width=".666667" stroke-linecap="butt" stroke-miterlimit="10" stroke-linejoin="miter" fill="none" stroke="#3366cc" d="M -2.8284274 -2.8284274 L 2.8284274 2.8284274 M -2.8284274 2.8284274 L 2.8284274 -2.8284274 "/>
<path transform="matrix(.75,0,0,.75,118.96875,122.67851)" stroke-width=".666667" stroke-linecap="butt" stroke-miterlimit="10" stroke-linejoin="miter" fill="none" stroke="#3366cc" d="M -2.8284274 -2.8284274 L 2.8284274 2.8284274 M -2.8284274 2.8284274 L 2.8284274 -2.8284274 "/>
<path transform="matrix(.75,0,0,.75,139.875,139.37583)" stroke-width=".666667" stroke-linecap="butt" stroke-miterlimit="10" stroke-linejoin="miter" fill="none" stroke="#3366cc" d="M -2.8284274 -2.8284274 L 2.8284274 2.8284274 M -2.8284274 2.8284274 L 2.8284274 -2.8284274 "/>
<path transform="matrix(.75,0,0,.75,160.78125,111.47162)" stroke-width=".666667" stroke-linecap="butt" stroke-miterlimit="10" stroke-linejoin="miter" fill="none" stroke="#3366cc" d="M -2.8284274 -2.8284274 L 2.8284274 2.8284274 M -2.8284274 2.8284274 L 2.8284274 -2.8284274 "/>
<path transform="matrix(.75,0,0,.75,181.6875,90.92002)" stroke-width=".666667" stroke-linecap="butt" stroke-miterlimit="10" stroke-linejoin="miter" fill="none" stroke="#3366cc" d="M -2.8284274 -2.8284274 L 2.8284274 2.8284274 M -2.8284274 2.8284274 L 2.8284274 -2.8284274 "/>
<path transform="matrix(.75,0,0,.75,223.5,114.48936)" stroke-width=".666667" stroke-linecap="butt" stroke-miterlimit="10" stroke-linejoin="miter" fill="none" stroke="#3366cc" d="M -2.8284274 -2.8284274 L 2.8284274 2.8284274 M -2.8284274 2.8284274 L 2.8284274 -2.8284274 "/>
<path transform="matrix(.75,0,0,.75,265.3125,96.0865)" stroke-width=".666667" stroke-linecap="butt" stroke-miterlimit="10" stroke-linejoin="miter" fill="none" stroke="#3366cc" d="M -2.8284274 -2.8284274 L 2.8284274 2.8284274 M -2.8284274 2.8284274 L 2.8284274 -2.8284274 "/>
<path transform="matrix(.75,0,0,.75,307.125,123.68738)" stroke-width=".666667" stroke-linecap="butt" stroke-miterlimit="10" stroke-linejoin="miter" fill="none" stroke="#3366cc" d="M -2.8284274 -2.8284274 L 2.8284274 2.8284274 M -2.8284274 2.8284274 L 2.8284274 -2.8284274 "/>
<path transform="matrix(.75,0,0,.75,348.9375,152.9363)" stroke-width=".666667" stroke-linecap="butt" stroke-miterlimit="10" stroke-linejoin="miter" fill="none" stroke="#3366cc" d="M -2.8284274 -2.8284274 L 2.8284274 2.8284274 M -2.8284274 2.8284274 L 2.8284274 -2.8284274 "/>
<path transform="matrix(.75,0,0,.75,390.75,172.33368)" stroke-width=".666667" stroke-linecap="butt" stroke-miterlimit="10" stroke-linejoin="miter" fill="none" stroke="#3366cc" d="M -2.8284274 -2.8284274 L 2.8284274 2.8284274 M -2.8284274 2.8284274 L 2.8284274 -2.8284274 "/>
<path transform="matrix(.75,0,0,.75,56.25,215.25)" stroke-width=".666667" stroke-linecap="butt" stroke-miterlimit="10" stroke-linejoin="miter" fill="none" stroke="#3366cc" d="M -2.8284274 -2.8284274 L 2.8284274 2.8284274 M -2.8284274 2.8284274 L 2.8284274 -2.8284274 "/>
<path transform="matrix(.75,0,0,.75,77.15625,180.13191)" stroke-width=".666667" stroke-linecap="butt" stroke-miterlimit="10" stroke-linejoin="miter" fill="none" stroke="#3366cc" d="M -2.8284274 -2.8284274 L 2.8284274 2.8284274 M -2.8284274 2.8284274 L 2.8284274 -2.8284274 "/>
<path transform="matrix(.75,0,0,.75,98.0625,156.44905)" stroke-width=".666667" stroke-linecap="butt" stroke-miterlimit="10" stroke-linejoin="miter" fill="none" stroke="#3366cc" d="M -2.8284274 -2.8284274 L 2.8284274 2.8284274 M -2.8284274 2.8284274 L 2.8284274 -2.8284274 "/>
<path transform="matrix(.75,0,0,.75,118.96875,122.149417)" stroke-width=".666667" stroke-linecap="butt" stroke-miterlimit="10" stroke-linejoin="miter" fill="none" stroke="#3366cc" d="M -2.8284274 -2.8284274 L 2.8284274 2.8284274 M -2.8284274 2.8284274 L 2.8284274 -2.8284274 "/>
<path transform="matrix(.75,0,0,.75,139.875,110.345409)" stroke-width=".666667" stroke-linecap="butt" stroke-miterlimit="10" stroke-linejoin="miter" fill="none" stroke="#3366cc" d="M -2.8284274 -2.8284274 L 2.8284274 2.8284274 M -2.8284274 2.8284274 L 2.8284274 -2.8284274 "/>
<path transform="matrix(.75,0,0,.75,160.78125,96.03054)" stroke-width=".666667" stroke-linecap="butt" stroke-miterlimit="10" stroke-linejoin="miter" fill="none" stroke="#3366cc" d="M -2.8284274 -2.8284274 L 2.8284274 2.8284274 M -2.8284274 2.8284274 L 2.8284274 -2.8284274 "/>
<path transform="matrix(.75,0,0,.75,181.6875,128.7704)" stroke-width=".666667" stroke-linecap="butt" stroke-miterlimit="10" stroke-linejoin="miter" fill="none" stroke="#3366cc" d="M -2.8284274 -2.8284274 L 2.8284274 2.8284274 M -2.8284274 2.8284274 L 2.8284274 -2.8284274 "/>
<path transform="matrix(.75,0,0,.75,223.5,114.48936)" stroke-width=".666667" stroke-linecap="butt" stroke-miterlimit="10" stroke-linejoin="miter" fill="none" stroke="#3366cc" d="M -2.8284274 -2.8284274 L 2.8284274 2.8284274 M -2.8284274 2.8284274 L 2.8284274 -2.8284274 "/>
<path transform="matrix(.75,0,0,.75,265.3125,120.980609)" stroke-width=".666667" stroke-linecap="butt" stroke-miterlimit="10" stroke-linejoin="miter" fill="none" stroke="#3366cc" d="M -2.8284274 -2.8284274 L 2.8284274 2.8284274 M -2.8284274 2.8284274 L 2.8284274 -2.8284274 "/>
<path transform="matrix(.75,0,0,.75,307.125,121.51642)" stroke-width=".666667" stroke-linecap="butt" stroke-miterlimit="10" stroke-linejoin="miter" fill="none" stroke="#3366cc" d="M -2.8284274 -2.8284274 L 2.8284274 2.8284274 M -2.8284274 2.8284274 L 2.8284274 -2.8284274 "/>
<path transform="matrix(.75,0,0,.75,348.9375,172.52783)" stroke-width=".666667" stroke-linecap="butt" stroke-miterlimit="10" stroke-linejoin="miter" fill="none" stroke="#3366cc" d="M -2.8284274 -2.8284274 L 2.8284274 2.8284274 M -2.8284274 2.8284274 L 2.8284274 -2.8284274 "/>
<path transform="matrix(.75,0,0,.75,390.75,169.38516)" stroke-width=".666667" stroke-linecap="butt" stroke-miterlimit="10" stroke-linejoin="miter" fill="none" stroke="#3366cc" d="M -2.8284274 -2.8284274 L 2.8284274 2.8284274 M -2.8284274 2.8284274 L 2.8284274 -2.8284274 "/>
<path transform="matrix(.75,0,0,.75,56.25,215.25)" stroke-width=".666667" stroke-linecap="butt" stroke-miterlimit="10" stroke-linejoin="miter" fill="none" stroke="#3366cc" d="M -2.8284274 -2.8284274 L 2.8284274 2.8284274 M -2.8284274 2.8284274 L 2.8284274 -2.8284274 "/>
<path transform="matrix(.75,0,0,.75,77.15625,179.94788)" stroke-width=".666667" stroke-linecap="butt" stroke-miterlimit="10" stroke-linejoin="miter" fill="none" stroke="#3366cc" d="M -2.8284274 -2.8284274 L 2.8284274 2.8284274 M -2.8284274 2.8284274 L 2.8284274 -2.8284274 "/>
<path transform="matrix(.75,0,0,.75,98.0625,155.2657)" stroke-width=".666667" stroke-linecap="butt" stroke-miterlimit="10" stroke-linejoin="miter" fill="none" stroke="#3366cc" d="M -2.8284274 -2.8284274 L 2.8284274 2.8284274 M -2.8284274 2.8284274 L 2.8284274 -2.8284274 "/>
<path transform="matrix(.75,0,0,.75,118.96875,103.991687)" stroke-width=".666667" stroke-linecap="butt" stroke-miterlimit="10" stroke-linejoin="miter" fill="none" stroke="#3366cc" d="M -2.8284274 -2.8284274 L 2.8284274 2.8284274 M -2.8284274 2.8284274 L 2.8284274 -2.8284274 "/>
<path transform="matrix(.75,0,0,.75,139.875,113.567188)" stroke-width=".666667" stroke-linecap="butt" stroke-miterlimit="10" stroke-linejoin="miter" fill="none" stroke="#3366cc" d="M -2.8284274 -2.8284274 L 2.8284274 2.8284274 M -2.8284274 2.8284274 L 2.8284274 -2.8284274 "/>
<path transform="matrix(.75,0,0,.75,160.78125,114.08648)" stroke-width=".666667" stroke-linecap="butt" stroke-miterlimit="10" stroke-linejoin="miter" fill="none" stroke="#3366cc" d="M -2.8284274 -2.8284274 L 2.8284274 2.8284274 M -2.8284274 2.8284274 L 2.8284274 -2.8284274 "/>
<path transform="matrix(.75,0,0,.75,181.6875,101.26253)" stroke-width=".666667" stroke-linecap="butt" stroke-miterlimit="10" stroke-linejoin="miter" fill="none" stroke="#3366cc" d="M -2.8284274 -2.8284274 L 2.8284274 2.8284274 M -2.8284274 2.8284274 L 2.8284274 -2.8284274 "/>
<path transform="matrix(.75,0,0,.75,223.5,85.08323)" stroke-width=".666667" stroke-linecap="butt" stroke-miterlimit="10" stroke-linejoin="miter" fill="none" stroke="#3366cc" d="M -2.8284274 -2.8284274 L 2.8284274 2.8284274 M -2.8284274 2.8284274 L 2.8284274 -2.8284274 "/>
<path transform="matrix(.75,0,0,.75,265.3125,109.58451)" stroke-width=".666667" stroke-linecap="butt" stroke-miterlimit="10" stroke-linejoin="miter" fill="none" stroke="#3366cc" d="M -2.8284274 -2.8284274 L 2.8284274 2.8284274 M -2.8284274 2.8284274 L 2.8284274 -2.8284274 "/>
<path transform="matrix(.75,0,0,.75,307.125,163.37802)" stroke-width=".666667" stroke-linecap="butt" stroke-miterlimit="10" stroke-linejoin="miter" fill="none" stroke="#3366cc" d="M -2.8284274 -2.8284274 L 2.8284274 2.8284274 M -2.8284274 2.8284274 L 2.8284274 -2.8284274 "/>
<path transform="matrix(.75,0,0,.75,348.9375,162.01802)" stroke-width=".666667" stroke-linecap="butt" stroke-miterlimit="10" stroke-linejoin="miter" fill="none" stroke="#3366cc" d="M -2.8284274 -2.8284274 L 2.8284274 2.8284274 M -2.8284274 2.8284274 L 2.8284274 -2.8284274 "/>
<path transform="matrix(.75,0,0,.75,390.75,175.44954)" stroke-width=".666667" stroke-linecap="butt" stroke-miterlimit="10" stroke-linejoin="miter" fill="none" stroke="#3366cc" d="M -2.8284274 -2.8284274 L 2.8284274 2.8284274 M -2.8284274 2.8284274 L 2.8284274 -2.8284274 "/>
<path transform="matrix(.75,0,0,.75,56.25,59.865709)" stroke-width=".666667" stroke-linecap="butt" stroke-miterlimit="10" stroke-linejoin="miter" fill="none" stroke="#dc3912" d="M -2.8284274 -2.8284274 L 2.8284274 2.8284274 M -2.8284274 2.8284274 L 2.8284274 -2.8284274 "/>
<path transform="matrix(.75,0,0,.75,77.15625,77.53747)" stroke-width=".666667" stroke-linecap="butt" stroke-miterlimit="10" stroke-linejoin="miter" fill="none" stroke="#dc3912" d="M -2.8284274 -2.8284274 L 2.8284274 2.8284274 M -2.8284274 2.8284274 L 2.8284274 -2.8284274 "/>
<path transform="matrix(.75,0,0,.75,98.0625,68.96219)" stroke-width=".666667" stroke-linecap="butt" stroke-miterlimit="10" stroke-linejoin="miter" fill="none" stroke="#dc3912" d="M -2.8284274 -2.8284274 L 2.8284274 2.8284274 M -2.8284274 2.8284274 L 2.8284274 -2.8284274 "/>
<path transform="matrix(.75,0,0,.75,118.96875,135.32579)" stroke-width=".666667" stroke-linecap="butt" stroke-miterlimit="10" stroke-linejoin="miter" fill="none" stroke="#dc3912" d="M -2.8284274 -2.8284274 L 2.8284274 2.8284274 M -2.8284274 2.8284274 L 2.8284274 -2.8284274 "/>
<path transform="matrix(.75,0,0,.75,139.875,108.720188)" stroke-width=".666667" stroke-linecap="butt" stroke-miterlimit="10" stroke-linejoin="miter" fill="none" stroke="#dc3912" d="M -2.8284274 -2.8284274 L 2.8284274 2.8284274 M -2.8284274 2.8284274 L 2.8284274 -2.8284274 "/>
<path transform="matrix(.75,0,0,.75,160.78125,116.96029)" stroke-width=".666667" stroke-linecap="butt" stroke-miterlimit="10" stroke-linejoin="miter" fill="none" stroke="#dc3912" d="M -2.8284274 -2.8284274 L 2.8284274 2.8284274 M -2.8284274 2.8284274 L 2.8284274 -2.8284274 "/>
<path transform="matrix(.75,0,0,.75,181.6875,112.21445)" stroke-width=".666667" stroke-linecap="butt" stroke-miterlimit="10" stroke-linejoin="miter" fill="none" stroke="#dc3912" d="M -2.8284274 -2.8284274 L 2.8284274 2.8284274 M -2.8284274 2.8284274 L 2.8284274 -2.8284274 "/>
<path transform="matrix(.75,0,0,.75,223.5,120.26111)" stroke-width=".666667" stroke-linecap="butt" stroke-miterlimit="10" stroke-linejoin="miter" fill="none" stroke="#dc3912" d="M -2.8284274 -2.8284274 L 2.8284274 2.8284274 M -2.8284274 2.8284274 L 2.8284274 -2.8284274 "/>
<path transform="matrix(.75,0,0,.75,265.3125,123.41002)" stroke-width=".666667" stroke-linecap="butt" stroke-miterlimit="10" stroke-linejoin="miter" fill="none" stroke="#dc3912" d="M -2.8284274 -2.8284274 L 2.8284274 2.8284274 M -2.8284274 2.8284274 L 2.8284274 -2.8284274 "/>
<path transform="matrix(.75,0,0,.75,307.125,141.41252)" stroke-width=".666667" stroke-linecap="butt" stroke-miterlimit="10" stroke-linejoin="miter" fill="none" stroke="#dc3912" d="M -2.8284274 -2.8284274 L 2.8284274 2.8284274 M -2.8284274 2.8284274 L 2.8284274 -2.8284274 "/>
<path transform="matrix(.75,0,0,.75,348.9375,169.35779)" stroke-width=".666667" stroke-linecap="butt" stroke-miterlimit="10" stroke-linejoin="miter" fill="none" stroke="#dc3912" d="M -2.8284274 -2.8284274 L 2.8284274 2.8284274 M -2.8284274 2.8284274 L 2.8284274 -2.8284274 "/>
<path transform="matrix(.75,0,0,.75,390.75,165.85482)" stroke-width=".666667" stroke-linecap="butt" stroke-miterlimit="10" stroke-linejoin="miter" fill="none" stroke="#dc3912" d="M -2.8284274 -2.8284274 L 2.8284274 2.8284274 M -2.8284274 2.8284274 L 2.8284274 -2.8284274 "/>
<path transform="matrix(.75,0,0,.75,56.25,59.865709)" stroke-width=".666667" stroke-linecap="butt" stroke-miterlimit="10" stroke-linejoin="miter" fill="none" stroke="#dc3912" d="M -2.8284274 -2.8284274 L 2.8284274 2.8284274 M -2.8284274 2.8284274 L 2.8284274 -2.8284274 "/>
<path transform="matrix(.75,0,0,.75,77.15625,59.08752)" stroke-width=".666667" stroke-linecap="butt" stroke-miterlimit="10" stroke-linejoin="miter" fill="none" stroke="#dc3912" d="M -2.8284274 -2.8284274 L 2.8284274 2.8284274 M -2.8284274 2.8284274 L 2.8284274 -2.8284274 "/>
<path transform="matrix(.75,0,0,.75,98.0625,90.347408)" stroke-width=".666667" stroke-linecap="butt" stroke-miterlimit="10" stroke-linejoin="miter" fill="none" stroke="#dc3912" d="M -2.8284274 -2.8284274 L 2.8284274 2.8284274 M -2.8284274 2.8284274 L 2.8284274 -2.8284274 "/>
<path transform="matrix(.75,0,0,.75,118.96875,117.3702)" stroke-width=".666667" stroke-linecap="butt" stroke-miterlimit="10" stroke-linejoin="miter" fill="none" stroke="#dc3912" d="M -2.8284274 -2.8284274 L 2.8284274 2.8284274 M -2.8284274 2.8284274 L 2.8284274 -2.8284274 "/>
<path transform="matrix(.75,0,0,.75,139.875,146.77855)" stroke-width=".666667" stroke-linecap="butt" stroke-miterlimit="10" stroke-linejoin="miter" fill="none" stroke="#dc3912" d="M -2.8284274 -2.8284274 L 2.8284274 2.8284274 M -2.8284274 2.8284274 L 2.8284274 -2.8284274 "/>
<path transform="matrix(.75,0,0,.75,160.78125,130.39182)" stroke-width=".666667" stroke-linecap="butt" stroke-miterlimit="10" stroke-linejoin="miter" fill="none" stroke="#dc3912" d="M -2.8284274 -2.8284274 L 2.8284274 2.8284274 M -2.8284274 2.8284274 L 2.8284274 -2.8284274 "/>
<path transform="matrix(.75,0,0,.75,181.6875,169.03047)" stroke-width=".666667" stroke-linecap="butt" stroke-miterlimit="10" stroke-linejoin="miter" fill="none" stroke="#dc3912" d="M -2.8284274 -2.8284274 L 2.8284274 2.8284274 M -2.8284274 2.8284274 L 2.8284274 -2.8284274 "/>
<path transform="matrix(.75,0,0,.75,223.5,139.71109)" stroke-width=".666667" stroke-linecap="butt" stroke-miterlimit="10" stroke-linejoin="miter" fill="none" stroke="#dc3912" d="M -2.8284274 -2.8284274 L 2.8284274 2.8284274 M -2.8284274 2.8284274 L 2.8284274 -2.8284274 "/>
<path transform="matrix(.75,0,0,.75,265.3125,145.53128)" stroke-width=".666667" stroke-linecap="butt" stroke-miterlimit="10" stroke-linejoin="miter" fill="none" stroke="#dc3912" d="M -2.8284274 -2.8284274 L 2.8284274 2.8284274 M -2.8284274 2.8284274 L 2.8284274 -2.8284274 "/>
<path transform="matrix(.75,0,0,.75,307.125,160.65346)" stroke-width=".666667" stroke-linecap="butt" stroke-miterlimit="10" stroke-linejoin="miter" fill="none" stroke="#dc3912" d="M -2.8284274 -2.8284274 L 2.8284274 2.8284274 M -2.8284274 2.8284274 L 2.8284274 -2.8284274 "/>
<path transform="matrix(.75,0,0,.75,348.9375,184.89702)" stroke-width=".666667" stroke-linecap="butt" stroke-miterlimit="10" stroke-linejoin="miter" fill="none" stroke="#dc3912" d="M -2.8284274 -2.8284274 L 2.8284274 2.8284274 M -2.8284274 2.8284274 L 2.8284274 -2.8284274 "/>
<path transform="matrix(.75,0,0,.75,390.75,215.25)" stroke-width=".666667" stroke-linecap="butt" stroke-miterlimit="10" stroke-linejoin="miter" fill="none" stroke="#dc3912" d="M -2.8284274 -2.8284274 L 2.8284274 2.8284274 M -2.8284274 2.8284274 L 2.8284274 -2.8284274 "/>
<path transform="matrix(.75,0,0,.75,56.25,59.865709)" stroke-width=".666667" stroke-linecap="butt" stroke-miterlimit="10" stroke-linejoin="miter" fill="none" stroke="#dc3912" d="M -2.8284274 -2.8284274 L 2.8284274 2.8284274 M -2.8284274 2.8284274 L 2.8284274 -2.8284274 "/>
<path transform="matrix(.75,0,0,.75,77.15625,50.192)" stroke-width=".666667" stroke-linecap="butt" stroke-miterlimit="10" stroke-linejoin="miter" fill="none" stroke="#dc3912" d="M -2.8284274 -2.8284274 L 2.8284274 2.8284274 M -2.8284274 2.8284274 L 2.8284274 -2.8284274 "/>
<path transform="matrix(.75,0,0,.75,98.0625,53.303598)" stroke-width=".666667" stroke-linecap="butt" stroke-miterlimit="10" stroke-linejoin="miter" fill="none" stroke="#dc3912" d="M -2.8284274 -2.8284274 L 2.8284274 2.8284274 M -2.8284274 2.8284274 L 2.8284274 -2.8284274 "/>
<path transform="matrix(.75,0,0,.75,118.96875,135.78684)" stroke-width=".666667" stroke-linecap="butt" stroke-miterlimit="10" stroke-linejoin="miter" fill="none" stroke="#dc3912" d="M -2.8284274 -2.8284274 L 2.8284274 2.8284274 M -2.8284274 2.8284274 L 2.8284274 -2.8284274 "/>
<path transform="matrix(.75,0,0,.75,139.875,139.16336)" stroke-width=".666667" stroke-linecap="butt" stroke-miterlimit="10" stroke-linejoin="miter" fill="none" stroke="#dc3912" d="M -2.8284274 -2.8284274 L 2.8284274 2.8284274 M -2.8284274 2.8284274 L 2.8284274 -2.8284274 "/>
<path transform="matrix(.75,0,0,.75,160.78125,139.43831)" stroke-width=".666667" stroke-linecap="butt" stroke-miterlimit="10" stroke-linejoin="miter" fill="none" stroke="#dc3912" d="M -2.8284274 -2.8284274 L 2.8284274 2.8284274 M -2.8284274 2.8284274 L 2.8284274 -2.8284274 "/>
<path transform="matrix(.75,0,0,.75,181.6875,118.90433)" stroke-width=".666667" stroke-linecap="butt" stroke-miterlimit="10" stroke-linejoin="miter" fill="none" stroke="#dc3912" d="M -2.8284274 -2.8284274 L 2.8284274 2.8284274 M -2.8284274 2.8284274 L 2.8284274 -2.8284274 "/>
<path transform="matrix(.75,0,0,.75,223.5,168.4194)" stroke-width=".666667" stroke-linecap="butt" stroke-miterlimit="10" stroke-linejoin="miter" fill="none" stroke="#dc3912" d="M -2.8284274 -2.8284274 L 2.8284274 2.8284274 M -2.8284274 2.8284274 L 2.8284274 -2.8284274 "/>
<path transform="matrix(.75,0,0,.75,265.3125,71.665477)" stroke-width=".666667" stroke-linecap="butt" stroke-miterlimit="10" stroke-linejoin="miter" fill="none" stroke="#dc3912" d="M -2.8284274 -2.8284274 L 2.8284274 2.8284274 M -2.8284274 2.8284274 L 2.8284274 -2.8284274 "/>
<path transform="matrix(.75,0,0,.75,307.125,136.43956)" stroke-width=".666667" stroke-linecap="butt" stroke-miterlimit="10" stroke-linejoin="miter" fill="none" stroke="#dc3912" d="M -2.8284274 -2.8284274 L 2.8284274 2.8284274 M -2.8284274 2.8284274 L 2.8284274 -2.8284274 "/>
<path transform="matrix(.75,0,0,.75,348.9375,186.12268)" stroke-width=".666667" stroke-linecap="butt" stroke-miterlimit="10" stroke-linejoin="miter" fill="none" stroke="#dc3912" d="M -2.8284274 -2.8284274 L 2.8284274 2.8284274 M -2.8284274 2.8284274 L 2.8284274 -2.8284274 "/>
<path transform="matrix(.75,0,0,.75,390.75,182.3122)" stroke-width=".666667" stroke-linecap="butt" stroke-miterlimit="10" stroke-linejoin="miter" fill="none" stroke="#dc3912" d="M -2.8284274 -2.8284274 L 2.8284274 2.8284274 M -2.8284274 2.8284274 L 2.8284274 -2.8284274 "/>
<path transform="matrix(.75,0,0,.75,56.25,59.865709)" stroke-width=".666667" stroke-linecap="butt" stroke-miterlimit="10" stroke-linejoin="miter" fill="none" stroke="#dc3912" d="M -2.8284274 -2.8284274 L 2.8284274 2.8284274 M -2.8284274 2.8284274 L 2.8284274 -2.8284274 "/>
<path transform="matrix(.75,0,0,.75,77.15625,49.602506)" stroke-width=".666667" stroke-linecap="butt" stroke-miterlimit="10" stroke-linejoin="miter" fill="none" stroke="#dc3912" d="M -2.8284274 -2.8284274 L 2.8284274 2.8284274 M -2.8284274 2.8284274 L 2.8284274 -2.8284274 "/>
<path transform="matrix(.75,0,0,.75,98.0625,55.493616)" stroke-width=".666667" stroke-linecap="butt" stroke-miterlimit="10" stroke-linejoin="miter" fill="none" stroke="#dc3912" d="M -2.8284274 -2.8284274 L 2.8284274 2.8284274 M -2.8284274 2.8284274 L 2.8284274 -2.8284274 "/>
<path transform="matrix(.75,0,0,.75,118.96875,121.53979)" stroke-width=".666667" stroke-linecap="butt" stroke-miterlimit="10" stroke-linejoin="miter" fill="none" stroke="#dc3912" d="M -2.8284274 -2.8284274 L 2.8284274 2.8284274 M -2.8284274 2.8284274 L 2.8284274 -2.8284274 "/>
<path transform="matrix(.75,0,0,.75,139.875,140.23838)" stroke-width=".666667" stroke-linecap="butt" stroke-miterlimit="10" stroke-linejoin="miter" fill="none" stroke="#dc3912" d="M -2.8284274 -2.8284274 L 2.8284274 2.8284274 M -2.8284274 2.8284274 L 2.8284274 -2.8284274 "/>
<path transform="matrix(.75,0,0,.75,160.78125,139.39626)" stroke-width=".666667" stroke-linecap="butt" stroke-miterlimit="10" stroke-linejoin="miter" fill="none" stroke="#dc3912" d="M -2.8284274 -2.8284274 L 2.8284274 2.8284274 M -2.8284274 2.8284274 L 2.8284274 -2.8284274 "/>
<path transform="matrix(.75,0,0,.75,181.6875,128.51209)" stroke-width=".666667" stroke-linecap="butt" stroke-miterlimit="10" stroke-linejoin="miter" fill="none" stroke="#dc3912" d="M -2.8284274 -2.8284274 L 2.8284274 2.8284274 M -2.8284274 2.8284274 L 2.8284274 -2.8284274 "/>
<path transform="matrix(.75,0,0,.75,223.5,153.65164)" stroke-width=".666667" stroke-linecap="butt" stroke-miterlimit="10" stroke-linejoin="miter" fill="none" stroke="#dc3912" d="M -2.8284274 -2.8284274 L 2.8284274 2.8284274 M -2.8284274 2.8284274 L 2.8284274 -2.8284274 "/>
<path transform="matrix(.75,0,0,.75,265.3125,144.54422)" stroke-width=".666667" stroke-linecap="butt" stroke-miterlimit="10" stroke-linejoin="miter" fill="none" stroke="#dc3912" d="M -2.8284274 -2.8284274 L 2.8284274 2.8284274 M -2.8284274 2.8284274 L 2.8284274 -2.8284274 "/>
<path transform="matrix(.75,0,0,.75,307.125,168.52008)" stroke-width=".666667" stroke-linecap="butt" stroke-miterlimit="10" stroke-linejoin="miter" fill="none" stroke="#dc3912" d="M -2.8284274 -2.8284274 L 2.8284274 2.8284274 M -2.8284274 2.8284274 L 2.8284274 -2.8284274 "/>
<path transform="matrix(.75,0,0,.75,348.9375,186.12268)" stroke-width=".666667" stroke-linecap="butt" stroke-miterlimit="10" stroke-linejoin="miter" fill="none" stroke="#dc3912" d="M -2.8284274 -2.8284274 L 2.8284274 2.8284274 M -2.8284274 2.8284274 L 2.8284274 -2.8284274 "/>
<path transform="matrix(.75,0,0,.75,390.75,192.96977)" stroke-width=".666667" stroke-linecap="butt" stroke-miterlimit="10" stroke-linejoin="miter" fill="none" stroke="#dc3912" d="M -2.8284274 -2.8284274 L 2.8284274 2.8284274 M -2.8284274 2.8284274 L 2.8284274 -2.8284274 "/>
<path transform="matrix(.75,0,0,.75,56.25,59.865709)" stroke-width=".666667" stroke-linecap="butt" stroke-miterlimit="10" stroke-linejoin="miter" fill="none" stroke="#dc3912" d="M -2.8284274 -2.8284274 L 2.8284274 2.8284274 M -2.8284274 2.8284274 L 2.8284274 -2.8284274 "/>
<path transform="matrix(.75,0,0,.75,77.15625,38.053838)" stroke-width=".666667" stroke-linecap="butt" stroke-miterlimit="10" stroke-linejoin="miter" fill="none" stroke="#dc3912" d="M -2.8284274 -2.8284274 L 2.8284274 2.8284274 M -2.8284274 2.8284274 L 2.8284274 -2.8284274 "/>
<path transform="matrix(.75,0,0,.75,98.0625,52.821069)" stroke-width=".666667" stroke-linecap="butt" stroke-miterlimit="10" stroke-linejoin="miter" fill="none" stroke="#dc3912" d="M -2.8284274 -2.8284274 L 2.8284274 2.8284274 M -2.8284274 2.8284274 L 2.8284274 -2.8284274 "/>
<path transform="matrix(.75,0,0,.75,118.96875,133.9217)" stroke-width=".666667" stroke-linecap="butt" stroke-miterlimit="10" stroke-linejoin="miter" fill="none" stroke="#dc3912" d="M -2.8284274 -2.8284274 L 2.8284274 2.8284274 M -2.8284274 2.8284274 L 2.8284274 -2.8284274 "/>
<path transform="matrix(.75,0,0,.75,139.875,140.41522)" stroke-width=".666667" stroke-linecap="butt" stroke-miterlimit="10" stroke-linejoin="miter" fill="none" stroke="#dc3912" d="M -2.8284274 -2.8284274 L 2.8284274 2.8284274 M -2.8284274 2.8284274 L 2.8284274 -2.8284274 "/>
<path transform="matrix(.75,0,0,.75,160.78125,140.84503)" stroke-width=".666667" stroke-linecap="butt" stroke-miterlimit="10" stroke-linejoin="miter" fill="none" stroke="#dc3912" d="M -2.8284274 -2.8284274 L 2.8284274 2.8284274 M -2.8284274 2.8284274 L 2.8284274 -2.8284274 "/>
<path transform="matrix(.75,0,0,.75,181.6875,110.52006)" stroke-width=".666667" stroke-linecap="butt" stroke-miterlimit="10" stroke-linejoin="miter" fill="none" stroke="#dc3912" d="M -2.8284274 -2.8284274 L 2.8284274 2.8284274 M -2.8284274 2.8284274 L 2.8284274 -2.8284274 "/>
<path transform="matrix(.75,0,0,.75,223.5,118.68428)" stroke-width=".666667" stroke-linecap="butt" stroke-miterlimit="10" stroke-linejoin="miter" fill="none" stroke="#dc3912" d="M -2.8284274 -2.8284274 L 2.8284274 2.8284274 M -2.8284274 2.8284274 L 2.8284274 -2.8284274 "/>
<path transform="matrix(.75,0,0,.75,265.3125,148.25362)" stroke-width=".666667" stroke-linecap="butt" stroke-miterlimit="10" stroke-linejoin="miter" fill="none" stroke="#dc3912" d="M -2.8284274 -2.8284274 L 2.8284274 2.8284274 M -2.8284274 2.8284274 L 2.8284274 -2.8284274 "/>
<path transform="matrix(.75,0,0,.75,307.125,155.92377)" stroke-width=".666667" stroke-linecap="butt" stroke-miterlimit="10" stroke-linejoin="miter" fill="none" stroke="#dc3912" d="M -2.8284274 -2.8284274 L 2.8284274 2.8284274 M -2.8284274 2.8284274 L 2.8284274 -2.8284274 "/>
<path transform="matrix(.75,0,0,.75,348.9375,165.03284)" stroke-width=".666667" stroke-linecap="butt" stroke-miterlimit="10" stroke-linejoin="miter" fill="none" stroke="#dc3912" d="M -2.8284274 -2.8284274 L 2.8284274 2.8284274 M -2.8284274 2.8284274 L 2.8284274 -2.8284274 "/>
<path transform="matrix(.75,0,0,.75,390.75,194.3872)" stroke-width=".666667" stroke-linecap="butt" stroke-miterlimit="10" stroke-linejoin="miter" fill="none" stroke="#dc3912" d="M -2.8284274 -2.8284274 L 2.8284274 2.8284274 M -2.8284274 2.8284274 L 2.8284274 -2.8284274 "/>
<path transform="matrix(.75,0,0,.75,56.25,59.865709)" stroke-width=".666667" stroke-linecap="butt" stroke-miterlimit="10" stroke-linejoin="miter" fill="none" stroke="#dc3912" d="M -2.8284274 -2.8284274 L 2.8284274 2.8284274 M -2.8284274 2.8284274 L 2.8284274 -2.8284274 "/>
<path transform="matrix(.75,0,0,.75,77.15625,50.7121)" stroke-width=".666667" stroke-linecap="butt" stroke-miterlimit="10" stroke-linejoin="miter" fill="none" stroke="#dc3912" d="M -2.8284274 -2.8284274 L 2.8284274 2.8284274 M -2.8284274 2.8284274 L 2.8284274 -2.8284274 "/>
<path transform="matrix(.75,0,0,.75,98.0625,90.375148)" stroke-width=".666667" stroke-linecap="butt" stroke-miterlimit="10" stroke-linejoin="miter" fill="none" stroke="#dc3912" d="M -2.8284274 -2.8284274 L 2.8284274 2.8284274 M -2.8284274 2.8284274 L 2.8284274 -2.8284274 "/>
<path transform="matrix(.75,0,0,.75,118.96875,130.99756)" stroke-width=".666667" stroke-linecap="butt" stroke-miterlimit="10" stroke-linejoin="miter" fill="none" stroke="#dc3912" d="M -2.8284274 -2.8284274 L 2.8284274 2.8284274 M -2.8284274 2.8284274 L 2.8284274 -2.8284274 "/>
<path transform="matrix(.75,0,0,.75,139.875,118.40026)" stroke-width=".666667" stroke-linecap="butt" stroke-miterlimit="10" stroke-linejoin="miter" fill="none" stroke="#dc3912" d="M -2.8284274 -2.8284274 L 2.8284274 2.8284274 M -2.8284274 2.8284274 L 2.8284274 -2.8284274 "/>
<path transform="matrix(.75,0,0,.75,160.78125,115.30502)" stroke-width=".666667" stroke-linecap="butt" stroke-miterlimit="10" stroke-linejoin="miter" fill="none" stroke="#dc3912" d="M -2.8284274 -2.8284274 L 2.8284274 2.8284274 M -2.8284274 2.8284274 L 2.8284274 -2.8284274 "/>
<path transform="matrix(.75,0,0,.75,181.6875,90.5249)" stroke-width=".666667" stroke-linecap="butt" stroke-miterlimit="10" stroke-linejoin="miter" fill="none" stroke="#dc3912" d="M -2.8284274 -2.8284274 L 2.8284274 2.8284274 M -2.8284274 2.8284274 L 2.8284274 -2.8284274 "/>
<path transform="matrix(.75,0,0,.75,223.5,163.67884)" stroke-width=".666667" stroke-linecap="butt" stroke-miterlimit="10" stroke-linejoin="miter" fill="none" stroke="#dc3912" d="M -2.8284274 -2.8284274 L 2.8284274 2.8284274 M -2.8284274 2.8284274 L 2.8284274 -2.8284274 "/>
<path transform="matrix(.75,0,0,.75,265.3125,129.40418)" stroke-width=".666667" stroke-linecap="butt" stroke-miterlimit="10" stroke-linejoin="miter" fill="none" stroke="#dc3912" d="M -2.8284274 -2.8284274 L 2.8284274 2.8284274 M -2.8284274 2.8284274 L 2.8284274 -2.8284274 "/>
<path transform="matrix(.75,0,0,.75,307.125,143.59435)" stroke-width=".666667" stroke-linecap="butt" stroke-miterlimit="10" stroke-linejoin="miter" fill="none" stroke="#dc3912" d="M -2.8284274 -2.8284274 L 2.8284274 2.8284274 M -2.8284274 2.8284274 L 2.8284274 -2.8284274 "/>
<path transform="matrix(.75,0,0,.75,348.9375,141.05049)" stroke-width=".666667" stroke-linecap="butt" stroke-miterlimit="10" stroke-linejoin="miter" fill="none" stroke="#dc3912" d="M -2.8284274 -2.8284274 L 2.8284274 2.8284274 M -2.8284274 2.8284274 L 2.8284274 -2.8284274 "/>
<path transform="matrix(.75,0,0,.75,390.75,196.7135)" stroke-width=".666667" stroke-linecap="butt" stroke-miterlimit="10" stroke-linejoin="miter" fill="none" stroke="#dc3912" d="M -2.8284274 -2.8284274 L 2.8284274 2.8284274 M -2.8284274 2.8284274 L 2.8284274 -2.8284274 "/>
<path transform="matrix(.75,0,0,.75,56.25,59.865709)" stroke-width=".666667" stroke-linecap="butt" stroke-miterlimit="10" stroke-linejoin="miter" fill="none" stroke="#dc3912" d="M -2.8284274 -2.8284274 L 2.8284274 2.8284274 M -2.8284274 2.8284274 L 2.8284274 -2.8284274 "/>
<path transform="matrix(.75,0,0,.75,77.15625,57.862119)" stroke-width=".666667" stroke-linecap="butt" stroke-miterlimit="10" stroke-linejoin="miter" fill="none" stroke="#dc3912" d="M -2.8284274 -2.8284274 L 2.8284274 2.8284274 M -2.8284274 2.8284274 L 2.8284274 -2.8284274 "/>
<path transform="matrix(.75,0,0,.75,98.0625,68.544628)" stroke-width=".666667" stroke-linecap="butt" stroke-miterlimit="10" stroke-linejoin="miter" fill="none" stroke="#dc3912" d="M -2.8284274 -2.8284274 L 2.8284274 2.8284274 M -2.8284274 2.8284274 L 2.8284274 -2.8284274 "/>
<path transform="matrix(.75,0,0,.75,118.96875,146.54521)" stroke-width=".666667" stroke-linecap="butt" stroke-miterlimit="10" stroke-linejoin="miter" fill="none" stroke="#dc3912" d="M -2.8284274 -2.8284274 L 2.8284274 2.8284274 M -2.8284274 2.8284274 L 2.8284274 -2.8284274 "/>
<path transform="matrix(.75,0,0,.75,139.875,140.78653)" stroke-width=".666667" stroke-linecap="butt" stroke-miterlimit="10" stroke-linejoin="miter" fill="none" stroke="#dc3912" d="M -2.8284274 -2.8284274 L 2.8284274 2.8284274 M -2.8284274 2.8284274 L 2.8284274 -2.8284274 "/>
<path transform="matrix(.75,0,0,.75,160.78125,126.88104)" stroke-width=".666667" stroke-linecap="butt" stroke-miterlimit="10" stroke-linejoin="miter" fill="none" stroke="#dc3912" d="M -2.8284274 -2.8284274 L 2.8284274 2.8284274 M -2.8284274 2.8284274 L 2.8284274 -2.8284274 "/>
<path transform="matrix(.75,0,0,.75,181.6875,129.70929)" stroke-width=".666667" stroke-linecap="butt" stroke-miterlimit="10" stroke-linejoin="miter" fill="none" stroke="#dc3912" d="M -2.8284274 -2.8284274 L 2.8284274 2.8284274 M -2.8284274 2.8284274 L 2.8284274 -2.8284274 "/>
<path transform="matrix(.75,0,0,.75,223.5,130.6199)" stroke-width=".666667" stroke-linecap="butt" stroke-miterlimit="10" stroke-linejoin="miter" fill="none" stroke="#dc3912" d="M -2.8284274 -2.8284274 L 2.8284274 2.8284274 M -2.8284274 2.8284274 L 2.8284274 -2.8284274 "/>
<path transform="matrix(.75,0,0,.75,265.3125,145.74825)" stroke-width=".666667" stroke-linecap="butt" stroke-miterlimit="10" stroke-linejoin="miter" fill="none" stroke="#dc3912" d="M -2.8284274 -2.8284274 L 2.8284274 2.8284274 M -2.8284274 2.8284274 L 2.8284274 -2.8284274 "/>
<path transform="matrix(.75,0,0,.75,307.125,152.74434)" stroke-width=".666667" stroke-linecap="butt" stroke-miterlimit="10" stroke-linejoin="miter" fill="none" stroke="#dc3912" d="M -2.8284274 -2.8284274 L 2.8284274 2.8284274 M -2.8284274 2.8284274 L 2.8284274 -2.8284274 "/>
<path transform="matrix(.75,0,0,.75,348.9375,172.08472)" stroke-width=".666667" stroke-linecap="butt" stroke-miterlimit="10" stroke-linejoin="miter" fill="none" stroke="#dc3912" d="M -2.8284274 -2.8284274 L 2.8284274 2.8284274 M -2.8284274 2.8284274 L 2.8284274 -2.8284274 "/>
<path transform="matrix(.75,0,0,.75,390.75,154.01773)" stroke-width=".666667" stroke-linecap="butt" stroke-miterlimit="10" stroke-linejoin="miter" fill="none" stroke="#dc3912" d="M -2.8284274 -2.8284274 L 2.8284274 2.8284274 M -2.8284274 2.8284274 L 2.8284274 -2.8284274 "/>
<path transform="matrix(.75,0,0,.75,56.25,59.865709)" stroke-width=".666667" stroke-linecap="butt" stroke-miterlimit="10" stroke-linejoin="miter" fill="none" stroke="#dc3912" d="M -2.8284274 -2.8284274 L 2.8284274 2.8284274 M -2.8284274 2.8284274 L 2.8284274 -2.8284274 "/>
<path transform="matrix(.75,0,0,.75,77.15625,90.88933)" stroke-width=".666667" stroke-linecap="butt" stroke-miterlimit="10" stroke-linejoin="miter" fill="none" stroke="#dc3912" d="M -2.8284274 -2.8284274 L 2.8284274 2.8284274 M -2.8284274 2.8284274 L 2.8284274 -2.8284274 "/>
<path transform="matrix(.75,0,0,.75,98.0625,53.000135)" stroke-width=".666667" stroke-linecap="butt" stroke-miterlimit="10" stroke-linejoin="miter" fill="none" stroke="#dc3912" d="M -2.8284274 -2.8284274 L 2.8284274 2.8284274 M -2.8284274 2.8284274 L 2.8284274 -2.8284274 "/>
<path transform="matrix(.75,0,0,.75,118.96875,137.59601)" stroke-width=".666667" stroke-linecap="butt" stroke-miterlimit="10" stroke-linejoin="miter" fill="none" stroke="#dc3912" d="M -2.8284274 -2.8284274 L 2.8284274 2.8284274 M -2.8284274 2.8284274 L 2.8284274 -2.8284274 "/>
<path transform="matrix(.75,0,0,.75,139.875,136.12416)" stroke-width=".666667" stroke-linecap="butt" stroke-miterlimit="10" stroke-linejoin="miter" fill="none" stroke="#dc3912" d="M -2.8284274 -2.8284274 L 2.8284274 2.8284274 M -2.8284274 2.8284274 L 2.8284274 -2.8284274 "/>
<path transform="matrix(.75,0,0,.75,160.78125,146.20633)" stroke-width=".666667" stroke-linecap="butt" stroke-miterlimit="10" stroke-linejoin="miter" fill="none" stroke="#dc3912" d="M -2.8284274 -2.8284274 L 2.8284274 2.8284274 M -2.8284274 2.8284274 L 2.8284274 -2.8284274 "/>
<path transform="matrix(.75,0,0,.75,181.6875,138.50649)" stroke-width=".666667" stroke-linecap="butt" stroke-miterlimit="10" stroke-linejoin="miter" fill="none" stroke="#dc3912" d="M -2.8284274 -2.8284274 L 2.8284274 2.8284274 M -2.8284274 2.8284274 L 2.8284274 -2.8284274 "/>
<path transform="matrix(.75,0,0,.75,223.5,175.51007)" stroke-width=".666667" stroke-linecap="butt" stroke-miterlimit="10" stroke-linejoin="miter" fill="none" stroke="#dc3912" d="M -2.8284274 -2.8284274 L 2.8284274 2.8284274 M -2.8284274 2.8284274 L 2.8284274 -2.8284274 "/>
<path transform="matrix(.75,0,0,.75,265.3125,147.75601)" stroke-width=".666667" stroke-linecap="butt" stroke-miterlimit="10" stroke-linejoin="miter" fill="none" stroke="#dc3912" d="M -2.8284274 -2.8284274 L 2.8284274 2.8284274 M -2.8284274 2.8284274 L 2.8284274 -2.8284274 "/>
<path transform="matrix(.75,0,0,.75,307.125,191.33156)" stroke-width=".666667" stroke-linecap="butt" stroke-miterlimit="10" stroke-linejoin="miter" fill="none" stroke="#dc3912" d="M -2.8284274 -2.8284274 L 2.8284274 2.8284274 M -2.8284274 2.8284274 L 2.8284274 -2.8284274 "/>
<path transform="matrix(.75,0,0,.75,348.9375,140.02182)" stroke-width=".666667" stroke-linecap="butt" stroke-miterlimit="10" stroke-linejoin="miter" fill="none" stroke="#dc3912" d="M -2.8284274 -2.8284274 L 2.8284274 2.8284274 M -2.8284274 2.8284274 L 2.8284274 -2.8284274 "/>
<path transform="matrix(.75,0,0,.75,390.75,183.48455)" stroke-width=".666667" stroke-linecap="butt" stroke-miterlimit="10" stroke-linejoin="miter" fill="none" stroke="#dc3912" d="M -2.8284274 -2.8284274 L 2.8284274 2.8284274 M -2.8284274 2.8284274 L 2.8284274 -2.8284274 "/>
<path transform="matrix(.75,0,0,.75,56.25,59.865709)" stroke-width=".666667" stroke-linecap="butt" stroke-miterlimit="10" stroke-linejoin="miter" fill="none" stroke="#dc3912" d="M -2.8284274 -2.8284274 L 2.8284274 2.8284274 M -2.8284274 2.8284274 L 2.8284274 -2.8284274 "/>
<path transform="matrix(.75,0,0,.75,77.15625,99.810977)" stroke-width=".666667" stroke-linecap="butt" stroke-miterlimit="10" stroke-linejoin="miter" fill="none" stroke="#dc3912" d="M -2.8284274 -2.8284274 L 2.8284274 2.8284274 M -2.8284274 2.8284274 L 2.8284274 -2.8284274 "/>
<path transform="matrix(.75,0,0,.75,98.0625,68.491939)" stroke-width=".666667" stroke-linecap="butt" stroke-miterlimit="10" stroke-linejoin="miter" fill="none" stroke="#dc3912" d="M -2.8284274 -2.8284274 L 2.8284274 2.8284274 M -2.8284274 2.8284274 L 2.8284274 -2.8284274 "/>
<path transform="matrix(.75,0,0,.75,118.96875,116.49078)" stroke-width=".666667" stroke-linecap="butt" stroke-miterlimit="10" stroke-linejoin="miter" fill="none" stroke="#dc3912" d="M -2.8284274 -2.8284274 L 2.8284274 2.8284274 M -2.8284274 2.8284274 L 2.8284274 -2.8284274 "/>
<path transform="matrix(.75,0,0,.75,139.875,123.693889)" stroke-width=".666667" stroke-linecap="butt" stroke-miterlimit="10" stroke-linejoin="miter" fill="none" stroke="#dc3912" d="M -2.8284274 -2.8284274 L 2.8284274 2.8284274 M -2.8284274 2.8284274 L 2.8284274 -2.8284274 "/>
<path transform="matrix(.75,0,0,.75,160.78125,142.63768)" stroke-width=".666667" stroke-linecap="butt" stroke-miterlimit="10" stroke-linejoin="miter" fill="none" stroke="#dc3912" d="M -2.8284274 -2.8284274 L 2.8284274 2.8284274 M -2.8284274 2.8284274 L 2.8284274 -2.8284274 "/>
<path transform="matrix(.75,0,0,.75,181.6875,119.53999)" stroke-width=".666667" stroke-linecap="butt" stroke-miterlimit="10" stroke-linejoin="miter" fill="none" stroke="#dc3912" d="M -2.8284274 -2.8284274 L 2.8284274 2.8284274 M -2.8284274 2.8284274 L 2.8284274 -2.8284274 "/>
<path transform="matrix(.75,0,0,.75,223.5,164.32843)" stroke-width=".666667" stroke-linecap="butt" stroke-miterlimit="10" stroke-linejoin="miter" fill="none" stroke="#dc3912" d="M -2.8284274 -2.8284274 L 2.8284274 2.8284274 M -2.8284274 2.8284274 L 2.8284274 -2.8284274 "/>
<path transform="matrix(.75,0,0,.75,265.3125,150.79721)" stroke-width=".666667" stroke-linecap="butt" stroke-miterlimit="10" stroke-linejoin="miter" fill="none" stroke="#dc3912" d="M -2.8284274 -2.8284274 L 2.8284274 2.8284274 M -2.8284274 2.8284274 L 2.8284274 -2.8284274 "/>
<path transform="matrix(.75,0,0,.75,307.125,168.60935)" stroke-width=".666667" stroke-linecap="butt" stroke-miterlimit="10" stroke-linejoin="miter" fill="none" stroke="#dc3912" d="M -2.8284274 -2.8284274 L 2.8284274 2.8284274 M -2.8284274 2.8284274 L 2.8284274 -2.8284274 "/>
<path transform="matrix(.75,0,0,.75,348.9375,147.21764)" stroke-width=".666667" stroke-linecap="butt" stroke-miterlimit="10" stroke-linejoin="miter" fill="none" stroke="#dc3912" d="M -2.8284274 -2.8284274 L 2.8284274 2.8284274 M -2.8284274 2.8284274 L 2.8284274 -2.8284274 "/>
<path transform="matrix(.75,0,0,.75,390.75,177.58647)" stroke-width=".666667" stroke-linecap="butt" stroke-miterlimit="10" stroke-linejoin="miter" fill="none" stroke="#dc3912" d="M -2.8284274 -2.8284274 L 2.8284274 2.8284274 M -2.8284274 2.8284274 L 2.8284274 -2.8284274 "/>
<path transform="matrix(.75,0,0,.75,56.25,59.865709)" stroke-width=".666667" stroke-linecap="butt" stroke-miterlimit="10" stroke-linejoin="miter" fill="none" stroke="#dc3912" d="M -2.8284274 -2.8284274 L 2.8284274 2.8284274 M -2.8284274 2.8284274 L 2.8284274 -2.8284274 "/>
<path transform="matrix(.75,0,0,.75,77.15625,77.32186)" stroke-width=".666667" stroke-linecap="butt" stroke-miterlimit="10" stroke-linejoin="miter" fill="none" stroke="#dc3912" d="M -2.8284274 -2.8284274 L 2.8284274 2.8284274 M -2.8284274 2.8284274 L 2.8284274 -2.8284274 "/>
<path transform="matrix(.75,0,0,.75,98.0625,68.53235)" stroke-width=".666667" stroke-linecap="butt" stroke-miterlimit="10" stroke-linejoin="miter" fill="none" stroke="#dc3912" d="M -2.8284274 -2.8284274 L 2.8284274 2.8284274 M -2.8284274 2.8284274 L 2.8284274 -2.8284274 "/>
<path transform="matrix(.75,0,0,.75,118.96875,120.38011)" stroke-width=".666667" stroke-linecap="butt" stroke-miterlimit="10" stroke-linejoin="miter" fill="none" stroke="#dc3912" d="M -2.8284274 -2.8284274 L 2.8284274 2.8284274 M -2.8284274 2.8284274 L 2.8284274 -2.8284274 "/>
<path transform="matrix(.75,0,0,.75,139.875,138.58246)" stroke-width=".666667" stroke-linecap="butt" stroke-miterlimit="10" stroke-linejoin="miter" fill="none" stroke="#dc3912" d="M -2.8284274 -2.8284274 L 2.8284274 2.8284274 M -2.8284274 2.8284274 L 2.8284274 -2.8284274 "/>
<path transform="matrix(.75,0,0,.75,160.78125,167.93497)" stroke-width=".666667" stroke-linecap="butt" stroke-miterlimit="10" stroke-linejoin="miter" fill="none" stroke="#dc3912" d="M -2.8284274 -2.8284274 L 2.8284274 2.8284274 M -2.8284274 2.8284274 L 2.8284274 -2.8284274 "/>
<path transform="matrix(.75,0,0,.75,181.6875,64.93755)" stroke-width=".666667" stroke-linecap="butt" stroke-miterlimit="10" stroke-linejoin="miter" fill="none" stroke="#dc3912" d="M -2.8284274 -2.8284274 L 2.8284274 2.8284274 M -2.8284274 2.8284274 L 2.8284274 -2.8284274 "/>
<path transform="matrix(.75,0,0,.75,223.5,135.4267)" stroke-width=".666667" stroke-linecap="butt" stroke-miterlimit="10" stroke-linejoin="miter" fill="none" stroke="#dc3912" d="M -2.8284274 -2.8284274 L 2.8284274 2.8284274 M -2.8284274 2.8284274 L 2.8284274 -2.8284274 "/>
<path transform="matrix(.75,0,0,.75,265.3125,155.34172)" stroke-width=".666667" stroke-linecap="butt" stroke-miterlimit="10" stroke-linejoin="miter" fill="none" stroke="#dc3912" d="M -2.8284274 -2.8284274 L 2.8284274 2.8284274 M -2.8284274 2.8284274 L 2.8284274 -2.8284274 "/>
<path transform="matrix(.75,0,0,.75,307.125,124.80402)" stroke-width=".666667" stroke-linecap="butt" stroke-miterlimit="10" stroke-linejoin="miter" fill="none" stroke="#dc3912" d="M -2.8284274 -2.8284274 L 2.8284274 2.8284274 M -2.8284274 2.8284274 L 2.8284274 -2.8284274 "/>
<path transform="matrix(.75,0,0,.75,348.9375,186.12268)" stroke-width=".666667" stroke-linecap="butt" stroke-miterlimit="10" stroke-linejoin="miter" fill="none" stroke="#dc3912" d="M -2.8284274 -2.8284274 L 2.8284274 2.8284274 M -2.8284274 2.8284274 L 2.8284274 -2.8284274 "/>
<path transform="matrix(.75,0,0,.75,390.75,177.15203)" stroke-width=".666667" stroke-linecap="butt" stroke-miterlimit="10" stroke-linejoin="miter" fill="none" stroke="#dc3912" d="M -2.8284274 -2.8284274 L 2.8284274 2.8284274 M -2.8284274 2.8284274 L 2.8284274 -2.8284274 "/>
<path transform="matrix(.75,0,0,.75,0,0)" d="M 510 78 L 510 36 L 427 36 L 427 78 Z " fill="#ffffff"/>
<text xml:space="preserve" transform="matrix(.75 0 0 .75 355.5 34.411764)" font-size="12" font-family="Helvetica"><tspan y="5" x="0 8.004001 14.676002 24.672">Pnma</tspan></text>
<path transform="matrix(.75,0,0,.75,338.25,34.411767)" stroke-width=".666667" stroke-linecap="butt" stroke-miterlimit="10" stroke-linejoin="miter" fill="none" stroke="#3366cc" d="M -2.8284274 -2.8284274 L 2.8284274 2.8284274 M -2.8284274 2.8284274 L 2.8284274 -2.8284274 "/>
<text xml:space="preserve" transform="matrix(.75 0 0 .75 355.5 50.25)" font-size="12" font-family="Helvetica"><tspan y="0" x="0 8.004001">P6</tspan></text>
<text xml:space="preserve" transform="matrix(.75 0 0 .75 366.75 54.75)" font-size="9.6" font-family="Helvetica"><tspan y="0" x="0">3</tspan></text>
<path transform="matrix(.75,0,0,.75,338.25,48.864706)" stroke-width=".666667" stroke-linecap="butt" stroke-miterlimit="10" stroke-linejoin="miter" fill="none" stroke="#dc3912" d="M -2.8284274 -2.8284274 L 2.8284274 2.8284274 M -2.8284274 2.8284274 L 2.8284274 -2.8284274 "/>
<path transform="matrix(.75,0,0,.75,0,0)" stroke-width=".666667" stroke-linecap="butt" stroke-miterlimit="10" stroke-linejoin="miter" fill="none" stroke="#323232" d="M 427 78 L 427 36 L 510 36 L 510 78 Z "/>
</g>
</svg>
