<?xml version="1.0" encoding="UTF-8" standalone="no"?>
<!DOCTYPE svg PUBLIC "-//W3C//DTD SVG 1.1//EN" "http://www.w3.org/Graphics/SVG/1.1/DTD/svg11.dtd">
<svg xmlns="http://www.w3.org/2000/svg" xmlns:xlink="http://www.w3.org/1999/xlink" version="1.1" width="432pt" height="432pt" viewBox="0 0 432 432">
<g enable-background="new">
<clipPath id="cp0">
<path transform="matrix(.75,0,0,.75,0,0)" d="M 0 0 L 576 0 L 576 576 L 0 576 L 0 0 Z "/>
</clipPath>
<g clip-path="url(#cp0)">
<path transform="matrix(.75,0,0,.75,0,0)" d="M 0 0 L 576 0 L 576 576 L 0 576 Z " fill="#ffffff"/>
</g>
<path transform="matrix(.75,0,0,.75,0,0)" d="M 0 0 L 576 0 L 576 576 L 0 576 Z " fill="#ffffff"/>
<path transform="matrix(.75,0,0,.75,0,0)" d="M 75 240 L 521 240 L 521 43 L 75 43 Z " fill="#ffffff"/>
<path transform="matrix(.75,0,0,.75,0,0)" stroke-width=".666667" stroke-linecap="square" stroke-linejoin="round" fill="none" stroke="#323232" d="M 75 240 L 521 240 "/>
<path transform="matrix(.75,0,0,.75,0,0)" stroke-width=".666667" stroke-linecap="square" stroke-linejoin="round" fill="none" stroke="#323232" d="M 75 42.999998 L 521 42.999998 "/>
<path transform="matrix(.75,0,0,.75,0,0)" stroke-width=".666667" stroke-linecap="square" stroke-linejoin="round" fill="none" stroke="#323232" d="M 75 240 L 75 235.54 "/>
<path transform="matrix(.75,0,0,.75,0,0)" stroke-width=".666667" stroke-linecap="square" stroke-linejoin="round" fill="none" stroke="#323232" d="M 119.6 240 L 119.6 235.54 "/>
<path transform="matrix(.75,0,0,.75,0,0)" stroke-width=".666667" stroke-linecap="square" stroke-linejoin="round" fill="none" stroke="#323232" d="M 164.2 240 L 164.2 235.54 "/>
<path transform="matrix(.75,0,0,.75,0,0)" stroke-width=".666667" stroke-linecap="square" stroke-linejoin="round" fill="none" stroke="#323232" d="M 208.8 240 L 208.8 235.54 "/>
<path transform="matrix(.75,0,0,.75,0,0)" stroke-width=".666667" stroke-linecap="square" stroke-linejoin="round" fill="none" stroke="#323232" d="M 253.40001 240 L 253.40001 235.54 "/>
<path transform="matrix(.75,0,0,.75,0,0)" stroke-width=".666667" stroke-linecap="square" stroke-linejoin="round" fill="none" stroke="#323232" d="M 298 240 L 298 235.54 "/>
<path transform="matrix(.75,0,0,.75,0,0)" stroke-width=".666667" stroke-linecap="square" stroke-linejoin="round" fill="none" stroke="#323232" d="M 342.6 240 L 342.6 235.54 "/>
<path transform="matrix(.75,0,0,.75,0,0)" stroke-width=".666667" stroke-linecap="square" stroke-linejoin="round" fill="none" stroke="#323232" d="M 387.19999 240 L 387.19999 235.54 "/>
<path transform="matrix(.75,0,0,.75,0,0)" stroke-width=".666667" stroke-linecap="square" stroke-linejoin="round" fill="none" stroke="#323232" d="M 431.80003 240 L 431.80003 235.54 "/>
<path transform="matrix(.75,0,0,.75,0,0)" stroke-width=".666667" stroke-linecap="square" stroke-linejoin="round" fill="none" stroke="#323232" d="M 476.4 240 L 476.4 235.54 "/>
<path transform="matrix(.75,0,0,.75,0,0)" stroke-width=".666667" stroke-linecap="square" stroke-linejoin="round" fill="none" stroke="#323232" d="M 521 240 L 521 235.54 "/>
<path transform="matrix(.75,0,0,.75,0,0)" stroke-width=".666667" stroke-linecap="square" stroke-linejoin="round" fill="none" stroke="#323232" d="M 75 42.999998 L 75 47.45999 "/>
<path transform="matrix(.75,0,0,.75,0,0)" stroke-width=".666667" stroke-linecap="square" stroke-linejoin="round" fill="none" stroke="#323232" d="M 119.6 42.999998 L 119.6 47.45999 "/>
<path transform="matrix(.75,0,0,.75,0,0)" stroke-width=".666667" stroke-linecap="square" stroke-linejoin="round" fill="none" stroke="#323232" d="M 164.2 42.999998 L 164.2 47.45999 "/>
<path transform="matrix(.75,0,0,.75,0,0)" stroke-width=".666667" stroke-linecap="square" stroke-linejoin="round" fill="none" stroke="#323232" d="M 208.8 42.999998 L 208.8 47.45999 "/>
<path transform="matrix(.75,0,0,.75,0,0)" stroke-width=".666667" stroke-linecap="square" stroke-linejoin="round" fill="none" stroke="#323232" d="M 253.40001 42.999998 L 253.40001 47.45999 "/>
<path transform="matrix(.75,0,0,.75,0,0)" stroke-width=".666667" stroke-linecap="square" stroke-linejoin="round" fill="none" stroke="#323232" d="M 298 42.999998 L 298 47.45999 "/>
<path transform="matrix(.75,0,0,.75,0,0)" stroke-width=".666667" stroke-linecap="square" stroke-linejoin="round" fill="none" stroke="#323232" d="M 342.6 42.999998 L 342.6 47.45999 "/>
<path transform="matrix(.75,0,0,.75,0,0)" stroke-width=".666667" stroke-linecap="square" stroke-linejoin="round" fill="none" stroke="#323232" d="M 387.19999 42.999998 L 387.19999 47.45999 "/>
<path transform="matrix(.75,0,0,.75,0,0)" stroke-width=".666667" stroke-linecap="square" stroke-linejoin="round" fill="none" stroke="#323232" d="M 431.80003 42.999998 L 431.80003 47.45999 "/>
<path transform="matrix(.75,0,0,.75,0,0)" stroke-width=".666667" stroke-linecap="square" stroke-linejoin="round" fill="none" stroke="#323232" d="M 476.4 42.999998 L 476.4 47.45999 "/>
<path transform="matrix(.75,0,0,.75,0,0)" stroke-width=".666667" stroke-linecap="square" stroke-linejoin="round" fill="none" stroke="#323232" d="M 521 42.999998 L 521 47.45999 "/>
<text fill="#323232" xml:space="preserve" transform="matrix(.75 0 0 .75 56.25 184)" font-size="13.333" font-family="Helvetica"><tspan y="14" x="-4">0</tspan></text>
<text fill="#323232" xml:space="preserve" transform="matrix(.75 0 0 .75 89.7 184)" font-size="13.333" font-family="Helvetica"><tspan y="14" x="-9.5 -2.0868512 1.6197233">0.1</tspan></text>
<text fill="#323232" xml:space="preserve" transform="matrix(.75 0 0 .75 123.149997 184)" font-size="13.333" font-family="Helvetica"><tspan y="14" x="-9.5 -2.0868512 1.6197233">0.2</tspan></text>
<text fill="#323232" xml:space="preserve" transform="matrix(.75 0 0 .75 156.6 184)" font-size="13.333" font-family="Helvetica"><tspan y="14" x="-9.5 -2.0868512 1.6197233">0.3</tspan></text>
<text fill="#323232" xml:space="preserve" transform="matrix(.75 0 0 .75 190.05 184)" font-size="13.333" font-family="Helvetica"><tspan y="14" x="-9.5 -2.0868512 1.6197233">0.4</tspan></text>
<text fill="#323232" xml:space="preserve" transform="matrix(.75 0 0 .75 223.5 184)" font-size="13.333" font-family="Helvetica"><tspan y="14" x="-9.5 -2.0868512 1.6197233">0.5</tspan></text>
<text fill="#323232" xml:space="preserve" transform="matrix(.75 0 0 .75 256.95 184)" font-size="13.333" font-family="Helvetica"><tspan y="14" x="-9.5 -2.0868512 1.6197233">0.6</tspan></text>
<text fill="#323232" xml:space="preserve" transform="matrix(.75 0 0 .75 290.4 184)" font-size="13.333" font-family="Helvetica"><tspan y="14" x="-9.5 -2.0868512 1.6197233">0.7</tspan></text>
<text fill="#323232" xml:space="preserve" transform="matrix(.75 0 0 .75 323.85 184)" font-size="13.333" font-family="Helvetica"><tspan y="14" x="-9.5 -2.0868512 1.6197233">0.8</tspan></text>
<text fill="#323232" xml:space="preserve" transform="matrix(.75 0 0 .75 357.3 184)" font-size="13.333" font-family="Helvetica"><tspan y="14" x="-9.5 -2.0868512 1.6197233">0.9</tspan></text>
<text fill="#323232" xml:space="preserve" transform="matrix(.75 0 0 .75 390.75 184)" font-size="13.333" font-family="Helvetica"><tspan y="14" x="-4">1</tspan></text>
<text fill="#323232" xml:space="preserve" transform="matrix(.75 0 0 .75 180 209.25)" font-size="14.667" font-family="Helvetica"><tspan y="0" x="0 7.3335 11.410927 14.667001 22.821854 26.89928 36.68217">x in Bi</tspan></text>
<text fill="#323232" xml:space="preserve" transform="matrix(.75 0 0 .75 210 214.5)" font-size="11.733" font-family="Helvetica"><tspan y="0" x="0 3.907089 10.430637 14.337727 20.204228">(1-x)</tspan></text>
<text fill="#323232" xml:space="preserve" transform="matrix(.75 0 0 .75 228.75 209.25)" font-size="14.667" font-family="Helvetica"><tspan y="0" x="0 9.782889">Ba</tspan></text>
<text fill="#323232" xml:space="preserve" transform="matrix(.75 0 0 .75 242.25 214.5)" font-size="11.733" font-family="Helvetica"><tspan y="0" x="0">x</tspan></text>
<text fill="#323232" xml:space="preserve" transform="matrix(.75 0 0 .75 246.75 209.25)" font-size="14.667" font-family="Helvetica"><tspan y="0" x="0">F</tspan></text>
<text fill="#323232" xml:space="preserve" transform="matrix(.75 0 0 .75 253.5 214.5)" font-size="11.733" font-family="Helvetica"><tspan y="0" x="0 6.5235488 10.430637">3-x</tspan></text>
<path transform="matrix(.75,0,0,.75,0,0)" stroke-width=".666667" stroke-linecap="square" stroke-linejoin="round" fill="none" stroke="#323232" d="M 75 240 L 75 42.999998 "/>
<path transform="matrix(.75,0,0,.75,0,0)" stroke-width=".666667" stroke-linecap="square" stroke-linejoin="round" fill="none" stroke="#323232" d="M 521 240 L 521 42.999998 "/>
<path transform="matrix(.75,0,0,.75,0,0)" stroke-width=".666667" stroke-linecap="square" stroke-linejoin="round" fill="none" stroke="#323232" d="M 75 240 L 79.46 240 "/>
<path transform="matrix(.75,0,0,.75,0,0)" stroke-width=".666667" stroke-linecap="square" stroke-linejoin="round" fill="none" stroke="#323232" d="M 75 200.6 L 79.46 200.6 "/>
<path transform="matrix(.75,0,0,.75,0,0)" stroke-width=".666667" stroke-linecap="square" stroke-linejoin="round" fill="none" stroke="#323232" d="M 75 161.2 L 79.46 161.2 "/>
<path transform="matrix(.75,0,0,.75,0,0)" stroke-width=".666667" stroke-linecap="square" stroke-linejoin="round" fill="none" stroke="#323232" d="M 75 121.8 L 79.46 121.8 "/>
<path transform="matrix(.75,0,0,.75,0,0)" stroke-width=".666667" stroke-linecap="square" stroke-linejoin="round" fill="none" stroke="#323232" d="M 75 82.4 L 79.46 82.4 "/>
<path transform="matrix(.75,0,0,.75,0,0)" stroke-width=".666667" stroke-linecap="square" stroke-linejoin="round" fill="none" stroke="#323232" d="M 75 42.999998 L 79.46 42.999998 "/>
<path transform="matrix(.75,0,0,.75,0,0)" stroke-width=".666667" stroke-linecap="square" stroke-linejoin="round" fill="none" stroke="#323232" d="M 521 240 L 516.54 240 "/>
<path transform="matrix(.75,0,0,.75,0,0)" stroke-width=".666667" stroke-linecap="square" stroke-linejoin="round" fill="none" stroke="#323232" d="M 521 200.6 L 516.54 200.6 "/>
<path transform="matrix(.75,0,0,.75,0,0)" stroke-width=".666667" stroke-linecap="square" stroke-linejoin="round" fill="none" stroke="#323232" d="M 521 161.2 L 516.54 161.2 "/>
<path transform="matrix(.75,0,0,.75,0,0)" stroke-width=".666667" stroke-linecap="square" stroke-linejoin="round" fill="none" stroke="#323232" d="M 521 121.8 L 516.54 121.8 "/>
<path transform="matrix(.75,0,0,.75,0,0)" stroke-width=".666667" stroke-linecap="square" stroke-linejoin="round" fill="none" stroke="#323232" d="M 521 82.4 L 516.54 82.4 "/>
<path transform="matrix(.75,0,0,.75,0,0)" stroke-width=".666667" stroke-linecap="square" stroke-linejoin="round" fill="none" stroke="#323232" d="M 521 42.999998 L 516.54 42.999998 "/>
<text fill="#323232" xml:space="preserve" transform="matrix(.75 0 0 .75 52.249998 180)" font-size="13.333" font-family="Helvetica"><tspan y="5.5" x="-8">0</tspan></text>
<text fill="#323232" xml:space="preserve" transform="matrix(.75 0 0 .75 52.249998 150.45)" font-size="13.333" font-family="Helvetica"><tspan y="5.5" x="-26 -18.586852 -14.880277 -7.467128">0.02</tspan></text>
<text fill="#323232" xml:space="preserve" transform="matrix(.75 0 0 .75 52.249998 120.899997)" font-size="13.333" font-family="Helvetica"><tspan y="5.5" x="-26 -18.586852 -14.880277 -7.467128">0.04</tspan></text>
<text fill="#323232" xml:space="preserve" transform="matrix(.75 0 0 .75 52.249998 91.35)" font-size="13.333" font-family="Helvetica"><tspan y="5.5" x="-26 -18.586852 -14.880277 -7.467128">0.06</tspan></text>
<text fill="#323232" xml:space="preserve" transform="matrix(.75 0 0 .75 52.249998 61.8)" font-size="13.333" font-family="Helvetica"><tspan y="5.5" x="-26 -18.586852 -14.880277 -7.467128">0.08</tspan></text>
<text fill="#323232" xml:space="preserve" transform="matrix(.75 0 0 .75 52.249998 32.249998)" font-size="13.333" font-family="Helvetica"><tspan y="5.5" x="-19 -11.586851 -7.8802769">0.1</tspan></text>
<text fill="#323232" xml:space="preserve" transform="matrix(-.0000000325 -.75 .75 -.0000000325 29.75 106.12493)" font-size="14.667" font-family="Helvetica"><tspan y="-4" x="-92 -83.03846 -74.883609 -69.9995 -57.781885 -49.62703 -45.549604 -42.29353 -34.138677 -25.983822 -21.906395 -13.751542 -5.596689 2.5581637 7.4422748 15.597128 22.930628 27.008055 35.162908 39.240335 47.395189 59.6128 63.690229 68.57434 76.729198 86.512088">Formation energy/atom (eV)</tspan></text>
<text xml:space="preserve" transform="matrix(.75 0 0 .75 223.50023 30.187495)" font-size="14.667" font-family="Helvetica" font-weight="bold"><tspan y="-4" x="-20 -10.217111 -1.2555733 11.78339">Pnma</tspan></text>
<path transform="matrix(.75,0,0,.75,0,0)" stroke-width=".666667" stroke-linecap="butt" stroke-linejoin="round" fill="none" stroke="#000000" d="M 75 240 L 521 240 "/>
<path transform="matrix(.75,0,0,.75,56.25,180)" stroke-width=".666667" stroke-linecap="butt" stroke-miterlimit="10" stroke-linejoin="miter" fill="none" stroke="#3366cc" d="M -2.8284274 -2.8284274 L 2.8284274 2.8284274 M -2.8284274 2.8284274 L 2.8284274 -2.8284274 "/>
<path transform="matrix(.75,0,0,.75,77.15625,168.11734)" stroke-width=".666667" stroke-linecap="butt" stroke-miterlimit="10" stroke-linejoin="miter" fill="none" stroke="#3366cc" d="M -2.8284274 -2.8284274 L 2.8284274 2.8284274 M -2.8284274 2.8284274 L 2.8284274 -2.8284274 "/>
<path transform="matrix(.75,0,0,.75,98.0625,155.12718)" stroke-width=".666667" stroke-linecap="butt" stroke-miterlimit="10" stroke-linejoin="miter" fill="none" stroke="#3366cc" d="M -2.8284274 -2.8284274 L 2.8284274 2.8284274 M -2.8284274 2.8284274 L 2.8284274 -2.8284274 "/>
<path transform="matrix(.75,0,0,.75,118.96875,151.31655)" stroke-width=".666667" stroke-linecap="butt" stroke-miterlimit="10" stroke-linejoin="miter" fill="none" stroke="#3366cc" d="M -2.8284274 -2.8284274 L 2.8284274 2.8284274 M -2.8284274 2.8284274 L 2.8284274 -2.8284274 "/>
<path transform="matrix(.75,0,0,.75,139.875,151.11254)" stroke-width=".666667" stroke-linecap="butt" stroke-miterlimit="10" stroke-linejoin="miter" fill="none" stroke="#3366cc" d="M -2.8284274 -2.8284274 L 2.8284274 2.8284274 M -2.8284274 2.8284274 L 2.8284274 -2.8284274 "/>
<path transform="matrix(.75,0,0,.75,160.78125,149.94925)" stroke-width=".666667" stroke-linecap="butt" stroke-miterlimit="10" stroke-linejoin="miter" fill="none" stroke="#3366cc" d="M -2.8284274 -2.8284274 L 2.8284274 2.8284274 M -2.8284274 2.8284274 L 2.8284274 -2.8284274 "/>
<path transform="matrix(.75,0,0,.75,181.6875,174.05976)" stroke-width=".666667" stroke-linecap="butt" stroke-miterlimit="10" stroke-linejoin="miter" fill="none" stroke="#3366cc" d="M -2.8284274 -2.8284274 L 2.8284274 2.8284274 M -2.8284274 2.8284274 L 2.8284274 -2.8284274 "/>
<path transform="matrix(.75,0,0,.75,223.5,158.36359)" stroke-width=".666667" stroke-linecap="butt" stroke-miterlimit="10" stroke-linejoin="miter" fill="none" stroke="#3366cc" d="M -2.8284274 -2.8284274 L 2.8284274 2.8284274 M -2.8284274 2.8284274 L 2.8284274 -2.8284274 "/>
<path transform="matrix(.75,0,0,.75,265.3125,175.70999)" stroke-width=".666667" stroke-linecap="butt" stroke-miterlimit="10" stroke-linejoin="miter" fill="none" stroke="#3366cc" d="M -2.8284274 -2.8284274 L 2.8284274 2.8284274 M -2.8284274 2.8284274 L 2.8284274 -2.8284274 "/>
<path transform="matrix(.75,0,0,.75,307.125,160.45368)" stroke-width=".666667" stroke-linecap="butt" stroke-miterlimit="10" stroke-linejoin="miter" fill="none" stroke="#3366cc" d="M -2.8284274 -2.8284274 L 2.8284274 2.8284274 M -2.8284274 2.8284274 L 2.8284274 -2.8284274 "/>
<path transform="matrix(.75,0,0,.75,348.9375,166.92922)" stroke-width=".666667" stroke-linecap="butt" stroke-miterlimit="10" stroke-linejoin="miter" fill="none" stroke="#3366cc" d="M -2.8284274 -2.8284274 L 2.8284274 2.8284274 M -2.8284274 2.8284274 L 2.8284274 -2.8284274 "/>
<path transform="matrix(.75,0,0,.75,390.75,180)" stroke-width=".666667" stroke-linecap="butt" stroke-miterlimit="10" stroke-linejoin="miter" fill="none" stroke="#3366cc" d="M -2.8284274 -2.8284274 L 2.8284274 2.8284274 M -2.8284274 2.8284274 L 2.8284274 -2.8284274 "/>
<path transform="matrix(.75,0,0,.75,56.25,180)" stroke-width=".666667" stroke-linecap="butt" stroke-miterlimit="10" stroke-linejoin="miter" fill="none" stroke="#3366cc" d="M -2.8284274 -2.8284274 L 2.8284274 2.8284274 M -2.8284274 2.8284274 L 2.8284274 -2.8284274 "/>
<path transform="matrix(.75,0,0,.75,77.15625,165.5784)" stroke-width=".666667" stroke-linecap="butt" stroke-miterlimit="10" stroke-linejoin="miter" fill="none" stroke="#3366cc" d="M -2.8284274 -2.8284274 L 2.8284274 2.8284274 M -2.8284274 2.8284274 L 2.8284274 -2.8284274 "/>
<path transform="matrix(.75,0,0,.75,98.0625,155.11003)" stroke-width=".666667" stroke-linecap="butt" stroke-miterlimit="10" stroke-linejoin="miter" fill="none" stroke="#3366cc" d="M -2.8284274 -2.8284274 L 2.8284274 2.8284274 M -2.8284274 2.8284274 L 2.8284274 -2.8284274 "/>
<path transform="matrix(.75,0,0,.75,118.96875,149.31392)" stroke-width=".666667" stroke-linecap="butt" stroke-miterlimit="10" stroke-linejoin="miter" fill="none" stroke="#3366cc" d="M -2.8284274 -2.8284274 L 2.8284274 2.8284274 M -2.8284274 2.8284274 L 2.8284274 -2.8284274 "/>
<path transform="matrix(.75,0,0,.75,139.875,146.15897)" stroke-width=".666667" stroke-linecap="butt" stroke-miterlimit="10" stroke-linejoin="miter" fill="none" stroke="#3366cc" d="M -2.8284274 -2.8284274 L 2.8284274 2.8284274 M -2.8284274 2.8284274 L 2.8284274 -2.8284274 "/>
<path transform="matrix(.75,0,0,.75,160.78125,142.567)" stroke-width=".666667" stroke-linecap="butt" stroke-miterlimit="10" stroke-linejoin="miter" fill="none" stroke="#3366cc" d="M -2.8284274 -2.8284274 L 2.8284274 2.8284274 M -2.8284274 2.8284274 L 2.8284274 -2.8284274 "/>
<path transform="matrix(.75,0,0,.75,181.6875,171.47438)" stroke-width=".666667" stroke-linecap="butt" stroke-miterlimit="10" stroke-linejoin="miter" fill="none" stroke="#3366cc" d="M -2.8284274 -2.8284274 L 2.8284274 2.8284274 M -2.8284274 2.8284274 L 2.8284274 -2.8284274 "/>
<path transform="matrix(.75,0,0,.75,223.5,150.9935)" stroke-width=".666667" stroke-linecap="butt" stroke-miterlimit="10" stroke-linejoin="miter" fill="none" stroke="#3366cc" d="M -2.8284274 -2.8284274 L 2.8284274 2.8284274 M -2.8284274 2.8284274 L 2.8284274 -2.8284274 "/>
<path transform="matrix(.75,0,0,.75,265.3125,163.96387)" stroke-width=".666667" stroke-linecap="butt" stroke-miterlimit="10" stroke-linejoin="miter" fill="none" stroke="#3366cc" d="M -2.8284274 -2.8284274 L 2.8284274 2.8284274 M -2.8284274 2.8284274 L 2.8284274 -2.8284274 "/>
<path transform="matrix(.75,0,0,.75,307.125,160.12236)" stroke-width=".666667" stroke-linecap="butt" stroke-miterlimit="10" stroke-linejoin="miter" fill="none" stroke="#3366cc" d="M -2.8284274 -2.8284274 L 2.8284274 2.8284274 M -2.8284274 2.8284274 L 2.8284274 -2.8284274 "/>
<path transform="matrix(.75,0,0,.75,348.9375,149.48438)" stroke-width=".666667" stroke-linecap="butt" stroke-miterlimit="10" stroke-linejoin="miter" fill="none" stroke="#3366cc" d="M -2.8284274 -2.8284274 L 2.8284274 2.8284274 M -2.8284274 2.8284274 L 2.8284274 -2.8284274 "/>
<path transform="matrix(.75,0,0,.75,390.75,158.64736)" stroke-width=".666667" stroke-linecap="butt" stroke-miterlimit="10" stroke-linejoin="miter" fill="none" stroke="#3366cc" d="M -2.8284274 -2.8284274 L 2.8284274 2.8284274 M -2.8284274 2.8284274 L 2.8284274 -2.8284274 "/>
<path transform="matrix(.75,0,0,.75,56.25,180)" stroke-width=".666667" stroke-linecap="butt" stroke-miterlimit="10" stroke-linejoin="miter" fill="none" stroke="#3366cc" d="M -2.8284274 -2.8284274 L 2.8284274 2.8284274 M -2.8284274 2.8284274 L 2.8284274 -2.8284274 "/>
<path transform="matrix(.75,0,0,.75,77.15625,165.42337)" stroke-width=".666667" stroke-linecap="butt" stroke-miterlimit="10" stroke-linejoin="miter" fill="none" stroke="#3366cc" d="M -2.8284274 -2.8284274 L 2.8284274 2.8284274 M -2.8284274 2.8284274 L 2.8284274 -2.8284274 "/>
<path transform="matrix(.75,0,0,.75,98.0625,154.08316)" stroke-width=".666667" stroke-linecap="butt" stroke-miterlimit="10" stroke-linejoin="miter" fill="none" stroke="#3366cc" d="M -2.8284274 -2.8284274 L 2.8284274 2.8284274 M -2.8284274 2.8284274 L 2.8284274 -2.8284274 "/>
<path transform="matrix(.75,0,0,.75,118.96875,148.41556)" stroke-width=".666667" stroke-linecap="butt" stroke-miterlimit="10" stroke-linejoin="miter" fill="none" stroke="#3366cc" d="M -2.8284274 -2.8284274 L 2.8284274 2.8284274 M -2.8284274 2.8284274 L 2.8284274 -2.8284274 "/>
<path transform="matrix(.75,0,0,.75,139.875,145.9238)" stroke-width=".666667" stroke-linecap="butt" stroke-miterlimit="10" stroke-linejoin="miter" fill="none" stroke="#3366cc" d="M -2.8284274 -2.8284274 L 2.8284274 2.8284274 M -2.8284274 2.8284274 L 2.8284274 -2.8284274 "/>
<path transform="matrix(.75,0,0,.75,160.78125,140.02645)" stroke-width=".666667" stroke-linecap="butt" stroke-miterlimit="10" stroke-linejoin="miter" fill="none" stroke="#3366cc" d="M -2.8284274 -2.8284274 L 2.8284274 2.8284274 M -2.8284274 2.8284274 L 2.8284274 -2.8284274 "/>
<path transform="matrix(.75,0,0,.75,181.6875,169.34856)" stroke-width=".666667" stroke-linecap="butt" stroke-miterlimit="10" stroke-linejoin="miter" fill="none" stroke="#3366cc" d="M -2.8284274 -2.8284274 L 2.8284274 2.8284274 M -2.8284274 2.8284274 L 2.8284274 -2.8284274 "/>
<path transform="matrix(.75,0,0,.75,223.5,117.18805)" stroke-width=".666667" stroke-linecap="butt" stroke-miterlimit="10" stroke-linejoin="miter" fill="none" stroke="#3366cc" d="M -2.8284274 -2.8284274 L 2.8284274 2.8284274 M -2.8284274 2.8284274 L 2.8284274 -2.8284274 "/>
<path transform="matrix(.75,0,0,.75,265.3125,162.0628)" stroke-width=".666667" stroke-linecap="butt" stroke-miterlimit="10" stroke-linejoin="miter" fill="none" stroke="#3366cc" d="M -2.8284274 -2.8284274 L 2.8284274 2.8284274 M -2.8284274 2.8284274 L 2.8284274 -2.8284274 "/>
<path transform="matrix(.75,0,0,.75,307.125,143.99575)" stroke-width=".666667" stroke-linecap="butt" stroke-miterlimit="10" stroke-linejoin="miter" fill="none" stroke="#3366cc" d="M -2.8284274 -2.8284274 L 2.8284274 2.8284274 M -2.8284274 2.8284274 L 2.8284274 -2.8284274 "/>
<path transform="matrix(.75,0,0,.75,348.9375,146.34203)" stroke-width=".666667" stroke-linecap="butt" stroke-miterlimit="10" stroke-linejoin="miter" fill="none" stroke="#3366cc" d="M -2.8284274 -2.8284274 L 2.8284274 2.8284274 M -2.8284274 2.8284274 L 2.8284274 -2.8284274 "/>
<path transform="matrix(.75,0,0,.75,390.75,157.7987)" stroke-width=".666667" stroke-linecap="butt" stroke-miterlimit="10" stroke-linejoin="miter" fill="none" stroke="#3366cc" d="M -2.8284274 -2.8284274 L 2.8284274 2.8284274 M -2.8284274 2.8284274 L 2.8284274 -2.8284274 "/>
<path transform="matrix(.75,0,0,.75,56.25,180)" stroke-width=".666667" stroke-linecap="butt" stroke-miterlimit="10" stroke-linejoin="miter" fill="none" stroke="#3366cc" d="M -2.8284274 -2.8284274 L 2.8284274 2.8284274 M -2.8284274 2.8284274 L 2.8284274 -2.8284274 "/>
<path transform="matrix(.75,0,0,.75,77.15625,163.21253)" stroke-width=".666667" stroke-linecap="butt" stroke-miterlimit="10" stroke-linejoin="miter" fill="none" stroke="#3366cc" d="M -2.8284274 -2.8284274 L 2.8284274 2.8284274 M -2.8284274 2.8284274 L 2.8284274 -2.8284274 "/>
<path transform="matrix(.75,0,0,.75,98.0625,152.4765)" stroke-width=".666667" stroke-linecap="butt" stroke-miterlimit="10" stroke-linejoin="miter" fill="none" stroke="#3366cc" d="M -2.8284274 -2.8284274 L 2.8284274 2.8284274 M -2.8284274 2.8284274 L 2.8284274 -2.8284274 "/>
<path transform="matrix(.75,0,0,.75,118.96875,148.2029)" stroke-width=".666667" stroke-linecap="butt" stroke-miterlimit="10" stroke-linejoin="miter" fill="none" stroke="#3366cc" d="M -2.8284274 -2.8284274 L 2.8284274 2.8284274 M -2.8284274 2.8284274 L 2.8284274 -2.8284274 "/>
<path transform="matrix(.75,0,0,.75,139.875,143.14167)" stroke-width=".666667" stroke-linecap="butt" stroke-miterlimit="10" stroke-linejoin="miter" fill="none" stroke="#3366cc" d="M -2.8284274 -2.8284274 L 2.8284274 2.8284274 M -2.8284274 2.8284274 L 2.8284274 -2.8284274 "/>
<path transform="matrix(.75,0,0,.75,160.78125,138.30254)" stroke-width=".666667" stroke-linecap="butt" stroke-miterlimit="10" stroke-linejoin="miter" fill="none" stroke="#3366cc" d="M -2.8284274 -2.8284274 L 2.8284274 2.8284274 M -2.8284274 2.8284274 L 2.8284274 -2.8284274 "/>
<path transform="matrix(.75,0,0,.75,181.6875,167.48667)" stroke-width=".666667" stroke-linecap="butt" stroke-miterlimit="10" stroke-linejoin="miter" fill="none" stroke="#3366cc" d="M -2.8284274 -2.8284274 L 2.8284274 2.8284274 M -2.8284274 2.8284274 L 2.8284274 -2.8284274 "/>
<path transform="matrix(.75,0,0,.75,223.5,115.920299)" stroke-width=".666667" stroke-linecap="butt" stroke-miterlimit="10" stroke-linejoin="miter" fill="none" stroke="#3366cc" d="M -2.8284274 -2.8284274 L 2.8284274 2.8284274 M -2.8284274 2.8284274 L 2.8284274 -2.8284274 "/>
<path transform="matrix(.75,0,0,.75,265.3125,160.54181)" stroke-width=".666667" stroke-linecap="butt" stroke-miterlimit="10" stroke-linejoin="miter" fill="none" stroke="#3366cc" d="M -2.8284274 -2.8284274 L 2.8284274 2.8284274 M -2.8284274 2.8284274 L 2.8284274 -2.8284274 "/>
<path transform="matrix(.75,0,0,.75,307.125,135.23673)" stroke-width=".666667" stroke-linecap="butt" stroke-miterlimit="10" stroke-linejoin="miter" fill="none" stroke="#3366cc" d="M -2.8284274 -2.8284274 L 2.8284274 2.8284274 M -2.8284274 2.8284274 L 2.8284274 -2.8284274 "/>
<path transform="matrix(.75,0,0,.75,348.9375,127.871509)" stroke-width=".666667" stroke-linecap="butt" stroke-miterlimit="10" stroke-linejoin="miter" fill="none" stroke="#3366cc" d="M -2.8284274 -2.8284274 L 2.8284274 2.8284274 M -2.8284274 2.8284274 L 2.8284274 -2.8284274 "/>
<path transform="matrix(.75,0,0,.75,390.75,140.21894)" stroke-width=".666667" stroke-linecap="butt" stroke-miterlimit="10" stroke-linejoin="miter" fill="none" stroke="#3366cc" d="M -2.8284274 -2.8284274 L 2.8284274 2.8284274 M -2.8284274 2.8284274 L 2.8284274 -2.8284274 "/>
<path transform="matrix(.75,0,0,.75,56.25,180)" stroke-width=".666667" stroke-linecap="butt" stroke-miterlimit="10" stroke-linejoin="miter" fill="none" stroke="#3366cc" d="M -2.8284274 -2.8284274 L 2.8284274 2.8284274 M -2.8284274 2.8284274 L 2.8284274 -2.8284274 "/>
<path transform="matrix(.75,0,0,.75,77.15625,162.82837)" stroke-width=".666667" stroke-linecap="butt" stroke-miterlimit="10" stroke-linejoin="miter" fill="none" stroke="#3366cc" d="M -2.8284274 -2.8284274 L 2.8284274 2.8284274 M -2.8284274 2.8284274 L 2.8284274 -2.8284274 "/>
<path transform="matrix(.75,0,0,.75,98.0625,151.90267)" stroke-width=".666667" stroke-linecap="butt" stroke-miterlimit="10" stroke-linejoin="miter" fill="none" stroke="#3366cc" d="M -2.8284274 -2.8284274 L 2.8284274 2.8284274 M -2.8284274 2.8284274 L 2.8284274 -2.8284274 "/>
<path transform="matrix(.75,0,0,.75,118.96875,147.89504)" stroke-width=".666667" stroke-linecap="butt" stroke-miterlimit="10" stroke-linejoin="miter" fill="none" stroke="#3366cc" d="M -2.8284274 -2.8284274 L 2.8284274 2.8284274 M -2.8284274 2.8284274 L 2.8284274 -2.8284274 "/>
<path transform="matrix(.75,0,0,.75,139.875,143.04145)" stroke-width=".666667" stroke-linecap="butt" stroke-miterlimit="10" stroke-linejoin="miter" fill="none" stroke="#3366cc" d="M -2.8284274 -2.8284274 L 2.8284274 2.8284274 M -2.8284274 2.8284274 L 2.8284274 -2.8284274 "/>
<path transform="matrix(.75,0,0,.75,160.78125,138.11849)" stroke-width=".666667" stroke-linecap="butt" stroke-miterlimit="10" stroke-linejoin="miter" fill="none" stroke="#3366cc" d="M -2.8284274 -2.8284274 L 2.8284274 2.8284274 M -2.8284274 2.8284274 L 2.8284274 -2.8284274 "/>
<path transform="matrix(.75,0,0,.75,181.6875,146.6771)" stroke-width=".666667" stroke-linecap="butt" stroke-miterlimit="10" stroke-linejoin="miter" fill="none" stroke="#3366cc" d="M -2.8284274 -2.8284274 L 2.8284274 2.8284274 M -2.8284274 2.8284274 L 2.8284274 -2.8284274 "/>
<path transform="matrix(.75,0,0,.75,223.5,113.57449)" stroke-width=".666667" stroke-linecap="butt" stroke-miterlimit="10" stroke-linejoin="miter" fill="none" stroke="#3366cc" d="M -2.8284274 -2.8284274 L 2.8284274 2.8284274 M -2.8284274 2.8284274 L 2.8284274 -2.8284274 "/>
<path transform="matrix(.75,0,0,.75,265.3125,160.1976)" stroke-width=".666667" stroke-linecap="butt" stroke-miterlimit="10" stroke-linejoin="miter" fill="none" stroke="#3366cc" d="M -2.8284274 -2.8284274 L 2.8284274 2.8284274 M -2.8284274 2.8284274 L 2.8284274 -2.8284274 "/>
<path transform="matrix(.75,0,0,.75,307.125,128.2598)" stroke-width=".666667" stroke-linecap="butt" stroke-miterlimit="10" stroke-linejoin="miter" fill="none" stroke="#3366cc" d="M -2.8284274 -2.8284274 L 2.8284274 2.8284274 M -2.8284274 2.8284274 L 2.8284274 -2.8284274 "/>
<path transform="matrix(.75,0,0,.75,348.9375,118.39896)" stroke-width=".666667" stroke-linecap="butt" stroke-miterlimit="10" stroke-linejoin="miter" fill="none" stroke="#3366cc" d="M -2.8284274 -2.8284274 L 2.8284274 2.8284274 M -2.8284274 2.8284274 L 2.8284274 -2.8284274 "/>
<path transform="matrix(.75,0,0,.75,390.75,133.74686)" stroke-width=".666667" stroke-linecap="butt" stroke-miterlimit="10" stroke-linejoin="miter" fill="none" stroke="#3366cc" d="M -2.8284274 -2.8284274 L 2.8284274 2.8284274 M -2.8284274 2.8284274 L 2.8284274 -2.8284274 "/>
<path transform="matrix(.75,0,0,.75,56.25,180)" stroke-width=".666667" stroke-linecap="butt" stroke-miterlimit="10" stroke-linejoin="miter" fill="none" stroke="#3366cc" d="M -2.8284274 -2.8284274 L 2.8284274 2.8284274 M -2.8284274 2.8284274 L 2.8284274 -2.8284274 "/>
<path transform="matrix(.75,0,0,.75,77.15625,162.71768)" stroke-width=".666667" stroke-linecap="butt" stroke-miterlimit="10" stroke-linejoin="miter" fill="none" stroke="#3366cc" d="M -2.8284274 -2.8284274 L 2.8284274 2.8284274 M -2.8284274 2.8284274 L 2.8284274 -2.8284274 "/>
<path transform="matrix(.75,0,0,.75,98.0625,148.86472)" stroke-width=".666667" stroke-linecap="butt" stroke-miterlimit="10" stroke-linejoin="miter" fill="none" stroke="#3366cc" d="M -2.8284274 -2.8284274 L 2.8284274 2.8284274 M -2.8284274 2.8284274 L 2.8284274 -2.8284274 "/>
<path transform="matrix(.75,0,0,.75,118.96875,147.58042)" stroke-width=".666667" stroke-linecap="butt" stroke-miterlimit="10" stroke-linejoin="miter" fill="none" stroke="#3366cc" d="M -2.8284274 -2.8284274 L 2.8284274 2.8284274 M -2.8284274 2.8284274 L 2.8284274 -2.8284274 "/>
<path transform="matrix(.75,0,0,.75,139.875,140.65207)" stroke-width=".666667" stroke-linecap="butt" stroke-miterlimit="10" stroke-linejoin="miter" fill="none" stroke="#3366cc" d="M -2.8284274 -2.8284274 L 2.8284274 2.8284274 M -2.8284274 2.8284274 L 2.8284274 -2.8284274 "/>
<path transform="matrix(.75,0,0,.75,160.78125,136.32494)" stroke-width=".666667" stroke-linecap="butt" stroke-miterlimit="10" stroke-linejoin="miter" fill="none" stroke="#3366cc" d="M -2.8284274 -2.8284274 L 2.8284274 2.8284274 M -2.8284274 2.8284274 L 2.8284274 -2.8284274 "/>
<path transform="matrix(.75,0,0,.75,181.6875,143.78144)" stroke-width=".666667" stroke-linecap="butt" stroke-miterlimit="10" stroke-linejoin="miter" fill="none" stroke="#3366cc" d="M -2.8284274 -2.8284274 L 2.8284274 2.8284274 M -2.8284274 2.8284274 L 2.8284274 -2.8284274 "/>
<path transform="matrix(.75,0,0,.75,223.5,107.66396)" stroke-width=".666667" stroke-linecap="butt" stroke-miterlimit="10" stroke-linejoin="miter" fill="none" stroke="#3366cc" d="M -2.8284274 -2.8284274 L 2.8284274 2.8284274 M -2.8284274 2.8284274 L 2.8284274 -2.8284274 "/>
<path transform="matrix(.75,0,0,.75,265.3125,159.60715)" stroke-width=".666667" stroke-linecap="butt" stroke-miterlimit="10" stroke-linejoin="miter" fill="none" stroke="#3366cc" d="M -2.8284274 -2.8284274 L 2.8284274 2.8284274 M -2.8284274 2.8284274 L 2.8284274 -2.8284274 "/>
<path transform="matrix(.75,0,0,.75,307.125,125.92393)" stroke-width=".666667" stroke-linecap="butt" stroke-miterlimit="10" stroke-linejoin="miter" fill="none" stroke="#3366cc" d="M -2.8284274 -2.8284274 L 2.8284274 2.8284274 M -2.8284274 2.8284274 L 2.8284274 -2.8284274 "/>
<path transform="matrix(.75,0,0,.75,348.9375,113.73627)" stroke-width=".666667" stroke-linecap="butt" stroke-miterlimit="10" stroke-linejoin="miter" fill="none" stroke="#3366cc" d="M -2.8284274 -2.8284274 L 2.8284274 2.8284274 M -2.8284274 2.8284274 L 2.8284274 -2.8284274 "/>
<path transform="matrix(.75,0,0,.75,390.75,133.60034)" stroke-width=".666667" stroke-linecap="butt" stroke-miterlimit="10" stroke-linejoin="miter" fill="none" stroke="#3366cc" d="M -2.8284274 -2.8284274 L 2.8284274 2.8284274 M -2.8284274 2.8284274 L 2.8284274 -2.8284274 "/>
<path transform="matrix(.75,0,0,.75,56.25,180)" stroke-width=".666667" stroke-linecap="butt" stroke-miterlimit="10" stroke-linejoin="miter" fill="none" stroke="#3366cc" d="M -2.8284274 -2.8284274 L 2.8284274 2.8284274 M -2.8284274 2.8284274 L 2.8284274 -2.8284274 "/>
<path transform="matrix(.75,0,0,.75,77.15625,162.6717)" stroke-width=".666667" stroke-linecap="butt" stroke-miterlimit="10" stroke-linejoin="miter" fill="none" stroke="#3366cc" d="M -2.8284274 -2.8284274 L 2.8284274 2.8284274 M -2.8284274 2.8284274 L 2.8284274 -2.8284274 "/>
<path transform="matrix(.75,0,0,.75,98.0625,148.70267)" stroke-width=".666667" stroke-linecap="butt" stroke-miterlimit="10" stroke-linejoin="miter" fill="none" stroke="#3366cc" d="M -2.8284274 -2.8284274 L 2.8284274 2.8284274 M -2.8284274 2.8284274 L 2.8284274 -2.8284274 "/>
<path transform="matrix(.75,0,0,.75,118.96875,144.9582)" stroke-width=".666667" stroke-linecap="butt" stroke-miterlimit="10" stroke-linejoin="miter" fill="none" stroke="#3366cc" d="M -2.8284274 -2.8284274 L 2.8284274 2.8284274 M -2.8284274 2.8284274 L 2.8284274 -2.8284274 "/>
<path transform="matrix(.75,0,0,.75,139.875,139.11128)" stroke-width=".666667" stroke-linecap="butt" stroke-miterlimit="10" stroke-linejoin="miter" fill="none" stroke="#3366cc" d="M -2.8284274 -2.8284274 L 2.8284274 2.8284274 M -2.8284274 2.8284274 L 2.8284274 -2.8284274 "/>
<path transform="matrix(.75,0,0,.75,160.78125,136.31118)" stroke-width=".666667" stroke-linecap="butt" stroke-miterlimit="10" stroke-linejoin="miter" fill="none" stroke="#3366cc" d="M -2.8284274 -2.8284274 L 2.8284274 2.8284274 M -2.8284274 2.8284274 L 2.8284274 -2.8284274 "/>
<path transform="matrix(.75,0,0,.75,181.6875,134.87238)" stroke-width=".666667" stroke-linecap="butt" stroke-miterlimit="10" stroke-linejoin="miter" fill="none" stroke="#3366cc" d="M -2.8284274 -2.8284274 L 2.8284274 2.8284274 M -2.8284274 2.8284274 L 2.8284274 -2.8284274 "/>
<path transform="matrix(.75,0,0,.75,223.5,107.66396)" stroke-width=".666667" stroke-linecap="butt" stroke-miterlimit="10" stroke-linejoin="miter" fill="none" stroke="#3366cc" d="M -2.8284274 -2.8284274 L 2.8284274 2.8284274 M -2.8284274 2.8284274 L 2.8284274 -2.8284274 "/>
<path transform="matrix(.75,0,0,.75,265.3125,154.26107)" stroke-width=".666667" stroke-linecap="butt" stroke-miterlimit="10" stroke-linejoin="miter" fill="none" stroke="#3366cc" d="M -2.8284274 -2.8284274 L 2.8284274 2.8284274 M -2.8284274 2.8284274 L 2.8284274 -2.8284274 "/>
<path transform="matrix(.75,0,0,.75,307.125,121.04277)" stroke-width=".666667" stroke-linecap="butt" stroke-miterlimit="10" stroke-linejoin="miter" fill="none" stroke="#3366cc" d="M -2.8284274 -2.8284274 L 2.8284274 2.8284274 M -2.8284274 2.8284274 L 2.8284274 -2.8284274 "/>
<path transform="matrix(.75,0,0,.75,348.9375,108.98758)" stroke-width=".666667" stroke-linecap="butt" stroke-miterlimit="10" stroke-linejoin="miter" fill="none" stroke="#3366cc" d="M -2.8284274 -2.8284274 L 2.8284274 2.8284274 M -2.8284274 2.8284274 L 2.8284274 -2.8284274 "/>
<path transform="matrix(.75,0,0,.75,390.75,123.999988)" stroke-width=".666667" stroke-linecap="butt" stroke-miterlimit="10" stroke-linejoin="miter" fill="none" stroke="#3366cc" d="M -2.8284274 -2.8284274 L 2.8284274 2.8284274 M -2.8284274 2.8284274 L 2.8284274 -2.8284274 "/>
<path transform="matrix(.75,0,0,.75,56.25,180)" stroke-width=".666667" stroke-linecap="butt" stroke-miterlimit="10" stroke-linejoin="miter" fill="none" stroke="#3366cc" d="M -2.8284274 -2.8284274 L 2.8284274 2.8284274 M -2.8284274 2.8284274 L 2.8284274 -2.8284274 "/>
<path transform="matrix(.75,0,0,.75,77.15625,162.6717)" stroke-width=".666667" stroke-linecap="butt" stroke-miterlimit="10" stroke-linejoin="miter" fill="none" stroke="#3366cc" d="M -2.8284274 -2.8284274 L 2.8284274 2.8284274 M -2.8284274 2.8284274 L 2.8284274 -2.8284274 "/>
<path transform="matrix(.75,0,0,.75,98.0625,146.9871)" stroke-width=".666667" stroke-linecap="butt" stroke-miterlimit="10" stroke-linejoin="miter" fill="none" stroke="#3366cc" d="M -2.8284274 -2.8284274 L 2.8284274 2.8284274 M -2.8284274 2.8284274 L 2.8284274 -2.8284274 "/>
<path transform="matrix(.75,0,0,.75,118.96875,142.23355)" stroke-width=".666667" stroke-linecap="butt" stroke-miterlimit="10" stroke-linejoin="miter" fill="none" stroke="#3366cc" d="M -2.8284274 -2.8284274 L 2.8284274 2.8284274 M -2.8284274 2.8284274 L 2.8284274 -2.8284274 "/>
<path transform="matrix(.75,0,0,.75,139.875,133.62165)" stroke-width=".666667" stroke-linecap="butt" stroke-miterlimit="10" stroke-linejoin="miter" fill="none" stroke="#3366cc" d="M -2.8284274 -2.8284274 L 2.8284274 2.8284274 M -2.8284274 2.8284274 L 2.8284274 -2.8284274 "/>
<path transform="matrix(.75,0,0,.75,160.78125,136.13463)" stroke-width=".666667" stroke-linecap="butt" stroke-miterlimit="10" stroke-linejoin="miter" fill="none" stroke="#3366cc" d="M -2.8284274 -2.8284274 L 2.8284274 2.8284274 M -2.8284274 2.8284274 L 2.8284274 -2.8284274 "/>
<path transform="matrix(.75,0,0,.75,181.6875,129.77703)" stroke-width=".666667" stroke-linecap="butt" stroke-miterlimit="10" stroke-linejoin="miter" fill="none" stroke="#3366cc" d="M -2.8284274 -2.8284274 L 2.8284274 2.8284274 M -2.8284274 2.8284274 L 2.8284274 -2.8284274 "/>
<path transform="matrix(.75,0,0,.75,223.5,107.66396)" stroke-width=".666667" stroke-linecap="butt" stroke-miterlimit="10" stroke-linejoin="miter" fill="none" stroke="#3366cc" d="M -2.8284274 -2.8284274 L 2.8284274 2.8284274 M -2.8284274 2.8284274 L 2.8284274 -2.8284274 "/>
<path transform="matrix(.75,0,0,.75,265.3125,150.50273)" stroke-width=".666667" stroke-linecap="butt" stroke-miterlimit="10" stroke-linejoin="miter" fill="none" stroke="#3366cc" d="M -2.8284274 -2.8284274 L 2.8284274 2.8284274 M -2.8284274 2.8284274 L 2.8284274 -2.8284274 "/>
<path transform="matrix(.75,0,0,.75,307.125,119.00865)" stroke-width=".666667" stroke-linecap="butt" stroke-miterlimit="10" stroke-linejoin="miter" fill="none" stroke="#3366cc" d="M -2.8284274 -2.8284274 L 2.8284274 2.8284274 M -2.8284274 2.8284274 L 2.8284274 -2.8284274 "/>
<path transform="matrix(.75,0,0,.75,348.9375,105.55298)" stroke-width=".666667" stroke-linecap="butt" stroke-miterlimit="10" stroke-linejoin="miter" fill="none" stroke="#3366cc" d="M -2.8284274 -2.8284274 L 2.8284274 2.8284274 M -2.8284274 2.8284274 L 2.8284274 -2.8284274 "/>
<path transform="matrix(.75,0,0,.75,390.75,96.88262)" stroke-width=".666667" stroke-linecap="butt" stroke-miterlimit="10" stroke-linejoin="miter" fill="none" stroke="#3366cc" d="M -2.8284274 -2.8284274 L 2.8284274 2.8284274 M -2.8284274 2.8284274 L 2.8284274 -2.8284274 "/>
<path transform="matrix(.75,0,0,.75,56.25,180)" stroke-width=".666667" stroke-linecap="butt" stroke-miterlimit="10" stroke-linejoin="miter" fill="none" stroke="#3366cc" d="M -2.8284274 -2.8284274 L 2.8284274 2.8284274 M -2.8284274 2.8284274 L 2.8284274 -2.8284274 "/>
<path transform="matrix(.75,0,0,.75,77.15625,162.65036)" stroke-width=".666667" stroke-linecap="butt" stroke-miterlimit="10" stroke-linejoin="miter" fill="none" stroke="#3366cc" d="M -2.8284274 -2.8284274 L 2.8284274 2.8284274 M -2.8284274 2.8284274 L 2.8284274 -2.8284274 "/>
<path transform="matrix(.75,0,0,.75,98.0625,142.25482)" stroke-width=".666667" stroke-linecap="butt" stroke-miterlimit="10" stroke-linejoin="miter" fill="none" stroke="#3366cc" d="M -2.8284274 -2.8284274 L 2.8284274 2.8284274 M -2.8284274 2.8284274 L 2.8284274 -2.8284274 "/>
<path transform="matrix(.75,0,0,.75,118.96875,141.58684)" stroke-width=".666667" stroke-linecap="butt" stroke-miterlimit="10" stroke-linejoin="miter" fill="none" stroke="#3366cc" d="M -2.8284274 -2.8284274 L 2.8284274 2.8284274 M -2.8284274 2.8284274 L 2.8284274 -2.8284274 "/>
<path transform="matrix(.75,0,0,.75,139.875,131.68883)" stroke-width=".666667" stroke-linecap="butt" stroke-miterlimit="10" stroke-linejoin="miter" fill="none" stroke="#3366cc" d="M -2.8284274 -2.8284274 L 2.8284274 2.8284274 M -2.8284274 2.8284274 L 2.8284274 -2.8284274 "/>
<path transform="matrix(.75,0,0,.75,160.78125,135.85414)" stroke-width=".666667" stroke-linecap="butt" stroke-miterlimit="10" stroke-linejoin="miter" fill="none" stroke="#3366cc" d="M -2.8284274 -2.8284274 L 2.8284274 2.8284274 M -2.8284274 2.8284274 L 2.8284274 -2.8284274 "/>
<path transform="matrix(.75,0,0,.75,181.6875,115.28811)" stroke-width=".666667" stroke-linecap="butt" stroke-miterlimit="10" stroke-linejoin="miter" fill="none" stroke="#3366cc" d="M -2.8284274 -2.8284274 L 2.8284274 2.8284274 M -2.8284274 2.8284274 L 2.8284274 -2.8284274 "/>
<path transform="matrix(.75,0,0,.75,223.5,105.261188)" stroke-width=".666667" stroke-linecap="butt" stroke-miterlimit="10" stroke-linejoin="miter" fill="none" stroke="#3366cc" d="M -2.8284274 -2.8284274 L 2.8284274 2.8284274 M -2.8284274 2.8284274 L 2.8284274 -2.8284274 "/>
<path transform="matrix(.75,0,0,.75,265.3125,146.60022)" stroke-width=".666667" stroke-linecap="butt" stroke-miterlimit="10" stroke-linejoin="miter" fill="none" stroke="#3366cc" d="M -2.8284274 -2.8284274 L 2.8284274 2.8284274 M -2.8284274 2.8284274 L 2.8284274 -2.8284274 "/>
<path transform="matrix(.75,0,0,.75,307.125,95.994319)" stroke-width=".666667" stroke-linecap="butt" stroke-miterlimit="10" stroke-linejoin="miter" fill="none" stroke="#3366cc" d="M -2.8284274 -2.8284274 L 2.8284274 2.8284274 M -2.8284274 2.8284274 L 2.8284274 -2.8284274 "/>
<path transform="matrix(.75,0,0,.75,348.9375,96.45838)" stroke-width=".666667" stroke-linecap="butt" stroke-miterlimit="10" stroke-linejoin="miter" fill="none" stroke="#3366cc" d="M -2.8284274 -2.8284274 L 2.8284274 2.8284274 M -2.8284274 2.8284274 L 2.8284274 -2.8284274 "/>
<path transform="matrix(.75,0,0,.75,390.75,85.4283)" stroke-width=".666667" stroke-linecap="butt" stroke-miterlimit="10" stroke-linejoin="miter" fill="none" stroke="#3366cc" d="M -2.8284274 -2.8284274 L 2.8284274 2.8284274 M -2.8284274 2.8284274 L 2.8284274 -2.8284274 "/>
<path transform="matrix(.75,0,0,.75,56.25,180)" stroke-width=".666667" stroke-linecap="butt" stroke-miterlimit="10" stroke-linejoin="miter" fill="none" stroke="#3366cc" d="M -2.8284274 -2.8284274 L 2.8284274 2.8284274 M -2.8284274 2.8284274 L 2.8284274 -2.8284274 "/>
<path transform="matrix(.75,0,0,.75,77.15625,161.59806)" stroke-width=".666667" stroke-linecap="butt" stroke-miterlimit="10" stroke-linejoin="miter" fill="none" stroke="#3366cc" d="M -2.8284274 -2.8284274 L 2.8284274 2.8284274 M -2.8284274 2.8284274 L 2.8284274 -2.8284274 "/>
<path transform="matrix(.75,0,0,.75,98.0625,141.70624)" stroke-width=".666667" stroke-linecap="butt" stroke-miterlimit="10" stroke-linejoin="miter" fill="none" stroke="#3366cc" d="M -2.8284274 -2.8284274 L 2.8284274 2.8284274 M -2.8284274 2.8284274 L 2.8284274 -2.8284274 "/>
<path transform="matrix(.75,0,0,.75,118.96875,135.87522)" stroke-width=".666667" stroke-linecap="butt" stroke-miterlimit="10" stroke-linejoin="miter" fill="none" stroke="#3366cc" d="M -2.8284274 -2.8284274 L 2.8284274 2.8284274 M -2.8284274 2.8284274 L 2.8284274 -2.8284274 "/>
<path transform="matrix(.75,0,0,.75,139.875,129.19406)" stroke-width=".666667" stroke-linecap="butt" stroke-miterlimit="10" stroke-linejoin="miter" fill="none" stroke="#3366cc" d="M -2.8284274 -2.8284274 L 2.8284274 2.8284274 M -2.8284274 2.8284274 L 2.8284274 -2.8284274 "/>
<path transform="matrix(.75,0,0,.75,160.78125,125.31682)" stroke-width=".666667" stroke-linecap="butt" stroke-miterlimit="10" stroke-linejoin="miter" fill="none" stroke="#3366cc" d="M -2.8284274 -2.8284274 L 2.8284274 2.8284274 M -2.8284274 2.8284274 L 2.8284274 -2.8284274 "/>
<path transform="matrix(.75,0,0,.75,181.6875,111.002849)" stroke-width=".666667" stroke-linecap="butt" stroke-miterlimit="10" stroke-linejoin="miter" fill="none" stroke="#3366cc" d="M -2.8284274 -2.8284274 L 2.8284274 2.8284274 M -2.8284274 2.8284274 L 2.8284274 -2.8284274 "/>
<path transform="matrix(.75,0,0,.75,223.5,102.77397)" stroke-width=".666667" stroke-linecap="butt" stroke-miterlimit="10" stroke-linejoin="miter" fill="none" stroke="#3366cc" d="M -2.8284274 -2.8284274 L 2.8284274 2.8284274 M -2.8284274 2.8284274 L 2.8284274 -2.8284274 "/>
<path transform="matrix(.75,0,0,.75,265.3125,121.45865)" stroke-width=".666667" stroke-linecap="butt" stroke-miterlimit="10" stroke-linejoin="miter" fill="none" stroke="#3366cc" d="M -2.8284274 -2.8284274 L 2.8284274 2.8284274 M -2.8284274 2.8284274 L 2.8284274 -2.8284274 "/>
<path transform="matrix(.75,0,0,.75,307.125,66.64663)" stroke-width=".666667" stroke-linecap="butt" stroke-miterlimit="10" stroke-linejoin="miter" fill="none" stroke="#3366cc" d="M -2.8284274 -2.8284274 L 2.8284274 2.8284274 M -2.8284274 2.8284274 L 2.8284274 -2.8284274 "/>
<path transform="matrix(.75,0,0,.75,348.9375,92.95316)" stroke-width=".666667" stroke-linecap="butt" stroke-miterlimit="10" stroke-linejoin="miter" fill="none" stroke="#3366cc" d="M -2.8284274 -2.8284274 L 2.8284274 2.8284274 M -2.8284274 2.8284274 L 2.8284274 -2.8284274 "/>
<path transform="matrix(.75,0,0,.75,390.75,55.831209)" stroke-width=".666667" stroke-linecap="butt" stroke-miterlimit="10" stroke-linejoin="miter" fill="none" stroke="#3366cc" d="M -2.8284274 -2.8284274 L 2.8284274 2.8284274 M -2.8284274 2.8284274 L 2.8284274 -2.8284274 "/>
<path transform="matrix(.75,0,0,.75,0,0)" d="M 75 513 L 521 513 L 521 316 L 75 316 Z " fill="#ffffff"/>
<path transform="matrix(.75,0,0,.75,0,0)" stroke-width=".666667" stroke-linecap="square" stroke-linejoin="round" fill="none" stroke="#323232" d="M 75 513 L 521 513 "/>
<path transform="matrix(.75,0,0,.75,0,0)" stroke-width=".666667" stroke-linecap="square" stroke-linejoin="round" fill="none" stroke="#323232" d="M 75 316 L 521 316 "/>
<path transform="matrix(.75,0,0,.75,0,0)" stroke-width=".666667" stroke-linecap="square" stroke-linejoin="round" fill="none" stroke="#323232" d="M 75 513 L 75 508.54 "/>
<path transform="matrix(.75,0,0,.75,0,0)" stroke-width=".666667" stroke-linecap="square" stroke-linejoin="round" fill="none" stroke="#323232" d="M 119.6 513 L 119.6 508.54 "/>
<path transform="matrix(.75,0,0,.75,0,0)" stroke-width=".666667" stroke-linecap="square" stroke-linejoin="round" fill="none" stroke="#323232" d="M 164.2 513 L 164.2 508.54 "/>
<path transform="matrix(.75,0,0,.75,0,0)" stroke-width=".666667" stroke-linecap="square" stroke-linejoin="round" fill="none" stroke="#323232" d="M 208.8 513 L 208.8 508.54 "/>
<path transform="matrix(.75,0,0,.75,0,0)" stroke-width=".666667" stroke-linecap="square" stroke-linejoin="round" fill="none" stroke="#323232" d="M 253.40001 513 L 253.40001 508.54 "/>
<path transform="matrix(.75,0,0,.75,0,0)" stroke-width=".666667" stroke-linecap="square" stroke-linejoin="round" fill="none" stroke="#323232" d="M 298 513 L 298 508.54 "/>
<path transform="matrix(.75,0,0,.75,0,0)" stroke-width=".666667" stroke-linecap="square" stroke-linejoin="round" fill="none" stroke="#323232" d="M 342.6 513 L 342.6 508.54 "/>
<path transform="matrix(.75,0,0,.75,0,0)" stroke-width=".666667" stroke-linecap="square" stroke-linejoin="round" fill="none" stroke="#323232" d="M 387.19999 513 L 387.19999 508.54 "/>
<path transform="matrix(.75,0,0,.75,0,0)" stroke-width=".666667" stroke-linecap="square" stroke-linejoin="round" fill="none" stroke="#323232" d="M 431.80003 513 L 431.80003 508.54 "/>
<path transform="matrix(.75,0,0,.75,0,0)" stroke-width=".666667" stroke-linecap="square" stroke-linejoin="round" fill="none" stroke="#323232" d="M 476.4 513 L 476.4 508.54 "/>
<path transform="matrix(.75,0,0,.75,0,0)" stroke-width=".666667" stroke-linecap="square" stroke-linejoin="round" fill="none" stroke="#323232" d="M 521 513 L 521 508.54 "/>
<path transform="matrix(.75,0,0,.75,0,0)" stroke-width=".666667" stroke-linecap="square" stroke-linejoin="round" fill="none" stroke="#323232" d="M 75 316 L 75 320.46 "/>
<path transform="matrix(.75,0,0,.75,0,0)" stroke-width=".666667" stroke-linecap="square" stroke-linejoin="round" fill="none" stroke="#323232" d="M 119.6 316 L 119.6 320.46 "/>
<path transform="matrix(.75,0,0,.75,0,0)" stroke-width=".666667" stroke-linecap="square" stroke-linejoin="round" fill="none" stroke="#323232" d="M 164.2 316 L 164.2 320.46 "/>
<path transform="matrix(.75,0,0,.75,0,0)" stroke-width=".666667" stroke-linecap="square" stroke-linejoin="round" fill="none" stroke="#323232" d="M 208.8 316 L 208.8 320.46 "/>
<path transform="matrix(.75,0,0,.75,0,0)" stroke-width=".666667" stroke-linecap="square" stroke-linejoin="round" fill="none" stroke="#323232" d="M 253.40001 316 L 253.40001 320.46 "/>
<path transform="matrix(.75,0,0,.75,0,0)" stroke-width=".666667" stroke-linecap="square" stroke-linejoin="round" fill="none" stroke="#323232" d="M 298 316 L 298 320.46 "/>
<path transform="matrix(.75,0,0,.75,0,0)" stroke-width=".666667" stroke-linecap="square" stroke-linejoin="round" fill="none" stroke="#323232" d="M 342.6 316 L 342.6 320.46 "/>
<path transform="matrix(.75,0,0,.75,0,0)" stroke-width=".666667" stroke-linecap="square" stroke-linejoin="round" fill="none" stroke="#323232" d="M 387.19999 316 L 387.19999 320.46 "/>
<path transform="matrix(.75,0,0,.75,0,0)" stroke-width=".666667" stroke-linecap="square" stroke-linejoin="round" fill="none" stroke="#323232" d="M 431.80003 316 L 431.80003 320.46 "/>
<path transform="matrix(.75,0,0,.75,0,0)" stroke-width=".666667" stroke-linecap="square" stroke-linejoin="round" fill="none" stroke="#323232" d="M 476.4 316 L 476.4 320.46 "/>
<path transform="matrix(.75,0,0,.75,0,0)" stroke-width=".666667" stroke-linecap="square" stroke-linejoin="round" fill="none" stroke="#323232" d="M 521 316 L 521 320.46 "/>
<text fill="#323232" xml:space="preserve" transform="matrix(.75 0 0 .75 56.25 388.74998)" font-size="13.333" font-family="Helvetica"><tspan y="14" x="-4">0</tspan></text>
<text fill="#323232" xml:space="preserve" transform="matrix(.75 0 0 .75 89.7 388.74998)" font-size="13.333" font-family="Helvetica"><tspan y="14" x="-9.5 -2.0868512 1.6197233">0.1</tspan></text>
<text fill="#323232" xml:space="preserve" transform="matrix(.75 0 0 .75 123.149997 388.74998)" font-size="13.333" font-family="Helvetica"><tspan y="14" x="-9.5 -2.0868512 1.6197233">0.2</tspan></text>
<text fill="#323232" xml:space="preserve" transform="matrix(.75 0 0 .75 156.6 388.74998)" font-size="13.333" font-family="Helvetica"><tspan y="14" x="-9.5 -2.0868512 1.6197233">0.3</tspan></text>
<text fill="#323232" xml:space="preserve" transform="matrix(.75 0 0 .75 190.05 388.74998)" font-size="13.333" font-family="Helvetica"><tspan y="14" x="-9.5 -2.0868512 1.6197233">0.4</tspan></text>
<text fill="#323232" xml:space="preserve" transform="matrix(.75 0 0 .75 223.5 388.74998)" font-size="13.333" font-family="Helvetica"><tspan y="14" x="-9.5 -2.0868512 1.6197233">0.5</tspan></text>
<text fill="#323232" xml:space="preserve" transform="matrix(.75 0 0 .75 256.95 388.74998)" font-size="13.333" font-family="Helvetica"><tspan y="14" x="-9.5 -2.0868512 1.6197233">0.6</tspan></text>
<text fill="#323232" xml:space="preserve" transform="matrix(.75 0 0 .75 290.4 388.74998)" font-size="13.333" font-family="Helvetica"><tspan y="14" x="-9.5 -2.0868512 1.6197233">0.7</tspan></text>
<text fill="#323232" xml:space="preserve" transform="matrix(.75 0 0 .75 323.85 388.74998)" font-size="13.333" font-family="Helvetica"><tspan y="14" x="-9.5 -2.0868512 1.6197233">0.8</tspan></text>
<text fill="#323232" xml:space="preserve" transform="matrix(.75 0 0 .75 357.3 388.74998)" font-size="13.333" font-family="Helvetica"><tspan y="14" x="-9.5 -2.0868512 1.6197233">0.9</tspan></text>
<text fill="#323232" xml:space="preserve" transform="matrix(.75 0 0 .75 390.75 388.74998)" font-size="13.333" font-family="Helvetica"><tspan y="14" x="-4">1</tspan></text>
<text fill="#323232" xml:space="preserve" transform="matrix(.75 0 0 .75 180 414)" font-size="14.667" font-family="Helvetica"><tspan y="0" x="0 7.3335 11.410927 14.667001 22.821854 26.89928 36.68217">x in Bi</tspan></text>
<text fill="#323232" xml:space="preserve" transform="matrix(.75 0 0 .75 210 419.25)" font-size="11.733" font-family="Helvetica"><tspan y="0" x="0 3.907089 10.430637 14.337727 20.204228">(1-x)</tspan></text>
<text fill="#323232" xml:space="preserve" transform="matrix(.75 0 0 .75 228.75 414)" font-size="14.667" font-family="Helvetica"><tspan y="0" x="0 9.782889">Ba</tspan></text>
<text fill="#323232" xml:space="preserve" transform="matrix(.75 0 0 .75 242.25 419.25)" font-size="11.733" font-family="Helvetica"><tspan y="0" x="0">x</tspan></text>
<text fill="#323232" xml:space="preserve" transform="matrix(.75 0 0 .75 246.75 414)" font-size="14.667" font-family="Helvetica"><tspan y="0" x="0">F</tspan></text>
<text fill="#323232" xml:space="preserve" transform="matrix(.75 0 0 .75 253.5 419.25)" font-size="11.733" font-family="Helvetica"><tspan y="0" x="0 6.5235488 10.430637">3-x</tspan></text>
<path transform="matrix(.75,0,0,.75,0,0)" stroke-width=".666667" stroke-linecap="square" stroke-linejoin="round" fill="none" stroke="#323232" d="M 75 513 L 75 316 "/>
<path transform="matrix(.75,0,0,.75,0,0)" stroke-width=".666667" stroke-linecap="square" stroke-linejoin="round" fill="none" stroke="#323232" d="M 521 513 L 521 316 "/>
<path transform="matrix(.75,0,0,.75,0,0)" stroke-width=".666667" stroke-linecap="square" stroke-linejoin="round" fill="none" stroke="#323232" d="M 75 513 L 79.46 513 "/>
<path transform="matrix(.75,0,0,.75,0,0)" stroke-width=".666667" stroke-linecap="square" stroke-linejoin="round" fill="none" stroke="#323232" d="M 75 473.6 L 79.46 473.6 "/>
<path transform="matrix(.75,0,0,.75,0,0)" stroke-width=".666667" stroke-linecap="square" stroke-linejoin="round" fill="none" stroke="#323232" d="M 75 434.2 L 79.46 434.2 "/>
<path transform="matrix(.75,0,0,.75,0,0)" stroke-width=".666667" stroke-linecap="square" stroke-linejoin="round" fill="none" stroke="#323232" d="M 75 394.8 L 79.46 394.8 "/>
<path transform="matrix(.75,0,0,.75,0,0)" stroke-width=".666667" stroke-linecap="square" stroke-linejoin="round" fill="none" stroke="#323232" d="M 75 355.4 L 79.46 355.4 "/>
<path transform="matrix(.75,0,0,.75,0,0)" stroke-width=".666667" stroke-linecap="square" stroke-linejoin="round" fill="none" stroke="#323232" d="M 75 316 L 79.46 316 "/>
<path transform="matrix(.75,0,0,.75,0,0)" stroke-width=".666667" stroke-linecap="square" stroke-linejoin="round" fill="none" stroke="#323232" d="M 521 513 L 516.54 513 "/>
<path transform="matrix(.75,0,0,.75,0,0)" stroke-width=".666667" stroke-linecap="square" stroke-linejoin="round" fill="none" stroke="#323232" d="M 521 473.6 L 516.54 473.6 "/>
<path transform="matrix(.75,0,0,.75,0,0)" stroke-width=".666667" stroke-linecap="square" stroke-linejoin="round" fill="none" stroke="#323232" d="M 521 434.2 L 516.54 434.2 "/>
<path transform="matrix(.75,0,0,.75,0,0)" stroke-width=".666667" stroke-linecap="square" stroke-linejoin="round" fill="none" stroke="#323232" d="M 521 394.8 L 516.54 394.8 "/>
<path transform="matrix(.75,0,0,.75,0,0)" stroke-width=".666667" stroke-linecap="square" stroke-linejoin="round" fill="none" stroke="#323232" d="M 521 355.4 L 516.54 355.4 "/>
<path transform="matrix(.75,0,0,.75,0,0)" stroke-width=".666667" stroke-linecap="square" stroke-linejoin="round" fill="none" stroke="#323232" d="M 521 316 L 516.54 316 "/>
<text fill="#323232" xml:space="preserve" transform="matrix(.75 0 0 .75 52.249998 384.75)" font-size="13.333" font-family="Helvetica"><tspan y="5.5" x="-23 -18.560112 -11.146963 -7.4403889">-0.2</tspan></text>
<text fill="#323232" xml:space="preserve" transform="matrix(.75 0 0 .75 52.249998 355.2)" font-size="13.333" font-family="Helvetica"><tspan y="5.5" x="-23 -18.560112 -11.146963 -7.4403889">-0.1</tspan></text>
<text fill="#323232" xml:space="preserve" transform="matrix(.75 0 0 .75 52.249998 325.65)" font-size="13.333" font-family="Helvetica"><tspan y="5.5" x="-8">0</tspan></text>
<text fill="#323232" xml:space="preserve" transform="matrix(.75 0 0 .75 52.249998 296.09999)" font-size="13.333" font-family="Helvetica"><tspan y="5.5" x="-19 -11.586851 -7.8802769">0.1</tspan></text>
<text fill="#323232" xml:space="preserve" transform="matrix(.75 0 0 .75 52.249998 266.55)" font-size="13.333" font-family="Helvetica"><tspan y="5.5" x="-19 -11.586851 -7.8802769">0.2</tspan></text>
<text fill="#323232" xml:space="preserve" transform="matrix(.75 0 0 .75 52.249998 237)" font-size="13.333" font-family="Helvetica"><tspan y="5.5" x="-19 -11.586851 -7.8802769">0.3</tspan></text>
<text fill="#323232" xml:space="preserve" transform="matrix(-.0000000325 -.75 .75 -.0000000325 31.999999 310.87495)" font-size="14.667" font-family="Helvetica"><tspan y="-4" x="-92 -83.03846 -74.883609 -69.9995 -57.781885 -49.62703 -45.549604 -42.29353 -34.138677 -25.983822 -21.906395 -13.751542 -5.596689 2.5581637 7.4422748 15.597128 22.930628 27.008055 35.162908 39.240335 47.395189 59.6128 63.690229 68.57434 76.729198 86.512088">Formation energy/atom (eV)</tspan></text>
<text xml:space="preserve" transform="matrix(.75 0 0 .75 223.50023 234.9375)" font-size="14.667" font-family="Helvetica" font-weight="bold"><tspan y="-4" x="-22 -13.038463 .000500679 8.155354">Fm3m</tspan></text>
<path transform="matrix(.75,0,0,.75,0,0)" stroke-width=".666667" stroke-linecap="butt" stroke-linejoin="round" fill="none" stroke="#000000" d="M 75 434.2 L 130.75 506.24134 L 186.5 507.7347 L 298 492.58448 L 353.75 482.4106 L 409.5 468.70948 L 521 434.2 "/>
<path transform="matrix(.75,0,0,.75,56.25,325.65)" stroke-width=".666667" stroke-linecap="butt" stroke-miterlimit="10" stroke-linejoin="miter" fill="none" stroke="#dc3912" d="M -2.8284274 -2.8284274 L 2.8284274 2.8284274 M -2.8284274 2.8284274 L 2.8284274 -2.8284274 "/>
<path transform="matrix(.75,0,0,.75,98.0625,379.681)" stroke-width=".666667" stroke-linecap="butt" stroke-miterlimit="10" stroke-linejoin="miter" fill="none" stroke="#dc3912" d="M -2.8284274 -2.8284274 L 2.8284274 2.8284274 M -2.8284274 2.8284274 L 2.8284274 -2.8284274 "/>
<path transform="matrix(.75,0,0,.75,139.875,380.80104)" stroke-width=".666667" stroke-linecap="butt" stroke-miterlimit="10" stroke-linejoin="miter" fill="none" stroke="#dc3912" d="M -2.8284274 -2.8284274 L 2.8284274 2.8284274 M -2.8284274 2.8284274 L 2.8284274 -2.8284274 "/>
<path transform="matrix(.75,0,0,.75,181.6875,373.64219)" stroke-width=".666667" stroke-linecap="butt" stroke-miterlimit="10" stroke-linejoin="miter" fill="none" stroke="#dc3912" d="M -2.8284274 -2.8284274 L 2.8284274 2.8284274 M -2.8284274 2.8284274 L 2.8284274 -2.8284274 "/>
<path transform="matrix(.75,0,0,.75,223.5,369.43836)" stroke-width=".666667" stroke-linecap="butt" stroke-miterlimit="10" stroke-linejoin="miter" fill="none" stroke="#dc3912" d="M -2.8284274 -2.8284274 L 2.8284274 2.8284274 M -2.8284274 2.8284274 L 2.8284274 -2.8284274 "/>
<path transform="matrix(.75,0,0,.75,265.3125,361.80796)" stroke-width=".666667" stroke-linecap="butt" stroke-miterlimit="10" stroke-linejoin="miter" fill="none" stroke="#dc3912" d="M -2.8284274 -2.8284274 L 2.8284274 2.8284274 M -2.8284274 2.8284274 L 2.8284274 -2.8284274 "/>
<path transform="matrix(.75,0,0,.75,307.125,351.5321)" stroke-width=".666667" stroke-linecap="butt" stroke-miterlimit="10" stroke-linejoin="miter" fill="none" stroke="#dc3912" d="M -2.8284274 -2.8284274 L 2.8284274 2.8284274 M -2.8284274 2.8284274 L 2.8284274 -2.8284274 "/>
<path transform="matrix(.75,0,0,.75,348.9375,335.12754)" stroke-width=".666667" stroke-linecap="butt" stroke-miterlimit="10" stroke-linejoin="miter" fill="none" stroke="#dc3912" d="M -2.8284274 -2.8284274 L 2.8284274 2.8284274 M -2.8284274 2.8284274 L 2.8284274 -2.8284274 "/>
<path transform="matrix(.75,0,0,.75,390.75,325.65)" stroke-width=".666667" stroke-linecap="butt" stroke-miterlimit="10" stroke-linejoin="miter" fill="none" stroke="#dc3912" d="M -2.8284274 -2.8284274 L 2.8284274 2.8284274 M -2.8284274 2.8284274 L 2.8284274 -2.8284274 "/>
<path transform="matrix(.75,0,0,.75,56.25,325.65)" stroke-width=".666667" stroke-linecap="butt" stroke-miterlimit="10" stroke-linejoin="miter" fill="none" stroke="#dc3912" d="M -2.8284274 -2.8284274 L 2.8284274 2.8284274 M -2.8284274 2.8284274 L 2.8284274 -2.8284274 "/>
<path transform="matrix(.75,0,0,.75,98.0625,377.65544)" stroke-width=".666667" stroke-linecap="butt" stroke-miterlimit="10" stroke-linejoin="miter" fill="none" stroke="#dc3912" d="M -2.8284274 -2.8284274 L 2.8284274 2.8284274 M -2.8284274 2.8284274 L 2.8284274 -2.8284274 "/>
<path transform="matrix(.75,0,0,.75,139.875,380.00205)" stroke-width=".666667" stroke-linecap="butt" stroke-miterlimit="10" stroke-linejoin="miter" fill="none" stroke="#dc3912" d="M -2.8284274 -2.8284274 L 2.8284274 2.8284274 M -2.8284274 2.8284274 L 2.8284274 -2.8284274 "/>
<path transform="matrix(.75,0,0,.75,181.6875,373.38578)" stroke-width=".666667" stroke-linecap="butt" stroke-miterlimit="10" stroke-linejoin="miter" fill="none" stroke="#dc3912" d="M -2.8284274 -2.8284274 L 2.8284274 2.8284274 M -2.8284274 2.8284274 L 2.8284274 -2.8284274 "/>
<path transform="matrix(.75,0,0,.75,223.5,369.08076)" stroke-width=".666667" stroke-linecap="butt" stroke-miterlimit="10" stroke-linejoin="miter" fill="none" stroke="#dc3912" d="M -2.8284274 -2.8284274 L 2.8284274 2.8284274 M -2.8284274 2.8284274 L 2.8284274 -2.8284274 "/>
<path transform="matrix(.75,0,0,.75,265.3125,361.28596)" stroke-width=".666667" stroke-linecap="butt" stroke-miterlimit="10" stroke-linejoin="miter" fill="none" stroke="#dc3912" d="M -2.8284274 -2.8284274 L 2.8284274 2.8284274 M -2.8284274 2.8284274 L 2.8284274 -2.8284274 "/>
<path transform="matrix(.75,0,0,.75,307.125,349.01325)" stroke-width=".666667" stroke-linecap="butt" stroke-miterlimit="10" stroke-linejoin="miter" fill="none" stroke="#dc3912" d="M -2.8284274 -2.8284274 L 2.8284274 2.8284274 M -2.8284274 2.8284274 L 2.8284274 -2.8284274 "/>
<path transform="matrix(.75,0,0,.75,348.9375,330.93724)" stroke-width=".666667" stroke-linecap="butt" stroke-miterlimit="10" stroke-linejoin="miter" fill="none" stroke="#dc3912" d="M -2.8284274 -2.8284274 L 2.8284274 2.8284274 M -2.8284274 2.8284274 L 2.8284274 -2.8284274 "/>
<path transform="matrix(.75,0,0,.75,390.75,324.5086)" stroke-width=".666667" stroke-linecap="butt" stroke-miterlimit="10" stroke-linejoin="miter" fill="none" stroke="#dc3912" d="M -2.8284274 -2.8284274 L 2.8284274 2.8284274 M -2.8284274 2.8284274 L 2.8284274 -2.8284274 "/>
<path transform="matrix(.75,0,0,.75,56.25,325.65)" stroke-width=".666667" stroke-linecap="butt" stroke-miterlimit="10" stroke-linejoin="miter" fill="none" stroke="#dc3912" d="M -2.8284274 -2.8284274 L 2.8284274 2.8284274 M -2.8284274 2.8284274 L 2.8284274 -2.8284274 "/>
<path transform="matrix(.75,0,0,.75,98.0625,377.42707)" stroke-width=".666667" stroke-linecap="butt" stroke-miterlimit="10" stroke-linejoin="miter" fill="none" stroke="#dc3912" d="M -2.8284274 -2.8284274 L 2.8284274 2.8284274 M -2.8284274 2.8284274 L 2.8284274 -2.8284274 "/>
<path transform="matrix(.75,0,0,.75,139.875,376.71995)" stroke-width=".666667" stroke-linecap="butt" stroke-miterlimit="10" stroke-linejoin="miter" fill="none" stroke="#dc3912" d="M -2.8284274 -2.8284274 L 2.8284274 2.8284274 M -2.8284274 2.8284274 L 2.8284274 -2.8284274 "/>
<path transform="matrix(.75,0,0,.75,181.6875,373.34495)" stroke-width=".666667" stroke-linecap="butt" stroke-miterlimit="10" stroke-linejoin="miter" fill="none" stroke="#dc3912" d="M -2.8284274 -2.8284274 L 2.8284274 2.8284274 M -2.8284274 2.8284274 L 2.8284274 -2.8284274 "/>
<path transform="matrix(.75,0,0,.75,223.5,368.9363)" stroke-width=".666667" stroke-linecap="butt" stroke-miterlimit="10" stroke-linejoin="miter" fill="none" stroke="#dc3912" d="M -2.8284274 -2.8284274 L 2.8284274 2.8284274 M -2.8284274 2.8284274 L 2.8284274 -2.8284274 "/>
<path transform="matrix(.75,0,0,.75,265.3125,360.7936)" stroke-width=".666667" stroke-linecap="butt" stroke-miterlimit="10" stroke-linejoin="miter" fill="none" stroke="#dc3912" d="M -2.8284274 -2.8284274 L 2.8284274 2.8284274 M -2.8284274 2.8284274 L 2.8284274 -2.8284274 "/>
<path transform="matrix(.75,0,0,.75,307.125,348.6563)" stroke-width=".666667" stroke-linecap="butt" stroke-miterlimit="10" stroke-linejoin="miter" fill="none" stroke="#dc3912" d="M -2.8284274 -2.8284274 L 2.8284274 2.8284274 M -2.8284274 2.8284274 L 2.8284274 -2.8284274 "/>
<path transform="matrix(.75,0,0,.75,348.9375,329.6338)" stroke-width=".666667" stroke-linecap="butt" stroke-miterlimit="10" stroke-linejoin="miter" fill="none" stroke="#dc3912" d="M -2.8284274 -2.8284274 L 2.8284274 2.8284274 M -2.8284274 2.8284274 L 2.8284274 -2.8284274 "/>
<path transform="matrix(.75,0,0,.75,390.75,318.81935)" stroke-width=".666667" stroke-linecap="butt" stroke-miterlimit="10" stroke-linejoin="miter" fill="none" stroke="#dc3912" d="M -2.8284274 -2.8284274 L 2.8284274 2.8284274 M -2.8284274 2.8284274 L 2.8284274 -2.8284274 "/>
<path transform="matrix(.75,0,0,.75,56.25,325.65)" stroke-width=".666667" stroke-linecap="butt" stroke-miterlimit="10" stroke-linejoin="miter" fill="none" stroke="#dc3912" d="M -2.8284274 -2.8284274 L 2.8284274 2.8284274 M -2.8284274 2.8284274 L 2.8284274 -2.8284274 "/>
<path transform="matrix(.75,0,0,.75,98.0625,374.1485)" stroke-width=".666667" stroke-linecap="butt" stroke-miterlimit="10" stroke-linejoin="miter" fill="none" stroke="#dc3912" d="M -2.8284274 -2.8284274 L 2.8284274 2.8284274 M -2.8284274 2.8284274 L 2.8284274 -2.8284274 "/>
<path transform="matrix(.75,0,0,.75,139.875,376.15278)" stroke-width=".666667" stroke-linecap="butt" stroke-miterlimit="10" stroke-linejoin="miter" fill="none" stroke="#dc3912" d="M -2.8284274 -2.8284274 L 2.8284274 2.8284274 M -2.8284274 2.8284274 L 2.8284274 -2.8284274 "/>
<path transform="matrix(.75,0,0,.75,181.6875,373.08247)" stroke-width=".666667" stroke-linecap="butt" stroke-miterlimit="10" stroke-linejoin="miter" fill="none" stroke="#dc3912" d="M -2.8284274 -2.8284274 L 2.8284274 2.8284274 M -2.8284274 2.8284274 L 2.8284274 -2.8284274 "/>
<path transform="matrix(.75,0,0,.75,223.5,368.5423)" stroke-width=".666667" stroke-linecap="butt" stroke-miterlimit="10" stroke-linejoin="miter" fill="none" stroke="#dc3912" d="M -2.8284274 -2.8284274 L 2.8284274 2.8284274 M -2.8284274 2.8284274 L 2.8284274 -2.8284274 "/>
<path transform="matrix(.75,0,0,.75,265.3125,360.3116)" stroke-width=".666667" stroke-linecap="butt" stroke-miterlimit="10" stroke-linejoin="miter" fill="none" stroke="#dc3912" d="M -2.8284274 -2.8284274 L 2.8284274 2.8284274 M -2.8284274 2.8284274 L 2.8284274 -2.8284274 "/>
<path transform="matrix(.75,0,0,.75,307.125,346.793)" stroke-width=".666667" stroke-linecap="butt" stroke-miterlimit="10" stroke-linejoin="miter" fill="none" stroke="#dc3912" d="M -2.8284274 -2.8284274 L 2.8284274 2.8284274 M -2.8284274 2.8284274 L 2.8284274 -2.8284274 "/>
<path transform="matrix(.75,0,0,.75,348.9375,324.90089)" stroke-width=".666667" stroke-linecap="butt" stroke-miterlimit="10" stroke-linejoin="miter" fill="none" stroke="#dc3912" d="M -2.8284274 -2.8284274 L 2.8284274 2.8284274 M -2.8284274 2.8284274 L 2.8284274 -2.8284274 "/>
<path transform="matrix(.75,0,0,.75,390.75,317.03004)" stroke-width=".666667" stroke-linecap="butt" stroke-miterlimit="10" stroke-linejoin="miter" fill="none" stroke="#dc3912" d="M -2.8284274 -2.8284274 L 2.8284274 2.8284274 M -2.8284274 2.8284274 L 2.8284274 -2.8284274 "/>
<path transform="matrix(.75,0,0,.75,56.25,325.65)" stroke-width=".666667" stroke-linecap="butt" stroke-miterlimit="10" stroke-linejoin="miter" fill="none" stroke="#dc3912" d="M -2.8284274 -2.8284274 L 2.8284274 2.8284274 M -2.8284274 2.8284274 L 2.8284274 -2.8284274 "/>
<path transform="matrix(.75,0,0,.75,98.0625,374.13114)" stroke-width=".666667" stroke-linecap="butt" stroke-miterlimit="10" stroke-linejoin="miter" fill="none" stroke="#dc3912" d="M -2.8284274 -2.8284274 L 2.8284274 2.8284274 M -2.8284274 2.8284274 L 2.8284274 -2.8284274 "/>
<path transform="matrix(.75,0,0,.75,139.875,375.978)" stroke-width=".666667" stroke-linecap="butt" stroke-miterlimit="10" stroke-linejoin="miter" fill="none" stroke="#dc3912" d="M -2.8284274 -2.8284274 L 2.8284274 2.8284274 M -2.8284274 2.8284274 L 2.8284274 -2.8284274 "/>
<path transform="matrix(.75,0,0,.75,181.6875,373.03028)" stroke-width=".666667" stroke-linecap="butt" stroke-miterlimit="10" stroke-linejoin="miter" fill="none" stroke="#dc3912" d="M -2.8284274 -2.8284274 L 2.8284274 2.8284274 M -2.8284274 2.8284274 L 2.8284274 -2.8284274 "/>
<path transform="matrix(.75,0,0,.75,223.5,367.79554)" stroke-width=".666667" stroke-linecap="butt" stroke-miterlimit="10" stroke-linejoin="miter" fill="none" stroke="#dc3912" d="M -2.8284274 -2.8284274 L 2.8284274 2.8284274 M -2.8284274 2.8284274 L 2.8284274 -2.8284274 "/>
<path transform="matrix(.75,0,0,.75,265.3125,360.14936)" stroke-width=".666667" stroke-linecap="butt" stroke-miterlimit="10" stroke-linejoin="miter" fill="none" stroke="#dc3912" d="M -2.8284274 -2.8284274 L 2.8284274 2.8284274 M -2.8284274 2.8284274 L 2.8284274 -2.8284274 "/>
<path transform="matrix(.75,0,0,.75,307.125,346.1557)" stroke-width=".666667" stroke-linecap="butt" stroke-miterlimit="10" stroke-linejoin="miter" fill="none" stroke="#dc3912" d="M -2.8284274 -2.8284274 L 2.8284274 2.8284274 M -2.8284274 2.8284274 L 2.8284274 -2.8284274 "/>
<path transform="matrix(.75,0,0,.75,348.9375,321.03318)" stroke-width=".666667" stroke-linecap="butt" stroke-miterlimit="10" stroke-linejoin="miter" fill="none" stroke="#dc3912" d="M -2.8284274 -2.8284274 L 2.8284274 2.8284274 M -2.8284274 2.8284274 L 2.8284274 -2.8284274 "/>
<path transform="matrix(.75,0,0,.75,390.75,316.4839)" stroke-width=".666667" stroke-linecap="butt" stroke-miterlimit="10" stroke-linejoin="miter" fill="none" stroke="#dc3912" d="M -2.8284274 -2.8284274 L 2.8284274 2.8284274 M -2.8284274 2.8284274 L 2.8284274 -2.8284274 "/>
<path transform="matrix(.75,0,0,.75,56.25,325.65)" stroke-width=".666667" stroke-linecap="butt" stroke-miterlimit="10" stroke-linejoin="miter" fill="none" stroke="#dc3912" d="M -2.8284274 -2.8284274 L 2.8284274 2.8284274 M -2.8284274 2.8284274 L 2.8284274 -2.8284274 "/>
<path transform="matrix(.75,0,0,.75,98.0625,374.12965)" stroke-width=".666667" stroke-linecap="butt" stroke-miterlimit="10" stroke-linejoin="miter" fill="none" stroke="#dc3912" d="M -2.8284274 -2.8284274 L 2.8284274 2.8284274 M -2.8284274 2.8284274 L 2.8284274 -2.8284274 "/>
<path transform="matrix(.75,0,0,.75,139.875,375.929)" stroke-width=".666667" stroke-linecap="butt" stroke-miterlimit="10" stroke-linejoin="miter" fill="none" stroke="#dc3912" d="M -2.8284274 -2.8284274 L 2.8284274 2.8284274 M -2.8284274 2.8284274 L 2.8284274 -2.8284274 "/>
<path transform="matrix(.75,0,0,.75,181.6875,372.8188)" stroke-width=".666667" stroke-linecap="butt" stroke-miterlimit="10" stroke-linejoin="miter" fill="none" stroke="#dc3912" d="M -2.8284274 -2.8284274 L 2.8284274 2.8284274 M -2.8284274 2.8284274 L 2.8284274 -2.8284274 "/>
<path transform="matrix(.75,0,0,.75,223.5,367.60905)" stroke-width=".666667" stroke-linecap="butt" stroke-miterlimit="10" stroke-linejoin="miter" fill="none" stroke="#dc3912" d="M -2.8284274 -2.8284274 L 2.8284274 2.8284274 M -2.8284274 2.8284274 L 2.8284274 -2.8284274 "/>
<path transform="matrix(.75,0,0,.75,265.3125,359.30815)" stroke-width=".666667" stroke-linecap="butt" stroke-miterlimit="10" stroke-linejoin="miter" fill="none" stroke="#dc3912" d="M -2.8284274 -2.8284274 L 2.8284274 2.8284274 M -2.8284274 2.8284274 L 2.8284274 -2.8284274 "/>
<path transform="matrix(.75,0,0,.75,307.125,346.15397)" stroke-width=".666667" stroke-linecap="butt" stroke-miterlimit="10" stroke-linejoin="miter" fill="none" stroke="#dc3912" d="M -2.8284274 -2.8284274 L 2.8284274 2.8284274 M -2.8284274 2.8284274 L 2.8284274 -2.8284274 "/>
<path transform="matrix(.75,0,0,.75,348.9375,320.95158)" stroke-width=".666667" stroke-linecap="butt" stroke-miterlimit="10" stroke-linejoin="miter" fill="none" stroke="#dc3912" d="M -2.8284274 -2.8284274 L 2.8284274 2.8284274 M -2.8284274 2.8284274 L 2.8284274 -2.8284274 "/>
<path transform="matrix(.75,0,0,.75,390.75,308.09065)" stroke-width=".666667" stroke-linecap="butt" stroke-miterlimit="10" stroke-linejoin="miter" fill="none" stroke="#dc3912" d="M -2.8284274 -2.8284274 L 2.8284274 2.8284274 M -2.8284274 2.8284274 L 2.8284274 -2.8284274 "/>
<path transform="matrix(.75,0,0,.75,56.25,325.65)" stroke-width=".666667" stroke-linecap="butt" stroke-miterlimit="10" stroke-linejoin="miter" fill="none" stroke="#dc3912" d="M -2.8284274 -2.8284274 L 2.8284274 2.8284274 M -2.8284274 2.8284274 L 2.8284274 -2.8284274 "/>
<path transform="matrix(.75,0,0,.75,98.0625,371.6444)" stroke-width=".666667" stroke-linecap="butt" stroke-miterlimit="10" stroke-linejoin="miter" fill="none" stroke="#dc3912" d="M -2.8284274 -2.8284274 L 2.8284274 2.8284274 M -2.8284274 2.8284274 L 2.8284274 -2.8284274 "/>
<path transform="matrix(.75,0,0,.75,139.875,375.53233)" stroke-width=".666667" stroke-linecap="butt" stroke-miterlimit="10" stroke-linejoin="miter" fill="none" stroke="#dc3912" d="M -2.8284274 -2.8284274 L 2.8284274 2.8284274 M -2.8284274 2.8284274 L 2.8284274 -2.8284274 "/>
<path transform="matrix(.75,0,0,.75,181.6875,371.78013)" stroke-width=".666667" stroke-linecap="butt" stroke-miterlimit="10" stroke-linejoin="miter" fill="none" stroke="#dc3912" d="M -2.8284274 -2.8284274 L 2.8284274 2.8284274 M -2.8284274 2.8284274 L 2.8284274 -2.8284274 "/>
<path transform="matrix(.75,0,0,.75,223.5,367.58094)" stroke-width=".666667" stroke-linecap="butt" stroke-miterlimit="10" stroke-linejoin="miter" fill="none" stroke="#dc3912" d="M -2.8284274 -2.8284274 L 2.8284274 2.8284274 M -2.8284274 2.8284274 L 2.8284274 -2.8284274 "/>
<path transform="matrix(.75,0,0,.75,265.3125,357.88313)" stroke-width=".666667" stroke-linecap="butt" stroke-miterlimit="10" stroke-linejoin="miter" fill="none" stroke="#dc3912" d="M -2.8284274 -2.8284274 L 2.8284274 2.8284274 M -2.8284274 2.8284274 L 2.8284274 -2.8284274 "/>
<path transform="matrix(.75,0,0,.75,307.125,344.7722)" stroke-width=".666667" stroke-linecap="butt" stroke-miterlimit="10" stroke-linejoin="miter" fill="none" stroke="#dc3912" d="M -2.8284274 -2.8284274 L 2.8284274 2.8284274 M -2.8284274 2.8284274 L 2.8284274 -2.8284274 "/>
<path transform="matrix(.75,0,0,.75,348.9375,311.99787)" stroke-width=".666667" stroke-linecap="butt" stroke-miterlimit="10" stroke-linejoin="miter" fill="none" stroke="#dc3912" d="M -2.8284274 -2.8284274 L 2.8284274 2.8284274 M -2.8284274 2.8284274 L 2.8284274 -2.8284274 "/>
<path transform="matrix(.75,0,0,.75,390.75,305.49723)" stroke-width=".666667" stroke-linecap="butt" stroke-miterlimit="10" stroke-linejoin="miter" fill="none" stroke="#dc3912" d="M -2.8284274 -2.8284274 L 2.8284274 2.8284274 M -2.8284274 2.8284274 L 2.8284274 -2.8284274 "/>
<path transform="matrix(.75,0,0,.75,56.25,325.65)" stroke-width=".666667" stroke-linecap="butt" stroke-miterlimit="10" stroke-linejoin="miter" fill="none" stroke="#dc3912" d="M -2.8284274 -2.8284274 L 2.8284274 2.8284274 M -2.8284274 2.8284274 L 2.8284274 -2.8284274 "/>
<path transform="matrix(.75,0,0,.75,98.0625,370.46156)" stroke-width=".666667" stroke-linecap="butt" stroke-miterlimit="10" stroke-linejoin="miter" fill="none" stroke="#dc3912" d="M -2.8284274 -2.8284274 L 2.8284274 2.8284274 M -2.8284274 2.8284274 L 2.8284274 -2.8284274 "/>
<path transform="matrix(.75,0,0,.75,139.875,374.94468)" stroke-width=".666667" stroke-linecap="butt" stroke-miterlimit="10" stroke-linejoin="miter" fill="none" stroke="#dc3912" d="M -2.8284274 -2.8284274 L 2.8284274 2.8284274 M -2.8284274 2.8284274 L 2.8284274 -2.8284274 "/>
<path transform="matrix(.75,0,0,.75,181.6875,371.63264)" stroke-width=".666667" stroke-linecap="butt" stroke-miterlimit="10" stroke-linejoin="miter" fill="none" stroke="#dc3912" d="M -2.8284274 -2.8284274 L 2.8284274 2.8284274 M -2.8284274 2.8284274 L 2.8284274 -2.8284274 "/>
<path transform="matrix(.75,0,0,.75,223.5,364.62013)" stroke-width=".666667" stroke-linecap="butt" stroke-miterlimit="10" stroke-linejoin="miter" fill="none" stroke="#dc3912" d="M -2.8284274 -2.8284274 L 2.8284274 2.8284274 M -2.8284274 2.8284274 L 2.8284274 -2.8284274 "/>
<path transform="matrix(.75,0,0,.75,265.3125,357.77238)" stroke-width=".666667" stroke-linecap="butt" stroke-miterlimit="10" stroke-linejoin="miter" fill="none" stroke="#dc3912" d="M -2.8284274 -2.8284274 L 2.8284274 2.8284274 M -2.8284274 2.8284274 L 2.8284274 -2.8284274 "/>
<path transform="matrix(.75,0,0,.75,307.125,344.4528)" stroke-width=".666667" stroke-linecap="butt" stroke-miterlimit="10" stroke-linejoin="miter" fill="none" stroke="#dc3912" d="M -2.8284274 -2.8284274 L 2.8284274 2.8284274 M -2.8284274 2.8284274 L 2.8284274 -2.8284274 "/>
<path transform="matrix(.75,0,0,.75,348.9375,294.54228)" stroke-width=".666667" stroke-linecap="butt" stroke-miterlimit="10" stroke-linejoin="miter" fill="none" stroke="#dc3912" d="M -2.8284274 -2.8284274 L 2.8284274 2.8284274 M -2.8284274 2.8284274 L 2.8284274 -2.8284274 "/>
<path transform="matrix(.75,0,0,.75,390.75,305.45338)" stroke-width=".666667" stroke-linecap="butt" stroke-miterlimit="10" stroke-linejoin="miter" fill="none" stroke="#dc3912" d="M -2.8284274 -2.8284274 L 2.8284274 2.8284274 M -2.8284274 2.8284274 L 2.8284274 -2.8284274 "/>
<path transform="matrix(.75,0,0,.75,56.25,325.65)" stroke-width=".666667" stroke-linecap="butt" stroke-miterlimit="10" stroke-linejoin="miter" fill="none" stroke="#dc3912" d="M -2.8284274 -2.8284274 L 2.8284274 2.8284274 M -2.8284274 2.8284274 L 2.8284274 -2.8284274 "/>
<path transform="matrix(.75,0,0,.75,98.0625,370.4581)" stroke-width=".666667" stroke-linecap="butt" stroke-miterlimit="10" stroke-linejoin="miter" fill="none" stroke="#dc3912" d="M -2.8284274 -2.8284274 L 2.8284274 2.8284274 M -2.8284274 2.8284274 L 2.8284274 -2.8284274 "/>
<path transform="matrix(.75,0,0,.75,139.875,374.28413)" stroke-width=".666667" stroke-linecap="butt" stroke-miterlimit="10" stroke-linejoin="miter" fill="none" stroke="#dc3912" d="M -2.8284274 -2.8284274 L 2.8284274 2.8284274 M -2.8284274 2.8284274 L 2.8284274 -2.8284274 "/>
<path transform="matrix(.75,0,0,.75,181.6875,371.57337)" stroke-width=".666667" stroke-linecap="butt" stroke-miterlimit="10" stroke-linejoin="miter" fill="none" stroke="#dc3912" d="M -2.8284274 -2.8284274 L 2.8284274 2.8284274 M -2.8284274 2.8284274 L 2.8284274 -2.8284274 "/>
<path transform="matrix(.75,0,0,.75,223.5,362.32087)" stroke-width=".666667" stroke-linecap="butt" stroke-miterlimit="10" stroke-linejoin="miter" fill="none" stroke="#dc3912" d="M -2.8284274 -2.8284274 L 2.8284274 2.8284274 M -2.8284274 2.8284274 L 2.8284274 -2.8284274 "/>
<path transform="matrix(.75,0,0,.75,265.3125,357.566)" stroke-width=".666667" stroke-linecap="butt" stroke-miterlimit="10" stroke-linejoin="miter" fill="none" stroke="#dc3912" d="M -2.8284274 -2.8284274 L 2.8284274 2.8284274 M -2.8284274 2.8284274 L 2.8284274 -2.8284274 "/>
<path transform="matrix(.75,0,0,.75,307.125,341.17768)" stroke-width=".666667" stroke-linecap="butt" stroke-miterlimit="10" stroke-linejoin="miter" fill="none" stroke="#dc3912" d="M -2.8284274 -2.8284274 L 2.8284274 2.8284274 M -2.8284274 2.8284274 L 2.8284274 -2.8284274 "/>
<path transform="matrix(.75,0,0,.75,348.9375,271.923)" stroke-width=".666667" stroke-linecap="butt" stroke-miterlimit="10" stroke-linejoin="miter" fill="none" stroke="#dc3912" d="M -2.8284274 -2.8284274 L 2.8284274 2.8284274 M -2.8284274 2.8284274 L 2.8284274 -2.8284274 "/>
<path transform="matrix(.75,0,0,.75,390.75,304.75096)" stroke-width=".666667" stroke-linecap="butt" stroke-miterlimit="10" stroke-linejoin="miter" fill="none" stroke="#dc3912" d="M -2.8284274 -2.8284274 L 2.8284274 2.8284274 M -2.8284274 2.8284274 L 2.8284274 -2.8284274 "/>
<path transform="matrix(.75,0,0,.75,56.25,325.65)" stroke-width=".666667" stroke-linecap="butt" stroke-miterlimit="10" stroke-linejoin="miter" fill="none" stroke="#dc3912" d="M -2.8284274 -2.8284274 L 2.8284274 2.8284274 M -2.8284274 2.8284274 L 2.8284274 -2.8284274 "/>
<path transform="matrix(.75,0,0,.75,98.0625,370.45307)" stroke-width=".666667" stroke-linecap="butt" stroke-miterlimit="10" stroke-linejoin="miter" fill="none" stroke="#dc3912" d="M -2.8284274 -2.8284274 L 2.8284274 2.8284274 M -2.8284274 2.8284274 L 2.8284274 -2.8284274 "/>
<path transform="matrix(.75,0,0,.75,139.875,370.55085)" stroke-width=".666667" stroke-linecap="butt" stroke-miterlimit="10" stroke-linejoin="miter" fill="none" stroke="#dc3912" d="M -2.8284274 -2.8284274 L 2.8284274 2.8284274 M -2.8284274 2.8284274 L 2.8284274 -2.8284274 "/>
<path transform="matrix(.75,0,0,.75,181.6875,368.8773)" stroke-width=".666667" stroke-linecap="butt" stroke-miterlimit="10" stroke-linejoin="miter" fill="none" stroke="#dc3912" d="M -2.8284274 -2.8284274 L 2.8284274 2.8284274 M -2.8284274 2.8284274 L 2.8284274 -2.8284274 "/>
<path transform="matrix(.75,0,0,.75,223.5,360.98774)" stroke-width=".666667" stroke-linecap="butt" stroke-miterlimit="10" stroke-linejoin="miter" fill="none" stroke="#dc3912" d="M -2.8284274 -2.8284274 L 2.8284274 2.8284274 M -2.8284274 2.8284274 L 2.8284274 -2.8284274 "/>
<path transform="matrix(.75,0,0,.75,265.3125,354.25865)" stroke-width=".666667" stroke-linecap="butt" stroke-miterlimit="10" stroke-linejoin="miter" fill="none" stroke="#dc3912" d="M -2.8284274 -2.8284274 L 2.8284274 2.8284274 M -2.8284274 2.8284274 L 2.8284274 -2.8284274 "/>
<path transform="matrix(.75,0,0,.75,307.125,341.15864)" stroke-width=".666667" stroke-linecap="butt" stroke-miterlimit="10" stroke-linejoin="miter" fill="none" stroke="#dc3912" d="M -2.8284274 -2.8284274 L 2.8284274 2.8284274 M -2.8284274 2.8284274 L 2.8284274 -2.8284274 "/>
<path transform="matrix(.75,0,0,.75,348.9375,257.13133)" stroke-width=".666667" stroke-linecap="butt" stroke-miterlimit="10" stroke-linejoin="miter" fill="none" stroke="#dc3912" d="M -2.8284274 -2.8284274 L 2.8284274 2.8284274 M -2.8284274 2.8284274 L 2.8284274 -2.8284274 "/>
<path transform="matrix(.75,0,0,.75,390.75,303.39878)" stroke-width=".666667" stroke-linecap="butt" stroke-miterlimit="10" stroke-linejoin="miter" fill="none" stroke="#dc3912" d="M -2.8284274 -2.8284274 L 2.8284274 2.8284274 M -2.8284274 2.8284274 L 2.8284274 -2.8284274 "/>
</g>
</svg>
