<?xml version="1.0" encoding="UTF-8" standalone="no"?>
<!DOCTYPE svg PUBLIC "-//W3C//DTD SVG 1.1//EN" "http://www.w3.org/Graphics/SVG/1.1/DTD/svg11.dtd">
<svg xmlns="http://www.w3.org/2000/svg" xmlns:xlink="http://www.w3.org/1999/xlink" version="1.1" width="432pt" height="252pt" viewBox="0 0 432 252">
<g enable-background="new">
<clipPath id="cp0">
<path transform="matrix(.75,0,0,.75,0,0)" d="M 0 0 L 576 0 L 576 336 L 0 336 L 0 0 Z "/>
</clipPath>
<g clip-path="url(#cp0)">
<path transform="matrix(.75,0,0,.75,0,0)" d="M 0 0 L 576 0 L 576 336 L 0 336 Z " fill="#ffffff"/>
</g>
<path transform="matrix(.75,0,0,.75,0,0)" d="M 0 0 L 576 0 L 576 336 L 0 336 Z " fill="#ffffff"/>
<path transform="matrix(.75,0,0,.75,0,0)" d="M 75 287 L 521 287 L 521 25 L 75 25 Z " fill="#ffffff"/>
<path transform="matrix(.75,0,0,.75,0,0)" stroke-width=".666667" stroke-linecap="square" stroke-linejoin="round" fill="none" stroke="#323232" d="M 75 287 L 521 287 "/>
<path transform="matrix(.75,0,0,.75,0,0)" stroke-width=".666667" stroke-linecap="square" stroke-linejoin="round" fill="none" stroke="#323232" d="M 75 24.99999 L 521 24.99999 "/>
<path transform="matrix(.75,0,0,.75,0,0)" stroke-width=".666667" stroke-linecap="square" stroke-linejoin="round" fill="none" stroke="#323232" d="M 75 287 L 75 282.54 "/>
<path transform="matrix(.75,0,0,.75,0,0)" stroke-width=".666667" stroke-linecap="square" stroke-linejoin="round" fill="none" stroke="#323232" d="M 119.6 287 L 119.6 282.54 "/>
<path transform="matrix(.75,0,0,.75,0,0)" stroke-width=".666667" stroke-linecap="square" stroke-linejoin="round" fill="none" stroke="#323232" d="M 164.2 287 L 164.2 282.54 "/>
<path transform="matrix(.75,0,0,.75,0,0)" stroke-width=".666667" stroke-linecap="square" stroke-linejoin="round" fill="none" stroke="#323232" d="M 208.8 287 L 208.8 282.54 "/>
<path transform="matrix(.75,0,0,.75,0,0)" stroke-width=".666667" stroke-linecap="square" stroke-linejoin="round" fill="none" stroke="#323232" d="M 253.40001 287 L 253.40001 282.54 "/>
<path transform="matrix(.75,0,0,.75,0,0)" stroke-width=".666667" stroke-linecap="square" stroke-linejoin="round" fill="none" stroke="#323232" d="M 298 287 L 298 282.54 "/>
<path transform="matrix(.75,0,0,.75,0,0)" stroke-width=".666667" stroke-linecap="square" stroke-linejoin="round" fill="none" stroke="#323232" d="M 342.6 287 L 342.6 282.54 "/>
<path transform="matrix(.75,0,0,.75,0,0)" stroke-width=".666667" stroke-linecap="square" stroke-linejoin="round" fill="none" stroke="#323232" d="M 387.19999 287 L 387.19999 282.54 "/>
<path transform="matrix(.75,0,0,.75,0,0)" stroke-width=".666667" stroke-linecap="square" stroke-linejoin="round" fill="none" stroke="#323232" d="M 431.80003 287 L 431.80003 282.54 "/>
<path transform="matrix(.75,0,0,.75,0,0)" stroke-width=".666667" stroke-linecap="square" stroke-linejoin="round" fill="none" stroke="#323232" d="M 476.4 287 L 476.4 282.54 "/>
<path transform="matrix(.75,0,0,.75,0,0)" stroke-width=".666667" stroke-linecap="square" stroke-linejoin="round" fill="none" stroke="#323232" d="M 521 287 L 521 282.54 "/>
<path transform="matrix(.75,0,0,.75,0,0)" stroke-width=".666667" stroke-linecap="square" stroke-linejoin="round" fill="none" stroke="#323232" d="M 75 24.99999 L 75 29.459986 "/>
<path transform="matrix(.75,0,0,.75,0,0)" stroke-width=".666667" stroke-linecap="square" stroke-linejoin="round" fill="none" stroke="#323232" d="M 119.6 24.99999 L 119.6 29.459986 "/>
<path transform="matrix(.75,0,0,.75,0,0)" stroke-width=".666667" stroke-linecap="square" stroke-linejoin="round" fill="none" stroke="#323232" d="M 164.2 24.99999 L 164.2 29.459986 "/>
<path transform="matrix(.75,0,0,.75,0,0)" stroke-width=".666667" stroke-linecap="square" stroke-linejoin="round" fill="none" stroke="#323232" d="M 208.8 24.99999 L 208.8 29.459986 "/>
<path transform="matrix(.75,0,0,.75,0,0)" stroke-width=".666667" stroke-linecap="square" stroke-linejoin="round" fill="none" stroke="#323232" d="M 253.40001 24.99999 L 253.40001 29.459986 "/>
<path transform="matrix(.75,0,0,.75,0,0)" stroke-width=".666667" stroke-linecap="square" stroke-linejoin="round" fill="none" stroke="#323232" d="M 298 24.99999 L 298 29.459986 "/>
<path transform="matrix(.75,0,0,.75,0,0)" stroke-width=".666667" stroke-linecap="square" stroke-linejoin="round" fill="none" stroke="#323232" d="M 342.6 24.99999 L 342.6 29.459986 "/>
<path transform="matrix(.75,0,0,.75,0,0)" stroke-width=".666667" stroke-linecap="square" stroke-linejoin="round" fill="none" stroke="#323232" d="M 387.19999 24.99999 L 387.19999 29.459986 "/>
<path transform="matrix(.75,0,0,.75,0,0)" stroke-width=".666667" stroke-linecap="square" stroke-linejoin="round" fill="none" stroke="#323232" d="M 431.80003 24.99999 L 431.80003 29.459986 "/>
<path transform="matrix(.75,0,0,.75,0,0)" stroke-width=".666667" stroke-linecap="square" stroke-linejoin="round" fill="none" stroke="#323232" d="M 476.4 24.99999 L 476.4 29.459986 "/>
<path transform="matrix(.75,0,0,.75,0,0)" stroke-width=".666667" stroke-linecap="square" stroke-linejoin="round" fill="none" stroke="#323232" d="M 521 24.99999 L 521 29.459986 "/>
<text fill="#323232" xml:space="preserve" transform="matrix(.75 0 0 .75 56.25 219.25)" font-size="13.333" font-family="Helvetica"><tspan y="14" x="-4">0</tspan></text>
<text fill="#323232" xml:space="preserve" transform="matrix(.75 0 0 .75 89.7 219.25)" font-size="13.333" font-family="Helvetica"><tspan y="14" x="-9.5 -2.0868512 1.6197233">0.1</tspan></text>
<text fill="#323232" xml:space="preserve" transform="matrix(.75 0 0 .75 123.149997 219.25)" font-size="13.333" font-family="Helvetica"><tspan y="14" x="-9.5 -2.0868512 1.6197233">0.2</tspan></text>
<text fill="#323232" xml:space="preserve" transform="matrix(.75 0 0 .75 156.6 219.25)" font-size="13.333" font-family="Helvetica"><tspan y="14" x="-9.5 -2.0868512 1.6197233">0.3</tspan></text>
<text fill="#323232" xml:space="preserve" transform="matrix(.75 0 0 .75 190.05 219.25)" font-size="13.333" font-family="Helvetica"><tspan y="14" x="-9.5 -2.0868512 1.6197233">0.4</tspan></text>
<text fill="#323232" xml:space="preserve" transform="matrix(.75 0 0 .75 223.5 219.25)" font-size="13.333" font-family="Helvetica"><tspan y="14" x="-9.5 -2.0868512 1.6197233">0.5</tspan></text>
<text fill="#323232" xml:space="preserve" transform="matrix(.75 0 0 .75 256.95 219.25)" font-size="13.333" font-family="Helvetica"><tspan y="14" x="-9.5 -2.0868512 1.6197233">0.6</tspan></text>
<text fill="#323232" xml:space="preserve" transform="matrix(.75 0 0 .75 290.4 219.25)" font-size="13.333" font-family="Helvetica"><tspan y="14" x="-9.5 -2.0868512 1.6197233">0.7</tspan></text>
<text fill="#323232" xml:space="preserve" transform="matrix(.75 0 0 .75 323.85 219.25)" font-size="13.333" font-family="Helvetica"><tspan y="14" x="-9.5 -2.0868512 1.6197233">0.8</tspan></text>
<text fill="#323232" xml:space="preserve" transform="matrix(.75 0 0 .75 357.3 219.25)" font-size="13.333" font-family="Helvetica"><tspan y="14" x="-9.5 -2.0868512 1.6197233">0.9</tspan></text>
<text fill="#323232" xml:space="preserve" transform="matrix(.75 0 0 .75 390.75 219.25)" font-size="13.333" font-family="Helvetica"><tspan y="14" x="-4">1</tspan></text>
<text fill="#323232" xml:space="preserve" transform="matrix(.75 0 0 .75 180 244.5)" font-size="14.667" font-family="Helvetica"><tspan y="0" x="0 7.3335 11.410927 14.667001 22.821854 26.89928 36.68217">x in Bi</tspan></text>
<text fill="#323232" xml:space="preserve" transform="matrix(.75 0 0 .75 210 249.75)" font-size="11.733" font-family="Helvetica"><tspan y="0" x="0 3.907089 10.430637 14.337727 20.204228">(1-x)</tspan></text>
<text fill="#323232" xml:space="preserve" transform="matrix(.75 0 0 .75 228.75 244.5)" font-size="14.667" font-family="Helvetica"><tspan y="0" x="0 9.782889">Pb</tspan></text>
<text fill="#323232" xml:space="preserve" transform="matrix(.75 0 0 .75 242.25 249.75)" font-size="11.733" font-family="Helvetica"><tspan y="0" x="0">x</tspan></text>
<text fill="#323232" xml:space="preserve" transform="matrix(.75 0 0 .75 246.75 244.5)" font-size="14.667" font-family="Helvetica"><tspan y="0" x="0">F</tspan></text>
<text fill="#323232" xml:space="preserve" transform="matrix(.75 0 0 .75 253.5 249.75)" font-size="11.733" font-family="Helvetica"><tspan y="0" x="0 6.5235488 10.430637">3-x</tspan></text>
<path transform="matrix(.75,0,0,.75,0,0)" stroke-width=".666667" stroke-linecap="square" stroke-linejoin="round" fill="none" stroke="#323232" d="M 75 287 L 75 24.99999 "/>
<path transform="matrix(.75,0,0,.75,0,0)" stroke-width=".666667" stroke-linecap="square" stroke-linejoin="round" fill="none" stroke="#323232" d="M 521 287 L 521 24.99999 "/>
<path transform="matrix(.75,0,0,.75,0,0)" stroke-width=".666667" stroke-linecap="square" stroke-linejoin="round" fill="none" stroke="#323232" d="M 75 287 L 79.46 287 "/>
<path transform="matrix(.75,0,0,.75,0,0)" stroke-width=".666667" stroke-linecap="square" stroke-linejoin="round" fill="none" stroke="#323232" d="M 75 243.33333 L 79.46 243.33333 "/>
<path transform="matrix(.75,0,0,.75,0,0)" stroke-width=".666667" stroke-linecap="square" stroke-linejoin="round" fill="none" stroke="#323232" d="M 75 199.66667 L 79.46 199.66667 "/>
<path transform="matrix(.75,0,0,.75,0,0)" stroke-width=".666667" stroke-linecap="square" stroke-linejoin="round" fill="none" stroke="#323232" d="M 75 156 L 79.46 156 "/>
<path transform="matrix(.75,0,0,.75,0,0)" stroke-width=".666667" stroke-linecap="square" stroke-linejoin="round" fill="none" stroke="#323232" d="M 75 112.33333 L 79.46 112.33333 "/>
<path transform="matrix(.75,0,0,.75,0,0)" stroke-width=".666667" stroke-linecap="square" stroke-linejoin="round" fill="none" stroke="#323232" d="M 75 68.666667 L 79.46 68.666667 "/>
<path transform="matrix(.75,0,0,.75,0,0)" stroke-width=".666667" stroke-linecap="square" stroke-linejoin="round" fill="none" stroke="#323232" d="M 75 24.99999 L 79.46 24.99999 "/>
<path transform="matrix(.75,0,0,.75,0,0)" stroke-width=".666667" stroke-linecap="square" stroke-linejoin="round" fill="none" stroke="#323232" d="M 521 287 L 516.54 287 "/>
<path transform="matrix(.75,0,0,.75,0,0)" stroke-width=".666667" stroke-linecap="square" stroke-linejoin="round" fill="none" stroke="#323232" d="M 521 243.33333 L 516.54 243.33333 "/>
<path transform="matrix(.75,0,0,.75,0,0)" stroke-width=".666667" stroke-linecap="square" stroke-linejoin="round" fill="none" stroke="#323232" d="M 521 199.66667 L 516.54 199.66667 "/>
<path transform="matrix(.75,0,0,.75,0,0)" stroke-width=".666667" stroke-linecap="square" stroke-linejoin="round" fill="none" stroke="#323232" d="M 521 156 L 516.54 156 "/>
<path transform="matrix(.75,0,0,.75,0,0)" stroke-width=".666667" stroke-linecap="square" stroke-linejoin="round" fill="none" stroke="#323232" d="M 521 112.33333 L 516.54 112.33333 "/>
<path transform="matrix(.75,0,0,.75,0,0)" stroke-width=".666667" stroke-linecap="square" stroke-linejoin="round" fill="none" stroke="#323232" d="M 521 68.666667 L 516.54 68.666667 "/>
<path transform="matrix(.75,0,0,.75,0,0)" stroke-width=".666667" stroke-linecap="square" stroke-linejoin="round" fill="none" stroke="#323232" d="M 521 24.99999 L 516.54 24.99999 "/>
<text fill="#323232" xml:space="preserve" transform="matrix(.75 0 0 .75 52.249998 215.25)" font-size="13.333" font-family="Helvetica"><tspan y="5.5" x="-8">0</tspan></text>
<text fill="#323232" xml:space="preserve" transform="matrix(.75 0 0 .75 52.249998 182.5)" font-size="13.333" font-family="Helvetica"><tspan y="5.5" x="-26 -18.586852 -14.880277 -7.467128">0.05</tspan></text>
<text fill="#323232" xml:space="preserve" transform="matrix(.75 0 0 .75 52.249998 149.75)" font-size="13.333" font-family="Helvetica"><tspan y="5.5" x="-19 -11.586851 -7.8802769">0.1</tspan></text>
<text fill="#323232" xml:space="preserve" transform="matrix(.75 0 0 .75 52.249998 117)" font-size="13.333" font-family="Helvetica"><tspan y="5.5" x="-26 -18.586852 -14.880277 -7.467128">0.15</tspan></text>
<text fill="#323232" xml:space="preserve" transform="matrix(.75 0 0 .75 52.249998 84.24999)" font-size="13.333" font-family="Helvetica"><tspan y="5.5" x="-19 -11.586851 -7.8802769">0.2</tspan></text>
<text fill="#323232" xml:space="preserve" transform="matrix(.75 0 0 .75 52.249998 51.499998)" font-size="13.333" font-family="Helvetica"><tspan y="5.5" x="-26 -18.586852 -14.880277 -7.467128">0.25</tspan></text>
<text fill="#323232" xml:space="preserve" transform="matrix(.75 0 0 .75 52.249998 18.749993)" font-size="13.333" font-family="Helvetica"><tspan y="5.5" x="-19 -11.586851 -7.8802769">0.3</tspan></text>
<text fill="#323232" xml:space="preserve" transform="matrix(-.0000000325 -.75 .75 -.0000000325 29.75 116.99989)" font-size="14.667" font-family="Helvetica"><tspan y="-4" x="-92 -83.03846 -74.883609 -69.9995 -57.781885 -49.62703 -45.549604 -42.29353 -34.138677 -25.983822 -21.906395 -13.751542 -5.596689 2.5581637 7.4422748 15.597128 22.930628 27.008055 35.162908 39.240335 47.395189 59.6128 63.690229 68.57434 76.729198 86.512088">Formation energy/atom (eV)</tspan></text>
<path transform="matrix(.75,0,0,.75,0,0)" stroke-width=".666667" stroke-linecap="butt" stroke-linejoin="round" fill="none" stroke="#000000" d="M 75 287 L 102.875 287 L 158.625 287 L 214.375 287 L 521 287 "/>
<path transform="matrix(.75,0,0,.75,56.25,215.25)" stroke-width=".666667" stroke-linecap="butt" stroke-miterlimit="10" stroke-linejoin="miter" fill="none" stroke="#3366cc" d="M -2.8284274 -2.8284274 L 2.8284274 2.8284274 M -2.8284274 2.8284274 L 2.8284274 -2.8284274 "/>
<path transform="matrix(.75,0,0,.75,98.0625,201.25662)" stroke-width=".666667" stroke-linecap="butt" stroke-miterlimit="10" stroke-linejoin="miter" fill="none" stroke="#3366cc" d="M -2.8284274 -2.8284274 L 2.8284274 2.8284274 M -2.8284274 2.8284274 L 2.8284274 -2.8284274 "/>
<path transform="matrix(.75,0,0,.75,139.875,191.3958)" stroke-width=".666667" stroke-linecap="butt" stroke-miterlimit="10" stroke-linejoin="miter" fill="none" stroke="#3366cc" d="M -2.8284274 -2.8284274 L 2.8284274 2.8284274 M -2.8284274 2.8284274 L 2.8284274 -2.8284274 "/>
<path transform="matrix(.75,0,0,.75,181.6875,186.39408)" stroke-width=".666667" stroke-linecap="butt" stroke-miterlimit="10" stroke-linejoin="miter" fill="none" stroke="#3366cc" d="M -2.8284274 -2.8284274 L 2.8284274 2.8284274 M -2.8284274 2.8284274 L 2.8284274 -2.8284274 "/>
<path transform="matrix(.75,0,0,.75,223.5,186.38106)" stroke-width=".666667" stroke-linecap="butt" stroke-miterlimit="10" stroke-linejoin="miter" fill="none" stroke="#3366cc" d="M -2.8284274 -2.8284274 L 2.8284274 2.8284274 M -2.8284274 2.8284274 L 2.8284274 -2.8284274 "/>
<path transform="matrix(.75,0,0,.75,265.3125,188.24219)" stroke-width=".666667" stroke-linecap="butt" stroke-miterlimit="10" stroke-linejoin="miter" fill="none" stroke="#3366cc" d="M -2.8284274 -2.8284274 L 2.8284274 2.8284274 M -2.8284274 2.8284274 L 2.8284274 -2.8284274 "/>
<path transform="matrix(.75,0,0,.75,307.125,175.10791)" stroke-width=".666667" stroke-linecap="butt" stroke-miterlimit="10" stroke-linejoin="miter" fill="none" stroke="#3366cc" d="M -2.8284274 -2.8284274 L 2.8284274 2.8284274 M -2.8284274 2.8284274 L 2.8284274 -2.8284274 "/>
<path transform="matrix(.75,0,0,.75,348.9375,173.32233)" stroke-width=".666667" stroke-linecap="butt" stroke-miterlimit="10" stroke-linejoin="miter" fill="none" stroke="#3366cc" d="M -2.8284274 -2.8284274 L 2.8284274 2.8284274 M -2.8284274 2.8284274 L 2.8284274 -2.8284274 "/>
<path transform="matrix(.75,0,0,.75,390.75,200.45299)" stroke-width=".666667" stroke-linecap="butt" stroke-miterlimit="10" stroke-linejoin="miter" fill="none" stroke="#3366cc" d="M -2.8284274 -2.8284274 L 2.8284274 2.8284274 M -2.8284274 2.8284274 L 2.8284274 -2.8284274 "/>
<path transform="matrix(.75,0,0,.75,56.25,215.25)" stroke-width=".666667" stroke-linecap="butt" stroke-miterlimit="10" stroke-linejoin="miter" fill="none" stroke="#3366cc" d="M -2.8284274 -2.8284274 L 2.8284274 2.8284274 M -2.8284274 2.8284274 L 2.8284274 -2.8284274 "/>
<path transform="matrix(.75,0,0,.75,98.0625,196.45864)" stroke-width=".666667" stroke-linecap="butt" stroke-miterlimit="10" stroke-linejoin="miter" fill="none" stroke="#3366cc" d="M -2.8284274 -2.8284274 L 2.8284274 2.8284274 M -2.8284274 2.8284274 L 2.8284274 -2.8284274 "/>
<path transform="matrix(.75,0,0,.75,139.875,191.74808)" stroke-width=".666667" stroke-linecap="butt" stroke-miterlimit="10" stroke-linejoin="miter" fill="none" stroke="#3366cc" d="M -2.8284274 -2.8284274 L 2.8284274 2.8284274 M -2.8284274 2.8284274 L 2.8284274 -2.8284274 "/>
<path transform="matrix(.75,0,0,.75,181.6875,188.64716)" stroke-width=".666667" stroke-linecap="butt" stroke-miterlimit="10" stroke-linejoin="miter" fill="none" stroke="#3366cc" d="M -2.8284274 -2.8284274 L 2.8284274 2.8284274 M -2.8284274 2.8284274 L 2.8284274 -2.8284274 "/>
<path transform="matrix(.75,0,0,.75,223.5,178.69217)" stroke-width=".666667" stroke-linecap="butt" stroke-miterlimit="10" stroke-linejoin="miter" fill="none" stroke="#3366cc" d="M -2.8284274 -2.8284274 L 2.8284274 2.8284274 M -2.8284274 2.8284274 L 2.8284274 -2.8284274 "/>
<path transform="matrix(.75,0,0,.75,56.25,215.25)" stroke-width=".666667" stroke-linecap="butt" stroke-miterlimit="10" stroke-linejoin="miter" fill="none" stroke="#3366cc" d="M -2.8284274 -2.8284274 L 2.8284274 2.8284274 M -2.8284274 2.8284274 L 2.8284274 -2.8284274 "/>
<path transform="matrix(.75,0,0,.75,98.0625,200.13204)" stroke-width=".666667" stroke-linecap="butt" stroke-miterlimit="10" stroke-linejoin="miter" fill="none" stroke="#3366cc" d="M -2.8284274 -2.8284274 L 2.8284274 2.8284274 M -2.8284274 2.8284274 L 2.8284274 -2.8284274 "/>
<path transform="matrix(.75,0,0,.75,139.875,189.38834)" stroke-width=".666667" stroke-linecap="butt" stroke-miterlimit="10" stroke-linejoin="miter" fill="none" stroke="#3366cc" d="M -2.8284274 -2.8284274 L 2.8284274 2.8284274 M -2.8284274 2.8284274 L 2.8284274 -2.8284274 "/>
<path transform="matrix(.75,0,0,.75,181.6875,180.64713)" stroke-width=".666667" stroke-linecap="butt" stroke-miterlimit="10" stroke-linejoin="miter" fill="none" stroke="#3366cc" d="M -2.8284274 -2.8284274 L 2.8284274 2.8284274 M -2.8284274 2.8284274 L 2.8284274 -2.8284274 "/>
<path transform="matrix(.75,0,0,.75,223.5,200.437)" stroke-width=".666667" stroke-linecap="butt" stroke-miterlimit="10" stroke-linejoin="miter" fill="none" stroke="#3366cc" d="M -2.8284274 -2.8284274 L 2.8284274 2.8284274 M -2.8284274 2.8284274 L 2.8284274 -2.8284274 "/>
<path transform="matrix(.75,0,0,.75,56.25,215.25)" stroke-width=".666667" stroke-linecap="butt" stroke-miterlimit="10" stroke-linejoin="miter" fill="none" stroke="#3366cc" d="M -2.8284274 -2.8284274 L 2.8284274 2.8284274 M -2.8284274 2.8284274 L 2.8284274 -2.8284274 "/>
<path transform="matrix(.75,0,0,.75,98.0625,200.54352)" stroke-width=".666667" stroke-linecap="butt" stroke-miterlimit="10" stroke-linejoin="miter" fill="none" stroke="#3366cc" d="M -2.8284274 -2.8284274 L 2.8284274 2.8284274 M -2.8284274 2.8284274 L 2.8284274 -2.8284274 "/>
<path transform="matrix(.75,0,0,.75,139.875,189.36682)" stroke-width=".666667" stroke-linecap="butt" stroke-miterlimit="10" stroke-linejoin="miter" fill="none" stroke="#3366cc" d="M -2.8284274 -2.8284274 L 2.8284274 2.8284274 M -2.8284274 2.8284274 L 2.8284274 -2.8284274 "/>
<path transform="matrix(.75,0,0,.75,181.6875,181.34334)" stroke-width=".666667" stroke-linecap="butt" stroke-miterlimit="10" stroke-linejoin="miter" fill="none" stroke="#3366cc" d="M -2.8284274 -2.8284274 L 2.8284274 2.8284274 M -2.8284274 2.8284274 L 2.8284274 -2.8284274 "/>
<path transform="matrix(.75,0,0,.75,223.5,193.28638)" stroke-width=".666667" stroke-linecap="butt" stroke-miterlimit="10" stroke-linejoin="miter" fill="none" stroke="#3366cc" d="M -2.8284274 -2.8284274 L 2.8284274 2.8284274 M -2.8284274 2.8284274 L 2.8284274 -2.8284274 "/>
<path transform="matrix(.75,0,0,.75,56.25,215.25)" stroke-width=".666667" stroke-linecap="butt" stroke-miterlimit="10" stroke-linejoin="miter" fill="none" stroke="#3366cc" d="M -2.8284274 -2.8284274 L 2.8284274 2.8284274 M -2.8284274 2.8284274 L 2.8284274 -2.8284274 "/>
<path transform="matrix(.75,0,0,.75,98.0625,201.24596)" stroke-width=".666667" stroke-linecap="butt" stroke-miterlimit="10" stroke-linejoin="miter" fill="none" stroke="#3366cc" d="M -2.8284274 -2.8284274 L 2.8284274 2.8284274 M -2.8284274 2.8284274 L 2.8284274 -2.8284274 "/>
<path transform="matrix(.75,0,0,.75,139.875,192.58145)" stroke-width=".666667" stroke-linecap="butt" stroke-miterlimit="10" stroke-linejoin="miter" fill="none" stroke="#3366cc" d="M -2.8284274 -2.8284274 L 2.8284274 2.8284274 M -2.8284274 2.8284274 L 2.8284274 -2.8284274 "/>
<path transform="matrix(.75,0,0,.75,181.6875,181.95735)" stroke-width=".666667" stroke-linecap="butt" stroke-miterlimit="10" stroke-linejoin="miter" fill="none" stroke="#3366cc" d="M -2.8284274 -2.8284274 L 2.8284274 2.8284274 M -2.8284274 2.8284274 L 2.8284274 -2.8284274 "/>
<path transform="matrix(.75,0,0,.75,223.5,172.17597)" stroke-width=".666667" stroke-linecap="butt" stroke-miterlimit="10" stroke-linejoin="miter" fill="none" stroke="#3366cc" d="M -2.8284274 -2.8284274 L 2.8284274 2.8284274 M -2.8284274 2.8284274 L 2.8284274 -2.8284274 "/>
<path transform="matrix(.75,0,0,.75,56.25,215.25)" stroke-width=".666667" stroke-linecap="butt" stroke-miterlimit="10" stroke-linejoin="miter" fill="none" stroke="#3366cc" d="M -2.8284274 -2.8284274 L 2.8284274 2.8284274 M -2.8284274 2.8284274 L 2.8284274 -2.8284274 "/>
<path transform="matrix(.75,0,0,.75,98.0625,196.37899)" stroke-width=".666667" stroke-linecap="butt" stroke-miterlimit="10" stroke-linejoin="miter" fill="none" stroke="#3366cc" d="M -2.8284274 -2.8284274 L 2.8284274 2.8284274 M -2.8284274 2.8284274 L 2.8284274 -2.8284274 "/>
<path transform="matrix(.75,0,0,.75,139.875,185.43618)" stroke-width=".666667" stroke-linecap="butt" stroke-miterlimit="10" stroke-linejoin="miter" fill="none" stroke="#3366cc" d="M -2.8284274 -2.8284274 L 2.8284274 2.8284274 M -2.8284274 2.8284274 L 2.8284274 -2.8284274 "/>
<path transform="matrix(.75,0,0,.75,181.6875,178.26903)" stroke-width=".666667" stroke-linecap="butt" stroke-miterlimit="10" stroke-linejoin="miter" fill="none" stroke="#3366cc" d="M -2.8284274 -2.8284274 L 2.8284274 2.8284274 M -2.8284274 2.8284274 L 2.8284274 -2.8284274 "/>
<path transform="matrix(.75,0,0,.75,223.5,181.03684)" stroke-width=".666667" stroke-linecap="butt" stroke-miterlimit="10" stroke-linejoin="miter" fill="none" stroke="#3366cc" d="M -2.8284274 -2.8284274 L 2.8284274 2.8284274 M -2.8284274 2.8284274 L 2.8284274 -2.8284274 "/>
<path transform="matrix(.75,0,0,.75,56.25,215.25)" stroke-width=".666667" stroke-linecap="butt" stroke-miterlimit="10" stroke-linejoin="miter" fill="none" stroke="#3366cc" d="M -2.8284274 -2.8284274 L 2.8284274 2.8284274 M -2.8284274 2.8284274 L 2.8284274 -2.8284274 "/>
<path transform="matrix(.75,0,0,.75,98.0625,199.12967)" stroke-width=".666667" stroke-linecap="butt" stroke-miterlimit="10" stroke-linejoin="miter" fill="none" stroke="#3366cc" d="M -2.8284274 -2.8284274 L 2.8284274 2.8284274 M -2.8284274 2.8284274 L 2.8284274 -2.8284274 "/>
<path transform="matrix(.75,0,0,.75,139.875,191.6376)" stroke-width=".666667" stroke-linecap="butt" stroke-miterlimit="10" stroke-linejoin="miter" fill="none" stroke="#3366cc" d="M -2.8284274 -2.8284274 L 2.8284274 2.8284274 M -2.8284274 2.8284274 L 2.8284274 -2.8284274 "/>
<path transform="matrix(.75,0,0,.75,181.6875,181.95735)" stroke-width=".666667" stroke-linecap="butt" stroke-miterlimit="10" stroke-linejoin="miter" fill="none" stroke="#3366cc" d="M -2.8284274 -2.8284274 L 2.8284274 2.8284274 M -2.8284274 2.8284274 L 2.8284274 -2.8284274 "/>
<path transform="matrix(.75,0,0,.75,223.5,173.65944)" stroke-width=".666667" stroke-linecap="butt" stroke-miterlimit="10" stroke-linejoin="miter" fill="none" stroke="#3366cc" d="M -2.8284274 -2.8284274 L 2.8284274 2.8284274 M -2.8284274 2.8284274 L 2.8284274 -2.8284274 "/>
<path transform="matrix(.75,0,0,.75,56.25,215.25)" stroke-width=".666667" stroke-linecap="butt" stroke-miterlimit="10" stroke-linejoin="miter" fill="none" stroke="#3366cc" d="M -2.8284274 -2.8284274 L 2.8284274 2.8284274 M -2.8284274 2.8284274 L 2.8284274 -2.8284274 "/>
<path transform="matrix(.75,0,0,.75,98.0625,200.4887)" stroke-width=".666667" stroke-linecap="butt" stroke-miterlimit="10" stroke-linejoin="miter" fill="none" stroke="#3366cc" d="M -2.8284274 -2.8284274 L 2.8284274 2.8284274 M -2.8284274 2.8284274 L 2.8284274 -2.8284274 "/>
<path transform="matrix(.75,0,0,.75,139.875,185.91945)" stroke-width=".666667" stroke-linecap="butt" stroke-miterlimit="10" stroke-linejoin="miter" fill="none" stroke="#3366cc" d="M -2.8284274 -2.8284274 L 2.8284274 2.8284274 M -2.8284274 2.8284274 L 2.8284274 -2.8284274 "/>
<path transform="matrix(.75,0,0,.75,181.6875,181.4618)" stroke-width=".666667" stroke-linecap="butt" stroke-miterlimit="10" stroke-linejoin="miter" fill="none" stroke="#3366cc" d="M -2.8284274 -2.8284274 L 2.8284274 2.8284274 M -2.8284274 2.8284274 L 2.8284274 -2.8284274 "/>
<path transform="matrix(.75,0,0,.75,223.5,169.77504)" stroke-width=".666667" stroke-linecap="butt" stroke-miterlimit="10" stroke-linejoin="miter" fill="none" stroke="#3366cc" d="M -2.8284274 -2.8284274 L 2.8284274 2.8284274 M -2.8284274 2.8284274 L 2.8284274 -2.8284274 "/>
<path transform="matrix(.75,0,0,.75,56.25,215.25)" stroke-width=".666667" stroke-linecap="butt" stroke-miterlimit="10" stroke-linejoin="miter" fill="none" stroke="#3366cc" d="M -2.8284274 -2.8284274 L 2.8284274 2.8284274 M -2.8284274 2.8284274 L 2.8284274 -2.8284274 "/>
<path transform="matrix(.75,0,0,.75,98.0625,199.41501)" stroke-width=".666667" stroke-linecap="butt" stroke-miterlimit="10" stroke-linejoin="miter" fill="none" stroke="#3366cc" d="M -2.8284274 -2.8284274 L 2.8284274 2.8284274 M -2.8284274 2.8284274 L 2.8284274 -2.8284274 "/>
<path transform="matrix(.75,0,0,.75,139.875,194.10237)" stroke-width=".666667" stroke-linecap="butt" stroke-miterlimit="10" stroke-linejoin="miter" fill="none" stroke="#3366cc" d="M -2.8284274 -2.8284274 L 2.8284274 2.8284274 M -2.8284274 2.8284274 L 2.8284274 -2.8284274 "/>
<path transform="matrix(.75,0,0,.75,181.6875,176.32559)" stroke-width=".666667" stroke-linecap="butt" stroke-miterlimit="10" stroke-linejoin="miter" fill="none" stroke="#3366cc" d="M -2.8284274 -2.8284274 L 2.8284274 2.8284274 M -2.8284274 2.8284274 L 2.8284274 -2.8284274 "/>
<path transform="matrix(.75,0,0,.75,223.5,193.51599)" stroke-width=".666667" stroke-linecap="butt" stroke-miterlimit="10" stroke-linejoin="miter" fill="none" stroke="#3366cc" d="M -2.8284274 -2.8284274 L 2.8284274 2.8284274 M -2.8284274 2.8284274 L 2.8284274 -2.8284274 "/>
<path transform="matrix(.75,0,0,.75,56.25,215.25)" stroke-width=".666667" stroke-linecap="butt" stroke-miterlimit="10" stroke-linejoin="miter" fill="none" stroke="#3366cc" d="M -2.8284274 -2.8284274 L 2.8284274 2.8284274 M -2.8284274 2.8284274 L 2.8284274 -2.8284274 "/>
<path transform="matrix(.75,0,0,.75,98.0625,202.1169)" stroke-width=".666667" stroke-linecap="butt" stroke-miterlimit="10" stroke-linejoin="miter" fill="none" stroke="#3366cc" d="M -2.8284274 -2.8284274 L 2.8284274 2.8284274 M -2.8284274 2.8284274 L 2.8284274 -2.8284274 "/>
<path transform="matrix(.75,0,0,.75,139.875,182.14447)" stroke-width=".666667" stroke-linecap="butt" stroke-miterlimit="10" stroke-linejoin="miter" fill="none" stroke="#3366cc" d="M -2.8284274 -2.8284274 L 2.8284274 2.8284274 M -2.8284274 2.8284274 L 2.8284274 -2.8284274 "/>
<path transform="matrix(.75,0,0,.75,181.6875,177.08708)" stroke-width=".666667" stroke-linecap="butt" stroke-miterlimit="10" stroke-linejoin="miter" fill="none" stroke="#3366cc" d="M -2.8284274 -2.8284274 L 2.8284274 2.8284274 M -2.8284274 2.8284274 L 2.8284274 -2.8284274 "/>
<path transform="matrix(.75,0,0,.75,223.5,170.9703)" stroke-width=".666667" stroke-linecap="butt" stroke-miterlimit="10" stroke-linejoin="miter" fill="none" stroke="#3366cc" d="M -2.8284274 -2.8284274 L 2.8284274 2.8284274 M -2.8284274 2.8284274 L 2.8284274 -2.8284274 "/>
<path transform="matrix(.75,0,0,.75,56.25,37.990415)" stroke-width=".666667" stroke-linecap="butt" stroke-miterlimit="10" stroke-linejoin="miter" fill="none" stroke="#dc3912" d="M -2.8284274 -2.8284274 L 2.8284274 2.8284274 M -2.8284274 2.8284274 L 2.8284274 -2.8284274 "/>
<path transform="matrix(.75,0,0,.75,139.875,187.21636)" stroke-width=".666667" stroke-linecap="butt" stroke-miterlimit="10" stroke-linejoin="miter" fill="none" stroke="#dc3912" d="M -2.8284274 -2.8284274 L 2.8284274 2.8284274 M -2.8284274 2.8284274 L 2.8284274 -2.8284274 "/>
<path transform="matrix(.75,0,0,.75,181.6875,191.26784)" stroke-width=".666667" stroke-linecap="butt" stroke-miterlimit="10" stroke-linejoin="miter" fill="none" stroke="#dc3912" d="M -2.8284274 -2.8284274 L 2.8284274 2.8284274 M -2.8284274 2.8284274 L 2.8284274 -2.8284274 "/>
<path transform="matrix(.75,0,0,.75,223.5,195.87375)" stroke-width=".666667" stroke-linecap="butt" stroke-miterlimit="10" stroke-linejoin="miter" fill="none" stroke="#dc3912" d="M -2.8284274 -2.8284274 L 2.8284274 2.8284274 M -2.8284274 2.8284274 L 2.8284274 -2.8284274 "/>
<path transform="matrix(.75,0,0,.75,265.3125,192.58448)" stroke-width=".666667" stroke-linecap="butt" stroke-miterlimit="10" stroke-linejoin="miter" fill="none" stroke="#dc3912" d="M -2.8284274 -2.8284274 L 2.8284274 2.8284274 M -2.8284274 2.8284274 L 2.8284274 -2.8284274 "/>
<path transform="matrix(.75,0,0,.75,307.125,200.33336)" stroke-width=".666667" stroke-linecap="butt" stroke-miterlimit="10" stroke-linejoin="miter" fill="none" stroke="#dc3912" d="M -2.8284274 -2.8284274 L 2.8284274 2.8284274 M -2.8284274 2.8284274 L 2.8284274 -2.8284274 "/>
<path transform="matrix(.75,0,0,.75,348.9375,192.14989)" stroke-width=".666667" stroke-linecap="butt" stroke-miterlimit="10" stroke-linejoin="miter" fill="none" stroke="#dc3912" d="M -2.8284274 -2.8284274 L 2.8284274 2.8284274 M -2.8284274 2.8284274 L 2.8284274 -2.8284274 "/>
<path transform="matrix(.75,0,0,.75,390.75,215.25)" stroke-width=".666667" stroke-linecap="butt" stroke-miterlimit="10" stroke-linejoin="miter" fill="none" stroke="#dc3912" d="M -2.8284274 -2.8284274 L 2.8284274 2.8284274 M -2.8284274 2.8284274 L 2.8284274 -2.8284274 "/>
<path transform="matrix(.75,0,0,.75,56.25,37.990415)" stroke-width=".666667" stroke-linecap="butt" stroke-miterlimit="10" stroke-linejoin="miter" fill="none" stroke="#dc3912" d="M -2.8284274 -2.8284274 L 2.8284274 2.8284274 M -2.8284274 2.8284274 L 2.8284274 -2.8284274 "/>
<path transform="matrix(.75,0,0,.75,98.0625,152.36351)" stroke-width=".666667" stroke-linecap="butt" stroke-miterlimit="10" stroke-linejoin="miter" fill="none" stroke="#dc3912" d="M -2.8284274 -2.8284274 L 2.8284274 2.8284274 M -2.8284274 2.8284274 L 2.8284274 -2.8284274 "/>
<path transform="matrix(.75,0,0,.75,139.875,179.2329)" stroke-width=".666667" stroke-linecap="butt" stroke-miterlimit="10" stroke-linejoin="miter" fill="none" stroke="#dc3912" d="M -2.8284274 -2.8284274 L 2.8284274 2.8284274 M -2.8284274 2.8284274 L 2.8284274 -2.8284274 "/>
<path transform="matrix(.75,0,0,.75,181.6875,187.04299)" stroke-width=".666667" stroke-linecap="butt" stroke-miterlimit="10" stroke-linejoin="miter" fill="none" stroke="#dc3912" d="M -2.8284274 -2.8284274 L 2.8284274 2.8284274 M -2.8284274 2.8284274 L 2.8284274 -2.8284274 "/>
<path transform="matrix(.75,0,0,.75,223.5,197.64752)" stroke-width=".666667" stroke-linecap="butt" stroke-miterlimit="10" stroke-linejoin="miter" fill="none" stroke="#dc3912" d="M -2.8284274 -2.8284274 L 2.8284274 2.8284274 M -2.8284274 2.8284274 L 2.8284274 -2.8284274 "/>
<path transform="matrix(.75,0,0,.75,265.3125,196.63625)" stroke-width=".666667" stroke-linecap="butt" stroke-miterlimit="10" stroke-linejoin="miter" fill="none" stroke="#dc3912" d="M -2.8284274 -2.8284274 L 2.8284274 2.8284274 M -2.8284274 2.8284274 L 2.8284274 -2.8284274 "/>
<path transform="matrix(.75,0,0,.75,307.125,205.90665)" stroke-width=".666667" stroke-linecap="butt" stroke-miterlimit="10" stroke-linejoin="miter" fill="none" stroke="#dc3912" d="M -2.8284274 -2.8284274 L 2.8284274 2.8284274 M -2.8284274 2.8284274 L 2.8284274 -2.8284274 "/>
<path transform="matrix(.75,0,0,.75,348.9375,191.5963)" stroke-width=".666667" stroke-linecap="butt" stroke-miterlimit="10" stroke-linejoin="miter" fill="none" stroke="#dc3912" d="M -2.8284274 -2.8284274 L 2.8284274 2.8284274 M -2.8284274 2.8284274 L 2.8284274 -2.8284274 "/>
<path transform="matrix(.75,0,0,.75,56.25,37.990415)" stroke-width=".666667" stroke-linecap="butt" stroke-miterlimit="10" stroke-linejoin="miter" fill="none" stroke="#dc3912" d="M -2.8284274 -2.8284274 L 2.8284274 2.8284274 M -2.8284274 2.8284274 L 2.8284274 -2.8284274 "/>
<path transform="matrix(.75,0,0,.75,98.0625,160.57605)" stroke-width=".666667" stroke-linecap="butt" stroke-miterlimit="10" stroke-linejoin="miter" fill="none" stroke="#dc3912" d="M -2.8284274 -2.8284274 L 2.8284274 2.8284274 M -2.8284274 2.8284274 L 2.8284274 -2.8284274 "/>
<path transform="matrix(.75,0,0,.75,139.875,173.83612)" stroke-width=".666667" stroke-linecap="butt" stroke-miterlimit="10" stroke-linejoin="miter" fill="none" stroke="#dc3912" d="M -2.8284274 -2.8284274 L 2.8284274 2.8284274 M -2.8284274 2.8284274 L 2.8284274 -2.8284274 "/>
<path transform="matrix(.75,0,0,.75,181.6875,172.552)" stroke-width=".666667" stroke-linecap="butt" stroke-miterlimit="10" stroke-linejoin="miter" fill="none" stroke="#dc3912" d="M -2.8284274 -2.8284274 L 2.8284274 2.8284274 M -2.8284274 2.8284274 L 2.8284274 -2.8284274 "/>
<path transform="matrix(.75,0,0,.75,223.5,193.63973)" stroke-width=".666667" stroke-linecap="butt" stroke-miterlimit="10" stroke-linejoin="miter" fill="none" stroke="#dc3912" d="M -2.8284274 -2.8284274 L 2.8284274 2.8284274 M -2.8284274 2.8284274 L 2.8284274 -2.8284274 "/>
<path transform="matrix(.75,0,0,.75,265.3125,177.09032)" stroke-width=".666667" stroke-linecap="butt" stroke-miterlimit="10" stroke-linejoin="miter" fill="none" stroke="#dc3912" d="M -2.8284274 -2.8284274 L 2.8284274 2.8284274 M -2.8284274 2.8284274 L 2.8284274 -2.8284274 "/>
<path transform="matrix(.75,0,0,.75,307.125,197.74132)" stroke-width=".666667" stroke-linecap="butt" stroke-miterlimit="10" stroke-linejoin="miter" fill="none" stroke="#dc3912" d="M -2.8284274 -2.8284274 L 2.8284274 2.8284274 M -2.8284274 2.8284274 L 2.8284274 -2.8284274 "/>
<path transform="matrix(.75,0,0,.75,348.9375,189.82282)" stroke-width=".666667" stroke-linecap="butt" stroke-miterlimit="10" stroke-linejoin="miter" fill="none" stroke="#dc3912" d="M -2.8284274 -2.8284274 L 2.8284274 2.8284274 M -2.8284274 2.8284274 L 2.8284274 -2.8284274 "/>
<path transform="matrix(.75,0,0,.75,56.25,37.990415)" stroke-width=".666667" stroke-linecap="butt" stroke-miterlimit="10" stroke-linejoin="miter" fill="none" stroke="#dc3912" d="M -2.8284274 -2.8284274 L 2.8284274 2.8284274 M -2.8284274 2.8284274 L 2.8284274 -2.8284274 "/>
<path transform="matrix(.75,0,0,.75,98.0625,153.36661)" stroke-width=".666667" stroke-linecap="butt" stroke-miterlimit="10" stroke-linejoin="miter" fill="none" stroke="#dc3912" d="M -2.8284274 -2.8284274 L 2.8284274 2.8284274 M -2.8284274 2.8284274 L 2.8284274 -2.8284274 "/>
<path transform="matrix(.75,0,0,.75,139.875,180.11113)" stroke-width=".666667" stroke-linecap="butt" stroke-miterlimit="10" stroke-linejoin="miter" fill="none" stroke="#dc3912" d="M -2.8284274 -2.8284274 L 2.8284274 2.8284274 M -2.8284274 2.8284274 L 2.8284274 -2.8284274 "/>
<path transform="matrix(.75,0,0,.75,181.6875,182.53116)" stroke-width=".666667" stroke-linecap="butt" stroke-miterlimit="10" stroke-linejoin="miter" fill="none" stroke="#dc3912" d="M -2.8284274 -2.8284274 L 2.8284274 2.8284274 M -2.8284274 2.8284274 L 2.8284274 -2.8284274 "/>
<path transform="matrix(.75,0,0,.75,223.5,195.43489)" stroke-width=".666667" stroke-linecap="butt" stroke-miterlimit="10" stroke-linejoin="miter" fill="none" stroke="#dc3912" d="M -2.8284274 -2.8284274 L 2.8284274 2.8284274 M -2.8284274 2.8284274 L 2.8284274 -2.8284274 "/>
<path transform="matrix(.75,0,0,.75,265.3125,203.6063)" stroke-width=".666667" stroke-linecap="butt" stroke-miterlimit="10" stroke-linejoin="miter" fill="none" stroke="#dc3912" d="M -2.8284274 -2.8284274 L 2.8284274 2.8284274 M -2.8284274 2.8284274 L 2.8284274 -2.8284274 "/>
<path transform="matrix(.75,0,0,.75,307.125,197.22652)" stroke-width=".666667" stroke-linecap="butt" stroke-miterlimit="10" stroke-linejoin="miter" fill="none" stroke="#dc3912" d="M -2.8284274 -2.8284274 L 2.8284274 2.8284274 M -2.8284274 2.8284274 L 2.8284274 -2.8284274 "/>
<path transform="matrix(.75,0,0,.75,348.9375,186.8127)" stroke-width=".666667" stroke-linecap="butt" stroke-miterlimit="10" stroke-linejoin="miter" fill="none" stroke="#dc3912" d="M -2.8284274 -2.8284274 L 2.8284274 2.8284274 M -2.8284274 2.8284274 L 2.8284274 -2.8284274 "/>
<path transform="matrix(.75,0,0,.75,56.25,37.990415)" stroke-width=".666667" stroke-linecap="butt" stroke-miterlimit="10" stroke-linejoin="miter" fill="none" stroke="#dc3912" d="M -2.8284274 -2.8284274 L 2.8284274 2.8284274 M -2.8284274 2.8284274 L 2.8284274 -2.8284274 "/>
<path transform="matrix(.75,0,0,.75,98.0625,152.35982)" stroke-width=".666667" stroke-linecap="butt" stroke-miterlimit="10" stroke-linejoin="miter" fill="none" stroke="#dc3912" d="M -2.8284274 -2.8284274 L 2.8284274 2.8284274 M -2.8284274 2.8284274 L 2.8284274 -2.8284274 "/>
<path transform="matrix(.75,0,0,.75,139.875,160.03397)" stroke-width=".666667" stroke-linecap="butt" stroke-miterlimit="10" stroke-linejoin="miter" fill="none" stroke="#dc3912" d="M -2.8284274 -2.8284274 L 2.8284274 2.8284274 M -2.8284274 2.8284274 L 2.8284274 -2.8284274 "/>
<path transform="matrix(.75,0,0,.75,181.6875,180.98186)" stroke-width=".666667" stroke-linecap="butt" stroke-miterlimit="10" stroke-linejoin="miter" fill="none" stroke="#dc3912" d="M -2.8284274 -2.8284274 L 2.8284274 2.8284274 M -2.8284274 2.8284274 L 2.8284274 -2.8284274 "/>
<path transform="matrix(.75,0,0,.75,223.5,190.62744)" stroke-width=".666667" stroke-linecap="butt" stroke-miterlimit="10" stroke-linejoin="miter" fill="none" stroke="#dc3912" d="M -2.8284274 -2.8284274 L 2.8284274 2.8284274 M -2.8284274 2.8284274 L 2.8284274 -2.8284274 "/>
<path transform="matrix(.75,0,0,.75,265.3125,204.08895)" stroke-width=".666667" stroke-linecap="butt" stroke-miterlimit="10" stroke-linejoin="miter" fill="none" stroke="#dc3912" d="M -2.8284274 -2.8284274 L 2.8284274 2.8284274 M -2.8284274 2.8284274 L 2.8284274 -2.8284274 "/>
<path transform="matrix(.75,0,0,.75,307.125,199.9532)" stroke-width=".666667" stroke-linecap="butt" stroke-miterlimit="10" stroke-linejoin="miter" fill="none" stroke="#dc3912" d="M -2.8284274 -2.8284274 L 2.8284274 2.8284274 M -2.8284274 2.8284274 L 2.8284274 -2.8284274 "/>
<path transform="matrix(.75,0,0,.75,348.9375,194.32778)" stroke-width=".666667" stroke-linecap="butt" stroke-miterlimit="10" stroke-linejoin="miter" fill="none" stroke="#dc3912" d="M -2.8284274 -2.8284274 L 2.8284274 2.8284274 M -2.8284274 2.8284274 L 2.8284274 -2.8284274 "/>
<path transform="matrix(.75,0,0,.75,56.25,37.990415)" stroke-width=".666667" stroke-linecap="butt" stroke-miterlimit="10" stroke-linejoin="miter" fill="none" stroke="#dc3912" d="M -2.8284274 -2.8284274 L 2.8284274 2.8284274 M -2.8284274 2.8284274 L 2.8284274 -2.8284274 "/>
<path transform="matrix(.75,0,0,.75,98.0625,155.42882)" stroke-width=".666667" stroke-linecap="butt" stroke-miterlimit="10" stroke-linejoin="miter" fill="none" stroke="#dc3912" d="M -2.8284274 -2.8284274 L 2.8284274 2.8284274 M -2.8284274 2.8284274 L 2.8284274 -2.8284274 "/>
<path transform="matrix(.75,0,0,.75,139.875,165.30236)" stroke-width=".666667" stroke-linecap="butt" stroke-miterlimit="10" stroke-linejoin="miter" fill="none" stroke="#dc3912" d="M -2.8284274 -2.8284274 L 2.8284274 2.8284274 M -2.8284274 2.8284274 L 2.8284274 -2.8284274 "/>
<path transform="matrix(.75,0,0,.75,181.6875,187.6188)" stroke-width=".666667" stroke-linecap="butt" stroke-miterlimit="10" stroke-linejoin="miter" fill="none" stroke="#dc3912" d="M -2.8284274 -2.8284274 L 2.8284274 2.8284274 M -2.8284274 2.8284274 L 2.8284274 -2.8284274 "/>
<path transform="matrix(.75,0,0,.75,223.5,197.29921)" stroke-width=".666667" stroke-linecap="butt" stroke-miterlimit="10" stroke-linejoin="miter" fill="none" stroke="#dc3912" d="M -2.8284274 -2.8284274 L 2.8284274 2.8284274 M -2.8284274 2.8284274 L 2.8284274 -2.8284274 "/>
<path transform="matrix(.75,0,0,.75,265.3125,196.99806)" stroke-width=".666667" stroke-linecap="butt" stroke-miterlimit="10" stroke-linejoin="miter" fill="none" stroke="#dc3912" d="M -2.8284274 -2.8284274 L 2.8284274 2.8284274 M -2.8284274 2.8284274 L 2.8284274 -2.8284274 "/>
<path transform="matrix(.75,0,0,.75,307.125,191.51932)" stroke-width=".666667" stroke-linecap="butt" stroke-miterlimit="10" stroke-linejoin="miter" fill="none" stroke="#dc3912" d="M -2.8284274 -2.8284274 L 2.8284274 2.8284274 M -2.8284274 2.8284274 L 2.8284274 -2.8284274 "/>
<path transform="matrix(.75,0,0,.75,348.9375,182.56569)" stroke-width=".666667" stroke-linecap="butt" stroke-miterlimit="10" stroke-linejoin="miter" fill="none" stroke="#dc3912" d="M -2.8284274 -2.8284274 L 2.8284274 2.8284274 M -2.8284274 2.8284274 L 2.8284274 -2.8284274 "/>
<path transform="matrix(.75,0,0,.75,56.25,37.990415)" stroke-width=".666667" stroke-linecap="butt" stroke-miterlimit="10" stroke-linejoin="miter" fill="none" stroke="#dc3912" d="M -2.8284274 -2.8284274 L 2.8284274 2.8284274 M -2.8284274 2.8284274 L 2.8284274 -2.8284274 "/>
<path transform="matrix(.75,0,0,.75,98.0625,158.01554)" stroke-width=".666667" stroke-linecap="butt" stroke-miterlimit="10" stroke-linejoin="miter" fill="none" stroke="#dc3912" d="M -2.8284274 -2.8284274 L 2.8284274 2.8284274 M -2.8284274 2.8284274 L 2.8284274 -2.8284274 "/>
<path transform="matrix(.75,0,0,.75,139.875,172.94927)" stroke-width=".666667" stroke-linecap="butt" stroke-miterlimit="10" stroke-linejoin="miter" fill="none" stroke="#dc3912" d="M -2.8284274 -2.8284274 L 2.8284274 2.8284274 M -2.8284274 2.8284274 L 2.8284274 -2.8284274 "/>
<path transform="matrix(.75,0,0,.75,181.6875,186.54947)" stroke-width=".666667" stroke-linecap="butt" stroke-miterlimit="10" stroke-linejoin="miter" fill="none" stroke="#dc3912" d="M -2.8284274 -2.8284274 L 2.8284274 2.8284274 M -2.8284274 2.8284274 L 2.8284274 -2.8284274 "/>
<path transform="matrix(.75,0,0,.75,223.5,188.6822)" stroke-width=".666667" stroke-linecap="butt" stroke-miterlimit="10" stroke-linejoin="miter" fill="none" stroke="#dc3912" d="M -2.8284274 -2.8284274 L 2.8284274 2.8284274 M -2.8284274 2.8284274 L 2.8284274 -2.8284274 "/>
<path transform="matrix(.75,0,0,.75,265.3125,192.46694)" stroke-width=".666667" stroke-linecap="butt" stroke-miterlimit="10" stroke-linejoin="miter" fill="none" stroke="#dc3912" d="M -2.8284274 -2.8284274 L 2.8284274 2.8284274 M -2.8284274 2.8284274 L 2.8284274 -2.8284274 "/>
<path transform="matrix(.75,0,0,.75,307.125,204.32634)" stroke-width=".666667" stroke-linecap="butt" stroke-miterlimit="10" stroke-linejoin="miter" fill="none" stroke="#dc3912" d="M -2.8284274 -2.8284274 L 2.8284274 2.8284274 M -2.8284274 2.8284274 L 2.8284274 -2.8284274 "/>
<path transform="matrix(.75,0,0,.75,348.9375,189.66391)" stroke-width=".666667" stroke-linecap="butt" stroke-miterlimit="10" stroke-linejoin="miter" fill="none" stroke="#dc3912" d="M -2.8284274 -2.8284274 L 2.8284274 2.8284274 M -2.8284274 2.8284274 L 2.8284274 -2.8284274 "/>
<path transform="matrix(.75,0,0,.75,56.25,37.990415)" stroke-width=".666667" stroke-linecap="butt" stroke-miterlimit="10" stroke-linejoin="miter" fill="none" stroke="#dc3912" d="M -2.8284274 -2.8284274 L 2.8284274 2.8284274 M -2.8284274 2.8284274 L 2.8284274 -2.8284274 "/>
<path transform="matrix(.75,0,0,.75,98.0625,153.18987)" stroke-width=".666667" stroke-linecap="butt" stroke-miterlimit="10" stroke-linejoin="miter" fill="none" stroke="#dc3912" d="M -2.8284274 -2.8284274 L 2.8284274 2.8284274 M -2.8284274 2.8284274 L 2.8284274 -2.8284274 "/>
<path transform="matrix(.75,0,0,.75,139.875,176.2474)" stroke-width=".666667" stroke-linecap="butt" stroke-miterlimit="10" stroke-linejoin="miter" fill="none" stroke="#dc3912" d="M -2.8284274 -2.8284274 L 2.8284274 2.8284274 M -2.8284274 2.8284274 L 2.8284274 -2.8284274 "/>
<path transform="matrix(.75,0,0,.75,181.6875,192.08727)" stroke-width=".666667" stroke-linecap="butt" stroke-miterlimit="10" stroke-linejoin="miter" fill="none" stroke="#dc3912" d="M -2.8284274 -2.8284274 L 2.8284274 2.8284274 M -2.8284274 2.8284274 L 2.8284274 -2.8284274 "/>
<path transform="matrix(.75,0,0,.75,223.5,192.82357)" stroke-width=".666667" stroke-linecap="butt" stroke-miterlimit="10" stroke-linejoin="miter" fill="none" stroke="#dc3912" d="M -2.8284274 -2.8284274 L 2.8284274 2.8284274 M -2.8284274 2.8284274 L 2.8284274 -2.8284274 "/>
<path transform="matrix(.75,0,0,.75,265.3125,192.59272)" stroke-width=".666667" stroke-linecap="butt" stroke-miterlimit="10" stroke-linejoin="miter" fill="none" stroke="#dc3912" d="M -2.8284274 -2.8284274 L 2.8284274 2.8284274 M -2.8284274 2.8284274 L 2.8284274 -2.8284274 "/>
<path transform="matrix(.75,0,0,.75,307.125,191.28163)" stroke-width=".666667" stroke-linecap="butt" stroke-miterlimit="10" stroke-linejoin="miter" fill="none" stroke="#dc3912" d="M -2.8284274 -2.8284274 L 2.8284274 2.8284274 M -2.8284274 2.8284274 L 2.8284274 -2.8284274 "/>
<path transform="matrix(.75,0,0,.75,348.9375,182.58927)" stroke-width=".666667" stroke-linecap="butt" stroke-miterlimit="10" stroke-linejoin="miter" fill="none" stroke="#dc3912" d="M -2.8284274 -2.8284274 L 2.8284274 2.8284274 M -2.8284274 2.8284274 L 2.8284274 -2.8284274 "/>
<path transform="matrix(.75,0,0,.75,56.25,37.990415)" stroke-width=".666667" stroke-linecap="butt" stroke-miterlimit="10" stroke-linejoin="miter" fill="none" stroke="#dc3912" d="M -2.8284274 -2.8284274 L 2.8284274 2.8284274 M -2.8284274 2.8284274 L 2.8284274 -2.8284274 "/>
<path transform="matrix(.75,0,0,.75,98.0625,154.98406)" stroke-width=".666667" stroke-linecap="butt" stroke-miterlimit="10" stroke-linejoin="miter" fill="none" stroke="#dc3912" d="M -2.8284274 -2.8284274 L 2.8284274 2.8284274 M -2.8284274 2.8284274 L 2.8284274 -2.8284274 "/>
<path transform="matrix(.75,0,0,.75,139.875,178.65637)" stroke-width=".666667" stroke-linecap="butt" stroke-miterlimit="10" stroke-linejoin="miter" fill="none" stroke="#dc3912" d="M -2.8284274 -2.8284274 L 2.8284274 2.8284274 M -2.8284274 2.8284274 L 2.8284274 -2.8284274 "/>
<path transform="matrix(.75,0,0,.75,181.6875,190.05045)" stroke-width=".666667" stroke-linecap="butt" stroke-miterlimit="10" stroke-linejoin="miter" fill="none" stroke="#dc3912" d="M -2.8284274 -2.8284274 L 2.8284274 2.8284274 M -2.8284274 2.8284274 L 2.8284274 -2.8284274 "/>
<path transform="matrix(.75,0,0,.75,223.5,188.66864)" stroke-width=".666667" stroke-linecap="butt" stroke-miterlimit="10" stroke-linejoin="miter" fill="none" stroke="#dc3912" d="M -2.8284274 -2.8284274 L 2.8284274 2.8284274 M -2.8284274 2.8284274 L 2.8284274 -2.8284274 "/>
<path transform="matrix(.75,0,0,.75,265.3125,201.26126)" stroke-width=".666667" stroke-linecap="butt" stroke-miterlimit="10" stroke-linejoin="miter" fill="none" stroke="#dc3912" d="M -2.8284274 -2.8284274 L 2.8284274 2.8284274 M -2.8284274 2.8284274 L 2.8284274 -2.8284274 "/>
<path transform="matrix(.75,0,0,.75,307.125,192.93637)" stroke-width=".666667" stroke-linecap="butt" stroke-miterlimit="10" stroke-linejoin="miter" fill="none" stroke="#dc3912" d="M -2.8284274 -2.8284274 L 2.8284274 2.8284274 M -2.8284274 2.8284274 L 2.8284274 -2.8284274 "/>
<path transform="matrix(.75,0,0,.75,348.9375,186.55463)" stroke-width=".666667" stroke-linecap="butt" stroke-miterlimit="10" stroke-linejoin="miter" fill="none" stroke="#dc3912" d="M -2.8284274 -2.8284274 L 2.8284274 2.8284274 M -2.8284274 2.8284274 L 2.8284274 -2.8284274 "/>
<path transform="matrix(.75,0,0,.75,56.25,37.990415)" stroke-width=".666667" stroke-linecap="butt" stroke-miterlimit="10" stroke-linejoin="miter" fill="none" stroke="#dc3912" d="M -2.8284274 -2.8284274 L 2.8284274 2.8284274 M -2.8284274 2.8284274 L 2.8284274 -2.8284274 "/>
<path transform="matrix(.75,0,0,.75,98.0625,165.59484)" stroke-width=".666667" stroke-linecap="butt" stroke-miterlimit="10" stroke-linejoin="miter" fill="none" stroke="#dc3912" d="M -2.8284274 -2.8284274 L 2.8284274 2.8284274 M -2.8284274 2.8284274 L 2.8284274 -2.8284274 "/>
<path transform="matrix(.75,0,0,.75,139.875,188.01459)" stroke-width=".666667" stroke-linecap="butt" stroke-miterlimit="10" stroke-linejoin="miter" fill="none" stroke="#dc3912" d="M -2.8284274 -2.8284274 L 2.8284274 2.8284274 M -2.8284274 2.8284274 L 2.8284274 -2.8284274 "/>
<path transform="matrix(.75,0,0,.75,181.6875,185.12734)" stroke-width=".666667" stroke-linecap="butt" stroke-miterlimit="10" stroke-linejoin="miter" fill="none" stroke="#dc3912" d="M -2.8284274 -2.8284274 L 2.8284274 2.8284274 M -2.8284274 2.8284274 L 2.8284274 -2.8284274 "/>
<path transform="matrix(.75,0,0,.75,223.5,200.19545)" stroke-width=".666667" stroke-linecap="butt" stroke-miterlimit="10" stroke-linejoin="miter" fill="none" stroke="#dc3912" d="M -2.8284274 -2.8284274 L 2.8284274 2.8284274 M -2.8284274 2.8284274 L 2.8284274 -2.8284274 "/>
<path transform="matrix(.75,0,0,.75,265.3125,204.13953)" stroke-width=".666667" stroke-linecap="butt" stroke-miterlimit="10" stroke-linejoin="miter" fill="none" stroke="#dc3912" d="M -2.8284274 -2.8284274 L 2.8284274 2.8284274 M -2.8284274 2.8284274 L 2.8284274 -2.8284274 "/>
<path transform="matrix(.75,0,0,.75,307.125,189.99973)" stroke-width=".666667" stroke-linecap="butt" stroke-miterlimit="10" stroke-linejoin="miter" fill="none" stroke="#dc3912" d="M -2.8284274 -2.8284274 L 2.8284274 2.8284274 M -2.8284274 2.8284274 L 2.8284274 -2.8284274 "/>
<path transform="matrix(.75,0,0,.75,348.9375,197.78069)" stroke-width=".666667" stroke-linecap="butt" stroke-miterlimit="10" stroke-linejoin="miter" fill="none" stroke="#dc3912" d="M -2.8284274 -2.8284274 L 2.8284274 2.8284274 M -2.8284274 2.8284274 L 2.8284274 -2.8284274 "/>
<path transform="matrix(.75,0,0,.75,0,0)" d="M 510 72 L 510 36 L 425 36 L 425 72 Z " fill="#ffffff"/>
<text xml:space="preserve" transform="matrix(.75 0 0 .75 354 34.39726)" font-size="12" font-family="Helvetica"><tspan y="5" x="0 8.004001 14.676002 24.672">Pnma</tspan></text>
<path transform="matrix(.75,0,0,.75,336.75,34.39726)" stroke-width=".666667" stroke-linecap="butt" stroke-miterlimit="10" stroke-linejoin="miter" fill="none" stroke="#3366cc" d="M -2.8284274 -2.8284274 L 2.8284274 2.8284274 M -2.8284274 2.8284274 L 2.8284274 -2.8284274 "/>
<text xml:space="preserve" transform="matrix(.75 0 0 .75 354 46.602739)" font-size="12" font-family="Helvetica"><tspan y="5" x="0 7.332 17.328 24">Fm3m</tspan></text>
<path transform="matrix(.75,0,0,.75,336.75,46.602739)" stroke-width=".666667" stroke-linecap="butt" stroke-miterlimit="10" stroke-linejoin="miter" fill="none" stroke="#dc3912" d="M -2.8284274 -2.8284274 L 2.8284274 2.8284274 M -2.8284274 2.8284274 L 2.8284274 -2.8284274 "/>
<path transform="matrix(.75,0,0,.75,0,0)" stroke-width=".666667" stroke-linecap="butt" stroke-miterlimit="10" stroke-linejoin="miter" fill="none" stroke="#323232" d="M 425 72 L 425 36 L 510 36 L 510 72 Z "/>
</g>
</svg>
