<?xml version="1.0" encoding="utf-8"?>
<!-- Generator: Adobe Illustrator 23.0.1, SVG Export Plug-In . SVG Version: 6.00 Build 0)  -->
<svg version="1.1" id="Layer_1" xmlns="http://www.w3.org/2000/svg" xmlns:xlink="http://www.w3.org/1999/xlink" x="0px" y="0px"
	 viewBox="0 0 369 302" style="enable-background:new 0 0 369 302;" xml:space="preserve">
<rect x="-16" y="-16" style="fill:#FFFFFF;" width="420" height="315"/>
<rect x="-16" y="-16" style="fill:#FFFFFF;" width="420" height="315"/>
<rect x="38.8" y="7.3" style="fill:#FFFFFF;" width="325.5" height="256.5"/>
<line style="fill:none;stroke:#262626;stroke-width:0.5002;stroke-linecap:square;stroke-linejoin:round;stroke-miterlimit:10;" x1="38.8" y1="263.8" x2="364.3" y2="263.8"/>
<line style="fill:none;stroke:#262626;stroke-width:0.5002;stroke-linecap:square;stroke-linejoin:round;stroke-miterlimit:10;" x1="38.8" y1="7.3" x2="364.3" y2="7.3"/>
<line style="fill:none;stroke:#262626;stroke-width:0.5002;stroke-linecap:square;stroke-linejoin:round;stroke-miterlimit:10;" x1="38.8" y1="263.8" x2="38.8" y2="260.5"/>
<line style="fill:none;stroke:#262626;stroke-width:0.5002;stroke-linecap:square;stroke-linejoin:round;stroke-miterlimit:10;" x1="103.8" y1="263.8" x2="103.8" y2="260.5"/>
<line style="fill:none;stroke:#262626;stroke-width:0.5002;stroke-linecap:square;stroke-linejoin:round;stroke-miterlimit:10;" x1="168.9" y1="263.8" x2="168.9" y2="260.5"/>
<line style="fill:none;stroke:#262626;stroke-width:0.5002;stroke-linecap:square;stroke-linejoin:round;stroke-miterlimit:10;" x1="234.1" y1="263.8" x2="234.1" y2="260.5"/>
<line style="fill:none;stroke:#262626;stroke-width:0.5002;stroke-linecap:square;stroke-linejoin:round;stroke-miterlimit:10;" x1="299.1" y1="263.8" x2="299.1" y2="260.5"/>
<line style="fill:none;stroke:#262626;stroke-width:0.5002;stroke-linecap:square;stroke-linejoin:round;stroke-miterlimit:10;" x1="364.3" y1="263.8" x2="364.3" y2="260.5"/>
<line style="fill:none;stroke:#262626;stroke-width:0.5002;stroke-linecap:square;stroke-linejoin:round;stroke-miterlimit:10;" x1="38.8" y1="7.3" x2="38.8" y2="10.5"/>
<line style="fill:none;stroke:#262626;stroke-width:0.5002;stroke-linecap:square;stroke-linejoin:round;stroke-miterlimit:10;" x1="103.8" y1="7.3" x2="103.8" y2="10.5"/>
<line style="fill:none;stroke:#262626;stroke-width:0.5002;stroke-linecap:square;stroke-linejoin:round;stroke-miterlimit:10;" x1="168.9" y1="7.3" x2="168.9" y2="10.5"/>
<line style="fill:none;stroke:#262626;stroke-width:0.5002;stroke-linecap:square;stroke-linejoin:round;stroke-miterlimit:10;" x1="234.1" y1="7.3" x2="234.1" y2="10.5"/>
<line style="fill:none;stroke:#262626;stroke-width:0.5002;stroke-linecap:square;stroke-linejoin:round;stroke-miterlimit:10;" x1="299.1" y1="7.3" x2="299.1" y2="10.5"/>
<line style="fill:none;stroke:#262626;stroke-width:0.5002;stroke-linecap:square;stroke-linejoin:round;stroke-miterlimit:10;" x1="364.3" y1="7.3" x2="364.3" y2="10.5"/>
<text transform="matrix(1 0 0 1 31.625 278.25)"><tspan x="0" y="0" style="fill:#262626; font-family:'ArialMT'; font-size:9.9998px;">1.</tspan><tspan x="8.3" y="0" style="fill:#262626; font-family:'ArialMT'; font-size:9.9998px; letter-spacing:55;">5</tspan><tspan x="69.2" y="0" style="fill:#262626; font-family:'ArialMT'; font-size:9.9998px; letter-spacing:55;">2</tspan><tspan x="130.2" y="0" style="fill:#262626; font-family:'ArialMT'; font-size:9.9998px;">2.</tspan><tspan x="138.5" y="0" style="fill:#262626; font-family:'ArialMT'; font-size:9.9998px; letter-spacing:55;">5</tspan><tspan x="199.4" y="0" style="fill:#262626; font-family:'ArialMT'; font-size:9.9998px; letter-spacing:55;">3</tspan><tspan x="260.4" y="0" style="fill:#262626; font-family:'ArialMT'; font-size:9.9998px;">3.</tspan><tspan x="268.7" y="0" style="fill:#262626; font-family:'ArialMT'; font-size:9.9998px; letter-spacing:55;">5</tspan><tspan x="329.6" y="0" style="fill:#262626; font-family:'ArialMT'; font-size:9.9998px;">4</tspan></text>
<text transform="matrix(1 0 0 1 170.75 296)" style="fill:#262626; font-family:'ArialMT'; font-size:11.0002px;">1000/T (K</text>
<text transform="matrix(1 0 0 1 219.5 290.75)" style="fill:#262626; font-family:'ArialMT'; font-size:8.7998px;">-1</text>
<text transform="matrix(1 0 0 1 227.75 296)" style="fill:#262626; font-family:'ArialMT'; font-size:11.0002px;">)</text>
<line style="fill:none;stroke:#262626;stroke-width:0.5002;stroke-linecap:square;stroke-linejoin:round;stroke-miterlimit:10;" x1="38.8" y1="263.8" x2="38.8" y2="7.3"/>
<line style="fill:none;stroke:#262626;stroke-width:0.5002;stroke-linecap:square;stroke-linejoin:round;stroke-miterlimit:10;" x1="364.3" y1="263.8" x2="364.3" y2="7.3"/>
<line style="fill:none;stroke:#262626;stroke-width:0.5002;stroke-linecap:square;stroke-linejoin:round;stroke-miterlimit:10;" x1="38.8" y1="263.8" x2="42" y2="263.8"/>
<line style="fill:none;stroke:#262626;stroke-width:0.5002;stroke-linecap:square;stroke-linejoin:round;stroke-miterlimit:10;" x1="38.8" y1="199.6" x2="42" y2="199.6"/>
<line style="fill:none;stroke:#262626;stroke-width:0.5002;stroke-linecap:square;stroke-linejoin:round;stroke-miterlimit:10;" x1="38.8" y1="135.5" x2="42" y2="135.5"/>
<line style="fill:none;stroke:#262626;stroke-width:0.5002;stroke-linecap:square;stroke-linejoin:round;stroke-miterlimit:10;" x1="38.8" y1="71.4" x2="42" y2="71.4"/>
<line style="fill:none;stroke:#262626;stroke-width:0.5002;stroke-linecap:square;stroke-linejoin:round;stroke-miterlimit:10;" x1="38.8" y1="7.3" x2="42" y2="7.3"/>
<line style="fill:none;stroke:#262626;stroke-width:0.5002;stroke-linecap:square;stroke-linejoin:round;stroke-miterlimit:10;" x1="364.3" y1="263.8" x2="361" y2="263.8"/>
<line style="fill:none;stroke:#262626;stroke-width:0.5002;stroke-linecap:square;stroke-linejoin:round;stroke-miterlimit:10;" x1="364.3" y1="199.6" x2="361" y2="199.6"/>
<line style="fill:none;stroke:#262626;stroke-width:0.5002;stroke-linecap:square;stroke-linejoin:round;stroke-miterlimit:10;" x1="364.3" y1="135.5" x2="361" y2="135.5"/>
<line style="fill:none;stroke:#262626;stroke-width:0.5002;stroke-linecap:square;stroke-linejoin:round;stroke-miterlimit:10;" x1="364.3" y1="71.4" x2="361" y2="71.4"/>
<line style="fill:none;stroke:#262626;stroke-width:0.5002;stroke-linecap:square;stroke-linejoin:round;stroke-miterlimit:10;" x1="364.3" y1="7.3" x2="361" y2="7.3"/>
<line style="fill:none;stroke:#262626;stroke-width:0.5002;stroke-linecap:square;stroke-linejoin:round;stroke-miterlimit:10;" x1="38.8" y1="263.8" x2="40.4" y2="263.8"/>
<line style="fill:none;stroke:#262626;stroke-width:0.5002;stroke-linecap:square;stroke-linejoin:round;stroke-miterlimit:10;" x1="38.8" y1="244.4" x2="40.4" y2="244.4"/>
<line style="fill:none;stroke:#262626;stroke-width:0.5002;stroke-linecap:square;stroke-linejoin:round;stroke-miterlimit:10;" x1="38.8" y1="233.2" x2="40.4" y2="233.2"/>
<line style="fill:none;stroke:#262626;stroke-width:0.5002;stroke-linecap:square;stroke-linejoin:round;stroke-miterlimit:10;" x1="38.8" y1="225.1" x2="40.4" y2="225.1"/>
<line style="fill:none;stroke:#262626;stroke-width:0.5002;stroke-linecap:square;stroke-linejoin:round;stroke-miterlimit:10;" x1="38.8" y1="218.9" x2="40.4" y2="218.9"/>
<line style="fill:none;stroke:#262626;stroke-width:0.5002;stroke-linecap:square;stroke-linejoin:round;stroke-miterlimit:10;" x1="38.8" y1="213.9" x2="40.4" y2="213.9"/>
<line style="fill:none;stroke:#262626;stroke-width:0.5002;stroke-linecap:square;stroke-linejoin:round;stroke-miterlimit:10;" x1="38.8" y1="209.6" x2="40.4" y2="209.6"/>
<line style="fill:none;stroke:#262626;stroke-width:0.5002;stroke-linecap:square;stroke-linejoin:round;stroke-miterlimit:10;" x1="38.8" y1="205.8" x2="40.4" y2="205.8"/>
<line style="fill:none;stroke:#262626;stroke-width:0.5002;stroke-linecap:square;stroke-linejoin:round;stroke-miterlimit:10;" x1="38.8" y1="202.6" x2="40.4" y2="202.6"/>
<line style="fill:none;stroke:#262626;stroke-width:0.5002;stroke-linecap:square;stroke-linejoin:round;stroke-miterlimit:10;" x1="38.8" y1="199.6" x2="40.4" y2="199.6"/>
<line style="fill:none;stroke:#262626;stroke-width:0.5002;stroke-linecap:square;stroke-linejoin:round;stroke-miterlimit:10;" x1="38.8" y1="199.6" x2="40.4" y2="199.6"/>
<line style="fill:none;stroke:#262626;stroke-width:0.5002;stroke-linecap:square;stroke-linejoin:round;stroke-miterlimit:10;" x1="38.8" y1="180.3" x2="40.4" y2="180.3"/>
<line style="fill:none;stroke:#262626;stroke-width:0.5002;stroke-linecap:square;stroke-linejoin:round;stroke-miterlimit:10;" x1="38.8" y1="169" x2="40.4" y2="169"/>
<line style="fill:none;stroke:#262626;stroke-width:0.5002;stroke-linecap:square;stroke-linejoin:round;stroke-miterlimit:10;" x1="38.8" y1="161" x2="40.4" y2="161"/>
<line style="fill:none;stroke:#262626;stroke-width:0.5002;stroke-linecap:square;stroke-linejoin:round;stroke-miterlimit:10;" x1="38.8" y1="154.8" x2="40.4" y2="154.8"/>
<line style="fill:none;stroke:#262626;stroke-width:0.5002;stroke-linecap:square;stroke-linejoin:round;stroke-miterlimit:10;" x1="38.8" y1="149.7" x2="40.4" y2="149.7"/>
<line style="fill:none;stroke:#262626;stroke-width:0.5002;stroke-linecap:square;stroke-linejoin:round;stroke-miterlimit:10;" x1="38.8" y1="145.4" x2="40.4" y2="145.4"/>
<line style="fill:none;stroke:#262626;stroke-width:0.5002;stroke-linecap:square;stroke-linejoin:round;stroke-miterlimit:10;" x1="38.8" y1="141.7" x2="40.4" y2="141.7"/>
<line style="fill:none;stroke:#262626;stroke-width:0.5002;stroke-linecap:square;stroke-linejoin:round;stroke-miterlimit:10;" x1="38.8" y1="138.4" x2="40.4" y2="138.4"/>
<line style="fill:none;stroke:#262626;stroke-width:0.5002;stroke-linecap:square;stroke-linejoin:round;stroke-miterlimit:10;" x1="38.8" y1="135.5" x2="40.4" y2="135.5"/>
<line style="fill:none;stroke:#262626;stroke-width:0.5002;stroke-linecap:square;stroke-linejoin:round;stroke-miterlimit:10;" x1="38.8" y1="116.2" x2="40.4" y2="116.2"/>
<line style="fill:none;stroke:#262626;stroke-width:0.5002;stroke-linecap:square;stroke-linejoin:round;stroke-miterlimit:10;" x1="38.8" y1="104.9" x2="40.4" y2="104.9"/>
<line style="fill:none;stroke:#262626;stroke-width:0.5002;stroke-linecap:square;stroke-linejoin:round;stroke-miterlimit:10;" x1="38.8" y1="96.9" x2="40.4" y2="96.9"/>
<line style="fill:none;stroke:#262626;stroke-width:0.5002;stroke-linecap:square;stroke-linejoin:round;stroke-miterlimit:10;" x1="38.8" y1="90.7" x2="40.4" y2="90.7"/>
<line style="fill:none;stroke:#262626;stroke-width:0.5002;stroke-linecap:square;stroke-linejoin:round;stroke-miterlimit:10;" x1="38.8" y1="85.6" x2="40.4" y2="85.6"/>
<line style="fill:none;stroke:#262626;stroke-width:0.5002;stroke-linecap:square;stroke-linejoin:round;stroke-miterlimit:10;" x1="38.8" y1="81.3" x2="40.4" y2="81.3"/>
<line style="fill:none;stroke:#262626;stroke-width:0.5002;stroke-linecap:square;stroke-linejoin:round;stroke-miterlimit:10;" x1="38.8" y1="77.6" x2="40.4" y2="77.6"/>
<line style="fill:none;stroke:#262626;stroke-width:0.5002;stroke-linecap:square;stroke-linejoin:round;stroke-miterlimit:10;" x1="38.8" y1="74.3" x2="40.4" y2="74.3"/>
<line style="fill:none;stroke:#262626;stroke-width:0.5002;stroke-linecap:square;stroke-linejoin:round;stroke-miterlimit:10;" x1="38.8" y1="71.4" x2="40.4" y2="71.4"/>
<line style="fill:none;stroke:#262626;stroke-width:0.5002;stroke-linecap:square;stroke-linejoin:round;stroke-miterlimit:10;" x1="38.8" y1="52.1" x2="40.4" y2="52.1"/>
<line style="fill:none;stroke:#262626;stroke-width:0.5002;stroke-linecap:square;stroke-linejoin:round;stroke-miterlimit:10;" x1="38.8" y1="40.8" x2="40.4" y2="40.8"/>
<line style="fill:none;stroke:#262626;stroke-width:0.5002;stroke-linecap:square;stroke-linejoin:round;stroke-miterlimit:10;" x1="38.8" y1="32.8" x2="40.4" y2="32.8"/>
<line style="fill:none;stroke:#262626;stroke-width:0.5002;stroke-linecap:square;stroke-linejoin:round;stroke-miterlimit:10;" x1="38.8" y1="26.6" x2="40.4" y2="26.6"/>
<line style="fill:none;stroke:#262626;stroke-width:0.5002;stroke-linecap:square;stroke-linejoin:round;stroke-miterlimit:10;" x1="38.8" y1="21.5" x2="40.4" y2="21.5"/>
<line style="fill:none;stroke:#262626;stroke-width:0.5002;stroke-linecap:square;stroke-linejoin:round;stroke-miterlimit:10;" x1="38.8" y1="17.2" x2="40.4" y2="17.2"/>
<line style="fill:none;stroke:#262626;stroke-width:0.5002;stroke-linecap:square;stroke-linejoin:round;stroke-miterlimit:10;" x1="38.8" y1="13.5" x2="40.4" y2="13.5"/>
<line style="fill:none;stroke:#262626;stroke-width:0.5002;stroke-linecap:square;stroke-linejoin:round;stroke-miterlimit:10;" x1="38.8" y1="10.2" x2="40.4" y2="10.2"/>
<line style="fill:none;stroke:#262626;stroke-width:0.5002;stroke-linecap:square;stroke-linejoin:round;stroke-miterlimit:10;" x1="38.8" y1="7.3" x2="40.4" y2="7.3"/>
<line style="fill:none;stroke:#262626;stroke-width:0.5002;stroke-linecap:square;stroke-linejoin:round;stroke-miterlimit:10;" x1="364.3" y1="263.8" x2="362.6" y2="263.8"/>
<line style="fill:none;stroke:#262626;stroke-width:0.5002;stroke-linecap:square;stroke-linejoin:round;stroke-miterlimit:10;" x1="364.3" y1="244.4" x2="362.6" y2="244.4"/>
<line style="fill:none;stroke:#262626;stroke-width:0.5002;stroke-linecap:square;stroke-linejoin:round;stroke-miterlimit:10;" x1="364.3" y1="233.2" x2="362.6" y2="233.2"/>
<line style="fill:none;stroke:#262626;stroke-width:0.5002;stroke-linecap:square;stroke-linejoin:round;stroke-miterlimit:10;" x1="364.3" y1="225.1" x2="362.6" y2="225.1"/>
<line style="fill:none;stroke:#262626;stroke-width:0.5002;stroke-linecap:square;stroke-linejoin:round;stroke-miterlimit:10;" x1="364.3" y1="218.9" x2="362.6" y2="218.9"/>
<line style="fill:none;stroke:#262626;stroke-width:0.5002;stroke-linecap:square;stroke-linejoin:round;stroke-miterlimit:10;" x1="364.3" y1="213.9" x2="362.6" y2="213.9"/>
<line style="fill:none;stroke:#262626;stroke-width:0.5002;stroke-linecap:square;stroke-linejoin:round;stroke-miterlimit:10;" x1="364.3" y1="209.6" x2="362.6" y2="209.6"/>
<line style="fill:none;stroke:#262626;stroke-width:0.5002;stroke-linecap:square;stroke-linejoin:round;stroke-miterlimit:10;" x1="364.3" y1="205.8" x2="362.6" y2="205.8"/>
<line style="fill:none;stroke:#262626;stroke-width:0.5002;stroke-linecap:square;stroke-linejoin:round;stroke-miterlimit:10;" x1="364.3" y1="202.6" x2="362.6" y2="202.6"/>
<line style="fill:none;stroke:#262626;stroke-width:0.5002;stroke-linecap:square;stroke-linejoin:round;stroke-miterlimit:10;" x1="364.3" y1="199.6" x2="362.6" y2="199.6"/>
<line style="fill:none;stroke:#262626;stroke-width:0.5002;stroke-linecap:square;stroke-linejoin:round;stroke-miterlimit:10;" x1="364.3" y1="199.6" x2="362.6" y2="199.6"/>
<line style="fill:none;stroke:#262626;stroke-width:0.5002;stroke-linecap:square;stroke-linejoin:round;stroke-miterlimit:10;" x1="364.3" y1="180.3" x2="362.6" y2="180.3"/>
<line style="fill:none;stroke:#262626;stroke-width:0.5002;stroke-linecap:square;stroke-linejoin:round;stroke-miterlimit:10;" x1="364.3" y1="169" x2="362.6" y2="169"/>
<line style="fill:none;stroke:#262626;stroke-width:0.5002;stroke-linecap:square;stroke-linejoin:round;stroke-miterlimit:10;" x1="364.3" y1="161" x2="362.6" y2="161"/>
<line style="fill:none;stroke:#262626;stroke-width:0.5002;stroke-linecap:square;stroke-linejoin:round;stroke-miterlimit:10;" x1="364.3" y1="154.8" x2="362.6" y2="154.8"/>
<line style="fill:none;stroke:#262626;stroke-width:0.5002;stroke-linecap:square;stroke-linejoin:round;stroke-miterlimit:10;" x1="364.3" y1="149.7" x2="362.6" y2="149.7"/>
<line style="fill:none;stroke:#262626;stroke-width:0.5002;stroke-linecap:square;stroke-linejoin:round;stroke-miterlimit:10;" x1="364.3" y1="145.4" x2="362.6" y2="145.4"/>
<line style="fill:none;stroke:#262626;stroke-width:0.5002;stroke-linecap:square;stroke-linejoin:round;stroke-miterlimit:10;" x1="364.3" y1="141.7" x2="362.6" y2="141.7"/>
<line style="fill:none;stroke:#262626;stroke-width:0.5002;stroke-linecap:square;stroke-linejoin:round;stroke-miterlimit:10;" x1="364.3" y1="138.4" x2="362.6" y2="138.4"/>
<line style="fill:none;stroke:#262626;stroke-width:0.5002;stroke-linecap:square;stroke-linejoin:round;stroke-miterlimit:10;" x1="364.3" y1="135.5" x2="362.6" y2="135.5"/>
<line style="fill:none;stroke:#262626;stroke-width:0.5002;stroke-linecap:square;stroke-linejoin:round;stroke-miterlimit:10;" x1="364.3" y1="116.2" x2="362.6" y2="116.2"/>
<line style="fill:none;stroke:#262626;stroke-width:0.5002;stroke-linecap:square;stroke-linejoin:round;stroke-miterlimit:10;" x1="364.3" y1="104.9" x2="362.6" y2="104.9"/>
<line style="fill:none;stroke:#262626;stroke-width:0.5002;stroke-linecap:square;stroke-linejoin:round;stroke-miterlimit:10;" x1="364.3" y1="96.9" x2="362.6" y2="96.9"/>
<line style="fill:none;stroke:#262626;stroke-width:0.5002;stroke-linecap:square;stroke-linejoin:round;stroke-miterlimit:10;" x1="364.3" y1="90.7" x2="362.6" y2="90.7"/>
<line style="fill:none;stroke:#262626;stroke-width:0.5002;stroke-linecap:square;stroke-linejoin:round;stroke-miterlimit:10;" x1="364.3" y1="85.6" x2="362.6" y2="85.6"/>
<line style="fill:none;stroke:#262626;stroke-width:0.5002;stroke-linecap:square;stroke-linejoin:round;stroke-miterlimit:10;" x1="364.3" y1="81.3" x2="362.6" y2="81.3"/>
<line style="fill:none;stroke:#262626;stroke-width:0.5002;stroke-linecap:square;stroke-linejoin:round;stroke-miterlimit:10;" x1="364.3" y1="77.6" x2="362.6" y2="77.6"/>
<line style="fill:none;stroke:#262626;stroke-width:0.5002;stroke-linecap:square;stroke-linejoin:round;stroke-miterlimit:10;" x1="364.3" y1="74.3" x2="362.6" y2="74.3"/>
<line style="fill:none;stroke:#262626;stroke-width:0.5002;stroke-linecap:square;stroke-linejoin:round;stroke-miterlimit:10;" x1="364.3" y1="71.4" x2="362.6" y2="71.4"/>
<line style="fill:none;stroke:#262626;stroke-width:0.5002;stroke-linecap:square;stroke-linejoin:round;stroke-miterlimit:10;" x1="364.3" y1="52.1" x2="362.6" y2="52.1"/>
<line style="fill:none;stroke:#262626;stroke-width:0.5002;stroke-linecap:square;stroke-linejoin:round;stroke-miterlimit:10;" x1="364.3" y1="40.8" x2="362.6" y2="40.8"/>
<line style="fill:none;stroke:#262626;stroke-width:0.5002;stroke-linecap:square;stroke-linejoin:round;stroke-miterlimit:10;" x1="364.3" y1="32.8" x2="362.6" y2="32.8"/>
<line style="fill:none;stroke:#262626;stroke-width:0.5002;stroke-linecap:square;stroke-linejoin:round;stroke-miterlimit:10;" x1="364.3" y1="26.6" x2="362.6" y2="26.6"/>
<line style="fill:none;stroke:#262626;stroke-width:0.5002;stroke-linecap:square;stroke-linejoin:round;stroke-miterlimit:10;" x1="364.3" y1="21.5" x2="362.6" y2="21.5"/>
<line style="fill:none;stroke:#262626;stroke-width:0.5002;stroke-linecap:square;stroke-linejoin:round;stroke-miterlimit:10;" x1="364.3" y1="17.2" x2="362.6" y2="17.2"/>
<line style="fill:none;stroke:#262626;stroke-width:0.5002;stroke-linecap:square;stroke-linejoin:round;stroke-miterlimit:10;" x1="364.3" y1="13.5" x2="362.6" y2="13.5"/>
<line style="fill:none;stroke:#262626;stroke-width:0.5002;stroke-linecap:square;stroke-linejoin:round;stroke-miterlimit:10;" x1="364.3" y1="10.2" x2="362.6" y2="10.2"/>
<line style="fill:none;stroke:#262626;stroke-width:0.5002;stroke-linecap:square;stroke-linejoin:round;stroke-miterlimit:10;" x1="364.3" y1="7.3" x2="362.6" y2="7.3"/>
<text transform="matrix(1 0 0 1 16.25 269)" style="fill:#262626; font-family:'ArialMT'; font-size:9.9998px;">10</text>
<text transform="matrix(1 0 0 1 27.5 264.5)" style="fill:#262626; font-family:'ArialMT'; font-size:8.0002px;">-5</text>
<text transform="matrix(1 0 0 1 16.25 205.25)" style="fill:#262626; font-family:'ArialMT'; font-size:9.9998px;">10</text>
<text transform="matrix(1 0 0 1 27.5 200.75)" style="fill:#262626; font-family:'ArialMT'; font-size:8.0002px;">-4</text>
<text transform="matrix(1 0 0 1 16.25 140.75)" style="fill:#262626; font-family:'ArialMT'; font-size:9.9998px;">10</text>
<text transform="matrix(1 0 0 1 27.5 136.25)" style="fill:#262626; font-family:'ArialMT'; font-size:8.0002px;">-3</text>
<text transform="matrix(1 0 0 1 16.25 77)" style="fill:#262626; font-family:'ArialMT'; font-size:9.9998px;">10</text>
<text transform="matrix(1 0 0 1 27.5 72.5)" style="fill:#262626; font-family:'ArialMT'; font-size:8.0002px;">-2</text>
<text transform="matrix(1 0 0 1 16.25 12.5)" style="fill:#262626; font-family:'ArialMT'; font-size:9.9998px;">10</text>
<text transform="matrix(1 0 0 1 27.5 8)" style="fill:#262626; font-family:'ArialMT'; font-size:8.0002px;">-1</text>
<text transform="matrix(0 -1 1 0 10 183.5)" style="fill:#262626; font-family:'ArialMT'; font-size:11.0002px;">Conductivity (S/cm)</text>
<polyline style="fill:none;stroke:#0072BD;stroke-width:2;stroke-miterlimit:10;" points="363.2,263.4 175.1,123.7 73.8,54.3 "/>
<polyline style="fill:none;stroke:#0072BD;stroke-width:2;stroke-miterlimit:10;" points="363.2,202 210.5,48.6 104.4,9.4 "/>
<line style="fill:none;stroke:#0072BD;stroke-width:2;stroke-miterlimit:10;" x1="104.4" y1="92.4" x2="241.3" y2="224.7"/>
<line style="fill:none;stroke:#0072BD;stroke-width:2;stroke-miterlimit:10;" x1="104.4" y1="137.7" x2="234.6" y2="263.4"/>
<rect x="251.6" y="73.5" style="fill:none;" width="56.3" height="25.6"/>
<text transform="matrix(1 0 0 1 251.6387 82.0866)" style="font-family:'ArialMT'; font-size:12px;">PbSnF</text>
<text transform="matrix(0.583 0 0 0.583 288.3242 86.0826)" style="font-family:'ArialMT'; font-size:12px;">4</text>
<rect x="215.4" y="141.4" style="fill:none;" width="56.3" height="25.6"/>
<text transform="matrix(1 0 0 1 215.3778 149.9546)" style="font-family:'ArialMT'; font-size:12px;">BaSnF</text>
<text transform="matrix(0.583 0 0 0.583 252.0634 153.9507)" style="font-family:'ArialMT'; font-size:12px;">4</text>
<rect x="239.8" y="207.5" style="fill:none;" width="56.3" height="25.6"/>
<text transform="matrix(1 0 0 1 239.804 216.1272)" style="font-family:'ArialMT'; font-size:12px;">TlBiF</text>
<text transform="matrix(0.583 0 0 0.583 267.8001 220.1233)" style="font-family:'ArialMT'; font-size:12px;">4</text>
<rect x="230.5" y="244.7" style="fill:none;" width="56.3" height="25.6"/>
<text transform="matrix(1 0 0 1 230.5003 253.3262)" style="font-family:'ArialMT'; font-size:12px;">PbF</text>
<text transform="matrix(0.583 0 0 0.583 252.5081 257.3223)" style="font-family:'ArialMT'; font-size:12px;">4</text>
</svg>
