<?xml version="1.0" encoding="utf-8"?>
<!-- Generator: Adobe Illustrator 23.0.1, SVG Export Plug-In . SVG Version: 6.00 Build 0)  -->
<svg version="1.1" id="Layer_1" xmlns="http://www.w3.org/2000/svg" xmlns:xlink="http://www.w3.org/1999/xlink" x="0px" y="0px"
	 viewBox="0 0 425.2 287.9" style="enable-background:new 0 0 425.2 287.9;" xml:space="preserve">
<style type="text/css">
	.st0{fill:#D1D3D4;}
	.st1{fill:#939598;}
	.st2{fill:url(#SVGID_1_);}
	.st3{fill:url(#SVGID_2_);}
	.st4{fill:#F4EEC4;}
	.st5{fill:none;stroke:#000000;stroke-width:4;stroke-miterlimit:10;}
	.st6{fill:none;stroke:#010101;stroke-width:4;}
	.st7{fill:none;}
	.st8{font-family:'Arial', sans-serif;}
	.st9{font-size:13px;}
	.st10{fill:none;stroke:#000000;stroke-width:2;stroke-miterlimit:10;}
</style>
<rect x="29.1" y="82" class="st0" width="133" height="181"/>
<rect x="263.1" y="82" class="st1" width="132.9" height="181"/>
<linearGradient id="SVGID_1_" gradientUnits="userSpaceOnUse" x1="263.138" y1="229.4066" x2="277.4887" y2="229.4066" gradientTransform="matrix(-1 0 0 -1 659.1887 401.8653)">
	<stop  offset="0" style="stop-color:#FFF33B"/>
	<stop  offset="5.948725e-02" style="stop-color:#FFE029"/>
	<stop  offset="0.1303" style="stop-color:#FFD218"/>
	<stop  offset="0.2032" style="stop-color:#FEC90F"/>
	<stop  offset="0.2809" style="stop-color:#FDC70C"/>
	<stop  offset="0.6685" style="stop-color:#F3903F"/>
	<stop  offset="0.8876" style="stop-color:#ED683C"/>
	<stop  offset="1" style="stop-color:#E93E3A"/>
</linearGradient>
<polygon class="st2" points="381.7,82 396.1,82 396.1,263 381.7,263 "/>
<linearGradient id="SVGID_2_" gradientUnits="userSpaceOnUse" x1="29.1493" y1="172.4587" x2="43.5" y2="172.4587">
	<stop  offset="0" style="stop-color:#FFF33B"/>
	<stop  offset="5.948725e-02" style="stop-color:#FFE029"/>
	<stop  offset="0.1303" style="stop-color:#FFD218"/>
	<stop  offset="0.2032" style="stop-color:#FEC90F"/>
	<stop  offset="0.2809" style="stop-color:#FDC70C"/>
	<stop  offset="0.6685" style="stop-color:#F3903F"/>
	<stop  offset="0.8876" style="stop-color:#ED683C"/>
	<stop  offset="1" style="stop-color:#E93E3A"/>
</linearGradient>
<rect x="29.1" y="82" class="st3" width="14.4" height="181"/>
<rect x="161.5" y="82" class="st4" width="102.1" height="181"/>
<line class="st5" x1="36.3" y1="93.6" x2="36.3" y2="17"/>
<line class="st5" x1="388.9" y1="93.6" x2="388.9" y2="17.6"/>
<g id="g3409" transform="matrix(1.407705,0,0,1.058934,-241.018,236.7356)">
	<path id="path3385" class="st6" d="M282-205.5c33.6,0,31.2-0.2,31.2-0.2"/>
	<path id="path3403" class="st6" d="M337.9-204.9c33.6,0,33.6,0,33.6,0l0,0"/>
	<path id="path3401" class="st6" d="M338.3-204.4l-2.8-9l-2.8,16l-5.5-16.4l-3.2,15.4l-4.5-14.3l-3.2,14.8c0,0-2.6-6-3.4-8.3"/>
</g>
<line class="st6" x1="282" y1="19.8" x2="388.9" y2="19.8"/>
<line class="st6" x1="156" y1="19.1" x2="36.3" y2="19.1"/>
<rect x="216.5" y="164.1" class="st7" width="26" height="22.7"/>
<text transform="matrix(1 0 0 1 216.5448 173.433)" class="st8 st9">F</text>
<text transform="matrix(0.583 0 0 0.583 224.4857 169.1039)" class="st8 st9">-</text>
<g>
	<g>
		<line class="st10" x1="208.7" y1="230.5" x2="228.1" y2="230.5"/>
		<g>
			<polygon points="238.7,230.5 223.7,236.6 227.3,230.5 223.7,224.4 			"/>
		</g>
	</g>
</g>
<g>
	<g>
		<line class="st10" x1="184.9" y1="199.8" x2="204.3" y2="199.8"/>
		<g>
			<polygon points="214.9,199.8 200,205.9 203.5,199.8 200,193.7 			"/>
		</g>
	</g>
</g>
<g>
	<g>
		<line class="st10" x1="230.2" y1="169.5" x2="249.6" y2="169.5"/>
		<g>
			<polygon points="260.2,169.5 245.3,175.6 248.8,169.5 245.3,163.4 			"/>
		</g>
	</g>
</g>
<g>
	<g>
		<line class="st10" x1="157.9" y1="135.5" x2="177.3" y2="135.5"/>
		<g>
			<polygon points="187.9,135.5 173,141.6 176.5,135.5 173,129.4 			"/>
		</g>
	</g>
</g>
<rect x="52" y="22.9" class="st7" width="40" height="26"/>
<text transform="matrix(1 0 0 1 52 32.2498)" class="st8 st9">e</text>
<text transform="matrix(0.583 0 0 0.583 59.23 27.9212)" class="st8 st9">-</text>
<rect x="320.7" y="22.9" class="st7" width="40" height="26"/>
<text transform="matrix(1 0 0 1 320.6667 32.2498)" class="st8 st9">e</text>
<text transform="matrix(0.583 0 0 0.583 327.8966 27.9212)" class="st8 st9">-</text>
<g>
	<g>
		<line class="st10" x1="102" y1="30.6" x2="82.6" y2="30.6"/>
		<g>
			<polygon points="72,30.6 86.9,24.5 83.4,30.6 86.9,36.7 			"/>
		</g>
	</g>
</g>
<g>
	<g>
		<line class="st10" x1="370.6" y1="30.6" x2="351.3" y2="30.6"/>
		<g>
			<polygon points="340.7,30.6 355.6,24.5 352,30.6 355.6,36.7 			"/>
		</g>
	</g>
</g>
<g>
	<g>
		<line class="st10" x1="48.8" y1="46" x2="48.8" y2="65.3"/>
		<g>
			<polygon points="48.8,75.9 42.7,61 48.8,64.5 54.9,61 			"/>
		</g>
	</g>
</g>
<g>
	<g>
		<line class="st10" x1="373.3" y1="73.3" x2="373.3" y2="53.9"/>
		<g>
			<polygon points="373.3,43.3 379.4,58.2 373.3,54.7 367.2,58.2 			"/>
		</g>
	</g>
</g>
<rect x="191.2" y="40.5" class="st7" width="46.7" height="28.7"/>
<text transform="matrix(1 0 0 1 200.0853 49.7696)" class="st8 st9">Load</text>
<rect x="282" y="165.2" class="st7" width="82.3" height="28.7"/>
<text transform="matrix(1 0 0 1 315.627 174.5107)" class="st8 st9">M</text>
<text transform="matrix(0.583 0 0 0.583 326.4561 178.8398)" class="st8 st9">b</text>
<rect x="50.4" y="161.2" class="st7" width="91.6" height="36.7"/>
<text transform="matrix(1 0 0 1 82.7703 170.5107)" class="st8 st9">M</text>
<text transform="matrix(0.583 0 0 0.583 93.5994 174.8398)" class="st8 st9">a</text>
<text transform="matrix(1 0 0 1 97.8143 170.5107)" class="st8 st9">F</text>
<text transform="matrix(0.583 0 0 0.583 105.7557 174.8398)" class="st8 st9">x</text>
<rect x="385" y="98.3" class="st7" width="50" height="35.3"/>
<text transform="matrix(1 0 0 1 384.9973 107.5831)" class="st8 st9">B</text>
<rect x="32.7" y="104.9" class="st7" width="50" height="35.3"/>
<text transform="matrix(1 0 0 1 32.6668 114.2498)" class="st8 st9">A</text>
<rect x="161.3" y="104.9" class="st7" width="102.7" height="32.7"/>
<text transform="matrix(1 0 0 1 182.2554 114.2495)" class="st8 st9">Electrolyte</text>
<rect x="37.6" y="273.1" class="st7" width="340.3" height="14.8"/>
<text transform="matrix(1 0 0 1 142.7702 282.45)" class="st8 st9">A/B: Current collectors</text>
<rect x="140.3" y="130.6" class="st7" width="26" height="22.7"/>
<text transform="matrix(1 0 0 1 140.3188 139.9163)" class="st8 st9">F</text>
<text transform="matrix(0.583 0 0 0.583 148.2598 135.5872)" class="st8 st9">-</text>
<rect x="168.8" y="195.4" class="st7" width="26" height="22.7"/>
<text transform="matrix(1 0 0 1 168.792 204.683)" class="st8 st9">F</text>
<text transform="matrix(0.583 0 0 0.583 176.7329 200.3539)" class="st8 st9">-</text>
<rect x="194.8" y="225.1" class="st7" width="26" height="22.7"/>
<text transform="matrix(1 0 0 1 194.7919 234.4438)" class="st8 st9">F</text>
<text transform="matrix(0.583 0 0 0.583 202.7329 230.1147)" class="st8 st9">-</text>
</svg>
