<?xml version="1.0" encoding="utf-8"?>
<!-- Generator: Adobe Illustrator 23.0.1, SVG Export Plug-In . SVG Version: 6.00 Build 0)  -->
<svg version="1.1" id="Layer_1" xmlns="http://www.w3.org/2000/svg" xmlns:xlink="http://www.w3.org/1999/xlink" x="0px" y="0px"
	 viewBox="0 0 1280 960" style="enable-background:new 0 0 1280 960;" xml:space="preserve">
<g>
	<defs>
		<rect id="SVGID_1_" y="0" width="1280" height="960"/>
	</defs>
	<clipPath id="SVGID_2_">
		<use xlink:href="#SVGID_1_"  style="overflow:visible;"/>
	</clipPath>
	<rect y="0" style="clip-path:url(#SVGID_2_);fill-rule:evenodd;clip-rule:evenodd;fill:#FFFFFF;" width="1280" height="960"/>
</g>
<polyline style="fill:none;stroke:#838383;stroke-miterlimit:10;" points="640,250 640,480 692.5,480 "/>
<polyline style="fill:none;stroke:#838383;stroke-miterlimit:10;" points="640,250 640,480 587.5,480 "/>
<line style="fill:none;stroke:#838383;stroke-miterlimit:10;" x1="640" y1="250" x2="640" y2="710"/>
<rect x="390.1" y="0.1" style="fill-rule:evenodd;clip-rule:evenodd;fill:#FFFFFF;" width="500" height="250"/>
<g>
	<defs>
		<rect id="SVGID_3_" x="0" y="0" width="1280" height="960"/>
	</defs>
	<clipPath id="SVGID_4_">
		<use xlink:href="#SVGID_3_"  style="overflow:visible;"/>
	</clipPath>
	
		<rect x="390.1" y="0.1" style="clip-path:url(#SVGID_4_);fill:none;stroke:#959595;stroke-width:1.5;stroke-miterlimit:10;" width="500" height="250"/>
</g>
<g>
	<defs>
		<rect id="SVGID_5_" x="0" width="1280" height="960"/>
	</defs>
	<clipPath id="SVGID_6_">
		<use xlink:href="#SVGID_5_"  style="overflow:visible;"/>
	</clipPath>
	<g style="clip-path:url(#SVGID_6_);">
		<text transform="matrix(1 0 0 1 553.3398 133.0098)" style="font-family:'CambriaMath'; font-size:80.04px;">Bi</text>
	</g>
</g>
<g>
	<defs>
		<rect id="SVGID_7_" x="0" width="1280" height="960"/>
	</defs>
	<clipPath id="SVGID_8_">
		<use xlink:href="#SVGID_7_"  style="overflow:visible;"/>
	</clipPath>
	<g style="clip-path:url(#SVGID_8_);">
		<text transform="matrix(1 0 0 1 624.5 133.0098)" style="font-family:'CambriaMath'; font-size:80.04px;">F</text>
	</g>
</g>
<g>
	<defs>
		<rect id="SVGID_9_" x="0" width="1280" height="960"/>
	</defs>
	<clipPath id="SVGID_10_">
		<use xlink:href="#SVGID_9_"  style="overflow:visible;"/>
	</clipPath>
	<path style="clip-path:url(#SVGID_10_);" d="M672.4,120.9v-5.6c2.2-1,4.4-1.7,6.3-2.2c2-0.5,3.9-0.7,5.7-0.7c1.5,0,2.9,0.2,4.3,0.5
		c1.3,0.3,2.5,0.8,3.4,1.5c1,0.7,1.7,1.5,2.3,2.5c0.5,1,0.8,2.1,0.8,3.4c0,1.2-0.2,2.3-0.5,3.2c-0.3,0.9-0.9,1.8-1.6,2.5
		c-0.7,0.8-1.6,1.5-2.6,2.1c-1,0.6-2.2,1.2-3.6,1.8v0.3c1.3,0.2,2.5,0.6,3.6,1.1c1.1,0.5,2.1,1.1,2.9,1.9s1.5,1.7,2,2.7
		c0.5,1,0.7,2.1,0.7,3.3c0,1.5-0.3,2.9-0.9,4.2c-0.6,1.3-1.4,2.4-2.6,3.4c-1.1,1-2.5,1.7-4.2,2.2c-1.7,0.5-3.6,0.8-5.9,0.8
		c-1.8,0-3.6-0.2-5.4-0.5c-1.8-0.4-3.6-0.8-5.2-1.4v-6.2h3.7c0.3,1,0.7,1.8,1.1,2.4c0.4,0.7,0.9,1.2,1.5,1.7
		c0.6,0.4,1.2,0.7,1.9,0.9c0.7,0.2,1.6,0.3,2.5,0.3c2.5,0,4.3-0.6,5.6-1.8c1.3-1.2,1.9-2.9,1.9-5.3c0-2.5-0.8-4.4-2.5-5.7
		c-1.7-1.3-4.1-2-7.4-2h-2.5v-2.7c2-0.1,3.7-0.4,5.2-0.8c1.5-0.5,2.7-1.1,3.6-1.8c1-0.7,1.7-1.6,2.2-2.6c0.5-1,0.7-2,0.7-3.2
		c0-1.8-0.5-3.3-1.6-4.3c-1.1-1.1-2.7-1.6-4.7-1.6c-1.7,0-3.2,0.5-4.4,1.4c-1.2,1-2.1,2.4-2.7,4.3H672.4z"/>
</g>
<g>
	<defs>
		<rect id="SVGID_11_" x="0" y="0" width="1280" height="960"/>
	</defs>
	<clipPath id="SVGID_12_">
		<use xlink:href="#SVGID_11_"  style="overflow:visible;"/>
	</clipPath>
	
		<rect x="390.1" y="710.1" style="clip-path:url(#SVGID_12_);fill-rule:evenodd;clip-rule:evenodd;fill:#FFFFFF;" width="500" height="250"/>
</g>
<g>
	<defs>
		<rect id="SVGID_13_" x="0" y="0" width="1280" height="960"/>
	</defs>
	<clipPath id="SVGID_14_">
		<use xlink:href="#SVGID_13_"  style="overflow:visible;"/>
	</clipPath>
	
		<rect x="390.1" y="710.1" style="clip-path:url(#SVGID_14_);fill:none;stroke:#959595;stroke-width:1.5;stroke-miterlimit:10;" width="500" height="250"/>
</g>
<g>
	<defs>
		<rect id="SVGID_15_" x="0" width="1280" height="960"/>
	</defs>
	<clipPath id="SVGID_16_">
		<use xlink:href="#SVGID_15_"  style="overflow:visible;"/>
	</clipPath>
	<g style="clip-path:url(#SVGID_16_);">
		<text transform="matrix(1 0 0 1 401.3999 843.0996)" style="font-family:'CambriaMath'; font-size:80.04px;">B</text>
	</g>
</g>
<g>
	<defs>
		<rect id="SVGID_17_" x="0" width="1280" height="960"/>
	</defs>
	<clipPath id="SVGID_18_">
		<use xlink:href="#SVGID_17_"  style="overflow:visible;"/>
	</clipPath>
	<g style="clip-path:url(#SVGID_18_);">
		<text transform="matrix(1 0 0 1 450.3599 843.0996)" style="font-family:'CambriaMath'; font-size:80.04px;">i</text>
	</g>
</g>
<g>
	<defs>
		<rect id="SVGID_19_" x="0" width="1280" height="960"/>
	</defs>
	<clipPath id="SVGID_20_">
		<use xlink:href="#SVGID_19_"  style="overflow:visible;"/>
	</clipPath>
	<path style="clip-path:url(#SVGID_20_);" d="M491.6,851.9c0,0.6,0,1.1,0.1,1.5c0,0.4,0.1,0.8,0.2,1.1c0.1,0.3,0.2,0.5,0.3,0.8
		c0.1,0.2,0.3,0.4,0.5,0.5c0.2,0.2,0.5,0.4,0.9,0.5c0.4,0.1,0.9,0.2,1.5,0.3c0.6,0.1,1.3,0.2,2.1,0.2c0.8,0,1.8,0.1,3,0.1v2.5h-22.6
		v-2.5c1.1,0,2.1-0.1,2.9-0.1c0.8,0,1.4-0.1,2-0.2c0.6-0.1,1-0.2,1.3-0.3c0.3-0.1,0.6-0.2,0.9-0.4c0.3-0.2,0.5-0.4,0.7-0.6
		c0.2-0.2,0.3-0.5,0.5-0.8c0.1-0.3,0.2-0.7,0.3-1.1c0.1-0.4,0.1-1,0.1-1.6v-20.5c0-0.7-0.1-1.3-0.4-1.6c-0.3-0.3-0.7-0.5-1.2-0.5
		c-0.6,0-1.5,0.3-2.6,0.9c-1.2,0.6-2.7,1.5-4.5,2.7c-0.2-0.4-0.5-0.9-0.7-1.3c-0.2-0.4-0.4-0.9-0.7-1.3c2.4-1.3,4.7-2.6,7-3.9
		c2.3-1.3,4.7-2.6,7-3.8h1.7c0,1-0.1,2-0.1,2.8c0,0.8,0,1.6,0,2.4c0,0.8,0,1.6,0,2.3V851.9z"/>
</g>
<g>
	<defs>
		<rect id="SVGID_21_" x="0" width="1280" height="960"/>
	</defs>
	<clipPath id="SVGID_22_">
		<use xlink:href="#SVGID_21_"  style="overflow:visible;"/>
	</clipPath>
	<rect x="509.4" y="840.5" style="clip-path:url(#SVGID_22_);" width="32.9" height="4.4"/>
</g>
<g>
	<defs>
		<rect id="SVGID_23_" x="0" width="1280" height="960"/>
	</defs>
	<clipPath id="SVGID_24_">
		<use xlink:href="#SVGID_23_"  style="overflow:visible;"/>
	</clipPath>
	<path style="clip-path:url(#SVGID_24_);" d="M563.9,842l4.1-4.9c0.4-0.5,0.8-1,1-1.4c0.2-0.4,0.4-0.9,0.4-1.5
		c0-0.3-0.2-0.7-0.6-0.9c-0.4-0.3-0.9-0.5-1.7-0.6v-1.8h10.5v1.8c-0.9,0.2-1.8,0.7-2.7,1.4c-0.8,0.7-1.8,1.6-2.8,2.8l-6.3,7.5
		l6.9,8.9c0.5,0.7,1,1.3,1.5,1.8c0.5,0.5,0.9,0.9,1.3,1.3c0.4,0.3,0.8,0.6,1.2,0.8c0.4,0.2,0.8,0.3,1.1,0.4v1.8h-12.7v-1.9
		c0.8-0.1,1.5-0.3,1.8-0.6c0.4-0.3,0.6-0.6,0.6-1c0-0.3-0.1-0.7-0.2-1c-0.1-0.3-0.4-0.8-0.7-1.3l-4.4-5.9l-4.8,5.8
		c-0.4,0.4-0.6,0.8-0.8,1.2c-0.2,0.3-0.2,0.7-0.2,1.1c0,0.4,0.2,0.7,0.6,1c0.4,0.3,1,0.5,1.8,0.6v1.9h-10.7v-1.8
		c0.5-0.2,1-0.4,1.4-0.6c0.4-0.2,0.8-0.5,1.3-0.8c0.4-0.3,0.9-0.8,1.4-1.3c0.5-0.5,1.1-1.2,1.8-2l6.3-7.5l-6.4-8.5
		c-0.6-0.8-1.1-1.4-1.5-1.9c-0.4-0.5-0.8-0.9-1.2-1.3c-0.4-0.3-0.7-0.6-1.1-0.7c-0.4-0.2-0.8-0.3-1.2-0.3v-1.8h12.5v1.8
		c-0.9,0.1-1.6,0.3-2,0.6c-0.4,0.3-0.6,0.6-0.6,1c0,0.4,0.1,0.8,0.3,1.2c0.2,0.4,0.5,0.9,1,1.4L563.9,842z"/>
</g>
<g>
	<defs>
		<rect id="SVGID_25_" x="0" width="1280" height="960"/>
	</defs>
	<clipPath id="SVGID_26_">
		<use xlink:href="#SVGID_25_"  style="overflow:visible;"/>
	</clipPath>
	<g style="clip-path:url(#SVGID_26_);">
		<text transform="matrix(1 0 0 1 582.3799 843.0996)" style="font-family:'CambriaMath'; font-size:80.04px;">S</text>
	</g>
</g>
<g>
	<defs>
		<rect id="SVGID_27_" x="0" width="1280" height="960"/>
	</defs>
	<clipPath id="SVGID_28_">
		<use xlink:href="#SVGID_27_"  style="overflow:visible;"/>
	</clipPath>
	<g style="clip-path:url(#SVGID_28_);">
		<text transform="matrix(1 0 0 1 622.1001 843.0996)" style="font-family:'CambriaMath'; font-size:80.04px;">n</text>
	</g>
</g>
<g>
	<defs>
		<rect id="SVGID_29_" x="0" width="1280" height="960"/>
	</defs>
	<clipPath id="SVGID_30_">
		<use xlink:href="#SVGID_29_"  style="overflow:visible;"/>
	</clipPath>
	<path style="clip-path:url(#SVGID_30_);" d="M683.5,842l4.1-4.9c0.4-0.5,0.8-1,1-1.4c0.2-0.4,0.4-0.9,0.4-1.5
		c0-0.3-0.2-0.7-0.6-0.9c-0.4-0.3-0.9-0.5-1.7-0.6v-1.8h10.5v1.8c-0.9,0.2-1.8,0.7-2.7,1.4c-0.8,0.7-1.8,1.6-2.8,2.8l-6.3,7.5
		l6.9,8.9c0.5,0.7,1,1.3,1.5,1.8c0.5,0.5,0.9,0.9,1.3,1.3c0.4,0.3,0.8,0.6,1.2,0.8c0.4,0.2,0.8,0.3,1.1,0.4v1.8h-12.7v-1.9
		c0.8-0.1,1.5-0.3,1.8-0.6c0.4-0.3,0.6-0.6,0.6-1c0-0.3-0.1-0.7-0.2-1c-0.1-0.3-0.4-0.8-0.7-1.3l-4.4-5.9l-4.8,5.8
		c-0.4,0.4-0.6,0.8-0.8,1.2c-0.2,0.3-0.2,0.7-0.2,1.1c0,0.4,0.2,0.7,0.6,1c0.4,0.3,1,0.5,1.8,0.6v1.9h-10.7v-1.8
		c0.5-0.2,1-0.4,1.4-0.6c0.4-0.2,0.8-0.5,1.3-0.8c0.4-0.3,0.9-0.8,1.4-1.3c0.5-0.5,1.1-1.2,1.8-2l6.3-7.5l-6.4-8.5
		c-0.6-0.8-1.1-1.4-1.5-1.9c-0.4-0.5-0.8-0.9-1.2-1.3c-0.4-0.3-0.7-0.6-1.1-0.7c-0.4-0.2-0.8-0.3-1.2-0.3v-1.8H681v1.8
		c-0.9,0.1-1.6,0.3-2,0.6c-0.4,0.3-0.6,0.6-0.6,1c0,0.4,0.1,0.8,0.3,1.2c0.2,0.4,0.5,0.9,1,1.4L683.5,842z"/>
</g>
<g>
	<defs>
		<rect id="SVGID_31_" x="0" width="1280" height="960"/>
	</defs>
	<clipPath id="SVGID_32_">
		<use xlink:href="#SVGID_31_"  style="overflow:visible;"/>
	</clipPath>
	<g style="clip-path:url(#SVGID_32_);">
		<text transform="matrix(1 0 0 1 702.0195 843.0996)" style="font-family:'CambriaMath'; font-size:80.04px;">F</text>
	</g>
</g>
<g>
	<defs>
		<rect id="SVGID_33_" x="0" width="1280" height="960"/>
	</defs>
	<clipPath id="SVGID_34_">
		<use xlink:href="#SVGID_33_"  style="overflow:visible;"/>
	</clipPath>
	<path style="clip-path:url(#SVGID_34_);" d="M749.9,831v-5.6c2.2-1,4.4-1.7,6.3-2.2c2-0.5,3.9-0.7,5.7-0.7c1.5,0,2.9,0.2,4.3,0.5
		c1.3,0.3,2.5,0.8,3.4,1.5c1,0.7,1.7,1.5,2.3,2.5c0.5,1,0.8,2.1,0.8,3.4c0,1.2-0.2,2.3-0.5,3.2c-0.3,0.9-0.9,1.8-1.6,2.5
		c-0.7,0.8-1.6,1.5-2.6,2.1c-1,0.6-2.2,1.2-3.6,1.8v0.3c1.3,0.2,2.5,0.6,3.6,1.1c1.1,0.5,2.1,1.1,2.9,1.9s1.5,1.7,2,2.7
		c0.5,1,0.7,2.1,0.7,3.3c0,1.5-0.3,2.9-0.9,4.2c-0.6,1.3-1.4,2.4-2.6,3.4c-1.1,1-2.5,1.7-4.2,2.2c-1.7,0.5-3.6,0.8-5.9,0.8
		c-1.8,0-3.6-0.2-5.4-0.5c-1.8-0.4-3.6-0.8-5.2-1.4v-6.2h3.7c0.3,1,0.7,1.8,1.1,2.4c0.4,0.7,0.9,1.2,1.5,1.7
		c0.6,0.4,1.2,0.7,1.9,0.9c0.7,0.2,1.6,0.3,2.5,0.3c2.5,0,4.3-0.6,5.6-1.8c1.3-1.2,1.9-2.9,1.9-5.3c0-2.5-0.8-4.4-2.5-5.7
		c-1.7-1.3-4.1-2-7.4-2h-2.5v-2.7c2-0.1,3.7-0.4,5.2-0.8c1.5-0.5,2.7-1.1,3.6-1.8s1.7-1.6,2.2-2.6c0.5-1,0.7-2,0.7-3.2
		c0-1.8-0.5-3.3-1.6-4.3c-1.1-1.1-2.7-1.6-4.7-1.6c-1.7,0-3.2,0.5-4.4,1.4c-1.2,1-2.1,2.4-2.7,4.3H749.9z"/>
</g>
<g>
	<defs>
		<rect id="SVGID_35_" x="0" width="1280" height="960"/>
	</defs>
	<clipPath id="SVGID_36_">
		<use xlink:href="#SVGID_35_"  style="overflow:visible;"/>
	</clipPath>
	<rect x="783.6" y="840.5" style="clip-path:url(#SVGID_36_);" width="32.9" height="4.4"/>
</g>
<g>
	<defs>
		<rect id="SVGID_37_" x="0" width="1280" height="960"/>
	</defs>
	<clipPath id="SVGID_38_">
		<use xlink:href="#SVGID_37_"  style="overflow:visible;"/>
	</clipPath>
	<path style="clip-path:url(#SVGID_38_);" d="M838.1,842l4.1-4.9c0.4-0.5,0.8-1,1-1.4c0.2-0.4,0.4-0.9,0.4-1.5
		c0-0.3-0.2-0.7-0.6-0.9c-0.4-0.3-0.9-0.5-1.7-0.6v-1.8h10.5v1.8c-0.9,0.2-1.8,0.7-2.7,1.4c-0.8,0.7-1.8,1.6-2.8,2.8l-6.3,7.5
		l6.9,8.9c0.5,0.7,1,1.3,1.5,1.8c0.5,0.5,0.9,0.9,1.3,1.3c0.4,0.3,0.8,0.6,1.2,0.8c0.4,0.2,0.8,0.3,1.1,0.4v1.8h-12.7v-1.9
		c0.8-0.1,1.5-0.3,1.8-0.6c0.4-0.3,0.6-0.6,0.6-1c0-0.3-0.1-0.7-0.2-1c-0.1-0.3-0.4-0.8-0.7-1.3l-4.4-5.9l-4.8,5.8
		c-0.4,0.4-0.6,0.8-0.8,1.2c-0.2,0.3-0.2,0.7-0.2,1.1c0,0.4,0.2,0.7,0.6,1c0.4,0.3,1,0.5,1.8,0.6v1.9h-10.7v-1.8
		c0.5-0.2,1-0.4,1.4-0.6c0.4-0.2,0.8-0.5,1.3-0.8c0.4-0.3,0.9-0.8,1.4-1.3c0.5-0.5,1.1-1.2,1.8-2l6.3-7.5l-6.4-8.5
		c-0.6-0.8-1.1-1.4-1.5-1.9c-0.4-0.5-0.8-0.9-1.2-1.3c-0.4-0.3-0.7-0.6-1.1-0.7c-0.4-0.2-0.8-0.3-1.2-0.3v-1.8h12.5v1.8
		c-0.9,0.1-1.6,0.3-2,0.6c-0.4,0.3-0.6,0.6-0.6,1c0,0.4,0.1,0.8,0.3,1.2c0.2,0.4,0.5,0.9,1,1.4L838.1,842z"/>
</g>
<rect x="87.5" y="355" style="fill-rule:evenodd;clip-rule:evenodd;fill:#FFFFFF;" width="500" height="250.1"/>
<rect x="87.5" y="355" style="fill:none;stroke:#959595;stroke-width:1.5;stroke-miterlimit:10;" width="500" height="250.1"/>
<g>
	<defs>
		<rect id="SVGID_39_" x="0" width="1280" height="960"/>
	</defs>
	<clipPath id="SVGID_40_">
		<use xlink:href="#SVGID_39_"  style="overflow:visible;"/>
	</clipPath>
	<g style="clip-path:url(#SVGID_40_);">
		<text transform="matrix(1 0 0 1 136.2002 488.04)" style="font-family:'CambriaMath'; font-size:80.064px;">B</text>
	</g>
</g>
<g>
	<defs>
		<rect id="SVGID_41_" x="0" width="1280" height="960"/>
	</defs>
	<clipPath id="SVGID_42_">
		<use xlink:href="#SVGID_41_"  style="overflow:visible;"/>
	</clipPath>
	<g style="clip-path:url(#SVGID_42_);">
		<text transform="matrix(1 0 0 1 185.1602 488.04)" style="font-family:'CambriaMath'; font-size:80.064px;">i</text>
	</g>
</g>
<g>
	<defs>
		<rect id="SVGID_43_" x="0" width="1280" height="960"/>
	</defs>
	<clipPath id="SVGID_44_">
		<use xlink:href="#SVGID_43_"  style="overflow:visible;"/>
	</clipPath>
	<path style="clip-path:url(#SVGID_44_);" d="M226.4,496.8c0,0.6,0,1.1,0.1,1.5c0,0.4,0.1,0.8,0.2,1.1c0.1,0.3,0.2,0.5,0.3,0.8
		c0.1,0.2,0.3,0.4,0.5,0.5c0.2,0.2,0.5,0.4,0.9,0.5c0.4,0.1,0.9,0.2,1.5,0.3c0.6,0.1,1.3,0.2,2.1,0.2c0.8,0,1.8,0.1,3,0.1v2.5h-22.6
		v-2.5c1.1,0,2.1-0.1,2.9-0.1c0.8,0,1.4-0.1,2-0.2c0.6-0.1,1-0.2,1.3-0.3c0.3-0.1,0.6-0.2,0.9-0.4c0.3-0.2,0.5-0.4,0.7-0.6
		c0.2-0.2,0.3-0.5,0.5-0.8c0.1-0.3,0.2-0.7,0.3-1.1c0.1-0.4,0.1-1,0.1-1.6v-20.5c0-0.7-0.1-1.3-0.4-1.6c-0.3-0.3-0.7-0.5-1.2-0.5
		c-0.6,0-1.5,0.3-2.6,0.9c-1.2,0.6-2.7,1.5-4.5,2.7c-0.2-0.4-0.5-0.9-0.7-1.3c-0.2-0.4-0.4-0.9-0.7-1.3c2.4-1.3,4.7-2.6,7-3.9
		c2.3-1.3,4.7-2.6,7-3.8h1.7c0,1-0.1,2-0.1,2.8c0,0.8,0,1.6,0,2.4c0,0.8,0,1.6,0,2.3V496.8z"/>
</g>
<g>
	<defs>
		<rect id="SVGID_45_" x="0" width="1280" height="960"/>
	</defs>
	<clipPath id="SVGID_46_">
		<use xlink:href="#SVGID_45_"  style="overflow:visible;"/>
	</clipPath>
	<rect x="244.1" y="485.5" style="clip-path:url(#SVGID_46_);" width="32.9" height="4.4"/>
</g>
<g>
	<defs>
		<rect id="SVGID_47_" x="0" width="1280" height="960"/>
	</defs>
	<clipPath id="SVGID_48_">
		<use xlink:href="#SVGID_47_"  style="overflow:visible;"/>
	</clipPath>
	<path style="clip-path:url(#SVGID_48_);" d="M298.6,486.9l4.1-4.9c0.4-0.5,0.8-1,1-1.4c0.2-0.4,0.4-0.9,0.4-1.5
		c0-0.3-0.2-0.7-0.6-0.9c-0.4-0.3-0.9-0.5-1.7-0.6v-1.8h10.5v1.8c-0.9,0.2-1.8,0.7-2.7,1.4c-0.8,0.7-1.8,1.6-2.8,2.8l-6.3,7.5
		l6.9,8.9c0.5,0.7,1,1.3,1.5,1.8c0.5,0.5,0.9,0.9,1.3,1.3c0.4,0.3,0.8,0.6,1.2,0.8c0.4,0.2,0.8,0.3,1.1,0.4v1.8h-12.7v-1.9
		c0.8-0.1,1.5-0.3,1.8-0.6c0.4-0.3,0.6-0.6,0.6-1c0-0.3-0.1-0.7-0.2-1c-0.1-0.3-0.4-0.8-0.7-1.3l-4.4-5.9l-4.8,5.9
		c-0.4,0.4-0.6,0.8-0.8,1.2c-0.2,0.3-0.2,0.7-0.2,1.1c0,0.4,0.2,0.7,0.6,1c0.4,0.3,1,0.5,1.8,0.6v1.9H283v-1.8
		c0.5-0.2,1-0.4,1.4-0.6c0.4-0.2,0.8-0.5,1.3-0.8c0.4-0.3,0.9-0.8,1.4-1.3c0.5-0.5,1.1-1.2,1.8-2l6.3-7.5l-6.5-8.5
		c-0.6-0.8-1.1-1.4-1.5-1.9c-0.4-0.5-0.8-0.9-1.2-1.3c-0.4-0.3-0.7-0.6-1.1-0.7c-0.4-0.2-0.8-0.3-1.2-0.3v-1.8h12.5v1.8
		c-0.9,0.1-1.6,0.3-2,0.6c-0.4,0.3-0.6,0.6-0.6,1c0,0.4,0.1,0.8,0.3,1.2s0.5,0.9,1,1.4L298.6,486.9z"/>
</g>
<g>
	<defs>
		<rect id="SVGID_49_" x="0" width="1280" height="960"/>
	</defs>
	<clipPath id="SVGID_50_">
		<use xlink:href="#SVGID_49_"  style="overflow:visible;"/>
	</clipPath>
	<g style="clip-path:url(#SVGID_50_);">
		<text transform="matrix(1 0 0 1 317.1802 488.04)" style="font-family:'CambriaMath'; font-size:80.064px;">S</text>
	</g>
</g>
<g>
	<defs>
		<rect id="SVGID_51_" x="0" width="1280" height="960"/>
	</defs>
	<clipPath id="SVGID_52_">
		<use xlink:href="#SVGID_51_"  style="overflow:visible;"/>
	</clipPath>
	<g style="clip-path:url(#SVGID_52_);">
		<text transform="matrix(1 0 0 1 356.7798 488.04)" style="font-family:'CambriaMath'; font-size:80.064px;">n</text>
	</g>
</g>
<g>
	<defs>
		<rect id="SVGID_53_" x="0" width="1280" height="960"/>
	</defs>
	<clipPath id="SVGID_54_">
		<use xlink:href="#SVGID_53_"  style="overflow:visible;"/>
	</clipPath>
	<path style="clip-path:url(#SVGID_54_);" d="M418.2,486.9l4.1-4.9c0.4-0.5,0.8-1,1-1.4c0.2-0.4,0.4-0.9,0.4-1.5
		c0-0.3-0.2-0.7-0.6-0.9c-0.4-0.3-0.9-0.5-1.7-0.6v-1.8h10.5v1.8c-0.9,0.2-1.8,0.7-2.7,1.4c-0.8,0.7-1.8,1.6-2.8,2.8l-6.3,7.5
		l6.9,8.9c0.5,0.7,1,1.3,1.5,1.8c0.5,0.5,0.9,0.9,1.3,1.3c0.4,0.3,0.8,0.6,1.2,0.8c0.4,0.2,0.8,0.3,1.1,0.4v1.8h-12.7v-1.9
		c0.8-0.1,1.5-0.3,1.8-0.6c0.4-0.3,0.6-0.6,0.6-1c0-0.3-0.1-0.7-0.2-1c-0.1-0.3-0.4-0.8-0.7-1.3l-4.4-5.9l-4.8,5.9
		c-0.4,0.4-0.6,0.8-0.8,1.2c-0.2,0.3-0.2,0.7-0.2,1.1c0,0.4,0.2,0.7,0.6,1c0.4,0.3,1,0.5,1.8,0.6v1.9h-10.7v-1.8
		c0.5-0.2,1-0.4,1.4-0.6c0.4-0.2,0.8-0.5,1.3-0.8c0.4-0.3,0.9-0.8,1.4-1.3c0.5-0.5,1.1-1.2,1.8-2l6.3-7.5l-6.5-8.5
		c-0.6-0.8-1.1-1.4-1.5-1.9c-0.4-0.5-0.8-0.9-1.2-1.3c-0.4-0.3-0.7-0.6-1.1-0.7c-0.4-0.2-0.8-0.3-1.2-0.3v-1.8h12.5v1.8
		c-0.9,0.1-1.6,0.3-2,0.6c-0.4,0.3-0.6,0.6-0.6,1c0,0.4,0.1,0.8,0.3,1.2s0.5,0.9,1,1.4L418.2,486.9z"/>
</g>
<g>
	<defs>
		<rect id="SVGID_55_" x="0" width="1280" height="960"/>
	</defs>
	<clipPath id="SVGID_56_">
		<use xlink:href="#SVGID_55_"  style="overflow:visible;"/>
	</clipPath>
	<g style="clip-path:url(#SVGID_56_);">
		<text transform="matrix(1 0 0 1 436.7002 488.04)" style="font-family:'CambriaMath'; font-size:80.064px;">F</text>
	</g>
</g>
<g>
	<defs>
		<rect id="SVGID_57_" x="0" width="1280" height="960"/>
	</defs>
	<clipPath id="SVGID_58_">
		<use xlink:href="#SVGID_57_"  style="overflow:visible;"/>
	</clipPath>
	<path style="clip-path:url(#SVGID_58_);" d="M484.6,475.9v-5.6c2.2-1,4.4-1.7,6.4-2.2c2-0.5,3.9-0.7,5.7-0.7c1.5,0,2.9,0.2,4.3,0.5
		c1.3,0.3,2.5,0.8,3.4,1.5c1,0.7,1.7,1.5,2.3,2.5c0.5,1,0.8,2.1,0.8,3.4c0,1.2-0.2,2.3-0.5,3.2c-0.3,0.9-0.9,1.8-1.6,2.5
		c-0.7,0.8-1.6,1.5-2.6,2.1c-1,0.6-2.2,1.2-3.6,1.8v0.3c1.3,0.2,2.5,0.6,3.6,1.1c1.1,0.5,2.1,1.1,2.9,1.9c0.8,0.8,1.5,1.7,2,2.7
		c0.5,1,0.7,2.1,0.7,3.3c0,1.5-0.3,2.9-0.9,4.2c-0.6,1.3-1.4,2.4-2.6,3.4c-1.1,1-2.6,1.7-4.2,2.2c-1.7,0.5-3.6,0.8-5.9,0.8
		c-1.8,0-3.6-0.2-5.4-0.5s-3.6-0.8-5.2-1.4v-6.2h3.7c0.3,1,0.7,1.8,1.1,2.4c0.4,0.7,0.9,1.2,1.5,1.7c0.6,0.4,1.2,0.7,1.9,0.9
		c0.7,0.2,1.6,0.3,2.5,0.3c2.5,0,4.3-0.6,5.6-1.8c1.3-1.2,1.9-2.9,1.9-5.3c0-2.5-0.8-4.4-2.5-5.8c-1.7-1.3-4.1-2-7.4-2h-2.5v-2.7
		c2-0.1,3.7-0.4,5.2-0.8c1.5-0.5,2.7-1.1,3.6-1.8c1-0.7,1.7-1.6,2.2-2.6c0.5-1,0.7-2,0.7-3.2c0-1.8-0.5-3.3-1.6-4.3
		c-1.1-1.1-2.7-1.6-4.7-1.6c-1.7,0-3.2,0.5-4.4,1.4c-1.2,1-2.1,2.4-2.7,4.3H484.6z"/>
</g>
<rect x="692.6" y="355" style="fill-rule:evenodd;clip-rule:evenodd;fill:#FFFFFF;" width="499.9" height="250.1"/>
<rect x="692.6" y="355" style="fill:none;stroke:#959595;stroke-width:1.5;stroke-miterlimit:10;" width="499.9" height="250.1"/>
<g>
	<defs>
		<rect id="SVGID_59_" x="0" width="1280" height="960"/>
	</defs>
	<clipPath id="SVGID_60_">
		<use xlink:href="#SVGID_59_"  style="overflow:visible;"/>
	</clipPath>
	<g style="clip-path:url(#SVGID_60_);">
		<text transform="matrix(1 0 0 1 818.6602 488.04)" style="font-family:'CambriaMath'; font-size:80.064px;">Bi</text>
	</g>
</g>
<g>
	<defs>
		<rect id="SVGID_61_" x="0" width="1280" height="960"/>
	</defs>
	<clipPath id="SVGID_62_">
		<use xlink:href="#SVGID_61_"  style="overflow:visible;"/>
	</clipPath>
	<g style="clip-path:url(#SVGID_62_);">
		<text transform="matrix(1 0 0 1 889.8203 488.04)" style="font-family:'CambriaMath'; font-size:80.064px;">F</text>
	</g>
</g>
<g>
	<defs>
		<rect id="SVGID_63_" x="0" width="1280" height="960"/>
	</defs>
	<clipPath id="SVGID_64_">
		<use xlink:href="#SVGID_63_"  style="overflow:visible;"/>
	</clipPath>
	<path style="clip-path:url(#SVGID_64_);" d="M937.7,475.9v-5.6c2.2-1,4.4-1.7,6.4-2.2c2-0.5,3.9-0.7,5.7-0.7c1.5,0,2.9,0.2,4.3,0.5
		c1.3,0.3,2.5,0.8,3.4,1.5c1,0.7,1.7,1.5,2.3,2.5c0.5,1,0.8,2.1,0.8,3.4c0,1.2-0.2,2.3-0.5,3.2c-0.3,0.9-0.9,1.8-1.6,2.5
		c-0.7,0.8-1.6,1.5-2.6,2.1c-1,0.6-2.2,1.2-3.6,1.8v0.3c1.3,0.2,2.5,0.6,3.6,1.1c1.1,0.5,2.1,1.1,2.9,1.9c0.8,0.8,1.5,1.7,2,2.7
		c0.5,1,0.7,2.1,0.7,3.3c0,1.5-0.3,2.9-0.9,4.2c-0.6,1.3-1.4,2.4-2.6,3.4c-1.1,1-2.6,1.7-4.2,2.2c-1.7,0.5-3.6,0.8-5.9,0.8
		c-1.8,0-3.6-0.2-5.4-0.5c-1.8-0.4-3.6-0.8-5.2-1.4v-6.2h3.7c0.3,1,0.7,1.8,1.1,2.4c0.4,0.7,0.9,1.2,1.5,1.7
		c0.6,0.4,1.2,0.7,1.9,0.9c0.7,0.2,1.6,0.3,2.5,0.3c2.5,0,4.3-0.6,5.6-1.8c1.3-1.2,1.9-2.9,1.9-5.3c0-2.5-0.8-4.4-2.5-5.8
		c-1.7-1.3-4.1-2-7.4-2H943v-2.7c2-0.1,3.7-0.4,5.2-0.8c1.5-0.5,2.7-1.1,3.6-1.8s1.7-1.6,2.2-2.6c0.5-1,0.7-2,0.7-3.2
		c0-1.8-0.5-3.3-1.6-4.3s-2.7-1.6-4.7-1.6c-1.7,0-3.2,0.5-4.4,1.4c-1.2,1-2.1,2.4-2.7,4.3H937.7z"/>
</g>
<g>
	<defs>
		<rect id="SVGID_65_" x="0" width="1280" height="960"/>
	</defs>
	<clipPath id="SVGID_66_">
		<use xlink:href="#SVGID_65_"  style="overflow:visible;"/>
	</clipPath>
	<rect x="971.4" y="485.5" style="clip-path:url(#SVGID_66_);" width="32.9" height="4.4"/>
</g>
<g>
	<defs>
		<rect id="SVGID_67_" x="0" width="1280" height="960"/>
	</defs>
	<clipPath id="SVGID_68_">
		<use xlink:href="#SVGID_67_"  style="overflow:visible;"/>
	</clipPath>
	<path style="clip-path:url(#SVGID_68_);" d="M1025.9,486.9l4.1-4.9c0.4-0.5,0.8-1,1-1.4c0.2-0.4,0.4-0.9,0.4-1.5
		c0-0.3-0.2-0.7-0.6-0.9c-0.4-0.3-0.9-0.5-1.7-0.6v-1.8h10.5v1.8c-0.9,0.2-1.8,0.7-2.7,1.4c-0.8,0.7-1.8,1.6-2.8,2.8l-6.3,7.5
		l6.9,8.9c0.5,0.7,1,1.3,1.5,1.8c0.5,0.5,0.9,0.9,1.3,1.3c0.4,0.3,0.8,0.6,1.2,0.8c0.4,0.2,0.8,0.3,1.1,0.4v1.8h-12.7v-1.9
		c0.8-0.1,1.5-0.3,1.8-0.6c0.4-0.3,0.6-0.6,0.6-1c0-0.3-0.1-0.7-0.2-1c-0.1-0.3-0.4-0.8-0.7-1.3l-4.4-5.9l-4.8,5.9
		c-0.4,0.4-0.6,0.8-0.8,1.2c-0.2,0.3-0.2,0.7-0.2,1.1c0,0.4,0.2,0.7,0.6,1c0.4,0.3,1,0.5,1.8,0.6v1.9h-10.7v-1.8
		c0.5-0.2,1-0.4,1.4-0.6c0.4-0.2,0.8-0.5,1.3-0.8c0.4-0.3,0.9-0.8,1.4-1.3c0.5-0.5,1.1-1.2,1.8-2l6.3-7.5l-6.5-8.5
		c-0.6-0.8-1.1-1.4-1.5-1.9c-0.4-0.5-0.8-0.9-1.2-1.3c-0.4-0.3-0.7-0.6-1.1-0.7c-0.4-0.2-0.8-0.3-1.2-0.3v-1.8h12.5v1.8
		c-0.9,0.1-1.6,0.3-2,0.6c-0.4,0.3-0.6,0.6-0.6,1c0,0.4,0.1,0.8,0.3,1.2s0.5,0.9,1,1.4L1025.9,486.9z"/>
</g>
</svg>
