<?xml version="1.0" encoding="utf-8"?>
<!-- Generator: Adobe Illustrator 23.0.1, SVG Export Plug-In . SVG Version: 6.00 Build 0)  -->
<svg version="1.1" id="Layer_1" xmlns="http://www.w3.org/2000/svg" xmlns:xlink="http://www.w3.org/1999/xlink" x="0px" y="0px"
	 viewBox="0 0 1647 762" style="enable-background:new 0 0 1647 762;" xml:space="preserve">
<style type="text/css">
	.st0{fill:#FFFFFF;}
	.st1{fill:none;stroke:#000000;stroke-miterlimit:10;}
	.st2{fill:#0000FF;}
	.st3{font-family:'ArialMT';}
	.st4{font-size:12px;}
</style>
<rect class="st0" width="1647" height="762"/>
<g>
	<g>
		<defs>
			<rect id="SVGID_1_" width="1647" height="762"/>
		</defs>
		<clipPath id="SVGID_2_">
			<use xlink:href="#SVGID_1_"  style="overflow:visible;"/>
		</clipPath>
		<g style="clip-path:url(#SVGID_2_);">
			
				<image style="overflow:visible;" width="3432" height="1588" xlink:href="AF39E97E.jpg"  transform="matrix(0.48 0 0 0.48 0 -0.24)">
			</image>
		</g>
	</g>
</g>
<line class="st1" x1="709.3" y1="569.2" x2="709.3" y2="117.7"/>
<g>
	<g>
		<defs>
			<rect id="SVGID_3_" width="1647" height="762"/>
		</defs>
		<clipPath id="SVGID_4_">
			<use xlink:href="#SVGID_3_"  style="overflow:visible;"/>
		</clipPath>
		<g style="clip-path:url(#SVGID_4_);">
			
				<image style="overflow:visible;" width="3432" height="1588" xlink:href="AF39E982.jpg"  transform="matrix(0.48 0 0 0.48 0 -0.24)">
			</image>
		</g>
	</g>
</g>
<line class="st1" x1="709.3" y1="569.2" x2="1051.9" y2="588"/>
<g>
	<g>
		<defs>
			<rect id="SVGID_5_" width="1647" height="762"/>
		</defs>
		<clipPath id="SVGID_6_">
			<use xlink:href="#SVGID_5_"  style="overflow:visible;"/>
		</clipPath>
		<g style="clip-path:url(#SVGID_6_);">
			
				<image style="overflow:visible;" width="3432" height="1588" xlink:href="AF39E985.jpg"  transform="matrix(0.48 0 0 0.48 0 -0.24)">
			</image>
		</g>
	</g>
</g>
<line class="st1" x1="709.3" y1="117.7" x2="1051.9" y2="136.4"/>
<g>
	<g>
		<defs>
			<rect id="SVGID_7_" width="1647" height="762"/>
		</defs>
		<clipPath id="SVGID_8_">
			<use xlink:href="#SVGID_7_"  style="overflow:visible;"/>
		</clipPath>
		<g style="clip-path:url(#SVGID_8_);">
			
				<image style="overflow:visible;" width="3432" height="1588" xlink:href="AF39E986.jpg"  transform="matrix(0.48 0 0 0.48 0 -0.24)">
			</image>
		</g>
	</g>
</g>
<line class="st1" x1="1051.9" y1="588" x2="1051.9" y2="136.4"/>
<g>
	<g>
		<defs>
			<rect id="SVGID_9_" width="1647" height="762"/>
		</defs>
		<clipPath id="SVGID_10_">
			<use xlink:href="#SVGID_9_"  style="overflow:visible;"/>
		</clipPath>
		<g style="clip-path:url(#SVGID_10_);">
			
				<image style="overflow:visible;" width="3432" height="1588" xlink:href="AF39E984.jpg"  transform="matrix(0.48 0 0 0.48 0 -0.24)">
			</image>
		</g>
	</g>
</g>
<line class="st1" x1="709.3" y1="569.2" x2="595.1" y2="625.6"/>
<g>
	<g>
		<defs>
			<rect id="SVGID_11_" width="1647" height="762"/>
		</defs>
		<clipPath id="SVGID_12_">
			<use xlink:href="#SVGID_11_"  style="overflow:visible;"/>
		</clipPath>
		<g style="clip-path:url(#SVGID_12_);">
			
				<image style="overflow:visible;" width="3432" height="1588" xlink:href="AF39E983.jpg"  transform="matrix(0.48 0 0 0.48 0 -0.24)">
			</image>
		</g>
	</g>
</g>
<line class="st1" x1="709.3" y1="117.7" x2="595.1" y2="174"/>
<g>
	<g>
		<defs>
			<rect id="SVGID_13_" width="1647" height="762"/>
		</defs>
		<clipPath id="SVGID_14_">
			<use xlink:href="#SVGID_13_"  style="overflow:visible;"/>
		</clipPath>
		<g style="clip-path:url(#SVGID_14_);">
			
				<image style="overflow:visible;" width="3432" height="1588" xlink:href="AF39E98D.jpg"  transform="matrix(0.48 0 0 0.48 0 -0.24)">
			</image>
		</g>
	</g>
</g>
<line class="st1" x1="1051.9" y1="588" x2="937.7" y2="644.3"/>
<g>
	<g>
		<defs>
			<rect id="SVGID_15_" width="1647" height="762"/>
		</defs>
		<clipPath id="SVGID_16_">
			<use xlink:href="#SVGID_15_"  style="overflow:visible;"/>
		</clipPath>
		<g style="clip-path:url(#SVGID_16_);">
			
				<image style="overflow:visible;" width="3432" height="1588" xlink:href="AF39E98E.jpg"  transform="matrix(0.48 0 0 0.48 0 -0.24)">
			</image>
		</g>
	</g>
</g>
<text transform="matrix(1 0 0 1 164.7002 480.3301)" class="st2 st3 st4">c</text>
<g>
	<g>
		<defs>
			<rect id="SVGID_17_" width="1647" height="762"/>
		</defs>
		<clipPath id="SVGID_18_">
			<use xlink:href="#SVGID_17_"  style="overflow:visible;"/>
		</clipPath>
		<g style="clip-path:url(#SVGID_18_);">
			
				<image style="overflow:visible;" width="3432" height="1588" xlink:href="AF39E98C.jpg"  transform="matrix(0.48 0 0 0.48 0 -0.24)">
			</image>
		</g>
	</g>
</g>
<text transform="matrix(1 0 0 1 277.1987 603.4648)" class="st2 st3 st4">b</text>
<g>
	<g>
		<defs>
			<rect id="SVGID_19_" width="1647" height="762"/>
		</defs>
		<clipPath id="SVGID_20_">
			<use xlink:href="#SVGID_19_"  style="overflow:visible;"/>
		</clipPath>
		<g style="clip-path:url(#SVGID_20_);">
			
				<image style="overflow:visible;" width="3432" height="1588" xlink:href="535EBF81.jpg"  transform="matrix(0.48 0 0 0.48 0 -0.24)">
			</image>
		</g>
	</g>
</g>
<line class="st1" x1="1051.9" y1="136.4" x2="937.7" y2="192.8"/>
<g>
	<g>
		<defs>
			<rect id="SVGID_21_" width="1647" height="762"/>
		</defs>
		<clipPath id="SVGID_22_">
			<use xlink:href="#SVGID_21_"  style="overflow:visible;"/>
		</clipPath>
		<g style="clip-path:url(#SVGID_22_);">
			
				<image style="overflow:visible;" width="3432" height="1588" xlink:href="535EBF87.jpg"  transform="matrix(0.48 0 0 0.48 0 -0.24)">
			</image>
		</g>
	</g>
</g>
<text transform="matrix(1 0 0 1 127.2002 615.7949)" class="st2 st3 st4">a</text>
<g>
	<g>
		<defs>
			<rect id="SVGID_23_" width="1647" height="762"/>
		</defs>
		<clipPath id="SVGID_24_">
			<use xlink:href="#SVGID_23_"  style="overflow:visible;"/>
		</clipPath>
		<g style="clip-path:url(#SVGID_24_);">
			
				<image style="overflow:visible;" width="3432" height="1588" xlink:href="535EBF80.jpg"  transform="matrix(0.48 0 0 0.48 0 -0.24)">
			</image>
		</g>
	</g>
</g>
<line class="st1" x1="595.1" y1="625.6" x2="595.1" y2="174"/>
<g>
	<g>
		<defs>
			<rect id="SVGID_25_" width="1647" height="762"/>
		</defs>
		<clipPath id="SVGID_26_">
			<use xlink:href="#SVGID_25_"  style="overflow:visible;"/>
		</clipPath>
		<g style="clip-path:url(#SVGID_26_);">
			
				<image style="overflow:visible;" width="3432" height="1588" xlink:href="535EBF83.jpg"  transform="matrix(0.48 0 0 0.48 0 -0.24)">
			</image>
		</g>
	</g>
</g>
<line class="st1" x1="595.1" y1="625.6" x2="937.7" y2="644.3"/>
<g>
	<g>
		<defs>
			<rect id="SVGID_27_" width="1647" height="762"/>
		</defs>
		<clipPath id="SVGID_28_">
			<use xlink:href="#SVGID_27_"  style="overflow:visible;"/>
		</clipPath>
		<g style="clip-path:url(#SVGID_28_);">
			
				<image style="overflow:visible;" width="3432" height="1588" xlink:href="535EBF9F.jpg"  transform="matrix(0.48 0 0 0.48 0 -0.24)">
			</image>
		</g>
	</g>
</g>
<line class="st1" x1="595.1" y1="174" x2="937.7" y2="192.8"/>
<g>
	<g>
		<defs>
			<rect id="SVGID_29_" width="1647" height="762"/>
		</defs>
		<clipPath id="SVGID_30_">
			<use xlink:href="#SVGID_29_"  style="overflow:visible;"/>
		</clipPath>
		<g style="clip-path:url(#SVGID_30_);">
			
				<image style="overflow:visible;" width="3432" height="1588" xlink:href="535EBF82.jpg"  transform="matrix(0.48 0 0 0.48 0 -0.24)">
			</image>
		</g>
	</g>
</g>
<line class="st1" x1="937.7" y1="644.3" x2="937.7" y2="192.8"/>
<g>
	<g>
		<defs>
			<rect id="SVGID_31_" width="1647" height="762"/>
		</defs>
		<clipPath id="SVGID_32_">
			<use xlink:href="#SVGID_31_"  style="overflow:visible;"/>
		</clipPath>
		<g style="clip-path:url(#SVGID_32_);">
			
				<image style="overflow:visible;" width="3432" height="1588" xlink:href="535EBF85.jpg"  transform="matrix(0.48 0 0 0.48 0 -0.24)">
			</image>
		</g>
	</g>
</g>
</svg>
