<svg width="2276" height="1280" xmlns="http://www.w3.org/2000/svg" xmlns:xlink="http://www.w3.org/1999/xlink" overflow="hidden"><defs><clipPath id="clip0"><rect x="0" y="0" width="2276" height="1280"/></clipPath></defs><g clip-path="url(#clip0)"><rect x="0" y="0" width="2276" height="1279.72" fill="#FFFFFF"/><path d="M193.5 42.3909C193.5 26.4333 206.439 13.497 222.4 13.497L647.6 13.497C663.561 13.497 676.501 26.4333 676.501 42.3909L676.5 273.54C676.5 289.498 663.561 302.434 647.6 302.434L222.4 302.434C206.439 302.434 193.5 289.497 193.5 273.54Z" stroke="#E7E6E6" stroke-width="1.33363" stroke-miterlimit="8" fill="#44546A" fill-rule="evenodd"/><text fill="#FFFFFF" font-family="Arial,Arial_MSFontService,sans-serif" font-weight="700" font-size="53" transform="matrix(1 0 0 0.99978 220.987 146)">Materials Project <tspan font-size="53" x="97.8348" y="55.0121">database</tspan></text><path d="M718 120.973 769 120.973 769 96.9787 820 156.966 769 216.952 769 192.958 718 192.958Z" fill="#B0B3B9" fill-rule="evenodd"/><path d="M868.5 42.3909C868.5 26.4333 881.439 13.497 897.4 13.497L1322.6 13.497C1338.56 13.497 1351.5 26.4333 1351.5 42.3909L1351.5 273.54C1351.5 289.498 1338.56 302.434 1322.6 302.434L897.4 302.434C881.439 302.434 868.5 289.497 868.5 273.54Z" stroke="#E7E6E6" stroke-width="1.33363" stroke-miterlimit="8" fill="#44546A" fill-rule="evenodd"/><text fill="#FFFFFF" font-family="Arial,Arial_MSFontService,sans-serif" font-weight="700" font-size="53" transform="matrix(1 0 0 0.99978 970.317 146)">All fluoride <tspan font-size="53" x="-11.8492" y="55.0121">compounds</tspan></text><path d="M1393 120.973 1444 120.973 1444 96.9787 1495 156.966 1444 216.952 1444 192.958 1393 192.958Z" fill="#B0B3B9" fill-rule="evenodd"/><path d="M1544.5 42.3907C1544.5 26.4331 1557.44 13.497 1573.4 13.497L1997.6 13.497C2013.56 13.497 2026.5 26.4331 2026.5 42.3907L2026.5 273.54C2026.5 289.497 2013.56 302.434 1997.6 302.434L1573.4 302.434C1557.44 302.434 1544.5 289.497 1544.5 273.54Z" stroke="#E7E6E6" stroke-width="1.33363" stroke-miterlimit="8" fill="#44546A" fill-rule="evenodd"/><text fill="#FFFFFF" font-family="Arial,Arial_MSFontService,sans-serif" font-weight="700" font-size="53" transform="matrix(1 0 0 0.99978 1580.18 174)">Stable materials</text><path d="M1821 343.924 1821 395.413 1845 395.413 1785 446.902 1725 395.413 1749 395.413 1749 343.924Z" fill="#B0B3B9" fill-rule="evenodd"/><path d="M1544.5 524.285C1544.5 508.327 1557.44 495.391 1573.4 495.391L1997.6 495.391C2013.56 495.391 2026.5 508.327 2026.5 524.285L2026.5 755.434C2026.5 771.392 2013.56 784.328 1997.6 784.328L1573.4 784.328C1557.44 784.328 1544.5 771.392 1544.5 755.434Z" stroke="#E7E6E6" stroke-width="1.33363" stroke-miterlimit="8" fill="#44546A" fill-rule="evenodd"/><text fill="#FFFFFF" font-family="Arial,Arial_MSFontService,sans-serif" font-weight="700" font-size="53" transform="matrix(1 0 0 0.99978 1568.12 563)">Categorize<tspan font-weight="400" font-size="41" x="0" y="67.0147">•</tspan><tspan font-size="41" x="30.0066" y="67.0147">Space group</tspan><tspan font-weight="400" font-size="41" x="0" y="117.026">•</tspan><tspan font-size="41" x="30.0066" y="117.026">Toxicity</tspan><tspan font-weight="400" font-size="41" x="0" y="167.037">•</tspan><tspan font-size="41" x="30.0066" y="167.037">Periodic table group</tspan></text><path d="M1501 675.052 1450 675.052 1450 698.846 1399 639.359 1450 579.873 1450 603.667 1501 603.667Z" fill="#B0B3B9" fill-rule="evenodd"/><path d="M868.5 524.285C868.5 508.327 881.439 495.391 897.4 495.391L1322.6 495.391C1338.56 495.391 1351.5 508.327 1351.5 524.285L1351.5 755.434C1351.5 771.392 1338.56 784.328 1322.6 784.328L897.4 784.328C881.439 784.328 868.5 771.391 868.5 755.434Z" stroke="#E7E6E6" stroke-width="1.33363" stroke-miterlimit="8" fill="#44546A" fill-rule="evenodd"/><text fill="#FFFFFF" font-family="Arial,Arial_MSFontService,sans-serif" font-weight="700" font-size="53" transform="matrix(1 0 0 0.99978 999.963 600)">Match to <tspan font-size="53" x="-59.2864" y="55.0121">defluorinated </tspan><tspan font-size="53" x="17.7305" y="110.024">phases</tspan></text><path d="M826 675.052 775 675.052 775 698.846 723.999 639.359 775 579.873 775 603.667 826 603.667Z" fill="#B0B3B9" fill-rule="evenodd"/><path d="M193.5 524.285C193.5 508.327 206.439 495.391 222.4 495.391L647.6 495.391C663.561 495.391 676.501 508.327 676.501 524.285L676.5 755.434C676.5 771.392 663.561 784.328 647.6 784.328L222.4 784.328C206.439 784.328 193.5 771.391 193.5 755.434Z" stroke="#E7E6E6" stroke-width="1.33363" stroke-miterlimit="8" fill="#44546A" fill-rule="evenodd"/><text fill="#FFFFFF" font-family="Arial,Arial_MSFontService,sans-serif" font-weight="700" font-size="53" transform="matrix(1 0 0 0.99978 315.868 600)">Calculate <tspan font-size="53" x="16.2903" y="55.0121">relevant </tspan><tspan font-size="53" x="-11.8426" y="110.024">properties</tspan></text><path d="M470.2 826.818 470.2 877.807 494 877.807 434.5 928.797 375 877.807 398.8 877.807 398.8 826.818Z" fill="#B0B3B9" fill-rule="evenodd"/><path d="M193.5 1006.18C193.5 990.221 206.439 977.285 222.4 977.285L647.6 977.285C663.561 977.285 676.501 990.221 676.501 1006.18L676.5 1237.33C676.5 1253.29 663.561 1266.22 647.6 1266.22L222.4 1266.22C206.439 1266.22 193.5 1253.29 193.5 1237.33Z" stroke="#E7E6E6" stroke-width="1.33363" stroke-miterlimit="8" fill="#44546A" fill-rule="evenodd"/><text fill="#FFFFFF" font-family="Arial,Arial_MSFontService,sans-serif" font-weight="700" font-size="53" transform="matrix(1 0 0 0.99978 289.248 1110)">Split out by  <tspan font-size="53" x="14.7766" y="55.0121">properties</tspan></text><path d="M718 1085.56 769 1085.56 769 1061.77 820.001 1121.25 769 1180.74 769 1156.95 718 1156.95Z" fill="#B0B3B9" fill-rule="evenodd"/><path d="M868.5 1006.18C868.5 990.221 881.439 977.285 897.4 977.285L1322.6 977.285C1338.56 977.285 1351.5 990.221 1351.5 1006.18L1351.5 1237.33C1351.5 1253.29 1338.56 1266.22 1322.6 1266.22L897.4 1266.22C881.439 1266.22 868.5 1253.29 868.5 1237.33Z" stroke="#E7E6E6" stroke-width="1.33363" stroke-miterlimit="8" fill="#44546A" fill-rule="evenodd"/><text fill="#FFFFFF" font-family="Arial,Arial_MSFontService,sans-serif" font-weight="700" font-size="53" transform="matrix(1 0 0 0.99978 949.512 1138)">Present data</text></g></svg>