<?xml version="1.0" encoding="utf-8"?>
<!-- Generator: Adobe Illustrator 23.0.1, SVG Export Plug-In . SVG Version: 6.00 Build 0)  -->
<svg version="1.1" id="Layer_1" xmlns="http://www.w3.org/2000/svg" xmlns:xlink="http://www.w3.org/1999/xlink" x="0px" y="0px"
	 viewBox="0 0 358.9 523.9" style="enable-background:new 0 0 358.9 523.9;" xml:space="preserve">
<style type="text/css">
	.st0{fill:none;stroke:#999999;stroke-miterlimit:10;}
	.st1{fill:none;stroke:#999999;stroke-miterlimit:10;stroke-dasharray:12.2,12.2;}
	.st2{fill:none;stroke:#000000;stroke-width:0.75;stroke-miterlimit:10;}
	.st3{fill:none;stroke:#0071BC;stroke-width:3;stroke-miterlimit:10;}
	.st4{fill:none;stroke:#000000;stroke-miterlimit:10;}
	.st5{fill:none;}
	.st6{font-family:'ArialMT';}
	.st7{font-size:16px;}
</style>
<g>
	<g>
		<line class="st0" x1="197.5" y1="29.5" x2="197.5" y2="35.5"/>
		<line class="st1" x1="197.5" y1="47.7" x2="197.5" y2="456.4"/>
		<line class="st0" x1="197.5" y1="462.5" x2="197.5" y2="468.5"/>
	</g>
</g>
<g>
	<g>
		<line class="st0" x1="139.5" y1="26" x2="139.5" y2="32"/>
		<line class="st1" x1="139.5" y1="44.2" x2="139.5" y2="452.9"/>
		<line class="st0" x1="139.5" y1="459" x2="139.5" y2="465"/>
	</g>
</g>
<rect x="66" y="25" class="st2" width="245" height="446"/>
<polyline class="st3" points="168.5,91.5 133.5,91.5 70.5,122.5 "/>
<polyline class="st3" points="305.5,82.5 199.5,180.5 141.5,178.5 "/>
<polyline class="st3" points="168.5,325.5 138.5,325.5 78.5,426.5 "/>
<line class="st4" x1="66.5" y1="73.5" x2="74.5" y2="73.5"/>
<line class="st4" x1="66" y1="173.5" x2="74" y2="173.5"/>
<line class="st4" x1="66" y1="270.5" x2="74" y2="270.5"/>
<line class="st4" x1="66" y1="369.5" x2="74" y2="369.5"/>
<rect x="19.9" y="68" class="st5" width="65" height="25"/>
<text transform="matrix(1 0 0 1 19.9131 79.4121)" class="st6 st7">0.730</text>
<rect x="19.9" y="168" class="st5" width="65" height="25"/>
<text transform="matrix(1 0 0 1 19.9131 179.4121)" class="st6 st7">0.726</text>
<rect x="19.9" y="266" class="st5" width="65" height="25"/>
<text transform="matrix(1 0 0 1 19.9131 277.4121)" class="st6 st7">0.720</text>
<rect x="19.9" y="364" class="st5" width="65" height="25"/>
<text transform="matrix(1 0 0 1 19.9131 375.4121)" class="st6 st7">0.716</text>
<line class="st4" x1="63" y1="248" x2="71" y2="251"/>
<line class="st4" x1="62" y1="254" x2="70" y2="257"/>
<rect x="139.7" y="498.3" class="st5" width="116.3" height="25.7"/>
<text transform="matrix(1 0 0 1 139.7393 509.8037)" class="st6 st7">x in Bi</text>
<text transform="matrix(0.583 0 0 0.583 183.3096 515.1318)" class="st6 st7">1-x</text>
<text transform="matrix(1 0 0 1 196.2681 509.8037)" class="st6 st7">Pb</text>
<text transform="matrix(0.583 0 0 0.583 215.8379 515.1318)" class="st6 st7">x</text>
<text transform="matrix(1 0 0 1 220.502 509.8037)" class="st6 st7">F</text>
<text transform="matrix(0.583 0 0 0.583 230.2754 515.1318)" class="st6 st7">3-x</text>
<rect x="62.4" y="476.5" class="st5" width="22.3" height="14.9"/>
<text transform="matrix(1 0 0 1 62.4346 487.9775)" class="st6 st7">0</text>
<rect x="308.4" y="478.5" class="st5" width="22.3" height="14.9"/>
<text transform="matrix(1 0 0 1 308.4346 489.9775)" class="st6 st7">1</text>
<rect x="181.4" y="476.4" class="st5" width="22.3" height="23.6"/>
<text transform="matrix(1 0 0 1 181.4346 487.8477)" class="st6 st7">0.5</text>
<line class="st4" x1="188" y1="471" x2="188" y2="466"/>
<line class="st4" x1="303" y1="175.5" x2="311" y2="175.5"/>
<line class="st4" x1="303" y1="272.5" x2="311" y2="272.5"/>
<line class="st4" x1="303" y1="371.5" x2="311" y2="371.5"/>
<line class="st4" x1="307.5" y1="455.5" x2="314.5" y2="450.5"/>
<line class="st4" x1="307.5" y1="460.5" x2="314.5" y2="455.5"/>
<line class="st4" x1="303" y1="76.5" x2="311" y2="76.5"/>
<rect x="3.8" y="100.8" class="st5" width="23.2" height="252.8"/>
<text transform="matrix(0 -1 1 0 15.2385 353.5654)" class="st6 st7">Lattice parameters (nm)</text>
<rect x="315.9" y="366" class="st5" width="65" height="25"/>
<text transform="matrix(1 0 0 1 315.9131 377.4121)" class="st6 st7">0.582</text>
<rect x="315.9" y="266" class="st5" width="65" height="25"/>
<text transform="matrix(1 0 0 1 315.9131 277.4121)" class="st6 st7">0.586</text>
<rect x="315.9" y="168" class="st5" width="65" height="25"/>
<text transform="matrix(1 0 0 1 315.9131 179.4121)" class="st6 st7">0.590</text>
<rect x="315.9" y="70" class="st5" width="65" height="25"/>
<text transform="matrix(1 0 0 1 315.9131 81.4121)" class="st6 st7">0.594</text>
<rect x="129.3" y="70.2" class="st5" width="45.7" height="19.8"/>
<text transform="matrix(1 0 0 1 129.2607 81.6729)" class="st6 st7">c-axis</text>
<rect x="135.3" y="296.2" class="st5" width="45.7" height="19.8"/>
<text transform="matrix(1 0 0 1 135.2607 307.6729)" class="st6 st7">a-axis</text>
</svg>
