<svg xmlns="http://www.w3.org/2000/svg" viewBox="0 0 378.4199 294.2788"><defs><style>.a{fill:none;stroke:#262626;stroke-linecap:square;stroke-linejoin:round;stroke-width:0.5002px;}.b{font-size:9.9998px;}.b,.h{fill:#262626;}.b,.h,.l{font-family:ArialMT, Arial;}.c{letter-spacing:2.95em;}.d{letter-spacing:2.138em;}.e{letter-spacing:0em;}.f{letter-spacing:1.844em;}.g{letter-spacing:1.8439em;}.h{font-size:11.0002px;}.i{fill:#00d495;}.i,.k,.m,.n,.o,.p,.q{opacity:0.5;}.j,.l{font-size:12px;}.j{font-family:Arial-BoldMT, Arial;font-weight:700;}.k{fill:#ffb01f;}.m{fill:#ff0e00;}.n{fill:#0c00df;}.o{fill:#dd4aff;}.p{fill:#ecff3f;}.q{fill:#80ff3f;}</style></defs><title>Volumetric_overview</title><line class="a" x1="41.9395" y1="261.7065" x2="367.4395" y2="261.7065"/><line class="a" x1="41.9395" y1="4.4565" x2="367.4395" y2="4.4565"/><line class="a" x1="41.9395" y1="261.7065" x2="41.9395" y2="258.4514"/><line class="a" x1="82.627" y1="261.7065" x2="82.627" y2="258.4514"/><line class="a" x1="123.3145" y1="261.7065" x2="123.3145" y2="258.4514"/><line class="a" x1="164.0024" y1="261.7065" x2="164.0024" y2="258.4514"/><line class="a" x1="204.6895" y1="261.7065" x2="204.6895" y2="258.4514"/><line class="a" x1="245.3774" y1="261.7065" x2="245.3774" y2="258.4514"/><line class="a" x1="286.0645" y1="261.7065" x2="286.0645" y2="258.4514"/><line class="a" x1="326.7524" y1="261.7065" x2="326.7524" y2="258.4514"/><line class="a" x1="367.4395" y1="261.7065" x2="367.4395" y2="258.4514"/><line class="a" x1="41.9395" y1="4.4565" x2="41.9395" y2="7.7115"/><line class="a" x1="82.627" y1="4.4565" x2="82.627" y2="7.7115"/><line class="a" x1="123.3145" y1="4.4565" x2="123.3145" y2="7.7115"/><line class="a" x1="164.0024" y1="4.4565" x2="164.0024" y2="7.7115"/><line class="a" x1="204.6895" y1="4.4565" x2="204.6895" y2="7.7115"/><line class="a" x1="245.3774" y1="4.4565" x2="245.3774" y2="7.7115"/><line class="a" x1="286.0645" y1="4.4565" x2="286.0645" y2="7.7115"/><line class="a" x1="326.7524" y1="4.4565" x2="326.7524" y2="7.7115"/><line class="a" x1="367.4395" y1="4.4565" x2="367.4395" y2="7.7115"/><text class="b" transform="translate(38.9395 276.2065)"><tspan class="c">0</tspan><tspan x="35.0605" y="0">50</tspan><tspan class="d" x="46.1836" y="0">0</tspan><tspan class="e" x="73.1245" y="0">100</tspan><tspan class="f" x="89.8086" y="0">0</tspan><tspan class="e" x="113.8096" y="0">150</tspan><tspan class="g" x="130.4937" y="0">0</tspan><tspan x="154.4941" y="0">200</tspan><tspan class="f" x="171.1787" y="0">0</tspan><tspan x="195.1797" y="0">250</tspan><tspan class="f" x="211.8633" y="0">0</tspan><tspan x="235.8643" y="0">300</tspan><tspan class="f" x="252.5488" y="0">0</tspan><tspan x="276.5498" y="0">350</tspan><tspan class="f" x="293.2334" y="0">0</tspan><tspan x="317.2344" y="0">4000</tspan></text><text class="h" transform="translate(90.6895 290.7065)">Theoretical gravimetric energy density (Wh/kg)</text><line class="a" x1="41.9395" y1="261.7065" x2="41.9395" y2="4.4565"/><line class="a" x1="367.4395" y1="261.7065" x2="367.4395" y2="4.4565"/><line class="a" x1="41.9395" y1="261.7065" x2="45.1945" y2="261.7065"/><line class="a" x1="41.9395" y1="218.8311" x2="45.1945" y2="218.8311"/><line class="a" x1="41.9395" y1="175.9565" x2="45.1945" y2="175.9565"/><line class="a" x1="41.9395" y1="133.0815" x2="45.1945" y2="133.0815"/><line class="a" x1="41.9395" y1="90.2065" x2="45.1945" y2="90.2065"/><line class="a" x1="41.9395" y1="47.3315" x2="45.1945" y2="47.3315"/><line class="a" x1="41.9395" y1="4.4565" x2="45.1945" y2="4.4565"/><line class="a" x1="367.4395" y1="261.7065" x2="364.1844" y2="261.7065"/><line class="a" x1="367.4395" y1="218.8311" x2="364.1844" y2="218.8311"/><line class="a" x1="367.4395" y1="175.9565" x2="364.1844" y2="175.9565"/><line class="a" x1="367.4395" y1="133.0815" x2="364.1844" y2="133.0815"/><line class="a" x1="367.4395" y1="90.2065" x2="364.1844" y2="90.2065"/><line class="a" x1="367.4395" y1="47.3315" x2="364.1844" y2="47.3315"/><line class="a" x1="367.4395" y1="4.4565" x2="364.1844" y2="4.4565"/><text class="b" transform="translate(31.9395 265.8315)">0</text><text class="b" transform="translate(15.4395 222.9565)">1000</text><text class="b" transform="translate(15.4395 180.0815)">2000</text><text class="b" transform="translate(15.4395 137.2065)">3000</text><text class="b" transform="translate(15.4395 94.3315)">4000</text><text class="b" transform="translate(15.4395 51.4565)">5000</text><text class="b" transform="translate(15.4395 8.5815)">6000</text><text class="h" transform="translate(9.4395 242.2065) rotate(-90)">Theoretical volumetric energy density (Wh/L)</text><rect class="i" x="66.5371" y="77.1574" width="189.073" height="67.8958" rx="33.9478" transform="translate(175.9463 -84.7346) rotate(60)"/><text class="j" transform="translate(138.2346 110.6357)">Fluoride <tspan x="14.668" y="14.3999">ion</tspan></text><rect class="k" x="193.4348" y="41.3478" width="169.0435" height="44.8696" rx="22.4334" transform="translate(-0.8348 126.6658) rotate(-25.826)"/><text class="l" transform="translate(256.2953 65.32)">Mg-ion</text><rect class="m" x="198.9572" y="90.1811" width="84.0242" height="51.399" rx="25.6995" transform="translate(165.5407 -141.6747) rotate(48.1129)"/><text class="l" transform="translate(221.5562 113.32)">Li-sulfur<tspan x="0" y="14.3999">Mg-sulfur</tspan></text><rect class="n" x="34.8347" y="171.0218" width="71.3203" height="25.8854" rx="12.9427" transform="translate(253.6487 112.6762) rotate(90)"/><text class="l" transform="translate(50.8013 231.5483)">Present<tspan x="0" y="14.3999">Li-Ion</tspan></text><rect class="o" x="45.082" y="161.6225" width="71.3203" height="30.2549" rx="15.1275" transform="translate(256.6815 95.2144) rotate(90)"/><text class="l" transform="translate(63.8855 135.1578)">Na-ion</text><rect class="p" x="69.6862" y="144.0358" width="85.5761" height="40.4771" rx="20.2385" transform="translate(252.9644 303.7329) rotate(169.185)"/><text class="l" transform="translate(100.1899 166.157)">Cl-ion</text><rect class="p" x="122.193" y="190.0696" width="66.6512" height="40.4771" rx="20.2385" transform="translate(346.9263 386.9061) rotate(169.185)"/><rect class="q" x="265.3098" y="51.8845" width="127.8166" height="44.8696" rx="22.4334" transform="translate(284.1075 408.1082) rotate(-95.1787)"/><text class="l" transform="translate(135.8289 206.0316)">Na-air<tspan x="0" y="14.3999">Zn-air</tspan></text><text class="l" transform="translate(314.5127 77.407)">Li-air<tspan x="0" y="14.3999">Mg-air</tspan></text></svg>